<svg id="Group_16312" data-name="Group 16312" xmlns="http://www.w3.org/2000/svg" width="142" height="170" viewBox="0 0 142 170">
  <rect id="Rectangle_5424" data-name="Rectangle 5424" width="142" height="170" fill="none"/>
  <g id="Group_16310" data-name="Group 16310" transform="translate(-0.141 0.496)">
    <g id="Group_16309" data-name="Group 16309" transform="translate(120.273 -2403.183)">
      <path id="Path_23412" data-name="Path 23412" d="M-.689,2432.687H-43.331a2.662,2.662,0,0,0-2.662,2.662v50.393a2.662,2.662,0,0,0,2.662,2.662H-.689a2.662,2.662,0,0,0,2.662-2.662v-50.393A2.662,2.662,0,0,0-.689,2432.687Zm-1.433,44a2.5,2.5,0,0,1-2.5,2.5H-39.394a2.5,2.5,0,0,1-2.5-2.5v-37.107a2.5,2.5,0,0,1,2.5-2.5H-4.626a2.5,2.5,0,0,1,2.5,2.5Z" transform="translate(-19.525)" fill="#dedede"/>
      <path id="Path_23413" data-name="Path 23413" d="M-68.443,2519.833V2489l-7.34,1.8a7.2,7.2,0,0,0-5.284,8.707l6.447,26.351a7.2,7.2,0,0,0,8.707,5.283l22.942-5.614a7.169,7.169,0,0,0,4.293-3.033h-27.1A2.662,2.662,0,0,1-68.443,2519.833Z" transform="translate(0 -31.166)" fill="#dedede" opacity="0.46"/>
      <path id="Path_23414" data-name="Path 23414" d="M-21.056,2482.978l-10.529,4.68v9.4a2.3,2.3,0,0,0,2.3,2.3h30.5a2.3,2.3,0,0,0,2.3-2.3v-23.442l-21.058,14.624Z" transform="translate(-27.499 -22.652)" fill="#dedede"/>
      <circle id="Ellipse_799" data-name="Ellipse 799" cx="2.903" cy="2.903" r="2.903" transform="translate(-50.153 2443.405)" fill="#dedede"/>
    </g>
    <path id="Path_23415" data-name="Path 23415" d="M8.907,0H7.178L2.741-7.062V0H1.012V-9.953H2.741l4.45,7.089V-9.953H8.907Zm1.574-3.767a4.361,4.361,0,0,1,.431-1.958,3.145,3.145,0,0,1,1.21-1.34,3.409,3.409,0,0,1,1.791-.468,3.231,3.231,0,0,1,2.43.964,3.791,3.791,0,0,1,1.008,2.557l.007.39a4.4,4.4,0,0,1-.42,1.955,3.108,3.108,0,0,1-1.2,1.333,3.434,3.434,0,0,1-1.808.472A3.209,3.209,0,0,1,11.422-.906a3.993,3.993,0,0,1-.94-2.779Zm1.661.144a2.98,2.98,0,0,0,.472,1.788,1.533,1.533,0,0,0,1.313.646,1.517,1.517,0,0,0,1.309-.656A3.292,3.292,0,0,0,15.7-3.767a2.942,2.942,0,0,0-.482-1.777A1.539,1.539,0,0,0,13.913-6.2a1.525,1.525,0,0,0-1.292.646A3.23,3.23,0,0,0,12.143-3.623Zm12-.068V0H22.415V-9.953h3.808a3.85,3.85,0,0,1,2.649.869,2.922,2.922,0,0,1,.981,2.3,2.825,2.825,0,0,1-.96,2.279,4.037,4.037,0,0,1-2.69.814Zm0-1.395h2.078A2.047,2.047,0,0,0,27.63-5.52a1.6,1.6,0,0,0,.485-1.254,1.721,1.721,0,0,0-.492-1.289,1.9,1.9,0,0,0-1.354-.5H24.144Zm10.933-.793a4.111,4.111,0,0,0-.677-.055,1.524,1.524,0,0,0-1.538.875V0H31.2V-7.4h1.586l.041.827A1.872,1.872,0,0,1,34.5-7.533a1.555,1.555,0,0,1,.588.1ZM39.385.137a3.437,3.437,0,0,1-2.56-.995,3.608,3.608,0,0,1-.981-2.649v-.205a4.438,4.438,0,0,1,.427-1.979,3.252,3.252,0,0,1,1.2-1.357,3.172,3.172,0,0,1,1.723-.485,2.9,2.9,0,0,1,2.334.964,4.076,4.076,0,0,1,.824,2.728v.67H37.519a2.221,2.221,0,0,0,.612,1.449,1.837,1.837,0,0,0,1.35.533,2.249,2.249,0,0,0,1.859-.923l.9.854A2.99,2.99,0,0,1,41.05-.229,3.713,3.713,0,0,1,39.385.137Zm-.2-6.337a1.4,1.4,0,0,0-1.1.479,2.48,2.48,0,0,0-.537,1.333h3.165v-.123a2.019,2.019,0,0,0-.444-1.261A1.388,1.388,0,0,0,39.187-6.2Zm6.975,4.095L47.727-7.4h1.716L46.88,0H45.437L42.853-7.4h1.723ZM52.248,0H50.587V-7.4h1.661ZM50.484-9.317a.882.882,0,0,1,.243-.636.917.917,0,0,1,.694-.253.928.928,0,0,1,.7.253.875.875,0,0,1,.246.636.855.855,0,0,1-.246.625.935.935,0,0,1-.7.25.924.924,0,0,1-.694-.25A.861.861,0,0,1,50.484-9.317ZM57.316.137a3.437,3.437,0,0,1-2.56-.995,3.608,3.608,0,0,1-.981-2.649v-.205A4.438,4.438,0,0,1,54.2-5.691a3.252,3.252,0,0,1,1.2-1.357,3.172,3.172,0,0,1,1.723-.485,2.9,2.9,0,0,1,2.334.964,4.076,4.076,0,0,1,.824,2.728v.67H55.449a2.221,2.221,0,0,0,.612,1.449,1.837,1.837,0,0,0,1.35.533,2.249,2.249,0,0,0,1.859-.923l.9.854A2.99,2.99,0,0,1,58.98-.229,3.713,3.713,0,0,1,57.316.137Zm-.2-6.337a1.4,1.4,0,0,0-1.1.479,2.48,2.48,0,0,0-.537,1.333h3.165v-.123A2.019,2.019,0,0,0,58.2-5.773,1.388,1.388,0,0,0,57.117-6.2ZM68.071-2.29,69.246-7.4h1.62L68.85,0H67.483L65.9-5.079,64.338,0H62.971L60.948-7.4h1.62l1.2,5.052L65.282-7.4h1.251Z" transform="translate(36 119)" fill="#343a40"/>
    <path id="Path_23416" data-name="Path 23416" d="M7.523-2.648H3.117L2.2,0H.141l4.3-11.375H6.211L10.516,0H8.453ZM3.672-4.242h3.3L5.32-8.961ZM15.213-2.477l2.891-8.9h2.172L16.182,0H14.268L10.19-11.375h2.164Zm12.127-.172H22.934L22.013,0H19.958l4.3-11.375h1.773L30.333,0H28.27ZM23.489-4.242h3.3L25.138-8.961ZM33.71,0H31.742V-11.375H33.71Zm4.409-1.578h5.164V0H36.142V-11.375h1.977Zm13.2-1.07H46.91L45.989,0H43.934l4.3-11.375H50L54.309,0H52.246ZM47.465-4.242h3.3L49.114-8.961ZM55.6,0V-11.375h3.9a4.76,4.76,0,0,1,2.938.773,2.724,2.724,0,0,1,1.008,2.3,2.456,2.456,0,0,1-.422,1.406,2.715,2.715,0,0,1-1.234.969,2.511,2.511,0,0,1,1.426.941,2.742,2.742,0,0,1,.5,1.66A3.028,3.028,0,0,1,62.69-.859,4.467,4.467,0,0,1,59.749,0Zm1.977-5.133v3.555h2.2a2.124,2.124,0,0,0,1.453-.461,1.618,1.618,0,0,0,.523-1.281,1.623,1.623,0,0,0-1.812-1.812Zm0-1.453h1.938A2.241,2.241,0,0,0,60.956-7a1.432,1.432,0,0,0,.52-1.184,1.452,1.452,0,0,0-.48-1.219,2.426,2.426,0,0,0-1.5-.375H57.577Zm10.1,5.008h5.164V0H65.7V-11.375h1.977ZM81-5.078H76.332v3.5h5.461V0H74.355V-11.375h7.383v1.594H76.332v3.141H81Z" transform="translate(30 140)" fill="#343a40"/>
  </g>
</svg>
