<svg version="1.1" id="Layer_1" xmlns="http://www.w3.org/2000/svg" xmlns:xlink="http://www.w3.org/1999/xlink" x="0px" y="0px"
	 viewBox="0 0 256 256" style="enable-background:new 0 0 256 256;" xml:space="preserve">
<style type="text/css">
	.st0{fill:#B1B1B1;}
	.st1{fill:#EDEFEE;}
	.st2{fill:#FFFFFF;}
</style>
<g>
	<g>
		<path class="st0" d="M232.8,104.7c-0.5,0-1-0.2-1.4-0.5l0,0c-0.6-0.4-1-1-1.2-1.7c-0.2-0.7-0.1-1.5,0.4-2.2c0.4-0.6,1-1,1.8-1.2
			c0.7-0.2,1.5,0,2.1,0.4c0.6,0.4,1.1,1,1.2,1.8c0.2,0.8,0,1.5-0.4,2.1c-0.5,0.7-1.1,1.1-1.8,1.2C233.2,104.7,233,104.7,232.8,104.7
			z M232.1,103.2c0.4,0.2,0.7,0.3,1.2,0.3c0.4-0.1,0.7-0.3,1-0.7c0.2-0.4,0.3-0.8,0.2-1.2c-0.1-0.4-0.3-0.8-0.7-1
			c-0.4-0.2-0.8-0.3-1.2-0.2c-0.4,0.1-0.8,0.3-1,0.7c-0.3,0.4-0.4,0.8-0.3,1.2C231.5,102.7,231.7,103,232.1,103.2L232.1,103.2z
			 M236.1,98.7c-0.3,0-0.6-0.1-0.9-0.3c-0.6-0.4-0.9-1-0.8-1.8c0.1-0.6,0.3-1.2,0.8-2.1l0,0l3.4-6.1c0.7-1.2,1.2-2.1,1.5-2.6
			c0.5-0.8,1.2-1.3,1.9-1.5c0.8-0.2,1.5,0,2.2,0.4c1.1,0.7,1.3,1.6,1.2,2.2c-0.1,0.7-0.5,1.6-1.1,2.6c-0.4,0.6-0.8,1.1-1.2,1.6
			l-4.5,5.7c-0.6,0.7-1.1,1.3-1.6,1.6C236.8,98.7,236.4,98.8,236.1,98.7z M236.2,95.1c-0.4,0.7-0.6,1.3-0.7,1.7c0,0.2,0,0.4,0.3,0.6
			c0.2,0.2,0.4,0.2,0.7,0c0.4-0.2,0.8-0.6,1.3-1.3l4.5-5.7c0.4-0.5,0.8-1,1.1-1.5c0.5-0.8,0.9-1.5,0.9-2.1c0-0.3,0-0.6-0.7-1.1
			c-0.4-0.3-0.9-0.4-1.3-0.3c-0.5,0.1-0.8,0.4-1.2,1c-0.3,0.5-0.8,1.3-1.5,2.5L236.2,95.1z"/>
	</g>
	<g>
		<path class="st1" d="M158.9,44.7H89.4L40.3,93.9v69.5l49.1,49.1h69.5l49.1-49.1V93.9L158.9,44.7z M198.6,159.5L155,203.1H93.3
			l-43.6-43.6V97.8l43.6-43.6H155l43.6,43.6V159.5z"/>
		<path class="st0" d="M158.9,44.7l49.1,49.1v69.5l-49.1,49.1H89.4l-49.1-49.1V93.9l49.1-49.1H158.9 M93.3,203.1H155l43.6-43.6V97.8
			L155,54.2H93.3L49.7,97.8v61.7L93.3,203.1 M159.7,42.9h-0.8H89.4h-0.8l-0.5,0.5L39,92.6l-0.5,0.5v0.8v69.5v0.8l0.5,0.5l49.1,49.1
			l0.5,0.5h0.8h69.5h0.8l0.5-0.5l49.1-49.1l0.5-0.5v-0.8V93.9v-0.8l-0.5-0.5l-49.1-49.1L159.7,42.9L159.7,42.9z M94.1,56h60.1
			l42.5,42.5v60.1l-42.5,42.5H94.1l-42.5-42.5V98.6L94.1,56L94.1,56z"/>
	</g>
	<g>
		<path class="st1" d="M124.2,71.9c-79.9,0-36.6,84.6-23.1,99.8c13.5,15.2,23.1,13.5,23.1,13.5s9.6,1.7,23.1-13.5
			C160.7,156.5,204.1,71.9,124.2,71.9z M110.3,145.4l-6.3-6.3l-6.3,6.3c-1.3,1.3-3.3,1.3-4.6,0c-1.3-1.3-1.3-3.3,0-4.6l6.3-6.3
			l-6.3-6.3c-1.3-1.3-1.3-3.3,0-4.6c1.3-1.3,3.3-1.3,4.6,0l6.3,6.3l6.3-6.3c1.3-1.3,3.3-1.3,4.6,0c1.3,1.3,1.3,3.3,0,4.6l-6.3,6.3
			l6.3,6.3c1.3,1.3,1.3,3.3,0,4.6C113.6,146.7,111.5,146.7,110.3,145.4z M124.2,170c-5.7,0-10.4-2.3-10.4-5.2
			c0-2.9,4.6-5.2,10.4-5.2c5.7,0,10.4,2.3,10.4,5.2C134.5,167.7,129.9,170,124.2,170z M155.3,140.8c1.3,1.3,1.3,3.3,0,4.6
			c-1.3,1.3-3.3,1.3-4.6,0l-6.3-6.3l-6.3,6.3c-1.3,1.3-3.3,1.3-4.6,0c-1.3-1.3-1.3-3.3,0-4.6l6.3-6.3l-6.3-6.3
			c-1.3-1.3-1.3-3.3,0-4.6c1.3-1.3,3.3-1.3,4.6,0l6.3,6.3l6.3-6.3c1.3-1.3,3.3-1.3,4.6,0c1.3,1.3,1.3,3.3,0,4.6l-6.3,6.3
			L155.3,140.8z"/>
		<path class="st0" d="M124.2,71.9c79.9,0,36.6,84.6,23.1,99.8c-11.1,12.4-19.5,13.6-22.2,13.6c-0.6,0-0.9-0.1-0.9-0.1
			s-0.3,0.1-0.9,0.1c-2.7,0-11.1-1.1-22.2-13.6C87.6,156.5,44.2,71.9,124.2,71.9 M135.7,146.4c0.8,0,1.7-0.3,2.3-1l6.3-6.3l6.3,6.3
			c0.6,0.6,1.5,1,2.3,1s1.7-0.3,2.3-1c1.3-1.3,1.3-3.3,0-4.6l-6.3-6.3l6.3-6.3c1.3-1.3,1.3-3.3,0-4.6c-0.6-0.6-1.5-1-2.3-1
			s-1.7,0.3-2.3,1l-6.3,6.3l-6.3-6.3c-0.6-0.6-1.5-1-2.3-1c-0.8,0-1.7,0.3-2.3,1c-1.3,1.3-1.3,3.3,0,4.6l6.3,6.3l-6.3,6.3
			c-1.3,1.3-1.3,3.3,0,4.6C134.1,146,134.9,146.4,135.7,146.4 M95.3,146.4c0.8,0,1.7-0.3,2.3-1l6.3-6.3l6.3,6.3c0.6,0.6,1.5,1,2.3,1
			c0.8,0,1.7-0.3,2.3-1c1.3-1.3,1.3-3.3,0-4.6l-6.3-6.3l6.3-6.3c1.3-1.3,1.3-3.3,0-4.6c-0.6-0.6-1.5-1-2.3-1c-0.8,0-1.7,0.3-2.3,1
			l-6.3,6.3l-6.3-6.3c-0.6-0.6-1.5-1-2.3-1c-0.8,0-1.7,0.3-2.3,1c-1.3,1.3-1.3,3.3,0,4.6l6.3,6.3l-6.3,6.3c-1.3,1.3-1.3,3.3,0,4.6
			C93.6,146,94.4,146.4,95.3,146.4 M124.2,170c5.7,0,10.4-2.3,10.4-5.2c0-2.9-4.6-5.2-10.4-5.2c-5.7,0-10.4,2.3-10.4,5.2
			C113.8,167.7,118.4,170,124.2,170 M124.2,70.2c-23.6,0-38.8,7.3-45.3,21.6c-6.6,14.7-2.3,33.5,2.4,46.7
			c5.3,14.8,13.3,28.4,18.5,34.2c11.3,12.7,20.2,14.1,23.4,14.1c0.4,0,0.7,0,0.9,0c0.2,0,0.5,0,0.9,0c3.3,0,12.1-1.4,23.4-14.1
			c5.2-5.8,13.2-19.4,18.5-34.2c4.7-13.2,9-32,2.4-46.7C163,77.5,147.8,70.2,124.2,70.2L124.2,70.2z M135.7,144.7
			c-0.4,0-0.8-0.2-1.1-0.5c-0.3-0.3-0.5-0.7-0.5-1.1s0.2-0.8,0.5-1.1l6.3-6.3l1.2-1.2l-1.2-1.2l-6.3-6.3c-0.6-0.6-0.6-1.6,0-2.3
			c0.3-0.3,0.7-0.5,1.1-0.5c0.4,0,0.8,0.2,1.1,0.5l6.3,6.3l1.2,1.2l1.2-1.2l6.3-6.3c0.3-0.3,0.7-0.5,1.1-0.5h0
			c0.4,0,0.8,0.2,1.1,0.5c0.6,0.6,0.6,1.6,0,2.3l-6.3,6.3l-1.2,1.2l1.2,1.2l6.3,6.3c0.6,0.6,0.6,1.6,0,2.3c-0.3,0.3-0.7,0.5-1.1,0.5
			c-0.4,0-0.8-0.2-1.1-0.5l-6.3-6.3l-1.2-1.2l-1.2,1.2l-6.3,6.3C136.6,144.5,136.2,144.7,135.7,144.7L135.7,144.7z M95.3,144.7
			c-0.4,0-0.8-0.2-1.1-0.5c-0.3-0.3-0.5-0.7-0.5-1.1s0.2-0.8,0.5-1.1l6.3-6.3l1.2-1.2l-1.2-1.2l-6.3-6.3c-0.6-0.6-0.6-1.6,0-2.3
			c0.3-0.3,0.7-0.5,1.1-0.5c0.4,0,0.8,0.2,1.1,0.5l6.3,6.3l1.2,1.2l1.2-1.2l6.3-6.3c0.3-0.3,0.7-0.5,1.1-0.5l0,0
			c0.4,0,0.8,0.2,1.1,0.5c0.3,0.3,0.5,0.7,0.5,1.1c0,0.4-0.2,0.8-0.5,1.1l-6.3,6.3l-1.2,1.2l1.2,1.2l6.3,6.3c0.6,0.6,0.6,1.6,0,2.3
			c-0.3,0.3-0.7,0.5-1.1,0.5c-0.4,0-0.8-0.2-1.1-0.5l-6.3-6.3l-1.2-1.2l-1.2,1.2l-6.3,6.3C96.1,144.5,95.7,144.7,95.3,144.7
			L95.3,144.7z M124.2,168.4c-5.3,0-8.7-2.1-8.7-3.5c0-1.4,3.4-3.5,8.7-3.5c5.3,0,8.7,2.1,8.7,3.5
			C132.9,166.3,129.5,168.4,124.2,168.4L124.2,168.4z"/>
	</g>
	<path class="st0" d="M147.5,7.1c1.3,0,2.7,0.3,4.2,0.8c6.9,2.5,7.9,8.2,7.5,10.8c-0.1,0.8-0.8,1.3-1.5,1.3c-0.1,0-0.1,0-0.2,0
		c-0.1,0-0.2,0-0.3-0.1c-0.7-0.2-1.1-0.9-1-1.7c0-0.2,0.7-5.2-5.5-7.5c-1.2-0.4-2.3-0.6-3.2-0.6c-3.9-0.1-5.7,2.7-5.8,2.9
		c-0.3,0.5-0.8,0.8-1.3,0.7c-0.3,0-0.5-0.1-0.8-0.2c-0.7-0.4-1-1.4-0.5-2.1C140.1,9.7,143,7,147.5,7.1 M147.6,5.5
		c-5-0.1-8.4,2.7-9.8,5.2c-0.9,1.5-0.4,3.4,1.1,4.3c0.5,0.3,1,0.4,1.5,0.4c1.1,0,2.2-0.6,2.7-1.5c0.1-0.1,1.4-2.2,4.4-2.1
		c0.8,0,1.8,0.2,2.7,0.5c4.8,1.7,4.5,5.3,4.4,5.7c-0.2,1.5,0.6,2.9,2,3.4c0.2,0.1,0.4,0.1,0.6,0.1c0.2,0,0.3,0,0.5,0
		c1.5,0,2.9-1.1,3.1-2.6c0.5-3.1-0.6-9.7-8.5-12.6C150.7,5.8,149.1,5.5,147.6,5.5L147.6,5.5z"/>
	<path class="st0" d="M92.4,240.8c-0.2,0-0.3,0-0.5-0.1c-6.8-1.9-13.4-4.5-19.7-7.6c-0.9-0.4-1.2-1.5-0.8-2.3
		c0.4-0.9,1.5-1.2,2.3-0.8c6.1,3,12.6,5.5,19.1,7.4c0.9,0.3,1.5,1.2,1.2,2.1C93.9,240.3,93.2,240.8,92.4,240.8z M154.2,240.8
		c-0.8,0-1.4-0.5-1.7-1.3c-0.3-0.9,0.3-1.9,1.2-2.1c6.6-1.9,13-4.4,19.1-7.4c0.9-0.4,1.9-0.1,2.3,0.8c0.4,0.9,0.1,1.9-0.8,2.3
		c-6.3,3.1-12.9,5.7-19.7,7.7C154.5,240.7,154.3,240.8,154.2,240.8z M191.3,222.2c-0.5,0-1-0.2-1.4-0.7c-0.6-0.8-0.4-1.8,0.3-2.4
		c5.4-4.1,10.5-8.8,15.1-13.8c0.6-0.7,1.7-0.8,2.4-0.1c0.7,0.6,0.8,1.7,0.1,2.4c-4.7,5.2-10,10-15.6,14.3
		C192,222.1,191.6,222.2,191.3,222.2z M27.3,191.7c-0.6,0-1.1-0.3-1.5-0.8c-3.7-6-6.9-12.4-9.5-18.9c-0.3-0.9,0.1-1.9,1-2.2
		c0.9-0.3,1.9,0.1,2.2,1c2.5,6.4,5.6,12.5,9.2,18.3c0.5,0.8,0.3,1.9-0.6,2.4C28,191.6,27.6,191.7,27.3,191.7z M234.2,152.9
		c-0.1,0-0.2,0-0.3,0c-0.9-0.2-1.6-1.1-1.4-2c1.2-6.7,1.9-13.6,1.9-20.4l0-0.3c0-1,0.8-1.7,1.7-1.7c1,0,1.7,0.8,1.7,1.7l0,0.3
		c0,7.1-0.6,14.2-1.9,21.1C235.7,152.3,235,152.9,234.2,152.9z M12.2,111.6c-0.1,0-0.2,0-0.3,0c-0.9-0.2-1.6-1.1-1.4-2
		c1.3-6.9,3.2-13.8,5.7-20.3c0.3-0.9,1.4-1.3,2.2-1c0.9,0.3,1.3,1.3,1,2.2c-2.5,6.4-4.3,13-5.6,19.7
		C13.8,111.1,13.1,111.6,12.2,111.6z M219,72.5c-0.6,0-1.1-0.3-1.5-0.8c-3.6-5.8-7.8-11.3-12.4-16.3c-0.6-0.7-0.6-1.8,0.1-2.4
		c0.7-0.6,1.8-0.6,2.4,0.1c4.8,5.2,9.1,10.9,12.8,16.8c0.5,0.8,0.3,1.9-0.6,2.4C219.7,72.4,219.4,72.5,219,72.5z M191,42
		c-0.4,0-0.7-0.1-1-0.3c-5.5-4.1-11.3-7.7-17.4-10.8c-0.9-0.4-1.2-1.5-0.8-2.3c0.4-0.9,1.5-1.2,2.3-0.8c6.3,3.1,12.4,6.9,18,11.1
		c0.8,0.6,0.9,1.7,0.3,2.4C192.1,41.7,191.5,42,191,42z M92.1,23.7c-0.8,0-1.4-0.5-1.7-1.3c-0.3-0.9,0.3-1.9,1.2-2.1
		c6.8-1.9,13.7-3.2,20.8-3.9c0.9-0.1,1.8,0.6,1.9,1.6c0.1,1-0.6,1.8-1.6,1.9c-6.8,0.6-13.6,1.9-20.1,3.8
		C92.4,23.7,92.3,23.7,92.1,23.7z"/>
	<g>
		<path class="st2" d="M130.5,244.5c0,1.7-1.4,3.2-3.2,3.2c-1.7,0-3.2-1.4-3.2-3.2c0-1.7,1.4-3.2,3.2-3.2
			C129.1,241.4,130.5,242.8,130.5,244.5z"/>
		<path class="st0" d="M127.3,241.4c1.7,0,3.2,1.4,3.2,3.2c0,1.7-1.4,3.2-3.2,3.2c-1.7,0-3.2-1.4-3.2-3.2
			C124.2,242.8,125.6,241.4,127.3,241.4 M127.3,238.5c-3.3,0-6,2.7-6,6c0,3.3,2.7,6,6,6c3.3,0,6-2.7,6-6
			C133.3,241.2,130.6,238.5,127.3,238.5L127.3,238.5z"/>
	</g>
	<g>
		<path class="st0" d="M38.5,41.4c0.6-0.6,1.7-0.6,2.3,0.1l6.8,7.2c0.6,0.6,0.6,1.7-0.1,2.3c-0.6,0.6-1.7,0.6-2.3-0.1l-6.8-7.2
			C37.8,43,37.8,42,38.5,41.4 M37.6,40.4c-1.2,1.1-1.2,3-0.1,4.2l6.8,7.2c1.1,1.2,3,1.2,4.2,0.1c1.2-1.1,1.2-3,0.1-4.2l-6.8-7.2
			C40.6,39.3,38.7,39.3,37.6,40.4L37.6,40.4z"/>
		<path class="st0" d="M56.6,32.3c0.9,0,1.6,0.8,1.6,1.6l-0.3,9.9c0,0.9-0.8,1.6-1.6,1.6c-0.9,0-1.6-0.8-1.6-1.6l0.3-9.9
			C55,33,55.7,32.3,56.6,32.3 M56.6,31c-1.6,0-3,1.2-3,2.9l-0.3,9.9c0,1.6,1.2,3,2.9,3c1.6,0,3-1.2,3-2.9l0.3-9.9
			C59.5,32.4,58.3,31,56.6,31L56.6,31z"/>
		<path class="st0" d="M28.5,59c0-0.9,0.8-1.6,1.6-1.6l9.9,0.3c0.9,0,1.6,0.8,1.6,1.6c0,0.9-0.8,1.6-1.6,1.6l-9.9-0.3
			C29.2,60.6,28.5,59.9,28.5,59 M27.2,58.9c0,1.6,1.2,3,2.9,3l9.9,0.3c1.6,0,3-1.2,3-2.9c0-1.6-1.2-3-2.9-3l-9.9-0.3
			C28.6,56,27.2,57.3,27.2,58.9L27.2,58.9z"/>
	</g>
</g>
</svg>
