<?xml version="1.0" encoding="utf-8"?>
<!-- Generator: Adobe Illustrator 23.0.2, SVG Export Plug-In . SVG Version: 6.00 Build 0)  -->
<svg version="1.1" id="Layer_1" xmlns="http://www.w3.org/2000/svg" xmlns:xlink="http://www.w3.org/1999/xlink" x="0px" y="0px"
	 viewBox="0 0 256 256" style="enable-background:new 0 0 256 256;" xml:space="preserve">
<style type="text/css">
	.st0{fill:#B1B1B1;}
	.st1{fill:#EDEFEE;}
	.st2{fill:#FFFFFF;}
</style>
<g>
	<path class="st0" d="M24,68.9c0.5-0.7,1.2-1.3,2.1-1.9c4.1-2.6,7.4-0.9,8.7,0.4c0.3,0.4,0.4,0.9,0.1,1.3c0,0-0.1,0.1-0.1,0.1
		c0,0-0.1,0.1-0.1,0.1c-0.4,0.3-0.9,0.2-1.3-0.1c-0.1-0.1-2.5-2.4-6.1-0.1c-0.7,0.5-1.2,0.9-1.6,1.4c-1.6,2-0.8,4.1-0.8,4.2
		c0.1,0.3,0.1,0.7-0.1,1c-0.1,0.1-0.2,0.2-0.4,0.3c-0.5,0.2-1.1,0-1.3-0.5C22.5,73.8,22.2,71.3,24,68.9"/>
	<g>
		<path class="st0" d="M14.4,78.6c-1.2,0-2.4-0.7-2.9-1.9c-1.2-3-2.1-9.7,2.7-15.8c1.4-1.8,3.2-3.4,5.3-4.7
			c10.3-6.6,18.9-2.2,22,1.1c1.1,1.1,1.1,2.9,0.2,4.1c-0.1,0.1-0.2,0.2-0.3,0.3c-0.1,0.1-0.3,0.3-0.5,0.4c-1.3,0.8-2.9,0.6-4-0.5
			c-0.2-0.2-5.6-5.6-14-0.2c-1.5,1-2.8,2.1-3.8,3.4c-3.7,4.6-1.9,9.3-1.8,9.5c0.4,1,0.2,2.2-0.5,3.1c-0.3,0.4-0.8,0.8-1.3,1
			C15.1,78.5,14.7,78.6,14.4,78.6z M30.2,54.1c-3,0-6.4,0.9-10,3.2c-2,1.3-3.7,2.8-5,4.4v0c-4.4,5.5-3.6,11.7-2.5,14.4
			c0.4,0.9,1.4,1.3,2.3,1c0.3-0.1,0.5-0.3,0.7-0.5c0.4-0.5,0.5-1.2,0.3-1.8c-0.1-0.2-2.1-5.6,2-10.8c1.1-1.3,2.4-2.6,4.1-3.7
			c9.3-6,15.5,0.1,15.7,0.3c0.6,0.6,1.5,0.7,2.3,0.3c0.1-0.1,0.2-0.1,0.3-0.2c0.1-0.1,0.1-0.1,0.2-0.2c0.5-0.7,0.5-1.7-0.1-2.3
			C38.7,56.4,35,54.1,30.2,54.1z"/>
	</g>
	<path class="st0" d="M199.7,70.7c1.9,2.4,1.7,5.2,1.1,6.5c-0.2,0.5-0.8,0.8-1.4,0.6c-0.2-0.1-0.3-0.2-0.4-0.3
		c-0.2-0.3-0.3-0.7-0.2-1.1c0-0.1,0.9-2.3-0.8-4.4c-0.4-0.5-1-1-1.7-1.5c-3.8-2.5-6.3,0-6.4,0.1c-0.4,0.4-0.9,0.4-1.3,0.2
		c-0.1,0-0.1-0.1-0.2-0.1c0,0-0.1-0.1-0.1-0.1c-0.3-0.4-0.3-1,0.1-1.4c1.3-1.4,4.8-3.2,9.1-0.4C198.4,69.3,199.1,70,199.7,70.7"/>
	<path class="st0" d="M206,65.4c3.4,4.2,2.9,9,1.9,11.3c-0.4,0.9-1.5,1.4-2.4,1c-0.3-0.1-0.6-0.3-0.8-0.6c-0.4-0.5-0.5-1.2-0.3-1.8
		c0.1-0.2,1.5-3.9-1.4-7.6c-0.7-0.9-1.7-1.8-3-2.6c-6.6-4.3-11,0-11.2,0.2c-0.6,0.6-1.6,0.7-2.3,0.3c-0.1-0.1-0.2-0.1-0.3-0.2
		c-0.1-0.1-0.1-0.1-0.2-0.2c-0.6-0.7-0.5-1.7,0.1-2.4c2.2-2.4,8.4-5.5,15.8-0.7C203.8,63,205,64.2,206,65.4"/>
	<g>
		<g>
			<g>
				<path class="st1" d="M111.9,171.3c-8.1-2.2-13.3-9.8-12.7-17.9c5.1,0.3,10.5,2.9,16.3,4.4c5.8,1.5,11.8,2,16.3,4.3
					C128.3,169.4,120,173.4,111.9,171.3"/>
				<path class="st0" d="M111.7,171.9c-8.3-2.2-13.9-10-13.2-18.6l0-0.6l0.6,0c3.4,0.2,6.9,1.4,10.6,2.6c1.9,0.6,3.9,1.3,5.9,1.8
					c2,0.5,4,0.9,6,1.3c3.8,0.8,7.4,1.5,10.5,3l0.6,0.3l-0.3,0.6C128.7,170.1,120,174.1,111.7,171.9z M99.8,154
					c-0.3,7.7,4.8,14.6,12.3,16.6c7.5,2,15.4-1.5,18.9-8.3c-2.8-1.3-6.1-1.9-9.6-2.6c-2-0.4-4-0.8-6.1-1.3c-2-0.5-4-1.2-5.9-1.8
					C106,155.4,102.8,154.3,99.8,154z"/>
			</g>
			<g>
				<g>
					<path class="st1" d="M72,153.5c-6.2-3.4-8.9-10.8-6.7-17.3c4.1,1.3,8,4.5,12.4,7c4.4,2.5,9.2,4,12.5,6.9
						C85.9,155.3,78.2,156.9,72,153.5"/>
					<path class="st0" d="M75.2,155.5c-1.2-0.3-2.3-0.8-3.5-1.4c-6.4-3.5-9.3-11.1-7-18.1l0.2-0.6l0.6,0.2c2.8,0.9,5.4,2.5,8.2,4.3
						c1.4,0.9,2.9,1.9,4.4,2.7c1.5,0.8,3.1,1.6,4.6,2.3c3,1.4,5.8,2.7,8,4.6l0.5,0.4l-0.4,0.5C86.9,155.1,80.8,156.9,75.2,155.5z
						 M65.8,137c-1.8,6.2,0.9,12.8,6.6,15.9l0,0c5.7,3.1,12.7,1.9,17-2.8c-2-1.6-4.5-2.8-7.2-4c-1.5-0.7-3.1-1.5-4.7-2.3
						c-1.6-0.9-3-1.8-4.5-2.7C70.5,139.4,68.2,137.9,65.8,137z"/>
				</g>
				<g>
					<path class="st1" d="M155.3,175.6c-7.1-0.1-12.9-5.3-14.1-12.1c4.2-0.8,9.2,0.2,14.2,0.2c5.1,0.1,10-0.8,14.2,0.1
						C168.3,170.7,162.4,175.7,155.3,175.6"/>
					<path class="st0" d="M151.6,175.8c-5.6-1.5-10-6.1-11-12.1l-0.1-0.6l0.6-0.1c2.9-0.6,6-0.3,9.2-0.1c1.7,0.1,3.4,0.3,5.2,0.3
						c1.7,0,3.5-0.1,5.2-0.1c3.3-0.2,6.4-0.3,9.2,0.3l0.6,0.1l-0.1,0.6c-1.4,7.2-7.7,12.3-15,12.2l0,0
						C154,176.3,152.8,176.1,151.6,175.8z M141.9,164.1c1.4,6.3,6.9,10.8,13.3,10.9l0,0c6.5,0.1,12.1-4.3,13.6-10.5
						c-2.5-0.4-5.3-0.3-8.2-0.2c-1.7,0.1-3.5,0.2-5.2,0.2c-1.8,0-3.5-0.2-5.2-0.3C147.3,163.9,144.5,163.7,141.9,164.1z"/>
				</g>
			</g>
			<g>
				<g>
					<g>
						<path class="st1" d="M123.5,127.4c15.9,4.2,30.3,10,40.6,16.2c9.6,5.8,13.3,10.9,12.7,13.1c-0.6,2.2-6.3,4.7-17.5,5
							c-12,0.3-27.4-1.9-43.3-6.1c-15.9-4.2-30.3-10-40.6-16.2c-9.6-5.8-13.3-10.9-12.7-13.1c0.6-2.2,6.3-4.7,17.5-5
							C92.3,121,107.6,123.2,123.5,127.4 M124.5,123.7c-33.6-8.9-63-8.2-65.6,1.6c-2.6,9.8,22.5,25.1,56.1,34
							c33.6,8.9,63,8.2,65.6-1.6C183.3,147.9,158.1,132.6,124.5,123.7L124.5,123.7z"/>
						<path class="st0" d="M114.9,160c-34.5-9.2-59.3-24.5-56.6-34.8c2.8-10.3,31.9-11.3,66.4-2.1s59.3,24.5,56.6,34.8
							C178.5,168.2,149.3,169.1,114.9,160z M124.4,124.3c-32.6-8.7-62.3-8.1-64.8,1.2c-2.5,9.3,23,24.6,55.6,33.2
							c32.6,8.7,62.3,8.1,64.8-1.2C182.5,148.2,157,133,124.4,124.3z M115.9,156.3c-16-4.2-30.5-10-40.8-16.3
							c-8.6-5.2-13.8-10.8-13-13.8c0.8-3,8.1-5.2,18.2-5.5c12.1-0.3,27.5,1.9,43.5,6.1c16,4.2,30.5,10,40.8,16.3
							c8.6,5.2,13.8,10.8,13,13.8c-0.8,3-8.1,5.2-18.2,5.5C147.3,162.7,131.8,160.5,115.9,156.3z M123.4,128
							c-15.8-4.2-31.2-6.4-43.1-6.1c-11.5,0.3-16.5,2.9-16.9,4.5c-0.4,1.6,2.6,6.4,12.4,12.4c10.2,6.2,24.6,12,40.5,16.2
							c15.8,4.2,31.2,6.4,43.1,6.1c11.5-0.3,16.5-2.9,16.9-4.5c0.4-1.6-2.6-6.4-12.5-12.4C153.6,138,139.2,132.3,123.4,128z"/>
					</g>
				</g>
			</g>
		</g>
		<g>
			<g>
				<path class="st1" d="M176.7,113.9c0.6,5.9,0.1,12-1.5,18.1c0,0.2-0.1,0.4-0.2,0.5c-14.4,0.2-32.2-2.2-50.9-7.2
					c-18.7-5-35.3-11.8-47.8-19.1c0-0.2,0.1-0.4,0.1-0.5c1.6-6.1,4.3-11.6,7.7-16.4c-24-1.5-41.2,2.3-43.5,11.2
					c-3.7,14.1,30.9,35.5,77.3,47.8c46.5,12.4,87.2,11,90.9-3.1C211.2,136.3,198.3,124.5,176.7,113.9z"/>
				<path class="st0" d="M176.7,113.9c21.6,10.6,34.6,22.4,32.2,31.3c-3.7,14.1-44.4,15.4-90.9,3.1c-46.5-12.4-81.1-33.8-77.3-47.8
					c2.4-8.9,19.5-12.7,43.5-11.2c-3.4,4.8-6.1,10.3-7.7,16.4c0,0.2-0.1,0.4-0.1,0.5c12.4,7.3,29,14.1,47.8,19.1
					c18.7,5,36.5,7.3,50.9,7.2c0.1-0.2,0.1-0.4,0.2-0.5C176.8,125.9,177.3,119.8,176.7,113.9 M175.2,111.7l0.2,2.3
					c0.6,5.8,0.1,11.5-1.3,17.2c-14.6,0-32.2-2.5-49.6-7.1c-17.5-4.6-34-11.2-46.6-18.5c1.5-5.6,4-10.9,7.4-15.6l1.3-1.9L84.2,88
					c-26-1.6-42.4,2.8-44.8,12.1c-4,15,30.4,36.7,78.3,49.4s88.5,11,92.5-4c2.5-9.4-9.5-21.3-32.9-32.8L175.2,111.7L175.2,111.7z"/>
			</g>
		</g>
		<g>
			<path class="st1" d="M139.1,69.1c-27.3-7.3-55.2,9-62.5,36.2c0,0.2-0.1,0.4-0.1,0.5c12.4,7.3,29,14.1,47.8,19.1
				c18.7,5,36.5,7.3,50.9,7.2c0.1-0.2,0.1-0.4,0.2-0.5C182.5,104.3,166.3,76.3,139.1,69.1z M126.2,117.5c-14.9-4-29-9.3-40.5-15.3
				c8.1-20,30-31.3,51.4-25.6c21.4,5.7,34.8,26.5,31.8,47.8C156,123.8,141.1,121.4,126.2,117.5z"/>
			<path class="st0" d="M124,125.6c-18-4.8-35-11.6-47.9-19.2l-0.4-0.2l0.3-1c7.3-27.6,35.7-44,63.3-36.7
				c27.6,7.3,44,35.7,36.7,63.3l-0.3,1l-0.5,0C160.2,132.9,142,130.3,124,125.6z M77.2,105.5c12.7,7.4,29.5,14.1,47.2,18.8
				c17.7,4.7,35.5,7.2,50.3,7.1l0-0.1c7.2-26.9-8.9-54.6-35.8-61.7C112,62.5,84.4,78.6,77.2,105.5L77.2,105.5z M175.1,132.1
				L175.1,132.1L175.1,132.1z M126,118.1c-14.9-4-29-9.3-40.6-15.4l-0.5-0.3l0.2-0.5c8.3-20.5,30.7-31.7,52.1-26
				c21.4,5.7,35.3,26.6,32.3,48.5l-0.1,0.6l-0.6,0C155.8,124.4,141,122.1,126,118.1z M86.6,101.9c11.4,5.9,25.2,11.1,39.8,15
				c14.6,3.9,29.1,6.2,42,6.8c2.6-21.1-10.8-41-31.4-46.5C116.3,71.6,94.8,82.3,86.6,101.9z"/>
		</g>
	</g>
	<path class="st0" d="M196.1,199.8c0.2,0.1,0.3,0.1,0.4,0.2c0.5,0.5,0.6,1.3,0.1,1.8l-3.9,4.5l4.5,3.9c0.5,0.5,0.6,1.3,0.1,1.8
		c-0.3,0.4-0.9,0.5-1.4,0.4c-0.2-0.1-0.3-0.1-0.4-0.2l-4.5-3.9l-3.9,4.5c-0.3,0.4-0.9,0.5-1.4,0.4c-0.2-0.1-0.3-0.1-0.4-0.2
		c-0.5-0.5-0.6-1.3-0.1-1.8l3.9-4.5l-4.5-3.9c-0.5-0.5-0.6-1.3-0.1-1.8c0.3-0.4,0.9-0.5,1.4-0.4c0.2,0.1,0.3,0.1,0.4,0.2l4.5,3.9
		l3.9-4.5C195.1,199.8,195.6,199.6,196.1,199.8 M196.5,198.5c-1-0.3-2.1,0-2.8,0.8l-3,3.5l-3.5-3c-0.3-0.2-0.6-0.4-0.9-0.5
		c-1-0.3-2.1,0-2.8,0.8c-1,1.1-0.8,2.8,0.3,3.7l3.5,3l-3,3.5c-0.5,0.5-0.7,1.2-0.6,1.9c0.1,0.7,0.4,1.4,0.9,1.8
		c0.3,0.2,0.6,0.4,0.9,0.5c1,0.3,2.1,0,2.8-0.8l3-3.5l3.5,3c0.3,0.2,0.6,0.4,0.9,0.5c1,0.3,2.1,0,2.8-0.8c0.5-0.5,0.7-1.2,0.6-1.9
		c-0.1-0.7-0.4-1.4-0.9-1.8l-3.5-3l3-3.5c0.5-0.5,0.7-1.2,0.6-1.9c-0.1-0.7-0.4-1.4-0.9-1.8C197.2,198.8,196.9,198.6,196.5,198.5
		L196.5,198.5z"/>
	<path class="st0" d="M64.1,33.9c0.1-0.1,0.2-0.2,0.4-0.3c5.7-3.8,11.9-7,18.2-9.6c0.9-0.4,1.8,0,2.2,0.9c0.4,0.9-0.1,1.9-0.9,2.2
		c-6.2,2.6-12.1,5.7-17.7,9.4c-0.8,0.5-1.8,0.3-2.3-0.5C63.6,35.3,63.6,34.5,64.1,33.9z M14.6,118.5c0.3-0.4,0.8-0.6,1.4-0.6
		c0.9,0.1,1.6,0.9,1.6,1.8c-0.4,6.6-0.3,13.4,0.5,20c0.1,0.9-0.6,1.8-1.5,1.9c-0.9,0.1-1.8-0.6-1.9-1.5c-0.8-6.8-1-13.8-0.5-20.6
		C14.2,119.2,14.4,118.8,14.6,118.5z M141.9,17.3c0.4-0.4,0.9-0.7,1.5-0.6c6.8,1.1,13.5,2.8,20,5.1c0.9,0.3,1.3,1.3,1,2.2
		c-0.3,0.9-1.3,1.3-2.2,1c-6.3-2.2-12.8-3.9-19.4-5c-0.9-0.1-1.5-1-1.4-1.9C141.5,17.8,141.7,17.6,141.9,17.3z M38.2,194.4
		c0.1-0.1,0.1-0.1,0.2-0.2c0.7-0.6,1.8-0.5,2.4,0.3c4.1,5.2,8.8,10,13.8,14.4l0.2,0.2c0.7,0.6,0.8,1.7,0.2,2.4
		c-0.6,0.7-1.7,0.8-2.4,0.2l-0.2-0.2c-5.2-4.5-10-9.5-14.3-14.9C37.7,195.9,37.7,195,38.2,194.4z M229.4,93.1
		c0.2-0.2,0.5-0.4,0.8-0.5c0.9-0.3,1.8,0.2,2.1,1.1c2,6.5,3.5,13.3,4.3,20.2c0.1,0.9-0.6,1.8-1.5,1.9c-0.9,0.1-1.8-0.6-1.9-1.5
		c-0.8-6.6-2.2-13.2-4.2-19.6C228.9,94.1,229.1,93.5,229.4,93.1z M107.1,234.7c0.4-0.4,0.9-0.7,1.5-0.6c6.6,1,13.3,1.5,19.9,1.3
		c0.9,0,1.7,0.7,1.7,1.6c0,0.9-0.7,1.7-1.6,1.7c-6.9,0.2-13.8-0.3-20.6-1.3c-0.9-0.1-1.5-1-1.4-1.9
		C106.8,235.2,106.9,234.9,107.1,234.7z M147.5,233.6c0.2-0.3,0.5-0.5,0.9-0.5c6.5-1.4,12.9-3.4,19.1-6c0.9-0.4,1.8,0,2.2,0.9
		c0.4,0.9,0,1.8-0.9,2.2c-6.3,2.6-13,4.7-19.7,6.2c-0.9,0.2-1.8-0.4-2-1.3C147,234.5,147.2,234,147.5,233.6z M224.2,172.4
		c0.5-0.6,1.3-0.7,2-0.4c0.8,0.4,1.2,1.4,0.8,2.2c-2.9,6.2-6.4,12.2-10.4,17.8c-0.5,0.7-1.6,0.9-2.4,0.4c-0.8-0.5-0.9-1.6-0.4-2.4
		c3.9-5.4,7.3-11.2,10.1-17.3C224,172.7,224.1,172.5,224.2,172.4z"/>
	<path class="st0" d="M25.2,161.8l-4-2.4l2.4-4c0.3-0.5,0.1-1.1-0.3-1.4c-0.5-0.3-1.1-0.1-1.4,0.3l-2.4,4l-4-2.4
		c-0.5-0.3-1.1-0.1-1.4,0.3c-0.3,0.5-0.1,1.1,0.3,1.4l4,2.4l-2.4,4c-0.3,0.5-0.1,1.1,0.3,1.4c0.5,0.3,1.1,0.1,1.4-0.3l2.4-4l4,2.4
		c0.5,0.3,1.1,0.1,1.4-0.3C25.9,162.7,25.7,162,25.2,161.8z"/>
	<g>
		<path class="st0" d="M85.7,238.6c-0.4,0.3-0.8,0.5-1.4,0.6l0,0c-0.7,0.1-1.4,0-2.1-0.4c-0.7-0.4-1.1-1-1.2-1.9
			c-0.1-0.8,0-1.5,0.5-2.1c0.4-0.6,1-1,1.8-1.2c0.8-0.1,1.5,0,2.1,0.4c0.6,0.4,1,1,1.2,1.8c0.2,0.8,0,1.6-0.5,2.2
			C86,238.3,85.8,238.4,85.7,238.6z M84.1,238c0.4-0.1,0.8-0.3,1-0.6c0.3-0.3,0.3-0.7,0.2-1.2c-0.1-0.4-0.3-0.8-0.7-1
			c-0.4-0.3-0.8-0.3-1.2-0.3c-0.4,0.1-0.8,0.3-1,0.7c-0.3,0.4-0.3,0.7-0.3,1.2c0.1,0.5,0.3,0.9,0.7,1.1
			C83.3,238,83.7,238.1,84.1,238L84.1,238z M83.9,232c-0.2,0.2-0.5,0.3-0.9,0.4c-0.8,0.1-1.4-0.1-1.8-0.7c-0.3-0.5-0.6-1.1-0.9-2.1
			l0,0l-1.7-6.8c-0.3-1.3-0.5-2.3-0.7-2.9c-0.2-1,0-1.8,0.4-2.4c0.4-0.7,1.1-1.1,1.9-1.2c1.3-0.2,2,0.3,2.4,0.8
			c0.4,0.6,0.8,1.5,1,2.7c0.1,0.7,0.2,1.3,0.3,2l0.6,7.2c0.1,0.9,0.1,1.7-0.1,2.2C84.4,231.4,84.2,231.7,83.9,232z M81.5,229.2
			c0.2,0.8,0.5,1.4,0.7,1.7c0.1,0.2,0.3,0.3,0.6,0.2c0.3,0,0.4-0.2,0.5-0.4c0.1-0.4,0.1-1,0.1-1.8l-0.7-7.2c0-0.6-0.1-1.3-0.2-1.9
			c-0.2-1-0.4-1.7-0.8-2.2c-0.1-0.2-0.4-0.5-1.2-0.3c-0.5,0.1-0.9,0.3-1.1,0.7c-0.3,0.4-0.3,0.9-0.2,1.5c0.1,0.6,0.3,1.5,0.6,2.8
			L81.5,229.2z"/>
	</g>
	<g>
		<path class="st2" d="M242.8,143.7c0,1.7-1.4,3.1-3.1,3.1c-1.7,0-3.1-1.4-3.1-3.1c0-1.7,1.4-3.1,3.1-3.1
			C241.4,140.6,242.8,142,242.8,143.7z"/>
		<path class="st0" d="M239.7,140.6c1.7,0,3.1,1.4,3.1,3.1c0,1.7-1.4,3.1-3.1,3.1c-1.7,0-3.1-1.4-3.1-3.1
			C236.6,142,238,140.6,239.7,140.6 M239.7,137.8c-3.2,0-5.8,2.6-5.8,5.8c0,3.2,2.6,5.8,5.8,5.8c3.2,0,5.8-2.6,5.8-5.8
			C245.5,140.5,242.9,137.8,239.7,137.8L239.7,137.8z"/>
	</g>
	<path class="st0" d="M194.6,74.6c0,1.1-0.9,2-2,2c-1.1,0-2-0.9-2-2c0-1.1,0.9-2,2-2C193.7,72.6,194.6,73.5,194.6,74.6z"/>
</g>
</svg>
