<?xml version="1.0" encoding="utf-8"?>
<!-- Generator: Adobe Illustrator 23.0.2, SVG Export Plug-In . SVG Version: 6.00 Build 0)  -->
<svg version="1.1" id="Layer_1" xmlns="http://www.w3.org/2000/svg" xmlns:xlink="http://www.w3.org/1999/xlink" x="0px" y="0px"
	 viewBox="0 0 256 256" style="enable-background:new 0 0 256 256;" xml:space="preserve">
<style type="text/css">
	.st0{fill:#B1B1B1;}
	.st1{fill:#FFFFFF;}
	.st2{fill:#EDEFEE;}
</style>
<g>
	<path class="st0" d="M119,231.5c0.2,0.1,0.3,0.3,0.4,0.5c0.5,0.8,0.2,1.9-0.7,2.4l-7,4l4,7c0.5,0.8,0.2,1.9-0.7,2.4
		c-0.6,0.4-1.4,0.3-1.9-0.1c-0.2-0.1-0.3-0.3-0.4-0.5l-4-7l-7,4c-0.6,0.4-1.4,0.3-1.9-0.1c-0.2-0.1-0.3-0.3-0.4-0.5
		c-0.5-0.8-0.2-1.9,0.7-2.4l7-4l-4-7c-0.5-0.8-0.2-1.9,0.7-2.4c0.6-0.4,1.4-0.3,1.9,0.1c0.2,0.1,0.3,0.3,0.4,0.5l4,7l7-4
		C117.7,231,118.4,231,119,231.5 M120.1,230c-1.2-0.9-2.7-1-4-0.3l-5.4,3.1l-3.1-5.4c-0.2-0.4-0.5-0.8-0.9-1.1c-1.2-0.9-2.7-1-4-0.3
		c-1.7,1-2.3,3.2-1.4,4.9l3.1,5.4l-5.4,3.1c-0.8,0.5-1.4,1.3-1.7,2.2c-0.3,0.9-0.1,1.9,0.3,2.7c0.2,0.4,0.5,0.8,0.9,1.1
		c1.2,0.9,2.7,1,4,0.3l5.4-3.1l3.1,5.4c0.2,0.4,0.5,0.8,0.9,1.1c1.2,0.9,2.7,1,4,0.3c0.8-0.5,1.4-1.3,1.7-2.2
		c0.3-0.9,0.1-1.9-0.3-2.7l-3.1-5.4l5.4-3.1c0.8-0.5,1.4-1.3,1.7-2.2c0.3-0.9,0.1-1.9-0.3-2.7C120.8,230.6,120.5,230.3,120.1,230
		L120.1,230z"/>
	<path class="st0" d="M113.1,201.4l-4.6-2.8l2.8-4.6c0.3-0.5,0.1-1.3-0.4-1.6c-0.5-0.3-1.3-0.1-1.6,0.4l-2.8,4.6l-4.6-2.8
		c-0.5-0.3-1.3-0.1-1.6,0.4c-0.3,0.5-0.1,1.3,0.4,1.6l4.6,2.8l-2.8,4.6c-0.3,0.5-0.1,1.3,0.4,1.6c0.5,0.3,1.3,0.1,1.6-0.4l2.8-4.6
		l4.6,2.8c0.5,0.3,1.3,0.1,1.6-0.4S113.6,201.7,113.1,201.4z"/>
	<g>
		<path class="st0" d="M203.8,47.2c-0.5,0.1-1.1,0-1.6-0.2l0,0c-0.7-0.3-1.3-0.8-1.7-1.5c-0.4-0.7-0.4-1.5-0.1-2.4
			c0.3-0.8,0.8-1.3,1.6-1.7c0.7-0.3,1.5-0.4,2.3-0.1c0.8,0.3,1.3,0.8,1.7,1.6c0.3,0.8,0.4,1.5,0.1,2.3c-0.3,0.9-0.9,1.4-1.7,1.7
			C204.2,47.1,204,47.1,203.8,47.2z M202.7,45.8c0.4,0.2,0.9,0.2,1.3,0c0.4-0.2,0.7-0.5,0.9-1c0.2-0.4,0.2-0.9,0-1.3
			c-0.2-0.4-0.5-0.7-1-0.9c-0.5-0.2-0.9-0.2-1.3,0c-0.4,0.2-0.7,0.5-0.9,0.9c-0.2,0.5-0.2,1,0,1.3C201.9,45.3,202.2,45.6,202.7,45.8
			L202.7,45.8z M205.8,40.1c-0.3,0.1-0.7,0-1-0.1c-0.8-0.3-1.2-0.9-1.3-1.7c0-0.6,0.1-1.4,0.4-2.4l0,0l2.2-7.2c0.4-1.4,0.8-2.4,1-3
			c0.4-1,0.9-1.6,1.7-2c0.8-0.4,1.6-0.4,2.5-0.1c1.4,0.5,1.7,1.4,1.8,2.1c0.1,0.8-0.1,1.8-0.6,3c-0.3,0.7-0.6,1.3-0.9,2l-3.4,7
			c-0.4,0.9-0.9,1.6-1.3,2C206.5,39.9,206.2,40.1,205.8,40.1z M205.1,36.3c-0.2,0.9-0.3,1.5-0.3,2c0,0.2,0.1,0.4,0.4,0.5
			c0.3,0.1,0.5,0.1,0.7-0.1c0.3-0.3,0.7-0.9,1.1-1.6l3.4-7c0.3-0.6,0.6-1.3,0.8-1.9c0.4-1,0.5-1.8,0.5-2.4c0-0.3-0.1-0.7-0.9-1
			c-0.5-0.2-1-0.2-1.4,0c-0.4,0.2-0.8,0.6-1,1.3c-0.2,0.6-0.6,1.6-1,3L205.1,36.3z"/>
	</g>
	<path class="st0" d="M162.8,238c-0.1,0.1-0.3,0.2-0.5,0.2c-7,2.1-14.2,3.5-21.4,4.2c-1,0.1-1.9-0.6-2-1.6c-0.1-1,0.6-1.9,1.6-2
		c7-0.7,14-2.1,20.8-4.1c0.9-0.3,1.9,0.3,2.2,1.2C163.8,236.8,163.4,237.6,162.8,238z M216.7,203.9c-0.7,0.4-1.5,0.4-2.1-0.2
		c-0.7-0.7-0.8-1.8-0.1-2.5c4.7-5.3,9-11,12.6-17c0.5-0.8,1.6-1.1,2.5-0.6c0.8,0.5,1.1,1.6,0.6,2.5c-3.8,6.2-8.2,12.1-13,17.5
		C217,203.7,216.9,203.8,216.7,203.9z M239,167.3c-0.5,0.3-1,0.4-1.6,0.2c-0.9-0.3-1.4-1.4-1-2.3c2.5-6.6,4.4-13.5,5.6-20.4
		c0.2-1,1.1-1.6,2.1-1.4c1,0.2,1.6,1.1,1.4,2.1c-1.3,7.2-3.2,14.3-5.8,21.1C239.5,166.8,239.3,167.1,239,167.3z M78.8,230.9
		c-0.5,0.3-1.2,0.4-1.7,0.1c-6.6-3.2-12.8-7-18.7-11.3c-0.8-0.6-1-1.7-0.4-2.5c0.6-0.8,1.7-1,2.5-0.4c5.7,4.2,11.8,7.9,18.1,11
		c0.9,0.4,1.3,1.5,0.8,2.4C79.3,230.5,79.1,230.8,78.8,230.9z M238.3,83.1c-0.1,0.1-0.2,0.1-0.3,0.1c-0.9,0.4-2-0.1-2.3-1
		c-2.6-6.5-5.8-12.9-9.6-18.9l-0.2-0.3c-0.5-0.8-0.3-1.9,0.6-2.5c0.8-0.5,1.9-0.3,2.5,0.6l0.2,0.3c3.9,6.2,7.2,12.7,9.9,19.5
		C239.3,81.7,239,82.6,238.3,83.1z M21.5,169.2c-0.1,0.1-0.2,0.1-0.3,0.1c-0.9,0.4-2-0.1-2.3-1c-2.7-6.8-4.8-13.8-6.2-20.9
		c-0.2-1,0.4-1.9,1.4-2.1c1-0.2,1.9,0.4,2.1,1.4c1.4,6.9,3.4,13.8,6,20.3C22.6,167.9,22.2,168.8,21.5,169.2z M13.2,127.2
		c-0.3,0.2-0.6,0.3-0.9,0.3c-1,0-1.8-0.8-1.8-1.8c-0.1-7.3,0.5-14.6,1.8-21.8c0.2-1,1.1-1.6,2.1-1.5c1,0.2,1.6,1.1,1.4,2.1
		c-1.2,7-1.8,14.1-1.8,21.1C14.1,126.3,13.8,126.9,13.2,127.2z M180.8,21.1c-0.5,0.3-1.2,0.4-1.7,0.1c-6.3-3.1-13-5.6-19.8-7.4
		c-1-0.3-1.5-1.2-1.3-2.2c0.3-1,1.2-1.5,2.2-1.3c7,1.9,13.9,4.5,20.5,7.7c0.9,0.4,1.3,1.5,0.8,2.4C181.3,20.7,181,21,180.8,21.1z
		 M139.4,9.9c-0.3,0.2-0.7,0.3-1.1,0.3c-7-0.6-14.2-0.5-21.2,0.2c-1,0.1-1.9-0.6-2-1.6c-0.1-1,0.6-1.9,1.6-2
		C124,6,131.4,6,138.6,6.6c1,0.1,1.7,0.9,1.6,1.9C140.2,9.1,139.9,9.6,139.4,9.9z M42.9,48.4c-0.7,0.4-1.5,0.4-2.1-0.2
		c-0.7-0.7-0.8-1.8-0.1-2.5c4.8-5.4,10.2-10.4,16-14.9c0.8-0.6,1.9-0.5,2.5,0.3c0.6,0.8,0.5,1.9-0.3,2.5C53.2,38,48,42.8,43.3,48
		C43.2,48.2,43,48.3,42.9,48.4z"/>
	<g>
		<circle class="st1" cx="20.8" cy="75.6" r="3.3"/>
		<path class="st0" d="M20.8,72.3c1.8,0,3.3,1.5,3.3,3.3s-1.5,3.3-3.3,3.3c-1.8,0-3.3-1.5-3.3-3.3S19,72.3,20.8,72.3 M20.8,69.4
			c-3.4,0-6.2,2.8-6.2,6.2s2.8,6.2,6.2,6.2S27,79,27,75.6S24.2,69.4,20.8,69.4L20.8,69.4z"/>
	</g>
	<g>
		<path class="st0" d="M25.1,189.6c0.5,0.2,1,0.7,1.3,1.5l4.3,9.8l0.5-0.2c0.6-0.3,1.2-0.4,1.7-0.4c0.1,0,0.2,0,0.3,0.1
			c0.3,0.1,0.6,0.4,0.7,0.8c0.2,0.5,0.2,0.9,0,1.3c-0.2,0.4-0.7,0.7-1.3,1l-0.8,0.3l1,2.3c0.3,0.6,0.3,1.2,0.2,1.6
			c-0.1,0.4-0.5,0.8-0.9,1c-0.4,0.2-0.9,0.2-1.3,0c0,0-0.1,0-0.1,0c-0.4-0.2-0.8-0.6-1.1-1.2l-1-2.3l-6.3,2.8
			c-0.8,0.3-1.5,0.4-2,0.2c0,0-0.1,0-0.1,0c-0.5-0.2-0.9-0.6-1.1-1.2c-0.1-0.2-0.1-0.3-0.1-0.5c0-0.2,0-0.4,0-0.6
			c0-0.2,0.1-0.5,0.1-0.7c0.1-0.2,0.1-0.5,0.2-0.8l2.8-11.9c0.2-0.8,0.4-1.4,0.5-1.8c0.2-0.4,0.4-0.7,0.8-0.8
			C24.1,189.4,24.6,189.4,25.1,189.6 M22.1,204.5l5.4-2.4l-3.2-7.3L22.1,204.5 M25.7,188c-0.6-0.2-1.6-0.4-2.9,0.1
			c-0.8,0.3-1.4,0.9-1.7,1.7c-0.2,0.5-0.4,1.1-0.6,2l-2.8,11.9l-0.2,0.8c-0.1,0.3-0.1,0.5-0.2,0.8c-0.1,0.4-0.1,0.7-0.1,1
			c0,0.4,0.1,0.7,0.3,1.1c0.4,1,1.2,1.7,2.1,2.1c0.1,0,0.1,0,0.2,0.1c1,0.3,2.1,0.2,3.2-0.3l4.8-2.1l0.3,0.8c0.4,1,1.1,1.7,1.9,2.1
			c0.1,0,0.1,0.1,0.2,0.1c0.8,0.3,1.7,0.3,2.6-0.1c0.9-0.4,1.6-1.1,1.9-2c0.3-0.8,0.2-1.8-0.3-2.8l-0.4-0.8c0.6-0.3,1-0.8,1.3-1.2
			c0.5-0.8,0.6-1.8,0.1-2.8c-0.5-1.1-1.2-1.5-1.7-1.7c-0.3-0.1-0.6-0.2-0.9-0.2c-0.4,0-0.9,0.1-1.3,0.2l-3.6-8.3
			C27.4,189.2,26.6,188.4,25.7,188L25.7,188z M24.5,201.7l0.3-1.4l0.5,1.1L24.5,201.7L24.5,201.7z"/>
		<path class="st0" d="M41.1,184.1C41.1,184.1,41.1,184.1,41.1,184.1c0.8,0.3,1.6,0.8,2.3,1.4c1.2,1.1,2.4,2.9,3.5,5.5
			c0.6,1.4,1,2.6,1.3,3.7c0.3,1.1,0.3,2.1,0.2,3.1c-0.1,1.2-0.5,2.3-1.2,3.3c-0.7,0.9-1.6,1.6-2.7,2.1c-1.3,0.6-2.6,0.7-3.9,0.4
			c-0.4-0.1-0.7-0.2-1.1-0.3c-0.9-0.4-1.8-0.9-2.5-1.7c-0.6-0.6-1.1-1.3-1.6-2.1c-0.5-0.8-1-1.7-1.4-2.7c-0.6-1.3-1-2.4-1.3-3.5
			c-0.3-1.1-0.5-2-0.5-2.9c0-1.4,0.3-2.7,1-3.7c0.7-1,1.7-1.9,3-2.4c0.9-0.4,1.7-0.6,2.5-0.6C39.6,183.6,40.3,183.8,41.1,184.1
			 M41.5,200.7c0.6,0.2,1.2,0.2,1.9-0.1c0.8-0.3,1.3-0.9,1.5-1.6c0.2-0.7,0.2-1.6-0.1-2.7c-0.3-1.1-0.7-2.4-1.5-4
			c-0.7-1.5-1.3-2.8-1.9-3.7c-0.6-0.9-1.2-1.5-1.9-1.8c0,0-0.1,0-0.1-0.1c-0.6-0.2-1.3-0.2-2,0.1c-1.1,0.5-1.6,1.4-1.6,2.7
			c0.1,1.3,0.6,3.1,1.6,5.5c0.7,1.6,1.3,2.8,2,3.8c0.6,0.9,1.3,1.6,1.9,1.9C41.4,200.6,41.4,200.6,41.5,200.7 M41.7,182.5
			c-1-0.4-2-0.6-3-0.5c-1,0-2.1,0.3-3.2,0.7c-1.6,0.7-2.9,1.7-3.7,3.1c-0.8,1.3-1.3,2.9-1.2,4.7c0,1,0.2,2.1,0.6,3.3
			c0.3,1.1,0.8,2.4,1.4,3.7c0.5,1.1,1,2,1.5,2.9c0.6,0.9,1.2,1.7,1.8,2.3c1,1,2,1.6,3.1,2.1c0.4,0.2,0.9,0.3,1.3,0.4
			c1.7,0.4,3.3,0.2,4.9-0.5c1.4-0.6,2.5-1.5,3.4-2.7c0.8-1.2,1.4-2.5,1.5-4.1c0.1-1.2,0-2.5-0.3-3.7c-0.3-1.2-0.8-2.5-1.4-3.9
			c-1.2-2.8-2.5-4.8-4-6.1C43.6,183.5,42.7,182.9,41.7,182.5L41.7,182.5L41.7,182.5L41.7,182.5z M42.1,199.1L42.1,199.1
			c-0.3-0.2-0.8-0.5-1.3-1.3c-0.6-0.8-1.2-2-1.8-3.5c-1.2-2.6-1.4-4.1-1.5-4.8c0-0.7,0.2-0.9,0.6-1.1c0.4-0.2,0.6-0.1,0.7-0.1
			c0.3,0.1,0.7,0.5,1.3,1.3c0.6,0.8,1.1,1.9,1.8,3.4c0.7,1.5,1.1,2.8,1.4,3.8c0.2,1,0.2,1.6,0.1,1.9c0,0.2-0.1,0.3-0.5,0.5
			C42.4,199.2,42.2,199.1,42.1,199.1L42.1,199.1z"/>
		<path class="st0" d="M55.8,176.2c0.5,0.2,1,0.7,1.3,1.5l4.3,9.8l0.5-0.2c0.6-0.3,1.2-0.4,1.7-0.4c0.1,0,0.2,0,0.3,0.1
			c0.3,0.1,0.6,0.4,0.7,0.8c0.2,0.5,0.2,0.9,0,1.3c-0.2,0.4-0.7,0.7-1.3,1l-0.8,0.3l1,2.3c0.3,0.6,0.3,1.2,0.2,1.6
			c-0.1,0.4-0.5,0.8-0.9,1c-0.4,0.2-0.9,0.2-1.3,0c0,0-0.1,0-0.1,0c-0.4-0.2-0.8-0.6-1.1-1.2l-1-2.3l-6.3,2.8
			c-0.8,0.3-1.5,0.4-2,0.2c0,0-0.1,0-0.1,0c-0.5-0.2-0.9-0.6-1.1-1.2c-0.1-0.2-0.1-0.3-0.1-0.5c0-0.2,0-0.4,0-0.6
			c0-0.2,0.1-0.5,0.1-0.7c0.1-0.2,0.1-0.5,0.2-0.8l2.8-11.9c0.2-0.8,0.4-1.4,0.5-1.8c0.2-0.4,0.4-0.7,0.8-0.8
			C54.8,176,55.3,176,55.8,176.2 M52.8,191.2l5.4-2.4l-3.2-7.3L52.8,191.2 M56.4,174.6c-0.6-0.2-1.6-0.4-2.9,0.1
			c-0.8,0.3-1.4,0.9-1.7,1.7c-0.2,0.5-0.4,1.1-0.6,2l-2.8,11.9l-0.2,0.8c-0.1,0.3-0.1,0.5-0.2,0.8c-0.1,0.4-0.1,0.7-0.1,1
			c0,0.4,0.1,0.7,0.3,1.1c0.4,1,1.2,1.7,2.1,2.1c0.1,0,0.1,0,0.2,0.1c1,0.3,2.1,0.2,3.2-0.3l4.8-2.1l0.3,0.8c0.4,1,1.1,1.7,1.9,2.1
			c0.1,0,0.1,0,0.2,0.1c0.8,0.3,1.7,0.3,2.6-0.1c0.9-0.4,1.6-1.1,1.9-2c0.3-0.8,0.2-1.8-0.3-2.8l-0.4-0.8c0.6-0.3,1-0.8,1.3-1.2
			c0.5-0.8,0.6-1.8,0.1-2.8c-0.5-1.1-1.2-1.5-1.7-1.7c-0.3-0.1-0.6-0.2-0.9-0.2c-0.4,0-0.9,0.1-1.3,0.2l-3.6-8.3
			C58.1,175.8,57.3,175,56.4,174.6L56.4,174.6z M55.1,188.3l0.3-1.4l0.5,1.1L55.1,188.3L55.1,188.3z"/>
	</g>
	<g>
		<g>
			<g>
				<g>
					<path class="st2" d="M118.4,71.9c-46.1,4.9-15.9,51.1-7.2,59s14.1,6.4,14.1,6.4s5.6,0.4,12.5-9.2
						C144.7,118.5,164.6,67,118.4,71.9z"/>
					<path class="st0" d="M118.4,71.9c46.1-4.9,26.3,46.6,19.4,56.2c-5.6,7.9-10.4,9-12,9.2c-0.3,0-0.5,0-0.5,0s-0.2,0-0.5,0.1
						c-1.5,0.2-6.5,0-13.6-6.5C102.5,123,72.3,76.8,118.4,71.9 M118.3,70.4C104.4,71.9,95.9,77.1,93,86c-5.3,16.2,10.3,39.8,17.2,46
						c7.5,6.8,12.9,7.1,14.8,6.9c0.2,0,0.4-0.1,0.5-0.1c0.1,0,0.3,0,0.5,0c2-0.2,7.2-1.6,13-9.8c5.4-7.5,15.7-33.8,7.1-48.6
						C141.6,72.3,132.1,68.9,118.3,70.4L118.3,70.4z"/>
				</g>
			</g>
			<g>
				<path class="st0" d="M128.5,104.7c-2,4.4-0.9,9.2,2.4,10.6c3.3,1.5,7.6-0.9,9.5-5.3c2-4.4,0.9-9.2-2.4-10.6
					C134.7,97.9,130.4,100.3,128.5,104.7z"/>
				<path class="st0" d="M115.5,106.1c2.8,3.9,2.8,8.8-0.1,10.9c-2.9,2.1-7.6,0.7-10.4-3.2s-2.8-8.8,0.1-10.9
					C108,100.8,112.7,102.2,115.5,106.1z"/>
			</g>
			<path class="st0" d="M127.9,126.2l-7.4,0.8c-0.2,0-0.4-0.1-0.5-0.4l-0.1-1.3c0-0.2,0.1-0.4,0.4-0.5l7.4-0.8
				c0.2,0,0.4,0.1,0.5,0.4l0.1,1.3C128.3,126,128.2,126.2,127.9,126.2z"/>
		</g>
		<g>
			<g>
				<path class="st2" d="M195.9,218.5l-8.1,4.9c-1.5,0.9-3.3,0.4-4.2-1.1l-34.3-57c-0.9-1.4-0.4-3.3,1.1-4.2l8.1-4.9
					c1.4-0.9,3.3-0.4,4.2,1.1l34.3,57.1C197.8,215.8,197.3,217.7,195.9,218.5z"/>
				<path class="st0" d="M157.5,157.6c2.9-0.3,5.9,1.1,7.5,3.7l29.4,48.9c2.2,3.7,1,8.5-2.7,10.7c-1,0.6-2.1,0.9-3.2,1.1
					c-2.9,0.3-5.9-1.1-7.5-3.7l-29.4-48.9c-2.2-3.7-1-8.5,2.7-10.7C155.4,158,156.5,157.7,157.5,157.6 M157.3,155.5L157.3,155.5
					c-1.4,0.2-2.8,0.6-4,1.4c-2.3,1.4-3.9,3.5-4.5,6.1c-0.6,2.6-0.2,5.2,1.1,7.5l29.4,48.9c2,3.3,5.7,5.1,9.5,4.7
					c1.4-0.2,2.8-0.6,4-1.4c4.7-2.8,6.2-8.9,3.4-13.6l-29.4-48.9C164.9,156.9,161.2,155.1,157.3,155.5L157.3,155.5z"/>
			</g>
			<g>
				
					<rect x="142.1" y="153.1" transform="matrix(0.8573 -0.5149 0.5149 0.8573 -60.8761 103.4242)" class="st2" width="27.9" height="16.8"/>
				<path class="st0" d="M163.7,147.1l8.6,14.4l-23.9,14.4l-8.6-14.4L163.7,147.1 M164.5,144.3l-1.8,1.1l-23.9,14.4l-1.8,1.1
					l1.1,1.8l8.6,14.4l1.1,1.8l1.8-1.1l23.9-14.4l1.8-1.1l-1.1-1.8l-8.6-14.4L164.5,144.3L164.5,144.3z"/>
			</g>
			<g>
				<path class="st2" d="M179.7,66.7c-19.3-32.2-61-42.6-93.2-23.3c-32.2,19.3-42.6,61-23.3,93.2c19.3,32.2,61,42.6,93.2,23.3
					C188.6,140.6,199,98.9,179.7,66.7z M149.5,148.4c-25.8,15.5-59.2,7.1-74.7-18.6C59.4,104,67.7,70.5,93.5,55.1
					c25.8-15.5,59.2-7.1,74.7,18.6C183.6,99.5,175.3,132.9,149.5,148.4z"/>
				<path class="st0" d="M114.3,34.2c25.5-2.7,51.4,9.2,65.4,32.6c19.3,32.2,8.9,73.9-23.3,93.2c-8.8,5.3-18.2,8.3-27.8,9.3
					c-25.5,2.7-51.4-9.2-65.4-32.6C44,104.5,54.4,62.8,86.5,43.5C95.3,38.2,104.8,35.2,114.3,34.2 M127.3,155.8
					c7.6-0.8,15.2-3.3,22.2-7.5c25.8-15.5,34.1-48.9,18.6-74.7c-11.3-18.7-32-28.3-52.4-26.1c-7.6,0.8-15.2,3.3-22.2,7.5
					C67.7,70.5,59.4,104,74.9,129.7C86.1,148.5,106.9,158,127.3,155.8 M114.1,32.1c-10.2,1.1-19.8,4.3-28.6,9.6
					c-33.1,19.9-43.8,63-24,96.1c14,23.3,40.5,36.4,67.5,33.6c10.2-1.1,19.8-4.3,28.6-9.6c33.1-19.9,43.8-63,24-96.1
					C167.5,42.4,141.1,29.2,114.1,32.1L114.1,32.1z M127.1,153.8c-20.2,2.1-40-7.7-50.4-25.1c-7.2-12-9.3-26-5.9-39.6
					c3.4-13.6,11.8-25,23.8-32.2c6.6-4,13.8-6.4,21.4-7.2c20.2-2.1,40,7.7,50.4,25.1c14.9,24.7,6.8,56.9-17.9,71.8
					C141.8,150.5,134.7,153,127.1,153.8L127.1,153.8z"/>
			</g>
		</g>
		<path class="st0" d="M151.2,72.2c-0.4-0.1-0.8-0.3-1.2-0.6c-6.1-6-14.2-9.9-22.6-11c-1.3-0.2-2.3-1.4-2.1-2.7
			c0.2-1.3,1.4-2.3,2.7-2.1c9.5,1.3,18.5,5.7,25.4,12.4c1,0.9,1,2.5,0,3.4C152.9,72.1,152,72.3,151.2,72.2z"/>
		<path class="st0" d="M159.3,77.4c-0.1,1.1-1.1,1.9-2.2,1.7c-1.1-0.1-1.9-1.1-1.7-2.2c0.1-1.1,1.1-1.9,2.2-1.7
			C158.6,75.3,159.4,76.3,159.3,77.4z"/>
	</g>
</g>
</svg>
