<?xml version="1.0" encoding="utf-8"?>
<!-- Generator: Adobe Illustrator 23.0.2, SVG Export Plug-In . SVG Version: 6.00 Build 0)  -->
<svg version="1.1" xmlns="http://www.w3.org/2000/svg" xmlns:xlink="http://www.w3.org/1999/xlink" x="0px" y="0px"
	 viewBox="0 0 256 256" style="enable-background:new 0 0 256 256;" xml:space="preserve">
<style type="text/css">
	.st0{fill:#B1B1B1;}
	.st1{fill:#EDEFEE;}
	.st2{fill:#FFFFFF;}
	.st3{display:none;}
	.st4{display:inline;}
</style>
<g id="Layer_1">
	<g>
		<g>
			<path class="st0" d="M232.8,104.7c-0.5,0-1-0.2-1.4-0.5l0,0c-0.6-0.4-1-1-1.2-1.7c-0.2-0.7-0.1-1.5,0.4-2.2c0.4-0.6,1-1,1.8-1.2
				c0.7-0.2,1.5,0,2.1,0.4c0.6,0.4,1.1,1,1.2,1.8c0.2,0.8,0,1.5-0.4,2.1c-0.5,0.7-1.1,1.1-1.8,1.2
				C233.2,104.7,233,104.7,232.8,104.7z M232.1,103.2c0.4,0.2,0.7,0.3,1.2,0.3c0.4-0.1,0.7-0.3,1-0.7c0.2-0.4,0.3-0.8,0.2-1.2
				c-0.1-0.4-0.3-0.8-0.7-1c-0.4-0.2-0.8-0.3-1.2-0.2c-0.4,0.1-0.8,0.3-1,0.7c-0.3,0.4-0.4,0.8-0.3,1.2
				C231.5,102.7,231.7,103,232.1,103.2L232.1,103.2z M236.1,98.7c-0.3,0-0.6-0.1-0.9-0.3c-0.6-0.4-0.9-1-0.8-1.8
				c0.1-0.6,0.3-1.2,0.8-2.1l0,0l3.4-6.1c0.7-1.2,1.2-2.1,1.5-2.6c0.5-0.8,1.2-1.3,1.9-1.5c0.8-0.2,1.5,0,2.2,0.4
				c1.1,0.7,1.3,1.6,1.2,2.2c-0.1,0.7-0.5,1.6-1.1,2.6c-0.4,0.6-0.8,1.1-1.2,1.6l-4.5,5.7c-0.6,0.7-1.1,1.3-1.6,1.6
				C236.8,98.7,236.4,98.8,236.1,98.7z M236.2,95.1c-0.4,0.7-0.6,1.3-0.7,1.7c0,0.2,0,0.4,0.3,0.6c0.2,0.2,0.4,0.2,0.7,0
				c0.4-0.2,0.8-0.6,1.3-1.3l4.5-5.7c0.4-0.5,0.8-1,1.1-1.5c0.5-0.8,0.9-1.5,0.9-2.1c0-0.3,0-0.6-0.7-1.1c-0.4-0.3-0.9-0.4-1.3-0.3
				c-0.5,0.1-0.8,0.4-1.2,1c-0.3,0.5-0.8,1.3-1.5,2.5L236.2,95.1z"/>
		</g>
		<g>
			<path class="st1" d="M158.9,44.7H89.4L40.3,93.9v69.5l49.1,49.1h69.5l49.1-49.1V93.9L158.9,44.7z M198.6,159.5L155,203.1H93.3
				l-43.6-43.6V97.8l43.6-43.6H155l43.6,43.6V159.5z"/>
			<path class="st0" d="M158.9,44.7l49.1,49.1v69.5l-49.1,49.1H89.4l-49.1-49.1V93.9l49.1-49.1H158.9 M93.3,203.1H155l43.6-43.6
				V97.8L155,54.2H93.3L49.7,97.8v61.7L93.3,203.1 M159.7,42.9h-0.8H89.4h-0.8l-0.5,0.5L39,92.6l-0.5,0.5v0.8v69.5v0.8l0.5,0.5
				l49.1,49.1l0.5,0.5h0.8h69.5h0.8l0.5-0.5l49.1-49.1l0.5-0.5v-0.8V93.9v-0.8l-0.5-0.5l-49.1-49.1L159.7,42.9L159.7,42.9z M94.1,56
				h60.1l42.5,42.5v60.1l-42.5,42.5H94.1l-42.5-42.5V98.6L94.1,56L94.1,56z"/>
		</g>
		<g>
			<path class="st1" d="M124.2,71.9c-79.9,0-36.6,84.6-23.1,99.8c13.5,15.2,23.1,13.5,23.1,13.5s9.6,1.7,23.1-13.5
				C160.7,156.5,204.1,71.9,124.2,71.9z M110.3,145.4l-6.3-6.3l-6.3,6.3c-1.3,1.3-3.3,1.3-4.6,0c-1.3-1.3-1.3-3.3,0-4.6l6.3-6.3
				l-6.3-6.3c-1.3-1.3-1.3-3.3,0-4.6c1.3-1.3,3.3-1.3,4.6,0l6.3,6.3l6.3-6.3c1.3-1.3,3.3-1.3,4.6,0c1.3,1.3,1.3,3.3,0,4.6l-6.3,6.3
				l6.3,6.3c1.3,1.3,1.3,3.3,0,4.6C113.6,146.7,111.5,146.7,110.3,145.4z M124.2,170c-5.7,0-10.4-2.3-10.4-5.2
				c0-2.9,4.6-5.2,10.4-5.2c5.7,0,10.4,2.3,10.4,5.2C134.5,167.7,129.9,170,124.2,170z M155.3,140.8c1.3,1.3,1.3,3.3,0,4.6
				c-1.3,1.3-3.3,1.3-4.6,0l-6.3-6.3l-6.3,6.3c-1.3,1.3-3.3,1.3-4.6,0c-1.3-1.3-1.3-3.3,0-4.6l6.3-6.3l-6.3-6.3
				c-1.3-1.3-1.3-3.3,0-4.6c1.3-1.3,3.3-1.3,4.6,0l6.3,6.3l6.3-6.3c1.3-1.3,3.3-1.3,4.6,0c1.3,1.3,1.3,3.3,0,4.6l-6.3,6.3
				L155.3,140.8z"/>
			<path class="st0" d="M124.2,71.9c79.9,0,36.6,84.6,23.1,99.8c-11.1,12.4-19.5,13.6-22.2,13.6c-0.6,0-0.9-0.1-0.9-0.1
				s-0.3,0.1-0.9,0.1c-2.7,0-11.1-1.1-22.2-13.6C87.6,156.5,44.2,71.9,124.2,71.9 M135.7,146.4c0.8,0,1.7-0.3,2.3-1l6.3-6.3l6.3,6.3
				c0.6,0.6,1.5,1,2.3,1s1.7-0.3,2.3-1c1.3-1.3,1.3-3.3,0-4.6l-6.3-6.3l6.3-6.3c1.3-1.3,1.3-3.3,0-4.6c-0.6-0.6-1.5-1-2.3-1
				s-1.7,0.3-2.3,1l-6.3,6.3l-6.3-6.3c-0.6-0.6-1.5-1-2.3-1c-0.8,0-1.7,0.3-2.3,1c-1.3,1.3-1.3,3.3,0,4.6l6.3,6.3l-6.3,6.3
				c-1.3,1.3-1.3,3.3,0,4.6C134.1,146,134.9,146.4,135.7,146.4 M95.3,146.4c0.8,0,1.7-0.3,2.3-1l6.3-6.3l6.3,6.3
				c0.6,0.6,1.5,1,2.3,1c0.8,0,1.7-0.3,2.3-1c1.3-1.3,1.3-3.3,0-4.6l-6.3-6.3l6.3-6.3c1.3-1.3,1.3-3.3,0-4.6c-0.6-0.6-1.5-1-2.3-1
				c-0.8,0-1.7,0.3-2.3,1l-6.3,6.3l-6.3-6.3c-0.6-0.6-1.5-1-2.3-1c-0.8,0-1.7,0.3-2.3,1c-1.3,1.3-1.3,3.3,0,4.6l6.3,6.3l-6.3,6.3
				c-1.3,1.3-1.3,3.3,0,4.6C93.6,146,94.4,146.4,95.3,146.4 M124.2,170c5.7,0,10.4-2.3,10.4-5.2c0-2.9-4.6-5.2-10.4-5.2
				c-5.7,0-10.4,2.3-10.4,5.2C113.8,167.7,118.4,170,124.2,170 M124.2,70.2c-23.6,0-38.8,7.3-45.3,21.6c-6.6,14.7-2.3,33.5,2.4,46.7
				c5.3,14.8,13.3,28.4,18.5,34.2c11.3,12.7,20.2,14.1,23.4,14.1c0.4,0,0.7,0,0.9,0c0.2,0,0.5,0,0.9,0c3.3,0,12.1-1.4,23.4-14.1
				c5.2-5.8,13.2-19.4,18.5-34.2c4.7-13.2,9-32,2.4-46.7C163,77.5,147.8,70.2,124.2,70.2L124.2,70.2z M135.7,144.7
				c-0.4,0-0.8-0.2-1.1-0.5c-0.3-0.3-0.5-0.7-0.5-1.1s0.2-0.8,0.5-1.1l6.3-6.3l1.2-1.2l-1.2-1.2l-6.3-6.3c-0.6-0.6-0.6-1.6,0-2.3
				c0.3-0.3,0.7-0.5,1.1-0.5c0.4,0,0.8,0.2,1.1,0.5l6.3,6.3l1.2,1.2l1.2-1.2l6.3-6.3c0.3-0.3,0.7-0.5,1.1-0.5h0
				c0.4,0,0.8,0.2,1.1,0.5c0.6,0.6,0.6,1.6,0,2.3l-6.3,6.3l-1.2,1.2l1.2,1.2l6.3,6.3c0.6,0.6,0.6,1.6,0,2.3
				c-0.3,0.3-0.7,0.5-1.1,0.5c-0.4,0-0.8-0.2-1.1-0.5l-6.3-6.3l-1.2-1.2l-1.2,1.2l-6.3,6.3C136.6,144.5,136.2,144.7,135.7,144.7
				L135.7,144.7z M95.3,144.7c-0.4,0-0.8-0.2-1.1-0.5c-0.3-0.3-0.5-0.7-0.5-1.1s0.2-0.8,0.5-1.1l6.3-6.3l1.2-1.2l-1.2-1.2l-6.3-6.3
				c-0.6-0.6-0.6-1.6,0-2.3c0.3-0.3,0.7-0.5,1.1-0.5c0.4,0,0.8,0.2,1.1,0.5l6.3,6.3l1.2,1.2l1.2-1.2l6.3-6.3
				c0.3-0.3,0.7-0.5,1.1-0.5l0,0c0.4,0,0.8,0.2,1.1,0.5c0.3,0.3,0.5,0.7,0.5,1.1c0,0.4-0.2,0.8-0.5,1.1l-6.3,6.3l-1.2,1.2l1.2,1.2
				l6.3,6.3c0.6,0.6,0.6,1.6,0,2.3c-0.3,0.3-0.7,0.5-1.1,0.5c-0.4,0-0.8-0.2-1.1-0.5l-6.3-6.3l-1.2-1.2l-1.2,1.2l-6.3,6.3
				C96.1,144.5,95.7,144.7,95.3,144.7L95.3,144.7z M124.2,168.4c-5.3,0-8.7-2.1-8.7-3.5c0-1.4,3.4-3.5,8.7-3.5
				c5.3,0,8.7,2.1,8.7,3.5C132.9,166.3,129.5,168.4,124.2,168.4L124.2,168.4z"/>
		</g>
		<path class="st0" d="M147.5,7.1c1.3,0,2.7,0.3,4.2,0.8c6.9,2.5,7.9,8.2,7.5,10.8c-0.1,0.8-0.8,1.3-1.5,1.3c-0.1,0-0.1,0-0.2,0
			c-0.1,0-0.2,0-0.3-0.1c-0.7-0.2-1.1-0.9-1-1.7c0-0.2,0.7-5.2-5.5-7.5c-1.2-0.4-2.3-0.6-3.2-0.6c-3.9-0.1-5.7,2.7-5.8,2.9
			c-0.3,0.5-0.8,0.8-1.3,0.7c-0.3,0-0.5-0.1-0.8-0.2c-0.7-0.4-1-1.4-0.5-2.1C140.1,9.7,143,7,147.5,7.1 M147.6,5.5
			c-5-0.1-8.4,2.7-9.8,5.2c-0.9,1.5-0.4,3.4,1.1,4.3c0.5,0.3,1,0.4,1.5,0.4c1.1,0,2.2-0.6,2.7-1.5c0.1-0.1,1.4-2.2,4.4-2.1
			c0.8,0,1.8,0.2,2.7,0.5c4.8,1.7,4.5,5.3,4.4,5.7c-0.2,1.5,0.6,2.9,2,3.4c0.2,0.1,0.4,0.1,0.6,0.1c0.2,0,0.3,0,0.5,0
			c1.5,0,2.9-1.1,3.1-2.6c0.5-3.1-0.6-9.7-8.5-12.6C150.7,5.8,149.1,5.5,147.6,5.5L147.6,5.5z"/>
		<path class="st0" d="M92.4,240.8c-0.2,0-0.3,0-0.5-0.1c-6.8-1.9-13.4-4.5-19.7-7.6c-0.9-0.4-1.2-1.5-0.8-2.3
			c0.4-0.9,1.5-1.2,2.3-0.8c6.1,3,12.6,5.5,19.1,7.4c0.9,0.3,1.5,1.2,1.2,2.1C93.9,240.3,93.2,240.8,92.4,240.8z M154.2,240.8
			c-0.8,0-1.4-0.5-1.7-1.3c-0.3-0.9,0.3-1.9,1.2-2.1c6.6-1.9,13-4.4,19.1-7.4c0.9-0.4,1.9-0.1,2.3,0.8c0.4,0.9,0.1,1.9-0.8,2.3
			c-6.3,3.1-12.9,5.7-19.7,7.7C154.5,240.7,154.3,240.8,154.2,240.8z M191.3,222.2c-0.5,0-1-0.2-1.4-0.7c-0.6-0.8-0.4-1.8,0.3-2.4
			c5.4-4.1,10.5-8.8,15.1-13.8c0.6-0.7,1.7-0.8,2.4-0.1c0.7,0.6,0.8,1.7,0.1,2.4c-4.7,5.2-10,10-15.6,14.3
			C192,222.1,191.6,222.2,191.3,222.2z M27.3,191.7c-0.6,0-1.1-0.3-1.5-0.8c-3.7-6-6.9-12.4-9.5-18.9c-0.3-0.9,0.1-1.9,1-2.2
			c0.9-0.3,1.9,0.1,2.2,1c2.5,6.4,5.6,12.5,9.2,18.3c0.5,0.8,0.3,1.9-0.6,2.4C28,191.6,27.6,191.7,27.3,191.7z M234.2,152.9
			c-0.1,0-0.2,0-0.3,0c-0.9-0.2-1.6-1.1-1.4-2c1.2-6.7,1.9-13.6,1.9-20.4l0-0.3c0-1,0.8-1.7,1.7-1.7c1,0,1.7,0.8,1.7,1.7l0,0.3
			c0,7.1-0.6,14.2-1.9,21.1C235.7,152.3,235,152.9,234.2,152.9z M12.2,111.6c-0.1,0-0.2,0-0.3,0c-0.9-0.2-1.6-1.1-1.4-2
			c1.3-6.9,3.2-13.8,5.7-20.3c0.3-0.9,1.4-1.3,2.2-1c0.9,0.3,1.3,1.3,1,2.2c-2.5,6.4-4.3,13-5.6,19.7
			C13.8,111.1,13.1,111.6,12.2,111.6z M219,72.5c-0.6,0-1.1-0.3-1.5-0.8c-3.6-5.8-7.8-11.3-12.4-16.3c-0.6-0.7-0.6-1.8,0.1-2.4
			c0.7-0.6,1.8-0.6,2.4,0.1c4.8,5.2,9.1,10.9,12.8,16.8c0.5,0.8,0.3,1.9-0.6,2.4C219.7,72.4,219.4,72.5,219,72.5z M191,42
			c-0.4,0-0.7-0.1-1-0.3c-5.5-4.1-11.3-7.7-17.4-10.8c-0.9-0.4-1.2-1.5-0.8-2.3c0.4-0.9,1.5-1.2,2.3-0.8c6.3,3.1,12.4,6.9,18,11.1
			c0.8,0.6,0.9,1.7,0.3,2.4C192.1,41.7,191.5,42,191,42z M92.1,23.7c-0.8,0-1.4-0.5-1.7-1.3c-0.3-0.9,0.3-1.9,1.2-2.1
			c6.8-1.9,13.7-3.2,20.8-3.9c0.9-0.1,1.8,0.6,1.9,1.6c0.1,1-0.6,1.8-1.6,1.9c-6.8,0.6-13.6,1.9-20.1,3.8
			C92.4,23.7,92.3,23.7,92.1,23.7z"/>
		<g>
			<path class="st2" d="M130.5,244.5c0,1.7-1.4,3.2-3.2,3.2c-1.7,0-3.2-1.4-3.2-3.2c0-1.7,1.4-3.2,3.2-3.2
				C129.1,241.4,130.5,242.8,130.5,244.5z"/>
			<path class="st0" d="M127.3,241.4c1.7,0,3.2,1.4,3.2,3.2c0,1.7-1.4,3.2-3.2,3.2c-1.7,0-3.2-1.4-3.2-3.2
				C124.2,242.8,125.6,241.4,127.3,241.4 M127.3,238.5c-3.3,0-6,2.7-6,6c0,3.3,2.7,6,6,6c3.3,0,6-2.7,6-6
				C133.3,241.2,130.6,238.5,127.3,238.5L127.3,238.5z"/>
		</g>
		<g>
			<path class="st0" d="M38.5,41.4c0.6-0.6,1.7-0.6,2.3,0.1l6.8,7.2c0.6,0.6,0.6,1.7-0.1,2.3c-0.6,0.6-1.7,0.6-2.3-0.1l-6.8-7.2
				C37.8,43,37.8,42,38.5,41.4 M37.6,40.4c-1.2,1.1-1.2,3-0.1,4.2l6.8,7.2c1.1,1.2,3,1.2,4.2,0.1c1.2-1.1,1.2-3,0.1-4.2l-6.8-7.2
				C40.6,39.3,38.7,39.3,37.6,40.4L37.6,40.4z"/>
			<path class="st0" d="M56.6,32.3c0.9,0,1.6,0.8,1.6,1.6l-0.3,9.9c0,0.9-0.8,1.6-1.6,1.6c-0.9,0-1.6-0.8-1.6-1.6l0.3-9.9
				C55,33,55.7,32.3,56.6,32.3 M56.6,31c-1.6,0-3,1.2-3,2.9l-0.3,9.9c0,1.6,1.2,3,2.9,3c1.6,0,3-1.2,3-2.9l0.3-9.9
				C59.5,32.4,58.3,31,56.6,31L56.6,31z"/>
			<path class="st0" d="M28.5,59c0-0.9,0.8-1.6,1.6-1.6l9.9,0.3c0.9,0,1.6,0.8,1.6,1.6c0,0.9-0.8,1.6-1.6,1.6l-9.9-0.3
				C29.2,60.6,28.5,59.9,28.5,59 M27.2,58.9c0,1.6,1.2,3,2.9,3l9.9,0.3c1.6,0,3-1.2,3-2.9c0-1.6-1.2-3-2.9-3l-9.9-0.3
				C28.6,56,27.2,57.3,27.2,58.9L27.2,58.9z"/>
		</g>
	</g>
</g>
<g id="Layer_2" class="st3">
	<g class="st4">
		<path class="st0" d="M21.8,86.4c0.2,0,0.3,0,0.5,0c0.7,0.1,1.2,0.8,1.1,1.6L22.2,94l6.1,1.2c0.7,0.1,1.2,0.8,1.1,1.6
			c-0.1,0.5-0.5,0.9-1,1.1c-0.2,0-0.3,0-0.5,0l-6.1-1.2l-1.2,6.1c-0.1,0.5-0.5,0.9-1,1.1c-0.2,0-0.3,0-0.5,0
			c-0.7-0.1-1.2-0.8-1.1-1.6l1.2-6.1L13,95c-0.7-0.1-1.2-0.8-1.1-1.6c0.1-0.5,0.5-0.9,1-1.1c0.2,0,0.3,0,0.5,0l6.1,1.2l1.2-6.1
			C20.9,86.9,21.3,86.5,21.8,86.4 M21.5,85c-1.1,0.2-1.9,1.1-2.2,2.2l-0.9,4.7l-4.7-0.9c-0.4-0.1-0.7-0.1-1.1,0
			c-1.1,0.2-1.9,1.1-2.2,2.2c-0.3,1.5,0.7,3,2.2,3.2l4.7,0.9l-0.9,4.7c-0.1,0.7,0,1.5,0.4,2.1c0.4,0.6,1,1,1.8,1.2
			c0.4,0.1,0.7,0.1,1.1,0c1.1-0.2,1.9-1.1,2.2-2.2l0.9-4.7l4.7,0.9c0.4,0.1,0.7,0.1,1.1,0c1.1-0.2,1.9-1.1,2.2-2.2
			c0.1-0.7,0-1.5-0.4-2.1c-0.4-0.6-1-1-1.8-1.2l-4.7-0.9l0.9-4.7c0.1-0.7,0-1.5-0.4-2.1c-0.4-0.6-1-1-1.8-1.2
			C22.3,84.9,21.9,84.9,21.5,85L21.5,85z"/>
		<path class="st0" d="M37.1,53.8c0.1-0.1,0.1-0.3,0.2-0.4c4.4-5.7,9.3-11,14.7-15.7c0.7-0.6,1.8-0.6,2.5,0.1
			c0.6,0.7,0.6,1.8-0.1,2.5c-5.2,4.6-10,9.7-14.2,15.2c-0.6,0.8-1.7,0.9-2.5,0.3C37.1,55.4,36.8,54.6,37.1,53.8z M17.2,154.1
			c0.2-0.5,0.6-0.9,1.2-1c0.9-0.3,1.9,0.3,2.2,1.2c1.8,6.7,4.3,13.3,7.3,19.5c0.4,0.9,0.1,1.9-0.8,2.4c-0.9,0.4-1.9,0.1-2.4-0.8
			c-3.1-6.5-5.7-13.2-7.5-20.1C17.1,154.9,17.1,154.5,17.2,154.1z M108.1,11c0.2-0.5,0.7-1,1.3-1.1c7.1-1.2,14.3-1.8,21.4-1.8
			c1,0,1.8,0.8,1.7,1.8c0,1-0.8,1.8-1.8,1.7c-6.9-0.1-13.9,0.5-20.8,1.7c-1,0.2-1.9-0.5-2-1.4C107.9,11.6,108,11.3,108.1,11z
			 M66.4,220.9c0-0.1,0.1-0.2,0.1-0.3c0.5-0.8,1.6-1.1,2.4-0.5c5.8,3.7,12.1,6.9,18.6,9.5l0.3,0.1c0.9,0.4,1.3,1.4,1,2.3
			c-0.4,0.9-1.4,1.3-2.3,1l-0.3-0.1c-6.7-2.7-13.1-6-19.2-9.8C66.3,222.5,66.1,221.6,66.4,220.9z M189.4,27.1c0-0.1,0.1-0.2,0.1-0.3
			c0.5-0.8,1.6-1.1,2.4-0.5c6.1,3.8,11.8,8.2,17,13.1c0.7,0.7,0.7,1.8,0.1,2.5c-0.7,0.7-1.8,0.8-2.5,0.1c-5.1-4.7-10.6-9-16.5-12.7
			C189.3,28.8,189.1,27.9,189.4,27.1z M220.2,55.8c0.1-0.3,0.3-0.6,0.6-0.8c0.8-0.6,1.9-0.4,2.5,0.4c4.2,5.8,8,11.9,11.1,18.4
			c0.4,0.9,0.1,1.9-0.8,2.4c-0.9,0.4-1.9,0.1-2.4-0.8c-3-6.3-6.7-12.3-10.8-17.8C220.1,57,220,56.4,220.2,55.8z M148,237
			c0.2-0.5,0.7-1,1.3-1.1c6.8-1.2,13.6-3.1,20.1-5.5c0.9-0.3,1.9,0.1,2.3,1c0.3,0.9-0.1,1.9-1,2.3c-6.7,2.5-13.7,4.4-20.7,5.7
			c-1,0.2-1.9-0.5-2-1.4C147.8,237.6,147.8,237.3,148,237z M187.4,222.1c0.1-0.3,0.4-0.6,0.7-0.8c5.9-3.6,11.6-7.8,16.8-12.4
			c0.7-0.6,1.8-0.6,2.5,0.1c0.6,0.7,0.6,1.8-0.1,2.5c-5.3,4.8-11.2,9.1-17.3,12.8c-0.8,0.5-1.9,0.2-2.4-0.6
			C187.2,223.2,187.2,222.6,187.4,222.1z M242.1,135.7c0.3-0.7,1-1.2,1.8-1.1c1,0.1,1.7,1,1.6,1.9c-0.7,7.1-2.1,14.2-4.2,21.1
			c-0.3,0.9-1.3,1.5-2.2,1.2c-0.9-0.3-1.5-1.3-1.2-2.2c2-6.7,3.3-13.5,4.1-20.4C242,136,242,135.9,242.1,135.7z"/>
		<g>
			<path class="st2" d="M122.1,240.7c0.6,1.7-0.3,3.5-2,4.1c-1.7,0.6-3.5-0.3-4.1-2c-0.6-1.7,0.3-3.5,2-4.1
				C119.6,238.1,121.5,239,122.1,240.7z"/>
			<path class="st0" d="M118,238.7c1.7-0.6,3.5,0.3,4.1,2c0.6,1.7-0.3,3.5-2,4.1c-1.7,0.6-3.5-0.3-4.1-2
				C115.4,241.1,116.3,239.3,118,238.7 M117,236c-3.2,1.1-4.9,4.6-3.8,7.7c1.1,3.2,4.6,4.9,7.7,3.8c3.2-1.1,4.9-4.6,3.8-7.7
				C123.7,236.6,120.2,234.9,117,236L117,236z"/>
		</g>
		<g>
			<g>
				<path class="st1" d="M104,89.2c-22.4,8.3-33.8,33.1-25.5,55.4c8.3,22.3,33.2,33.6,55.5,25.3c22.4-8.3,33.8-33.1,25.5-55.4
					C151.3,92.2,126.4,80.9,104,89.2z M90.1,139.1c-1.1,0.4-2.4-0.2-2.8-1.3c-0.4-1.1,0.2-2.4,1.3-2.8c1.1-0.4,2.4,0.2,2.8,1.3
					C91.8,137.4,91.2,138.7,90.1,139.1z M118.4,110c-3.2,1.2-6.8-0.4-8-3.7c-1.2-3.2,0.4-6.8,3.7-8c3.2-1.2,6.8,0.4,8,3.7
					C123.3,105.2,121.6,108.8,118.4,110z M147.5,149.9c-1.1,0.4-2.3-0.2-2.8-1.3c-0.4-1.1,0.2-2.3,1.3-2.8c1.1-0.4,2.3,0.2,2.8,1.3
					C149.2,148.3,148.6,149.5,147.5,149.9z M137.6,108.5c-1.7,0.6-3.6-0.2-4.2-1.9c-0.6-1.7,0.2-3.6,1.9-4.2
					c1.7-0.6,3.6,0.2,4.2,1.9C140.2,106,139.3,107.8,137.6,108.5z"/>
				<path class="st0" d="M104.1,89.2c22.3-8.3,47.2,3,55.5,25.3c8.3,22.3-3.1,47.1-25.5,55.4c0,0,0,0-0.1,0
					c-22.3,8.3-47.2-3-55.5-25.3C70.3,122.4,81.7,97.6,104.1,89.2C104.1,89.2,104.1,89.2,104.1,89.2 M118.4,110
					c3.2-1.2,4.8-4.8,3.7-8c-1.2-3.2-4.8-4.8-8-3.7c-3.2,1.2-4.8,4.8-3.7,8C111.6,109.5,115.2,111.2,118.4,110 M137.6,108.5
					c1.7-0.6,2.6-2.5,1.9-4.2c-0.6-1.7-2.5-2.6-4.2-1.9c-1.7,0.6-2.6,2.5-1.9,4.2C134,108.2,135.9,109.1,137.6,108.5 M90.1,139.1
					c1.1-0.4,1.7-1.7,1.3-2.8c-0.4-1.1-1.7-1.7-2.8-1.3c-1.1,0.4-1.7,1.7-1.3,2.8C87.7,139,88.9,139.5,90.1,139.1 M147.5,149.9
					c1.1-0.4,1.7-1.6,1.3-2.8c-0.4-1.1-1.6-1.7-2.8-1.3c-1.1,0.4-1.7,1.6-1.3,2.8C145.2,149.8,146.4,150.4,147.5,149.9 M103.6,87.8
					L103.6,87.8c-11.3,4.2-20.2,12.5-25.1,23.3c-5,10.8-5.4,23-1.3,34.1c8.6,23,34.3,34.8,57.4,26.2c11.3-4.2,20.2-12.5,25.1-23.3
					c5-10.8,5.4-23,1.3-34.1C152.4,91,126.7,79.2,103.6,87.8L103.6,87.8z M117.9,108.6c-2.4,0.9-5.1-0.3-6-2.8
					c-0.9-2.4,0.3-5.1,2.8-6c2.4-0.9,5.1,0.3,6,2.8C121.6,105,120.3,107.7,117.9,108.6L117.9,108.6z M137.1,107
					c-0.9,0.3-1.9-0.1-2.3-1c-0.3-0.9,0.1-1.9,1-2.3c0.9-0.3,1.9,0.1,2.3,1C138.5,105.7,138,106.7,137.1,107L137.1,107z M89.6,137.7
					c-0.4,0.1-0.8-0.1-0.9-0.4c-0.1-0.4,0.1-0.8,0.4-0.9c0.4-0.1,0.8,0.1,0.9,0.4C90.1,137.2,89.9,137.6,89.6,137.7L89.6,137.7z
					 M147,148.5c-0.3,0.1-0.7,0-0.8-0.4c-0.1-0.3,0-0.7,0.4-0.8c0.3-0.1,0.7,0,0.8,0.4C147.5,148,147.3,148.4,147,148.5L147,148.5z"
					/>
			</g>
			<g>
				<path class="st1" d="M159.3,98.9c2.3-0.5,4.6-1,6.8-1.4c22.4-4.3,26.6-0.5,27.8,2.7c1.2,3.2,0.5,8.7-19.3,20.2
					c-13,7.5-30.9,15.7-50.4,23c-19.5,7.3-38.4,12.8-53.2,15.6c-22.4,4.3-26.6,0.5-27.8-2.7c-1.2-3.2-0.5-8.7,19.3-20.2
					c1.9-1.1,3.9-2.2,6-3.3l0.7,6.2c-13.2,7.2-20,12.9-20.4,15.2c3.4,2.8,30.3-0.3,73.4-16.4c43.1-16.1,65.4-31.3,66.2-35.7
					c-1.9-1.5-10.7-1.3-25.4,1.9L159.3,98.9z"/>
				<path class="st0" d="M159.3,98.9c2.3-0.5,4.6-1,6.8-1.4c22.4-4.3,26.6-0.5,27.8,2.7c1.2,3.2,0.5,8.7-19.3,20.2
					c-13,7.5-30.9,15.7-50.4,23c-0.2,0.1-0.5,0.2-0.7,0.3c-19.3,7.2-37.9,12.6-52.5,15.4c-22.4,4.3-26.6,0.5-27.8-2.7
					c-1.2-3.2-0.5-8.7,19.3-20.2c1.9-1.1,3.9-2.2,6-3.3l0.7,6.2c-13.2,7.2-20,12.9-20.4,15.2c3.4,2.7,30-0.3,72.7-16.1
					c0.2-0.1,0.5-0.2,0.7-0.3c43.1-16.1,65.4-31.3,66.2-35.7c-1.9-1.5-10.7-1.3-25.4,1.9L159.3,98.9 M157.2,98l1.1,1.6l3.6,5.1
					l0.5,0.7l0.8-0.2c13.3-2.8,20.8-3,23.4-2.5c-3.3,4.5-23.7,18.4-65,33.8l-0.7,0.3c-40.8,15.1-65.1,17.9-70.5,16.7
					c1.6-2.2,7.4-6.9,19.3-13.5l0.8-0.4l-0.1-0.9l-0.7-6.2l-0.2-1.9l-1.7,0.9c-2.1,1.1-4.1,2.3-6,3.3
					c-20.4,11.8-21.3,17.8-19.8,21.7c1.5,3.9,6.1,7.9,29.2,3.5c14.6-2.8,33.3-8.3,52.7-15.4l0.7-0.3c19.6-7.3,37.6-15.5,50.6-23
					c20.4-11.8,21.3-17.8,19.8-21.7c-1.5-3.9-6.1-7.9-29.2-3.5c-2.2,0.4-4.5,0.9-6.8,1.4L157.2,98L157.2,98z"/>
			</g>
		</g>
		<g>
			<polygon class="st1" points="182.3,193.1 177.5,186.6 169.5,186.9 174.1,180.3 171.4,172.8 179.1,175.2 185.4,170.3 185.5,178.3 
				192.2,182.8 184.5,185.4 			"/>
			<path class="st0" d="M185.4,170.3l0.1,8l6.7,4.5l-7.6,2.5l-2.2,7.7l-4.8-6.5l-8,0.3l4.7-6.5l-2.7-7.6l7.7,2.4L185.4,170.3
				 M185.4,169c-0.3,0-0.5,0.1-0.8,0.3l-5.8,4.5l-7.1-2.2c-0.1,0-0.2-0.1-0.4-0.1c-0.3,0-0.7,0.1-0.9,0.4c-0.3,0.3-0.4,0.8-0.3,1.3
				l2.5,7l-4.3,6c-0.3,0.4-0.3,0.9-0.1,1.3c0.2,0.4,0.6,0.7,1.1,0.7c0,0,0,0,0,0l7.4-0.2l4.4,5.9c0.2,0.3,0.6,0.5,1,0.5
				c0.1,0,0.1,0,0.2,0c0.5-0.1,0.8-0.4,1-0.9l2-7.1l7-2.3c0.4-0.1,0.8-0.5,0.8-1c0.1-0.5-0.1-0.9-0.5-1.2l-6.1-4.1l-0.1-7.4
				c0-0.5-0.3-0.9-0.7-1.1C185.8,169.1,185.6,169,185.4,169L185.4,169z"/>
		</g>
		<g>
			<g>
				<path class="st1" d="M178.2,60.3c-1.7,3.7-6,5.3-9.6,3.6c-3.7-1.7-5.3-6-3.6-9.6c1.7-3.7,6-5.3,9.6-3.6
					C178.2,52.4,179.9,56.7,178.2,60.3z"/>
				<path class="st0" d="M168.3,64.5c-4-1.8-5.7-6.5-3.9-10.5c1.8-4,6.5-5.7,10.5-3.9c4,1.8,5.7,6.5,3.9,10.5
					C177,64.6,172.3,66.3,168.3,64.5z M174.3,51.3c-3.3-1.5-7.3,0-8.8,3.3c-1.5,3.3,0,7.3,3.3,8.8c3.3,1.5,7.3,0,8.8-3.3
					C179.1,56.7,177.6,52.8,174.3,51.3z"/>
			</g>
			<path class="st0" d="M169.1,68.7l-24-10.9c-0.3-0.1-0.5-0.5-0.3-0.9c0.1-0.3,0.5-0.5,0.9-0.3l24,10.9c4.8,2.2,10.6,0,12.8-4.8
				l0.4-0.9c2.2-4.8,0-10.6-4.8-12.8l-24-10.9c-0.3-0.1-0.5-0.5-0.3-0.9c0.1-0.3,0.5-0.5,0.9-0.3l24,10.9c5.5,2.5,7.9,9,5.4,14.5
				l-0.4,0.9C181.1,68.7,174.6,71.2,169.1,68.7z"/>
			<g>
				<path class="st0" d="M158.7,48.5l-15-6.8c-0.3-0.1-0.5-0.5-0.3-0.9c0.1-0.3,0.5-0.5,0.9-0.3l15,6.8c0.3,0.1,0.5,0.5,0.3,0.9
					C159.5,48.5,159.1,48.6,158.7,48.5z"/>
				<path class="st0" d="M155.9,54.7l-11.1-5c-0.3-0.1-0.5-0.5-0.3-0.9c0.1-0.3,0.5-0.5,0.9-0.3l11.1,5c0.3,0.1,0.5,0.5,0.3,0.9
					C156.6,54.7,156.2,54.8,155.9,54.7z"/>
			</g>
		</g>
		<g>
			<polygon class="st1" points="216.8,144.6 218.4,147.5 221.2,149.1 218.4,150.6 216.8,153.5 215.2,150.6 212.3,149.1 215.2,147.5 
							"/>
			<path class="st0" d="M216.8,144.6l1.6,2.9l2.9,1.6l-2.9,1.6l-1.6,2.9l-1.6-2.9l-2.9-1.6l2.9-1.6L216.8,144.6 M216.8,143.3
				c-0.5,0-0.9,0.2-1.1,0.6l-1.4,2.6l-2.6,1.4c-0.4,0.2-0.6,0.6-0.6,1.1c0,0.5,0.2,0.9,0.6,1.1l2.6,1.4l1.4,2.6
				c0.2,0.4,0.6,0.6,1.1,0.6c0.5,0,0.9-0.2,1.1-0.6l1.4-2.6l2.6-1.4c0.4-0.2,0.6-0.6,0.6-1.1c0-0.5-0.2-0.9-0.6-1.1l-2.6-1.4
				l-1.4-2.6C217.7,143.6,217.2,143.3,216.8,143.3L216.8,143.3z"/>
		</g>
		<g>
			<polygon class="st1" points="222.6,175.6 222.7,178.9 224.6,181.7 221.3,181.8 218.6,183.6 218.5,180.3 216.6,177.6 219.9,177.5 
							"/>
			<path class="st0" d="M222.6,175.6l0.1,3.3l1.9,2.7l-3.3,0.1l-2.7,1.9l-0.1-3.3l-1.9-2.7l3.3-0.1L222.6,175.6 M223.2,174.5
				c-0.4-0.2-0.9-0.2-1.3,0.1l-2.4,1.7l-2.9,0.1c-0.5,0-0.9,0.3-1.1,0.7c-0.2,0.4-0.2,0.9,0.1,1.3l1.7,2.4l0.1,2.9
				c0,0.5,0.3,0.9,0.7,1.1c0.4,0.2,0.9,0.2,1.3-0.1l2.4-1.7l2.9-0.1c0.5,0,0.9-0.3,1.1-0.7c0.2-0.4,0.2-0.9-0.1-1.3l-1.7-2.4
				l-0.1-2.9C223.8,175.2,223.6,174.7,223.2,174.5L223.2,174.5z"/>
		</g>
	</g>
</g>
<g id="Layer_4" class="st3">
	<g class="st4">
		<path class="st0" d="M119,231.5c0.2,0.1,0.3,0.3,0.4,0.5c0.5,0.8,0.2,1.9-0.7,2.4l-7,4l4,7c0.5,0.8,0.2,1.9-0.7,2.4
			c-0.6,0.4-1.4,0.3-1.9-0.1c-0.2-0.1-0.3-0.3-0.4-0.5l-4-7l-7,4c-0.6,0.4-1.4,0.3-1.9-0.1c-0.2-0.1-0.3-0.3-0.4-0.5
			c-0.5-0.8-0.2-1.9,0.7-2.4l7-4l-4-7c-0.5-0.8-0.2-1.9,0.7-2.4c0.6-0.4,1.4-0.3,1.9,0.1c0.2,0.1,0.3,0.3,0.4,0.5l4,7l7-4
			C117.7,231,118.4,231,119,231.5 M120.1,230c-1.2-0.9-2.7-1-4-0.3l-5.4,3.1l-3.1-5.4c-0.2-0.4-0.5-0.8-0.9-1.1
			c-1.2-0.9-2.7-1-4-0.3c-1.7,1-2.3,3.2-1.4,4.9l3.1,5.4l-5.4,3.1c-0.8,0.5-1.4,1.3-1.7,2.2c-0.3,0.9-0.1,1.9,0.3,2.7
			c0.2,0.4,0.5,0.8,0.9,1.1c1.2,0.9,2.7,1,4,0.3l5.4-3.1l3.1,5.4c0.2,0.4,0.5,0.8,0.9,1.1c1.2,0.9,2.7,1,4,0.3
			c0.8-0.5,1.4-1.3,1.7-2.2c0.3-0.9,0.1-1.9-0.3-2.7l-3.1-5.4l5.4-3.1c0.8-0.5,1.4-1.3,1.7-2.2c0.3-0.9,0.1-1.9-0.3-2.7
			C120.8,230.6,120.5,230.3,120.1,230L120.1,230z"/>
		<path class="st0" d="M113.1,201.4l-4.6-2.8l2.8-4.6c0.3-0.5,0.1-1.3-0.4-1.6c-0.5-0.3-1.3-0.1-1.6,0.4l-2.8,4.6l-4.6-2.8
			c-0.5-0.3-1.3-0.1-1.6,0.4c-0.3,0.5-0.1,1.3,0.4,1.6l4.6,2.8l-2.8,4.6c-0.3,0.5-0.1,1.3,0.4,1.6c0.5,0.3,1.3,0.1,1.6-0.4l2.8-4.6
			l4.6,2.8c0.5,0.3,1.3,0.1,1.6-0.4S113.6,201.7,113.1,201.4z"/>
		<g>
			<path class="st0" d="M203.8,47.2c-0.5,0.1-1.1,0-1.6-0.2l0,0c-0.7-0.3-1.3-0.8-1.7-1.5c-0.4-0.7-0.4-1.5-0.1-2.4
				c0.3-0.8,0.8-1.3,1.6-1.7c0.7-0.3,1.5-0.4,2.3-0.1c0.8,0.3,1.3,0.8,1.7,1.6c0.3,0.8,0.4,1.5,0.1,2.3c-0.3,0.9-0.9,1.4-1.7,1.7
				C204.2,47.1,204,47.1,203.8,47.2z M202.7,45.8c0.4,0.2,0.9,0.2,1.3,0c0.4-0.2,0.7-0.5,0.9-1c0.2-0.4,0.2-0.9,0-1.3
				c-0.2-0.4-0.5-0.7-1-0.9c-0.5-0.2-0.9-0.2-1.3,0c-0.4,0.2-0.7,0.5-0.9,0.9c-0.2,0.5-0.2,1,0,1.3
				C201.9,45.3,202.2,45.6,202.7,45.8L202.7,45.8z M205.8,40.1c-0.3,0.1-0.7,0-1-0.1c-0.8-0.3-1.2-0.9-1.3-1.7
				c0-0.6,0.1-1.4,0.4-2.4l0,0l2.2-7.2c0.4-1.4,0.8-2.4,1-3c0.4-1,0.9-1.6,1.7-2c0.8-0.4,1.6-0.4,2.5-0.1c1.4,0.5,1.7,1.4,1.8,2.1
				c0.1,0.8-0.1,1.8-0.6,3c-0.3,0.7-0.6,1.3-0.9,2l-3.4,7c-0.4,0.9-0.9,1.6-1.3,2C206.5,39.9,206.2,40.1,205.8,40.1z M205.1,36.3
				c-0.2,0.9-0.3,1.5-0.3,2c0,0.2,0.1,0.4,0.4,0.5c0.3,0.1,0.5,0.1,0.7-0.1c0.3-0.3,0.7-0.9,1.1-1.6l3.4-7c0.3-0.6,0.6-1.3,0.8-1.9
				c0.4-1,0.5-1.8,0.5-2.4c0-0.3-0.1-0.7-0.9-1c-0.5-0.2-1-0.2-1.4,0c-0.4,0.2-0.8,0.6-1,1.3c-0.2,0.6-0.6,1.6-1,3L205.1,36.3z"/>
		</g>
		<path class="st0" d="M162.8,238c-0.1,0.1-0.3,0.2-0.5,0.2c-7,2.1-14.2,3.5-21.4,4.2c-1,0.1-1.9-0.6-2-1.6c-0.1-1,0.6-1.9,1.6-2
			c7-0.7,14-2.1,20.8-4.1c0.9-0.3,1.9,0.3,2.2,1.2C163.8,236.8,163.4,237.6,162.8,238z M216.7,203.9c-0.7,0.4-1.5,0.4-2.1-0.2
			c-0.7-0.7-0.8-1.8-0.1-2.5c4.7-5.3,9-11,12.6-17c0.5-0.8,1.6-1.1,2.5-0.6c0.8,0.5,1.1,1.6,0.6,2.5c-3.8,6.2-8.2,12.1-13,17.5
			C217,203.7,216.9,203.8,216.7,203.9z M239,167.3c-0.5,0.3-1,0.4-1.6,0.2c-0.9-0.3-1.4-1.4-1-2.3c2.5-6.6,4.4-13.5,5.6-20.4
			c0.2-1,1.1-1.6,2.1-1.4c1,0.2,1.6,1.1,1.4,2.1c-1.3,7.2-3.2,14.3-5.8,21.1C239.5,166.8,239.3,167.1,239,167.3z M78.8,230.9
			c-0.5,0.3-1.2,0.4-1.7,0.1c-6.6-3.2-12.8-7-18.7-11.3c-0.8-0.6-1-1.7-0.4-2.5c0.6-0.8,1.7-1,2.5-0.4c5.7,4.2,11.8,7.9,18.1,11
			c0.9,0.4,1.3,1.5,0.8,2.4C79.3,230.5,79.1,230.8,78.8,230.9z M238.3,83.1c-0.1,0.1-0.2,0.1-0.3,0.1c-0.9,0.4-2-0.1-2.3-1
			c-2.6-6.5-5.8-12.9-9.6-18.9l-0.2-0.3c-0.5-0.8-0.3-1.9,0.6-2.5c0.8-0.5,1.9-0.3,2.5,0.6l0.2,0.3c3.9,6.2,7.2,12.7,9.9,19.5
			C239.3,81.7,239,82.6,238.3,83.1z M21.5,169.2c-0.1,0.1-0.2,0.1-0.3,0.1c-0.9,0.4-2-0.1-2.3-1c-2.7-6.8-4.8-13.8-6.2-20.9
			c-0.2-1,0.4-1.9,1.4-2.1c1-0.2,1.9,0.4,2.1,1.4c1.4,6.9,3.4,13.8,6,20.3C22.6,167.9,22.2,168.8,21.5,169.2z M13.2,127.2
			c-0.3,0.2-0.6,0.3-0.9,0.3c-1,0-1.8-0.8-1.8-1.8c-0.1-7.3,0.5-14.6,1.8-21.8c0.2-1,1.1-1.6,2.1-1.5c1,0.2,1.6,1.1,1.4,2.1
			c-1.2,7-1.8,14.1-1.8,21.1C14.1,126.3,13.8,126.9,13.2,127.2z M180.8,21.1c-0.5,0.3-1.2,0.4-1.7,0.1c-6.3-3.1-13-5.6-19.8-7.4
			c-1-0.3-1.5-1.2-1.3-2.2c0.3-1,1.2-1.5,2.2-1.3c7,1.9,13.9,4.5,20.5,7.7c0.9,0.4,1.3,1.5,0.8,2.4C181.3,20.7,181,21,180.8,21.1z
			 M139.4,9.9c-0.3,0.2-0.7,0.3-1.1,0.3c-7-0.6-14.2-0.5-21.2,0.2c-1,0.1-1.9-0.6-2-1.6c-0.1-1,0.6-1.9,1.6-2
			C124,6,131.4,6,138.6,6.6c1,0.1,1.7,0.9,1.6,1.9C140.2,9.1,139.9,9.6,139.4,9.9z M42.9,48.4c-0.7,0.4-1.5,0.4-2.1-0.2
			c-0.7-0.7-0.8-1.8-0.1-2.5c4.8-5.4,10.2-10.4,16-14.9c0.8-0.6,1.9-0.5,2.5,0.3c0.6,0.8,0.5,1.9-0.3,2.5C53.2,38,48,42.8,43.3,48
			C43.2,48.2,43,48.3,42.9,48.4z"/>
		<g>
			<circle class="st2" cx="20.8" cy="75.6" r="3.3"/>
			<path class="st0" d="M20.8,72.3c1.8,0,3.3,1.5,3.3,3.3s-1.5,3.3-3.3,3.3c-1.8,0-3.3-1.5-3.3-3.3S19,72.3,20.8,72.3 M20.8,69.4
				c-3.4,0-6.2,2.8-6.2,6.2s2.8,6.2,6.2,6.2S27,79,27,75.6S24.2,69.4,20.8,69.4L20.8,69.4z"/>
		</g>
		<g>
			<path class="st0" d="M25.1,189.6c0.5,0.2,1,0.7,1.3,1.5l4.3,9.8l0.5-0.2c0.6-0.3,1.2-0.4,1.7-0.4c0.1,0,0.2,0,0.3,0.1
				c0.3,0.1,0.6,0.4,0.7,0.8c0.2,0.5,0.2,0.9,0,1.3c-0.2,0.4-0.7,0.7-1.3,1l-0.8,0.3l1,2.3c0.3,0.6,0.3,1.2,0.2,1.6
				c-0.1,0.4-0.5,0.8-0.9,1c-0.4,0.2-0.9,0.2-1.3,0c0,0-0.1,0-0.1,0c-0.4-0.2-0.8-0.6-1.1-1.2l-1-2.3l-6.3,2.8
				c-0.8,0.3-1.5,0.4-2,0.2c0,0-0.1,0-0.1,0c-0.5-0.2-0.9-0.6-1.1-1.2c-0.1-0.2-0.1-0.3-0.1-0.5c0-0.2,0-0.4,0-0.6
				c0-0.2,0.1-0.5,0.1-0.7c0.1-0.2,0.1-0.5,0.2-0.8l2.8-11.9c0.2-0.8,0.4-1.4,0.5-1.8c0.2-0.4,0.4-0.7,0.8-0.8
				C24.1,189.4,24.6,189.4,25.1,189.6 M22.1,204.5l5.4-2.4l-3.2-7.3L22.1,204.5 M25.7,188c-0.6-0.2-1.6-0.4-2.9,0.1
				c-0.8,0.3-1.4,0.9-1.7,1.7c-0.2,0.5-0.4,1.1-0.6,2l-2.8,11.9l-0.2,0.8c-0.1,0.3-0.1,0.5-0.2,0.8c-0.1,0.4-0.1,0.7-0.1,1
				c0,0.4,0.1,0.7,0.3,1.1c0.4,1,1.2,1.7,2.1,2.1c0.1,0,0.1,0,0.2,0.1c1,0.3,2.1,0.2,3.2-0.3l4.8-2.1l0.3,0.8c0.4,1,1.1,1.7,1.9,2.1
				c0.1,0,0.1,0.1,0.2,0.1c0.8,0.3,1.7,0.3,2.6-0.1c0.9-0.4,1.6-1.1,1.9-2c0.3-0.8,0.2-1.8-0.3-2.8l-0.4-0.8c0.6-0.3,1-0.8,1.3-1.2
				c0.5-0.8,0.6-1.8,0.1-2.8c-0.5-1.1-1.2-1.5-1.7-1.7c-0.3-0.1-0.6-0.2-0.9-0.2c-0.4,0-0.9,0.1-1.3,0.2l-3.6-8.3
				C27.4,189.2,26.6,188.4,25.7,188L25.7,188z M24.5,201.7l0.3-1.4l0.5,1.1L24.5,201.7L24.5,201.7z"/>
			<path class="st0" d="M41.1,184.1C41.1,184.1,41.1,184.1,41.1,184.1c0.8,0.3,1.6,0.8,2.3,1.4c1.2,1.1,2.4,2.9,3.5,5.5
				c0.6,1.4,1,2.6,1.3,3.7c0.3,1.1,0.3,2.1,0.2,3.1c-0.1,1.2-0.5,2.3-1.2,3.3c-0.7,0.9-1.6,1.6-2.7,2.1c-1.3,0.6-2.6,0.7-3.9,0.4
				c-0.4-0.1-0.7-0.2-1.1-0.3c-0.9-0.4-1.8-0.9-2.5-1.7c-0.6-0.6-1.1-1.3-1.6-2.1c-0.5-0.8-1-1.7-1.4-2.7c-0.6-1.3-1-2.4-1.3-3.5
				c-0.3-1.1-0.5-2-0.5-2.9c0-1.4,0.3-2.7,1-3.7c0.7-1,1.7-1.9,3-2.4c0.9-0.4,1.7-0.6,2.5-0.6C39.6,183.6,40.3,183.8,41.1,184.1
				 M41.5,200.7c0.6,0.2,1.2,0.2,1.9-0.1c0.8-0.3,1.3-0.9,1.5-1.6c0.2-0.7,0.2-1.6-0.1-2.7c-0.3-1.1-0.7-2.4-1.5-4
				c-0.7-1.5-1.3-2.8-1.9-3.7c-0.6-0.9-1.2-1.5-1.9-1.8c0,0-0.1,0-0.1-0.1c-0.6-0.2-1.3-0.2-2,0.1c-1.1,0.5-1.6,1.4-1.6,2.7
				c0.1,1.3,0.6,3.1,1.6,5.5c0.7,1.6,1.3,2.8,2,3.8c0.6,0.9,1.3,1.6,1.9,1.9C41.4,200.6,41.4,200.6,41.5,200.7 M41.7,182.5
				c-1-0.4-2-0.6-3-0.5c-1,0-2.1,0.3-3.2,0.7c-1.6,0.7-2.9,1.7-3.7,3.1c-0.8,1.3-1.3,2.9-1.2,4.7c0,1,0.2,2.1,0.6,3.3
				c0.3,1.1,0.8,2.4,1.4,3.7c0.5,1.1,1,2,1.5,2.9c0.6,0.9,1.2,1.7,1.8,2.3c1,1,2,1.6,3.1,2.1c0.4,0.2,0.9,0.3,1.3,0.4
				c1.7,0.4,3.3,0.2,4.9-0.5c1.4-0.6,2.5-1.5,3.4-2.7c0.8-1.2,1.4-2.5,1.5-4.1c0.1-1.2,0-2.5-0.3-3.7c-0.3-1.2-0.8-2.5-1.4-3.9
				c-1.2-2.8-2.5-4.8-4-6.1C43.6,183.5,42.7,182.9,41.7,182.5L41.7,182.5L41.7,182.5L41.7,182.5z M42.1,199.1L42.1,199.1
				c-0.3-0.2-0.8-0.5-1.3-1.3c-0.6-0.8-1.2-2-1.8-3.5c-1.2-2.6-1.4-4.1-1.5-4.8c0-0.7,0.2-0.9,0.6-1.1c0.4-0.2,0.6-0.1,0.7-0.1
				c0.3,0.1,0.7,0.5,1.3,1.3c0.6,0.8,1.1,1.9,1.8,3.4c0.7,1.5,1.1,2.8,1.4,3.8c0.2,1,0.2,1.6,0.1,1.9c0,0.2-0.1,0.3-0.5,0.5
				C42.4,199.2,42.2,199.1,42.1,199.1L42.1,199.1z"/>
			<path class="st0" d="M55.8,176.2c0.5,0.2,1,0.7,1.3,1.5l4.3,9.8l0.5-0.2c0.6-0.3,1.2-0.4,1.7-0.4c0.1,0,0.2,0,0.3,0.1
				c0.3,0.1,0.6,0.4,0.7,0.8c0.2,0.5,0.2,0.9,0,1.3c-0.2,0.4-0.7,0.7-1.3,1l-0.8,0.3l1,2.3c0.3,0.6,0.3,1.2,0.2,1.6
				c-0.1,0.4-0.5,0.8-0.9,1c-0.4,0.2-0.9,0.2-1.3,0c0,0-0.1,0-0.1,0c-0.4-0.2-0.8-0.6-1.1-1.2l-1-2.3l-6.3,2.8
				c-0.8,0.3-1.5,0.4-2,0.2c0,0-0.1,0-0.1,0c-0.5-0.2-0.9-0.6-1.1-1.2c-0.1-0.2-0.1-0.3-0.1-0.5c0-0.2,0-0.4,0-0.6
				c0-0.2,0.1-0.5,0.1-0.7c0.1-0.2,0.1-0.5,0.2-0.8l2.8-11.9c0.2-0.8,0.4-1.4,0.5-1.8c0.2-0.4,0.4-0.7,0.8-0.8
				C54.8,176,55.3,176,55.8,176.2 M52.8,191.2l5.4-2.4l-3.2-7.3L52.8,191.2 M56.4,174.6c-0.6-0.2-1.6-0.4-2.9,0.1
				c-0.8,0.3-1.4,0.9-1.7,1.7c-0.2,0.5-0.4,1.1-0.6,2l-2.8,11.9l-0.2,0.8c-0.1,0.3-0.1,0.5-0.2,0.8c-0.1,0.4-0.1,0.7-0.1,1
				c0,0.4,0.1,0.7,0.3,1.1c0.4,1,1.2,1.7,2.1,2.1c0.1,0,0.1,0,0.2,0.1c1,0.3,2.1,0.2,3.2-0.3l4.8-2.1l0.3,0.8c0.4,1,1.1,1.7,1.9,2.1
				c0.1,0,0.1,0,0.2,0.1c0.8,0.3,1.7,0.3,2.6-0.1c0.9-0.4,1.6-1.1,1.9-2c0.3-0.8,0.2-1.8-0.3-2.8l-0.4-0.8c0.6-0.3,1-0.8,1.3-1.2
				c0.5-0.8,0.6-1.8,0.1-2.8c-0.5-1.1-1.2-1.5-1.7-1.7c-0.3-0.1-0.6-0.2-0.9-0.2c-0.4,0-0.9,0.1-1.3,0.2l-3.6-8.3
				C58.1,175.8,57.3,175,56.4,174.6L56.4,174.6z M55.1,188.3l0.3-1.4l0.5,1.1L55.1,188.3L55.1,188.3z"/>
		</g>
		<g>
			<g>
				<g>
					<g>
						<path class="st1" d="M118.4,71.9c-46.1,4.9-15.9,51.1-7.2,59s14.1,6.4,14.1,6.4s5.6,0.4,12.5-9.2
							C144.7,118.5,164.6,67,118.4,71.9z"/>
						<path class="st0" d="M118.4,71.9c46.1-4.9,26.3,46.6,19.4,56.2c-5.6,7.9-10.4,9-12,9.2c-0.3,0-0.5,0-0.5,0s-0.2,0-0.5,0.1
							c-1.5,0.2-6.5,0-13.6-6.5C102.5,123,72.3,76.8,118.4,71.9 M118.3,70.4C104.4,71.9,95.9,77.1,93,86
							c-5.3,16.2,10.3,39.8,17.2,46c7.5,6.8,12.9,7.1,14.8,6.9c0.2,0,0.4-0.1,0.5-0.1c0.1,0,0.3,0,0.5,0c2-0.2,7.2-1.6,13-9.8
							c5.4-7.5,15.7-33.8,7.1-48.6C141.6,72.3,132.1,68.9,118.3,70.4L118.3,70.4z"/>
					</g>
				</g>
				<g>
					<path class="st0" d="M128.5,104.7c-2,4.4-0.9,9.2,2.4,10.6c3.3,1.5,7.6-0.9,9.5-5.3c2-4.4,0.9-9.2-2.4-10.6
						C134.7,97.9,130.4,100.3,128.5,104.7z"/>
					<path class="st0" d="M115.5,106.1c2.8,3.9,2.8,8.8-0.1,10.9c-2.9,2.1-7.6,0.7-10.4-3.2s-2.8-8.8,0.1-10.9
						C108,100.8,112.7,102.2,115.5,106.1z"/>
				</g>
				<path class="st0" d="M127.9,126.2l-7.4,0.8c-0.2,0-0.4-0.1-0.5-0.4l-0.1-1.3c0-0.2,0.1-0.4,0.4-0.5l7.4-0.8
					c0.2,0,0.4,0.1,0.5,0.4l0.1,1.3C128.3,126,128.2,126.2,127.9,126.2z"/>
			</g>
			<g>
				<g>
					<path class="st1" d="M195.9,218.5l-8.1,4.9c-1.5,0.9-3.3,0.4-4.2-1.1l-34.3-57c-0.9-1.4-0.4-3.3,1.1-4.2l8.1-4.9
						c1.4-0.9,3.3-0.4,4.2,1.1l34.3,57.1C197.8,215.8,197.3,217.7,195.9,218.5z"/>
					<path class="st0" d="M157.5,157.6c2.9-0.3,5.9,1.1,7.5,3.7l29.4,48.9c2.2,3.7,1,8.5-2.7,10.7c-1,0.6-2.1,0.9-3.2,1.1
						c-2.9,0.3-5.9-1.1-7.5-3.7l-29.4-48.9c-2.2-3.7-1-8.5,2.7-10.7C155.4,158,156.5,157.7,157.5,157.6 M157.3,155.5L157.3,155.5
						c-1.4,0.2-2.8,0.6-4,1.4c-2.3,1.4-3.9,3.5-4.5,6.1c-0.6,2.6-0.2,5.2,1.1,7.5l29.4,48.9c2,3.3,5.7,5.1,9.5,4.7
						c1.4-0.2,2.8-0.6,4-1.4c4.7-2.8,6.2-8.9,3.4-13.6l-29.4-48.9C164.9,156.9,161.2,155.1,157.3,155.5L157.3,155.5z"/>
				</g>
				<g>
					
						<rect x="142.1" y="153.1" transform="matrix(0.8573 -0.5149 0.5149 0.8573 -60.8761 103.4242)" class="st1" width="27.9" height="16.8"/>
					<path class="st0" d="M163.7,147.1l8.6,14.4l-23.9,14.4l-8.6-14.4L163.7,147.1 M164.5,144.3l-1.8,1.1l-23.9,14.4l-1.8,1.1
						l1.1,1.8l8.6,14.4l1.1,1.8l1.8-1.1l23.9-14.4l1.8-1.1l-1.1-1.8l-8.6-14.4L164.5,144.3L164.5,144.3z"/>
				</g>
				<g>
					<path class="st1" d="M179.7,66.7c-19.3-32.2-61-42.6-93.2-23.3c-32.2,19.3-42.6,61-23.3,93.2c19.3,32.2,61,42.6,93.2,23.3
						C188.6,140.6,199,98.9,179.7,66.7z M149.5,148.4c-25.8,15.5-59.2,7.1-74.7-18.6C59.4,104,67.7,70.5,93.5,55.1
						c25.8-15.5,59.2-7.1,74.7,18.6C183.6,99.5,175.3,132.9,149.5,148.4z"/>
					<path class="st0" d="M114.3,34.2c25.5-2.7,51.4,9.2,65.4,32.6c19.3,32.2,8.9,73.9-23.3,93.2c-8.8,5.3-18.2,8.3-27.8,9.3
						c-25.5,2.7-51.4-9.2-65.4-32.6C44,104.5,54.4,62.8,86.5,43.5C95.3,38.2,104.8,35.2,114.3,34.2 M127.3,155.8
						c7.6-0.8,15.2-3.3,22.2-7.5c25.8-15.5,34.1-48.9,18.6-74.7c-11.3-18.7-32-28.3-52.4-26.1c-7.6,0.8-15.2,3.3-22.2,7.5
						C67.7,70.5,59.4,104,74.9,129.7C86.1,148.5,106.9,158,127.3,155.8 M114.1,32.1c-10.2,1.1-19.8,4.3-28.6,9.6
						c-33.1,19.9-43.8,63-24,96.1c14,23.3,40.5,36.4,67.5,33.6c10.2-1.1,19.8-4.3,28.6-9.6c33.1-19.9,43.8-63,24-96.1
						C167.5,42.4,141.1,29.2,114.1,32.1L114.1,32.1z M127.1,153.8c-20.2,2.1-40-7.7-50.4-25.1c-7.2-12-9.3-26-5.9-39.6
						c3.4-13.6,11.8-25,23.8-32.2c6.6-4,13.8-6.4,21.4-7.2c20.2-2.1,40,7.7,50.4,25.1c14.9,24.7,6.8,56.9-17.9,71.8
						C141.8,150.5,134.7,153,127.1,153.8L127.1,153.8z"/>
				</g>
			</g>
			<path class="st0" d="M151.2,72.2c-0.4-0.1-0.8-0.3-1.2-0.6c-6.1-6-14.2-9.9-22.6-11c-1.3-0.2-2.3-1.4-2.1-2.7
				c0.2-1.3,1.4-2.3,2.7-2.1c9.5,1.3,18.5,5.7,25.4,12.4c1,0.9,1,2.5,0,3.4C152.9,72.1,152,72.3,151.2,72.2z"/>
			<path class="st0" d="M159.3,77.4c-0.1,1.1-1.1,1.9-2.2,1.7c-1.1-0.1-1.9-1.1-1.7-2.2c0.1-1.1,1.1-1.9,2.2-1.7
				C158.6,75.3,159.4,76.3,159.3,77.4z"/>
		</g>
	</g>
</g>
<g id="Layer_3" class="st3">
	<g class="st4">
		<path class="st0" d="M24,68.9c0.5-0.7,1.2-1.3,2.1-1.9c4.1-2.6,7.4-0.9,8.7,0.4c0.3,0.4,0.4,0.9,0.1,1.3c0,0-0.1,0.1-0.1,0.1
			c0,0-0.1,0.1-0.1,0.1c-0.4,0.3-0.9,0.2-1.3-0.1c-0.1-0.1-2.5-2.4-6.1-0.1c-0.7,0.5-1.2,0.9-1.6,1.4c-1.6,2-0.8,4.1-0.8,4.2
			c0.1,0.3,0.1,0.7-0.1,1c-0.1,0.1-0.2,0.2-0.4,0.3c-0.5,0.2-1.1,0-1.3-0.5C22.5,73.8,22.2,71.3,24,68.9"/>
		<g>
			<path class="st0" d="M14.4,78.6c-1.2,0-2.4-0.7-2.9-1.9c-1.2-3-2.1-9.7,2.7-15.8c1.4-1.8,3.2-3.4,5.3-4.7
				c10.3-6.6,18.9-2.2,22,1.1c1.1,1.1,1.1,2.9,0.2,4.1c-0.1,0.1-0.2,0.2-0.3,0.3c-0.1,0.1-0.3,0.3-0.5,0.4c-1.3,0.8-2.9,0.6-4-0.5
				c-0.2-0.2-5.6-5.6-14-0.2c-1.5,1-2.8,2.1-3.8,3.4c-3.7,4.6-1.9,9.3-1.8,9.5c0.4,1,0.2,2.2-0.5,3.1c-0.3,0.4-0.8,0.8-1.3,1
				C15.1,78.5,14.7,78.6,14.4,78.6z M30.2,54.1c-3,0-6.4,0.9-10,3.2c-2,1.3-3.7,2.8-5,4.4v0c-4.4,5.5-3.6,11.7-2.5,14.4
				c0.4,0.9,1.4,1.3,2.3,1c0.3-0.1,0.5-0.3,0.7-0.5c0.4-0.5,0.5-1.2,0.3-1.8c-0.1-0.2-2.1-5.6,2-10.8c1.1-1.3,2.4-2.6,4.1-3.7
				c9.3-6,15.5,0.1,15.7,0.3c0.6,0.6,1.5,0.7,2.3,0.3c0.1-0.1,0.2-0.1,0.3-0.2c0.1-0.1,0.1-0.1,0.2-0.2c0.5-0.7,0.5-1.7-0.1-2.3
				C38.7,56.4,35,54.1,30.2,54.1z"/>
		</g>
		<path class="st0" d="M199.7,70.7c1.9,2.4,1.7,5.2,1.1,6.5c-0.2,0.5-0.8,0.8-1.4,0.6c-0.2-0.1-0.3-0.2-0.4-0.3
			c-0.2-0.3-0.3-0.7-0.2-1.1c0-0.1,0.9-2.3-0.8-4.4c-0.4-0.5-1-1-1.7-1.5c-3.8-2.5-6.3,0-6.4,0.1c-0.4,0.4-0.9,0.4-1.3,0.2
			c-0.1,0-0.1-0.1-0.2-0.1c0,0-0.1-0.1-0.1-0.1c-0.3-0.4-0.3-1,0.1-1.4c1.3-1.4,4.8-3.2,9.1-0.4C198.4,69.3,199.1,70,199.7,70.7"/>
		<path class="st0" d="M206,65.4c3.4,4.2,2.9,9,1.9,11.3c-0.4,0.9-1.5,1.4-2.4,1c-0.3-0.1-0.6-0.3-0.8-0.6c-0.4-0.5-0.5-1.2-0.3-1.8
			c0.1-0.2,1.5-3.9-1.4-7.6c-0.7-0.9-1.7-1.8-3-2.6c-6.6-4.3-11,0-11.2,0.2c-0.6,0.6-1.6,0.7-2.3,0.3c-0.1-0.1-0.2-0.1-0.3-0.2
			c-0.1-0.1-0.1-0.1-0.2-0.2c-0.6-0.7-0.5-1.7,0.1-2.4c2.2-2.4,8.4-5.5,15.8-0.7C203.8,63,205,64.2,206,65.4"/>
		<g>
			<g>
				<g>
					<path class="st1" d="M111.9,171.3c-8.1-2.2-13.3-9.8-12.7-17.9c5.1,0.3,10.5,2.9,16.3,4.4c5.8,1.5,11.8,2,16.3,4.3
						C128.3,169.4,120,173.4,111.9,171.3"/>
					<path class="st0" d="M111.7,171.9c-8.3-2.2-13.9-10-13.2-18.6l0-0.6l0.6,0c3.4,0.2,6.9,1.4,10.6,2.6c1.9,0.6,3.9,1.3,5.9,1.8
						c2,0.5,4,0.9,6,1.3c3.8,0.8,7.4,1.5,10.5,3l0.6,0.3l-0.3,0.6C128.7,170.1,120,174.1,111.7,171.9z M99.8,154
						c-0.3,7.7,4.8,14.6,12.3,16.6c7.5,2,15.4-1.5,18.9-8.3c-2.8-1.3-6.1-1.9-9.6-2.6c-2-0.4-4-0.8-6.1-1.3c-2-0.5-4-1.2-5.9-1.8
						C106,155.4,102.8,154.3,99.8,154z"/>
				</g>
				<g>
					<g>
						<path class="st1" d="M72,153.5c-6.2-3.4-8.9-10.8-6.7-17.3c4.1,1.3,8,4.5,12.4,7c4.4,2.5,9.2,4,12.5,6.9
							C85.9,155.3,78.2,156.9,72,153.5"/>
						<path class="st0" d="M75.2,155.5c-1.2-0.3-2.3-0.8-3.5-1.4c-6.4-3.5-9.3-11.1-7-18.1l0.2-0.6l0.6,0.2c2.8,0.9,5.4,2.5,8.2,4.3
							c1.4,0.9,2.9,1.9,4.4,2.7c1.5,0.8,3.1,1.6,4.6,2.3c3,1.4,5.8,2.7,8,4.6l0.5,0.4l-0.4,0.5C86.9,155.1,80.8,156.9,75.2,155.5z
							 M65.8,137c-1.8,6.2,0.9,12.8,6.6,15.9l0,0c5.7,3.1,12.7,1.9,17-2.8c-2-1.6-4.5-2.8-7.2-4c-1.5-0.7-3.1-1.5-4.7-2.3
							c-1.6-0.9-3-1.8-4.5-2.7C70.5,139.4,68.2,137.9,65.8,137z"/>
					</g>
					<g>
						<path class="st1" d="M155.3,175.6c-7.1-0.1-12.9-5.3-14.1-12.1c4.2-0.8,9.2,0.2,14.2,0.2c5.1,0.1,10-0.8,14.2,0.1
							C168.3,170.7,162.4,175.7,155.3,175.6"/>
						<path class="st0" d="M151.6,175.8c-5.6-1.5-10-6.1-11-12.1l-0.1-0.6l0.6-0.1c2.9-0.6,6-0.3,9.2-0.1c1.7,0.1,3.4,0.3,5.2,0.3
							c1.7,0,3.5-0.1,5.2-0.1c3.3-0.2,6.4-0.3,9.2,0.3l0.6,0.1l-0.1,0.6c-1.4,7.2-7.7,12.3-15,12.2l0,0
							C154,176.3,152.8,176.1,151.6,175.8z M141.9,164.1c1.4,6.3,6.9,10.8,13.3,10.9l0,0c6.5,0.1,12.1-4.3,13.6-10.5
							c-2.5-0.4-5.3-0.3-8.2-0.2c-1.7,0.1-3.5,0.2-5.2,0.2c-1.8,0-3.5-0.2-5.2-0.3C147.3,163.9,144.5,163.7,141.9,164.1z"/>
					</g>
				</g>
				<g>
					<g>
						<g>
							<path class="st1" d="M123.5,127.4c15.9,4.2,30.3,10,40.6,16.2c9.6,5.8,13.3,10.9,12.7,13.1c-0.6,2.2-6.3,4.7-17.5,5
								c-12,0.3-27.4-1.9-43.3-6.1c-15.9-4.2-30.3-10-40.6-16.2c-9.6-5.8-13.3-10.9-12.7-13.1c0.6-2.2,6.3-4.7,17.5-5
								C92.3,121,107.6,123.2,123.5,127.4 M124.5,123.7c-33.6-8.9-63-8.2-65.6,1.6c-2.6,9.8,22.5,25.1,56.1,34
								c33.6,8.9,63,8.2,65.6-1.6C183.3,147.9,158.1,132.6,124.5,123.7L124.5,123.7z"/>
							<path class="st0" d="M114.9,160c-34.5-9.2-59.3-24.5-56.6-34.8c2.8-10.3,31.9-11.3,66.4-2.1s59.3,24.5,56.6,34.8
								C178.5,168.2,149.3,169.1,114.9,160z M124.4,124.3c-32.6-8.7-62.3-8.1-64.8,1.2c-2.5,9.3,23,24.6,55.6,33.2
								c32.6,8.7,62.3,8.1,64.8-1.2C182.5,148.2,157,133,124.4,124.3z M115.9,156.3c-16-4.2-30.5-10-40.8-16.3
								c-8.6-5.2-13.8-10.8-13-13.8c0.8-3,8.1-5.2,18.2-5.5c12.1-0.3,27.5,1.9,43.5,6.1c16,4.2,30.5,10,40.8,16.3
								c8.6,5.2,13.8,10.8,13,13.8c-0.8,3-8.1,5.2-18.2,5.5C147.3,162.7,131.8,160.5,115.9,156.3z M123.4,128
								c-15.8-4.2-31.2-6.4-43.1-6.1c-11.5,0.3-16.5,2.9-16.9,4.5c-0.4,1.6,2.6,6.4,12.4,12.4c10.2,6.2,24.6,12,40.5,16.2
								c15.8,4.2,31.2,6.4,43.1,6.1c11.5-0.3,16.5-2.9,16.9-4.5c0.4-1.6-2.6-6.4-12.5-12.4C153.6,138,139.2,132.3,123.4,128z"/>
						</g>
					</g>
				</g>
			</g>
			<g>
				<g>
					<path class="st1" d="M176.7,113.9c0.6,5.9,0.1,12-1.5,18.1c0,0.2-0.1,0.4-0.2,0.5c-14.4,0.2-32.2-2.2-50.9-7.2
						c-18.7-5-35.3-11.8-47.8-19.1c0-0.2,0.1-0.4,0.1-0.5c1.6-6.1,4.3-11.6,7.7-16.4c-24-1.5-41.2,2.3-43.5,11.2
						c-3.7,14.1,30.9,35.5,77.3,47.8c46.5,12.4,87.2,11,90.9-3.1C211.2,136.3,198.3,124.5,176.7,113.9z"/>
					<path class="st0" d="M176.7,113.9c21.6,10.6,34.6,22.4,32.2,31.3c-3.7,14.1-44.4,15.4-90.9,3.1c-46.5-12.4-81.1-33.8-77.3-47.8
						c2.4-8.9,19.5-12.7,43.5-11.2c-3.4,4.8-6.1,10.3-7.7,16.4c0,0.2-0.1,0.4-0.1,0.5c12.4,7.3,29,14.1,47.8,19.1
						c18.7,5,36.5,7.3,50.9,7.2c0.1-0.2,0.1-0.4,0.2-0.5C176.8,125.9,177.3,119.8,176.7,113.9 M175.2,111.7l0.2,2.3
						c0.6,5.8,0.1,11.5-1.3,17.2c-14.6,0-32.2-2.5-49.6-7.1c-17.5-4.6-34-11.2-46.6-18.5c1.5-5.6,4-10.9,7.4-15.6l1.3-1.9L84.2,88
						c-26-1.6-42.4,2.8-44.8,12.1c-4,15,30.4,36.7,78.3,49.4s88.5,11,92.5-4c2.5-9.4-9.5-21.3-32.9-32.8L175.2,111.7L175.2,111.7z"
						/>
				</g>
			</g>
			<g>
				<path class="st1" d="M139.1,69.1c-27.3-7.3-55.2,9-62.5,36.2c0,0.2-0.1,0.4-0.1,0.5c12.4,7.3,29,14.1,47.8,19.1
					c18.7,5,36.5,7.3,50.9,7.2c0.1-0.2,0.1-0.4,0.2-0.5C182.5,104.3,166.3,76.3,139.1,69.1z M126.2,117.5c-14.9-4-29-9.3-40.5-15.3
					c8.1-20,30-31.3,51.4-25.6c21.4,5.7,34.8,26.5,31.8,47.8C156,123.8,141.1,121.4,126.2,117.5z"/>
				<path class="st0" d="M124,125.6c-18-4.8-35-11.6-47.9-19.2l-0.4-0.2l0.3-1c7.3-27.6,35.7-44,63.3-36.7
					c27.6,7.3,44,35.7,36.7,63.3l-0.3,1l-0.5,0C160.2,132.9,142,130.3,124,125.6z M77.2,105.5c12.7,7.4,29.5,14.1,47.2,18.8
					c17.7,4.7,35.5,7.2,50.3,7.1l0-0.1c7.2-26.9-8.9-54.6-35.8-61.7C112,62.5,84.4,78.6,77.2,105.5L77.2,105.5z M175.1,132.1
					L175.1,132.1L175.1,132.1z M126,118.1c-14.9-4-29-9.3-40.6-15.4l-0.5-0.3l0.2-0.5c8.3-20.5,30.7-31.7,52.1-26
					c21.4,5.7,35.3,26.6,32.3,48.5l-0.1,0.6l-0.6,0C155.8,124.4,141,122.1,126,118.1z M86.6,101.9c11.4,5.9,25.2,11.1,39.8,15
					c14.6,3.9,29.1,6.2,42,6.8c2.6-21.1-10.8-41-31.4-46.5C116.3,71.6,94.8,82.3,86.6,101.9z"/>
			</g>
		</g>
		<path class="st0" d="M196.1,199.8c0.2,0.1,0.3,0.1,0.4,0.2c0.5,0.5,0.6,1.3,0.1,1.8l-3.9,4.5l4.5,3.9c0.5,0.5,0.6,1.3,0.1,1.8
			c-0.3,0.4-0.9,0.5-1.4,0.4c-0.2-0.1-0.3-0.1-0.4-0.2l-4.5-3.9l-3.9,4.5c-0.3,0.4-0.9,0.5-1.4,0.4c-0.2-0.1-0.3-0.1-0.4-0.2
			c-0.5-0.5-0.6-1.3-0.1-1.8l3.9-4.5l-4.5-3.9c-0.5-0.5-0.6-1.3-0.1-1.8c0.3-0.4,0.9-0.5,1.4-0.4c0.2,0.1,0.3,0.1,0.4,0.2l4.5,3.9
			l3.9-4.5C195.1,199.8,195.6,199.6,196.1,199.8 M196.5,198.5c-1-0.3-2.1,0-2.8,0.8l-3,3.5l-3.5-3c-0.3-0.2-0.6-0.4-0.9-0.5
			c-1-0.3-2.1,0-2.8,0.8c-1,1.1-0.8,2.8,0.3,3.7l3.5,3l-3,3.5c-0.5,0.5-0.7,1.2-0.6,1.9c0.1,0.7,0.4,1.4,0.9,1.8
			c0.3,0.2,0.6,0.4,0.9,0.5c1,0.3,2.1,0,2.8-0.8l3-3.5l3.5,3c0.3,0.2,0.6,0.4,0.9,0.5c1,0.3,2.1,0,2.8-0.8c0.5-0.5,0.7-1.2,0.6-1.9
			c-0.1-0.7-0.4-1.4-0.9-1.8l-3.5-3l3-3.5c0.5-0.5,0.7-1.2,0.6-1.9c-0.1-0.7-0.4-1.4-0.9-1.8C197.2,198.8,196.9,198.6,196.5,198.5
			L196.5,198.5z"/>
		<path class="st0" d="M64.1,33.9c0.1-0.1,0.2-0.2,0.4-0.3c5.7-3.8,11.9-7,18.2-9.6c0.9-0.4,1.8,0,2.2,0.9c0.4,0.9-0.1,1.9-0.9,2.2
			c-6.2,2.6-12.1,5.7-17.7,9.4c-0.8,0.5-1.8,0.3-2.3-0.5C63.6,35.3,63.6,34.5,64.1,33.9z M14.6,118.5c0.3-0.4,0.8-0.6,1.4-0.6
			c0.9,0.1,1.6,0.9,1.6,1.8c-0.4,6.6-0.3,13.4,0.5,20c0.1,0.9-0.6,1.8-1.5,1.9c-0.9,0.1-1.8-0.6-1.9-1.5c-0.8-6.8-1-13.8-0.5-20.6
			C14.2,119.2,14.4,118.8,14.6,118.5z M141.9,17.3c0.4-0.4,0.9-0.7,1.5-0.6c6.8,1.1,13.5,2.8,20,5.1c0.9,0.3,1.3,1.3,1,2.2
			c-0.3,0.9-1.3,1.3-2.2,1c-6.3-2.2-12.8-3.9-19.4-5c-0.9-0.1-1.5-1-1.4-1.9C141.5,17.8,141.7,17.6,141.9,17.3z M38.2,194.4
			c0.1-0.1,0.1-0.1,0.2-0.2c0.7-0.6,1.8-0.5,2.4,0.3c4.1,5.2,8.8,10,13.8,14.4l0.2,0.2c0.7,0.6,0.8,1.7,0.2,2.4
			c-0.6,0.7-1.7,0.8-2.4,0.2l-0.2-0.2c-5.2-4.5-10-9.5-14.3-14.9C37.7,195.9,37.7,195,38.2,194.4z M229.4,93.1
			c0.2-0.2,0.5-0.4,0.8-0.5c0.9-0.3,1.8,0.2,2.1,1.1c2,6.5,3.5,13.3,4.3,20.2c0.1,0.9-0.6,1.8-1.5,1.9c-0.9,0.1-1.8-0.6-1.9-1.5
			c-0.8-6.6-2.2-13.2-4.2-19.6C228.9,94.1,229.1,93.5,229.4,93.1z M107.1,234.7c0.4-0.4,0.9-0.7,1.5-0.6c6.6,1,13.3,1.5,19.9,1.3
			c0.9,0,1.7,0.7,1.7,1.6c0,0.9-0.7,1.7-1.6,1.7c-6.9,0.2-13.8-0.3-20.6-1.3c-0.9-0.1-1.5-1-1.4-1.9
			C106.8,235.2,106.9,234.9,107.1,234.7z M147.5,233.6c0.2-0.3,0.5-0.5,0.9-0.5c6.5-1.4,12.9-3.4,19.1-6c0.9-0.4,1.8,0,2.2,0.9
			c0.4,0.9,0,1.8-0.9,2.2c-6.3,2.6-13,4.7-19.7,6.2c-0.9,0.2-1.8-0.4-2-1.3C147,234.5,147.2,234,147.5,233.6z M224.2,172.4
			c0.5-0.6,1.3-0.7,2-0.4c0.8,0.4,1.2,1.4,0.8,2.2c-2.9,6.2-6.4,12.2-10.4,17.8c-0.5,0.7-1.6,0.9-2.4,0.4c-0.8-0.5-0.9-1.6-0.4-2.4
			c3.9-5.4,7.3-11.2,10.1-17.3C224,172.7,224.1,172.5,224.2,172.4z"/>
		<path class="st0" d="M25.2,161.8l-4-2.4l2.4-4c0.3-0.5,0.1-1.1-0.3-1.4c-0.5-0.3-1.1-0.1-1.4,0.3l-2.4,4l-4-2.4
			c-0.5-0.3-1.1-0.1-1.4,0.3c-0.3,0.5-0.1,1.1,0.3,1.4l4,2.4l-2.4,4c-0.3,0.5-0.1,1.1,0.3,1.4c0.5,0.3,1.1,0.1,1.4-0.3l2.4-4l4,2.4
			c0.5,0.3,1.1,0.1,1.4-0.3C25.9,162.7,25.7,162,25.2,161.8z"/>
		<g>
			<path class="st0" d="M85.7,238.6c-0.4,0.3-0.8,0.5-1.4,0.6l0,0c-0.7,0.1-1.4,0-2.1-0.4c-0.7-0.4-1.1-1-1.2-1.9
				c-0.1-0.8,0-1.5,0.5-2.1c0.4-0.6,1-1,1.8-1.2c0.8-0.1,1.5,0,2.1,0.4c0.6,0.4,1,1,1.2,1.8c0.2,0.8,0,1.6-0.5,2.2
				C86,238.3,85.8,238.4,85.7,238.6z M84.1,238c0.4-0.1,0.8-0.3,1-0.6c0.3-0.3,0.3-0.7,0.2-1.2c-0.1-0.4-0.3-0.8-0.7-1
				c-0.4-0.3-0.8-0.3-1.2-0.3c-0.4,0.1-0.8,0.3-1,0.7c-0.3,0.4-0.3,0.7-0.3,1.2c0.1,0.5,0.3,0.9,0.7,1.1
				C83.3,238,83.7,238.1,84.1,238L84.1,238z M83.9,232c-0.2,0.2-0.5,0.3-0.9,0.4c-0.8,0.1-1.4-0.1-1.8-0.7c-0.3-0.5-0.6-1.1-0.9-2.1
				l0,0l-1.7-6.8c-0.3-1.3-0.5-2.3-0.7-2.9c-0.2-1,0-1.8,0.4-2.4c0.4-0.7,1.1-1.1,1.9-1.2c1.3-0.2,2,0.3,2.4,0.8
				c0.4,0.6,0.8,1.5,1,2.7c0.1,0.7,0.2,1.3,0.3,2l0.6,7.2c0.1,0.9,0.1,1.7-0.1,2.2C84.4,231.4,84.2,231.7,83.9,232z M81.5,229.2
				c0.2,0.8,0.5,1.4,0.7,1.7c0.1,0.2,0.3,0.3,0.6,0.2c0.3,0,0.4-0.2,0.5-0.4c0.1-0.4,0.1-1,0.1-1.8l-0.7-7.2c0-0.6-0.1-1.3-0.2-1.9
				c-0.2-1-0.4-1.7-0.8-2.2c-0.1-0.2-0.4-0.5-1.2-0.3c-0.5,0.1-0.9,0.3-1.1,0.7c-0.3,0.4-0.3,0.9-0.2,1.5c0.1,0.6,0.3,1.5,0.6,2.8
				L81.5,229.2z"/>
		</g>
		<g>
			<path class="st2" d="M242.8,143.7c0,1.7-1.4,3.1-3.1,3.1c-1.7,0-3.1-1.4-3.1-3.1c0-1.7,1.4-3.1,3.1-3.1
				C241.4,140.6,242.8,142,242.8,143.7z"/>
			<path class="st0" d="M239.7,140.6c1.7,0,3.1,1.4,3.1,3.1c0,1.7-1.4,3.1-3.1,3.1c-1.7,0-3.1-1.4-3.1-3.1
				C236.6,142,238,140.6,239.7,140.6 M239.7,137.8c-3.2,0-5.8,2.6-5.8,5.8c0,3.2,2.6,5.8,5.8,5.8c3.2,0,5.8-2.6,5.8-5.8
				C245.5,140.5,242.9,137.8,239.7,137.8L239.7,137.8z"/>
		</g>
		<path class="st0" d="M194.6,74.6c0,1.1-0.9,2-2,2c-1.1,0-2-0.9-2-2c0-1.1,0.9-2,2-2C193.7,72.6,194.6,73.5,194.6,74.6z"/>
	</g>
</g>
</svg>
