<svg id="pills" xmlns="http://www.w3.org/2000/svg" width="56.634" height="57.627" viewBox="0 0 56.634 57.627">
  <circle id="Ellipse_198" data-name="Ellipse 198" cx="0.921" cy="0.921" r="0.921" transform="translate(42.751 2.912)" fill="#cb465f"/>
  <ellipse id="Ellipse_199" data-name="Ellipse 199" cx="0.921" cy="1.106" rx="0.921" ry="1.106" transform="translate(29.852 21.708)" fill="#88c057"/>
  <path id="Path_1609" data-name="Path 1609" d="M22.2,21.7h0a6.976,6.976,0,0,0,0-9.835L12.364,2.029a6.976,6.976,0,0,0-9.835,0h0a6.976,6.976,0,0,0,0,9.835L12.365,21.7A6.976,6.976,0,0,0,22.2,21.7Z" transform="translate(-0.5 0)" fill="#e7eced"/>
  <path id="Path_1610" data-name="Path 1610" d="M9.613,32.974H6.632V29.994a.994.994,0,0,0-1.987,0v2.981H1.665a.994.994,0,0,0,0,1.987H4.645v2.981a.994.994,0,1,0,1.987,0V34.961H9.613a.994.994,0,1,0,0-1.987Z" transform="translate(-0.502 -0.187)" fill="#7383bf"/>
  <path id="Path_1611" data-name="Path 1611" d="M55.052,52.8,57.16,50.7a.993.993,0,0,0-1.4-1.4L53.647,51.4,51.54,49.291a.993.993,0,1,0-1.4,1.4L52.243,52.8l-2.107,2.107a.993.993,0,1,0,1.4,1.4l2.107-2.107,2.107,2.107a.993.993,0,0,0,1.4-1.4Z" transform="translate(-0.817 -0.315)" fill="#efce4a"/>
  <path id="Path_1612" data-name="Path 1612" d="M17.176,6.841,12.364,2.029a6.976,6.976,0,0,0-9.835,0h0a6.976,6.976,0,0,0,0,9.835l4.812,4.812Z" transform="translate(-0.5 0)" fill="#dd352e"/>
  <path id="Path_1613" data-name="Path 1613" d="M48.455,38.82h0a6.976,6.976,0,0,0,6.955-6.955V17.955A6.976,6.976,0,0,0,48.455,11h0A6.976,6.976,0,0,0,41.5,17.955v13.91A6.976,6.976,0,0,0,48.455,38.82Z" transform="translate(-0.764 -0.071)" fill="#e7eced"/>
  <path id="Path_1614" data-name="Path 1614" d="M55.41,24.76V17.955A6.976,6.976,0,0,0,48.455,11h0A6.976,6.976,0,0,0,41.5,17.955V24.76Z" transform="translate(-0.764 -0.071)" fill="#dd352e"/>
  <path id="Path_1615" data-name="Path 1615" d="M26.164,51.063l5.08-5.08a6.955,6.955,0,1,0-9.835-9.835l-5.08,5.08Z" transform="translate(-0.602 -0.22)" fill="#e7eced"/>
  <path id="Path_1616" data-name="Path 1616" d="M16.368,41.188l-4.84,4.84a6.976,6.976,0,0,0,0,9.835h0a6.976,6.976,0,0,0,9.835,0l4.84-4.84Z" transform="translate(-0.558 -0.265)" fill="#dd352e"/>
  <path id="Path_1617" data-name="Path 1617" d="M20.907,17.4a.991.991,0,0,1-.7-.291L6.791,3.7a.993.993,0,0,1,1.4-1.4L21.609,15.7a.994.994,0,0,1-.7,1.7Z" transform="translate(-0.539 -0.013)" fill="#fff"/>
  <path id="Path_1618" data-name="Path 1618" d="M52.494,31.9A.994.994,0,0,1,51.5,30.9V16.7a.994.994,0,1,1,1.987,0V30.9A.994.994,0,0,1,52.494,31.9Z" transform="translate(-0.828 -0.101)" fill="#fff"/>
  <path id="Path_1619" data-name="Path 1619" d="M18.494,53.031a.994.994,0,0,1-.7-1.7L27.835,41.291a.993.993,0,0,1,1.4,1.4L19.2,52.74A.991.991,0,0,1,18.494,53.031Z" transform="translate(-0.61 -0.264)" fill="#fff"/>
</svg>
