<svg xmlns="http://www.w3.org/2000/svg" width="18" height="18" viewBox="0 0 18 18">
  <g id="Group_4086" data-name="Group 4086" transform="translate(16525 17978)">
    <rect id="Rectangle_2793" data-name="Rectangle 2793" width="18" height="18" transform="translate(-16525 -17978)" fill="none"/>
    <path id="Subtraction_1" data-name="Subtraction 1" d="M6.983,14h0a1.53,1.53,0,0,1-.771-.413,2.551,2.551,0,0,0-.859-.5,1.643,1.643,0,0,0-.412-.052H4.92a4.665,4.665,0,0,0-.591.05,1.518,1.518,0,0,1-.845-.027,1.529,1.529,0,0,1-.449-.731,2.582,2.582,0,0,0-.5-.879,2.581,2.581,0,0,0-.875-.508,1.528,1.528,0,0,1-.729-.452A1.522,1.522,0,0,1,.908,9.64a2.657,2.657,0,0,0,0-1.024,2.562,2.562,0,0,0-.5-.861A1.539,1.539,0,0,1,0,6.982a1.542,1.542,0,0,1,.416-.771,2.542,2.542,0,0,0,.5-.858,2.636,2.636,0,0,0,0-1.023,1.527,1.527,0,0,1,.026-.846,1.538,1.538,0,0,1,.731-.448,2.619,2.619,0,0,0,.88-.5,2.6,2.6,0,0,0,.506-.877,1.529,1.529,0,0,1,.452-.73A1.517,1.517,0,0,1,4.361.907a2.7,2.7,0,0,0,.521.051,2.68,2.68,0,0,0,.5-.048,2.543,2.543,0,0,0,.861-.5A1.542,1.542,0,0,1,7.019,0,1.536,1.536,0,0,1,7.79.414a2.533,2.533,0,0,0,.858.5,2.677,2.677,0,0,0,.517.051A2.667,2.667,0,0,0,9.672.919a1.525,1.525,0,0,1,.845.026,1.527,1.527,0,0,1,.449.735,2.592,2.592,0,0,0,.5.879,2.6,2.6,0,0,0,.875.507,1.525,1.525,0,0,1,.729.452,1.521,1.521,0,0,1,.022.845,2.644,2.644,0,0,0,0,1.024,2.571,2.571,0,0,0,.5.861A1.533,1.533,0,0,1,14,7.021a1.536,1.536,0,0,1-.415.77,2.551,2.551,0,0,0-.5.859,2.64,2.64,0,0,0,0,1.024,1.527,1.527,0,0,1-.026.845,1.534,1.534,0,0,1-.732.449,2.6,2.6,0,0,0-.879.5,2.585,2.585,0,0,0-.506.875,1.538,1.538,0,0,1-.452.73,1.531,1.531,0,0,1-.845.021,2.657,2.657,0,0,0-.519-.051,2.686,2.686,0,0,0-.5.048,2.56,2.56,0,0,0-.861.5A1.535,1.535,0,0,1,6.983,14ZM4.243,6.784a.582.582,0,0,0-.412.993L5.69,9.637a.583.583,0,0,0,.823,0l3.9-3.9a.582.582,0,0,0-.823-.823L6.1,8.4,4.655,6.955A.577.577,0,0,0,4.243,6.784Z" transform="translate(-16523 -17976)" fill="#08ce73"/>
  </g>
</svg>
