<svg xmlns="http://www.w3.org/2000/svg" width="239.386" height="35.5" viewBox="0 0 239.386 35.5">
  <g id="Group_5919" data-name="Group 5919" transform="translate(-2723.976 -1718.485)">
    <path id="Path_7606" data-name="Path 7606" d="M2723.976,1718.872h18.375v4.631h-12.879v9.551h12.108v4.63h-12.108v15.628h-5.5Z" fill="#1d70b7"/>
    <rect id="Rectangle_3246" data-name="Rectangle 3246" width="5.21" height="34.438" transform="translate(2744.28 1718.872)" fill="#1d70b7"/>
    <path id="Path_7607" data-name="Path 7607" d="M2757.3,1741.011v1.5c0,3.472.433,7.908,4.342,7.908,3.713,0,4.148-4.2,4.148-5.787h4.917c0,5.834-3.472,9.357-9.113,9.357-4.247,0-9.5-1.256-9.5-13.263,0-6.8,1.5-14.035,9.6-14.035,7.236,0,9.166,4.386,9.166,11.576v2.748Zm8.345-3.571v-1.394c0-3.283-1.062-5.791-4-5.791-3.281,0-4.342,3.281-4.342,6.658v.527Z" fill="#1d70b7"/>
    <path id="Path_7608" data-name="Path 7608" d="M2777.658,1739.854l-6.705-12.492h5.691l4.052,8.584,4.243-8.584h5.6l-6.753,12.492,7.042,13.457h-5.643l-4.535-9.6-4.535,9.6h-5.543Z" fill="#1d70b7"/>
    <path id="Path_7609" data-name="Path 7609" d="M2791.789,1718.485H2797v5.209h-5.21Zm0,8.877H2797v25.95h-5.21Z" fill="#1d70b7"/>
    <path id="Path_7610" data-name="Path 7610" d="M2802.8,1718.679h14.036c6.849,0,9.45,3.859,9.45,9.164,0,4.631-1.783,7.572-5.884,8.2v.1c4.294.384,5.644,3.132,5.644,7.714v2.942c0,1.785,0,4.051.436,4.775a2.6,2.6,0,0,0,1.013,1.063v.482h-9.552c-.865-1.785-.865-5.16-.865-6.56v-2.317c0-3.9-.773-4.916-2.944-4.916h-2.363v13.793H2802.8Zm8.971,14.568h1.784c2.556,0,3.762-1.639,3.762-4.1,0-2.844-1.107-4-3.81-4h-1.736Z" fill="#575756"/>
    <path id="Path_7611" data-name="Path 7611" d="M2836.08,1741.542v3.422c0,2.846,1.155,3.523,2.36,3.523,1.547,0,2.461-.966,2.461-4.533h7.814c-.144,6.365-3.038,9.838-10.225,9.838-8.343,0-11.093-3.811-11.093-13.695,0-9.987,3.23-13.746,11.093-13.746,6.947,0,10.466,3.084,10.466,12.539v2.652Zm4.773-5.885c0-2.748-.531-4-2.413-4-1.78,0-2.36,1.256-2.36,4v1.158h4.773Z" fill="#575756"/>
    <path id="Path_7612" data-name="Path 7612" d="M2847.7,1727.022h8.391l2.17,18.764h.1l2.556-18.764h9.261l2.558,18.764h.1l2.17-18.764h8.392l-5.3,26.1h-9.84l-2.652-18.473h-.1l-2.652,18.473h-9.839Z" fill="#575756"/>
    <path id="Path_7613" data-name="Path 7613" d="M2895.885,1753.118a13.444,13.444,0,0,1-.529-2.943h-.1a6.1,6.1,0,0,1-5.883,3.617c-5.257,0-7.235-3.233-7.235-7.668,0-4.824,1.687-7.09,7.235-8.393l3.423-.818c1.881-.435,2.558-1.256,2.558-2.85s-.724-2.41-2.22-2.41c-1.688,0-2.412.725-2.459,3.473h-7.527c0-7.523,6.031-8.774,9.986-8.774,6.078,0,10.324,1.637,10.324,8.389v12.736c0,2.457.1,4.29.818,5.641Zm-.529-9.455v-3.133h-.1c-.528.721-1.639.627-2.942,1.207-1.35.623-1.784,1.639-1.784,3.373s.82,2.848,2.121,2.848c1.931,0,2.7-1.4,2.7-4.3" fill="#575756"/>
    <path id="Path_7614" data-name="Path 7614" d="M2905.148,1727.022h8.391v4.149h.1c.964-3.135,3.279-4.82,5.837-4.82h1.4v8.1a11.223,11.223,0,0,0-2.169-.2c-3.089,0-4.872,1.158-4.872,4.633v14.228h-8.68Z" fill="#575756"/>
    <path id="Path_7615" data-name="Path 7615" d="M2933.218,1718.679h8.681v34.439h-8.392v-3.572h-.1c-1.111,2.9-2.846,4.246-5.935,4.246-5.786,0-7.813-4.629-7.813-14.277,0-9.838,3.185-13.163,8.007-13.163,2.46,0,4.532.913,5.449,3.614h.1Zm-2.412,28.652c1.977,0,2.412-1.641,2.412-7.234,0-5.645-.435-7.285-2.412-7.285-2.074,0-2.462,1.64-2.462,7.285,0,5.593.388,7.234,2.462,7.234" fill="#575756"/>
    <path id="Path_7616" data-name="Path 7616" d="M2950.292,1745.013a4.442,4.442,0,0,0,.63,2.56,2.1,2.1,0,0,0,1.828.914,2.287,2.287,0,0,0,2.509-2.218c0-4.581-12.59-1.881-12.59-11.768,0-4.582,3.281-8.15,10.369-8.15,6.513,0,9.793,2.746,9.793,8.2h-7.523c0-2.268-.823-2.9-2.316-2.9a1.981,1.981,0,0,0-2.219,2.028c0,4.34,12.589,1.349,12.589,11.382,0,5.063-3.908,8.729-10.465,8.729-7.286,0-10.228-3.037-10.228-8.779Z" fill="#575756"/>
  </g>
</svg>
