<svg xmlns="http://www.w3.org/2000/svg" width="386.19" height="185.91" viewBox="0 0 386.19 185.91">
  <g id="Group_5942" data-name="Group 5942" transform="translate(-4356.604 -4675.366)">
    <g id="Group_5935" data-name="Group 5935">
      <g id="Group_5920" data-name="Group 5920">
        <path id="Path_7617" data-name="Path 7617" d="M4731.469,4770.287a1.5,1.5,0,1,1,1.5-1.5,1.5,1.5,0,0,1-1.5,1.5Zm-6,0a1.5,1.5,0,1,1,1.5-1.5,1.5,1.5,0,0,1-1.5,1.5Zm-6,0a1.5,1.5,0,1,1,1.5-1.5,1.5,1.5,0,0,1-1.5,1.5Zm-6,0a1.5,1.5,0,1,1,1.5-1.5,1.5,1.5,0,0,1-1.5,1.5Zm-6,0a1.5,1.5,0,1,1,1.5-1.5,1.5,1.5,0,0,1-1.5,1.5Zm-6,0a1.5,1.5,0,1,1,1.5-1.5,1.5,1.5,0,0,1-1.5,1.5Zm-6,0a1.5,1.5,0,1,1,1.5-1.5,1.5,1.5,0,0,1-1.5,1.5Z" fill="#913d87"/>
      </g>
      <g id="Group_5921" data-name="Group 5921">
        <path id="Path_7618" data-name="Path 7618" d="M4490.469,4782.787a1.5,1.5,0,1,1,1.5-1.5,1.5,1.5,0,0,1-1.5,1.5Zm-6,0a1.5,1.5,0,1,1,1.5-1.5,1.5,1.5,0,0,1-1.5,1.5Zm-6,0a1.5,1.5,0,1,1,1.5-1.5,1.5,1.5,0,0,1-1.5,1.5Z" fill="#913d87"/>
      </g>
      <g id="Group_5922" data-name="Group 5922">
        <path id="Path_7619" data-name="Path 7619" d="M4477.969,4738.787a1.5,1.5,0,1,1,1.5-1.5,1.5,1.5,0,0,1-1.5,1.5Zm-6,0a1.5,1.5,0,1,1,1.5-1.5,1.5,1.5,0,0,1-1.5,1.5Zm-6,0a1.5,1.5,0,1,1,1.5-1.5,1.5,1.5,0,0,1-1.5,1.5Z" fill="#ed3425"/>
      </g>
      <g id="Group_5923" data-name="Group 5923">
        <path id="Path_7620" data-name="Path 7620" d="M4408.969,4794.288a1.5,1.5,0,1,1,1.5-1.5,1.5,1.5,0,0,1-1.5,1.5Zm-6,0a1.5,1.5,0,1,1,1.5-1.5,1.5,1.5,0,0,1-1.5,1.5Zm-6,0a1.5,1.5,0,1,1,1.5-1.5,1.5,1.5,0,0,1-1.5,1.5Zm-6,0a1.5,1.5,0,1,1,1.5-1.5,1.5,1.5,0,0,1-1.5,1.5Zm-6,0a1.5,1.5,0,1,1,1.5-1.5,1.5,1.5,0,0,1-1.5,1.5Z" fill="#913d87"/>
      </g>
      <g id="Group_5924" data-name="Group 5924">
        <path id="Path_7621" data-name="Path 7621" d="M4717.469,4784.787a1.5,1.5,0,1,1,1.5-1.5,1.5,1.5,0,0,1-1.5,1.5Zm-6,0a1.5,1.5,0,1,1,1.5-1.5,1.5,1.5,0,0,1-1.5,1.5Zm-6,0a1.5,1.5,0,1,1,1.5-1.5,1.5,1.5,0,0,1-1.5,1.5Zm-6,0a1.5,1.5,0,1,1,1.5-1.5,1.5,1.5,0,0,1-1.5,1.5Zm-6,0a1.5,1.5,0,1,1,1.5-1.5,1.5,1.5,0,0,1-1.5,1.5Z" fill="#ed3425"/>
      </g>
      <g id="Group_5925" data-name="Group 5925">
        <path id="Path_7622" data-name="Path 7622" d="M4607.339,4798.288a1.5,1.5,0,1,1,1.5-1.5,1.5,1.5,0,0,1-1.5,1.5Zm-6,0a1.5,1.5,0,1,1,1.5-1.5,1.5,1.5,0,0,1-1.5,1.5Zm-6,0a1.5,1.5,0,1,1,1.5-1.5,1.5,1.5,0,0,1-1.5,1.5Z" fill="#913d87"/>
      </g>
      <g id="Group_5926" data-name="Group 5926">
        <path id="Path_7623" data-name="Path 7623" d="M4611.469,4756.457a1.5,1.5,0,1,1,1.5-1.5,1.5,1.5,0,0,1-1.5,1.5Zm-6,0a1.5,1.5,0,1,1,1.5-1.5,1.5,1.5,0,0,1-1.5,1.5Zm-6,0a1.5,1.5,0,1,1,1.5-1.5,1.5,1.5,0,0,1-1.5,1.5Z" fill="#fbb33b"/>
      </g>
      <g id="Group_5927" data-name="Group 5927">
        <path id="Path_7624" data-name="Path 7624" d="M4625,4748.287a1.5,1.5,0,1,1,1.5-1.5,1.5,1.5,0,0,1-1.5,1.5Zm-6,0a1.5,1.5,0,1,1,1.5-1.5,1.5,1.5,0,0,1-1.5,1.5Zm-5.99,0a1.5,1.5,0,1,1,1.5-1.5,1.5,1.5,0,0,1-1.5,1.5Z" fill="#913d87"/>
      </g>
      <g id="Group_5928" data-name="Group 5928">
        <path id="Path_7625" data-name="Path 7625" d="M4530.969,4835.791a1.5,1.5,0,1,1,1.5-1.5,1.5,1.5,0,0,1-1.5,1.5Zm-6,0a1.5,1.5,0,1,1,1.5-1.5,1.5,1.5,0,0,1-1.5,1.5Zm-6,0a1.5,1.5,0,1,1,1.5-1.5,1.5,1.5,0,0,1-1.5,1.5Zm-6,0a1.5,1.5,0,1,1,1.5-1.5,1.5,1.5,0,0,1-1.5,1.5Zm-6,0a1.5,1.5,0,1,1,1.5-1.5,1.5,1.5,0,0,1-1.5,1.5Zm-6,0a1.5,1.5,0,1,1,1.5-1.5,1.5,1.5,0,0,1-1.5,1.5Zm-6,0a1.5,1.5,0,1,1,1.5-1.5,1.5,1.5,0,0,1-1.5,1.5Z" fill="#fbb33b"/>
      </g>
      <g id="Group_5929" data-name="Group 5929">
        <path id="Path_7626" data-name="Path 7626" d="M4610.969,4707.787a1.5,1.5,0,1,1,1.5-1.5,1.5,1.5,0,0,1-1.5,1.5Zm-6,0a1.5,1.5,0,1,1,1.5-1.5,1.5,1.5,0,0,1-1.5,1.5Zm-6,0a1.5,1.5,0,1,1,1.5-1.5,1.5,1.5,0,0,1-1.5,1.5Zm-6,0a1.5,1.5,0,1,1,1.5-1.5,1.5,1.5,0,0,1-1.5,1.5Zm-6,0a1.5,1.5,0,1,1,1.5-1.5,1.5,1.5,0,0,1-1.5,1.5Zm-6,0a1.5,1.5,0,1,1,1.5-1.5,1.5,1.5,0,0,1-1.5,1.5Zm-6,0a1.5,1.5,0,1,1,1.5-1.5,1.5,1.5,0,0,1-1.5,1.5Z" fill="#fbb33b"/>
      </g>
      <g id="Group_5930" data-name="Group 5930">
        <path id="Path_7627" data-name="Path 7627" d="M4475.469,4817.291a1.5,1.5,0,1,1,1.5-1.5,1.5,1.5,0,0,1-1.5,1.5Zm-6,0a1.5,1.5,0,1,1,1.5-1.5,1.5,1.5,0,0,1-1.5,1.5Zm-6,0a1.5,1.5,0,1,1,1.5-1.5,1.5,1.5,0,0,1-1.5,1.5Zm-6,0a1.5,1.5,0,1,1,1.5-1.5,1.5,1.5,0,0,1-1.5,1.5Zm-6,0a1.5,1.5,0,1,1,1.5-1.5,1.5,1.5,0,0,1-1.5,1.5Z" fill="#913d87"/>
      </g>
      <g id="Group_5931" data-name="Group 5931">
        <path id="Path_7628" data-name="Path 7628" d="M4693.469,4817.291a1.5,1.5,0,1,1,1.5-1.5,1.5,1.5,0,0,1-1.5,1.5Zm-6,0a1.5,1.5,0,1,1,1.5-1.5,1.5,1.5,0,0,1-1.5,1.5Zm-6,0a1.5,1.5,0,1,1,1.5-1.5,1.5,1.5,0,0,1-1.5,1.5Zm-6,0a1.5,1.5,0,1,1,1.5-1.5,1.5,1.5,0,0,1-1.5,1.5Zm-6,0a1.5,1.5,0,1,1,1.5-1.5,1.5,1.5,0,0,1-1.5,1.5Zm-6,0a1.5,1.5,0,1,1,1.5-1.5,1.5,1.5,0,0,1-1.5,1.5Zm-6,0a1.5,1.5,0,1,1,1.5-1.5,1.5,1.5,0,0,1-1.5,1.5Z" fill="#ed3425"/>
      </g>
      <g id="Group_5932" data-name="Group 5932">
        <path id="Path_7629" data-name="Path 7629" d="M4556.969,4842.291a1.5,1.5,0,1,1,1.5-1.5,1.5,1.5,0,0,1-1.5,1.5Zm-6,0a1.5,1.5,0,1,1,1.5-1.5,1.5,1.5,0,0,1-1.5,1.5Zm-6,0a1.5,1.5,0,1,1,1.5-1.5,1.5,1.5,0,0,1-1.5,1.5Z" fill="#913d87"/>
      </g>
      <g id="Group_5933" data-name="Group 5933">
        <path id="Path_7630" data-name="Path 7630" d="M4437.969,4817.291a1.5,1.5,0,1,1,1.5-1.5,1.5,1.5,0,0,1-1.5,1.5Zm-6,0a1.5,1.5,0,1,1,1.5-1.5,1.5,1.5,0,0,1-1.5,1.5Zm-6,0a1.5,1.5,0,1,1,1.5-1.5,1.5,1.5,0,0,1-1.5,1.5Z" fill="#ed3425"/>
      </g>
      <g id="Group_5934" data-name="Group 5934">
        <path id="Path_7631" data-name="Path 7631" d="M4387.969,4759.453a1.5,1.5,0,1,1,1.5-1.5,1.5,1.5,0,0,1-1.5,1.5Zm-6,0a1.5,1.5,0,1,1,1.5-1.5,1.5,1.5,0,0,1-1.5,1.5Zm-6,0a1.5,1.5,0,1,1,1.5-1.5,1.5,1.5,0,0,1-1.5,1.5Z" fill="#fbb33b"/>
      </g>
    </g>
    <g id="Group_5937" data-name="Group 5937">
      <g id="Group_5936" data-name="Group 5936">
        <path id="Path_7632" data-name="Path 7632" d="M4428.808,4721.086a12.5,12.5,0,1,0-17.678,17.677c4.882,4.883,21.339,3.663,21.339,3.663S4433.69,4725.969,4428.808,4721.086Zm-12.248,12.248c-4.881-4.881-2.273-9.09-2.273-9.09s1.852-.252,6.734,4.631a31.28,31.28,0,0,1,6.9,11.277A30.36,30.36,0,0,1,4416.56,4733.334Z" fill="#913d87"/>
        <path id="Path_7633" data-name="Path 7633" d="M4453.808,4721.086a12.5,12.5,0,0,0-17.678,0c-4.881,4.883-3.661,21.34-3.661,21.34s16.458,1.22,21.339-3.663A12.5,12.5,0,0,0,4453.808,4721.086Zm-5.43,12.248a31.274,31.274,0,0,1-11.278,6.9,30.344,30.344,0,0,1,6.818-11.363c4.882-4.883,9.091-2.274,9.091-2.274S4453.26,4728.453,4448.378,4733.334Z" fill="#6d2e66"/>
        <circle id="Ellipse_688" data-name="Ellipse 688" cx="7.5" cy="7.5" r="7.5" transform="translate(4424.969 4737.412)" fill="#913d87"/>
      </g>
      <path id="Path_7634" data-name="Path 7634" d="M4466.969,4744.912h-22v62.5h22a3.01,3.01,0,0,0,3-3v-56.5A3.009,3.009,0,0,0,4466.969,4744.912Z" fill="#f4803f"/>
      <path id="Path_7635" data-name="Path 7635" d="M4397.969,4744.912a3.008,3.008,0,0,0-3,3v56.5a3.009,3.009,0,0,0,3,3h47v-62.5Z" fill="#fbb33b"/>
      <rect id="Rectangle_3247" data-name="Rectangle 3247" width="25" height="10" transform="translate(4444.969 4777.412)" fill="#6d2e66"/>
      <rect id="Rectangle_3248" data-name="Rectangle 3248" width="4" height="62.503" transform="translate(4457.469 4744.912)" fill="#6d2e66"/>
      <rect id="Rectangle_3249" data-name="Rectangle 3249" width="50" height="10" transform="translate(4394.969 4777.412)" fill="#8b3788"/>
      <rect id="Rectangle_3250" data-name="Rectangle 3250" width="10" height="62.503" transform="translate(4414.969 4744.912)" fill="#9c3e88"/>
    </g>
    <g id="Group_5939" data-name="Group 5939">
      <g id="Group_5938" data-name="Group 5938">
        <path id="Path_7636" data-name="Path 7636" d="M4658.593,4721.056a17.5,17.5,0,0,0-24.748,24.748c6.834,6.836,29.873,5.125,29.873,5.125S4665.427,4727.89,4658.593,4721.056Zm-17.147,17.149c-6.836-6.836-3.183-12.729-3.183-12.729s2.594-.351,9.428,6.483a43.8,43.8,0,0,1,9.666,15.789A42.508,42.508,0,0,1,4641.446,4738.205Z" fill="#fbb33b"/>
        <path id="Path_7637" data-name="Path 7637" d="M4693.593,4721.056a17.5,17.5,0,0,0-24.748,0c-6.836,6.834-5.127,29.873-5.127,29.873s23.041,1.711,29.875-5.125A17.5,17.5,0,0,0,4693.593,4721.056Zm-7.6,17.149a43.8,43.8,0,0,1-15.789,9.664,42.5,42.5,0,0,1,9.545-15.91c6.834-6.834,12.727-3.182,12.727-3.182S4692.825,4731.369,4685.991,4738.205Z" fill="#f4803f"/>
        <circle id="Ellipse_689" data-name="Ellipse 689" cx="10.5" cy="10.5" r="10.5" transform="translate(4653.218 4743.912)" fill="#fbb33b"/>
      </g>
      <path id="Path_7638" data-name="Path 7638" d="M4704.469,4754.412h-22v50h22a3.009,3.009,0,0,0,3-3v-44A3.009,3.009,0,0,0,4704.469,4754.412Z" fill="#6d2e66"/>
      <path id="Path_7639" data-name="Path 7639" d="M4622.969,4754.412a3.008,3.008,0,0,0-3,3v44a3.008,3.008,0,0,0,3,3h59.5v-50Z" fill="#913d87"/>
      <rect id="Rectangle_3251" data-name="Rectangle 3251" width="25" height="10" transform="translate(4682.469 4777.412)" fill="#f4803f"/>
      <rect id="Rectangle_3252" data-name="Rectangle 3252" width="4" height="50.002" transform="translate(4694.969 4754.412)" fill="#f4803f"/>
      <rect id="Rectangle_3253" data-name="Rectangle 3253" width="62.5" height="10" transform="translate(4619.969 4777.412)" fill="#f9a440"/>
      <rect id="Rectangle_3254" data-name="Rectangle 3254" width="10" height="50.002" transform="translate(4644.219 4754.412)" fill="#fcb73a"/>
    </g>
    <g id="Group_5941" data-name="Group 5941">
      <g id="Group_5940" data-name="Group 5940">
        <path id="Path_7640" data-name="Path 7640" d="M4537.12,4683.214a26.8,26.8,0,0,0-37.893,37.9c10.463,10.467,45.74,7.848,45.74,7.848S4547.585,4693.68,4537.12,4683.214Zm-26.255,26.258c-10.466-10.466-4.875-19.49-4.875-19.49s3.971-.539,14.436,9.928,14.8,24.176,14.8,24.176S4521.329,4719.935,4510.865,4709.472Z" fill="#ed3425"/>
        <path id="Path_7641" data-name="Path 7641" d="M4590.712,4683.214a26.794,26.794,0,0,0-37.893,0c-10.468,10.466-7.852,45.743-7.852,45.743s35.281,2.619,45.745-7.848A26.8,26.8,0,0,0,4590.712,4683.214Zm-11.638,26.258c-10.464,10.463-24.177,14.8-24.177,14.8s4.15-13.9,14.614-24.361,19.487-4.873,19.487-4.873S4589.538,4699.006,4579.074,4709.472Z" fill="#d42027"/>
        <path id="Path_7642" data-name="Path 7642" d="M4561.044,4734.287a16.077,16.077,0,1,1-16.077-16.076A16.077,16.077,0,0,1,4561.044,4734.287Z" fill="#ed3425"/>
      </g>
      <path id="Path_7643" data-name="Path 7643" d="M4598.219,4734.287h-34.5v87.5h34.5a3.009,3.009,0,0,0,3-3v-81.5A3.009,3.009,0,0,0,4598.219,4734.287Z" fill="#d42027"/>
      <path id="Path_7644" data-name="Path 7644" d="M4491.719,4734.287a3.008,3.008,0,0,0-3,3v81.5a3.008,3.008,0,0,0,3,3h84.5v-87.5Z" fill="#ed3425"/>
      <rect id="Rectangle_3255" data-name="Rectangle 3255" width="25" height="12.5" transform="translate(4576.219 4774.912)" fill="#f58940"/>
      <rect id="Rectangle_3256" data-name="Rectangle 3256" width="4" height="87.504" transform="translate(4588.719 4734.287)" fill="#f58940"/>
      <rect id="Rectangle_3257" data-name="Rectangle 3257" width="87.5" height="12.5" transform="translate(4488.719 4774.912)" fill="#ffd688"/>
      <rect id="Rectangle_3258" data-name="Rectangle 3258" width="12.5" height="87.504" transform="translate(4524.219 4734.287)" fill="#ffe0b1"/>
    </g>
    <path id="Path_7645" data-name="Path 7645" d="M4634.6,4684.5c1.595-.42,2.557.542,2.137,2.139l-.731,2.778a7.821,7.821,0,0,0,.859,5.425l1.555,2.418c.893,1.387.274,2.6-1.372,2.693l-2.87.164a7.817,7.817,0,0,0-4.9,2.494l-1.817,2.225c-1.045,1.277-2.388,1.064-2.986-.473l-1.042-2.68a7.82,7.82,0,0,0-3.883-3.882l-2.68-1.043c-1.537-.6-1.75-1.941-.473-2.986l2.225-1.817a7.828,7.828,0,0,0,2.494-4.894l.164-2.871c.094-1.647,1.306-2.264,2.694-1.372l2.418,1.554a7.809,7.809,0,0,0,5.423.86Z" fill="#fbb33b"/>
    <path id="Path_7646" data-name="Path 7646" d="M4475.934,4829.674c1.595-.42,2.557.541,2.137,2.138l-.731,2.778a7.825,7.825,0,0,0,.859,5.426l1.555,2.416c.893,1.388.274,2.6-1.372,2.695l-2.87.162a7.825,7.825,0,0,0-4.9,2.494l-1.817,2.225c-1.045,1.279-2.388,1.064-2.986-.473l-1.042-2.678a7.824,7.824,0,0,0-3.883-3.884l-2.68-1.041c-1.537-.6-1.75-1.942-.473-2.987l2.225-1.818a7.82,7.82,0,0,0,2.494-4.893l.164-2.871c.094-1.646,1.306-2.264,2.694-1.373l2.418,1.555a7.811,7.811,0,0,0,5.423.859Z" fill="#fbb33b"/>
    <path id="Path_7647" data-name="Path 7647" d="M4465.984,4691.261c1.426.831,1.426,2.192,0,3.024l-2.482,1.448a7.821,7.821,0,0,0-3.228,4.443l-.61,2.808c-.349,1.611-1.644,2.033-2.875.936l-2.144-1.914a7.805,7.805,0,0,0-5.225-1.7l-2.858.286c-1.643.165-2.441-.935-1.778-2.444l1.157-2.631a7.817,7.817,0,0,0,0-5.493l-1.158-2.632c-.663-1.51.136-2.61,1.778-2.446l2.858.289a7.818,7.818,0,0,0,5.224-1.7l2.146-1.915c1.231-1.1,2.525-.677,2.874.935l.611,2.808a7.811,7.811,0,0,0,3.227,4.444Z" fill="#ed3425"/>
    <path id="Path_7648" data-name="Path 7648" d="M4366.12,4775.252c.8-.209,1.279.271,1.069,1.07l-.366,1.389a3.9,3.9,0,0,0,.43,2.713l.777,1.209c.446.693.137,1.3-.686,1.345l-1.435.082a3.9,3.9,0,0,0-2.447,1.248l-.909,1.112a.8.8,0,0,1-1.493-.237l-.522-1.339a3.912,3.912,0,0,0-1.941-1.942l-1.34-.521a.8.8,0,0,1-.236-1.492l1.113-.909a3.913,3.913,0,0,0,1.246-2.447l.082-1.435c.047-.825.653-1.133,1.348-.686l1.209.777a3.912,3.912,0,0,0,2.711.43Z" fill="#ed3425"/>
    <path id="Path_7649" data-name="Path 7649" d="M4482.853,4715.416c.8-.209,1.278.271,1.069,1.07l-.366,1.389a3.913,3.913,0,0,0,.429,2.713l.778,1.209c.446.693.137,1.3-.687,1.345l-1.434.082a3.908,3.908,0,0,0-2.448,1.248l-.909,1.112a.8.8,0,0,1-1.492-.237l-.521-1.339a3.913,3.913,0,0,0-1.942-1.942l-1.34-.521a.8.8,0,0,1-.236-1.492l1.112-.909a3.911,3.911,0,0,0,1.247-2.447l.082-1.435c.047-.825.653-1.133,1.347-.686l1.209.777a3.915,3.915,0,0,0,2.712.43Z" fill="#913d87"/>
    <path id="Path_7650" data-name="Path 7650" d="M4614.9,4717.937c.8-.209,1.279.272,1.069,1.071l-.366,1.388a3.922,3.922,0,0,0,.429,2.713l.778,1.209c.447.694.137,1.3-.686,1.346l-1.435.082a3.908,3.908,0,0,0-2.448,1.248l-.908,1.111a.8.8,0,0,1-1.493-.236l-.521-1.34a3.913,3.913,0,0,0-1.941-1.941l-1.34-.522a.8.8,0,0,1-.236-1.492l1.111-.908a3.918,3.918,0,0,0,1.248-2.447l.082-1.436c.047-.824.653-1.133,1.346-.686l1.209.778a3.922,3.922,0,0,0,2.713.429Z" fill="#ed3425"/>
    <path id="Path_7651" data-name="Path 7651" d="M4588.049,4836.2c.8-.211,1.279.272,1.069,1.068l-.366,1.391a3.91,3.91,0,0,0,.43,2.711l.777,1.209a.8.8,0,0,1-.685,1.348l-1.436.082a3.918,3.918,0,0,0-2.447,1.246l-.908,1.113a.8.8,0,0,1-1.494-.236l-.52-1.34a3.908,3.908,0,0,0-1.942-1.942l-1.339-.521a.8.8,0,0,1-.237-1.494l1.112-.908a3.907,3.907,0,0,0,1.248-2.448l.082-1.435a.8.8,0,0,1,1.345-.686l1.209.778a3.9,3.9,0,0,0,2.713.429Z" fill="#913d87"/>
    <path id="Path_7652" data-name="Path 7652" d="M4540.359,4854.641a.8.8,0,0,1,0,1.513l-1.242.723a3.915,3.915,0,0,0-1.613,2.222l-.306,1.4a.8.8,0,0,1-1.436.466l-1.073-.957a3.913,3.913,0,0,0-2.613-.847l-1.428.144c-.822.082-1.22-.468-.889-1.224l.579-1.315a3.91,3.91,0,0,0,0-2.746l-.578-1.316c-.334-.756.067-1.305.889-1.223l1.427.145a3.9,3.9,0,0,0,2.614-.85l1.072-.957a.8.8,0,0,1,1.436.467l.306,1.406a3.9,3.9,0,0,0,1.614,2.221Z" fill="#ed3425"/>
    <path id="Path_7653" data-name="Path 7653" d="M4422.092,4830.32a.8.8,0,0,1,0,1.512l-1.242.725a3.915,3.915,0,0,0-1.614,2.22l-.3,1.405a.8.8,0,0,1-1.437.468l-1.074-.957a3.907,3.907,0,0,0-2.612-.849l-1.428.144c-.821.082-1.221-.467-.889-1.222l.579-1.317a3.91,3.91,0,0,0,0-2.744l-.579-1.316c-.332-.756.069-1.307.889-1.223l1.428.142a3.911,3.911,0,0,0,2.614-.847l1.072-.957a.8.8,0,0,1,1.437.467l.3,1.4a3.906,3.906,0,0,0,1.615,2.223Z" fill="#913d87"/>
    <path id="Path_7654" data-name="Path 7654" d="M4742.259,4782.65a.8.8,0,0,1,0,1.512l-1.242.725a3.921,3.921,0,0,0-1.614,2.22l-.3,1.405a.8.8,0,0,1-1.437.468l-1.073-.957a3.909,3.909,0,0,0-2.612-.849l-1.429.144c-.821.082-1.22-.467-.889-1.222l.579-1.317a3.9,3.9,0,0,0,0-2.744l-.578-1.316c-.333-.756.068-1.305.889-1.223l1.428.143a3.9,3.9,0,0,0,2.613-.848l1.073-.957a.8.8,0,0,1,1.436.467l.3,1.4a3.911,3.911,0,0,0,1.615,2.223Z" fill="#ed3425"/>
    <path id="Path_7655" data-name="Path 7655" d="M4643.651,4835.1c1.425.832,1.425,2.191,0,3.023l-2.481,1.447a7.818,7.818,0,0,0-3.228,4.444l-.61,2.808c-.35,1.613-1.645,2.033-2.876.936l-2.144-1.914a7.819,7.819,0,0,0-5.225-1.7l-2.858.288c-1.643.166-2.441-.936-1.778-2.446l1.158-2.631a7.82,7.82,0,0,0,0-5.492l-1.158-2.631c-.663-1.509.136-2.611,1.778-2.445l2.858.287a7.818,7.818,0,0,0,5.224-1.7l2.146-1.914c1.231-1.1,2.524-.678,2.875.935l.61,2.809a7.819,7.819,0,0,0,3.228,4.443Z" fill="#ed3425"/>
    <line id="Line_103" data-name="Line 103" x2="12.5" transform="translate(4617.303 4815.791)" stroke-dasharray="0 6" stroke="#913d87" stroke-linecap="round" stroke-linejoin="round" stroke-width="3" fill="none"/>
    <circle id="Ellipse_690" data-name="Ellipse 690" cx="3" cy="3" r="3" transform="translate(4603.969 4828.791)" fill="#fbb33b"/>
    <circle id="Ellipse_691" data-name="Ellipse 691" cx="3" cy="3" r="3" transform="translate(4509.469 4843.291)" fill="#ed3425"/>
    <circle id="Ellipse_692" data-name="Ellipse 692" cx="3" cy="3" r="3" transform="translate(4474.469 4757.287)" fill="#ed3425"/>
    <circle id="Ellipse_693" data-name="Ellipse 693" cx="3" cy="3" r="3" transform="translate(4607.469 4774.287)" fill="#913d87"/>
    <circle id="Ellipse_694" data-name="Ellipse 694" cx="3" cy="3" r="3" transform="translate(4655.969 4704.287)" fill="#913d87"/>
    <path id="Path_7656" data-name="Path 7656" d="M4482.969,4700.287a3,3,0,1,1-3-3A3,3,0,0,1,4482.969,4700.287Z" fill="#fbb33b"/>
    <circle id="Ellipse_695" data-name="Ellipse 695" cx="3" cy="3" r="3" transform="translate(4378.969 4767.787)" fill="#ed3425"/>
    <circle id="Ellipse_696" data-name="Ellipse 696" cx="3" cy="3" r="3" transform="translate(4716.969 4752.287)" fill="#fbb33b"/>
  </g>
</svg>
