<svg xmlns="http://www.w3.org/2000/svg" width="321.745" height="34.655" viewBox="0 0 321.745 34.655">
  <g id="Group_5867" data-name="Group 5867" transform="translate(-3413.984 -4344.358)">
    <g id="Group_5865" data-name="Group 5865" transform="translate(3578.935 4344.358)">
      <path id="Path_7484" data-name="Path 7484" d="M3561.983,4376.517l9.057-31.628h-6.211l-6.164,24.327-6.544-24.327h-4.409l-6.543,24.327L3535,4344.889h-6.164l9.01,31.628h5.927l6.165-23.377,6.116,23.377Zm28.174,0h-4.978v-3.129a9.209,9.209,0,0,1-7.35,3.7c-5.834,0-10.148-4.457-10.148-12.045,0-7.4,4.268-12,10.148-12a8.993,8.993,0,0,1,7.35,3.745v-3.177h4.978v22.9Zm-10.859-3.843a7.436,7.436,0,0,0,5.881-3.08v-9.057a7.437,7.437,0,0,0-5.881-3.083c-3.983,0-6.5,3.177-6.5,7.587,0,4.458,2.513,7.633,6.5,7.633Zm19.593,4.412a6.8,6.8,0,0,0,4.695-1.47l-1.186-3.794a3.226,3.226,0,0,1-2.227.852c-1.424,0-2.182-1.184-2.182-2.749v-25.037h-4.979v26.27c0,3.84,2.039,5.928,5.88,5.928Zm9.966,0c-3.841,0-5.88-2.087-5.88-5.928v-26.27h4.979v25.037c0,1.564.758,2.749,2.181,2.749a3.233,3.233,0,0,0,2.229-.852l1.185,3.794a6.8,6.8,0,0,1-4.695,1.47Zm14.708,0a13.547,13.547,0,0,0,9.293-3.367l-2.275-3.271a9.639,9.639,0,0,1-6.545,2.56,6.923,6.923,0,0,1-7.254-6.307h17.639v-1.232c0-7.207-4.364-12.423-11.238-12.423-6.78,0-11.617,5.357-11.617,12,0,7.256,5.074,12.045,12,12.045Zm6.069-13.941h-12.9a6.265,6.265,0,0,1,6.4-6.022,6.165,6.165,0,0,1,6.5,6.022Zm13.048,13.941c-3.888,0-5.878-2.087-5.878-5.928V4357.93h-3.794v-4.316h3.794v-6.259h4.978v6.259h4.647v4.316h-4.647v12c0,1.564.76,2.749,2.181,2.749a3.1,3.1,0,0,0,2.182-.852l1.185,3.794A6.744,6.744,0,0,1,3642.681,4377.086Z" transform="translate(-3528.837 -4344.126)" fill="#32b34b" fill-rule="evenodd"/>
      <path id="Rectangle_3240" data-name="Rectangle 3240" d="M3.8,0H30.858a3.794,3.794,0,0,1,3.794,3.794V30.86a3.8,3.8,0,0,1-3.8,3.8H3.792A3.792,3.792,0,0,1,0,30.863V3.8A3.8,3.8,0,0,1,3.8,0Z" transform="translate(122.142)" fill="#32b34b"/>
      <g id="Group_5864" data-name="Group 5864" transform="translate(128.163 4.046)">
        <path id="Path_7485" data-name="Path 7485" d="M3633.525,4360.882a14.26,14.26,0,0,1,.129-2.328,1.993,1.993,0,0,1,.886-1.121,2.911,2.911,0,0,1,1.742-.3c.845,0,3.412.041,4.046-.007a19.658,19.658,0,0,0,.022-2.159,9.119,9.119,0,0,0-.088-2.141c-.28-.666-.869-.627-1.606-.627s-1.5.015-2.239,0c-2.976-.042-5.98,0-8.959,0-1.481,0-3-.035-4.478,0-.831.022-3.855-.148-4.346.12-.613.334-.559.826-.559,1.661v13.807c0,.837-.055,1.328.559,1.661.491.268,3.514.1,4.346.119,1.475.038,3,.005,4.478.005,2.979,0,5.983.037,8.959-.007.737-.011,1.5.007,2.239.007s1.326.039,1.606-.628a9.132,9.132,0,0,0,.088-2.143,19.649,19.649,0,0,0-.022-2.159c-.634-.048-3.2-.006-4.046-.006a2.918,2.918,0,0,1-1.742-.3,2.012,2.012,0,0,1-.886-1.124A14.237,14.237,0,0,1,3633.525,4360.882Z" transform="translate(-3618.075 -4345)" fill="#fff" fill-rule="evenodd"/>
        <path id="Path_7486" data-name="Path 7486" d="M3627.227,4348.417c-.322.188-.658.375-1.048.6l-6.223,3.613,11.948-2.5c-.075-.237-1.1-1.974-1.321-2.348-.668-1.149-1.6-.37-2.083-.113C3628.127,4347.871,3627.648,4348.172,3627.227,4348.417Z" transform="translate(-3617.255 -4347.175)" fill="#fff" fill-rule="evenodd"/>
        <path id="Path_7487" data-name="Path 7487" d="M3621.388,4352.19l.371.054c.135,0,.269,0,.4,0,4.164.007,8.491-.051,12.607,0a14.927,14.927,0,0,0-.438-1.873c-.271-.814-.994-.7-1.506-.606-1.242.225-2.588.523-3.813.8C3628.477,4350.688,3621.639,4352.072,3621.388,4352.19Z" transform="translate(-3616.63 -4346.075)" fill="#fff" fill-rule="evenodd"/>
        <path id="Path_7488" data-name="Path 7488" d="M3630.618,4356.411h5.671a1.052,1.052,0,0,1,1.048,1.048v3.143a1.052,1.052,0,0,1-1.048,1.047h-5.671a1.05,1.05,0,0,1-1.047-1.047v-3.143a1.05,1.05,0,0,1,1.047-1.048Zm.691,1.877a.844.844,0,1,0,.843.844A.843.843,0,0,0,3631.309,4358.288Z" transform="translate(-3613.061 -4343.148)" fill="#fff" fill-rule="evenodd"/>
      </g>
    </g>
    <g id="Group_5866" data-name="Group 5866" transform="translate(3413.984 4344.659)">
      <path id="Path_7489" data-name="Path 7489" d="M3439.856,4376.6h6.423l-1.562-31.977h-8.681l-3.079,12.451c-1,3.294-2,7.117-2.782,10.5H3430c-.647-3.429-1.515-7.069-2.474-10.413l-2.844-12.593h-8.808l-1.89,32.033h6.118l.566-11.106c.174-3.647.347-8.166.478-12.111h.088c.738,3.857,1.693,7.986,2.648,11.457l3.125,11.284h5.167l3.557-11.407c1.131-3.435,2.346-7.6,3.3-11.333h.087c0,4.294.131,8.5.263,12.021Z" transform="translate(-3413.984 -4344.568)" fill="#f8a770" fill-rule="evenodd"/>
      <path id="Path_7490" data-name="Path 7490" d="M3516.45,4372.425a14.974,14.974,0,0,0,6.856,1.53c6.078,0,9.161-2.92,9.161-6.913-.046-3.082-1.7-5.164-5.731-6.507-2.605-.912-3.43-1.435-3.43-2.476s.91-1.694,2.519-1.694a11.231,11.231,0,0,1,4.6,1.173l1.133-4.514a13.96,13.96,0,0,0-5.949-1.263c-5.25,0-8.637,2.993-8.637,6.988-.042,2.479,1.648,4.907,6.078,6.344,2.428.822,3.079,1.345,3.079,2.473,0,1.085-.822,1.73-2.819,1.73a12.868,12.868,0,0,1-5.688-1.558Z" transform="translate(-3369.289 -4341.43)" fill="#f8a770" fill-rule="evenodd"/>
      <path id="Path_7491" data-name="Path 7491" d="M3519.713,4352.094h-6.6v12.634a3.658,3.658,0,0,1-3.562,3.733c-2.342,0-3.338-1.87-3.338-4.95v-11.417h-6.6v12.459c0,6.557,3.124,9.256,7.466,9.256a7.58,7.58,0,0,0,6.641-3.484h.131l.3,2.993h5.73c-.089-1.777-.172-4.033-.172-6.813Z" transform="translate(-3376.632 -4341.285)" fill="#f8a770" fill-rule="evenodd"/>
      <rect id="Rectangle_3241" data-name="Rectangle 3241" width="6.594" height="30.812" transform="translate(111.179 1.222)" fill="#f8a770"/>
      <path id="Path_7492" data-name="Path 7492" d="M3474.046,4376.353h6.553v-12.67a11.052,11.052,0,0,0,2.257.174c3.911,0,7.293-.994,9.549-3.081a9.176,9.176,0,0,0,2.645-6.942,8.369,8.369,0,0,0-3.076-6.729c-1.956-1.606-4.906-2.385-8.988-2.385a54.536,54.536,0,0,0-8.94.6v31.03Zm6.553-25.548a11.723,11.723,0,0,1,2.735-.222c3.342,0,5.166,1.613,5.166,4.3,0,2.95-2.173,4.736-5.686,4.736a10.116,10.116,0,0,1-2.215-.179Z" transform="translate(-3387.785 -4344.502)" fill="#f8a770" fill-rule="evenodd"/>
      <path id="Path_7493" data-name="Path 7493" d="M3477.212,4366.812h0a7.811,7.811,0,0,1-.132,1.48,3.9,3.9,0,0,1-3.864,3.166c-2.734,0-4.515-2.253-4.515-5.816,0-3.338,1.518-6.031,4.557-6.031a3.925,3.925,0,0,1,3.866,3.211,5.725,5.725,0,0,1,.087,1.219v2.771Zm0-21.393h0v11.5h-.087c-.957-1.428-2.952-2.391-5.6-2.391-5.08,0-9.549,4.169-9.506,11.29,0,6.592,4.039,10.9,9.075,10.9a7.408,7.408,0,0,0,6.636-3.568h.131l.258,3.078h5.86c-.088-1.428-.171-3.905-.171-6.329v-24.483Zm-31.86,17.75h0c.173-1.729,1.3-4.3,4.125-4.3,2.993,0,3.69,2.734,3.69,4.3Zm13.716,4.558a16.866,16.866,0,0,0,.218-2.646c0-5.255-2.6-10.592-9.463-10.592-7.337,0-10.721,5.95-10.721,11.329,0,6.684,4.122,10.855,11.326,10.855a20.067,20.067,0,0,0,7.686-1.354l-.872-4.472a17.407,17.407,0,0,1-5.857.913c-3.082,0-5.776-1.3-5.993-4.074Z" transform="translate(-3403.028 -4344.198)" fill="#f8a770" fill-rule="evenodd"/>
    </g>
  </g>
</svg>
