<svg xmlns="http://www.w3.org/2000/svg" width="29.461" height="22.535" viewBox="0 0 29.461 22.535">
  <g id="Allpayments" transform="translate(-3389.286 -1440.207)">
    <path id="Path_23161" data-name="Path 23161" d="M3696.108,1490.056a2.772,2.772,0,0,1,2.525,1.758,2.842,2.842,0,0,1,.194,1.011.392.392,0,0,0,.379.4.4.4,0,0,0,.413-.379c.005-.06,0-.121,0-.179a3.543,3.543,0,0,0-1.5-2.746,3.453,3.453,0,0,0-2.034-.662.4.4,0,0,0-.419.481A.413.413,0,0,0,3696.108,1490.056Z" transform="translate(-285.862 -45.768)" fill="#2699fb"/>
    <path id="Path_23162" data-name="Path 23162" d="M3743.614,1484.81a4.326,4.326,0,0,1,1.159,1.844,4.469,4.469,0,0,1,.209,1.325.393.393,0,0,0,.4.4.4.4,0,0,0,.4-.382c.006-.082,0-.164,0-.246a5.019,5.019,0,0,0-.9-2.665,8.559,8.559,0,0,0-.767-.891.394.394,0,0,0-.578,0,.4.4,0,0,0,.034.578Z" transform="translate(-330.434 -40.921)" fill="#2699fb"/>
    <path id="Path_23163" data-name="Path 23163" d="M3696.03,1466.373c.077.011.155.009.232.014v0h.129a.4.4,0,1,0,.043-.8,2.993,2.993,0,0,0-.363-.008.4.4,0,0,0-.043.786Z" transform="translate(-285.895 -23.679)" fill="#2699fb"/>
    <path id="Path_23164" data-name="Path 23164" d="M3724.035,1472.139a.4.4,0,0,0,.4-.392.388.388,0,0,0-.388-.4.4.4,0,0,0-.4.4A.39.39,0,0,0,3724.035,1472.139Z" transform="translate(-311.974 -29.056)" fill="#2699fb"/>
    <path id="Path_23165" data-name="Path 23165" d="M3580.568,1575.594a1.363,1.363,0,0,0-1.387,1.3c-.027.76-.011,1.521-.006,2.282a.38.38,0,0,0,.405.382.389.389,0,0,0,.385-.4c0-.22,0-.441,0-.661,0-.037.005-.074.009-.118h1.088c.025,0,.05.006.091.01,0,.257,0,.51,0,.764a.4.4,0,1,0,.792,0c0-.735.013-1.47,0-2.2A1.374,1.374,0,0,0,3580.568,1575.594Zm.585,1.976h-1.2a5.815,5.815,0,0,1,.043-.756.566.566,0,0,1,.6-.424.6.6,0,0,1,.547.534.912.912,0,0,1,0,.1C3581.153,1577.2,3581.152,1577.38,3581.152,1577.57Z" transform="translate(-177.17 -126.324)" fill="#080808"/>
    <path id="Path_23166" data-name="Path 23166" d="M3527.649,1575.537c-.423-.021-.847-.012-1.27-.006a.383.383,0,0,0-.391.41c0,.255,0,.51,0,.765q0,1.186,0,2.373a.389.389,0,0,0,.377.411.393.393,0,0,0,.417-.387c0-.056,0-.113,0-.169v-1.028c.28,0,.539,0,.8,0a1.186,1.186,0,0,0,.069-2.369Zm.314,1.2a.364.364,0,0,1-.325.362c-.279.017-.559,0-.846,0v-.769c.293,0,.586-.018.875.007A.356.356,0,0,1,3527.963,1576.74Z" transform="translate(-127.551 -126.259)" fill="#080808"/>
    <path id="Path_23167" data-name="Path 23167" d="M3629.437,1575.632a.386.386,0,0,0-.417.2c-.23.381-.457.763-.686,1.144-.048.08-.1.16-.155.253-.04-.064-.072-.114-.1-.164q-.363-.6-.725-1.21a.406.406,0,0,0-.277-.215.379.379,0,0,0-.409.159.4.4,0,0,0,0,.463c.351.585.7,1.168,1.05,1.756a.5.5,0,0,1,.062.229c.007.3,0,.6,0,.907a.574.574,0,0,0,.034.2.385.385,0,0,0,.433.23.379.379,0,0,0,.322-.368c.007-.324,0-.648.006-.972a.49.49,0,0,1,.062-.229c.34-.576.686-1.149,1.031-1.722a.464.464,0,0,0,.083-.355A.391.391,0,0,0,3629.437,1575.632Z" transform="translate(-221.422 -126.354)" fill="#080808"/>
    <path id="Path_23168" data-name="Path 23168" d="M3416.966,1449.568a1.782,1.782,0,0,0-1.712,1.287h-3.346q0-.762,0-1.523a2.229,2.229,0,0,0-.025-.374,1.976,1.976,0,0,0-1.98-1.671c-1.115,0-2.23,0-3.345,0h-2.089V1443.7a1.782,1.782,0,1,0-.979,0v3.586q-2.706,0-5.411,0a1.982,1.982,0,0,0-2.021,2.019v1.56h-3.274a1.782,1.782,0,1,0,0,.979h3.277q0,.682,0,1.364a2.035,2.035,0,0,0,.032.374,1.981,1.981,0,0,0,1.986,1.635h5.423v3.584a1.782,1.782,0,1,0,.979,0v-3.587h3.424v.883l-.059-.013a1.192,1.192,0,0,0-1.516,1.2c0,.488,0,.977,0,1.465a4.181,4.181,0,0,0,.228,1.4,1.745,1.745,0,0,0,.711.958c.191.117.383.234.568.361a.222.222,0,0,1,.084.152c.011.224.007.449.01.674a.4.4,0,1,0,.8-.006c0-.32-.014-.639-.015-.959a.425.425,0,0,0-.214-.387c-.242-.151-.475-.317-.724-.455a.981.981,0,0,1-.447-.549,3.273,3.273,0,0,1-.2-1.129c0-.51,0-1.02,0-1.53a.4.4,0,1,1,.786-.006c0,.48,0,.959,0,1.439a1.086,1.086,0,0,0,.014.18.369.369,0,0,0,.236.287.4.4,0,0,0,.545-.341c0-.047,0-.095,0-.143q0-3.027,0-6.055a.587.587,0,0,1,.093-.31.389.389,0,0,1,.448-.109.37.37,0,0,1,.252.381c0,.955,0,1.91,0,2.865,0,.579.012,1.158.025,1.737a.4.4,0,1,0,.789-.02c-.005-.5-.016-1-.023-1.5a.4.4,0,1,1,.8-.009q.007.745.018,1.491a.7.7,0,0,0,.019.18.4.4,0,0,0,.419.277.388.388,0,0,0,.352-.384c0-.337,0-.674-.008-1.011a.343.343,0,0,1,.207-.331.394.394,0,0,1,.582.347c.008.328.009.657.016.985a.394.394,0,0,0,.788.01c0-.125-.01-.252,0-.376a.807.807,0,0,1,.084-.293.348.348,0,0,1,.425-.185.373.373,0,0,1,.28.388c0,.86,0,1.72.008,2.58a3.5,3.5,0,0,1-.234,1.279,8.827,8.827,0,0,1-.712,1.437.572.572,0,0,0-.078.3.371.371,0,0,0,.314.334.393.393,0,0,0,.419-.193,8.251,8.251,0,0,0,.859-1.766,3.711,3.711,0,0,0,.226-1.191q0-1.394-.006-2.787a1.163,1.163,0,0,0-.969-1.174,1.124,1.124,0,0,0-.737.106,1.233,1.233,0,0,0-1.541-.56l-.471-.533a.1.1,0,0,1,.017-.022,2.028,2.028,0,0,0,.54-1.443c0-.437,0-.873,0-1.31h3.343a1.782,1.782,0,1,0,1.714-2.266Zm-5.854,3.655a1.155,1.155,0,0,1-.667,1.074c-.041.021-.085.034-.152.061,0-.6,0-1.177,0-1.751a1.344,1.344,0,0,0-.016-.245,1.188,1.188,0,0,0-1.3-.951,1.172,1.172,0,0,0-1.064,1.17c0,.562,0,1.124,0,1.686v.152h-9.826a1.182,1.182,0,0,1-1.228-1.223q0-1.945,0-3.89a1.181,1.181,0,0,1,1.232-1.22h11.8a1.184,1.184,0,0,1,1.23,1.235C3411.114,1450.621,3411.117,1451.922,3411.112,1453.223Z" fill="#2699fb"/>
  </g>
</svg>
