<svg xmlns="http://www.w3.org/2000/svg" width="44" height="44" viewBox="0 0 44 44"><defs><style>.a{fill:none;}.b{fill:#fd6533;}.c{fill:#fd9a27;}.d{fill:#fec12d;}.e{fill:#fff;}</style></defs><g transform="translate(-329 -622)"><rect class="a" width="44" height="44" transform="translate(329 622)"/><g transform="translate(-23)"><g transform="translate(352 622)"><path class="b" d="M35.848,22.815A13.033,13.033,0,1,0,22.816,35.847,13.047,13.047,0,0,0,35.848,22.815Z" transform="translate(-0.815 -0.816)"/><path class="c" d="M19.88,7.752V4.137a.231.231,0,0,0-.231-.231H8.41V.232a.232.232,0,0,0-.4-.164L.068,8.015a.231.231,0,0,0,0,.327l7.947,7.947a.233.233,0,0,0,.164.068.218.218,0,0,0,.089-.018.23.23,0,0,0,.143-.214V12.451h2.811A14.387,14.387,0,0,1,19.88,7.752Z" transform="translate(0 0)"/><path class="d" d="M46.125,38.17l-7.947-7.947a.231.231,0,0,0-.4.164v3.674h-2.81a14.39,14.39,0,0,1-8.658,4.7v3.614a.231.231,0,0,0,.231.231H37.784V46.28a.232.232,0,0,0,.143.215.218.218,0,0,0,.087.018.23.23,0,0,0,.164-.068L46.125,38.5A.233.233,0,0,0,46.125,38.17Z" transform="translate(-2.193 -2.513)"/></g><path class="e" d="M5.643,14.853h0l-.8-1.091-1.7-2.33L1.516,9.2l-.481-.659L.931,8.4.922,8.388l0,0h0a.917.917,0,0,1-.212-.4L.679,7.751V7.494A.868.868,0,0,1,1.5,6.6a6.906,6.906,0,0,0,1.085-.05,5.154,5.154,0,0,0,1.185-.338,3.679,3.679,0,0,0,.641-.4,3.087,3.087,0,0,0,.371-.4,3.043,3.043,0,0,0,.24-.448l.02-.061H.823A.871.871,0,0,1,0,4a.871.871,0,0,1,.823-.9H5.069Q5.052,3.05,5.034,3a3.044,3.044,0,0,0-.242-.45,3.088,3.088,0,0,0-.375-.406A3.181,3.181,0,0,0,3.886,1.8l-.019-.008H.823A.871.871,0,0,1,0,.9.871.871,0,0,1,.823,0H8.5a.871.871,0,0,1,.823.9.871.871,0,0,1-.823.9H6.306a4.06,4.06,0,0,1,.378.928c.034.125.062.253.084.382H8.5a.871.871,0,0,1,.823.9.871.871,0,0,1-.823.9H6.752c-.021.113-.047.224-.077.333A3.867,3.867,0,0,1,5.5,7.144a4.32,4.32,0,0,1-.9.617,5.714,5.714,0,0,1-1.04.4q-.3.08-.614.132l1.382,1.893,1.7,2.324.783,1.072a.917.917,0,0,1,.212.4l.029.239a.943.943,0,0,1-.241.634.793.793,0,0,1-.582.263A.758.758,0,0,1,5.643,14.853ZM5.076,3.1Zm-.219-.466ZM4.5,2.208Z" transform="translate(369.3 637.583)"/></g></g></svg>