<svg xmlns="http://www.w3.org/2000/svg" xmlns:xlink="http://www.w3.org/1999/xlink" width="14" height="14" viewBox="0 0 24 24">
  <g id="Mask_Group_125" data-name="Mask Group 125" transform="translate(-1277 -914)" clip-path="url(#clip-path)">
    <g id="_317758_android_google_icon" data-name="317758_android_google_icon" transform="translate(1277 915.001)">
      <path id="Path_46941" data-name="Path 46941" d="M4.376,8.978A1.376,1.376,0,0,0,3,10.354v5.5a1.376,1.376,0,0,0,2.752,0v-5.5A1.376,1.376,0,0,0,4.376,8.978Z" transform="translate(0 -2.802)" fill="#343a40"/>
      <path id="Path_46942" data-name="Path 46942" d="M26.376,8.978A1.376,1.376,0,0,0,25,10.354v5.5a1.376,1.376,0,0,0,2.752,0v-5.5A1.376,1.376,0,0,0,26.376,8.978Z" transform="translate(-6.865 -2.802)" fill="#343a40"/>
      <path id="Path_46943" data-name="Path 46943" d="M8,20.3H9.376v3.44a1.376,1.376,0,0,0,2.752,0V20.3H14.88v3.44a1.376,1.376,0,0,0,2.752,0V20.3h1.376V9.978H8Z" transform="translate(-1.56 -3.114)" fill="#343a40"/>
      <path id="Path_46944" data-name="Path 46944" d="M16.753,1.74,17.459.516a.344.344,0,1,0-.6-.344l-.689,1.193a5.492,5.492,0,0,0-5.341,0L10.144.172a.344.344,0,0,0-.6.344l.707,1.225A5.493,5.493,0,0,0,8,6.176H19.007A5.493,5.493,0,0,0,16.753,1.74ZM11.44,4.112a.688.688,0,1,1,.688-.688A.687.687,0,0,1,11.44,4.112Zm4.128,0a.688.688,0,1,1,.688-.688A.687.687,0,0,1,15.568,4.112Z" transform="translate(-1.56 0)" fill="#343a40"/>
    </g>
  </g>
</svg>
