<svg xmlns="http://www.w3.org/2000/svg" width="149.67" height="46.524" viewBox="0 0 149.67 46.524">
  <g id="App_Store-cssbg" transform="translate(-1043 -7622)">
    <path id="Path_24115" data-name="Path 24115" d="M144.125,46.524H5.545A5.7,5.7,0,0,1,0,40.708V5.815A5.694,5.694,0,0,1,5.545,0H144.125a5.7,5.7,0,0,1,5.545,5.815V40.708A5.7,5.7,0,0,1,144.125,46.524Z" transform="translate(1043 7622)" fill-rule="evenodd"/>
    <path id="Path_2124" data-name="Path 2124" d="M33.049,21.033a6.774,6.774,0,0,1,3.226-5.684A6.938,6.938,0,0,0,30.812,12.4c-2.3-.242-4.528,1.375-5.7,1.375-1.194,0-3-1.352-4.94-1.312a7.275,7.275,0,0,0-6.123,3.735c-2.648,4.584-.673,11.321,1.864,15.026,1.269,1.816,2.752,3.841,4.693,3.77,1.9-.077,2.608-1.209,4.9-1.209,2.27,0,2.936,1.209,4.916,1.164,2.038-.032,3.321-1.823,4.546-3.654a14.979,14.979,0,0,0,2.079-4.234A6.553,6.553,0,0,1,33.049,21.033Z" transform="translate(1041.154 7624.085)" fill="#fff"/>
    <path id="Path_2125" data-name="Path 2125" d="M27.572,11A6.667,6.667,0,0,0,29.1,6.217a6.792,6.792,0,0,0-4.391,2.272,6.345,6.345,0,0,0-1.566,4.6A5.61,5.61,0,0,0,27.572,11Z" transform="translate(1042.893 7623.048)" fill="#fff"/>
    <g id="Group_4270" data-name="Group 4270" transform="translate(1088.579 7643.032)">
      <path id="Path_2127" data-name="Path 2127" d="M55.558,33.747H52.9l-1.454-4.568H46.4l-1.385,4.568H42.43L47.437,18.2h3.092Zm-4.546-6.484L49.7,23.2q-.209-.622-.784-2.929h-.047q-.231.992-.739,2.929l-1.292,4.061Z" transform="translate(-42.43 -17.966)" fill="#fff"/>
      <path id="Path_2128" data-name="Path 2128" d="M66.22,27.41a6.35,6.35,0,0,1-1.554,4.521,4.557,4.557,0,0,1-3.456,1.477,3.46,3.46,0,0,1-3.2-1.59V37.7H55.516V25.627q0-1.8-.092-3.686h2.191l.139,1.777H57.8a4.432,4.432,0,0,1,7.094-.441A6.2,6.2,0,0,1,66.22,27.41Zm-2.538.091a4.623,4.623,0,0,0-.739-2.7,2.552,2.552,0,0,0-2.169-1.107,2.591,2.591,0,0,0-1.672.611,2.835,2.835,0,0,0-.98,1.6,3.253,3.253,0,0,0-.116.758v1.871a3,3,0,0,0,.75,2.066,2.49,2.49,0,0,0,1.949.843A2.553,2.553,0,0,0,62.9,30.363,4.773,4.773,0,0,0,63.682,27.5Z" transform="translate(-40.24 -17.374)" fill="#fff"/>
      <path id="Path_2129" data-name="Path 2129" d="M77.257,27.41A6.35,6.35,0,0,1,75.7,31.931a4.559,4.559,0,0,1-3.458,1.477,3.46,3.46,0,0,1-3.2-1.59V37.7H66.552V25.627q0-1.8-.092-3.686h2.191l.139,1.777h.047a4.433,4.433,0,0,1,7.1-.441A6.207,6.207,0,0,1,77.257,27.41Zm-2.539.091a4.623,4.623,0,0,0-.74-2.7,2.548,2.548,0,0,0-2.166-1.107,2.6,2.6,0,0,0-1.674.611,2.833,2.833,0,0,0-.979,1.6,3.329,3.329,0,0,0-.117.758v1.871A3.01,3.01,0,0,0,69.79,30.6a2.5,2.5,0,0,0,1.951.843,2.55,2.55,0,0,0,2.191-1.084A4.773,4.773,0,0,0,74.718,27.5Z" transform="translate(-38.381 -17.374)" fill="#fff"/>
      <path id="Path_2130" data-name="Path 2130" d="M89.431,29.418a4.154,4.154,0,0,1-1.382,3.231,6.127,6.127,0,0,1-4.236,1.361,7.394,7.394,0,0,1-4.027-.969l.576-2.076a6.931,6.931,0,0,0,3.6.97,3.4,3.4,0,0,0,2.191-.635,2.073,2.073,0,0,0,.786-1.694,2.172,2.172,0,0,0-.647-1.593,6,6,0,0,0-2.145-1.2q-4.084-1.523-4.085-4.454A3.933,3.933,0,0,1,81.5,19.222,5.7,5.7,0,0,1,85.321,18a7.546,7.546,0,0,1,3.53.739l-.625,2.031a6.172,6.172,0,0,0-2.988-.715,3.038,3.038,0,0,0-2.061.646,1.849,1.849,0,0,0-.625,1.409,1.9,1.9,0,0,0,.716,1.523,8.069,8.069,0,0,0,2.26,1.2,7.661,7.661,0,0,1,2.953,1.891A3.94,3.94,0,0,1,89.431,29.418Z" transform="translate(-36.135 -17.999)" fill="#fff"/>
      <path id="Path_2131" data-name="Path 2131" d="M96.092,24.181H93.346v5.444q0,2.077,1.454,2.075a4.377,4.377,0,0,0,1.107-.116l.069,1.892a5.644,5.644,0,0,1-1.937.276,2.986,2.986,0,0,1-2.308-.9,4.418,4.418,0,0,1-.831-3.023V24.176H89.263v-1.87H90.9V20.254l2.447-.739v2.792h2.746Z" transform="translate(-34.538 -17.744)" fill="#fff"/>
      <path id="Path_2132" data-name="Path 2132" d="M107.273,27.455A6.151,6.151,0,0,1,105.8,31.7a5.265,5.265,0,0,1-4.106,1.707,5.019,5.019,0,0,1-3.934-1.636,5.964,5.964,0,0,1-1.465-4.13A6.1,6.1,0,0,1,97.8,23.375a5.237,5.237,0,0,1,4.073-1.662,5.124,5.124,0,0,1,3.967,1.638A5.887,5.887,0,0,1,107.273,27.455Zm-2.582.057a5.021,5.021,0,0,0-.667-2.646,2.466,2.466,0,0,0-2.239-1.336A2.5,2.5,0,0,0,99.5,24.867a5.1,5.1,0,0,0-.668,2.692,5.006,5.006,0,0,0,.668,2.647,2.555,2.555,0,0,0,4.5-.022A5.041,5.041,0,0,0,104.69,27.512Z" transform="translate(-33.354 -17.373)" fill="#fff"/>
      <path id="Path_2133" data-name="Path 2133" d="M113.488,24.132a4.335,4.335,0,0,0-.785-.069,2.351,2.351,0,0,0-2.031.993,3.741,3.741,0,0,0-.622,2.214v5.884h-2.491V25.473q0-1.937-.072-3.53h2.17l.091,2.145h.069a3.847,3.847,0,0,1,1.246-1.777,3.012,3.012,0,0,1,1.8-.6,4,4,0,0,1,.623.046l0,2.377Z" transform="translate(-31.467 -17.374)" fill="#fff"/>
      <path id="Path_2134" data-name="Path 2134" d="M123.594,27.02a5.843,5.843,0,0,1-.091,1.13h-7.474a3.252,3.252,0,0,0,1.084,2.54,3.708,3.708,0,0,0,2.445.783,8.266,8.266,0,0,0,3.024-.529l.39,1.728a9.349,9.349,0,0,1-3.759.693,5.449,5.449,0,0,1-4.1-1.533,5.668,5.668,0,0,1-1.488-4.118,6.423,6.423,0,0,1,1.386-4.221,4.774,4.774,0,0,1,3.92-1.8,4.179,4.179,0,0,1,3.67,1.8A6.052,6.052,0,0,1,123.594,27.02Zm-2.376-.646a3.373,3.373,0,0,0-.484-1.915,2.175,2.175,0,0,0-1.984-1.04,2.362,2.362,0,0,0-1.983,1.015,3.721,3.721,0,0,0-.737,1.937l5.188,0Z" transform="translate(-30.432 -17.376)" fill="#fff"/>
    </g>
    <g id="Group_4271" data-name="Group 4271" transform="translate(1089.507 7629.657)">
      <path id="Path_2135" data-name="Path 2135" d="M49.678,14.535H48.372l-.714-2.245H45.175l-.681,2.245h-1.27l2.461-7.643H47.2Zm-2.234-3.187-.646-2c-.068-.2-.193-.68-.386-1.44h-.023c-.079.328-.193.805-.363,1.44l-.635,2Z" transform="translate(-43.224 -6.496)" fill="#fff"/>
      <path id="Path_2136" data-name="Path 2136" d="M54.777,8.717,52.69,14.228H51.5L49.48,8.717H50.8l.942,2.914c.159.487.294.952.4,1.394h.034c.091-.4.227-.861.4-1.394l.93-2.914h1.283Z" transform="translate(-42.17 -6.188)" fill="#fff"/>
      <path id="Path_2137" data-name="Path 2137" d="M58.309,14.244l-.091-.635h-.034a1.879,1.879,0,0,1-1.61.76,1.6,1.6,0,0,1-1.69-1.622c0-1.36,1.179-2.064,3.22-2.064v-.1c0-.726-.386-1.089-1.145-1.089a2.573,2.573,0,0,0-1.44.409L55.271,9.1a3.528,3.528,0,0,1,1.894-.477c1.44,0,2.166.76,2.166,2.28v2.03a8.185,8.185,0,0,0,.079,1.316ZM58.138,11.5c-1.361,0-2.041.33-2.041,1.111a.78.78,0,0,0,.839.861,1.172,1.172,0,0,0,1.2-1.122V11.5Z" transform="translate(-41.259 -6.205)" fill="#fff"/>
      <path id="Path_2138" data-name="Path 2138" d="M61.129,8.151a.732.732,0,1,1,.771-.737A.72.72,0,0,1,61.129,8.151Zm.636,6.419H60.54V9.059h1.225Z" transform="translate(-40.329 -6.53)" fill="#fff"/>
      <path id="Path_2139" data-name="Path 2139" d="M64.655,14.592H63.43V6.553h1.225Z" transform="translate(-39.819 -6.553)" fill="#fff"/>
      <path id="Path_2140" data-name="Path 2140" d="M69.426,14.244l-.091-.635H69.3a1.879,1.879,0,0,1-1.61.76A1.6,1.6,0,0,1,66,12.747c0-1.36,1.179-2.064,3.22-2.064v-.1c0-.726-.386-1.089-1.145-1.089a2.573,2.573,0,0,0-1.44.409l-.25-.806a3.528,3.528,0,0,1,1.894-.477c1.44,0,2.166.76,2.166,2.28v2.03a8.491,8.491,0,0,0,.078,1.316ZM69.255,11.5c-1.361,0-2.041.33-2.041,1.111a.78.78,0,0,0,.839.861,1.172,1.172,0,0,0,1.2-1.122Z" transform="translate(-39.386 -6.205)" fill="#fff"/>
      <path id="Path_2141" data-name="Path 2141" d="M74.466,14.717a1.87,1.87,0,0,1-1.733-.976h-.025l-.07.851H71.6c.034-.442.046-.942.046-1.485V6.553h1.226V9.888h.023a1.89,1.89,0,0,1,1.757-.918c1.327,0,2.258,1.135,2.258,2.789C76.9,13.469,75.872,14.717,74.466,14.717Zm-.249-4.786a1.409,1.409,0,0,0-1.35,1.463v.964A1.35,1.35,0,0,0,74.2,13.742c.917,0,1.463-.748,1.463-1.939C75.658,10.692,75.09,9.931,74.217,9.931Z" transform="translate(-38.443 -6.553)" fill="#fff"/>
      <path id="Path_2142" data-name="Path 2142" d="M78.912,14.592H77.689V6.553h1.223Z" transform="translate(-37.416 -6.553)" fill="#fff"/>
      <path id="Path_2143" data-name="Path 2143" d="M85.142,11.785H81.465A1.582,1.582,0,0,0,83.2,13.417a4.134,4.134,0,0,0,1.485-.261l.19.851a4.594,4.594,0,0,1-1.847.34,2.559,2.559,0,0,1-2.745-2.778,2.691,2.691,0,0,1,2.607-2.96,2.316,2.316,0,0,1,2.291,2.62A2.306,2.306,0,0,1,85.142,11.785Zm-1.123-.873c0-.851-.431-1.451-1.214-1.451a1.454,1.454,0,0,0-1.339,1.451Z" transform="translate(-36.979 -6.206)" fill="#fff"/>
      <path id="Path_2144" data-name="Path 2144" d="M91.176,14.369a2.623,2.623,0,0,1-2.654-2.835A2.684,2.684,0,0,1,91.268,8.62a2.6,2.6,0,0,1,2.654,2.824A2.7,2.7,0,0,1,91.176,14.369Zm.047-4.854c-.885,0-1.451.827-1.451,1.984,0,1.135.578,1.962,1.44,1.962s1.438-.885,1.438-1.985C92.65,10.354,92.084,9.515,91.222,9.515Z" transform="translate(-35.59 -6.205)" fill="#fff"/>
      <path id="Path_2145" data-name="Path 2145" d="M99.473,14.244H98.25V11.08c0-.975-.374-1.463-1.111-1.463a1.273,1.273,0,0,0-1.226,1.35v3.278H94.69V10.309c0-.487-.013-1.01-.046-1.576h1.077l.057.851h.034a1.977,1.977,0,0,1,1.746-.964c1.156,0,1.915.885,1.915,2.324v3.3Z" transform="translate(-34.559 -6.205)" fill="#fff"/>
      <path id="Path_2146" data-name="Path 2146" d="M106.117,9.833H104.77v2.676q0,1.022.713,1.021a2.423,2.423,0,0,0,.545-.057l.034.93a2.729,2.729,0,0,1-.951.137c-.965,0-1.541-.533-1.541-1.928V9.833h-.8V8.915h.8V7.905l1.2-.363V8.914h1.347Z" transform="translate(-33.19 -6.386)" fill="#fff"/>
      <path id="Path_2147" data-name="Path 2147" d="M111.874,14.592h-1.226V11.451c0-.986-.374-1.485-1.111-1.485a1.2,1.2,0,0,0-1.223,1.3v3.322h-1.226V6.553h1.226v3.31h.023a1.855,1.855,0,0,1,1.656-.9c1.167,0,1.881.907,1.881,2.348Z" transform="translate(-32.462 -6.553)" fill="#fff"/>
      <path id="Path_2148" data-name="Path 2148" d="M117.24,11.785h-3.675a1.58,1.58,0,0,0,1.734,1.632,4.129,4.129,0,0,0,1.485-.261l.192.851a4.6,4.6,0,0,1-1.849.34,2.559,2.559,0,0,1-2.745-2.778,2.691,2.691,0,0,1,2.607-2.96,2.316,2.316,0,0,1,2.291,2.62A2.368,2.368,0,0,1,117.24,11.785Zm-1.123-.873c0-.851-.43-1.451-1.213-1.451a1.453,1.453,0,0,0-1.339,1.451Z" transform="translate(-31.57 -6.206)" fill="#fff"/>
    </g>
  </g>
</svg>
