<svg xmlns="http://www.w3.org/2000/svg" xmlns:xlink="http://www.w3.org/1999/xlink" width="14" height="14" viewBox="0 0 24 24">
  <g id="Mask_Group_126" data-name="Mask Group 126" transform="translate(-1307 -914)" clip-path="url(#clip-path)">
    <g id="XMLID_228_" transform="translate(1282.125 915)">
      <path id="XMLID_229_" d="M28.8,75.191c-1.86,3.228-.678,8.125,1.379,11.1,1.027,1.485,2.066,2.818,3.49,2.818l.081,0a4.31,4.31,0,0,0,1.62-.432,4.435,4.435,0,0,1,1.918-.455,4.171,4.171,0,0,1,1.826.44,3.869,3.869,0,0,0,1.749.419c1.6-.03,2.588-1.468,3.457-2.737a12.131,12.131,0,0,0,1.515-3.1l.006-.02a.18.18,0,0,0-.1-.221l-.013-.006a4.6,4.6,0,0,1-2.786-4.21,4.732,4.732,0,0,1,2.236-3.956l.018-.011a.18.18,0,0,0,.051-.253,5.2,5.2,0,0,0-4.093-2.223c-.116-.012-.236-.017-.357-.017a7.135,7.135,0,0,0-2.569.641,4.129,4.129,0,0,1-1.23.368,4.026,4.026,0,0,1-1.273-.372,6.167,6.167,0,0,0-2.243-.57h-.057A5.5,5.5,0,0,0,28.8,75.191Z" transform="translate(0 -67.103)" fill="#343a40"/>
      <path id="XMLID_230_" d="M153.746,0a5.023,5.023,0,0,0-3.316,1.7,4.706,4.706,0,0,0-1.191,3.49.18.18,0,0,0,.165.156c.077.006.155.009.233.009a4.249,4.249,0,0,0,3.13-1.605,4.962,4.962,0,0,0,1.166-3.59A.181.181,0,0,0,153.746,0Z" transform="translate(-112.583)" fill="#343a40"/>
    </g>
  </g>
</svg>
