<svg xmlns="http://www.w3.org/2000/svg" width="268.031" height="322.087" viewBox="0 0 268.031 322.087"><defs><style>.a{opacity:0.3;}.b{opacity:0.15;}.c{fill:none;}.d{fill:#52298a;}.d,.e{fill-rule:evenodd;}.f{fill:#4c78ff;}.g{fill:#3c415e;}.h{fill:#fb7668;}.i{fill:#a67c52;}.j{fill:#00663e;}.k{fill:#c69c6d;}.l{fill:#333;}.m{fill:#00bb5f;}.n,.o{fill:#dfe2e2;}.n{opacity:0.443;}.o{opacity:0.394;}.p{fill:#ffda32;}.q{fill:#afb9ca;}.r{fill:#82ff44;}.s{fill:#738598;}.t{fill:#e25a1e;}.u{fill:#888;}.v{fill:#bebebe;}.w{fill:#fff;}</style></defs><g class="a" transform="translate(-6313.937 -1679.548)"><ellipse class="b" cx="134.015" cy="12.298" rx="134.015" ry="12.298" transform="translate(6313.937 1977.039)"/><g transform="translate(6328.818 1782.312)"><g transform="translate(0 22.385)"><g transform="translate(96.267 62.224)"><path class="c" d="M6841.92,2561.469l.135-.375.1-.3.186-.556c.12-.365.231-.719.341-1.074.218-.706.417-1.4.609-2.1.381-1.394.718-2.784,1.019-4.183a80.712,80.712,0,0,0,1.356-8.491l-17-1.766a63.437,63.437,0,0,1-1.065,6.663c-.236,1.1-.5,2.2-.8,3.275-.147.536-.3,1.069-.459,1.586l-.239.755-.118.355-.083.235Z" transform="translate(-6825.912 -2542.627)"/><path class="d" d="M6872.6,2554.351l1.687.274c.15-.953.29-1.908.4-2.867l-1.7-.2C6872.885,2552.488,6872.749,2553.42,6872.6,2554.351Z" transform="translate(-6862.466 -2549.615)"/><path class="d" d="M6868.042,2577.37l1.663.392c.225-.938.423-1.882.609-2.829l-1.678-.326C6868.456,2575.531,6868.261,2576.453,6868.042,2577.37Z" transform="translate(-6858.896 -2567.664)"/><path class="e" d="M6861.858,2599.977l1.626.526c.3-.925.568-1.852.822-2.785l-1.649-.446C6862.41,2598.18,6862.147,2599.084,6861.858,2599.977Z" transform="translate(-6854.054 -2585.409)"/></g><g transform="translate(98.717 46.338)"><path class="c" d="M6854.5,2487.107a70.257,70.257,0,0,0,.371-8.728,58.4,58.4,0,0,0-.847-8.924l-16.832,2.936a47.492,47.492,0,0,1,.313,12.949Z" transform="translate(-6837.193 -2469.456)"/><path class="d" d="M6874.37,2483.671l1.7-.154c-.033-.484-.1-.966-.153-1.448s-.123-.964-.194-1.445l-1.689.252c.068.464.141.927.188,1.395S6874.339,2483.2,6874.37,2483.671Z" transform="translate(-6866.037 -2478.199)"/><path class="d" d="M6876.338,2507.459l1.709.006c0-.484,0-.968-.012-1.452s-.019-.969-.05-1.452l-1.707.08c.031.469.034.939.048,1.408S6876.339,2506.989,6876.338,2507.459Z" transform="translate(-6867.793 -2496.939)"/><path class="d" d="M6875.5,2530.962l1.7.147.109-1.445.076-1.448-1.708-.071-.074,1.41Z" transform="translate(-6867.188 -2515.404)"/></g><g transform="translate(95.164 27.717)"><path class="c" d="M6841.214,2402.3c-.135-.749-.268-1.5-.442-2.245-.083-.374-.162-.748-.253-1.121l-.291-1.12c-.176-.726-.446-1.544-.688-2.323-.113-.389-.279-.8-.424-1.2s-.292-.8-.465-1.2l-.543-1.216c-.1-.2-.176-.4-.286-.607l-.324-.613-.327-.61c-.112-.2-.214-.4-.347-.609q-.379-.611-.771-1.214c-.066-.1-.129-.2-.2-.3l-.22-.3-.446-.595-.453-.59c-.151-.2-.33-.385-.5-.576-.342-.379-.674-.762-1.037-1.125s-.754-.713-1.138-1.062l-11.234,12.874a3.2,3.2,0,0,0,.268.247c.089.088.168.2.259.29a1.707,1.707,0,0,1,.135.147q.062.089.126.176c.042.057.087.114.132.17l.068.084c.021.032.041.069.062.1.083.138.169.273.26.406a1.661,1.661,0,0,1,.125.226l.124.236.13.234a2.83,2.83,0,0,1,.119.261c.078.18.159.358.241.535s.147.4.224.59.159.384.22.612l.2.652c.034.113.072.206.1.336l.1.369.194.737c.059.249.11.5.167.751.12.5.207,1.011.3,1.521Z" transform="translate(-6820.83 -2383.681)"/><path class="d" d="M6850.212,2416.7l1.426-.942-.2-.32-.229-.306-.46-.609a6.9,6.9,0,0,0-.5-.583l-.513-.57-1.226,1.191.456.508a5.821,5.821,0,0,1,.441.521l.413.547.206.273Z" transform="translate(-6842.502 -2406.922)"/><path class="d" d="M6862.438,2437.249l1.612-.567c-.177-.463-.34-.931-.53-1.39-.206-.454-.4-.913-.619-1.363l-1.53.76c.2.415.381.841.572,1.261S6862.272,2436.816,6862.438,2437.249Z" transform="translate(-6852.57 -2423.02)"/><path class="d" d="M6869.923,2460.024l1.675-.337-.314-1.427c-.107-.475-.242-.945-.361-1.417l-1.649.448c.115.454.244.9.348,1.361Z" transform="translate(-6858.756 -2440.96)"/></g><g transform="translate(85.714 21.835)"><path class="c" d="M6797.984,2362.47a23.046,23.046,0,0,0-5.19-3.385c-.457-.214-.917-.4-1.38-.586-.23-.09-.464-.193-.693-.27l-.689-.226-.69-.219c-.231-.073-.463-.145-.687-.195q-.68-.167-1.36-.324c-.112-.025-.228-.055-.339-.075l-.331-.058-.664-.111c-.438-.069-.892-.155-1.314-.19l-1.287-.129-.322-.03-.312-.015-.622-.028c-.413-.016-.838-.042-1.241-.042l-1.206.009-.6.007c-.2.006-.39.019-.586.028l-1.167.064,1.165,17.046.748-.041c.124-.006.252-.017.373-.021h.356l.714-.008c.235,0,.45.02.677.026l.336.013.168.005.156.017.622.063a5.522,5.522,0,0,1,.583.086l.284.044.142.021c.047.008.086.021.129.032q.252.066.508.12a1.24,1.24,0,0,1,.235.068l.224.073.225.067a2.048,2.048,0,0,1,.2.083c.126.059.266.1.388.158a6.051,6.051,0,0,1,1.22.793Z" transform="translate(-6777.3 -2356.588)"/><path class="d" d="M6787.862,2392.6l.086-1.707c-.987-.059-1.969-.042-2.947-.013l.067,1.708C6786,2392.565,6786.935,2392.548,6787.862,2392.6Z" transform="translate(-6783.329 -2383.418)"/><path class="d" d="M6811,2394.3l.483-1.639a7.4,7.4,0,0,0-.73-.2l-.733-.174c-.244-.066-.492-.092-.738-.137l-.739-.122-.239,1.692.683.113c.227.042.459.065.681.126l.67.16A6.209,6.209,0,0,1,6811,2394.3Z" transform="translate(-6801.571 -2384.333)"/><path class="d" d="M6832.406,2401.67l1.01-1.379a6.329,6.329,0,0,0-.636-.435l-.65-.413c-.22-.131-.451-.24-.678-.36s-.452-.242-.686-.344l-.708,1.556c.209.09.406.206.609.307s.408.2.6.318l.574.366A5.112,5.112,0,0,1,6832.406,2401.67Z" transform="translate(-6818.604 -2389.589)"/></g><g transform="translate(68.916 21.944)"><path class="c" d="M6716.723,2357.089a64.771,64.771,0,0,0-8.736,1.253c-2.773.576-5.443,1.265-8.061,2.006l4.68,16.433c2.307-.653,4.6-1.24,6.836-1.705a47.979,47.979,0,0,1,6.446-.94Z" transform="translate(-6699.926 -2357.089)"/><path class="d" d="M6717.581,2401.93l-.413-1.658c-.935.224-1.857.48-2.783.73l.454,1.647C6715.75,2402.4,6716.663,2402.15,6717.581,2401.93Z" transform="translate(-6711.246 -2390.897)"/><path class="d" d="M6740.6,2396.817l-.313-1.68-1.419.28c-.475.089-.94.206-1.41.307l.373,1.668c.461-.1.92-.215,1.383-.3Z" transform="translate(-6729.309 -2386.877)"/><path class="d" d="M6763.9,2393.442l-.161-1.7c-.972.079-1.929.225-2.89.352l.256,1.689C6762.041,2393.66,6762.97,2393.517,6763.9,2393.442Z" transform="translate(-6747.626 -2384.218)"/></g><g transform="translate(53.751 25.203)"><path class="c" d="M6645.239,2372.1c-5.226,1.492-10.23,3.214-15.165,5.006l5.857,16.051c4.685-1.7,9.368-3.307,13.987-4.624Z" transform="translate(-6630.074 -2372.102)"/><path class="d" d="M6650.012,2422.767l-.564-1.613-1.352.473-1.345.485.581,1.607,1.337-.483Z" transform="translate(-6643.13 -2410.505)"/><path class="d" d="M6672.3,2415.19l-.53-1.625c-.91.289-1.811.6-2.717.905l.551,1.618C6670.5,2415.788,6671.4,2415.476,6672.3,2415.19Z" transform="translate(-6660.591 -2404.563)"/><path class="d" d="M6694.7,2408.2l-.481-1.639c-.922.259-1.83.556-2.746.832l.51,1.631C6692.892,2408.75,6693.793,2408.456,6694.7,2408.2Z" transform="translate(-6678.146 -2399.079)"/></g><g transform="translate(39.61 30.209)"><path class="c" d="M6579.079,2395.162l-3.56,1.287c-1.18.419-2.36.841-3.538,1.246s-2.354.8-3.529,1.2c-1.172.381-2.348.772-3.514,1.131l5.1,16.306c1.279-.394,2.532-.811,3.794-1.221s2.5-.838,3.738-1.272,2.473-.866,3.7-1.3l3.66-1.324Z" transform="translate(-6564.938 -2395.162)"/><path class="d" d="M6583.364,2446.288l-.539-1.622-2.7.88.52,1.628Z" transform="translate(-6576.83 -2433.919)"/><path class="d" d="M6605.634,2438.684l-.566-1.613-2.685.929.553,1.617Z" transform="translate(-6594.253 -2427.973)"/><path class="d" d="M6627.724,2430.78l-.585-1.606c-.893.321-1.781.651-2.675.966l.574,1.609C6625.937,2431.433,6626.829,2431.1,6627.724,2430.78Z" transform="translate(-6611.541 -2421.79)"/></g><g transform="translate(26.023 35.074)"><path class="c" d="M6515.939,2417.571c-2.335.729-4.662,1.417-6.944,2a67.509,67.509,0,0,1-6.644,1.388l2.5,16.9a84.156,84.156,0,0,0,8.383-1.738c2.678-.683,5.261-1.448,7.811-2.245Z" transform="translate(-6502.351 -2417.571)"/><path class="d" d="M6515.52,2465.487l-.355-1.672c-.457.107-.917.185-1.375.277l-.688.134-.688.115.284,1.685.71-.119.705-.137C6514.581,2465.675,6515.055,2465.6,6515.52,2465.487Z" transform="translate(-6510.228 -2453.776)"/><path class="d" d="M6538.292,2459.966l-.444-1.65-1.364.361-1.368.337.4,1.661,1.392-.342Z" transform="translate(-6528.002 -2449.47)"/><path class="d" d="M6560.8,2453.5l-.5-1.634c-.9.267-1.807.548-2.714.8l.472,1.643C6558.974,2454.052,6559.883,2453.769,6560.8,2453.5Z" transform="translate(-6545.592 -2444.42)"/></g><g transform="translate(6.918 38.077)"><path class="c" d="M6433.454,2431.787c-1.042.14-2.078.272-3.009.308l-.354.02-.177.01h-.165l-.656,0a2.75,2.75,0,0,1-.311-.01l-.3-.015-.3-.012c-.094-.007-.177-.022-.266-.031l-.263-.028a1.76,1.76,0,0,1-.25-.031c-.146-.031-.295-.058-.444-.079-.128-.033-.238-.071-.361-.1-.028-.007-.063-.011-.088-.021l-.066-.029c-.044-.018-.089-.034-.135-.048a1.732,1.732,0,0,1-.581-.324l-11.384,12.742q.335.3.678.593.356.272.72.538c.242.177.487.351.732.521s.5.308.755.459.51.3.767.439.512.253.77.378a16.123,16.123,0,0,0,1.548.656l.77.272.387.131c.128.041.25.071.375.106.5.133,1,.27,1.5.383q.721.139,1.443.264c.246.047.47.067.7.1l.691.078c.229.024.464.052.688.069l.66.036.66.032c.221.01.442.022.648.018l1.263,0,.315,0,.3-.014.6-.031c1.627-.074,3.133-.263,4.626-.468Z" transform="translate(-6414.349 -2431.404)"/><path class="d" d="M6445.716,2462.607l.581-1.607a10.751,10.751,0,0,1-1.184-.5c-.19-.1-.367-.212-.552-.315l-.274-.159c-.088-.06-.171-.124-.256-.186l-.984,1.4c.1.074.2.15.308.221l.326.191c.219.124.432.26.655.372A12.319,12.319,0,0,0,6445.716,2462.607Z" transform="translate(-6436.817 -2453.666)"/><path class="d" d="M6468.749,2469.632l.061-1.708c-.45-.028-.905-.029-1.348-.092l-.667-.074c-.221-.029-.436-.077-.654-.114l-.312,1.68c.243.042.484.094.729.126l.729.081C6467.775,2469.6,6468.262,2469.6,6468.749,2469.632Z" transform="translate(-6454.652 -2459.777)"/><path class="d" d="M6492.44,2469.446l-.207-1.7c-.461.069-.92.1-1.38.145s-.917.069-1.376.093l.079,1.707c.483-.026.968-.044,1.446-.1S6491.965,2469.518,6492.44,2469.446Z" transform="translate(-6473.167 -2459.859)"/></g><g transform="translate(0 25.903)"><path class="c" d="M6400.786,2387.5a2.369,2.369,0,0,1-.483-.664c-.047-.113-.107-.206-.163-.327-.05-.138-.105-.274-.165-.408a.535.535,0,0,1-.041-.113l-.039-.124-.08-.246-.043-.122-.022-.061-.012-.05c-.016-.065-.033-.129-.052-.193a3.77,3.77,0,0,1-.1-.58c-.01-.14-.011-.206-.01-.183.007,0,0,0,0,0l-14.463-9.1a16.874,16.874,0,0,0-2.517,7.178c-.03.318-.058.637-.079.956s-.021.619-.025.929.008.6.02.9.027.589.058.867a20.9,20.9,0,0,0,.55,3.2l.2.734.051.182.053.167.108.333.219.666.111.332c.036.109.076.221.124.337q.272.688.559,1.369c.208.461.452.933.686,1.395l.181.347.21.353.428.7a15.878,15.878,0,0,0,.968,1.385c.177.228.338.457.532.678s.392.442.591.66.4.435.609.645.439.408.663.608Z" transform="translate(-6382.484 -2375.327)"/><path class="d" d="M6419.248,2402.645l1.7.164a7.159,7.159,0,0,1,.633-2.386l-1.555-.711A8.832,8.832,0,0,0,6419.248,2402.645Z" transform="translate(-6411.266 -2394.417)"/><path class="d" d="M6420.238,2426.308l1.616-.556a12.857,12.857,0,0,1-.637-2.55l-1.694.229A14.658,14.658,0,0,0,6420.238,2426.308Z" transform="translate(-6411.482 -2412.809)"/><path class="d" d="M6428.665,2447.043l1.28-1.133-.215-.234-.191-.257c-.125-.172-.257-.339-.38-.514l-.338-.553c-.055-.093-.116-.181-.166-.277l-.146-.293-1.519.784.167.332c.059.11.128.214.191.321l.391.638c.144.2.3.4.447.6l.226.3Z" transform="translate(-6417.328 -2428.921)"/></g><g transform="translate(2.624 14.979)"><path class="c" d="M6409.031,2345.034s0,0,0,0,.015-.01.016-.019.024-.027.039-.046a.351.351,0,0,0,.022-.031q.021-.017.038-.035a3.313,3.313,0,0,1,.442-.385,8.371,8.371,0,0,1,.759-.5c.306-.176.646-.357,1.021-.536a23.172,23.172,0,0,1,2.6-1.014c.953-.316,1.981-.6,3.049-.864l-4.063-16.6c-1.418.347-2.857.744-4.334,1.232a39.931,39.931,0,0,0-4.546,1.793c-.779.37-1.573.784-2.374,1.25a25.5,25.5,0,0,0-2.435,1.625,20.356,20.356,0,0,0-2.43,2.154l-.3.31-.292.331c-.194.223-.385.438-.577.689s-.38.48-.562.746-.365.526-.536.8Z" transform="translate(-6394.569 -2325.007)"/><path class="d" d="M6470.079,2362.652l.541,1.621c.876-.292,1.767-.554,2.666-.793l-.439-1.652C6471.918,2362.075,6471,2362.347,6470.079,2362.652Z" transform="translate(-6453.686 -2353.834)"/><path class="d" d="M6447.989,2370.543l.827,1.5a23.043,23.043,0,0,1,2.457-1.167l-.647-1.582A24.8,24.8,0,0,0,6447.989,2370.543Z" transform="translate(-6436.391 -2359.676)"/><path class="d" d="M6428.89,2382.842l1.314,1.092a11.067,11.067,0,0,1,1.889-1.755l-1.017-1.374A12.789,12.789,0,0,0,6428.89,2382.842Z" transform="translate(-6421.438 -2368.691)"/></g><g transform="translate(21.006 12.311)"><path class="c" d="M6483.308,2331.981c2.14-.524,4.438-.946,6.812-1.313s4.828-.68,7.359-1l-2.121-16.954c-2.547.318-5.172.65-7.854,1.066s-5.426.91-8.259,1.6Z" transform="translate(-6479.244 -2312.717)"/><path class="d" d="M6539.781,2350.018l.227,1.694,2.817-.365-.213-1.7Z" transform="translate(-6526.639 -2341.633)"/><path class="d" d="M6516.4,2353.221l.281,1.686q1.392-.231,2.794-.433l-.246-1.691Q6517.815,2352.988,6516.4,2353.221Z" transform="translate(-6508.334 -2344.084)"/><path class="d" d="M6493.207,2357.194l.376,1.667q1.368-.31,2.753-.568l-.316-1.679Q6494.609,2356.879,6493.207,2357.194Z" transform="translate(-6490.176 -2347.084)"/></g><g transform="translate(37.12 9.811)"><path class="c" d="M6555.589,2320.656l3.877-.495.5-.067.253-.034.364-.061q.731-.125,1.458-.264c.49-.109.986-.247,1.477-.378s.984-.306,1.475-.481a21.432,21.432,0,0,0,5.6-3.029,22.1,22.1,0,0,0,4.377-4.438l-13.7-10.207a5.023,5.023,0,0,1-.984,1.021,4.365,4.365,0,0,1-1.133.6,6.424,6.424,0,0,1-.729.218c-.146.02-.289.044-.432.074l-.107.023-.224.03-.451.062-3.738.476Z" transform="translate(-6553.469 -2301.202)"/><path class="d" d="M6606.4,2328.78l1.016,1.375c.212-.148.4-.321.605-.481a7.141,7.141,0,0,0,.583-.508l.556-.535c.176-.187.345-.38.517-.571l-1.287-1.125c-.152.168-.3.34-.455.506l-.491.471a6,6,0,0,1-.513.445C6606.754,2328.5,6606.587,2328.652,6606.4,2328.78Z" transform="translate(-6594.909 -2321.348)"/><path class="d" d="M6586.169,2341.5l.419,1.657.741-.2c.245-.073.484-.169.727-.253l.363-.131.181-.066.176-.08.7-.323-.755-1.533-.617.284-.153.072-.16.058-.321.115c-.215.074-.424.16-.643.225Z" transform="translate(-6579.07 -2332.025)"/><path class="d" d="M6563.324,2347.024l.213,1.7,2.836-.366-.228-1.694Z" transform="translate(-6561.185 -2336.791)"/></g><g transform="translate(44.919)"><path class="c" d="M6603.094,2276.029a25.777,25.777,0,0,0,2.873-4.963,31.534,31.534,0,0,0,1.708-4.979,37.041,37.041,0,0,0,.9-4.885c.1-.81.166-1.619.211-2.443.012-.205.021-.412.028-.621s.016-.417.02-.633.006-.435.006-.658l0-.356,0-.2-.009-.279-17.07.732,0-.054v.177l0,.3c0,.1-.006.214-.011.325s-.008.223-.015.337c-.025.454-.063.921-.12,1.381a20.121,20.121,0,0,1-.485,2.662,11.455,11.455,0,0,1-1.725,3.949Z" transform="translate(-6589.392 -2256.011)"/><path class="e" d="M6635.813,2265.63l1.7.207q.179-1.465.223-2.945l-1.708-.045C6636,2263.774,6635.926,2264.705,6635.813,2265.63Z" transform="translate(-6625.735 -2261.362)"/><path class="d" d="M6631.029,2288.439l1.63.515a26.485,26.485,0,0,0,.733-2.876l-1.676-.335A24.616,24.616,0,0,1,6631.029,2288.439Z" transform="translate(-6621.989 -2279.288)"/><path class="d" d="M6621.651,2310.026l1.442.916a20.827,20.827,0,0,0,1.4-2.675l-1.568-.678A19.2,19.2,0,0,1,6621.651,2310.026Z" transform="translate(-6614.647 -2296.391)"/></g></g><g transform="translate(44.156)"><path class="f" d="M6585.877,2169.133l6.479,3.166,23.973-19.4Z" transform="translate(-6585.877 -2152.902)"/><path class="g" d="M6621.292,2182.246l-5.573-9.947,23.974-19.4-18.106,22.076Z" transform="translate(-6609.24 -2152.902)"/><path class="f" d="M6653.256,2179.358l-10.512-4.382,18.105-22.075Z" transform="translate(-6630.398 -2152.901)"/></g></g><g transform="translate(6382.54 1805.497)"><path class="g" d="M6629.937,2327.669c0,56.208,67.974,114.378,67.974,114.378s67.973-62.091,67.973-114.378a67.973,67.973,0,1,0-135.946,0Z" transform="translate(-6629.937 -2259.696)"/><circle class="h" cx="30.392" cy="30.392" r="30.392" transform="translate(24.993 66.339) rotate(-45)"/></g><g transform="translate(6427.617 1720.071)"><path class="i" d="M6916.118,1950.595a19.81,19.81,0,0,1-.585-2.91h-4.014v2.973Z" transform="translate(-6895.465 -1929.996)"/><path class="j" d="M6840.1,1866.206a7.32,7.32,0,0,0-2.527,4.906S6840.842,1871.855,6840.1,1866.206Z" transform="translate(-6837.571 -1866.206)"/><path class="g" d="M6883.587,2065.454l-1.783,15.608,8.026,23.486h-4.014l-9.3-20a5.528,5.528,0,0,1-.516-2.329l-.742-6.062-1.636,6.838.893,21.554h-3.568l-4.31-23.5a6.339,6.339,0,0,1,.233-3.186l4.226-12.41Z" transform="translate(-6860.25 -2022.198)"/><path class="f" d="M6881.307,1977.541h-15.014l1.635-16.351-6.392-2.825,4.014-5.2,10.234,1.418a5.729,5.729,0,0,1,4.939,5.485Z" transform="translate(-6856.333 -1934.285)"/><path class="k" d="M6906.188,1917.485a11.657,11.657,0,0,1-2.824-1.932c-.744-.892,1.04-5.2,2.824-6.243s4.757-1.189,4.757.594,1.486,4.757,0,5.5S6909.012,1917.634,6906.188,1917.485Z" transform="translate(-6888.945 -1899.35)"/><path class="l" d="M6916.811,1894.747s-2.379-2.973-.892-5.946a3.585,3.585,0,0,0,2.526,1.932c1.933.446,4.143.873,4.905,2.973,1.19,3.27,1.26,7-5.2,7.878,0,0,2.675-2.378,2.081-4.013S6917.852,1895.639,6916.811,1894.747Z" transform="translate(-6898.527 -1883.896)"/><path class="m" d="M6854.518,1876.165l-14.419-9.959s-.743,4.013-2.527,4.906Z" transform="translate(-6837.571 -1866.206)"/><g transform="translate(1.76 2.973)"><path class="k" d="M6845.682,1896.946l1.156-14.019-.006,0,.012-.065.008-.092.007,0c.405-2.342,1.379-2.87,1.815-2.87a1.744,1.744,0,0,1,1.338,1.486c.139.835-.834,2.278-.959,2.459l.066,11.216,4.014.743-3.567,4.608-1.99-.663A2.778,2.778,0,0,1,6845.682,1896.946Z" transform="translate(-6845.677 -1879.9)"/><path class="k" d="M6882.847,1902.722l.667,11.038-3.49-.484.548-11.061Z" transform="translate(-6872.567 -1897.371)"/></g><path class="l" d="M6944.1,2245.53h-4.014l-3.972,3.113a.67.67,0,0,0,.413,1.2h6.9a.671.671,0,0,0,.67-.67Z" transform="translate(-6914.518 -2163.179)"/><path class="l" d="M6873.64,2245.53h-3.567l-4.373,3.094a.67.67,0,0,0,.387,1.217h6.884a.67.67,0,0,0,.67-.67Z" transform="translate(-6859.37 -2163.179)"/></g><path class="n" d="M7196.446,2040.093a6.154,6.154,0,0,1-6.183-6.07v-.067a12.9,12.9,0,0,1,12.438-12.888,26.547,26.547,0,0,1,48.154,3.694,12.9,12.9,0,0,1,8.042,11.95v.035a3.352,3.352,0,0,1-3.352,3.346Z" transform="translate(-686.078 -257.562)"/><path class="o" d="M6857.551,1720.082a7.9,7.9,0,0,1-7.94-7.8v-.086a16.564,16.564,0,0,1,15.974-16.552,34.094,34.094,0,0,1,61.844,4.743,16.569,16.569,0,0,1,10.328,15.348v.045a4.3,4.3,0,0,1-4.3,4.3Z" transform="translate(-419.38 0)"/><g transform="translate(6506.095 1882.7)"><path class="k" d="M7278.222,2752.071l-14.348-1.339s-3.444-1.722-6.123,0-2.869,3.061-2.1,3.252,3.062-2.1,4.209-1.914c.452.075.519.387.434.737a.666.666,0,0,0,.8.82l2.4-.6,6.123,2.182,6.887.879Z" transform="translate(-7243.057 -2720.733)"/><path class="p" d="M7344.127,2692.535s-7,10.651-3.943,17.538,4.592,5.548,4.592,5.548,8.034.191,9.757.191-.383-11.862-1.531-13.2S7344.127,2692.535,7344.127,2692.535Z" transform="translate(-7308.939 -2675.769)"/><path class="k" d="M7336.321,2645.968s-5.74.174-4.947-7.77a3.434,3.434,0,0,1,1.836-2.741,3.508,3.508,0,0,1,3.111-.011c3.061,1.339,4.782,2.87,4.591,5.166S7336.321,2645.968,7336.321,2645.968Z" transform="translate(-7302.59 -2630.795)"/><path class="l" d="M7335.294,2621.3s-2.869-.192-.383-4.783c1.681-3.1,9.375.191,9.758,5.165s1.147,8.8,4.209,10.331,4.4,11.1,6.122,11.287-6.7,3.444-8.992,3.444.287-3.54-2.965-8.705-5.166-9.757-4.019-11.479c.375-.562.75-1.145,1.085-1.674a1.534,1.534,0,0,0-.975-2.322A15.77,15.77,0,0,1,7335.294,2621.3Z" transform="translate(-7304.625 -2615.309)"/><path class="g" d="M7352.253,2860.4h3.061s4.782-25.445,4.209-35.2,1.567-25.373,1.567-25.373l-7.116-.072s-2.965,12.531-1.817,20.375S7352.253,2860.4,7352.253,2860.4Z" transform="translate(-7318.713 -2759.713)"/><path class="g" d="M7368.311,2860.152h3.062s2.3-10.9,1.146-19.322-1.339-15.114.384-21.618,3.443-14.54-1.53-19.9H7361.04s.288,17.123,3.349,28.41S7368.311,2860.152,7368.311,2860.152Z" transform="translate(-7325.875 -2759.367)"/><path class="l" d="M7332.662,3078.664l-5.72,4.132a.465.465,0,0,0,.272.842h7.87a.465.465,0,0,0,.465-.447l.174-4.527Z" transform="translate(-7299.027 -2978.071)"/><path class="l" d="M7377.286,3078.224l-5.061,3.655a.412.412,0,0,0,.241.745h6.962a.412.412,0,0,0,.411-.4l.154-4Z" transform="translate(-7334.498 -2977.726)"/><path class="k" d="M7269.031,2719.349s-2.488-1.339-3.253,3.252-1.722,8.417-1.722,8.417l-24.488.957s-2.009,1.052,6.5,2.1c7.177.887,16.5.318,19.6.085a1.991,1.991,0,0,0,1.6-1.03C7268.776,2730.4,7272.644,2722.491,7269.031,2719.349Z" transform="translate(-7230.613 -2696.62)"/><path class="q" d="M7220.834,2730.542h0a.479.479,0,0,0-.479-.478h-13.488l-6.857-11.863a.509.509,0,0,0-.63-.218h0a.509.509,0,0,0-.25.729l7.164,12.308h14.062A.479.479,0,0,0,7220.834,2730.542Z" transform="translate(-7199.061 -2695.664)"/></g><g transform="translate(6441.404 1920.495)"><path class="p" d="M6849.883,2842.7c-1.8-.274-3.76.768-5.356,1.469-.171.075-.53.272-.9.47q.957-1.095,1.927-2.177c.429-.479.865-.954,1.3-1.431.467.073,1.444-.095,2.562.031,1.319.148,1.879.665,3.085-.338,1.136-.946,1.616-2.594-.181-2.865-1.527-.231-2.942.766-4.206,1.774a27.368,27.368,0,0,0,3.532-4.785c4.748-2.406,7-9.463,6.327-14.383a2.221,2.221,0,0,0-.506-1.311c-.733-.731-2.022-.218-2.709.556a7.075,7.075,0,0,0-1.543,3.991c-.154,1.441-.064,2.9-.138,4.345a16.319,16.319,0,0,1-.609,3.47.267.267,0,0,0-.038.059,19.748,19.748,0,0,1-3.108,5.062,15.63,15.63,0,0,0,.773-3.49,8.518,8.518,0,0,0-.957-5.4,1.179,1.179,0,0,0-.76-.654c-.431-.06-.793.317-1.029.682a6.149,6.149,0,0,0-.878,4.4c.354,1.928,1.379,3.7,1.812,5.608a.571.571,0,0,0,.071-.009c-.784.89-1.6,1.753-2.422,2.606a13.133,13.133,0,0,0,.135-4.377,3.6,3.6,0,0,0-.86-1.9,1.7,1.7,0,0,0-1.929-.414,1.775,1.775,0,0,0-.771.929,5.544,5.544,0,0,0,.376,3.839c.436,1.24.822,2.527,1.311,3.752l-.291.312q-2.083,2.271-4.107,4.6a22.471,22.471,0,0,0,1.031-3.308,13.323,13.323,0,0,0-.111-6.883,4.843,4.843,0,0,0-1.4-2.328,1.043,1.043,0,0,0-1.013-.284,1.094,1.094,0,0,0-.444.4,5.13,5.13,0,0,0-.672,3.642,38.278,38.278,0,0,0,1.565,5.74,11.176,11.176,0,0,1,.585,3.546q-2.082,2.422-4.059,4.931a23.535,23.535,0,0,0,1.593-6.484c.221-1.824.035-3.939-1.41-5.075a1.722,1.722,0,0,0-.71-.359c-.821-.166-1.571.581-1.854,1.371a5.218,5.218,0,0,0,.062,3.165c.3,1.031.76,2.007,1.081,3.03a13.423,13.423,0,0,1,.379,5.458q-1.509,1.962-2.941,3.984a18.525,18.525,0,0,0,.418-2.683,12.9,12.9,0,0,0-.705-5.485c-.215-.592-.555-1.239-1.168-1.377a1.687,1.687,0,0,0-1.461.582,4.469,4.469,0,0,0-1.28,3.842,8.778,8.778,0,0,0,.968,2.537l1.271,2.518a6.015,6.015,0,0,1,.623,2q-1.535,2.266-2.948,4.608a15.775,15.775,0,0,0,.436-2.235,8.583,8.583,0,0,0-.771-4.986,2.163,2.163,0,0,0-1.234-1.186,1.685,1.685,0,0,0-1.884,1.24,3.575,3.575,0,0,0,.321,2.42,8.558,8.558,0,0,0,1.215,1.974,6.771,6.771,0,0,1,.986,1.326,4.9,4.9,0,0,1,.332,2.008c0,.14.006.283.009.426-.725,1.227-1.445,2.479-2.128,3.753a8.685,8.685,0,0,0-1.158-4.433c-.456-.781-1.263-1.568-2.136-1.333a1.38,1.38,0,0,0-.7.471,2.443,2.443,0,0,0,.229,2.872c.608.836,1.485,1.437,2.153,2.226a14.742,14.742,0,0,1,.841,1.679,41.556,41.556,0,0,0-2.612,6.292.5.5,0,0,0,.942.355c.8-1.539,1.563-3.086,2.337-4.626a44.452,44.452,0,0,0,4.548,1.161,2.049,2.049,0,0,0,2.252-.584,1.7,1.7,0,0,0-.465-2.141,3.314,3.314,0,0,0-2.268-.6,11.485,11.485,0,0,0-3.514,1.073c.8-1.579,1.622-3.147,2.5-4.692a6.517,6.517,0,0,1,1.556.007c.819.149,1.582.535,2.4.668a2.091,2.091,0,0,0,2.2-.8,1.822,1.822,0,0,0-1.11-2.385,4.006,4.006,0,0,0-2.9.272c-.29.12-.708.282-1.126.486.074-.124.146-.25.222-.373q.621-1.01,1.266-2a23.639,23.639,0,0,0,3.749-.086,7.007,7.007,0,0,0,3.188-.341,2.039,2.039,0,0,0,1.141-2.641,2.443,2.443,0,0,0-2.633-.783,11.778,11.778,0,0,0-4.17,1.917q1.406-2.088,2.9-4.119c1.876-.223,4.3,1.225,6.317.5.813-.291,1.933-1.226,1.523-2.264-.322-.817-1.72-.878-2.451-.945a7.761,7.761,0,0,0-4.085.946q.6-.792,1.2-1.579.779-1.011,1.578-2.008a14.785,14.785,0,0,1,3.1.119c1.482.243,3.034.82,4.225-.537,1.089-1.241,1.584-3.824-.7-3.687a11.481,11.481,0,0,0-4.828,1.883q1.562-1.892,3.171-3.745a13.409,13.409,0,0,1,3.7.493c1.3.444,2.869,1.679,4.072.57A1.971,1.971,0,0,0,6849.883,2842.7Z" transform="translate(-6789.916 -2812.416)"/><path class="p" d="M6947.4,2814c-1.748.524-3.067,2.3-4.212,3.621-.122.141-.362.473-.614.811q.4-1.4.809-2.792c.184-.617.374-1.233.563-1.851.452-.134,1.266-.7,2.328-1.069,1.256-.432,1.982-.2,2.642-1.627.623-1.341.351-3.037-1.389-2.513-1.479.446-2.331,1.953-3.042,3.4a27.262,27.262,0,0,0,1.143-5.837c3.26-4.208,2.276-11.55-.441-15.706a2.218,2.218,0,0,0-1.019-.967c-.975-.347-1.92.669-2.21,1.662a7.076,7.076,0,0,0,.315,4.267c.478,1.369,1.182,2.646,1.736,3.986a16.387,16.387,0,0,1,.936,3.4.263.263,0,0,0-.009.07,19.727,19.727,0,0,1-.643,5.905,15.656,15.656,0,0,0-.794-3.485,8.531,8.531,0,0,0-3.177-4.468,1.182,1.182,0,0,0-.967-.265c-.415.131-.58.626-.638,1.058a6.143,6.143,0,0,0,1.091,4.352c1.146,1.591,2.828,2.749,4.038,4.293a.539.539,0,0,0,.061-.04c-.327,1.14-.7,2.271-1.072,3.393a13.161,13.161,0,0,0-1.752-4.014,3.615,3.615,0,0,0-1.591-1.345,1.7,1.7,0,0,0-1.921.452,1.788,1.788,0,0,0-.3,1.171,5.539,5.539,0,0,0,1.985,3.307c.925.934,1.824,1.932,2.79,2.83-.043.136-.087.271-.129.406q-.91,2.945-1.742,5.917a22.6,22.6,0,0,0-.484-3.431,13.33,13.33,0,0,0-3.048-6.173,4.852,4.852,0,0,0-2.259-1.507,1.042,1.042,0,0,0-1.036.177,1.1,1.1,0,0,0-.231.55,5.133,5.133,0,0,0,.952,3.579,38.253,38.253,0,0,0,3.873,4.517,11.152,11.152,0,0,1,2.048,2.953q-.844,3.081-1.557,6.194a23.484,23.484,0,0,0-1.338-6.542c-.581-1.743-1.655-3.574-3.447-3.982a1.724,1.724,0,0,0-.795-.021,1.827,1.827,0,0,0-1.088,2.033,5.209,5.209,0,0,0,1.411,2.833c.709.8,1.545,1.489,2.274,2.276a13.4,13.4,0,0,1,2.68,4.77q-.523,2.419-.951,4.858a18.633,18.633,0,0,0-.772-2.6,12.916,12.916,0,0,0-2.986-4.656,1.932,1.932,0,0,0-1.645-.745,1.69,1.69,0,0,0-1.072,1.151,4.471,4.471,0,0,0,.489,4.02,8.783,8.783,0,0,0,1.961,1.878l2.227,1.731a5.994,5.994,0,0,1,1.419,1.54q-.416,2.7-.689,5.426a16.024,16.024,0,0,0-.564-2.205,8.58,8.58,0,0,0-2.832-4.177,2.162,2.162,0,0,0-1.623-.542,1.686,1.686,0,0,0-1.171,1.928,3.573,3.573,0,0,0,1.327,2.05,8.543,8.543,0,0,0,1.943,1.263,6.789,6.789,0,0,1,1.458.775,4.9,4.9,0,0,1,1.16,1.672c.063.125.127.253.19.38-.13,1.42-.244,2.859-.315,4.3a8.669,8.669,0,0,0-2.946-3.51c-.746-.511-1.812-.876-2.5-.291a1.384,1.384,0,0,0-.431.725,2.443,2.443,0,0,0,1.437,2.5c.907.5,1.958.663,2.9,1.09.541.244.994.856,1.479,1.157a41.41,41.41,0,0,0,.335,6.805.5.5,0,0,0,1-.083c.06-1.731.091-3.458.131-5.182a44.274,44.274,0,0,0,4.607-.9,2.048,2.048,0,0,0,1.784-1.493,1.7,1.7,0,0,0-1.338-1.736,3.311,3.311,0,0,0-2.307.425,11.478,11.478,0,0,0-2.716,2.475c.049-1.77.118-3.538.246-5.309a6.527,6.527,0,0,1,1.408-.659c.8-.216,1.659-.194,2.458-.426a2.094,2.094,0,0,0,1.644-1.668,1.822,1.822,0,0,0-2.024-1.68,4.006,4.006,0,0,0-2.5,1.487c-.211.233-.519.558-.81.921.015-.145.025-.288.041-.433.085-.786.183-1.569.284-2.352a23.76,23.76,0,0,0,3.353-1.684,7,7,0,0,0,2.734-1.673,2.039,2.039,0,0,0-.1-2.875,2.443,2.443,0,0,0-2.715.42,11.785,11.785,0,0,0-2.947,3.519q.378-2.49.854-4.963c1.6-1,4.413-.736,5.924-2.25.609-.611,1.222-1.936.407-2.7-.642-.6-1.93-.057-2.619.2a7.758,7.758,0,0,0-3.287,2.6q.2-.972.41-1.942.272-1.247.566-2.49a14.727,14.727,0,0,1,2.853-1.219c1.443-.415,3.093-.559,3.588-2.294.453-1.587-.205-4.134-2.208-3.033a11.46,11.46,0,0,0-3.557,3.769q.6-2.378,1.262-4.741a13.376,13.376,0,0,1,3.552-1.139c1.366-.156,3.312.289,3.924-1.229A1.97,1.97,0,0,0,6947.4,2814Z" transform="translate(-6905.688 -2789.402)"/><g transform="translate(27.111 39.571)"><path class="m" d="M7080.8,2999.412s7.352-11.446,3.175-27.737c0,0-12.031,2.673-16.04,27.737Z" transform="translate(-7067.931 -2971.675)"/><path class="j" d="M7097.732,3034.361s3.141-15.038,4.9-18.046c0,0-5.279,9.524-6.064,18.046Z" transform="translate(-7090.347 -3006.624)"/></g><g transform="translate(15.193 39.788)"><path class="m" d="M7017.491,3000.41s-7.353-11.446-3.175-27.737c0,0,12.03,2.674,16.04,27.737Z" transform="translate(-7013.032 -2972.673)"/><path class="j" d="M7041.158,3035.359s-3.14-15.038-4.895-18.046c0,0,5.279,9.524,6.064,18.046Z" transform="translate(-7031.22 -3007.622)"/></g><g transform="translate(0 31.77)"><path class="r" d="M6948.8,2971.5s-9.477-14.754-4.092-35.755c0,0,15.508,3.446,20.677,35.755Z" transform="translate(-6943.051 -2935.742)"/><path class="j" d="M6979.308,3016.548s-4.049-19.385-6.31-23.262c0,0,6.8,12.277,7.817,23.262Z" transform="translate(-6966.497 -2980.794)"/></g><g transform="translate(40.113 31.77)"><path class="r" d="M7144.4,2971.5s9.478-14.754,4.093-35.755c0,0-15.509,3.446-20.678,35.755Z" transform="translate(-7127.819 -2935.742)"/><path class="j" d="M7166.237,3016.548s4.049-19.385,6.311-23.262c0,0-6.8,12.277-7.818,23.262Z" transform="translate(-7156.716 -2980.794)"/></g></g><g transform="translate(6335.756 1899.661)"><path class="s" d="M6456.414,2978.292l-7.084,27.167h-21.573l-6.52-27.167Z" transform="translate(-6419.763 -2916.45)"/><path class="m" d="M6424.265,2722.231a8.521,8.521,0,0,1,3.765-7.075,7.456,7.456,0,0,1,5.829-12.113c.106,0,.214.011.319.016a7.462,7.462,0,1,1,14.285,0c.105,0,.213-.016.319-.016a7.456,7.456,0,0,1,5.829,12.113,8.528,8.528,0,0,1,0,14.15,7.456,7.456,0,0,1-5.829,12.113h-14.924a7.456,7.456,0,0,1-5.829-12.113A8.521,8.521,0,0,1,6424.265,2722.231Z" transform="translate(-6422.133 -2693.434)"/><path class="g" d="M6463.859,2763.4a1.067,1.067,0,0,1,1.508,0l5.643,5.643v-15.549a1.066,1.066,0,1,1,2.132,0v7.554l4.843-4.843a1.066,1.066,0,0,1,1.507,1.508l-6.35,6.35v14.574l4.576-4.576a1.066,1.066,0,0,1,1.507,1.507l-6.083,6.083v19.813a1.066,1.066,0,1,1-2.132,0v-29.479a1.022,1.022,0,0,1-.221-.147l-6.93-6.929a1.066,1.066,0,0,1,0-1.507Z" transform="translate(-6452.886 -2739.619)"/><path class="g" d="M6415.511,2975.514h36.243a1.066,1.066,0,0,0,0-2.132h-36.243a1.066,1.066,0,1,0,0,2.132Z" transform="translate(-6414.444 -2912.606)"/></g><g transform="translate(6363.346 1934.432)"><path class="t" d="M1232.915,3011.28l57.553,5.907,10.838-22.96h-54.181Z" transform="translate(-1232.441 -2993.754)"/><rect class="u" width="58.737" height="36.442" transform="translate(0 17.624)"/><path class="v" d="M1299.316,3047.96h-28.2v-36.442l14.1-17.624,14.1,17.624Z" transform="translate(-1216.353 -2993.895)"/><path class="w" d="M1278,3011.666a4.324,4.324,0,1,1,4.324,4.324A4.325,4.325,0,0,1,1278,3011.666Z" transform="translate(-1213.458 -2988.233)"/><g transform="translate(9.028 28.503)"><rect class="w" width="14.921" height="7.342"/><rect class="w" width="14.921" height="7.342" transform="translate(21.79)"/></g><rect class="w" width="8.649" height="16.882" transform="translate(64.54 37.184)"/></g></g></svg>