<svg xmlns="http://www.w3.org/2000/svg" width="24" height="24" viewBox="0 0 24 24"><defs><style>.a{fill:none;}.b{fill:#08ce73;}</style></defs><g transform="translate(-266 -9548)"><rect class="a" width="24" height="24" transform="translate(266 9548)"/><path class="b" d="M68.386,20.652H66.277V11.3h-3.2V4.758H56.144v-1.7A2.112,2.112,0,0,0,54.034.944h-.7V0H51.925V.944H48.978V2.351h2.947V3.3h1.406V2.351h.7a.7.7,0,0,1,.7.7v15.64A2.676,2.676,0,1,0,58,22.058h8.278V24h1.406V22.058h.7ZM59.8,12.7H61.21v2.306l-.7-.234-.7.234Zm-3.66-6.539H58.2V8.2H59.61V6.164h2.06V11.3H56.144Zm-.7,16.381a1.27,1.27,0,1,1,1.27-1.27A1.271,1.271,0,0,1,55.44,22.545Zm2.6-1.893a2.685,2.685,0,0,0-1.9-1.959V12.7H58.4V16.96l2.109-.7,2.109.7V12.7h2.254v7.949Z" transform="translate(219.022 9548)"/></g></svg>