<svg xmlns="http://www.w3.org/2000/svg" width="44" height="44" viewBox="0 0 44 44"><defs><style>.a{fill:#e5e5e5;}.b,.d{fill:#fff;}.c{fill:#2699fb;}.d{fill-rule:evenodd;}</style></defs><g transform="translate(9084 -9370)"><circle class="a" cx="22" cy="22" r="22" transform="translate(-9084 9370)"/><circle class="b" cx="21" cy="21" r="21" transform="translate(-9083 9371)"/><circle class="c" cx="18" cy="18" r="18" transform="translate(-9080 9374)"/><path class="d" d="M137.8,142.522c-.388-.864-.8-.881-1.167-.9-.3-.013-.648-.012-.993-.012a1.9,1.9,0,0,0-1.382.649,5.818,5.818,0,0,0-1.815,4.327,10.1,10.1,0,0,0,2.117,5.366c.259.346,3.586,5.752,8.854,7.832,4.378,1.728,5.269,1.385,6.22,1.3s3.066-1.255,3.5-2.467a4.336,4.336,0,0,0,.3-2.467c-.13-.216-.475-.346-.993-.605s-3.066-1.515-3.542-1.688-.821-.259-1.166.26-1.338,1.687-1.641,2.033-.6.39-1.123.131a14.17,14.17,0,0,1-4.168-2.575,15.63,15.63,0,0,1-2.884-3.593c-.3-.519-.005-.775.228-1.059a15.645,15.645,0,0,0,1.3-1.774.957.957,0,0,0-.043-.909C139.27,146.114,138.262,143.548,137.8,142.522Zm0,0" transform="translate(-9205.445 9240.387)"/></g></svg>