<svg xmlns="http://www.w3.org/2000/svg" width="130.754" height="25.187" viewBox="0 0 130.754 25.187">
  <g id="Cash_on_Collection" data-name="Cash on Collection" transform="translate(-1006 -352)">
    <path id="Path_29857" data-name="Path 29857" d="M7.324-2.818A3.09,3.09,0,0,1,6.36-.642,3.511,3.511,0,0,1,3.943.123,3.193,3.193,0,0,1,1.485-.844a3.625,3.625,0,0,1-.9-2.572V-5.109A3.608,3.608,0,0,1,1.5-7.676a3.184,3.184,0,0,1,2.443-.979,3.438,3.438,0,0,1,2.414.768A3.326,3.326,0,0,1,7.33-5.672H5.625a2.108,2.108,0,0,0-.451-1.251,1.593,1.593,0,0,0-1.23-.413,1.407,1.407,0,0,0-1.219.612,2.714,2.714,0,0,0-.434,1.6v1.705A2.8,2.8,0,0,0,2.71-1.8a1.4,1.4,0,0,0,1.233.606,1.629,1.629,0,0,0,1.207-.4,1.937,1.937,0,0,0,.463-1.23Zm5,2.818a3.428,3.428,0,0,1-.135-.369,3.288,3.288,0,0,1-.094-.4,2.313,2.313,0,0,1-.721.645,1.98,1.98,0,0,1-1,.24A2.086,2.086,0,0,1,8.894-.39a1.825,1.825,0,0,1-.539-1.4,1.678,1.678,0,0,1,.7-1.453,3.622,3.622,0,0,1,2.109-.5h.873v-.5a.99.99,0,0,0-.237-.715.954.954,0,0,0-.718-.246.977.977,0,0,0-.659.2.7.7,0,0,0-.226.56H8.5A1.751,1.751,0,0,1,9.231-5.88,3.1,3.1,0,0,1,11.2-6.457a2.873,2.873,0,0,1,1.86.565,2,2,0,0,1,.7,1.655v2.619a4.874,4.874,0,0,0,.067.841A4.394,4.394,0,0,0,14.039,0ZM10.845-1.143a1.5,1.5,0,0,0,.706-.164,1.315,1.315,0,0,0,.489-.422V-2.777h-.873a1.152,1.152,0,0,0-.835.267.892.892,0,0,0-.272.665.661.661,0,0,0,.208.513A.823.823,0,0,0,10.845-1.143Zm7.875-.6a.591.591,0,0,0-.267-.486A2.878,2.878,0,0,0,17.437-2.6a4.175,4.175,0,0,1-1.705-.671,1.464,1.464,0,0,1-.562-1.228,1.747,1.747,0,0,1,.68-1.4A2.817,2.817,0,0,1,17.7-6.457a3.051,3.051,0,0,1,1.948.565,1.794,1.794,0,0,1,.712,1.474H18.656a.844.844,0,0,0-.237-.624.976.976,0,0,0-.718-.237.983.983,0,0,0-.656.2.639.639,0,0,0-.234.51.571.571,0,0,0,.243.48,2.83,2.83,0,0,0,1.017.334,4.18,4.18,0,0,1,1.752.683,1.512,1.512,0,0,1,.557,1.257,1.662,1.662,0,0,1-.718,1.4,3.212,3.212,0,0,1-1.948.53,2.957,2.957,0,0,1-2.019-.636,1.936,1.936,0,0,1-.724-1.5h1.617a.886.886,0,0,0,.328.738,1.4,1.4,0,0,0,.832.223,1.215,1.215,0,0,0,.727-.182A.6.6,0,0,0,18.72-1.746Zm4.67-3.82.018.006a2.088,2.088,0,0,1,.718-.662,1.95,1.95,0,0,1,.958-.234,1.954,1.954,0,0,1,1.567.645A3.113,3.113,0,0,1,27.2-3.762V0H25.493V-3.773a1.654,1.654,0,0,0-.255-1.052.967.967,0,0,0-.782-.3A1.452,1.452,0,0,0,23.832-5a1.2,1.2,0,0,0-.442.357V0H21.679V-9.141H23.39ZM31.7-3.229a3.422,3.422,0,0,1,.779-2.338,2.772,2.772,0,0,1,2.2-.891,2.8,2.8,0,0,1,2.218.891,3.414,3.414,0,0,1,.782,2.338v.123A3.406,3.406,0,0,1,36.9-.765a2.793,2.793,0,0,1-2.209.882,2.8,2.8,0,0,1-2.215-.882A3.406,3.406,0,0,1,31.7-3.105Zm1.705.123a2.776,2.776,0,0,0,.3,1.4,1.055,1.055,0,0,0,.99.513,1.044,1.044,0,0,0,.976-.516,2.757,2.757,0,0,0,.3-1.395v-.123a2.744,2.744,0,0,0-.3-1.386,1.052,1.052,0,0,0-.984-.524,1.039,1.039,0,0,0-.976.527,2.77,2.77,0,0,0-.3,1.383ZM40.54-6.34l.076.879.018.006A2.232,2.232,0,0,1,41.4-6.2a2.039,2.039,0,0,1,1.034-.261,1.926,1.926,0,0,1,1.509.589,2.81,2.81,0,0,1,.53,1.907V0H42.754V-3.955a1.3,1.3,0,0,0-.252-.911,1.049,1.049,0,0,0-.785-.261,1.293,1.293,0,0,0-.612.138,1.33,1.33,0,0,0-.448.39V0H38.946V-6.34ZM55.885-2.818a3.09,3.09,0,0,1-.964,2.177A3.511,3.511,0,0,1,52.5.123a3.193,3.193,0,0,1-2.458-.967,3.625,3.625,0,0,1-.9-2.572V-5.109a3.608,3.608,0,0,1,.914-2.566A3.184,3.184,0,0,1,52.5-8.654a3.438,3.438,0,0,1,2.414.768,3.326,3.326,0,0,1,.973,2.215H54.186a2.108,2.108,0,0,0-.451-1.251,1.593,1.593,0,0,0-1.23-.413,1.407,1.407,0,0,0-1.219.612,2.714,2.714,0,0,0-.434,1.6v1.705a2.8,2.8,0,0,0,.419,1.62,1.4,1.4,0,0,0,1.233.606,1.629,1.629,0,0,0,1.207-.4,1.937,1.937,0,0,0,.463-1.23Zm1.019-.41a3.422,3.422,0,0,1,.779-2.338,2.772,2.772,0,0,1,2.2-.891,2.8,2.8,0,0,1,2.218.891,3.414,3.414,0,0,1,.782,2.338v.123a3.406,3.406,0,0,1-.779,2.341A2.793,2.793,0,0,1,59.9.117a2.8,2.8,0,0,1-2.215-.882A3.406,3.406,0,0,1,56.9-3.105Zm1.705.123a2.776,2.776,0,0,0,.3,1.4,1.055,1.055,0,0,0,.99.513,1.044,1.044,0,0,0,.976-.516,2.757,2.757,0,0,0,.3-1.395v-.123a2.744,2.744,0,0,0-.3-1.386,1.052,1.052,0,0,0-.984-.524,1.039,1.039,0,0,0-.976.527,2.77,2.77,0,0,0-.3,1.383ZM65.98,0H64.269V-9.141H65.98Zm3.445,0H67.714V-9.141h1.711Zm4.453.117a2.874,2.874,0,0,1-2.206-.861,3.153,3.153,0,0,1-.806-2.244v-.234a3.489,3.489,0,0,1,.765-2.341,2.588,2.588,0,0,1,2.095-.894,2.578,2.578,0,0,1,2.007.762,3.007,3.007,0,0,1,.694,2.1v.932H72.595a1.825,1.825,0,0,0,.445,1.066,1.321,1.321,0,0,0,1.02.4,3.329,3.329,0,0,0,.946-.111,4.436,4.436,0,0,0,.817-.357L76.2-.533a3.134,3.134,0,0,1-.973.469A4.592,4.592,0,0,1,73.878.117Zm-.152-5.256a.9.9,0,0,0-.759.36,2.061,2.061,0,0,0-.354.987h2.139v-.152a1.39,1.39,0,0,0-.249-.876A.923.923,0,0,0,73.726-5.139ZM80.27-1.2a1.1,1.1,0,0,0,.768-.264.907.907,0,0,0,.293-.709h1.605a2.062,2.062,0,0,1-.753,1.644,2.8,2.8,0,0,1-1.878.642,2.709,2.709,0,0,1-2.194-.879,3.469,3.469,0,0,1-.741-2.314v-.176a3.5,3.5,0,0,1,.741-2.317,2.681,2.681,0,0,1,2.183-.888,2.73,2.73,0,0,1,1.922.662A2.322,2.322,0,0,1,82.936-4H81.331a1.2,1.2,0,0,0-.281-.82.987.987,0,0,0-.785-.322.942.942,0,0,0-.935.51,3.173,3.173,0,0,0-.249,1.377v.176a3.175,3.175,0,0,0,.246,1.383A.951.951,0,0,0,80.27-1.2Zm5.883-6.7V-6.34h1.09v1.2h-1.09v3.223a.775.775,0,0,0,.144.533.51.51,0,0,0,.39.152,1.863,1.863,0,0,0,.252-.015,2.122,2.122,0,0,0,.24-.05l.141,1.219a3,3,0,0,1-.5.141,2.911,2.911,0,0,1-.565.053A1.79,1.79,0,0,1,84.908-.36a2.181,2.181,0,0,1-.46-1.55V-5.139h-.855v-1.2h.855V-7.893ZM90.184,0H88.473V-6.34h1.711Zm0-7.857H88.473V-9.141h1.711Zm1.383,4.629a3.422,3.422,0,0,1,.779-2.338,2.772,2.772,0,0,1,2.2-.891,2.8,2.8,0,0,1,2.218.891,3.414,3.414,0,0,1,.782,2.338v.123A3.406,3.406,0,0,1,96.77-.765a2.793,2.793,0,0,1-2.209.882,2.8,2.8,0,0,1-2.215-.882,3.406,3.406,0,0,1-.779-2.341Zm1.705.123a2.776,2.776,0,0,0,.3,1.4,1.055,1.055,0,0,0,.99.513,1.044,1.044,0,0,0,.976-.516,2.757,2.757,0,0,0,.3-1.395v-.123a2.744,2.744,0,0,0-.3-1.386,1.052,1.052,0,0,0-.984-.524,1.039,1.039,0,0,0-.976.527,2.77,2.77,0,0,0-.3,1.383Zm7.136-3.234.076.879.018.006a2.232,2.232,0,0,1,.765-.741,2.039,2.039,0,0,1,1.034-.261,1.926,1.926,0,0,1,1.509.589,2.81,2.81,0,0,1,.53,1.907V0h-1.717V-3.955a1.3,1.3,0,0,0-.252-.911,1.049,1.049,0,0,0-.785-.261,1.293,1.293,0,0,0-.612.138,1.33,1.33,0,0,0-.448.39V0H98.814V-6.34Z" transform="translate(1032.414 369.141)" fill="#343a40"/>
    <g id="Group_19322" data-name="Group 19322" transform="translate(0 0.188)">
      <g id="Group_19319" data-name="Group 19319" transform="translate(-0.171)">
        <path id="Path_3711" data-name="Path 3711" d="M856.432,3351.448l-2.349-1.982a1.944,1.944,0,0,0-1.534-.438l-4.657.679a.814.814,0,0,0-.7.805v5.356l4.993,1.59,4.243-.506h1.624v-5.5Z" transform="translate(164.56 -2996.99)" fill="#f9cfcf"/>
        <path id="Path_3712" data-name="Path 3712" d="M849.924,3355.4a.216.216,0,0,1-.062-.009l-4.993-1.591a.206.206,0,0,1-.143-.2v-5.356a1.026,1.026,0,0,1,.873-1.009l4.657-.679a2.153,2.153,0,0,1,1.7.484l2.292,1.934h1.549a.206.206,0,0,1,.206.206v5.5a.206.206,0,0,1-.206.206H854.18l-4.231.5Zm-4.787-1.947,4.807,1.531,4.2-.5.024,0h1.418v-5.093h-1.418a.206.206,0,0,1-.133-.049l-2.349-1.982a1.74,1.74,0,0,0-1.371-.391l-4.657.679a.611.611,0,0,0-.52.6Z" transform="translate(166.823 -2994.727)" fill="#3762cc"/>
        <path id="Path_3713" data-name="Path 3713" d="M794.071,3380.448H783.285a.647.647,0,0,1-.647-.647v-5.392a.647.647,0,0,1,.647-.647h10.785a.647.647,0,0,1,.647.647v5.392A.647.647,0,0,1,794.071,3380.448Z" transform="translate(223.739 -3019.68)" fill="#6bdddd"/>
        <circle id="Ellipse_666" data-name="Ellipse 666" cx="2.411" cy="2.411" r="2.411" transform="translate(1010.007 355.013)" fill="#e0ebfc"/>
        <path id="Path_3714" data-name="Path 3714" d="M791.807,3378.389H781.022a.854.854,0,0,1-.853-.853v-5.393a.854.854,0,0,1,.853-.853h10.785a.854.854,0,0,1,.853.853v5.393A.854.854,0,0,1,791.807,3378.389Zm-10.785-6.687a.442.442,0,0,0-.441.441v5.393a.442.442,0,0,0,.441.441h10.785a.442.442,0,0,0,.441-.441v-5.393a.442.442,0,0,0-.441-.441Z" transform="translate(226.002 -3017.416)" fill="#3762cc"/>
        <path id="Path_3715" data-name="Path 3715" d="M826.349,3387.721a2.616,2.616,0,1,1,2.616-2.616,2.619,2.619,0,0,1-2.616,2.616Zm0-4.821a2.205,2.205,0,1,0,2.2,2.205,2.207,2.207,0,0,0-2.2-2.205Z" transform="translate(186.067 -3027.68)" fill="#3762cc"/>
        <path id="Path_3716" data-name="Path 3716" d="M980.709,3374.169h2.3a.165.165,0,0,0,.165-.165v-7.112a.165.165,0,0,0-.165-.165h-2.3a.612.612,0,0,0-.612.612v6.218a.612.612,0,0,0,.612.612Z" transform="translate(42.73 -3013.233)" fill="#4671c6"/>
        <path id="Path_3717" data-name="Path 3717" d="M847.271,3400.682v0a.848.848,0,0,0,.428-.131.745.745,0,0,0,.254-.258.936.936,0,0,0,.108-.336h.284s.053-.092.151-.272c0,0,0-.007-.008-.008h-.439a.729.729,0,0,0-.116-.3h.411a2.883,2.883,0,0,0,.155-.277v0h-1.543s-.053.09-.152.271v.011h.407a.623.623,0,0,1,.231.051.466.466,0,0,1,.242.242v0h-.729s-.054.09-.155.271c0,.007,0,.01.008.01h.916a.4.4,0,0,1-.019.121.58.58,0,0,1-.63.4,1.05,1.05,0,0,1-.187-.014l0,.01v.263s.3.437.9,1.3h.335c.005,0,.008,0,.008-.008v-.053l-.761-1.129A.775.775,0,0,1,847.271,3400.682Z" transform="translate(164.921 -3042.903)" fill="#3762cc"/>
        <path id="Path_3718" data-name="Path 3718" d="M864.849,3412.6l-4.541.209a1.072,1.072,0,0,0-.31.015h0a1.058,1.058,0,0,0,.094,2.09l3.987.509a6.669,6.669,0,0,0,1.541.018l1.171-.123.281-2.718Z" transform="translate(153.606 -3055.288)" fill="#f9cfcf"/>
        <path id="Path_3719" data-name="Path 3719" d="M862.661,3413.424a6.945,6.945,0,0,1-.872-.055l-3.987-.51a1.264,1.264,0,0,1-.108-2.5h.007a1.259,1.259,0,0,1,.348-.018l4.526-.208a.206.206,0,1,1,.019.411l-4.541.209h-.03a.852.852,0,0,0-.249.012h-.006a.852.852,0,0,0,.081,1.683l3.992.51a6.5,6.5,0,0,0,1.494.017l1.171-.123a.206.206,0,1,1,.043.409l-1.171.123a6.884,6.884,0,0,1-.716.038Z" transform="translate(155.871 -3053.025)" fill="#3762cc"/>
        <path id="Path_3720" data-name="Path 3720" d="M970.307,3374.046v0h-.564a.326.326,0,0,0-.326.326v5.445a.326.326,0,0,0,.326.326h.564Z" transform="translate(52.521 -3019.94)" fill="#ffeb80"/>
        <path id="Path_3721" data-name="Path 3721" d="M980.746,3372.11h-2.3a.819.819,0,0,1-.818-.818v-6.218a.819.819,0,0,1,.818-.818h2.3a.371.371,0,0,1,.371.371v7.112a.371.371,0,0,1-.371.371Zm-2.3-7.441a.407.407,0,0,0-.406.406v6.218a.407.407,0,0,0,.406.406h2.261v-7.03Z" transform="translate(44.995 -3010.968)" fill="#3762cc"/>
      </g>
      <g id="Group_19318" data-name="Group 19318" transform="translate(5)">
        <g id="Group_19321" data-name="Group 19321" transform="translate(-5)">
          <g id="Group_19316" data-name="Group 19316" transform="translate(-119.334 178.34)">
            <g id="Group_19310" data-name="Group 19310" transform="translate(1133.093 185.776)">
              <rect id="Rectangle_6511" data-name="Rectangle 6511" width="3" height="2" transform="translate(0.241 -0.116)" fill="#0bafea"/>
              <g id="Group_19309" data-name="Group 19309" transform="translate(0.774 0)">
                <rect id="Rectangle_6519" data-name="Rectangle 6519" height="2" transform="translate(0.468 -0.116)" fill="#0a9acd"/>
                <rect id="Rectangle_6520" data-name="Rectangle 6520" width="1" height="2" transform="translate(0.468 -0.116)" fill="#0a9acd"/>
                <rect id="Rectangle_6521" data-name="Rectangle 6521" height="2" transform="translate(1.468 -0.116)" fill="#0a9acd"/>
              </g>
            </g>
            <path id="Rectangle_6512" data-name="Rectangle 6512" d="M0,0H3A0,0,0,0,1,3,0V9.5A1.5,1.5,0,0,1,1.5,11h0A1.5,1.5,0,0,1,0,9.5V0A0,0,0,0,1,0,0Z" transform="translate(1133.334 187.66)" fill="#d32b39"/>
            <g id="Group_19313" data-name="Group 19313" transform="translate(1133.48 187.711)">
              <g id="Group_19311" data-name="Group 19311" transform="translate(0 0)">
                <rect id="Rectangle_6513" data-name="Rectangle 6513" width="3" height="1" transform="translate(-0.146 -0.05)" fill="#cbcbcb"/>
                <rect id="Rectangle_6514" data-name="Rectangle 6514" width="3" transform="translate(-0.146 0.95)" fill="#eaeae8"/>
              </g>
              <g id="Group_19312" data-name="Group 19312" transform="translate(0.774 3.869)">
                <rect id="Rectangle_6515" data-name="Rectangle 6515" width="2" height="5" transform="translate(0.08 0.08)" fill="#cbcbcb"/>
                <g id="Group_19308" data-name="Group 19308" transform="translate(1.161 0.774)">
                  <rect id="Rectangle_6516" data-name="Rectangle 6516" width="1" transform="translate(-0.08 0.306)" fill="#eaeae8"/>
                  <rect id="Rectangle_6517" data-name="Rectangle 6517" width="1" height="1" transform="translate(-0.08 1.306)" fill="#eaeae8"/>
                  <rect id="Rectangle_6518" data-name="Rectangle 6518" width="1" height="1" transform="translate(-0.08 3.306)" fill="#eaeae8"/>
                </g>
              </g>
            </g>
          </g>
          <g id="Group_19320" data-name="Group 19320" transform="translate(-114.334 178.34)">
            <g id="Group_19310-2" data-name="Group 19310" transform="translate(1133.093 185.776)">
              <rect id="Rectangle_6511-2" data-name="Rectangle 6511" width="3" height="2" transform="translate(0.241 -0.116)" fill="#0bafea"/>
              <g id="Group_19309-2" data-name="Group 19309" transform="translate(0.774 0)">
                <rect id="Rectangle_6519-2" data-name="Rectangle 6519" height="2" transform="translate(0.468 -0.116)" fill="#0a9acd"/>
                <rect id="Rectangle_6520-2" data-name="Rectangle 6520" width="1" height="2" transform="translate(0.468 -0.116)" fill="#0a9acd"/>
                <rect id="Rectangle_6521-2" data-name="Rectangle 6521" height="2" transform="translate(1.468 -0.116)" fill="#0a9acd"/>
              </g>
            </g>
            <path id="Rectangle_6512-2" data-name="Rectangle 6512" d="M0,0H3A0,0,0,0,1,3,0V9.5A1.5,1.5,0,0,1,1.5,11h0A1.5,1.5,0,0,1,0,9.5V0A0,0,0,0,1,0,0Z" transform="translate(1133.334 187.66)" fill="#d32b39"/>
            <g id="Group_19313-2" data-name="Group 19313" transform="translate(1133.48 187.711)">
              <g id="Group_19311-2" data-name="Group 19311" transform="translate(0 0)">
                <rect id="Rectangle_6513-2" data-name="Rectangle 6513" width="3" height="1" transform="translate(-0.146 -0.05)" fill="#cbcbcb"/>
                <rect id="Rectangle_6514-2" data-name="Rectangle 6514" width="3" transform="translate(-0.146 0.95)" fill="#eaeae8"/>
              </g>
              <g id="Group_19312-2" data-name="Group 19312" transform="translate(0.774 3.869)">
                <rect id="Rectangle_6515-2" data-name="Rectangle 6515" width="2" height="5" transform="translate(0.08 0.08)" fill="#cbcbcb"/>
                <g id="Group_19308-2" data-name="Group 19308" transform="translate(1.161 0.774)">
                  <rect id="Rectangle_6516-2" data-name="Rectangle 6516" width="1" transform="translate(-0.08 0.306)" fill="#eaeae8"/>
                  <rect id="Rectangle_6517-2" data-name="Rectangle 6517" width="1" height="1" transform="translate(-0.08 1.306)" fill="#eaeae8"/>
                  <rect id="Rectangle_6518-2" data-name="Rectangle 6518" width="1" height="1" transform="translate(-0.08 3.306)" fill="#eaeae8"/>
                </g>
              </g>
            </g>
          </g>
        </g>
        <g id="Group_19317" data-name="Group 19317">
          <path id="Path_3706" data-name="Path 3706" d="M723.072,3546.821h-2.336a.167.167,0,0,1-.167-.167v-7.216a.167.167,0,0,1,.167-.167h2.336a.621.621,0,0,1,.621.621v6.308A.621.621,0,0,1,723.072,3546.821Z" transform="translate(280.638 -3171.403)" fill="#4671c6"/>
          <path id="Path_3708" data-name="Path 3708" d="M780.716,3526.389a.8.8,0,0,0-.8-.8h-.971a.8.8,0,0,0-.058-1.593h-5l.516-.425a.911.911,0,0,0,.181-1.226.89.89,0,0,0-1.289-.167l-2.379,1.96,0,0a.829.829,0,0,0-.322.437.2.2,0,0,1-.2.139h-1.495v4.94h1.5a.2.2,0,0,1,.194.139.824.824,0,0,0,.788.581h6.735v-.006a.8.8,0,0,0,0-1.583v-.006H779.3a.8.8,0,1,0,0-1.6h.617a.8.8,0,0,0,.8-.8Z" transform="translate(236.326 -3155.548)" fill="#f9cfcf"/>
          <path id="Path_3709" data-name="Path 3709" d="M720.807,3544.762h-2.336a.373.373,0,0,1-.373-.373v-7.216a.374.374,0,0,1,.373-.373h2.336a.828.828,0,0,1,.827.827v6.308A.828.828,0,0,1,720.807,3544.762Zm-2.3-.412h2.3a.416.416,0,0,0,.415-.415v-6.308a.416.416,0,0,0-.415-.415h-2.3Z" transform="translate(282.902 -3169.137)" fill="#3762cc"/>
          <path id="Path_3723" data-name="Path 3723" d="M775.858,3528.322h-6.735a1.025,1.025,0,0,1-.984-.727l-1.5.006a.206.206,0,0,1-.206-.206v-4.939a.206.206,0,0,1,.206-.206h1.495a1.05,1.05,0,0,1,.368-.514l.018-.017,2.379-1.96a1.1,1.1,0,0,1,.837-.241,1.086,1.086,0,0,1,.749.448,1.114,1.114,0,0,1-.217,1.5l-.073.06h4.426a1,1,0,0,1,.811,1.593h.218a5.627,5.627,0,0,0,.386,2.6,1,1,0,0,1-1,1h-.463a1,1,0,0,1-.641,1.581.193.193,0,0,1-.075.015Zm-9.009-1.132h1.292a.405.405,0,0,1,.391.284.615.615,0,0,0,.591.436h6.685l.025,0a.592.592,0,0,0,0-1.175.206.206,0,0,1-.182-.2.211.211,0,0,1,.206-.212h1.179a.592.592,0,1,0,0-1.184.206.206,0,1,1,0-.412h.617a.592.592,0,0,0,0-1.185h-.971a.206.206,0,0,1-.015-.411.592.592,0,0,0-.043-1.182h-5a.206.206,0,0,1-.131-.365l.516-.425a.7.7,0,0,0,.145-.945.684.684,0,0,0-.991-.129l-2.352,1.938a.183.183,0,0,1-.039.036.624.624,0,0,0-.242.328.413.413,0,0,1-.394.284h-1.289Z" transform="translate(238.59 -3153.286)" fill="#3762cc"/>
          <path id="Path_3724" data-name="Path 3724" d="M834.337,3603.21h-3.8a.206.206,0,1,1,0-.412h3.8a.592.592,0,0,0,0-1.184h-2.969a.206.206,0,0,1,0-.412h2.969a1,1,0,0,1,0,2.008Z" transform="translate(180.017 -3228.175)" fill="#3762cc"/>
          <path id="Path_3725" data-name="Path 3725" d="M844.722,3584.053h-4.243a.206.206,0,1,1,0-.412h4.243a.592.592,0,0,0,0-1.185h-4.243a.206.206,0,1,1,0-.412h4.243a1,1,0,0,1,0,2.008Z" transform="translate(170.905 -3210.613)" fill="#3762cc"/>
          <path id="Path_3726" data-name="Path 3726" d="M845.339,3564.9h-4.86a.206.206,0,1,1,0-.411h4.86a.592.592,0,0,0,0-1.184l-4.86,0h0a.206.206,0,0,1,0-.412l4.86,0a1,1,0,1,1,0,2.008Z" transform="translate(170.905 -3193.053)" fill="#3762cc"/>
          <path id="Path_3707" data-name="Path 3707" d="M758.642,3546.695h-.572v6.186h.572a.331.331,0,0,0,.331-.331v-5.525A.33.33,0,0,0,758.642,3546.695Z" transform="translate(246.477 -3178.208)" fill="#ffeb80"/>
        </g>
      </g>
    </g>
  </g>
</svg>
