<svg id="Group_7281" data-name="Group 7281" xmlns="http://www.w3.org/2000/svg" width="20" height="20" viewBox="0 0 20 20">
  <g id="Group_4158" data-name="Group 4158">
    <rect id="Rectangle_2807" data-name="Rectangle 2807" width="20" height="20" fill="none"/>
  </g>
  <path id="Path_1951_1_" d="M16.578,15.655l-5.795-5.78,5.78-5.78a.647.647,0,0,0-.031-.9.628.628,0,0,0-.864,0L9.881,8.973,4.1,3.185a.633.633,0,0,0-.894.895l5.78,5.8-5.78,5.78a.638.638,0,0,0,.872.933l.031-.031,5.772-5.78,5.78,5.78a.637.637,0,0,0,.894,0h0a.628.628,0,0,0,.031-.887A.024.024,0,0,0,16.578,15.655Z" transform="translate(-0.002 -0.006)"/>
</svg>
