<svg xmlns="http://www.w3.org/2000/svg" width="218.801" height="186.106" viewBox="0 0 218.801 186.106"><defs><style>.a{fill:#08ce73;}.b{fill:#2c3e50;}.c{fill:#fa802d;}.d{fill:#f4f0f0;}.e{fill:#f7f7f7;}.f{fill:#6399ce;}</style></defs><g transform="translate(-747.968 -479)"><g transform="translate(791.5 606.705)"><path class="a" d="M787.018,603.6c-3.793,0-6.763-6.561-6.763-14.939s2.97-14.942,6.763-14.942,6.765,6.563,6.765,14.942S790.811,603.6,787.018,603.6Zm0-29.019c-3.2,0-5.9,6.448-5.9,14.078s2.7,14.079,5.9,14.079,5.9-6.448,5.9-14.079S790.223,574.578,787.018,574.578Z" transform="translate(-780.255 -573.716)"/><g transform="translate(6.333 21.584)"><path class="a" d="M785.382,606.249a.43.43,0,0,1-.43-.43V590.154a.431.431,0,0,1,.861,0v15.664A.431.431,0,0,1,785.382,606.249Z" transform="translate(-784.952 -589.724)"/></g><g transform="translate(6.333 13.518)"><path class="a" d="M785.382,587.353a.431.431,0,0,1-.43-.431v-2.748a.431.431,0,0,1,.861,0h0v2.748A.431.431,0,0,1,785.382,587.353Z" transform="translate(-784.952 -583.742)"/></g></g><g transform="translate(774.153 637.426)"><path class="a" d="M785.466,603.887h-9.681a.431.431,0,1,1,0-.861h9.094a3.469,3.469,0,0,0-4.489-1.977l-.011,0a.429.429,0,0,1-.539-.216,6.089,6.089,0,0,0-11.574,2.188H770.7a.431.431,0,1,1,0,.861H767.82a.433.433,0,0,1-.431-.43,6.951,6.951,0,0,1,13.056-3.329,4.346,4.346,0,0,1,5.374,2.981c.023.084.044.167.063.252a.43.43,0,0,1-.322.516.379.379,0,0,1-.1.011Z" transform="translate(-767.389 -596.501)"/></g><g transform="translate(810.208 585.537)"><path class="b" d="M806.2,617.292H794.56a.433.433,0,0,1-.43-.433l0-.042,5.8-58.415a.429.429,0,0,1,.427-.387H806.2a.431.431,0,0,1,0,.862H800.75l-5.714,57.553H806.2a.431.431,0,1,1,0,.862Z" transform="translate(-794.13 -558.016)"/></g><path class="b" d="M839.339,528.681a.431.431,0,0,0,.431-.43v-4.693a.431.431,0,0,0-.862,0v4.7A.427.427,0,0,0,839.339,528.681Z" transform="translate(31.674 15.369)"/><path class="b" d="M843.568,528.681h0a.429.429,0,0,0,.427-.43v-4.693a.431.431,0,0,0-.862,0v4.693A.43.43,0,0,0,843.568,528.681Z" transform="translate(33.147 15.369)"/><path class="b" d="M847.8,528.681a.43.43,0,0,0,.43-.43v-4.693a.431.431,0,0,0-.861,0v4.7A.429.429,0,0,0,847.8,528.681Z" transform="translate(34.62 15.369)"/><path class="b" d="M852.026,528.681h0a.427.427,0,0,0,.427-.43v-4.693a.431.431,0,0,0-.862,0v4.693A.431.431,0,0,0,852.026,528.681Z" transform="translate(36.093 15.369)"/><path class="b" d="M856.255,528.681h0a.427.427,0,0,0,.427-.43v-4.693a.431.431,0,0,0-.862,0v4.693A.431.431,0,0,0,856.255,528.681Z" transform="translate(37.566 15.369)"/><path class="b" d="M839.339,536.642a.431.431,0,0,0,.431-.431v-4.692a.431.431,0,1,0-.862,0v4.7A.428.428,0,0,0,839.339,536.642Z" transform="translate(31.674 18.142)"/><path class="b" d="M843.568,536.642h0a.431.431,0,0,0,.427-.431v-4.692a.431.431,0,1,0-.862,0v4.692A.431.431,0,0,0,843.568,536.642Z" transform="translate(33.147 18.142)"/><path class="b" d="M847.8,536.642a.431.431,0,0,0,.43-.431v-4.692a.431.431,0,1,0-.861,0v4.7A.43.43,0,0,0,847.8,536.642Z" transform="translate(34.62 18.142)"/><path class="b" d="M852.026,536.642h0a.429.429,0,0,0,.427-.431v-4.692a.431.431,0,1,0-.862,0v4.692A.431.431,0,0,0,852.026,536.642Z" transform="translate(36.093 18.142)"/><path class="b" d="M856.255,536.642h0a.429.429,0,0,0,.427-.431v-4.692a.431.431,0,1,0-.862,0v4.692A.431.431,0,0,0,856.255,536.642Z" transform="translate(37.566 18.142)"/><path class="b" d="M839.339,544.6a.431.431,0,0,0,.431-.431v-4.692a.431.431,0,0,0-.862,0v4.7A.427.427,0,0,0,839.339,544.6Z" transform="translate(31.674 20.914)"/><path class="b" d="M843.568,544.6h0a.431.431,0,0,0,.427-.431v-4.692a.431.431,0,0,0-.862,0v4.692A.431.431,0,0,0,843.568,544.6Z" transform="translate(33.147 20.914)"/><path class="b" d="M847.8,544.6a.431.431,0,0,0,.43-.431v-4.692a.431.431,0,0,0-.861,0v4.7A.429.429,0,0,0,847.8,544.6Z" transform="translate(34.62 20.914)"/><path class="b" d="M852.026,544.6h0a.429.429,0,0,0,.427-.431v-4.692a.431.431,0,0,0-.862,0v4.692A.431.431,0,0,0,852.026,544.6Z" transform="translate(36.093 20.914)"/><path class="b" d="M856.255,544.6h0a.429.429,0,0,0,.427-.431v-4.692a.431.431,0,0,0-.862,0v4.692A.431.431,0,0,0,856.255,544.6Z" transform="translate(37.566 20.914)"/><path class="b" d="M839.339,552.563a.431.431,0,0,0,.431-.431v-4.692a.431.431,0,1,0-.862,0v4.7A.429.429,0,0,0,839.339,552.563Z" transform="translate(31.674 23.687)"/><path class="b" d="M843.568,552.563h0a.431.431,0,0,0,.427-.431v-4.692a.431.431,0,1,0-.862,0v4.692A.431.431,0,0,0,843.568,552.563Z" transform="translate(33.147 23.687)"/><path class="b" d="M847.8,547a.431.431,0,0,0-.43.431v4.7a.429.429,0,0,0,.427.431h.009a.431.431,0,0,0,.425-.438v-4.692A.431.431,0,0,0,847.8,547Z" transform="translate(34.621 23.685)"/><path class="b" d="M852.026,552.563h0a.429.429,0,0,0,.427-.431v-4.692a.431.431,0,1,0-.862,0v4.692A.431.431,0,0,0,852.026,552.563Z" transform="translate(36.093 23.687)"/><path class="b" d="M856.255,552.563h0a.429.429,0,0,0,.427-.431v-4.692a.431.431,0,1,0-.862,0v4.692A.431.431,0,0,0,856.255,552.563Z" transform="translate(37.566 23.687)"/><path class="b" d="M839.339,560.523a.431.431,0,0,0,.431-.43V555.4a.431.431,0,0,0-.862,0v4.7A.427.427,0,0,0,839.339,560.523Z" transform="translate(31.674 26.46)"/><path class="b" d="M843.568,560.523h0a.431.431,0,0,0,.427-.43V555.4a.431.431,0,0,0-.862,0v4.693A.43.43,0,0,0,843.568,560.523Z" transform="translate(33.147 26.46)"/><path class="b" d="M847.8,560.523a.43.43,0,0,0,.43-.43V555.4a.431.431,0,0,0-.861,0v4.7A.429.429,0,0,0,847.8,560.523Z" transform="translate(34.62 26.46)"/><path class="b" d="M852.026,560.523h0a.429.429,0,0,0,.427-.43V555.4a.431.431,0,0,0-.862,0v4.693A.431.431,0,0,0,852.026,560.523Z" transform="translate(36.093 26.46)"/><path class="b" d="M856.255,560.523h0a.429.429,0,0,0,.427-.43V555.4a.431.431,0,0,0-.862,0v4.693A.431.431,0,0,0,856.255,560.523Z" transform="translate(37.566 26.46)"/><path class="b" d="M839.339,568.485a.431.431,0,0,0,.431-.432v-4.692a.431.431,0,1,0-.862,0v4.7A.427.427,0,0,0,839.339,568.485Z" transform="translate(31.674 29.232)"/><path class="b" d="M843.568,568.485h0a.431.431,0,0,0,.427-.432v-4.692a.431.431,0,1,0-.862,0v4.692A.431.431,0,0,0,843.568,568.485Z" transform="translate(33.147 29.232)"/><path class="b" d="M847.8,568.485a.431.431,0,0,0,.43-.432v-4.692a.431.431,0,1,0-.861,0v4.7A.429.429,0,0,0,847.8,568.485Z" transform="translate(34.62 29.232)"/><path class="b" d="M852.026,568.485h0a.429.429,0,0,0,.427-.432v-4.692a.431.431,0,1,0-.862,0v4.692A.431.431,0,0,0,852.026,568.485Z" transform="translate(36.093 29.232)"/><path class="b" d="M856.255,568.485h0a.429.429,0,0,0,.427-.432v-4.692a.431.431,0,1,0-.862,0v4.692A.431.431,0,0,0,856.255,568.485Z" transform="translate(37.566 29.232)"/><path class="b" d="M875.358,594.813h7.518a.431.431,0,0,0,0-.862h-7.518a.431.431,0,1,0,0,.862Z" transform="translate(44.219 40.037)"/><path class="b" d="M883.94,594.813h7.518a.431.431,0,0,0,0-.862H883.94a.431.431,0,1,0,0,.862Z" transform="translate(47.209 40.037)"/><path class="b" d="M875.358,597.373h7.518a.431.431,0,0,0,0-.862h-7.518a.431.431,0,1,0,0,.862Z" transform="translate(44.219 40.929)"/><path class="b" d="M883.94,597.373h7.518a.431.431,0,0,0,0-.862H883.94a.431.431,0,1,0,0,.862Z" transform="translate(47.209 40.929)"/><path class="b" d="M875.358,599.933h7.518a.431.431,0,0,0,0-.862h-7.518a.431.431,0,1,0,0,.862Z" transform="translate(44.219 41.82)"/><path class="b" d="M883.94,599.933h7.518a.431.431,0,0,0,0-.862H883.94a.431.431,0,1,0,0,.862Z" transform="translate(47.209 41.82)"/><g transform="translate(825.333 540.887)"><path class="b" d="M835.171,530.509H805.778a.429.429,0,0,1-.43-.427V525.33a.427.427,0,0,1,.427-.43h29.4a.428.428,0,0,1,.43.427v4.751a.429.429,0,0,1-.427.43Zm-28.961-.862h28.53v-3.886H806.21Z" transform="translate(-805.348 -524.9)"/></g><g transform="translate(825.174 551.025)"><path class="b" d="M805.66,537.034a.43.43,0,0,1-.43-.43v-3.755a.431.431,0,0,1,.862,0h0V536.6A.431.431,0,0,1,805.66,537.034Z" transform="translate(-805.23 -532.419)"/><g transform="translate(4.191)"><path class="b" d="M808.768,537.034a.43.43,0,0,1-.43-.43v-3.755a.43.43,0,1,1,.86,0h0V536.6A.43.43,0,0,1,808.768,537.034Z" transform="translate(-808.338 -532.419)"/></g><g transform="translate(8.384)"><path class="b" d="M811.878,537.034a.43.43,0,0,1-.43-.43v-3.755a.431.431,0,0,1,.861,0h0V536.6A.431.431,0,0,1,811.878,537.034Z" transform="translate(-811.448 -532.419)"/></g><g transform="translate(12.573)"><path class="b" d="M814.987,537.034a.431.431,0,0,1-.431-.43v-3.755a.431.431,0,0,1,.861,0h0V536.6A.43.43,0,0,1,814.987,537.034Z" transform="translate(-814.555 -532.419)"/></g><g transform="translate(16.77)"><path class="b" d="M818.1,537.034a.43.43,0,0,1-.43-.43v-3.755a.431.431,0,0,1,.861,0h0V536.6A.431.431,0,0,1,818.1,537.034Z" transform="translate(-817.668 -532.419)"/></g></g><g transform="translate(825.174 559.625)"><path class="b" d="M805.66,543.415a.431.431,0,0,1-.43-.431v-3.754a.431.431,0,1,1,.862,0v3.754A.431.431,0,0,1,805.66,543.415Z" transform="translate(-805.23 -538.798)"/><g transform="translate(4.191)"><path class="b" d="M808.768,543.415a.431.431,0,0,1-.43-.431v-3.754a.43.43,0,1,1,.86,0v3.754A.431.431,0,0,1,808.768,543.415Z" transform="translate(-808.338 -538.798)"/></g><g transform="translate(8.384)"><path class="b" d="M811.878,543.415a.431.431,0,0,1-.43-.431v-3.754a.431.431,0,1,1,.861,0v3.754A.432.432,0,0,1,811.878,543.415Z" transform="translate(-811.448 -538.798)"/></g><g transform="translate(12.573)"><path class="b" d="M814.987,543.415a.431.431,0,0,1-.431-.431v-3.754a.431.431,0,1,1,.861,0v3.754A.431.431,0,0,1,814.987,543.415Z" transform="translate(-814.555 -538.798)"/></g><g transform="translate(16.77)"><path class="b" d="M818.1,543.415a.431.431,0,0,1-.43-.431v-3.754a.431.431,0,1,1,.861,0v3.754A.431.431,0,0,1,818.1,543.415Z" transform="translate(-817.668 -538.798)"/></g></g><g transform="translate(825.174 568.225)"><path class="b" d="M805.66,549.793a.431.431,0,0,1-.43-.431v-3.754a.431.431,0,1,1,.862,0v3.754A.431.431,0,0,1,805.66,549.793Z" transform="translate(-805.23 -545.176)"/><g transform="translate(4.191)"><path class="b" d="M808.768,549.793a.431.431,0,0,1-.43-.431v-3.754a.43.43,0,1,1,.86,0v3.754A.431.431,0,0,1,808.768,549.793Z" transform="translate(-808.338 -545.176)"/></g><g transform="translate(8.384)"><path class="b" d="M811.878,549.793a.431.431,0,0,1-.43-.431v-3.754a.431.431,0,1,1,.861,0v3.754A.432.432,0,0,1,811.878,549.793Z" transform="translate(-811.448 -545.176)"/></g><g transform="translate(12.573)"><path class="b" d="M814.987,549.793a.431.431,0,0,1-.431-.427v-3.758a.431.431,0,1,1,.861,0v3.754A.431.431,0,0,1,814.987,549.793Z" transform="translate(-814.555 -545.176)"/></g><g transform="translate(16.77)"><path class="b" d="M818.1,549.793a.431.431,0,0,1-.43-.431v-3.754a.431.431,0,1,1,.861,0v3.754a.431.431,0,0,1-.427.431Z" transform="translate(-817.668 -545.176)"/></g></g><g transform="translate(825.174 576.823)"><path class="b" d="M805.66,556.168a.43.43,0,0,1-.43-.43v-3.754a.431.431,0,0,1,.862,0h0v3.754A.431.431,0,0,1,805.66,556.168Z" transform="translate(-805.23 -551.553)"/><g transform="translate(4.191)"><path class="b" d="M808.768,556.168a.43.43,0,0,1-.43-.43v-3.754a.43.43,0,1,1,.86,0h0v3.754A.43.43,0,0,1,808.768,556.168Z" transform="translate(-808.338 -551.553)"/></g><g transform="translate(8.384)"><path class="b" d="M811.878,556.168a.43.43,0,0,1-.43-.43v-3.754a.431.431,0,1,1,.861,0h0v3.754A.431.431,0,0,1,811.878,556.168Z" transform="translate(-811.448 -551.553)"/></g><g transform="translate(12.573)"><path class="b" d="M814.987,556.168a.431.431,0,0,1-.431-.43v-3.754a.431.431,0,1,1,.861,0h0v3.754A.43.43,0,0,1,814.987,556.168Z" transform="translate(-814.555 -551.553)"/></g><g transform="translate(16.77)"><path class="b" d="M818.1,556.168a.43.43,0,0,1-.43-.43v-3.754a.431.431,0,1,1,.861,0h0v3.754A.431.431,0,0,1,818.1,556.168Z" transform="translate(-817.668 -551.553)"/></g></g><g transform="translate(825.174 585.418)"><path class="b" d="M805.66,562.55a.431.431,0,0,1-.43-.431v-3.759a.431.431,0,1,1,.862,0h0v3.755a.431.431,0,0,1-.426.435Z" transform="translate(-805.23 -557.928)"/><g transform="translate(4.191)"><path class="b" d="M808.768,562.55a.431.431,0,0,1-.43-.431v-3.759a.43.43,0,1,1,.86,0h0v3.755a.43.43,0,0,1-.425.435Z" transform="translate(-808.338 -557.928)"/></g><g transform="translate(8.384)"><path class="b" d="M811.878,562.55a.431.431,0,0,1-.43-.431v-3.759a.431.431,0,1,1,.861,0h0v3.755a.431.431,0,0,1-.426.435Z" transform="translate(-811.448 -557.928)"/></g><g transform="translate(12.573)"><path class="b" d="M814.987,562.55a.43.43,0,0,1-.431-.427v-3.763a.431.431,0,1,1,.861,0h0v3.755a.431.431,0,0,1-.426.435Z" transform="translate(-814.555 -557.928)"/></g><g transform="translate(16.77)"><path class="b" d="M818.1,562.55a.431.431,0,0,1-.43-.431v-3.759a.431.431,0,1,1,.861,0h0v3.755a.431.431,0,0,1-.422.435Z" transform="translate(-817.668 -557.928)"/></g></g><g transform="translate(825.174 594.023)"><path class="b" d="M805.66,568.927a.431.431,0,0,1-.43-.431v-3.754a.431.431,0,1,1,.862,0h0V568.5A.431.431,0,0,1,805.66,568.927Z" transform="translate(-805.23 -564.31)"/><g transform="translate(4.191)"><path class="b" d="M808.768,568.927a.431.431,0,0,1-.43-.431v-3.754a.43.43,0,1,1,.86,0h0V568.5A.431.431,0,0,1,808.768,568.927Z" transform="translate(-808.338 -564.31)"/></g><g transform="translate(8.384)"><path class="b" d="M811.878,568.927a.431.431,0,0,1-.43-.431v-3.754a.431.431,0,1,1,.861,0h0V568.5A.432.432,0,0,1,811.878,568.927Z" transform="translate(-811.448 -564.31)"/></g><g transform="translate(12.573)"><path class="b" d="M814.987,568.927a.431.431,0,0,1-.431-.431v-3.754a.431.431,0,1,1,.861,0h0V568.5A.431.431,0,0,1,814.987,568.927Z" transform="translate(-814.555 -564.31)"/></g><g transform="translate(16.77)"><path class="b" d="M818.1,568.927a.431.431,0,0,1-.43-.431v-3.754a.431.431,0,1,1,.861,0h0V568.5A.431.431,0,0,1,818.1,568.927Z" transform="translate(-817.668 -564.31)"/></g></g><g transform="translate(825.174 602.622)"><path class="b" d="M805.66,575.3a.431.431,0,0,1-.43-.432v-3.754a.431.431,0,1,1,.862,0h0v3.754A.431.431,0,0,1,805.66,575.3Z" transform="translate(-805.23 -570.688)"/><g transform="translate(4.191)"><path class="b" d="M808.768,575.3a.431.431,0,0,1-.43-.432v-3.754a.43.43,0,1,1,.86,0h0v3.754A.431.431,0,0,1,808.768,575.3Z" transform="translate(-808.338 -570.688)"/></g><g transform="translate(8.384)"><path class="b" d="M811.878,575.3a.431.431,0,0,1-.43-.432v-3.754a.431.431,0,1,1,.861,0h0v3.754A.432.432,0,0,1,811.878,575.3Z" transform="translate(-811.448 -570.688)"/></g><g transform="translate(12.573)"><path class="b" d="M814.987,575.3a.431.431,0,0,1-.431-.432v-3.754a.431.431,0,1,1,.861,0h0v3.754A.431.431,0,0,1,814.987,575.3Z" transform="translate(-814.555 -570.688)"/></g><g transform="translate(16.77)"><path class="b" d="M818.1,575.3a.431.431,0,0,1-.43-.432v-3.754a.431.431,0,1,1,.861,0h0v3.754A.431.431,0,0,1,818.1,575.3Z" transform="translate(-817.668 -570.688)"/></g></g><g transform="translate(825.174 611.222)"><path class="b" d="M805.66,581.683a.431.431,0,0,1-.43-.431V577.5a.431.431,0,1,1,.862,0h0v3.754A.431.431,0,0,1,805.66,581.683Z" transform="translate(-805.23 -577.066)"/><g transform="translate(4.191)"><path class="b" d="M808.768,581.683a.431.431,0,0,1-.43-.431V577.5a.43.43,0,1,1,.86,0h0v3.754A.431.431,0,0,1,808.768,581.683Z" transform="translate(-808.338 -577.066)"/></g><g transform="translate(8.384)"><path class="b" d="M811.878,581.683a.431.431,0,0,1-.43-.431V577.5a.431.431,0,1,1,.861,0h0v3.754A.432.432,0,0,1,811.878,581.683Z" transform="translate(-811.448 -577.066)"/></g><g transform="translate(12.573)"><path class="b" d="M814.987,581.683a.429.429,0,0,1-.431-.427V577.5a.431.431,0,1,1,.861,0h0v3.754A.431.431,0,0,1,814.987,581.683Z" transform="translate(-814.555 -577.066)"/></g><g transform="translate(16.77)"><path class="b" d="M818.1,581.683a.431.431,0,0,1-.43-.431V577.5a.431.431,0,1,1,.861,0h0v3.754a.431.431,0,0,1-.427.431Z" transform="translate(-817.668 -577.066)"/></g></g><g transform="translate(825.174 619.823)"><path class="b" d="M805.66,588.06a.43.43,0,0,1-.43-.43v-3.755a.431.431,0,0,1,.862,0v3.755A.431.431,0,0,1,805.66,588.06Z" transform="translate(-805.23 -583.445)"/><g transform="translate(4.191)"><path class="b" d="M808.768,588.06a.43.43,0,0,1-.43-.43v-3.755a.43.43,0,0,1,.86,0v3.755A.43.43,0,0,1,808.768,588.06Z" transform="translate(-808.338 -583.445)"/></g><g transform="translate(8.384)"><path class="b" d="M811.878,588.06a.43.43,0,0,1-.43-.43v-3.755a.431.431,0,0,1,.861,0v3.755A.431.431,0,0,1,811.878,588.06Z" transform="translate(-811.448 -583.445)"/></g><g transform="translate(12.573)"><path class="b" d="M814.987,588.06a.431.431,0,0,1-.431-.43v-3.755a.431.431,0,0,1,.861,0v3.755A.43.43,0,0,1,814.987,588.06Z" transform="translate(-814.555 -583.445)"/></g><g transform="translate(16.77)"><path class="b" d="M818.1,588.06a.43.43,0,0,1-.43-.43v-3.755a.431.431,0,0,1,.861,0v3.755A.431.431,0,0,1,818.1,588.06Z" transform="translate(-817.668 -583.445)"/></g></g><g transform="translate(825.174 628.421)"><path class="b" d="M805.66,594.437a.431.431,0,0,1-.43-.431v-3.754a.431.431,0,0,1,.862,0v3.754A.431.431,0,0,1,805.66,594.437Z" transform="translate(-805.23 -589.822)"/><g transform="translate(4.191)"><path class="b" d="M808.768,594.437a.431.431,0,0,1-.43-.431v-3.754a.43.43,0,1,1,.86,0v3.754A.431.431,0,0,1,808.768,594.437Z" transform="translate(-808.338 -589.822)"/></g><g transform="translate(8.384)"><path class="b" d="M811.878,594.437a.431.431,0,0,1-.43-.431v-3.754a.431.431,0,0,1,.861,0v3.754A.432.432,0,0,1,811.878,594.437Z" transform="translate(-811.448 -589.822)"/></g><g transform="translate(12.573)"><path class="b" d="M814.987,594.437a.43.43,0,0,1-.431-.427v-3.758a.431.431,0,0,1,.861,0v3.754A.431.431,0,0,1,814.987,594.437Z" transform="translate(-814.555 -589.822)"/></g></g><g transform="translate(825.174 637.018)"><path class="b" d="M805.66,600.819a.43.43,0,0,1-.43-.43v-3.759a.431.431,0,0,1,.862,0h0v3.754a.43.43,0,0,1-.426.435Z" transform="translate(-805.23 -596.198)"/><g transform="translate(4.191)"><path class="b" d="M808.768,600.819a.43.43,0,0,1-.43-.43v-3.759a.43.43,0,1,1,.86,0h0v3.754a.429.429,0,0,1-.425.435Z" transform="translate(-808.338 -596.198)"/></g><g transform="translate(8.384)"><path class="b" d="M811.878,600.819a.43.43,0,0,1-.43-.43v-3.759a.431.431,0,1,1,.861,0h0v3.754a.431.431,0,0,1-.426.435Z" transform="translate(-811.448 -596.198)"/></g><g transform="translate(12.573)"><path class="b" d="M814.987,600.819a.431.431,0,0,1-.431-.43v-3.759a.431.431,0,1,1,.861,0h0v3.754a.43.43,0,0,1-.426.435Z" transform="translate(-814.555 -596.198)"/></g></g><g transform="translate(872.255 608.748)"><path class="c" d="M845.368,575.231a5.219,5.219,0,1,0,5.219,5.221A5.226,5.226,0,0,0,845.368,575.231Zm0,9.373a4.153,4.153,0,0,1,0-8.307h0a4.153,4.153,0,0,1,0,8.307Z" transform="translate(-840.149 -575.231)"/></g><g transform="translate(850.233 618.495)"><path class="c" d="M861.9,622.513h2.842l-.084.475a5.047,5.047,0,0,0-.075.868,5.219,5.219,0,0,0,10.437,0,4.925,4.925,0,0,0-.077-.867l-.084-.475h1.033a1.472,1.472,0,0,0,1.471-1.471c0-.227-.005-.449-.015-.669l-.013-.3.291-.1a3.345,3.345,0,0,0,2.137-4.157l-.711-2.285a3.3,3.3,0,0,0-3.178-2.352H873.55a1.379,1.379,0,0,0-.191.018l-.193.034-.144-.131a13.64,13.64,0,0,0-2.148-1.569l-.173-.1-.171-1.439h11.923a.535.535,0,0,0,.533-.534v-2.811a.533.533,0,0,0-1.065,0v2.279h-2.683V590.583a1.471,1.471,0,0,0-1.47-1.468H867.458a1.472,1.472,0,0,0-1.471,1.468v16.337h-2.682v-3.216a1.455,1.455,0,0,0-.2-.731l-.123-.208.123-.206a1.442,1.442,0,0,0,.2-.732v-1.4a1.519,1.519,0,0,0-.073-.457l-5.641-17.335a1.461,1.461,0,0,0-.069-.173,8.218,8.218,0,0,1-.794.964l5.51,17v1.809H848.651v12.248a1.81,1.81,0,1,1-3.62,0V599.667l8.163-2.772-3.347-9.274-7.672,6.508a1.262,1.262,0,0,1-1.768-.12,1.287,1.287,0,0,1,.026-1.769L847.548,585a7.756,7.756,0,0,1-.946-.557l-6.927,7.046a2.352,2.352,0,0,0,3.191,3.45l6.5-5.517,2.457,6.809-6.859,2.33a1.473,1.473,0,0,0-1,1.393v14.525a2.876,2.876,0,1,0,5.752,0v-9.511l.716.863c.732.882,1.348,1.6,1.385,1.64a1.419,1.419,0,0,0,.375.3l.208.116v.1h17.059l.251,2.126a12.077,12.077,0,0,1,6.588,10.935l-.007.4H860.834v1.875H838.128l-.12-.127a10.077,10.077,0,0,0-7.313-3.155h-.147a13.611,13.611,0,0,0-5.107,1.058l-.735.309.186-.777c.014-.055,1.385-5.55,6.063-5.55a7.422,7.422,0,0,1,2.372.422c-.93-2.713-3.167-11.318,2.413-19.362h-2.489a1.347,1.347,0,0,1-1.342-1.34v-3.756a1.34,1.34,0,0,1,1.34-1.333,1.3,1.3,0,0,1,.646.164l2.752,1.487a5.046,5.046,0,0,1,.477-.953l-2.726-1.474a2.441,2.441,0,0,0-1.151-.291,2.406,2.406,0,0,0-2.4,2.4V594.8a2.407,2.407,0,0,0,2.3,2.4l.639.031-.3.564a22.345,22.345,0,0,0-1.844,15.727l.123.519-.533-.023c-.09,0-.181-.007-.271-.007-4.4,0-6.533,4-7.1,6.369a1.471,1.471,0,0,0,1.087,1.77,1.026,1.026,0,0,0,.34.042l.554-.046-.007.53a5.082,5.082,0,0,0-.139,1.173,5.219,5.219,0,0,0,10.437,0v-.926l.677.557a4.821,4.821,0,0,1,.355.356,1.478,1.478,0,0,0,1.145.546h22.126a1.472,1.472,0,0,0,1.47-1.47Zm-20.006-3.28h10.569a4.41,4.41,0,0,0,3.814-4.673,6.2,6.2,0,0,0-3.519-5.8l-.359-.171v1.177a5.087,5.087,0,0,1,2.811,4.8,3.305,3.305,0,0,1-2.813,3.6l-5.551.005h-4.41l-3.913-5.4,1.607-14.738a4.962,4.962,0,0,1-1.03-.384l-1.681,15.414Zm-11,8.775a4.143,4.143,0,0,1-3.518-6.33l.085-.138.155-.04a11.645,11.645,0,0,1,2.92-.391h.036a9.478,9.478,0,0,1,3.921.855l.138.063.062.138a4.149,4.149,0,0,1-2.082,5.479h0A4.023,4.023,0,0,1,830.9,628.007Zm38.9,0a4.14,4.14,0,0,1-4.017-5.194l.08-.3h7.875l.079.3a4.1,4.1,0,0,1,.135,1.038A4.157,4.157,0,0,1,869.8,628.007Zm7.441-8.949-.1-.585a12.66,12.66,0,0,0-2.447-5.579l-.5-.651h1.669a2.268,2.268,0,0,1,2.176,1.6l.709,2.285a2.27,2.27,0,0,1-.995,2.621Zm.929-12.137H867.053V590.18h2.683V593.4a1.471,1.471,0,0,0,1.47,1.47h2.811a1.473,1.473,0,0,0,1.471-1.47V590.18h2.682Zm-15.932,0h-9.493l-.12-.14s-1.279-1.486-2.353-2.823l-.527-.657h12.493Zm12.183-13.12H870.8v-3.62h3.62Z" transform="translate(-823.815 -582.46)"/></g><g transform="translate(747.968 537.774)"><path class="d" d="M751.754,530.952c1.983,1.676,5.171.977,5.171.977,7.642,6.326,12.581-1.5,12.581-1.5a1.6,1.6,0,0,0,1.6.047c1.792,1.472,5.554.889,6.435-1.173a2.819,2.819,0,0,1,.511,1.335c.406,3.062-4.478,4.2-6.6,2.458a1.6,1.6,0,0,1-1.6-.047s-4.94,7.828-12.581,1.5c0,0-3.189.7-5.172-.978,0,0-3.666,1.214-4.1-2.052a2.917,2.917,0,0,1,.1-1.346C749.2,531.8,751.754,530.952,751.754,530.952Z" transform="translate(-747.968 -520.254)"/><path class="e" d="M771.073,532.812a1.6,1.6,0,0,1-1.6-.047s-4.939,7.828-12.581,1.5c0,0-3.187.7-5.171-.978,0,0-2.558.845-3.653-.778.636-1.845,3.328-1.671,3.328-1.671a5.114,5.114,0,0,1,4.553-2.091,3.5,3.5,0,0,1,4.559-2.958s1.253-2.629,3.692-3.085c2.861-.534,5.626.743,6.542,4.672a3.271,3.271,0,0,1,3.151,3.148s2.488-.41,3.618,1.112C776.627,533.7,772.865,534.285,771.073,532.812Z" transform="translate(-747.933 -522.591)"/></g><g transform="translate(938.29 523.674)"><path class="d" d="M917.222,517.938c-1.518,5.059-7.8,2.995-7.8,2.995a12.271,12.271,0,0,1-13.306-.182c-2.362.581-5.515-.259-6.6-2.087a2.91,2.91,0,0,0-.388,1.466c0,2.768,4.089,4.2,6.99,3.481a12.27,12.27,0,0,0,13.306.183s6.283,2.064,7.8-2.995a4.8,4.8,0,0,0,.154-3.283A3.67,3.67,0,0,1,917.222,517.938Z" transform="translate(-889.125 -510.259)"/><path class="e" d="M896.014,522.625a12.271,12.271,0,0,0,13.306.182s6.283,2.064,7.8-2.995a3.675,3.675,0,0,0,.154-.422,4.043,4.043,0,0,0-1.258-1.777c-2.485-2.083-6.7-.833-6.7-.833a4.822,4.822,0,0,0-4.832-4.644c-3.035-.115-4.8,2.977-4.695,3.572,0,0-5.66-1.548-7.18,2.649a5.643,5.643,0,0,0-3.2,2.18C890.5,522.366,893.652,523.206,896.014,522.625Z" transform="translate(-889.025 -512.134)"/></g><g transform="translate(821.928 479)"><path class="d" d="M834.434,504.545c-6.348,7.553-14.571,3.04-14.571,3.04-6.282,4.106-9.2-1.51-9.2-1.51-6.631,2.556-9.771-2.4-9.771-2.4-2.573.735-4.44.471-5.378-.653a2,2,0,0,0-.686,1.564c0,2.827,2.269,3.911,6.065,2.827,0,0,3.14,4.958,9.771,2.4,0,0,2.923,5.616,9.2,1.51,0,0,8.223,4.513,14.571-3.039,0,0,14.528,3.717,14.528-4.474a6.031,6.031,0,0,0-.291-1.925C846.628,507.665,834.434,504.545,834.434,504.545Z" transform="translate(-794.822 -488.557)"/><path class="e" d="M800.709,507.117s3.14,4.958,9.771,2.4c0,0,2.923,5.616,9.2,1.51,0,0,8.223,4.513,14.571-3.04,0,0,12.194,3.12,14.237-2.659-1.912-5.733-12.666-3.129-12.666-3.129s-2.094-9.412-12.368-5.229c0,0-.065-4.886-6.871-4.97-6.282-.078-6.8,6-6.8,6s-10.383-2.788-10.6,7.514c0,0-2.583-.175-3.851.953C796.269,507.587,798.137,507.852,800.709,507.117Z" transform="translate(-794.645 -492)"/></g><g transform="translate(763.525 643.944)"><path class="b" d="M837.7,601.335H759.674c-.09,0-.169.193-.169.43s.072.431.169.431H837.86C837.8,601.911,837.75,601.622,837.7,601.335Z" transform="translate(-759.506 -601.335)"/><path class="b" d="M903.674,601.335h-29.13c-.054.287-.1.576-.163.861h29.293c.1,0,.169-.193.169-.431S903.771,601.335,903.674,601.335Z" transform="translate(-719.495 -601.335)"/></g><g transform="translate(821.843 503.052)"><path class="b" d="M911.41,606.533H898.983V593.62h3.038a.43.43,0,0,0,.43-.429v-6.349a.43.43,0,0,0-.43-.427h-28.65c.1.286.2.572.291.86h27.922v5.484H875.005c.049.287.1.573.142.862h22.975v12.917H874.895c-.054.287-.1.577-.163.862h23.822l.012-.005H911.41a.43.43,0,1,0,0-.86Z" transform="translate(-778.165 -465.64)"/><path class="f" d="M834.628,594.7V524.32l35.809-26.2v98.925c.293.177.577.364.866.547V579.874h5.48v21.942q.437.4.86.821V579.444a.431.431,0,0,0-.43-.432H871.3v-6.4h5.161a.431.431,0,0,0,0-.862H871.3v-3.841h5.161a.431.431,0,0,0,0-.862H871.3v-3.835h5.161a.431.431,0,0,0,0-.862H871.3v-3.835h5.161a.431.431,0,0,0,0-.862H871.3v-25.8l23.065,23.064v2.741h-12.2a.431.431,0,0,0,0,.862h12.2v3.835h-12.2a.431.431,0,0,0,0,.862h12.2v3.835h-12.2a.431.431,0,0,0,0,.862h12.2v3.841h-12.2a.431.431,0,0,0,0,.862h12.2v3.827h-12.2a.431.431,0,0,0,0,.862h12.2v3.837h-12.2a.431.431,0,0,0,0,.862h12.2v3.832h-12.2a.431.431,0,0,0,0,.862h12.2v3.832h-12.2a.431.431,0,0,0,0,.862h12.2v3.835h-12.2a.431.431,0,0,0,0,.862h12.2v3.831h-12.2a.431.431,0,0,0,0,.862h12.2v3.839h-12.2a.431.431,0,0,0,0,.862h12.2V609.3h-11.28c.186.286.375.57.553.862h10.727v3.843H885.7q.2.429.39.862h8.279v.688a.431.431,0,0,0,.431.43h0a.431.431,0,0,0,.431-.43v-60.82a.427.427,0,0,0-.128-.3l-11.168-11.165V530.987l4.37-4.371a.432.432,0,0,0,.128-.3v-5.339a.431.431,0,1,0-.862,0v5.16l-3.636,3.636V517.394a.431.431,0,1,0-.862,0v13.416h0v11.6L871.3,530.637V497.272a.425.425,0,0,0-.084-.256.429.429,0,0,0-.6-.093l-36.671,26.832a.427.427,0,0,0-.175.348v70.982Q834.195,594.885,834.628,594.7Z" transform="translate(-791.959 -496.839)"/><path class="b" d="M822.633,626.739h-19.01V529.283h22.541v72.623q.409-.809.855-1.6V529.283h3.675l4.077,61.311c.267-.243.546-.475.82-.711l-4.029-60.6h7.565v57.882c.283-.191.573-.372.862-.557V528.852a.431.431,0,0,0-.432-.431H803.189a.431.431,0,0,0-.43.431v98.316a.431.431,0,0,0,.43.431H822.8C822.737,627.315,822.687,627.026,822.633,626.739Z" transform="translate(-802.759 -485.839)"/></g></g></svg>