<svg xmlns="http://www.w3.org/2000/svg" width="162.279" height="138.031" viewBox="0 0 162.279 138.031"><defs><style>.a{fill:#2c3e50;}.b{fill:#f4f0f0;}.c{fill:#f7f7f7;}</style></defs><g transform="translate(-747.968 -479)"><path class="a" d="M785.271,595.878c-2.813,0-5.016-4.866-5.016-11.08s2.2-11.082,5.016-11.082,5.017,4.868,5.017,11.082S788.084,595.878,785.271,595.878Zm0-21.523c-2.373,0-4.378,4.782-4.378,10.441s2.005,10.442,4.378,10.442,4.378-4.782,4.378-10.442S787.648,574.355,785.271,574.355Z"/><path class="a" d="M785.271,601.98a.319.319,0,0,1-.319-.319V590.043a.319.319,0,0,1,.639,0v11.618A.319.319,0,0,1,785.271,601.98Z"/><path class="a" d="M785.271,586.42a.319.319,0,0,1-.319-.32v-2.038a.319.319,0,0,1,.639,0h0V586.1A.32.32,0,0,1,785.271,586.42Z"/><path class="a" d="M780.8,601.979h-7.18a.319.319,0,1,1,0-.639h6.745a2.573,2.573,0,0,0-3.329-1.466l-.008,0a.318.318,0,0,1-.4-.16,4.516,4.516,0,0,0-8.584,1.623h1.8a.319.319,0,1,1,0,.639h-2.134a.321.321,0,0,1-.32-.319,5.155,5.155,0,0,1,9.683-2.469,3.223,3.223,0,0,1,3.986,2.211c.017.062.033.124.047.187a.319.319,0,0,1-.239.383.282.282,0,0,1-.072.008Z"/><path class="a" d="M803.081,601.98h-8.632a.321.321,0,0,1-.319-.321l0-.031,4.3-43.325a.318.318,0,0,1,.317-.287h4.331a.32.32,0,0,1,0,.639H799.04L794.8,601.341h8.277a.319.319,0,1,1,0,.639Z"/><path class="a" d="M839.228,527.246a.319.319,0,0,0,.32-.319v-3.481a.319.319,0,0,0-.639,0v3.483A.317.317,0,0,0,839.228,527.246Z"/><path class="a" d="M843.457,527.246h0a.318.318,0,0,0,.317-.319v-3.481a.319.319,0,0,0-.639,0v3.481A.319.319,0,0,0,843.457,527.246Z"/><path class="a" d="M847.686,527.246a.319.319,0,0,0,.319-.319v-3.481a.319.319,0,0,0-.639,0v3.483A.318.318,0,0,0,847.686,527.246Z"/><path class="a" d="M851.915,527.246h0a.317.317,0,0,0,.317-.319v-3.481a.32.32,0,0,0-.639,0v3.481A.319.319,0,0,0,851.915,527.246Z"/><path class="a" d="M856.144,527.246h0a.317.317,0,0,0,.317-.319v-3.481a.32.32,0,0,0-.639,0v3.481A.319.319,0,0,0,856.144,527.246Z"/><path class="a" d="M839.228,535.207a.32.32,0,0,0,.32-.32v-3.48a.319.319,0,1,0-.639,0v3.483A.318.318,0,0,0,839.228,535.207Z"/><path class="a" d="M843.457,535.207h0a.32.32,0,0,0,.317-.32v-3.48a.319.319,0,1,0-.639,0v3.48A.319.319,0,0,0,843.457,535.207Z"/><path class="a" d="M847.686,535.207a.319.319,0,0,0,.319-.32v-3.48a.319.319,0,1,0-.639,0v3.483A.319.319,0,0,0,847.686,535.207Z"/><path class="a" d="M851.915,535.207h0a.318.318,0,0,0,.317-.32v-3.48a.32.32,0,1,0-.639,0v3.48A.32.32,0,0,0,851.915,535.207Z"/><path class="a" d="M856.144,535.207h0a.318.318,0,0,0,.317-.32v-3.48a.32.32,0,1,0-.639,0v3.48A.32.32,0,0,0,856.144,535.207Z"/><path class="a" d="M839.228,543.166a.32.32,0,0,0,.32-.32v-3.48a.319.319,0,0,0-.639,0v3.483A.317.317,0,0,0,839.228,543.166Z"/><path class="a" d="M843.457,543.166h0a.32.32,0,0,0,.317-.32v-3.48a.319.319,0,0,0-.639,0v3.48A.319.319,0,0,0,843.457,543.166Z"/><path class="a" d="M847.686,543.166a.319.319,0,0,0,.319-.32v-3.48a.319.319,0,0,0-.639,0v3.483A.318.318,0,0,0,847.686,543.166Z"/><path class="a" d="M851.915,543.166h0a.318.318,0,0,0,.317-.32v-3.48a.32.32,0,0,0-.639,0v3.48A.32.32,0,0,0,851.915,543.166Z"/><path class="a" d="M856.144,543.166h0a.318.318,0,0,0,.317-.32v-3.48a.32.32,0,0,0-.639,0v3.48A.32.32,0,0,0,856.144,543.166Z"/><path class="a" d="M839.228,551.128a.32.32,0,0,0,.32-.32v-3.48a.319.319,0,1,0-.639,0v3.483A.318.318,0,0,0,839.228,551.128Z"/><path class="a" d="M843.457,551.128h0a.32.32,0,0,0,.317-.32v-3.48a.319.319,0,1,0-.639,0v3.48A.319.319,0,0,0,843.457,551.128Z"/><path class="a" d="M847.688,547a.319.319,0,0,0-.319.32v3.485a.318.318,0,0,0,.317.32h.007a.32.32,0,0,0,.315-.325v-3.48A.32.32,0,0,0,847.688,547Z"/><path class="a" d="M851.915,551.128h0a.318.318,0,0,0,.317-.32v-3.48a.32.32,0,1,0-.639,0v3.48A.32.32,0,0,0,851.915,551.128Z"/><path class="a" d="M856.144,551.128h0a.318.318,0,0,0,.317-.32v-3.48a.32.32,0,1,0-.639,0v3.48A.32.32,0,0,0,856.144,551.128Z"/><path class="a" d="M839.228,559.088a.319.319,0,0,0,.32-.319v-3.481a.319.319,0,0,0-.639,0v3.483A.317.317,0,0,0,839.228,559.088Z"/><path class="a" d="M843.457,559.088h0a.319.319,0,0,0,.317-.319v-3.481a.319.319,0,0,0-.639,0v3.481A.319.319,0,0,0,843.457,559.088Z"/><path class="a" d="M847.686,559.088a.319.319,0,0,0,.319-.319v-3.481a.319.319,0,0,0-.639,0v3.483A.318.318,0,0,0,847.686,559.088Z"/><path class="a" d="M851.915,559.088h0a.318.318,0,0,0,.317-.319v-3.481a.32.32,0,0,0-.639,0v3.481A.319.319,0,0,0,851.915,559.088Z"/><path class="a" d="M856.144,559.088h0a.318.318,0,0,0,.317-.319v-3.481a.32.32,0,0,0-.639,0v3.481A.319.319,0,0,0,856.144,559.088Z"/><path class="a" d="M839.228,567.05a.32.32,0,0,0,.32-.32v-3.48a.319.319,0,1,0-.639,0v3.483A.317.317,0,0,0,839.228,567.05Z"/><path class="a" d="M843.457,567.05h0a.32.32,0,0,0,.317-.32v-3.48a.319.319,0,1,0-.639,0v3.48A.319.319,0,0,0,843.457,567.05Z"/><path class="a" d="M847.686,567.05a.319.319,0,0,0,.319-.32v-3.48a.319.319,0,1,0-.639,0v3.483A.318.318,0,0,0,847.686,567.05Z"/><path class="a" d="M851.915,567.05h0a.318.318,0,0,0,.317-.32v-3.48a.32.32,0,1,0-.639,0v3.48A.32.32,0,0,0,851.915,567.05Z"/><path class="a" d="M856.144,567.05h0a.318.318,0,0,0,.317-.32v-3.48a.32.32,0,1,0-.639,0v3.48A.32.32,0,0,0,856.144,567.05Z"/><path class="a" d="M875.247,594.59h5.576a.32.32,0,0,0,0-.639h-5.576a.32.32,0,1,0,0,.639Z"/><path class="a" d="M883.829,594.59h5.576a.32.32,0,0,0,0-.639h-5.576a.32.32,0,1,0,0,.639Z"/><path class="a" d="M875.247,597.15h5.576a.32.32,0,0,0,0-.639h-5.576a.32.32,0,1,0,0,.639Z"/><path class="a" d="M883.829,597.15h5.576a.32.32,0,0,0,0-.639h-5.576a.32.32,0,1,0,0,.639Z"/><path class="a" d="M875.247,599.71h5.576a.32.32,0,0,0,0-.639h-5.576a.32.32,0,1,0,0,.639Z"/><path class="a" d="M883.829,599.71h5.576a.32.32,0,0,0,0-.639h-5.576a.32.32,0,1,0,0,.639Z"/><path class="a" d="M827.467,529.06h-21.8a.318.318,0,0,1-.319-.317v-3.524a.317.317,0,0,1,.317-.319h21.8a.317.317,0,0,1,.319.317v3.524a.318.318,0,0,1-.317.319Zm-21.48-.639h21.16v-2.882h-21.16Z"/><path class="a" d="M805.549,535.842a.319.319,0,0,1-.319-.319v-2.785a.32.32,0,0,1,.639,0h0v2.785A.319.319,0,0,1,805.549,535.842Z"/><path class="a" d="M808.657,535.842a.319.319,0,0,1-.319-.319v-2.785a.319.319,0,0,1,.638,0h0v2.785A.319.319,0,0,1,808.657,535.842Z"/><path class="a" d="M811.767,535.842a.319.319,0,0,1-.319-.319v-2.785a.319.319,0,0,1,.639,0h0v2.785A.32.32,0,0,1,811.767,535.842Z"/><path class="a" d="M814.875,535.842a.319.319,0,0,1-.32-.319v-2.785a.319.319,0,0,1,.639,0h0v2.785A.319.319,0,0,1,814.875,535.842Z"/><path class="a" d="M817.987,535.842a.319.319,0,0,1-.319-.319v-2.785a.319.319,0,0,1,.639,0h0v2.785A.319.319,0,0,1,817.987,535.842Z"/><path class="a" d="M805.549,542.222a.319.319,0,0,1-.319-.32v-2.784a.32.32,0,1,1,.639,0V541.9A.32.32,0,0,1,805.549,542.222Z"/><path class="a" d="M808.657,542.222a.319.319,0,0,1-.319-.32v-2.784a.319.319,0,1,1,.638,0V541.9A.319.319,0,0,1,808.657,542.222Z"/><path class="a" d="M811.767,542.222a.319.319,0,0,1-.319-.32v-2.784a.319.319,0,1,1,.639,0V541.9A.32.32,0,0,1,811.767,542.222Z"/><path class="a" d="M814.875,542.222a.32.32,0,0,1-.32-.32v-2.784a.319.319,0,1,1,.639,0V541.9A.319.319,0,0,1,814.875,542.222Z"/><path class="a" d="M817.987,542.222a.319.319,0,0,1-.319-.32v-2.784a.319.319,0,1,1,.639,0V541.9A.32.32,0,0,1,817.987,542.222Z"/><path class="a" d="M805.549,548.6a.319.319,0,0,1-.319-.32V545.5a.32.32,0,1,1,.639,0v2.784A.32.32,0,0,1,805.549,548.6Z"/><path class="a" d="M808.657,548.6a.319.319,0,0,1-.319-.32V545.5a.319.319,0,1,1,.638,0v2.784A.319.319,0,0,1,808.657,548.6Z"/><path class="a" d="M811.767,548.6a.319.319,0,0,1-.319-.32V545.5a.319.319,0,1,1,.639,0v2.784A.32.32,0,0,1,811.767,548.6Z"/><path class="a" d="M814.875,548.6a.32.32,0,0,1-.32-.317V545.5a.319.319,0,1,1,.639,0v2.784A.319.319,0,0,1,814.875,548.6Z"/><path class="a" d="M817.987,548.6a.319.319,0,0,1-.319-.32V545.5a.319.319,0,1,1,.639,0v2.784a.32.32,0,0,1-.317.32Z"/><path class="a" d="M805.549,554.976a.319.319,0,0,1-.319-.319v-2.784a.32.32,0,0,1,.639,0h0v2.784A.319.319,0,0,1,805.549,554.976Z"/><path class="a" d="M808.657,554.976a.319.319,0,0,1-.319-.319v-2.784a.319.319,0,1,1,.638,0h0v2.784A.319.319,0,0,1,808.657,554.976Z"/><path class="a" d="M811.767,554.976a.319.319,0,0,1-.319-.319v-2.784a.319.319,0,1,1,.639,0h0v2.784A.32.32,0,0,1,811.767,554.976Z"/><path class="a" d="M814.875,554.976a.319.319,0,0,1-.32-.319v-2.784a.319.319,0,1,1,.639,0h0v2.784A.319.319,0,0,1,814.875,554.976Z"/><path class="a" d="M817.987,554.976a.319.319,0,0,1-.319-.319v-2.784a.319.319,0,1,1,.639,0h0v2.784A.319.319,0,0,1,817.987,554.976Z"/><path class="a" d="M805.549,561.356a.319.319,0,0,1-.319-.32v-2.788a.32.32,0,1,1,.639,0h0v2.785a.32.32,0,0,1-.316.323Z"/><path class="a" d="M808.657,561.356a.319.319,0,0,1-.319-.32v-2.788a.319.319,0,1,1,.638,0h0v2.785a.319.319,0,0,1-.315.323Z"/><path class="a" d="M811.767,561.356a.319.319,0,0,1-.319-.32v-2.788a.319.319,0,1,1,.639,0h0v2.785a.32.32,0,0,1-.316.323Z"/><path class="a" d="M814.875,561.356a.319.319,0,0,1-.32-.317v-2.791a.319.319,0,1,1,.639,0h0v2.785a.319.319,0,0,1-.316.323Z"/><path class="a" d="M817.987,561.356a.319.319,0,0,1-.319-.32v-2.788a.319.319,0,1,1,.639,0h0v2.785a.319.319,0,0,1-.313.323Z"/><path class="a" d="M805.549,567.734a.319.319,0,0,1-.319-.32V564.63a.32.32,0,1,1,.639,0h0v2.784A.32.32,0,0,1,805.549,567.734Z"/><path class="a" d="M808.657,567.734a.319.319,0,0,1-.319-.32V564.63a.319.319,0,1,1,.638,0h0v2.784A.319.319,0,0,1,808.657,567.734Z"/><path class="a" d="M811.767,567.734a.319.319,0,0,1-.319-.32V564.63a.319.319,0,1,1,.639,0h0v2.784A.32.32,0,0,1,811.767,567.734Z"/><path class="a" d="M814.875,567.734a.32.32,0,0,1-.32-.32V564.63a.319.319,0,1,1,.639,0h0v2.784A.319.319,0,0,1,814.875,567.734Z"/><path class="a" d="M817.987,567.734a.319.319,0,0,1-.319-.32V564.63a.319.319,0,1,1,.639,0h0v2.784A.32.32,0,0,1,817.987,567.734Z"/><path class="a" d="M805.549,574.112a.319.319,0,0,1-.319-.32v-2.784a.32.32,0,1,1,.639,0h0v2.784A.32.32,0,0,1,805.549,574.112Z"/><path class="a" d="M808.657,574.112a.319.319,0,0,1-.319-.32v-2.784a.319.319,0,1,1,.638,0h0v2.784A.319.319,0,0,1,808.657,574.112Z"/><path class="a" d="M811.767,574.112a.319.319,0,0,1-.319-.32v-2.784a.319.319,0,1,1,.639,0h0v2.784A.32.32,0,0,1,811.767,574.112Z"/><path class="a" d="M814.875,574.112a.32.32,0,0,1-.32-.32v-2.784a.319.319,0,1,1,.639,0h0v2.784A.319.319,0,0,1,814.875,574.112Z"/><path class="a" d="M817.987,574.112a.319.319,0,0,1-.319-.32v-2.784a.319.319,0,1,1,.639,0h0v2.784A.32.32,0,0,1,817.987,574.112Z"/><path class="a" d="M805.549,580.49a.319.319,0,0,1-.319-.32v-2.784a.32.32,0,1,1,.639,0h0v2.784A.32.32,0,0,1,805.549,580.49Z"/><path class="a" d="M808.657,580.49a.319.319,0,0,1-.319-.32v-2.784a.319.319,0,1,1,.638,0h0v2.784A.319.319,0,0,1,808.657,580.49Z"/><path class="a" d="M811.767,580.49a.319.319,0,0,1-.319-.32v-2.784a.319.319,0,1,1,.639,0h0v2.784A.32.32,0,0,1,811.767,580.49Z"/><path class="a" d="M814.875,580.49a.318.318,0,0,1-.32-.317v-2.787a.319.319,0,1,1,.639,0h0v2.784A.319.319,0,0,1,814.875,580.49Z"/><path class="a" d="M817.987,580.49a.319.319,0,0,1-.319-.32v-2.784a.319.319,0,1,1,.639,0h0v2.784a.32.32,0,0,1-.317.32Z"/><path class="a" d="M805.549,586.868a.319.319,0,0,1-.319-.319v-2.785a.32.32,0,0,1,.639,0v2.785A.319.319,0,0,1,805.549,586.868Z"/><path class="a" d="M808.657,586.868a.319.319,0,0,1-.319-.319v-2.785a.319.319,0,0,1,.638,0v2.785A.319.319,0,0,1,808.657,586.868Z"/><path class="a" d="M811.767,586.868a.319.319,0,0,1-.319-.319v-2.785a.319.319,0,0,1,.639,0v2.785A.32.32,0,0,1,811.767,586.868Z"/><path class="a" d="M814.875,586.868a.319.319,0,0,1-.32-.319v-2.785a.319.319,0,0,1,.639,0v2.785A.319.319,0,0,1,814.875,586.868Z"/><path class="a" d="M817.987,586.868a.319.319,0,0,1-.319-.319v-2.785a.319.319,0,0,1,.639,0v2.785A.319.319,0,0,1,817.987,586.868Z"/><path class="a" d="M805.549,593.245a.319.319,0,0,1-.319-.32v-2.784a.32.32,0,0,1,.639,0v2.784A.32.32,0,0,1,805.549,593.245Z"/><path class="a" d="M808.657,593.245a.319.319,0,0,1-.319-.32v-2.784a.319.319,0,0,1,.638,0v2.784A.319.319,0,0,1,808.657,593.245Z"/><path class="a" d="M811.767,593.245a.319.319,0,0,1-.319-.32v-2.784a.319.319,0,0,1,.639,0v2.784A.32.32,0,0,1,811.767,593.245Z"/><path class="a" d="M814.875,593.245a.319.319,0,0,1-.32-.317v-2.787a.319.319,0,0,1,.639,0v2.784A.319.319,0,0,1,814.875,593.245Z"/><path class="a" d="M805.549,599.625a.319.319,0,0,1-.319-.319v-2.788a.32.32,0,0,1,.639,0h0V599.3a.319.319,0,0,1-.316.323Z"/><path class="a" d="M808.657,599.625a.319.319,0,0,1-.319-.319v-2.788a.319.319,0,1,1,.638,0h0V599.3a.318.318,0,0,1-.315.323Z"/><path class="a" d="M811.767,599.625a.319.319,0,0,1-.319-.319v-2.788a.319.319,0,1,1,.639,0h0V599.3a.319.319,0,0,1-.316.323Z"/><path class="a" d="M814.875,599.625a.319.319,0,0,1-.32-.319v-2.788a.319.319,0,1,1,.639,0h0V599.3a.319.319,0,0,1-.316.323Z"/><path class="a" d="M844.02,575.231a3.871,3.871,0,1,0,3.871,3.872A3.876,3.876,0,0,0,844.02,575.231Zm0,6.952a3.081,3.081,0,0,1,0-6.161h0a3.081,3.081,0,0,1,0,6.161Z"/><path class="a" d="M852.061,612.166h2.108l-.062.352a3.743,3.743,0,0,0-.056.644,3.87,3.87,0,0,0,7.741,0,3.648,3.648,0,0,0-.057-.643l-.062-.352h.766a1.092,1.092,0,0,0,1.091-1.091c0-.168,0-.333-.011-.5l-.01-.226.216-.072a2.481,2.481,0,0,0,1.585-3.083l-.527-1.7a2.45,2.45,0,0,0-2.357-1.744H860.7a1.019,1.019,0,0,0-.142.013l-.143.025-.107-.1a10.119,10.119,0,0,0-1.593-1.164l-.128-.076-.127-1.067H867.3a.4.4,0,0,0,.4-.4v-2.085a.4.4,0,0,0-.79,0v1.69h-1.99V588.485a1.091,1.091,0,0,0-1.09-1.089h-7.646a1.092,1.092,0,0,0-1.091,1.089V600.6H853.1v-2.385a1.08,1.08,0,0,0-.151-.542l-.091-.154.091-.153a1.07,1.07,0,0,0,.151-.543v-1.041a1.127,1.127,0,0,0-.054-.339l-4.184-12.857a1.107,1.107,0,0,0-.051-.128,6.109,6.109,0,0,1-.589.715l4.087,12.609v1.342H842.235v9.084a1.342,1.342,0,1,1-2.685,0V595.222l6.054-2.056-2.482-6.878-5.69,4.827a.936.936,0,0,1-1.311-.089.955.955,0,0,1,.019-1.312l5.277-5.368a5.742,5.742,0,0,1-.7-.413l-5.138,5.226a1.745,1.745,0,0,0,2.367,2.559l4.821-4.092,1.822,5.05L839.5,594.4a1.092,1.092,0,0,0-.741,1.033V606.21a2.133,2.133,0,0,0,4.266,0v-7.054l.531.64c.543.654,1,1.184,1.027,1.216a1.053,1.053,0,0,0,.278.223l.154.086v.072h12.652l.186,1.577a8.957,8.957,0,0,1,4.886,8.11l-.005.295H851.271v1.391h-16.84l-.089-.094a7.473,7.473,0,0,0-5.424-2.34h-.109a10.1,10.1,0,0,0-3.788.785l-.545.229.138-.576c.01-.041,1.027-4.116,4.5-4.116a5.5,5.5,0,0,1,1.759.313,16.228,16.228,0,0,1,1.79-14.36h-1.846a1,1,0,0,1-1-.994v-2.786a.994.994,0,0,1,.994-.989.965.965,0,0,1,.479.122l2.041,1.1a3.739,3.739,0,0,1,.354-.707l-2.022-1.093a1.811,1.811,0,0,0-.854-.216,1.785,1.785,0,0,0-1.783,1.779v2.786a1.785,1.785,0,0,0,1.7,1.783l.474.023-.223.418a16.573,16.573,0,0,0-1.368,11.664l.091.385-.395-.017c-.067,0-.134-.005-.2-.005-3.262,0-4.845,2.969-5.266,4.724a1.091,1.091,0,0,0,.806,1.313.761.761,0,0,0,.252.031l.411-.034-.005.393a3.769,3.769,0,0,0-.1.87,3.871,3.871,0,0,0,7.741,0v-.687l.5.413a3.571,3.571,0,0,1,.263.264,1.1,1.1,0,0,0,.849.405h16.41a1.092,1.092,0,0,0,1.09-1.09Zm-14.838-2.433h7.839a3.271,3.271,0,0,0,2.829-3.466,4.6,4.6,0,0,0-2.61-4.3l-.266-.127v.873a3.773,3.773,0,0,1,2.085,3.558,2.451,2.451,0,0,1-2.086,2.671l-4.117,0h-3.271l-2.9-4.008L835.916,594a3.681,3.681,0,0,1-.764-.285l-1.247,11.432Zm-8.155,6.508a3.073,3.073,0,0,1-2.609-4.7l.063-.1.115-.03a8.637,8.637,0,0,1,2.166-.29h.027a7.03,7.03,0,0,1,2.908.634l.1.047.046.1a3.078,3.078,0,0,1-1.544,4.064h0A2.985,2.985,0,0,1,829.068,616.241Zm28.853,0a3.071,3.071,0,0,1-2.979-3.852l.059-.223h5.841l.059.224a3.042,3.042,0,0,1,.1.77A3.083,3.083,0,0,1,857.921,616.241Zm5.519-6.637-.074-.434a9.39,9.39,0,0,0-1.815-4.138l-.374-.483h1.238a1.682,1.682,0,0,1,1.614,1.188l.526,1.7a1.684,1.684,0,0,1-.738,1.944Zm.689-9h-8.245V588.186h1.99v2.385a1.091,1.091,0,0,0,1.09,1.09h2.085a1.092,1.092,0,0,0,1.091-1.09v-2.385h1.989Zm-11.816,0h-7.041l-.089-.1s-.949-1.1-1.745-2.094l-.391-.487h9.266Zm9.036-9.731h-2.685v-2.685h2.685Z"/><path class="b" d="M750.776,530.526a5.017,5.017,0,0,0,3.835.725c5.668,4.692,9.331-1.114,9.331-1.114a1.185,1.185,0,0,0,1.188.035c1.329,1.092,4.119.659,4.773-.87a2.09,2.09,0,0,1,.379.99c.3,2.271-3.321,3.116-4.895,1.823a1.183,1.183,0,0,1-1.187-.035s-3.664,5.806-9.331,1.114a5.019,5.019,0,0,1-3.836-.725s-2.719.9-3.04-1.522a2.163,2.163,0,0,1,.074-1C748.879,531.153,750.776,530.526,750.776,530.526Z"/><path class="c" d="M765.13,530.172a1.185,1.185,0,0,1-1.188-.035s-3.663,5.806-9.331,1.114a5.017,5.017,0,0,1-3.835-.725s-1.9.627-2.709-.577c.472-1.368,2.468-1.239,2.468-1.239a3.793,3.793,0,0,1,3.377-1.551,2.6,2.6,0,0,1,3.381-2.194,4.386,4.386,0,0,1,2.738-2.288c2.122-.4,4.173.551,4.852,3.465a2.426,2.426,0,0,1,2.337,2.335s1.845-.3,2.683.825C769.249,530.831,766.459,531.264,765.13,530.172Z"/><path class="b" d="M909.964,517.829c-1.126,3.752-5.786,2.221-5.786,2.221a9.1,9.1,0,0,1-9.869-.135c-1.752.431-4.09-.192-4.9-1.548a2.159,2.159,0,0,0-.288,1.087c0,2.053,3.033,3.112,5.184,2.582a9.1,9.1,0,0,0,9.869.136s4.66,1.531,5.786-2.221a3.56,3.56,0,0,0,.114-2.435A2.724,2.724,0,0,1,909.964,517.829Z"/><path class="c" d="M894.309,519.915a9.1,9.1,0,0,0,9.869.135s4.66,1.531,5.786-2.221a2.724,2.724,0,0,0,.114-.313,3,3,0,0,0-.933-1.318c-1.843-1.545-4.967-.618-4.967-.618a3.577,3.577,0,0,0-3.584-3.444,3.637,3.637,0,0,0-3.482,2.649s-4.2-1.148-5.325,1.965a4.186,4.186,0,0,0-2.374,1.617C890.219,519.723,892.557,520.346,894.309,519.915Z"/><g transform="translate(8 -13)"><path class="b" d="M824.2,503.858a8.73,8.73,0,0,1-10.807,2.255c-4.659,3.045-6.827-1.12-6.827-1.12-4.918,1.9-7.247-1.781-7.247-1.781-1.908.545-3.293.349-3.989-.484a1.484,1.484,0,0,0-.509,1.16c0,2.1,1.683,2.9,4.5,2.1,0,0,2.329,3.677,7.247,1.781,0,0,2.168,4.165,6.827,1.12a8.731,8.731,0,0,0,10.807-2.254s10.775,2.757,10.775-3.318a4.471,4.471,0,0,0-.216-1.428C833.245,506.172,824.2,503.858,824.2,503.858Z"/><path class="c" d="M799.32,503.212s2.329,3.677,7.247,1.781c0,0,2.168,4.165,6.827,1.12a8.73,8.73,0,0,0,10.807-2.255s9.044,2.314,10.559-1.972c-1.418-4.252-9.394-2.321-9.394-2.321s-1.553-6.981-9.173-3.878c0,0-.048-3.624-5.1-3.686a4.872,4.872,0,0,0-5.047,4.447s-7.7-2.068-7.863,5.573a4.651,4.651,0,0,0-2.856.707C796.027,503.561,797.412,503.757,799.32,503.212Z"/></g><path class="a" d="M817.5,601.335H759.631c-.067,0-.125.143-.125.319s.053.32.125.32h57.988C817.575,601.762,817.538,601.548,817.5,601.335Z"/><path class="a" d="M896.107,601.335H874.5c-.04.213-.077.427-.121.639h21.726c.072,0,.125-.143.125-.32S896.179,601.335,896.107,601.335Z"/><path class="a" d="M901.584,601.336h-9.217v-9.577h2.253a.319.319,0,0,0,.319-.318v-4.709a.319.319,0,0,0-.319-.317H873.371c.074.212.147.424.216.638H894.3v4.067H874.583c.036.213.074.425.1.639h17.04v9.58H874.5c-.04.213-.077.428-.121.639h17.668l.009,0h9.527a.319.319,0,1,0,0-.638Z"/><path class="a" d="M834.406,569.417v-52.2l26.559-19.434v73.37c.217.131.428.27.642.406V558.424h4.064V574.7q.324.3.638.609V558.1a.319.319,0,0,0-.319-.32H861.6v-4.744h3.828a.32.32,0,0,0,0-.639H861.6v-2.849h3.828a.319.319,0,0,0,0-.639H861.6V546.07h3.828a.319.319,0,0,0,0-.639H861.6v-2.844h3.828a.319.319,0,0,0,0-.639H861.6V522.809l17.107,17.106v2.033H869.66a.319.319,0,0,0,0,.639h9.051v2.844H869.66a.319.319,0,0,0,0,.639h9.051v2.844H869.66a.319.319,0,0,0,0,.639h9.051V552.4H869.66a.32.32,0,0,0,0,.639h9.051v2.838H869.66a.319.319,0,0,0,0,.639h9.051v2.846H869.66a.319.319,0,0,0,0,.639h9.051v2.842H869.66a.32.32,0,0,0,0,.639h9.051v2.842H869.66a.32.32,0,0,0,0,.639h9.051v2.844H869.66a.319.319,0,0,0,0,.639h9.051v2.841H869.66a.319.319,0,0,0,0,.639h9.051v2.847H869.66a.319.319,0,0,0,0,.639h9.051v2.837h-8.366c.138.212.278.423.41.639h7.956v2.85h-6.429q.148.318.289.639h6.14v.51a.319.319,0,0,0,.32.319h0a.319.319,0,0,0,.32-.319V539.78a.316.316,0,0,0-.1-.226l-8.283-8.281v-9.107l3.241-3.242a.321.321,0,0,0,.1-.225v-3.96a.32.32,0,1,0-.639,0v3.827l-2.7,2.7v-9.179a.32.32,0,1,0-.639,0v9.95h0v8.6l-8.733-8.729V497.16a.32.32,0,0,0-.508-.259l-27.2,19.9a.317.317,0,0,0-.13.258v52.646Q834.085,569.557,834.406,569.417Z"/><path class="a" d="M817.5,601.341H803.4V529.06h16.718v53.863q.3-.6.634-1.184V529.06h2.726l3.024,45.473c.2-.18.4-.352.608-.527l-2.988-44.946h5.611v42.93c.21-.142.425-.276.639-.413V528.741a.32.32,0,0,0-.32-.32H803.078a.319.319,0,0,0-.319.32V601.66a.319.319,0,0,0,.319.32H817.62C817.576,601.768,817.539,601.554,817.5,601.341Z"/></g></svg>