<svg xmlns="http://www.w3.org/2000/svg" width="227.797" height="56.332" viewBox="0 0 227.797 56.332"><g transform="translate(-0.002 -38.094)"><path d="M1263.966,163.853a6.31,6.31,0,0,0-4.962.7l-1.974-3.23a10.092,10.092,0,0,1,7.938-1.121Z" transform="translate(-1037.17 -70.127)" fill="#fff"/><path d="M1260.156,122.044a5.6,5.6,0,0,0-4.125,1.657l-2.386-2.363a8.956,8.956,0,0,1,6.6-2.651Z" transform="translate(-1035.944 -55.214)" fill="#ff9b91"/><path d="M1244.991,82.292a5.81,5.81,0,0,0-3.73,2.717l-3-1.771a9.294,9.294,0,0,1,5.969-4.346Q1244.608,80.592,1244.991,82.292Z" transform="translate(-1030.369 -40.797)" fill="#ff9b91"/><path d="M922.836,102.439a10.9,10.9,0,0,0-5.014,1.517,13.738,13.738,0,0,1,8.023-7.4l1.117,3.2A10.348,10.348,0,0,0,922.836,102.439Z" transform="translate(-914.269 -47.199)" fill="#a0cfff"/><path d="M1204.025,91.417a10.906,10.906,0,0,0-2.891,4.368,13.736,13.736,0,0,1,1.456-10.814l2.9,1.747A10.349,10.349,0,0,0,1204.025,91.417Z" transform="translate(-1016.732 -43)" fill="#a0cfff"/><path d="M916.657,158.307a10.914,10.914,0,0,1,5.154.935A13.737,13.737,0,0,0,913,152.811q-.372,1.652-.745,3.3A10.351,10.351,0,0,1,916.657,158.307Z" transform="translate(-912.25 -67.579)" fill="#fff"/><path d="M989.329,85.246a10.912,10.912,0,0,1,5.154.935,13.738,13.738,0,0,0-8.815-6.43l-.745,3.3A10.35,10.35,0,0,1,989.329,85.246Z" transform="translate(-938.581 -41.108)" fill="#fff"/><path d="M942.321,126a10.471,10.471,0,0,1,11.722.146l1.645-1.331a11.137,11.137,0,0,0-15.664-1.653Z" transform="translate(-922.313 -55.939)" fill="#ff9b91"/><path d="M977.238,101.529l5.074-.663,3.546,2.826-8.32.157Z" transform="translate(-935.797 -48.759)" fill="#aacba5"/><path d="M1222.259,113.452l-5.044.864-2.554,3.747,8-2.306Z" transform="translate(-1021.82 -53.319)" fill="#aacba5"/></g></svg>