<svg xmlns="http://www.w3.org/2000/svg" width="111.203" height="70.553" viewBox="0 0 111.203 70.553"><g transform="matrix(0.985, -0.174, 0.174, 0.985, -4.627, 10.018)"><g transform="translate(13.448 0)"><g transform="translate(43.127 10.103)"><path d="M1099.647,50.813s23.536-19.708,33.068-15.126c4.534,2.18,3.363,3.732,7.861,6.72,5,3.319,5.591,6.934,5.117,9.69-.91,5.29-2.11,5.081-4.3,13.341-3.28,12.352-42.858-8.552-42.858-8.552Z" transform="translate(-1098.531 -34.996)" fill="#fff"/><path d="M1115.146,66.542c4.957-3.726,9.4-7.105,9.4-7.105s-2.327-2.743-2.66-4.77c-.4-2.416.274-5.152-1.627-7.927a19.526,19.526,0,0,1-2.622-5.967,114.822,114.822,0,0,0-17.986,12.133l-1.116,6.073S1106.246,63.053,1115.146,66.542Z" transform="translate(-1098.531 -37.089)" fill="#ebebeb"/><path d="M1135.122,81.617c2.853-.872,3.686-4.234-.157-8.752-4.565-5.367-36.434-3.685-36.434-3.685S1123.1,82.153,1135.122,81.617Z" transform="translate(-1098.531 -47.292)" fill="#b3b3b3"/></g><path d="M1075.143,45.073s-14.988-26.79-25.526-25.9c-5.012.425-4.469,2.292-9.736,3.485-5.85,1.325-7.692,4.492-8.229,7.236-1.031,5.269.165,5.5-.723,14-1.327,12.711,43.1,7.25,43.1,7.25Z" transform="translate(-1030.899 -19.153)" fill="#fff"/><path d="M1066.406,56.953c-3.308-5.245-6.255-9.982-6.255-9.982s3.151-1.736,4.182-3.512c1.231-2.116,1.576-4.913,4.34-6.83a19.509,19.509,0,0,0,4.573-4.644,114.841,114.841,0,0,1,12.495,17.737l-1.116,6.073S1075.965,56.858,1066.406,56.953Z" transform="translate(-1041.498 -23.802)" fill="#ebebeb"/><path d="M1037.183,62.2c-2.356-1.831-1.939-5.269,3.259-8.124,6.176-3.392,35.363,9.515,35.363,9.515S1048.233,66.981,1037.183,62.2Z" transform="translate(-1032.678 -31.601)" fill="#b3b3b3"/><path d="M1100.193,49.537l-7.137-1.312a4.15,4.15,0,0,0-4.831,3.331l-2.062,11.217,15.3,2.812,2.062-11.217A4.148,4.148,0,0,0,1100.193,49.537Z" transform="translate(-1050.922 -29.661)" fill="#fff"/></g><g transform="translate(0 26.65)"><path d="M1146.489,96.594l1.021-15.9-49.535-17.455-2.83,15.263Z" transform="translate(-1040.729 -61.778)" fill="#e74f41"/><path d="M1009.811,76.152l4.746-15.207,52.5,1.465-2.83,15.263Z" transform="translate(-1009.811 -60.945)" fill="#ec695a"/><path d="M1115.571,104.4l-51.344-18.089-54.416-1.521,51.822,15.513Z" transform="translate(-1009.811 -69.586)" fill="#a32f25"/><path d="M1054.266,86.035l25.046,7.5,25.8,1.96-24.775-8.729Z" transform="translate(-1025.918 -70.036)" fill="#75231b"/></g><path d="M1127.91,74.508a44.044,44.044,0,0,1-1.479,14.773,49.5,49.5,0,0,1-5,11.479l3.706-1.087.128,3.731,3.123-1.865.6,3.5,3.2-1.758.177,3.137,2.882-1.593.976,2.823a34.682,34.682,0,0,0,5.039-15.336,48.808,48.808,0,0,0-.424-13.246Z" transform="translate(-1050.253 -39.209)" fill="#fff"/><path d="M1049.615,61.937a49.07,49.07,0,0,0-4.332,15.959,55.14,55.14,0,0,0,.64,13.931l-3.424-2.6-1.616,3.832-2.508-3.181-2.01,3.4-2.63-3.1-1.431,3.193-2.367-2.8-2.137,2.551a38.625,38.625,0,0,1,.852-17.96,54.355,54.355,0,0,1,5.705-13.615Z" transform="translate(-1016.088 -34.511)" fill="#fff"/></g></svg>