<svg xmlns="http://www.w3.org/2000/svg" width="676" height="204.207" viewBox="0 0 676 204.207"><defs><style>.a{opacity:0.238;}.b{fill:#77a8ba;}.c{fill:#b7e6f7;}</style></defs><g class="a" transform="translate(-35.47 -200.922)"><g transform="translate(546.809 319.846)"><g transform="translate(7.827 28.532)"><path class="b" d="M552.678,369.132a.621.621,0,0,1-.62-.62V321H455.1v47.515a.62.62,0,1,1-1.241,0V320.375a.62.62,0,0,1,.62-.62h98.2a.621.621,0,0,1,.62.62v48.136A.621.621,0,0,1,552.678,369.132Z" transform="translate(-453.86 -319.755)"/></g><path class="b" d="M562.023,326.534h-4.452a.62.62,0,0,1,0-1.241H561.4V322.16l-56.3-24.1-56.306,24.1v3.133h3.833a.62.62,0,0,1,0,1.241h-4.453a.62.62,0,0,1-.62-.62v-4.163a.618.618,0,0,1,.376-.57l56.926-24.369a.617.617,0,0,1,.488,0l56.926,24.369a.618.618,0,0,1,.376.57v4.163A.619.619,0,0,1,562.023,326.534Z" transform="translate(-447.552 -296.762)"/><g transform="translate(46.164 56.638)"><path class="b" d="M506.9,371.05H485.375a.619.619,0,0,1-.62-.62v-27.4a.62.62,0,0,1,.62-.62H506.9a.621.621,0,0,1,.62.62v27.4A.62.62,0,0,1,506.9,371.05ZM486,369.81h20.283V343.646H486Z" transform="translate(-484.755 -342.405)"/></g><g transform="translate(0 77.201)"><path class="b" d="M494.336,367.059H448.172a.62.62,0,0,1-.62-.62V359.6a.62.62,0,0,1,.62-.62h46.164a.62.62,0,0,1,.62.62v6.841A.62.62,0,0,1,494.336,367.059Zm-45.544-1.241h44.923v-5.6H448.793Z" transform="translate(-447.552 -358.977)"/><g transform="translate(67.688)"><path class="b" d="M548.884,367.059H502.721a.619.619,0,0,1-.62-.62V359.6a.619.619,0,0,1,.62-.62h46.163a.619.619,0,0,1,.62.62v6.841A.619.619,0,0,1,548.884,367.059Zm-45.542-1.241h44.922v-5.6H503.342Z" transform="translate(-502.101 -358.977)"/></g></g><g transform="translate(46.164 31.781)"><path class="b" d="M493.317,345.08h-7.942a.62.62,0,0,1-.62-.62V322.993a.62.62,0,0,1,.62-.62h7.942a.621.621,0,0,1,.621.62v21.466A.621.621,0,0,1,493.317,345.08ZM486,343.839h6.7V323.614H486Z" transform="translate(-484.755 -322.373)"/></g><g transform="translate(59.747 31.781)"><path class="b" d="M504.263,345.08h-7.942a.621.621,0,0,1-.62-.62V322.993a.621.621,0,0,1,.62-.62h7.942a.621.621,0,0,1,.62.62v21.466A.621.621,0,0,1,504.263,345.08Zm-7.321-1.241h6.7V323.614h-6.7Z" transform="translate(-495.701 -322.373)"/></g><g transform="translate(13.942 34.455)"><g transform="translate(1.898 2.985)"><path class="b" d="M466.631,339.83h-5.693a.621.621,0,0,1-.62-.62V327.554a.621.621,0,0,1,.62-.62h5.693a.621.621,0,0,1,.62.62V339.21A.621.621,0,0,1,466.631,339.83Zm-5.073-1.241h4.452V328.175h-4.452Z" transform="translate(-460.317 -326.934)"/></g><path class="b" d="M468.895,327.085a.625.625,0,0,1-.319-.088,8.587,8.587,0,0,0-8.849,0,.62.62,0,1,1-.638-1.063,9.822,9.822,0,0,1,10.126,0,.62.62,0,0,1-.32,1.152Z" transform="translate(-458.788 -324.529)"/><g transform="translate(0 14.64)"><path class="b" d="M468.895,337.568h-9.486a.62.62,0,1,1,0-1.241h9.486a.62.62,0,0,1,0,1.241Z" transform="translate(-458.788 -336.327)"/></g><g transform="translate(16.285)"><g transform="translate(1.898 2.985)"><path class="b" d="M479.753,339.83h-5.692a.62.62,0,0,1-.62-.62V327.554a.62.62,0,0,1,.62-.62h5.692a.62.62,0,0,1,.62.62V339.21A.62.62,0,0,1,479.753,339.83Zm-5.071-1.241h4.451V328.175h-4.451Z" transform="translate(-473.441 -326.934)"/></g><path class="b" d="M482.019,327.085A.619.619,0,0,1,481.7,327a8.587,8.587,0,0,0-8.849,0,.62.62,0,0,1-.639-1.063,9.822,9.822,0,0,1,10.126,0,.62.62,0,0,1-.319,1.152Z" transform="translate(-471.912 -324.529)"/><g transform="translate(0.001 14.64)"><path class="b" d="M482.019,337.568h-9.486a.62.62,0,0,1,0-1.241h9.486a.62.62,0,1,1,0,1.241Z" transform="translate(-471.912 -336.327)"/></g></g><g transform="translate(0 22.768)"><g transform="translate(1.898 2.987)"><path class="b" d="M466.631,358.179h-5.693a.62.62,0,0,1-.62-.62V345.9a.62.62,0,0,1,.62-.62h5.693a.62.62,0,0,1,.62.62v11.654A.62.62,0,0,1,466.631,358.179Zm-5.073-1.241h4.452V346.525h-4.452Z" transform="translate(-460.317 -345.284)"/></g><path class="b" d="M468.895,345.436a.626.626,0,0,1-.319-.088,8.581,8.581,0,0,0-8.849,0,.621.621,0,0,1-.638-1.065,9.817,9.817,0,0,1,10.126,0,.621.621,0,0,1-.32,1.153Z" transform="translate(-458.788 -342.877)"/><g transform="translate(0 14.641)"><path class="b" d="M468.895,355.917h-9.486a.62.62,0,1,1,0-1.241h9.486a.62.62,0,0,1,0,1.241Z" transform="translate(-458.788 -354.676)"/></g></g><g transform="translate(16.285 22.768)"><g transform="translate(1.898 2.987)"><path class="b" d="M479.753,358.179h-5.692a.619.619,0,0,1-.62-.62V345.9a.619.619,0,0,1,.62-.62h5.692a.619.619,0,0,1,.62.62v11.654A.619.619,0,0,1,479.753,358.179Zm-5.071-1.241h4.451V346.525h-4.451Z" transform="translate(-473.441 -345.284)"/></g><path class="b" d="M482.019,345.436a.619.619,0,0,1-.319-.088,8.581,8.581,0,0,0-8.849,0,.621.621,0,0,1-.639-1.065,9.817,9.817,0,0,1,10.126,0,.62.62,0,0,1-.319,1.153Z" transform="translate(-471.912 -342.877)"/><g transform="translate(0.001 14.641)"><path class="b" d="M482.019,355.917h-9.486a.62.62,0,0,1,0-1.241h9.486a.62.62,0,0,1,0,1.241Z" transform="translate(-471.912 -354.676)"/></g></g><g transform="translate(60.195)"><g transform="translate(1.897 2.985)"><path class="b" d="M515.141,339.83h-5.693a.621.621,0,0,1-.62-.62V327.554a.621.621,0,0,1,.62-.62h5.693a.621.621,0,0,1,.62.62V339.21A.621.621,0,0,1,515.141,339.83Zm-5.073-1.241h4.452V328.175h-4.452Z" transform="translate(-508.827 -326.934)"/></g><path class="b" d="M517.406,327.085a.619.619,0,0,1-.319-.088,8.587,8.587,0,0,0-8.849,0,.62.62,0,0,1-.639-1.063,9.822,9.822,0,0,1,10.125,0,.62.62,0,0,1-.319,1.152Z" transform="translate(-507.299 -324.529)"/><g transform="translate(0.001 14.64)"><path class="b" d="M517.406,337.568h-9.486a.62.62,0,1,1,0-1.241h9.486a.62.62,0,1,1,0,1.241Z" transform="translate(-507.299 -336.327)"/></g></g><g transform="translate(76.48)"><g transform="translate(1.898 2.985)"><path class="b" d="M528.263,339.83h-5.692a.621.621,0,0,1-.62-.62V327.554a.621.621,0,0,1,.62-.62h5.692a.62.62,0,0,1,.621.62V339.21A.62.62,0,0,1,528.263,339.83Zm-5.071-1.241h4.451V328.175h-4.451Z" transform="translate(-521.951 -326.934)"/></g><path class="b" d="M521.044,327.085a.62.62,0,0,1-.32-1.152,9.822,9.822,0,0,1,10.126,0A.62.62,0,0,1,530.21,327a8.587,8.587,0,0,0-8.849,0A.618.618,0,0,1,521.044,327.085Z" transform="translate(-520.422 -324.529)"/><g transform="translate(0 14.64)"><path class="b" d="M530.53,337.568h-9.488a.62.62,0,1,1,0-1.241h9.488a.62.62,0,1,1,0,1.241Z" transform="translate(-520.422 -336.327)"/></g></g><g transform="translate(60.195 22.768)"><g transform="translate(1.897 2.987)"><path class="b" d="M515.141,358.179h-5.693a.62.62,0,0,1-.62-.62V345.9a.62.62,0,0,1,.62-.62h5.693a.62.62,0,0,1,.62.62v11.654A.62.62,0,0,1,515.141,358.179Zm-5.073-1.241h4.452V346.525h-4.452Z" transform="translate(-508.827 -345.284)"/></g><path class="b" d="M517.406,345.436a.619.619,0,0,1-.319-.088,8.581,8.581,0,0,0-8.849,0,.621.621,0,0,1-.639-1.065,9.817,9.817,0,0,1,10.125,0,.62.62,0,0,1-.319,1.153Z" transform="translate(-507.299 -342.877)"/><g transform="translate(0.001 14.641)"><path class="b" d="M517.406,355.917h-9.486a.62.62,0,0,1,0-1.241h9.486a.62.62,0,0,1,0,1.241Z" transform="translate(-507.299 -354.676)"/></g></g><g transform="translate(76.48 22.768)"><g transform="translate(1.898 2.987)"><path class="b" d="M528.263,358.179h-5.692a.62.62,0,0,1-.62-.62V345.9a.62.62,0,0,1,.62-.62h5.692a.619.619,0,0,1,.621.62v11.654A.619.619,0,0,1,528.263,358.179Zm-5.071-1.241h4.451V346.525h-4.451Z" transform="translate(-521.951 -345.284)"/></g><path class="b" d="M530.529,345.436a.625.625,0,0,1-.319-.088,8.576,8.576,0,0,0-8.849,0,.621.621,0,0,1-.638-1.065,9.82,9.82,0,0,1,10.126,0,.621.621,0,0,1-.32,1.153Z" transform="translate(-520.422 -342.877)"/><g transform="translate(0 14.641)"><path class="b" d="M530.53,355.917h-9.488a.62.62,0,0,1,0-1.241h9.488a.62.62,0,1,1,0,1.241Z" transform="translate(-520.422 -354.676)"/></g></g></g><g transform="translate(13.942 2.982)"><path class="b" d="M459.408,321.792a.62.62,0,0,1-.244-1.19l49.955-21.386a.62.62,0,1,1,.488,1.14l-49.954,21.386A.606.606,0,0,1,459.408,321.792Z" transform="translate(-458.788 -299.165)"/></g><g transform="translate(27.885 5.968)"><path class="b" d="M470.644,321.213a.62.62,0,0,1-.243-1.19l42.982-18.4a.62.62,0,1,1,.488,1.14l-42.983,18.4A.607.607,0,0,1,470.644,321.213Z" transform="translate(-470.024 -301.571)"/></g><g transform="translate(41.827 8.952)"><path class="b" d="M481.88,320.633a.62.62,0,0,1-.244-1.19l36.011-15.417a.62.62,0,1,1,.489,1.14l-36.011,15.417A.606.606,0,0,1,481.88,320.633Z" transform="translate(-481.26 -303.976)"/></g><g transform="translate(55.769 11.935)"><path class="b" d="M493.117,320.054a.62.62,0,0,1-.244-1.19l29.041-12.432a.62.62,0,1,1,.489,1.14L493.361,320A.607.607,0,0,1,493.117,320.054Z" transform="translate(-492.496 -306.38)"/></g><g transform="translate(69.711 14.92)"><path class="b" d="M504.353,319.475a.62.62,0,0,1-.244-1.19l22.07-9.448a.62.62,0,0,1,.489,1.14L504.6,319.425A.6.6,0,0,1,504.353,319.475Z" transform="translate(-503.731 -308.785)"/></g><g transform="translate(83.655 17.904)"><path class="b" d="M515.589,318.9a.62.62,0,0,1-.245-1.19l15.1-6.464a.62.62,0,0,1,.488,1.14l-15.1,6.464A.606.606,0,0,1,515.589,318.9Z" transform="translate(-514.968 -311.19)"/></g><g transform="translate(97.596 20.889)"><path class="b" d="M526.825,318.316a.62.62,0,0,1-.244-1.19l8.128-3.479a.62.62,0,1,1,.488,1.14l-8.126,3.479A.606.606,0,0,1,526.825,318.316Z" transform="translate(-526.204 -313.596)"/></g><g transform="translate(51.397 66.037)"><path class="b" d="M500.651,351.221H489.592a.62.62,0,1,1,0-1.241h11.059a.62.62,0,0,1,0,1.241Z" transform="translate(-488.972 -349.98)"/></g><g transform="translate(53.056 68.448)"><path class="b" d="M490.929,368.758a.619.619,0,0,1-.62-.62V352.543a.62.62,0,0,1,1.241,0v15.594A.62.62,0,0,1,490.929,368.758Z" transform="translate(-490.309 -351.923)"/></g><g transform="translate(60.796 68.448)"><path class="b" d="M497.167,368.758a.619.619,0,0,1-.62-.62V352.543a.62.62,0,1,1,1.241,0v15.594A.62.62,0,0,1,497.167,368.758Z" transform="translate(-496.547 -351.923)"/></g></g><g transform="translate(673.643 361.456)"><g transform="translate(4.691)"><g transform="translate(3.831 18.773)"><path class="b" d="M567,370.324a.619.619,0,0,1-.62-.62V354l-6.925-6.925-2.309-.418a.621.621,0,0,1,.222-1.221l2.5.453a.628.628,0,0,1,.328.172l7.243,7.243a.621.621,0,0,1,.182.439V369.7A.62.62,0,0,1,567,370.324Z" transform="translate(-556.634 -345.423)"/></g><g transform="translate(13.575 18.648)"><path class="b" d="M565.107,358.747a.621.621,0,0,1-.34-1.14l5.357-3.494,2.219-6.307a.641.641,0,0,1,.15-.237L574.6,345.5a.621.621,0,1,1,.87.886l-2,1.967-2.241,6.369a.626.626,0,0,1-.246.314l-5.533,3.61A.616.616,0,0,1,565.107,358.747Z" transform="translate(-564.486 -345.322)"/></g><path class="b" d="M562.941,360.24a9.391,9.391,0,0,1-4.034-17.873,9.276,9.276,0,0,1-.4-2.678,9.389,9.389,0,0,1,18.694-1.264h.087a9.393,9.393,0,0,1,0,18.787.62.62,0,1,1,0-1.241,8.152,8.152,0,0,0,0-16.3c-.182,0-.36.012-.537.026a.7.7,0,0,1-.483-.148.656.656,0,0,1-.242-.424,8.148,8.148,0,1,0-15.77,3.375.621.621,0,0,1-.351.789A8.15,8.15,0,0,0,562.941,359a.62.62,0,0,1,0,1.241Z" transform="translate(-553.546 -330.294)"/></g><g transform="translate(0 42.433)"><path class="b" d="M579.381,365.731H550.386a.62.62,0,0,1,0-1.241h28.994a.62.62,0,0,1,0,1.241Z" transform="translate(-549.766 -364.49)"/></g><g transform="translate(10.665 38.656)"><path class="b" d="M558.981,366.464a.619.619,0,0,1-.62-.62v-3.777a.62.62,0,1,1,1.241,0v3.777A.62.62,0,0,1,558.981,366.464Z" transform="translate(-558.361 -361.446)"/></g><g transform="translate(8.061 40.544)"><path class="b" d="M556.882,366.1a.619.619,0,0,1-.62-.62v-1.889a.62.62,0,1,1,1.241,0v1.889A.62.62,0,0,1,556.882,366.1Z" transform="translate(-556.262 -362.968)"/></g><g transform="translate(14.497 40.739)"><path class="b" d="M562.07,366.06a.62.62,0,0,1-.62-.62v-1.694a.62.62,0,0,1,1.241,0v1.694A.619.619,0,0,1,562.07,366.06Z" transform="translate(-561.449 -363.125)"/></g></g><g transform="translate(441.452 294.804)"><g transform="translate(54.866 65.002)"><path class="b" d="M444.991,335.831H407.482a.621.621,0,0,1-.62-.62v-5.626a.62.62,0,0,1,.62-.62h37.509a.62.62,0,0,1,.62.62v5.626A.621.621,0,0,1,444.991,335.831ZM408.1,334.59h36.268V330.2H408.1Z" transform="translate(-406.862 -328.964)"/></g><g transform="translate(54.866 103.459)"><path class="b" d="M444.991,366.823H407.482a.62.62,0,0,1-.62-.62v-5.626a.621.621,0,0,1,.62-.62h37.509a.621.621,0,0,1,.62.62V366.2A.62.62,0,0,1,444.991,366.823ZM408.1,365.582h36.268V361.2H408.1Z" transform="translate(-406.862 -359.956)"/></g><g transform="translate(59.407 70.628)"><path class="b" d="M439.568,367.57H411.141a.621.621,0,0,1-.62-.62V334.118a.62.62,0,1,1,1.241,0v32.21h27.186v-20.7a.62.62,0,1,1,1.241,0v21.322A.62.62,0,0,1,439.568,367.57Z" transform="translate(-410.521 -333.498)"/></g><g transform="translate(9.014 24.221)"><path class="b" d="M416.383,382.2H370.53a.619.619,0,0,1-.62-.62V296.719a.62.62,0,0,1,1.241,0v84.244h45.232a.62.62,0,1,1,0,1.241Z" transform="translate(-369.91 -296.099)"/></g><g transform="translate(73.621 24.221)"><path class="b" d="M422.6,334.793a.62.62,0,0,1-.62-.62V296.719a.62.62,0,0,1,1.241,0v37.453A.621.621,0,0,1,422.6,334.793Z" transform="translate(-421.976 -296.099)"/></g><g transform="translate(5.54 6.84)"><path class="b" d="M439.285,288.326H367.731a.621.621,0,0,1-.62-.62v-4.993a.621.621,0,0,1,.62-.62h71.553a.621.621,0,0,1,.62.62v4.993A.621.621,0,0,1,439.285,288.326Zm-70.933-1.241h70.313v-3.752H368.352Z" transform="translate(-367.111 -282.092)"/></g><g transform="translate(3.097 11.832)"><path class="b" d="M403.981,299.745H365.763a.621.621,0,0,1-.56-.888l5.916-12.388a.62.62,0,1,1,1.119.535l-5.492,11.5h37.235a.62.62,0,0,1,0,1.241Z" transform="translate(-365.142 -286.115)"/></g><g transform="translate(41.316 11.832)"><path class="b" d="M434.784,299.745H396.562a.62.62,0,0,1,0-1.241H433.8L428.308,287a.62.62,0,1,1,1.119-.535l5.916,12.388a.621.621,0,0,1-.56.888Z" transform="translate(-395.942 -286.115)"/></g><g transform="translate(9.014)"><path class="b" d="M376.261,284.661h-5.73a.619.619,0,0,1-.62-.62V277.2a.619.619,0,0,1,.62-.62h5.73a.619.619,0,0,1,.62.62v6.84A.619.619,0,0,1,376.261,284.661Zm-5.11-1.241h4.489v-5.6h-4.489Z" transform="translate(-369.91 -276.58)"/></g><g transform="translate(67.889)"><path class="b" d="M423.709,284.661h-5.732a.619.619,0,0,1-.62-.62V277.2a.619.619,0,0,1,.62-.62h5.732a.62.62,0,0,1,.62.62v6.84A.62.62,0,0,1,423.709,284.661ZM418.6,283.42h4.491v-5.6H418.6Z" transform="translate(-417.357 -276.58)"/></g><g transform="translate(0 80.889)"><path class="b" d="M372.28,371.2h-9.014a.619.619,0,0,1-.62-.62V351.4a.615.615,0,0,1,.181-.438l9.014-9.014a.62.62,0,0,1,.877.877l-8.831,8.831v18.305h8.393a.62.62,0,1,1,0,1.241Z" transform="translate(-362.646 -341.768)"/></g><g transform="translate(59.406 70.627)"><path class="b" d="M443.81,342.92H415.384a.62.62,0,0,1-.551-.335l-4.242-8.181a.62.62,0,1,1,1.1-.571l4.069,7.846H442.79l-3.772-7.275a.62.62,0,0,1,1.1-.571l4.241,8.181a.619.619,0,0,1-.551.906Z" transform="translate(-410.521 -333.498)"/></g><g transform="translate(18.859 33.152)"><g transform="translate(0 2.947)"><path class="b" d="M388.033,320.364h-9.568a.621.621,0,0,1-.62-.62V306.292a.62.62,0,0,1,.62-.62h9.568a.62.62,0,0,1,.62.62v13.451A.621.621,0,0,1,388.033,320.364Zm-8.948-1.241h8.327v-12.21h-8.327Z" transform="translate(-377.844 -305.672)"/></g><path class="b" d="M388.033,304.538h-9.568a.62.62,0,0,1,0-1.241h9.568a.62.62,0,0,1,0,1.241Z" transform="translate(-377.844 -303.297)"/><g transform="translate(0 19.344)"><path class="b" d="M388.033,320.127h-9.568a.62.62,0,0,1,0-1.241h9.568a.62.62,0,0,1,0,1.241Z" transform="translate(-377.844 -318.886)"/></g></g><g transform="translate(36.532 33.152)"><g transform="translate(0 2.947)"><path class="b" d="M402.276,320.364h-9.568a.621.621,0,0,1-.62-.62V306.292a.62.62,0,0,1,.62-.62h9.568a.62.62,0,0,1,.62.62v13.451A.621.621,0,0,1,402.276,320.364Zm-8.948-1.241h8.327v-12.21h-8.327Z" transform="translate(-392.087 -305.672)"/></g><path class="b" d="M402.276,304.538h-9.568a.62.62,0,1,1,0-1.241h9.568a.62.62,0,0,1,0,1.241Z" transform="translate(-392.087 -303.297)"/><g transform="translate(0 19.344)"><path class="b" d="M402.276,320.127h-9.568a.62.62,0,1,1,0-1.241h9.568a.62.62,0,0,1,0,1.241Z" transform="translate(-392.087 -318.886)"/></g></g><g transform="translate(18.859 58.578)"><g transform="translate(0 2.947)"><path class="b" d="M388.033,340.854h-9.568a.621.621,0,0,1-.62-.62V326.782a.621.621,0,0,1,.62-.62h9.568a.621.621,0,0,1,.62.62v13.451A.621.621,0,0,1,388.033,340.854Zm-8.948-1.241h8.327V327.4h-8.327Z" transform="translate(-377.844 -326.162)"/></g><path class="b" d="M388.033,325.028h-9.568a.62.62,0,0,1,0-1.241h9.568a.62.62,0,0,1,0,1.241Z" transform="translate(-377.844 -323.787)"/><g transform="translate(0 19.344)"><path class="b" d="M388.033,340.617h-9.568a.62.62,0,0,1,0-1.241h9.568a.62.62,0,0,1,0,1.241Z" transform="translate(-377.844 -339.376)"/></g></g><g transform="translate(36.532 58.578)"><g transform="translate(0 2.947)"><path class="b" d="M402.276,340.854h-9.568a.621.621,0,0,1-.62-.62V326.782a.621.621,0,0,1,.62-.62h9.568a.621.621,0,0,1,.62.62v13.451A.621.621,0,0,1,402.276,340.854Zm-8.948-1.241h8.327V327.4h-8.327Z" transform="translate(-392.087 -326.162)"/></g><path class="b" d="M402.276,325.028h-9.568a.62.62,0,0,1,0-1.241h9.568a.62.62,0,0,1,0,1.241Z" transform="translate(-392.087 -323.787)"/><g transform="translate(0 19.344)"><path class="b" d="M402.276,340.617h-9.568a.62.62,0,1,1,0-1.241h9.568a.62.62,0,0,1,0,1.241Z" transform="translate(-392.087 -339.376)"/></g></g><g transform="translate(18.859 84.003)"><g transform="translate(0 2.947)"><path class="b" d="M388.033,361.344h-9.568a.62.62,0,0,1-.62-.62V347.272a.621.621,0,0,1,.62-.62h9.568a.621.621,0,0,1,.62.62v13.451A.62.62,0,0,1,388.033,361.344Zm-8.948-1.241h8.327v-12.21h-8.327Z" transform="translate(-377.844 -346.652)"/></g><path class="b" d="M388.033,345.518h-9.568a.62.62,0,0,1,0-1.241h9.568a.62.62,0,0,1,0,1.241Z" transform="translate(-377.844 -344.277)"/><g transform="translate(0 19.345)"><path class="b" d="M388.033,361.108h-9.568a.62.62,0,0,1,0-1.241h9.568a.62.62,0,0,1,0,1.241Z" transform="translate(-377.844 -359.867)"/></g></g><g transform="translate(36.532 84.003)"><g transform="translate(0 2.947)"><path class="b" d="M402.276,361.344h-9.568a.62.62,0,0,1-.62-.62V347.272a.621.621,0,0,1,.62-.62h9.568a.621.621,0,0,1,.62.62v13.451A.62.62,0,0,1,402.276,361.344Zm-8.948-1.241h8.327v-12.21h-8.327Z" transform="translate(-392.087 -346.652)"/></g><path class="b" d="M402.276,345.518h-9.568a.62.62,0,1,1,0-1.241h9.568a.62.62,0,0,1,0,1.241Z" transform="translate(-392.087 -344.277)"/><g transform="translate(0 19.345)"><path class="b" d="M402.276,361.108h-9.568a.62.62,0,0,1,0-1.241h9.568a.62.62,0,0,1,0,1.241Z" transform="translate(-392.087 -359.867)"/></g></g><g transform="translate(54.207 33.152)"><g transform="translate(0 2.947)"><path class="b" d="M416.519,320.364h-9.567a.62.62,0,0,1-.62-.62V306.292a.619.619,0,0,1,.62-.62h9.567a.619.619,0,0,1,.62.62v13.451A.62.62,0,0,1,416.519,320.364Zm-8.947-1.241H415.9v-12.21h-8.326Z" transform="translate(-406.331 -305.672)"/></g><path class="b" d="M416.519,304.538h-9.567a.62.62,0,0,1,0-1.241h9.567a.62.62,0,1,1,0,1.241Z" transform="translate(-406.331 -303.297)"/><g transform="translate(0 19.344)"><path class="b" d="M416.519,320.127h-9.567a.62.62,0,0,1,0-1.241h9.567a.62.62,0,1,1,0,1.241Z" transform="translate(-406.331 -318.886)"/></g></g><g transform="translate(67.426 83.477)"><path class="b" d="M429.992,364.965a.621.621,0,0,1-.621-.62V350.668a5.573,5.573,0,1,0-11.147,0v13.677a.62.62,0,0,1-1.241,0V350.668a6.814,6.814,0,1,1,13.628,0v13.677A.621.621,0,0,1,429.992,364.965Z" transform="translate(-416.984 -343.853)"/></g></g><g transform="translate(318.193 297.112)"><g transform="translate(4.147 78.786)"><path class="b" d="M329.2,371.164H267.275a.62.62,0,0,1-.62-.62v-27.99a.62.62,0,1,1,1.241,0v27.37h60.682v-27.37a.62.62,0,0,1,1.241,0v27.99A.621.621,0,0,1,329.2,371.164Z" transform="translate(-266.655 -341.933)"/></g><g transform="translate(4.147 14.445)"><path class="b" d="M329.2,351.034H267.275a.62.62,0,0,1-.62-.62V290.7a.62.62,0,0,1,.62-.62H329.2a.621.621,0,0,1,.62.62v59.712A.621.621,0,0,1,329.2,351.034Zm-61.3-1.241h60.682V291.322H267.9Z" transform="translate(-266.655 -290.081)"/></g><g transform="translate(4.147)"><path class="b" d="M271.353,294.126h-4.077a.62.62,0,0,1-.62-.62V279.06a.62.62,0,0,1,.62-.62h4.077a.621.621,0,0,1,.62.62v14.445A.621.621,0,0,1,271.353,294.126Zm-3.457-1.241h2.837v-13.2H267.9Z" transform="translate(-266.655 -278.44)"/></g><g transform="translate(61.991)"><path class="b" d="M317.97,294.126h-4.079a.621.621,0,0,1-.62-.62V279.06a.621.621,0,0,1,.62-.62h4.079a.621.621,0,0,1,.62.62v14.445A.621.621,0,0,1,317.97,294.126Zm-3.458-1.241h2.838v-13.2h-2.838Z" transform="translate(-313.271 -278.44)"/></g><g transform="translate(4.147 45.129)"><path class="b" d="M271.353,345.078h-4.077a.62.62,0,0,1-.62-.62V315.429a.62.62,0,0,1,.62-.62h4.077a.621.621,0,0,1,.62.62v29.028A.621.621,0,0,1,271.353,345.078Zm-3.457-1.241h2.837V316.05H267.9Z" transform="translate(-266.655 -314.809)"/></g><g transform="translate(61.991 45.129)"><path class="b" d="M317.97,345.078h-4.079a.621.621,0,0,1-.62-.62V315.429a.621.621,0,0,1,.62-.62h4.079a.621.621,0,0,1,.62.62v29.028A.621.621,0,0,1,317.97,345.078Zm-3.458-1.241h2.838V316.05h-2.838Z" transform="translate(-313.271 -314.809)"/></g><g transform="translate(8.225 2.488)"><path class="b" d="M324.328,281.686H270.561a.62.62,0,0,1,0-1.241h53.767a.62.62,0,0,1,0,1.241Z" transform="translate(-269.941 -280.445)"/></g><g transform="translate(0 74.157)"><path class="b" d="M334.149,344.072H263.933a.62.62,0,0,1-.463-1.035l4.147-4.63a.621.621,0,0,1,.924.829l-3.22,3.595h67.439l-3.22-3.595a.621.621,0,0,1,.924-.829l4.146,4.63a.62.62,0,0,1-.462,1.035Z" transform="translate(-263.313 -338.202)"/></g><g transform="translate(18.227 23.774)"><g transform="translate(1.659)"><path class="b" d="M284,306.028a.619.619,0,0,1-.62-.62V298.84h-2.8v6.568a.62.62,0,0,1-1.241,0v-7.188a.621.621,0,0,1,.62-.62H284a.621.621,0,0,1,.62.62v7.188A.62.62,0,0,1,284,306.028Z" transform="translate(-279.339 -297.599)"/></g><g transform="translate(0 7.188)"><path class="b" d="M285.983,304.633h-7.361a.62.62,0,1,1,0-1.241h7.361a.62.62,0,0,1,0,1.241Z" transform="translate(-278.002 -303.392)"/></g><g transform="translate(13.202)"><g transform="translate(1.658)"><path class="b" d="M294.64,306.028a.62.62,0,0,1-.62-.62V298.84h-2.8v6.568a.62.62,0,0,1-1.241,0v-7.188a.621.621,0,0,1,.62-.62h4.043a.62.62,0,0,1,.62.62v7.188A.619.619,0,0,1,294.64,306.028Z" transform="translate(-289.977 -297.599)"/></g><g transform="translate(0 7.188)"><path class="b" d="M296.621,304.633h-7.36a.62.62,0,0,1,0-1.241h7.36a.62.62,0,1,1,0,1.241Z" transform="translate(-288.641 -303.392)"/></g></g><g transform="translate(26.401)"><g transform="translate(1.659)"><path class="b" d="M305.278,306.028a.62.62,0,0,1-.62-.62V298.84h-2.8v6.568a.62.62,0,0,1-1.241,0v-7.188a.621.621,0,0,1,.62-.62h4.043a.621.621,0,0,1,.62.62v7.188A.62.62,0,0,1,305.278,306.028Z" transform="translate(-300.615 -297.599)"/></g><g transform="translate(0 7.188)"><path class="b" d="M307.259,304.633H299.9a.62.62,0,1,1,0-1.241h7.361a.62.62,0,0,1,0,1.241Z" transform="translate(-299.278 -303.392)"/></g></g><g transform="translate(0 16.933)"><g transform="translate(1.659)"><path class="b" d="M284,319.674a.62.62,0,0,1-.62-.62v-6.568h-2.8v6.568a.62.62,0,1,1-1.241,0v-7.188a.621.621,0,0,1,.62-.62H284a.621.621,0,0,1,.62.62v7.188A.621.621,0,0,1,284,319.674Z" transform="translate(-279.339 -311.245)"/></g><g transform="translate(0 7.188)"><path class="b" d="M285.983,318.279h-7.361a.62.62,0,1,1,0-1.241h7.361a.62.62,0,0,1,0,1.241Z" transform="translate(-278.002 -317.038)"/></g><g transform="translate(13.202)"><g transform="translate(1.658)"><path class="b" d="M294.64,319.674a.621.621,0,0,1-.62-.62v-6.568h-2.8v6.568a.62.62,0,1,1-1.241,0v-7.188a.621.621,0,0,1,.62-.62h4.043a.62.62,0,0,1,.62.62v7.188A.62.62,0,0,1,294.64,319.674Z" transform="translate(-289.977 -311.245)"/></g><g transform="translate(0 7.188)"><path class="b" d="M296.621,318.279h-7.36a.62.62,0,0,1,0-1.241h7.36a.62.62,0,1,1,0,1.241Z" transform="translate(-288.641 -317.038)"/></g></g><g transform="translate(26.401)"><g transform="translate(1.659)"><path class="b" d="M305.278,319.674a.621.621,0,0,1-.62-.62v-6.568h-2.8v6.568a.62.62,0,1,1-1.241,0v-7.188a.621.621,0,0,1,.62-.62h4.043a.621.621,0,0,1,.62.62v7.188A.621.621,0,0,1,305.278,319.674Z" transform="translate(-300.615 -311.245)"/></g><g transform="translate(0 7.188)"><path class="b" d="M307.259,318.279H299.9a.62.62,0,1,1,0-1.241h7.361a.62.62,0,0,1,0,1.241Z" transform="translate(-299.278 -317.038)"/></g></g></g><g transform="translate(0 33.865)"><g transform="translate(1.659)"><path class="b" d="M284,333.319a.619.619,0,0,1-.62-.62v-6.568h-2.8V332.7a.62.62,0,1,1-1.241,0V325.51a.621.621,0,0,1,.62-.62H284a.621.621,0,0,1,.62.62V332.7A.62.62,0,0,1,284,333.319Z" transform="translate(-279.339 -324.89)"/></g><g transform="translate(0 7.188)"><path class="b" d="M285.983,331.924h-7.361a.62.62,0,1,1,0-1.241h7.361a.62.62,0,1,1,0,1.241Z" transform="translate(-278.002 -330.683)"/></g><g transform="translate(13.202)"><g transform="translate(1.658)"><path class="b" d="M294.64,333.319a.62.62,0,0,1-.62-.62v-6.568h-2.8V332.7a.62.62,0,1,1-1.241,0V325.51a.621.621,0,0,1,.62-.62h4.043a.62.62,0,0,1,.62.62V332.7A.619.619,0,0,1,294.64,333.319Z" transform="translate(-289.977 -324.89)"/></g><g transform="translate(0 7.188)"><path class="b" d="M296.621,331.924h-7.36a.62.62,0,0,1,0-1.241h7.36a.62.62,0,1,1,0,1.241Z" transform="translate(-288.641 -330.683)"/></g></g><g transform="translate(26.401)"><g transform="translate(1.659)"><path class="b" d="M305.278,333.319a.62.62,0,0,1-.62-.62v-6.568h-2.8V332.7a.62.62,0,1,1-1.241,0V325.51a.621.621,0,0,1,.62-.62h4.043a.621.621,0,0,1,.62.62V332.7A.62.62,0,0,1,305.278,333.319Z" transform="translate(-300.615 -324.89)"/></g><g transform="translate(0 7.188)"><path class="b" d="M307.259,331.924H299.9a.62.62,0,1,1,0-1.241h7.361a.62.62,0,1,1,0,1.241Z" transform="translate(-299.278 -330.683)"/></g></g></g></g><g transform="translate(12.993 87.702)"><path class="b" d="M281.3,369.433H274.4a.62.62,0,0,1-.62-.62V349.738a.62.62,0,0,1,.62-.62H281.3a.62.62,0,0,1,.62.62v19.075A.62.62,0,0,1,281.3,369.433Zm-6.273-1.241h5.652V350.359h-5.652Z" transform="translate(-273.784 -349.118)"/></g><g transform="translate(27.298 87.702)"><path class="b" d="M318.174,358.86H285.932a.621.621,0,0,1-.62-.62v-8.5a.621.621,0,0,1,.62-.62h32.241a.621.621,0,0,1,.62.62v8.5A.621.621,0,0,1,318.174,358.86Zm-31.621-1.241h31v-7.26h-31Z" transform="translate(-285.312 -349.118)"/></g><g transform="translate(15.083 2.488)"><path class="b" d="M276.088,289.3a.621.621,0,0,1-.62-.62v-7.612a.62.62,0,0,1,1.241,0v7.612A.62.62,0,0,1,276.088,289.3Z" transform="translate(-275.468 -280.445)"/><g transform="translate(5.722)"><path class="b" d="M280.7,289.3a.621.621,0,0,1-.62-.62v-7.612a.62.62,0,0,1,1.241,0v7.612A.621.621,0,0,1,280.7,289.3Z" transform="translate(-280.079 -280.445)"/></g><g transform="translate(11.443)"><path class="b" d="M285.31,289.3a.621.621,0,0,1-.62-.62v-7.612a.62.62,0,0,1,1.241,0v7.612A.621.621,0,0,1,285.31,289.3Z" transform="translate(-284.69 -280.445)"/></g><g transform="translate(17.165)"><path class="b" d="M289.921,289.3a.62.62,0,0,1-.62-.62v-7.612a.62.62,0,0,1,1.241,0v7.612A.621.621,0,0,1,289.921,289.3Z" transform="translate(-289.301 -280.445)"/></g><g transform="translate(22.887)"><path class="b" d="M294.532,289.3a.62.62,0,0,1-.62-.62v-7.612a.62.62,0,0,1,1.241,0v7.612A.621.621,0,0,1,294.532,289.3Z" transform="translate(-293.912 -280.445)"/></g><g transform="translate(28.607)"><path class="b" d="M299.142,289.3a.621.621,0,0,1-.62-.62v-7.612a.62.62,0,0,1,1.241,0v7.612A.62.62,0,0,1,299.142,289.3Z" transform="translate(-298.522 -280.445)"/></g><g transform="translate(34.33)"><path class="b" d="M303.754,289.3a.62.62,0,0,1-.62-.62v-7.612a.62.62,0,0,1,1.241,0v7.612A.621.621,0,0,1,303.754,289.3Z" transform="translate(-303.134 -280.445)"/></g><g transform="translate(40.05)"><path class="b" d="M308.364,289.3a.621.621,0,0,1-.621-.62v-7.612a.62.62,0,0,1,1.241,0v7.612A.621.621,0,0,1,308.364,289.3Z" transform="translate(-307.744 -280.445)"/></g></g><g transform="translate(0 106.777)"><path class="b" d="M334.149,365.731H263.933a.62.62,0,1,1,0-1.241h70.216a.62.62,0,1,1,0,1.241Z" transform="translate(-263.313 -364.49)"/></g></g><g transform="translate(161.19 200.922)"><g transform="translate(18.521)"><path class="b" d="M205.157,405.129H152.332a.62.62,0,0,1-.62-.62V240.194a.619.619,0,0,1,.254-.5l52.825-38.653a.621.621,0,0,1,.986.5V404.509A.62.62,0,0,1,205.157,405.129Zm-52.2-1.241h51.584V202.765l-51.584,37.745Z" transform="translate(-151.712 -200.922)"/><g transform="translate(52.825 48.315)"><path class="b" d="M229.37,363.178a.62.62,0,0,1-.62-.62V275.2l-34.284-34.284a.62.62,0,0,1,.877-.877l34.465,34.465a.621.621,0,0,1,.182.439v87.613A.621.621,0,0,1,229.37,363.178Z" transform="translate(-194.283 -239.858)"/></g><g transform="translate(52.825 118.373)"><path class="b" d="M259.647,362.3H194.9a.621.621,0,0,1-.62-.62V296.937a.621.621,0,0,1,.62-.62h9.14a.621.621,0,0,1,.62.62v54.984h54.983a.619.619,0,0,1,.62.62v9.14A.62.62,0,0,1,259.647,362.3Zm-64.123-1.241h63.5v-7.9H204.044a.621.621,0,0,1-.62-.62V297.558h-7.9Z" transform="translate(-194.283 -296.317)"/></g><g transform="translate(58.14 183.117)"><path class="b" d="M253.622,369.584H199.186a.62.62,0,0,1,0-1.241H253V349.114a.62.62,0,0,1,1.241,0v19.849A.62.62,0,0,1,253.622,369.584Z" transform="translate(-198.566 -348.494)"/></g><g transform="translate(69.092 87.612)"><path class="b" d="M226.212,272.768h-18.2a.62.62,0,1,1,0-1.241h18.2a.62.62,0,1,1,0,1.241Z" transform="translate(-207.392 -271.527)"/></g><g transform="translate(69.092 94.377)"><path class="b" d="M226.212,278.22h-18.2a.62.62,0,1,1,0-1.241h18.2a.62.62,0,1,1,0,1.241Z" transform="translate(-207.392 -276.979)"/></g><g transform="translate(69.092 101.142)"><path class="b" d="M226.212,283.672h-18.2a.62.62,0,0,1,0-1.241h18.2a.62.62,0,0,1,0,1.241Z" transform="translate(-207.392 -282.431)"/></g><g transform="translate(69.092 107.906)"><path class="b" d="M226.212,289.123h-18.2a.62.62,0,0,1,0-1.241h18.2a.62.62,0,0,1,0,1.241Z" transform="translate(-207.392 -287.882)"/></g><g transform="translate(69.092 114.67)"><path class="b" d="M226.212,294.574h-18.2a.62.62,0,1,1,0-1.241h18.2a.62.62,0,1,1,0,1.241Z" transform="translate(-207.392 -293.333)"/></g><g transform="translate(69.092 121.434)"><path class="b" d="M226.212,300.025h-18.2a.62.62,0,0,1,0-1.241h18.2a.62.62,0,0,1,0,1.241Z" transform="translate(-207.392 -298.784)"/></g><g transform="translate(69.092 128.198)"><path class="b" d="M226.212,305.476h-18.2a.62.62,0,1,1,0-1.241h18.2a.62.62,0,1,1,0,1.241Z" transform="translate(-207.392 -304.235)"/></g><g transform="translate(69.092 134.962)"><path class="b" d="M226.212,310.927h-18.2a.62.62,0,0,1,0-1.241h18.2a.62.62,0,0,1,0,1.241Z" transform="translate(-207.392 -309.686)"/></g><g transform="translate(69.092 141.727)"><path class="b" d="M226.212,316.379h-18.2a.62.62,0,1,1,0-1.241h18.2a.62.62,0,0,1,0,1.241Z" transform="translate(-207.392 -315.138)"/></g><g transform="translate(69.092 148.491)"><path class="b" d="M226.212,321.83h-18.2a.62.62,0,0,1,0-1.241h18.2a.62.62,0,0,1,0,1.241Z" transform="translate(-207.392 -320.589)"/></g><g transform="translate(69.092 155.255)"><path class="b" d="M226.212,327.281h-18.2a.62.62,0,1,1,0-1.241h18.2a.62.62,0,1,1,0,1.241Z" transform="translate(-207.392 -326.04)"/></g><g transform="translate(69.092 162.019)"><path class="b" d="M226.212,332.732h-18.2a.62.62,0,0,1,0-1.241h18.2a.62.62,0,0,1,0,1.241Z" transform="translate(-207.392 -331.491)"/></g><g transform="translate(69.092 168.783)"><path class="b" d="M226.212,338.183h-18.2a.62.62,0,1,1,0-1.241h18.2a.62.62,0,0,1,0,1.241Z" transform="translate(-207.392 -336.942)"/></g><g transform="translate(52.825 87.612)"><path class="b" d="M202.957,272.768H194.9a.62.62,0,1,1,0-1.241h8.053a.62.62,0,1,1,0,1.241Z" transform="translate(-194.283 -271.527)"/></g><g transform="translate(52.825 94.377)"><path class="b" d="M202.957,278.22H194.9a.62.62,0,1,1,0-1.241h8.053a.62.62,0,1,1,0,1.241Z" transform="translate(-194.283 -276.979)"/></g><g transform="translate(52.825 101.142)"><path class="b" d="M202.957,283.672H194.9a.62.62,0,0,1,0-1.241h8.053a.62.62,0,0,1,0,1.241Z" transform="translate(-194.283 -282.431)"/></g><g transform="translate(52.825 107.906)"><path class="b" d="M202.957,289.123H194.9a.62.62,0,0,1,0-1.241h8.053a.62.62,0,0,1,0,1.241Z" transform="translate(-194.283 -287.882)"/></g><g transform="translate(9.985 51.053)"><path class="b" d="M160.379,250.07a.619.619,0,0,1-.62-.62v-6.764a.62.62,0,1,1,1.241,0v6.764A.62.62,0,0,1,160.379,250.07Z" transform="translate(-159.759 -242.065)"/><g transform="translate(8.213)"><path class="b" d="M167,250.07a.62.62,0,0,1-.62-.62v-6.764a.62.62,0,1,1,1.241,0v6.764A.619.619,0,0,1,167,250.07Z" transform="translate(-166.378 -242.065)"/></g><g transform="translate(16.428)"><path class="b" d="M173.618,250.07a.619.619,0,0,1-.62-.62v-6.764a.62.62,0,1,1,1.241,0v6.764A.62.62,0,0,1,173.618,250.07Z" transform="translate(-172.998 -242.065)"/></g><g transform="translate(24.641)"><path class="b" d="M180.237,250.07a.62.62,0,0,1-.62-.62v-6.764a.62.62,0,1,1,1.241,0v6.764A.619.619,0,0,1,180.237,250.07Z" transform="translate(-179.617 -242.065)"/></g><g transform="translate(32.854)"><path class="b" d="M186.856,250.07a.62.62,0,0,1-.62-.62v-6.764a.62.62,0,0,1,1.241,0v6.764A.619.619,0,0,1,186.856,250.07Z" transform="translate(-186.236 -242.065)"/></g></g><g transform="translate(9.985 66.514)"><path class="b" d="M160.379,262.53a.619.619,0,0,1-.62-.621v-6.764a.62.62,0,1,1,1.241,0v6.764A.62.62,0,0,1,160.379,262.53Z" transform="translate(-159.759 -254.525)"/><g transform="translate(8.213)"><path class="b" d="M167,262.53a.62.62,0,0,1-.62-.621v-6.764a.62.62,0,1,1,1.241,0v6.764A.619.619,0,0,1,167,262.53Z" transform="translate(-166.378 -254.525)"/></g><g transform="translate(16.428)"><path class="b" d="M173.618,262.53a.619.619,0,0,1-.62-.621v-6.764a.62.62,0,0,1,1.241,0v6.764A.62.62,0,0,1,173.618,262.53Z" transform="translate(-172.998 -254.525)"/></g><g transform="translate(24.641)"><path class="b" d="M180.237,262.53a.62.62,0,0,1-.62-.621v-6.764a.62.62,0,1,1,1.241,0v6.764A.619.619,0,0,1,180.237,262.53Z" transform="translate(-179.617 -254.525)"/></g><g transform="translate(32.854)"><path class="b" d="M186.856,262.53a.62.62,0,0,1-.62-.621v-6.764a.62.62,0,0,1,1.241,0v6.764A.619.619,0,0,1,186.856,262.53Z" transform="translate(-186.236 -254.525)"/></g></g><g transform="translate(9.985 81.976)"><path class="b" d="M160.379,274.99a.619.619,0,0,1-.62-.62v-6.764a.62.62,0,0,1,1.241,0v6.764A.62.62,0,0,1,160.379,274.99Z" transform="translate(-159.759 -266.985)"/><g transform="translate(8.213)"><path class="b" d="M167,274.99a.62.62,0,0,1-.62-.62v-6.764a.62.62,0,0,1,1.241,0v6.764A.619.619,0,0,1,167,274.99Z" transform="translate(-166.378 -266.985)"/></g><g transform="translate(16.428)"><path class="b" d="M173.618,274.99a.619.619,0,0,1-.62-.62v-6.764a.62.62,0,0,1,1.241,0v6.764A.62.62,0,0,1,173.618,274.99Z" transform="translate(-172.998 -266.985)"/></g><g transform="translate(24.641)"><path class="b" d="M180.237,274.99a.62.62,0,0,1-.62-.62v-6.764a.62.62,0,0,1,1.241,0v6.764A.619.619,0,0,1,180.237,274.99Z" transform="translate(-179.617 -266.985)"/></g><g transform="translate(32.854)"><path class="b" d="M186.856,274.99a.62.62,0,0,1-.62-.62v-6.764a.62.62,0,0,1,1.241,0v6.764A.619.619,0,0,1,186.856,274.99Z" transform="translate(-186.236 -266.985)"/></g></g><g transform="translate(9.985 97.437)"><path class="b" d="M160.379,287.45a.619.619,0,0,1-.62-.62v-6.764a.62.62,0,1,1,1.241,0v6.764A.62.62,0,0,1,160.379,287.45Z" transform="translate(-159.759 -279.445)"/><g transform="translate(8.213)"><path class="b" d="M167,287.45a.62.62,0,0,1-.62-.62v-6.764a.62.62,0,1,1,1.241,0v6.764A.619.619,0,0,1,167,287.45Z" transform="translate(-166.378 -279.445)"/></g><g transform="translate(16.428)"><path class="b" d="M173.618,287.45a.619.619,0,0,1-.62-.62v-6.764a.62.62,0,1,1,1.241,0v6.764A.62.62,0,0,1,173.618,287.45Z" transform="translate(-172.998 -279.445)"/></g><g transform="translate(24.641)"><path class="b" d="M180.237,287.45a.62.62,0,0,1-.62-.62v-6.764a.62.62,0,1,1,1.241,0v6.764A.619.619,0,0,1,180.237,287.45Z" transform="translate(-179.617 -279.445)"/></g><g transform="translate(32.854)"><path class="b" d="M186.856,287.45a.62.62,0,0,1-.62-.62v-6.764a.62.62,0,0,1,1.241,0v6.764A.619.619,0,0,1,186.856,287.45Z" transform="translate(-186.236 -279.445)"/></g></g><g transform="translate(9.985 112.898)"><path class="b" d="M160.379,299.91a.619.619,0,0,1-.62-.62v-6.764a.62.62,0,1,1,1.241,0v6.764A.62.62,0,0,1,160.379,299.91Z" transform="translate(-159.759 -291.905)"/><g transform="translate(8.213)"><path class="b" d="M167,299.91a.62.62,0,0,1-.62-.62v-6.764a.62.62,0,1,1,1.241,0v6.764A.619.619,0,0,1,167,299.91Z" transform="translate(-166.378 -291.905)"/></g><g transform="translate(16.428)"><path class="b" d="M173.618,299.91a.619.619,0,0,1-.62-.62v-6.764a.62.62,0,1,1,1.241,0v6.764A.62.62,0,0,1,173.618,299.91Z" transform="translate(-172.998 -291.905)"/></g><g transform="translate(24.641)"><path class="b" d="M180.237,299.91a.62.62,0,0,1-.62-.62v-6.764a.62.62,0,1,1,1.241,0v6.764A.619.619,0,0,1,180.237,299.91Z" transform="translate(-179.617 -291.905)"/></g><g transform="translate(32.854)"><path class="b" d="M186.856,299.91a.62.62,0,0,1-.62-.62v-6.764a.62.62,0,1,1,1.241,0v6.764A.619.619,0,0,1,186.856,299.91Z" transform="translate(-186.236 -291.905)"/></g></g><g transform="translate(9.985 128.359)"><path class="b" d="M160.379,312.37a.619.619,0,0,1-.62-.62v-6.764a.62.62,0,1,1,1.241,0v6.764A.62.62,0,0,1,160.379,312.37Z" transform="translate(-159.759 -304.365)"/><g transform="translate(8.213)"><path class="b" d="M167,312.37a.62.62,0,0,1-.62-.62v-6.764a.62.62,0,1,1,1.241,0v6.764A.619.619,0,0,1,167,312.37Z" transform="translate(-166.378 -304.365)"/></g><g transform="translate(16.428)"><path class="b" d="M173.618,312.37a.619.619,0,0,1-.62-.62v-6.764a.62.62,0,1,1,1.241,0v6.764A.62.62,0,0,1,173.618,312.37Z" transform="translate(-172.998 -304.365)"/></g><g transform="translate(24.641)"><path class="b" d="M180.237,312.37a.62.62,0,0,1-.62-.62v-6.764a.62.62,0,1,1,1.241,0v6.764A.619.619,0,0,1,180.237,312.37Z" transform="translate(-179.617 -304.365)"/></g><g transform="translate(32.854)"><path class="b" d="M186.856,312.37a.62.62,0,0,1-.62-.62v-6.764a.62.62,0,1,1,1.241,0v6.764A.619.619,0,0,1,186.856,312.37Z" transform="translate(-186.236 -304.365)"/></g></g><g transform="translate(9.985 143.82)"><path class="b" d="M160.379,324.83a.619.619,0,0,1-.62-.62v-6.764a.62.62,0,1,1,1.241,0v6.764A.62.62,0,0,1,160.379,324.83Z" transform="translate(-159.759 -316.825)"/><g transform="translate(8.213)"><path class="b" d="M167,324.83a.62.62,0,0,1-.62-.62v-6.764a.62.62,0,1,1,1.241,0v6.764A.619.619,0,0,1,167,324.83Z" transform="translate(-166.378 -316.825)"/></g><g transform="translate(16.428)"><path class="b" d="M173.618,324.83a.619.619,0,0,1-.62-.62v-6.764a.62.62,0,1,1,1.241,0v6.764A.62.62,0,0,1,173.618,324.83Z" transform="translate(-172.998 -316.825)"/></g><g transform="translate(24.641)"><path class="b" d="M180.237,324.83a.62.62,0,0,1-.62-.62v-6.764a.62.62,0,1,1,1.241,0v6.764A.619.619,0,0,1,180.237,324.83Z" transform="translate(-179.617 -316.825)"/></g><g transform="translate(32.854)"><path class="b" d="M186.856,324.83a.62.62,0,0,1-.62-.62v-6.764a.62.62,0,1,1,1.241,0v6.764A.619.619,0,0,1,186.856,324.83Z" transform="translate(-186.236 -316.825)"/></g></g><g transform="translate(9.985 159.282)"><path class="b" d="M160.379,337.29a.619.619,0,0,1-.62-.62v-6.764a.62.62,0,0,1,1.241,0v6.764A.62.62,0,0,1,160.379,337.29Z" transform="translate(-159.759 -329.285)"/><g transform="translate(8.213)"><path class="b" d="M167,337.29a.62.62,0,0,1-.62-.62v-6.764a.62.62,0,0,1,1.241,0v6.764A.619.619,0,0,1,167,337.29Z" transform="translate(-166.378 -329.285)"/></g><g transform="translate(16.428)"><path class="b" d="M173.618,337.29a.619.619,0,0,1-.62-.62v-6.764a.62.62,0,0,1,1.241,0v6.764A.62.62,0,0,1,173.618,337.29Z" transform="translate(-172.998 -329.285)"/></g><g transform="translate(24.641)"><path class="b" d="M180.237,337.29a.62.62,0,0,1-.62-.62v-6.764a.62.62,0,0,1,1.241,0v6.764A.619.619,0,0,1,180.237,337.29Z" transform="translate(-179.617 -329.285)"/></g><g transform="translate(32.854)"><path class="b" d="M186.856,337.29a.62.62,0,0,1-.62-.62v-6.764a.62.62,0,0,1,1.241,0v6.764A.619.619,0,0,1,186.856,337.29Z" transform="translate(-186.236 -329.285)"/></g></g><g transform="translate(9.985 174.743)"><path class="b" d="M160.379,349.75a.619.619,0,0,1-.62-.62v-6.764a.62.62,0,1,1,1.241,0v6.764A.62.62,0,0,1,160.379,349.75Z" transform="translate(-159.759 -341.745)"/><g transform="translate(8.213)"><path class="b" d="M167,349.75a.62.62,0,0,1-.62-.62v-6.764a.62.62,0,1,1,1.241,0v6.764A.619.619,0,0,1,167,349.75Z" transform="translate(-166.378 -341.745)"/></g><g transform="translate(16.428)"><path class="b" d="M173.618,349.75a.619.619,0,0,1-.62-.62v-6.764a.62.62,0,1,1,1.241,0v6.764A.62.62,0,0,1,173.618,349.75Z" transform="translate(-172.998 -341.745)"/></g><g transform="translate(24.641)"><path class="b" d="M180.237,349.75a.62.62,0,0,1-.62-.62v-6.764a.62.62,0,1,1,1.241,0v6.764A.619.619,0,0,1,180.237,349.75Z" transform="translate(-179.617 -341.745)"/></g><g transform="translate(32.854)"><path class="b" d="M186.856,349.75a.62.62,0,0,1-.62-.62v-6.764a.62.62,0,1,1,1.241,0v6.764A.619.619,0,0,1,186.856,349.75Z" transform="translate(-186.236 -341.745)"/></g></g><g transform="translate(9.985 190.204)"><path class="b" d="M160.379,362.21a.62.62,0,0,1-.62-.62v-6.764a.62.62,0,1,1,1.241,0v6.764A.621.621,0,0,1,160.379,362.21Z" transform="translate(-159.759 -354.205)"/><g transform="translate(32.854)"><path class="b" d="M186.856,362.21a.621.621,0,0,1-.62-.62v-6.764a.62.62,0,0,1,1.241,0v6.764A.62.62,0,0,1,186.856,362.21Z" transform="translate(-186.236 -354.205)"/></g></g><g transform="translate(63.274 188.613)"><path class="b" d="M214.155,354.164h-10.83a.62.62,0,1,1,0-1.241h10.83a.62.62,0,1,1,0,1.241Z" transform="translate(-202.704 -352.923)"/><g transform="translate(16.669)"><path class="b" d="M227.588,354.164h-10.83a.62.62,0,1,1,0-1.241h10.83a.62.62,0,1,1,0,1.241Z" transform="translate(-216.137 -352.923)"/></g><g transform="translate(33.337)"><path class="b" d="M241.022,354.164H230.19a.62.62,0,1,1,0-1.241h10.832a.62.62,0,1,1,0,1.241Z" transform="translate(-229.57 -352.923)"/></g></g><g transform="translate(63.274 193.587)"><path class="b" d="M214.155,358.172h-10.83a.62.62,0,0,1,0-1.241h10.83a.62.62,0,1,1,0,1.241Z" transform="translate(-202.704 -356.931)"/><g transform="translate(16.669)"><path class="b" d="M227.588,358.172h-10.83a.62.62,0,1,1,0-1.241h10.83a.62.62,0,0,1,0,1.241Z" transform="translate(-216.137 -356.931)"/></g><g transform="translate(33.337)"><path class="b" d="M241.022,358.172H230.19a.62.62,0,1,1,0-1.241h10.832a.62.62,0,1,1,0,1.241Z" transform="translate(-229.57 -356.931)"/></g></g><g transform="translate(63.274 198.558)"><path class="b" d="M214.155,362.178h-10.83a.62.62,0,0,1,0-1.241h10.83a.62.62,0,1,1,0,1.241Z" transform="translate(-202.704 -360.937)"/><g transform="translate(16.669)"><path class="b" d="M227.588,362.178h-10.83a.62.62,0,1,1,0-1.241h10.83a.62.62,0,0,1,0,1.241Z" transform="translate(-216.137 -360.937)"/></g><g transform="translate(33.337)"><path class="b" d="M241.022,362.178H230.19a.62.62,0,1,1,0-1.241h10.832a.62.62,0,1,1,0,1.241Z" transform="translate(-229.57 -360.937)"/></g></g><g transform="translate(71.025 28.989)"><path class="b" d="M209.57,263.05a.619.619,0,0,1-.62-.62V224.9a.62.62,0,0,1,1.241,0V262.43A.62.62,0,0,1,209.57,263.05Z" transform="translate(-208.95 -224.284)"/></g><g transform="translate(71.024 34.143)"><path class="b" d="M209.571,243.85a.62.62,0,0,1-.439-1.058l6.3-6.3v-7.434a.62.62,0,1,1,1.241,0v7.691a.62.62,0,0,1-.182.438l-6.482,6.482A.618.618,0,0,1,209.571,243.85Z" transform="translate(-208.95 -228.437)"/></g></g><g transform="translate(0 202.966)"><path class="b" d="M155.928,365.731H137.406a.62.62,0,1,1,0-1.241h18.521a.62.62,0,1,1,0,1.241Z" transform="translate(-136.786 -364.49)"/></g><g transform="translate(131.096 202.966)"><path class="b" d="M261.578,365.731H243.055a.62.62,0,1,1,0-1.241h18.522a.62.62,0,0,1,0,1.241Z" transform="translate(-242.435 -364.49)"/></g></g><g transform="translate(395.794 356.814)"><path class="b" d="M343.018,360.889a17.168,17.168,0,1,1,17.169-17.167A17.188,17.188,0,0,1,343.018,360.889Zm0-33.1a15.927,15.927,0,1,0,15.928,15.928A15.944,15.944,0,0,0,343.018,327.794Z" transform="translate(-325.851 -326.553)"/><g transform="translate(16.547 16.548)"><path class="b" d="M339.806,371.656a.621.621,0,0,1-.62-.62V340.509a.62.62,0,0,1,1.241,0v30.527A.62.62,0,0,1,339.806,371.656Z" transform="translate(-339.186 -339.889)"/></g><g transform="translate(16.548 21.154)"><path class="b" d="M339.806,350.669a.621.621,0,0,1-.438-1.06l5.828-5.827a.62.62,0,0,1,.877.877l-5.828,5.827A.62.62,0,0,1,339.806,350.669Z" transform="translate(-339.187 -343.601)"/></g></g><g transform="translate(75.776 350.233)"><path class="b" d="M77.7,364.293c-5.464,0-9.743-9.453-9.743-21.52s4.28-21.523,9.743-21.523,9.743,9.454,9.743,21.523S83.159,364.293,77.7,364.293Zm0-41.8c-4.609,0-8.5,9.288-8.5,20.282s3.894,20.28,8.5,20.28,8.5-9.287,8.5-20.28S82.3,322.491,77.7,322.491Z" transform="translate(-67.952 -321.25)"/><g transform="translate(9.123 31.091)"><path class="b" d="M75.924,370.111a.621.621,0,0,1-.62-.62V346.926a.62.62,0,0,1,1.241,0V369.49A.62.62,0,0,1,75.924,370.111Z" transform="translate(-75.304 -346.306)"/></g><g transform="translate(9.123 19.48)"><path class="b" d="M75.924,342.149a.621.621,0,0,1-.62-.62v-3.96a.62.62,0,1,1,1.241,0v3.96A.62.62,0,0,1,75.924,342.149Z" transform="translate(-75.304 -336.949)"/></g></g><g transform="translate(50.789 394.49)"><path class="b" d="M73.851,367.555H59.907a.62.62,0,1,1,0-1.241h13.1a5,5,0,0,0-6.48-2.84.618.618,0,0,1-.778-.313,8.772,8.772,0,0,0-16.672,3.153h3.5a.62.62,0,1,1,0,1.241H48.435a.621.621,0,0,1-.62-.62,10.013,10.013,0,0,1,18.805-4.8,6.259,6.259,0,0,1,7.835,4.657.619.619,0,0,1-.6.759Z" transform="translate(-47.815 -356.916)"/></g><g transform="translate(521.945 239.547)"><g transform="translate(17.154)"><path class="c" d="M443.872,263.292a.621.621,0,0,1-.547-.328,16.76,16.76,0,0,1,19.221-24.088,19.89,19.89,0,0,1,21.386-5.774.621.621,0,0,1-.4,1.176,18.645,18.645,0,0,0-20.3,5.7.619.619,0,0,1-.654.2,15.528,15.528,0,0,0-18.161,22.2.622.622,0,0,1-.546.915Z" transform="translate(-441.338 -232.049)"/></g><g transform="translate(71.458 12.685)"><path class="c" d="M492.879,269.343a.62.62,0,0,1,0-1.241,12.295,12.295,0,1,0-6.812-22.527.621.621,0,1,1-.689-1.032,13.535,13.535,0,1,1,7.5,24.8Z" transform="translate(-485.101 -242.272)"/></g><g transform="translate(0 27.46)"><path class="c" d="M486.365,293.936a.62.62,0,1,1,0-1.241,15.526,15.526,0,1,0-4.473-30.39.617.617,0,0,1-.655-.195,18.62,18.62,0,0,0-32.426,7.682.622.622,0,0,1-.948.375,12.294,12.294,0,1,0-6.812,22.528.62.62,0,0,1,0,1.241,13.537,13.537,0,1,1,6.766-25.259,19.86,19.86,0,0,1,34.108-7.671,16.765,16.765,0,1,1,4.441,32.93Z" transform="translate(-427.514 -254.179)"/></g></g><g transform="translate(396.264 210.668)"><path class="c" d="M385.081,248.533a.62.62,0,1,1,0-1.241,15.525,15.525,0,1,0-4.476-30.389.618.618,0,0,1-.655-.2,18.619,18.619,0,0,0-32.425,7.682.62.62,0,0,1-.948.375,12.294,12.294,0,1,0-6.811,22.528.62.62,0,0,1,0,1.241,13.536,13.536,0,1,1,6.765-25.258,19.859,19.859,0,0,1,34.108-7.672,16.765,16.765,0,1,1,4.442,32.93Z" transform="translate(-326.229 -208.776)"/></g><g transform="translate(300.004 248.36)"><path class="c" d="M273.588,240.393H249.275a.62.62,0,1,1,0-1.241h24.312a.62.62,0,0,1,0,1.241Z" transform="translate(-248.655 -239.152)"/></g><g transform="translate(293.437 256.102)"><path class="c" d="M255.478,246.632h-11.5a.62.62,0,0,1,0-1.241h11.5a.62.62,0,1,1,0,1.241Z" transform="translate(-243.362 -245.391)"/></g><g transform="translate(315.16 256.102)"><path class="c" d="M283.882,246.632H261.489a.62.62,0,0,1,0-1.241h22.393a.62.62,0,0,1,0,1.241Z" transform="translate(-260.869 -245.391)"/></g><g transform="translate(420.657 298.609)"><path class="c" d="M377.832,280.888H346.507a.62.62,0,0,1,0-1.241h31.325a.62.62,0,1,1,0,1.241Z" transform="translate(-345.887 -279.647)"/></g><g transform="translate(401.669 309.665)"><path class="c" d="M356.488,289.8H331.205a.62.62,0,0,1,0-1.241h25.283a.62.62,0,0,1,0,1.241Z" transform="translate(-330.585 -288.557)"/></g><g transform="translate(442.029 309.665)"><path class="c" d="M379.9,289.8H363.731a.62.62,0,1,1,0-1.241H379.9a.62.62,0,0,1,0,1.241Z" transform="translate(-363.111 -288.557)"/></g><g transform="translate(68.561 273.587)"><path class="c" d="M87.763,260.723h-25a.62.62,0,0,1,0-1.241h25a.62.62,0,0,1,0,1.241Z" transform="translate(-62.138 -259.482)"/></g><g transform="translate(83.406 282.536)"><path class="c" d="M92.551,267.935H74.721a.62.62,0,0,1,0-1.241h17.83a.62.62,0,0,1,0,1.241Z" transform="translate(-74.101 -266.694)"/></g><g transform="translate(102.727 255.422)"><g transform="translate(16.763 6.84)"><path class="b" d="M156.187,393.222H103.8a.62.62,0,0,1-.62-.62V250.975a.62.62,0,0,1,.62-.62h52.386a.621.621,0,0,1,.62.62V392.6A.621.621,0,0,1,156.187,393.222Zm-51.765-1.241h51.145V251.6H104.422Z" transform="translate(-103.181 -250.355)"/></g><g transform="translate(0 64.318)"><path class="b" d="M107.055,382.065H90.291a.62.62,0,0,1-.617-.682l8.354-84.148a.62.62,0,0,1,.617-.558h8.411a.62.62,0,0,1,0,1.241H99.207l-8.229,82.907h16.078a.62.62,0,1,1,0,1.241Z" transform="translate(-89.672 -296.676)"/></g><g transform="translate(50.463 6.84)"><path class="b" d="M146.872,393.222H130.959a.621.621,0,0,1-.62-.62V250.975a.621.621,0,0,1,.62-.62h6.495a.62.62,0,0,1,.619.579l9.418,141.626a.62.62,0,0,1-.619.661Zm-15.292-1.241h14.63L136.873,251.6H131.58Z" transform="translate(-130.339 -250.355)"/></g><g transform="translate(21.786)"><path class="b" d="M150.189,252.924h-42.34a.619.619,0,0,1-.62-.62v-6.84a.619.619,0,0,1,.62-.62h42.34a.619.619,0,0,1,.62.62v6.84A.619.619,0,0,1,150.189,252.924Zm-41.719-1.241h41.1v-5.6h-41.1Z" transform="translate(-107.229 -244.843)"/></g><g transform="translate(21.554 14.605)"><path class="b" d="M107.662,263.263a.621.621,0,0,1-.62-.62v-5.409a.62.62,0,0,1,1.241,0v5.409A.621.621,0,0,1,107.662,263.263Z" transform="translate(-107.042 -256.613)"/><g transform="translate(6.039)"><path class="b" d="M112.529,263.263a.621.621,0,0,1-.62-.62v-5.409a.62.62,0,0,1,1.241,0v5.409A.621.621,0,0,1,112.529,263.263Z" transform="translate(-111.909 -256.613)"/></g><g transform="translate(12.08)"><path class="b" d="M117.4,263.263a.621.621,0,0,1-.62-.62v-5.409a.62.62,0,0,1,1.241,0v5.409A.621.621,0,0,1,117.4,263.263Z" transform="translate(-116.777 -256.613)"/></g><g transform="translate(18.12)"><path class="b" d="M122.265,263.263a.62.62,0,0,1-.62-.62v-5.409a.62.62,0,0,1,1.241,0v5.409A.621.621,0,0,1,122.265,263.263Z" transform="translate(-121.645 -256.613)"/></g><g transform="translate(24.16)"><path class="b" d="M127.132,263.263a.621.621,0,0,1-.62-.62v-5.409a.62.62,0,0,1,1.241,0v5.409A.62.62,0,0,1,127.132,263.263Z" transform="translate(-126.512 -256.613)"/></g></g><g transform="translate(21.554 26.994)"><path class="b" d="M107.662,273.246a.621.621,0,0,1-.62-.62v-5.408a.62.62,0,0,1,1.241,0v5.408A.621.621,0,0,1,107.662,273.246Z" transform="translate(-107.042 -266.597)"/><g transform="translate(6.039)"><path class="b" d="M112.529,273.246a.621.621,0,0,1-.62-.62v-5.408a.62.62,0,0,1,1.241,0v5.408A.621.621,0,0,1,112.529,273.246Z" transform="translate(-111.909 -266.597)"/></g><g transform="translate(12.08)"><path class="b" d="M117.4,273.246a.621.621,0,0,1-.62-.62v-5.408a.62.62,0,0,1,1.241,0v5.408A.621.621,0,0,1,117.4,273.246Z" transform="translate(-116.777 -266.597)"/></g><g transform="translate(18.12)"><path class="b" d="M122.265,273.246a.62.62,0,0,1-.62-.62v-5.408a.62.62,0,0,1,1.241,0v5.408A.621.621,0,0,1,122.265,273.246Z" transform="translate(-121.645 -266.597)"/></g><g transform="translate(24.16)"><path class="b" d="M127.132,273.246a.621.621,0,0,1-.62-.62v-5.408a.62.62,0,0,1,1.241,0v5.408A.62.62,0,0,1,127.132,273.246Z" transform="translate(-126.512 -266.597)"/></g></g><g transform="translate(21.554 39.381)"><path class="b" d="M107.662,283.229a.62.62,0,0,1-.62-.62V277.2a.62.62,0,0,1,1.241,0v5.408A.62.62,0,0,1,107.662,283.229Z" transform="translate(-107.042 -276.58)"/><g transform="translate(6.039)"><path class="b" d="M112.529,283.229a.62.62,0,0,1-.62-.62V277.2a.62.62,0,0,1,1.241,0v5.408A.62.62,0,0,1,112.529,283.229Z" transform="translate(-111.909 -276.58)"/></g><g transform="translate(12.08)"><path class="b" d="M117.4,283.229a.62.62,0,0,1-.62-.62V277.2a.62.62,0,0,1,1.241,0v5.408A.62.62,0,0,1,117.4,283.229Z" transform="translate(-116.777 -276.58)"/></g><g transform="translate(18.12)"><path class="b" d="M122.265,283.229a.619.619,0,0,1-.62-.62V277.2a.62.62,0,0,1,1.241,0v5.408A.62.62,0,0,1,122.265,283.229Z" transform="translate(-121.645 -276.58)"/></g><g transform="translate(24.16)"><path class="b" d="M127.132,283.229a.62.62,0,0,1-.62-.62V277.2a.62.62,0,0,1,1.241,0v5.408A.619.619,0,0,1,127.132,283.229Z" transform="translate(-126.512 -276.58)"/></g></g><g transform="translate(21.554 51.768)"><path class="b" d="M107.662,293.212a.621.621,0,0,1-.62-.62v-5.409a.62.62,0,0,1,1.241,0v5.409A.621.621,0,0,1,107.662,293.212Z" transform="translate(-107.042 -286.562)"/><g transform="translate(6.039)"><path class="b" d="M112.529,293.212a.621.621,0,0,1-.62-.62v-5.409a.62.62,0,0,1,1.241,0v5.409A.621.621,0,0,1,112.529,293.212Z" transform="translate(-111.909 -286.562)"/></g><g transform="translate(12.08)"><path class="b" d="M117.4,293.212a.621.621,0,0,1-.62-.62v-5.409a.62.62,0,0,1,1.241,0v5.409A.621.621,0,0,1,117.4,293.212Z" transform="translate(-116.777 -286.562)"/></g><g transform="translate(18.12)"><path class="b" d="M122.265,293.212a.62.62,0,0,1-.62-.62v-5.409a.62.62,0,0,1,1.241,0v5.409A.621.621,0,0,1,122.265,293.212Z" transform="translate(-121.645 -286.562)"/></g><g transform="translate(24.16)"><path class="b" d="M127.132,293.212a.621.621,0,0,1-.62-.62v-5.409a.62.62,0,0,1,1.241,0v5.409A.62.62,0,0,1,127.132,293.212Z" transform="translate(-126.512 -286.562)"/></g></g><g transform="translate(21.554 64.157)"><path class="b" d="M107.662,303.195a.62.62,0,0,1-.62-.62v-5.408a.62.62,0,1,1,1.241,0v5.408A.62.62,0,0,1,107.662,303.195Z" transform="translate(-107.042 -296.546)"/><g transform="translate(6.039)"><path class="b" d="M112.529,303.195a.62.62,0,0,1-.62-.62v-5.408a.62.62,0,1,1,1.241,0v5.408A.62.62,0,0,1,112.529,303.195Z" transform="translate(-111.909 -296.546)"/></g><g transform="translate(12.08)"><path class="b" d="M117.4,303.195a.62.62,0,0,1-.62-.62v-5.408a.62.62,0,1,1,1.241,0v5.408A.62.62,0,0,1,117.4,303.195Z" transform="translate(-116.777 -296.546)"/></g><g transform="translate(18.12)"><path class="b" d="M122.265,303.195a.619.619,0,0,1-.62-.62v-5.408a.62.62,0,1,1,1.241,0v5.408A.62.62,0,0,1,122.265,303.195Z" transform="translate(-121.645 -296.546)"/></g><g transform="translate(24.16)"><path class="b" d="M127.132,303.195a.62.62,0,0,1-.62-.62v-5.408a.62.62,0,1,1,1.241,0v5.408A.619.619,0,0,1,127.132,303.195Z" transform="translate(-126.512 -296.546)"/></g></g><g transform="translate(21.554 76.544)"><path class="b" d="M107.662,313.179a.621.621,0,0,1-.62-.62v-5.409a.62.62,0,0,1,1.241,0v5.409A.621.621,0,0,1,107.662,313.179Z" transform="translate(-107.042 -306.529)"/><g transform="translate(6.039)"><path class="b" d="M112.529,313.179a.621.621,0,0,1-.62-.62v-5.409a.62.62,0,0,1,1.241,0v5.409A.621.621,0,0,1,112.529,313.179Z" transform="translate(-111.909 -306.529)"/></g><g transform="translate(12.08)"><path class="b" d="M117.4,313.179a.621.621,0,0,1-.62-.62v-5.409a.62.62,0,0,1,1.241,0v5.409A.621.621,0,0,1,117.4,313.179Z" transform="translate(-116.777 -306.529)"/></g><g transform="translate(18.12)"><path class="b" d="M122.265,313.179a.62.62,0,0,1-.62-.62v-5.409a.62.62,0,0,1,1.241,0v5.409A.621.621,0,0,1,122.265,313.179Z" transform="translate(-121.645 -306.529)"/></g><g transform="translate(24.16)"><path class="b" d="M127.132,313.179a.621.621,0,0,1-.62-.62v-5.409a.62.62,0,0,1,1.241,0v5.409A.62.62,0,0,1,127.132,313.179Z" transform="translate(-126.512 -306.529)"/></g></g><g transform="translate(21.554 88.932)"><path class="b" d="M107.662,323.161a.621.621,0,0,1-.62-.62v-5.408a.62.62,0,0,1,1.241,0v5.408A.621.621,0,0,1,107.662,323.161Z" transform="translate(-107.042 -316.512)"/><g transform="translate(6.039)"><path class="b" d="M112.529,323.161a.621.621,0,0,1-.62-.62v-5.408a.62.62,0,0,1,1.241,0v5.408A.621.621,0,0,1,112.529,323.161Z" transform="translate(-111.909 -316.512)"/></g><g transform="translate(12.08)"><path class="b" d="M117.4,323.161a.621.621,0,0,1-.62-.62v-5.408a.62.62,0,0,1,1.241,0v5.408A.621.621,0,0,1,117.4,323.161Z" transform="translate(-116.777 -316.512)"/></g><g transform="translate(18.12)"><path class="b" d="M122.265,323.161a.62.62,0,0,1-.62-.62v-5.408a.62.62,0,0,1,1.241,0v5.408A.621.621,0,0,1,122.265,323.161Z" transform="translate(-121.645 -316.512)"/></g><g transform="translate(24.16)"><path class="b" d="M127.132,323.161a.621.621,0,0,1-.62-.62v-5.408a.62.62,0,0,1,1.241,0v5.408A.62.62,0,0,1,127.132,323.161Z" transform="translate(-126.512 -316.512)"/></g></g><g transform="translate(21.554 101.319)"><path class="b" d="M107.662,333.144a.62.62,0,0,1-.62-.62v-5.408a.62.62,0,0,1,1.241,0v5.408A.62.62,0,0,1,107.662,333.144Z" transform="translate(-107.042 -326.495)"/><g transform="translate(6.039)"><path class="b" d="M112.529,333.144a.62.62,0,0,1-.62-.62v-5.408a.62.62,0,0,1,1.241,0v5.408A.62.62,0,0,1,112.529,333.144Z" transform="translate(-111.909 -326.495)"/></g><g transform="translate(12.08)"><path class="b" d="M117.4,333.144a.62.62,0,0,1-.62-.62v-5.408a.62.62,0,0,1,1.241,0v5.408A.62.62,0,0,1,117.4,333.144Z" transform="translate(-116.777 -326.495)"/></g><g transform="translate(18.12)"><path class="b" d="M122.265,333.144a.619.619,0,0,1-.62-.62v-5.408a.62.62,0,0,1,1.241,0v5.408A.62.62,0,0,1,122.265,333.144Z" transform="translate(-121.645 -326.495)"/></g><g transform="translate(24.16)"><path class="b" d="M127.132,333.144a.62.62,0,0,1-.62-.62v-5.408a.62.62,0,0,1,1.241,0v5.408A.619.619,0,0,1,127.132,333.144Z" transform="translate(-126.512 -326.495)"/></g></g><g transform="translate(21.554 113.707)"><path class="b" d="M107.662,343.128a.621.621,0,0,1-.62-.62V337.1a.62.62,0,0,1,1.241,0v5.409A.621.621,0,0,1,107.662,343.128Z" transform="translate(-107.042 -336.478)"/><g transform="translate(6.039)"><path class="b" d="M112.529,343.128a.621.621,0,0,1-.62-.62V337.1a.62.62,0,0,1,1.241,0v5.409A.621.621,0,0,1,112.529,343.128Z" transform="translate(-111.909 -336.478)"/></g><g transform="translate(12.08)"><path class="b" d="M117.4,343.128a.621.621,0,0,1-.62-.62V337.1a.62.62,0,0,1,1.241,0v5.409A.621.621,0,0,1,117.4,343.128Z" transform="translate(-116.777 -336.478)"/></g><g transform="translate(18.12)"><path class="b" d="M122.265,343.128a.62.62,0,0,1-.62-.62V337.1a.62.62,0,0,1,1.241,0v5.409A.621.621,0,0,1,122.265,343.128Z" transform="translate(-121.645 -336.478)"/></g><g transform="translate(24.16)"><path class="b" d="M127.132,343.128a.621.621,0,0,1-.62-.62V337.1a.62.62,0,0,1,1.241,0v5.409A.62.62,0,0,1,127.132,343.128Z" transform="translate(-126.512 -336.478)"/></g></g><g transform="translate(21.554 126.095)"><path class="b" d="M107.662,353.11a.62.62,0,0,1-.62-.62v-5.408a.62.62,0,0,1,1.241,0v5.408A.62.62,0,0,1,107.662,353.11Z" transform="translate(-107.042 -346.461)"/><g transform="translate(6.039)"><path class="b" d="M112.529,353.11a.62.62,0,0,1-.62-.62v-5.408a.62.62,0,0,1,1.241,0v5.408A.62.62,0,0,1,112.529,353.11Z" transform="translate(-111.909 -346.461)"/></g><g transform="translate(12.08)"><path class="b" d="M117.4,353.11a.62.62,0,0,1-.62-.62v-5.408a.62.62,0,0,1,1.241,0v5.408A.62.62,0,0,1,117.4,353.11Z" transform="translate(-116.777 -346.461)"/></g><g transform="translate(18.12)"><path class="b" d="M122.265,353.11a.619.619,0,0,1-.62-.62v-5.408a.62.62,0,0,1,1.241,0v5.408A.62.62,0,0,1,122.265,353.11Z" transform="translate(-121.645 -346.461)"/></g><g transform="translate(24.16)"><path class="b" d="M127.132,353.11a.62.62,0,0,1-.62-.62v-5.408a.62.62,0,0,1,1.241,0v5.408A.619.619,0,0,1,127.132,353.11Z" transform="translate(-126.512 -346.461)"/></g></g><g transform="translate(21.554 138.482)"><path class="b" d="M107.662,363.094a.621.621,0,0,1-.62-.62v-5.409a.62.62,0,1,1,1.241,0v5.409A.621.621,0,0,1,107.662,363.094Z" transform="translate(-107.042 -356.444)"/><g transform="translate(6.039)"><path class="b" d="M112.529,363.094a.621.621,0,0,1-.62-.62v-5.409a.62.62,0,1,1,1.241,0v5.409A.621.621,0,0,1,112.529,363.094Z" transform="translate(-111.909 -356.444)"/></g><g transform="translate(12.08)"><path class="b" d="M117.4,363.094a.621.621,0,0,1-.62-.62v-5.409a.62.62,0,1,1,1.241,0v5.409A.621.621,0,0,1,117.4,363.094Z" transform="translate(-116.777 -356.444)"/></g><g transform="translate(18.12)"><path class="b" d="M122.265,363.094a.62.62,0,0,1-.62-.62v-5.409a.62.62,0,1,1,1.241,0v5.409A.621.621,0,0,1,122.265,363.094Z" transform="translate(-121.645 -356.444)"/></g><g transform="translate(24.16)"><path class="b" d="M127.132,363.094a.621.621,0,0,1-.62-.62v-5.409a.62.62,0,1,1,1.241,0v5.409A.62.62,0,0,1,127.132,363.094Z" transform="translate(-126.512 -356.444)"/></g></g></g><g transform="translate(633.807 227.53)"><path class="c" d="M532.5,223.606h-14.22a.62.62,0,1,1,0-1.241H532.5a.62.62,0,1,1,0,1.241Z" transform="translate(-517.662 -222.365)"/></g><g transform="translate(642.501 216.196)"><path class="c" d="M541.545,214.472H525.289a.62.62,0,0,1,0-1.241h16.255a.62.62,0,0,1,0,1.241Z" transform="translate(-524.669 -213.231)"/></g><g transform="translate(35.47 403.888)"><path class="b" d="M691.343,365.731H36.09a.62.62,0,1,1,0-1.241H691.343a.62.62,0,1,1,0,1.241Z" transform="translate(-35.47 -364.49)"/></g></g></svg>