<svg xmlns="http://www.w3.org/2000/svg" width="44.897" height="44.5" viewBox="0 0 44.897 44.5">
  <g id="noun-doctor-2909354-404040" transform="translate(-12.653 -12.637)">
    <path id="Path_34799" data-name="Path 34799" d="M56.623,48.074a1.479,1.479,0,0,0-1.967.326l-.429.544a1.657,1.657,0,0,1-1.3.63,4.172,4.172,0,0,0-3.209,1.5l-1.161,1.4,0,0-4.4,4.86a.415.415,0,0,1-.591.024L38,52.127a9.092,9.092,0,0,0-6.249-2.477h-.872a.4.4,0,0,0-.123.021c-.006,0-.013.006-.019.008a.289.289,0,0,0-.065.028l-.515.3a6.209,6.209,0,0,1-6.2.01l-.538-.311c-.01,0-.021,0-.031-.01a.409.409,0,0,0-.117-.037.16.16,0,0,0-.028,0,.223.223,0,0,0-.032,0h-.667a9.7,9.7,0,0,0-5.911,2.023,9.6,9.6,0,0,0-3.7,8.48L14.36,76.173a1.278,1.278,0,0,0,1.28,1.17H35.411a1.3,1.3,0,0,0,.933-.4,1.277,1.277,0,0,0,.352-.951l-.256-5.134a18.771,18.771,0,0,1,.782-6.65c.04-.128.076-.258.11-.387a.008.008,0,0,1,0-.006v0a9.408,9.408,0,0,0,.282-1.615l3.569,2.715a4.407,4.407,0,0,0,6.306-1.022l5.689-8.333,3.841-5.373a1.483,1.483,0,0,0-.4-2.107Zm-3.7,2.329a2.473,2.473,0,0,0,1.952-.946l.429-.544a.651.651,0,0,1,.514-.248.64.64,0,0,1,.353.105.65.65,0,0,1,.287.426.64.64,0,0,1-.11.5L52.8,54.664l-3.045-2.333.6-.721A3.337,3.337,0,0,1,52.924,50.4ZM17.956,64.051a22.491,22.491,0,0,1-.548-6.415.414.414,0,0,0-.4-.428h-.013a.415.415,0,0,0-.415.4,23.23,23.23,0,0,0,.577,6.66,18.756,18.756,0,0,1,.671,5.892l-.319,6.353H15.64a.452.452,0,0,1-.454-.415L13.769,60.081a8.775,8.775,0,0,1,3.378-7.751,8.87,8.87,0,0,1,4.324-1.775,4.478,4.478,0,0,0-1.213,1.5,6.052,6.052,0,0,0,.165,5.012c.006.015.016.026.024.04a2.252,2.252,0,1,0,.729-.39A5.264,5.264,0,0,1,21,52.432a4.081,4.081,0,0,1,2.167-1.912l3.16,5.112a.861.861,0,0,0,.326.309V76.515h-8.31l.318-6.311a19.685,19.685,0,0,0-.7-6.152Zm3.9-6.609a1.451,1.451,0,1,1-1.451,1.451A1.453,1.453,0,0,1,21.859,57.442Zm24.95,5.977a3.577,3.577,0,0,1-5.121.829l-4.043-3.076a11.731,11.731,0,0,0-.251-3.667.415.415,0,0,0-.8.237,14.482,14.482,0,0,1-.07,5.863c-.032.118-.06.24-.1.356A19.59,19.59,0,0,0,35.61,70.9l.256,5.134a.447.447,0,0,1-.125.337.456.456,0,0,1-.33.143l-7.933,0V55.942a.849.849,0,0,0,.326-.309l3.128-5.059c.756.484,2.969,2.268,1.772,5.931a.4.4,0,0,0-.015.18,3.446,3.446,0,0,0-.47-.036,3.532,3.532,0,0,0-3.528,3.528v1.866a.4.4,0,0,0,.024.118,1.242,1.242,0,1,0,1.229-1.4,1.225,1.225,0,0,0-.423.079v-.661a2.7,2.7,0,0,1,5.4,0v.658a1.213,1.213,0,0,0-.413-.076,1.244,1.244,0,1,0,1.239,1.3s0-.01,0-.015v-.015c0-.008,0-.016,0-.024a.125.125,0,0,0,0-.024v-1.8a3.532,3.532,0,0,0-2.312-3.308.417.417,0,0,0,.055-.107A5.657,5.657,0,0,0,32.148,50.5a8.259,8.259,0,0,1,5.286,2.234L43,57.967a1.243,1.243,0,0,0,.9.337,1.229,1.229,0,0,0,.872-.408l4.442-4.912,3.1,2.362Z" transform="translate(0 -20.456)" fill="#1c3ffd"/>
    <path id="Path_34799_-_Outline" data-name="Path 34799 - Outline" d="M55.82,47.586a1.732,1.732,0,0,1,1.405,2.741L53.386,55.7,47.7,64.029a4.657,4.657,0,0,1-6.664,1.08l-3.217-2.447a9.734,9.734,0,0,1-.232,1.181v.071l-.026.028c-.027.1-.06.221-.1.342a18.523,18.523,0,0,0-.771,6.561l.256,5.134a1.523,1.523,0,0,1-.42,1.136,1.549,1.549,0,0,1-1.114.478H15.639a1.527,1.527,0,0,1-1.529-1.4l-1.417-16.02a9.851,9.851,0,0,1,3.791-8.7A9.952,9.952,0,0,1,22.548,49.4h.667a.333.333,0,0,1,.063.006l.035,0a.651.651,0,0,1,.167.05.3.3,0,0,1,.054.021l.013.007.538.311a5.959,5.959,0,0,0,5.947-.01l.51-.3a.468.468,0,0,1,.1-.046h0a.283.283,0,0,1,.038-.014.644.644,0,0,1,.2-.032h.872a9.342,9.342,0,0,1,6.421,2.545l5.568,5.236a.154.154,0,0,0,.116.044h.007a.155.155,0,0,0,.109-.052l4.35-4.808.039-.048,1.161-1.4a4.412,4.412,0,0,1,3.4-1.6,1.4,1.4,0,0,0,1.106-.535l.429-.544A1.721,1.721,0,0,1,55.82,47.586ZM43.854,65.559a4.154,4.154,0,0,0,3.432-1.812l5.692-8.337,3.841-5.373a1.231,1.231,0,0,0-1.965-1.482l-.429.544a1.9,1.9,0,0,1-1.5.725,3.914,3.914,0,0,0-3.017,1.415l-.96,1.155.013.006-.218.246-4.4,4.86a.653.653,0,0,1-.465.218h-.025a.649.649,0,0,1-.459-.18l-5.568-5.236A8.843,8.843,0,0,0,31.753,49.9h-.872a.139.139,0,0,0-.037.006l-.029.011-.008,0-.008,0-.516.3a6.459,6.459,0,0,1-6.448.01l-.513-.3a.294.294,0,0,1-.043-.017.154.154,0,0,0-.043-.014l-.025,0-.014,0h-.65a9.449,9.449,0,0,0-5.758,1.971,9.353,9.353,0,0,0-3.6,8.26l1.417,16.02a1.029,1.029,0,0,0,1.031.942H35.411a1.046,1.046,0,0,0,.752-.323A1.027,1.027,0,0,0,36.445,76L36.19,70.87a19.019,19.019,0,0,1,.794-6.738c.041-.131.077-.263.1-.365a.256.256,0,0,1,.008-.028,9.189,9.189,0,0,0,.273-1.566l.039-.453,3.931,2.99A4.176,4.176,0,0,0,43.854,65.559ZM55.818,48.415a.9.9,0,0,1,.732,1.428l-3.7,5.176-3.457-2.648.766-.921a3.588,3.588,0,0,1,2.545-1.29v-.007h.217a2.225,2.225,0,0,0,1.756-.851l.429-.544A.9.9,0,0,1,55.818,48.415Zm-3.073,5.893,3.4-4.757a.393.393,0,0,0,.068-.308.4.4,0,0,0-.177-.263.391.391,0,0,0-.218-.065.4.4,0,0,0-.318.153l-.429.544a2.721,2.721,0,0,1-1.93,1.033v.009h-.217a3.089,3.089,0,0,0-2.379,1.117l-.433.521ZM22.307,50.2l-.68.551a4.226,4.226,0,0,0-1.146,1.418,5.807,5.807,0,0,0,.167,4.792l.017.028.1.186L20.6,57.3a2,2,0,1,0,.649-.348l-.222.07-.086-.217a5.5,5.5,0,0,1-.172-4.488,4.31,4.31,0,0,1,2.3-2.035l.193-.074L26.536,55.5a.612.612,0,0,0,.232.221l.13.071V76.765H18.076l.331-6.574a19.4,19.4,0,0,0-.671-6l-.02-.075a22.732,22.732,0,0,1-.556-6.488.164.164,0,0,0-.156-.17h-.009a.165.165,0,0,0-.165.161A22.985,22.985,0,0,0,17.4,64.2a19.011,19.011,0,0,1,.679,5.97l-.331,6.59H15.64a.7.7,0,0,1-.7-.643L13.52,60.1a9.047,9.047,0,0,1,7.919-9.8ZM26.4,56.079a1.1,1.1,0,0,1-.289-.316l-3.048-4.93a3.743,3.743,0,0,0-1.842,1.709,4.888,4.888,0,0,0,.109,3.877,2.545,2.545,0,1,1-1.187.62,6.215,6.215,0,0,1-.11-5.094,4.587,4.587,0,0,1,.675-1.007,8.54,8.54,0,0,0-6.69,9.12l1.417,16.02a.2.2,0,0,0,.2.187h1.63l.307-6.116a18.514,18.514,0,0,0-.662-5.814,23.47,23.47,0,0,1-.585-6.733.664.664,0,0,1,.665-.644h.02a.664.664,0,0,1,.645.686,22.4,22.4,0,0,0,.525,6.29l.014.05a19.933,19.933,0,0,1,.708,6.231l-.3,6.048h7.8Zm5.088-5.863.673.032a8.542,8.542,0,0,1,5.445,2.3l5.566,5.236a1,1,0,0,0,.721.269.981.981,0,0,0,.7-.326l4.6-5.082,3.474,2.645L47.015,63.56a3.827,3.827,0,0,1-5.479.887l-4.149-3.156.007-.132a11.417,11.417,0,0,0-.24-3.58.163.163,0,0,0-.158-.12.167.167,0,0,0-.047.007.164.164,0,0,0-.111.2,14.71,14.71,0,0,1-.063,5.976l-.005.024c-.011.039-.021.079-.031.118-.021.081-.042.165-.069.248a19.341,19.341,0,0,0-.81,6.854l.256,5.134a.694.694,0,0,1-.194.523.7.7,0,0,1-.51.219l-8.183,0V55.791l.133-.071a.6.6,0,0,0,.23-.219l3.262-5.276.214.137c.758.485,3.134,2.368,1.875,6.219a.152.152,0,0,0,0,.068l.045.327-.327-.045a3.176,3.176,0,0,0-.436-.033,3.282,3.282,0,0,0-3.278,3.278v1.866s.007.023.011.037l.009.029,0,.021a.992.992,0,1,0,.982-1.119.97.97,0,0,0-.337.064l-.336.123V60.178a2.949,2.949,0,0,1,5.9,0v1.013l-.334-.12a.966.966,0,0,0-.329-.062.994.994,0,1,0,.989,1.037.266.266,0,0,1,0-.033h0V60.176A3.293,3.293,0,0,0,33.349,57.1l-.3-.112.186-.266a.171.171,0,0,0,.023-.043,5.4,5.4,0,0,0-1.278-6Zm12.366,8.339a1.5,1.5,0,0,1-1.024-.405l-5.567-5.236A8.031,8.031,0,0,0,32.784,50.8a5.594,5.594,0,0,1,1.073,1.911,6.528,6.528,0,0,1-.093,4.017A3.8,3.8,0,0,1,36,60.176v1.782A.33.33,0,0,1,36,62c0,.011,0,.022,0,.032v.006a.265.265,0,0,1,0,.05,1.492,1.492,0,1,1-1.488-1.583,1.355,1.355,0,0,1,.163.01v-.341a2.449,2.449,0,0,0-4.9,0v.343a1.365,1.365,0,0,1,.173-.011,1.494,1.494,0,1,1-1.474,1.705.575.575,0,0,1-.029-.172V60.176A3.782,3.782,0,0,1,32.219,56.4c.081,0,.164,0,.253.01,1.034-3.19-.646-4.878-1.466-5.48l-2.99,4.836a1.113,1.113,0,0,1-.288.315V76.265l7.683,0a.206.206,0,0,0,.15-.066.2.2,0,0,0,.055-.151l-.256-5.134a19.838,19.838,0,0,1,.833-7.031c.023-.071.041-.144.061-.221.01-.038.02-.076.03-.114a14.347,14.347,0,0,0,.074-5.738.665.665,0,0,1,1.275-.377,11.767,11.767,0,0,1,.268,3.619l3.938,3a3.327,3.327,0,0,0,4.763-.771L51.978,55.4l-2.731-2.079-4.288,4.741a1.477,1.477,0,0,1-1.047.49ZM21.859,57.192a1.7,1.7,0,1,1-1.7,1.7A1.7,1.7,0,0,1,21.859,57.192Zm0,2.9a1.2,1.2,0,1,0-1.2-1.2A1.2,1.2,0,0,0,21.859,60.094Z" transform="translate(0 -20.456)" fill="#1c3ffd"/>
    <path id="Path_34800" data-name="Path 34800" d="M26.414,26.667h2.953a7.434,7.434,0,0,0,10.2,0h2.718a.83.83,0,0,0,.768-1.137,10.444,10.444,0,0,1-.729-4.212,7.969,7.969,0,1,0-15.911,0,12.048,12.048,0,0,1-.774,4.23.831.831,0,0,0,.776,1.119Zm8.053,1.2a6.657,6.657,0,0,1-6.506-5.334C33.274,22.266,35.3,17.1,35.3,17.1a8.365,8.365,0,0,0,5.712,3.058,6.64,6.64,0,0,1-6.541,7.7Z" transform="translate(-7.423)" fill="#1c3ffd"/>
    <path id="Path_34800_-_Outline" data-name="Path 34800 - Outline" d="M34.467,28.942a7.678,7.678,0,0,1-5.2-2.025H26.414a1.062,1.062,0,0,1-.881-.458,1.089,1.089,0,0,1-.13-1,11.932,11.932,0,0,0,.759-4.133,8.219,8.219,0,1,1,16.41,0v.006a10.307,10.307,0,0,0,.713,4.1,1.09,1.09,0,0,1-.115,1.011,1.073,1.073,0,0,1-.886.467h-2.62A7.679,7.679,0,0,1,34.467,28.942Zm-.1-15.805A7.719,7.719,0,0,0,26.662,21.3a12.192,12.192,0,0,1-.789,4.33.581.581,0,0,0,.07.538.568.568,0,0,0,.471.245h3.052l.072.068a7.184,7.184,0,0,0,9.857,0l.072-.068h2.817a.565.565,0,0,0,.473-.249.582.582,0,0,0,.062-.547,10.627,10.627,0,0,1-.745-4.32,7.72,7.72,0,0,0-7.706-8.164Zm.1,14.976a6.907,6.907,0,0,1-6.751-5.535l-.057-.285.29-.014a7.628,7.628,0,0,0,5.485-2.728,9.646,9.646,0,0,0,1.63-2.541l.161-.41.27.348a8.046,8.046,0,0,0,5.536,2.963l.194.017.031.192a6.891,6.891,0,0,1-6.576,7.989v0Zm-6.2-5.354a6.409,6.409,0,0,0,6.162,4.854h.036a6.4,6.4,0,0,0,6.385-6.385,6.085,6.085,0,0,0-.062-.838,8.593,8.593,0,0,1-5.431-2.817,10.545,10.545,0,0,1-1.55,2.31A8.285,8.285,0,0,1,28.268,22.758Z" transform="translate(-7.423)" fill="#1c3ffd"/>
    <path id="Path_41300" data-name="Path 41300" d="M79.829,29.465h2.488v2.488a.829.829,0,0,0,.829.829h2.488a.829.829,0,0,0,.829-.829V29.465h2.488a.829.829,0,0,0,.829-.829V26.147a.829.829,0,0,0-.829-.829H86.465V22.829A.829.829,0,0,0,85.635,22H83.147a.829.829,0,0,0-.829.829v2.488H79.829a.829.829,0,0,0-.829.829v2.488A.829.829,0,0,0,79.829,29.465Z" transform="translate(-38.687 -5.334)" fill="#08ce73"/>
  </g>
</svg>
