<svg xmlns="http://www.w3.org/2000/svg" xmlns:xlink="http://www.w3.org/1999/xlink" width="700.462" height="240.013" viewBox="0 0 700.462 240.013"><defs><style>.a{fill:#f7f7f7;}.b{fill:#ebf3fa;opacity:0.6;}.c{fill:#dedede;}.d{fill:#c0d8fb;}.e{fill:#dfebfd;}.f{fill:#b7d3f3;}.g{fill:#cecece;}.h{fill:#122544;}.i{fill:#d2e3fc;}.j{fill:#11ad66;}.k{fill:#82b378;}.l{fill:#08ce73;}.m{fill:url(#a);}.n{fill:#ea9e6a;}.o{fill:#d88d59;}.p{fill:#b24940;}.q{fill:#c65447;}.r{fill:#f9ddbf;}.s{fill:#7c7c7c;}.t{fill:#676b71;}.u{fill:#9f9f9f;}</style><linearGradient id="a" x1="0.553" y1="0.938" x2="0.511" y2="0.402" gradientUnits="objectBoundingBox"><stop offset="0" stop-color="#1c8ef4"/><stop offset="1" stop-color="#00cfdd"/></linearGradient></defs><g transform="translate(-99.306 -451.504)"><g transform="translate(99.306 451.504)"><path class="a" d="M311.818,668.839V835.053l-156.341.7c.392-7.266-32.985-74.754,0-129.5,32.783-55.315,94.454-43.21,147.257-37.752A67.943,67.943,0,0,0,311.818,668.839Z" transform="translate(-89.194 -595.743)"/><path class="a" d="M1517.869,687.6c-.268,2.076-21.932-.335-22.233,1.708l-135.175.469H1058.4V524.6a107.114,107.114,0,0,0,11.619-.938c13.26-1.808,27.156-6.362,41.889-14.934,152.486-88.431,276.644-64.423,346.357,4.621a207.6,207.6,0,0,1,59.6,174.25Z" transform="translate(-835.779 -451.504)"/><path class="b" d="M1519.543,1355.977a208.532,208.532,0,0,1-1.674,27.323c-.268,2.076-21.932-.335-22.233,1.708l-135.175.468H1058.4v-.134l302.058-1.038,135.175-.469c.3-2.042,21.965.369,22.233-1.708A208.555,208.555,0,0,0,1519.543,1355.977Z" transform="translate(-835.779 -1146.032)"/><path class="c" d="M1498.536,734.805V861.123H1108.461V751.2h29.9v-30h29.9v40.529h24.207v-9.056h42.168v15.31h18.352V733.6h49.125V674.642h38.844v31.447h8.859V679.746h38.844v40.578h35.205v-24.9h37.652v24.9h7.02v14.482Z" transform="translate(-874.218 -622.847)"/><g transform="translate(89.041 115.756)"><rect class="d" width="40.477" height="39.269" rx="12.473"/><path class="e" d="M11.392,0H25.578A11.392,11.392,0,0,1,36.97,11.392V24.474A11.393,11.393,0,0,1,25.578,35.867H11.392A11.392,11.392,0,0,1,0,24.475V11.392A11.392,11.392,0,0,1,11.392,0Z" transform="translate(1.753 1.701)"/><g transform="translate(4.779 4.447)"><g transform="translate(14.621)"><circle class="f" cx="0.838" cy="0.838" r="0.838"/><path class="f" d="M815,838.787a.838.838,0,1,1,.325,1.14A.838.838,0,0,1,815,838.787Z" transform="translate(-808.233 -836.763)"/><path class="f" d="M839.05,859.61a.838.838,0,1,1-.25,1.159A.838.838,0,0,1,839.05,859.61Z" transform="translate(-826.487 -852.981)"/><circle class="f" cx="0.838" cy="0.838" r="0.838" transform="translate(14.339 15.051) rotate(-67.621)"/><path class="f" d="M841.638,925.583a.838.838,0,1,1-1.186,0A.838.838,0,0,1,841.638,925.583Z" transform="translate(-827.671 -903.555)"/><circle class="f" cx="0.838" cy="0.838" r="0.838" transform="translate(7.271 27.061)"/><circle class="f" cx="0.838" cy="0.838" r="0.838" transform="translate(0 29.189)"/></g><g transform="translate(0 1.592)"><path class="f" d="M758.963,838.787a.838.838,0,1,0-.325,1.14A.838.838,0,0,0,758.963,838.787Z" transform="translate(-749.458 -838.356)"/><path class="f" d="M734.913,859.61a.839.839,0,1,0,.25,1.159A.839.839,0,0,0,734.913,859.61Z" transform="translate(-731.204 -854.574)"/><circle class="f" cx="0.838" cy="0.838" r="0.838" transform="translate(0 12.164)"/><path class="f" d="M732.325,925.583a.838.838,0,1,0,1.186,0A.839.839,0,0,0,732.325,925.583Z" transform="translate(-730.021 -905.148)"/><circle class="f" cx="0.838" cy="0.838" r="0.838" transform="translate(7.324 25.469)"/></g></g><g transform="translate(20.013 8.567)"><circle class="f" cx="0.838" cy="0.838" r="0.838" transform="translate(0 9.636)"/><g transform="translate(0.724)"><rect class="f" width="0.229" height="10.475"/></g><g transform="translate(0.521 5.83)"><rect class="f" width="7.06" height="0.687" transform="translate(0 4.36) rotate(-38.137)"/></g></g></g><path class="c" d="M1031.57,762.372V927.618h-23.243V762.966A106.26,106.26,0,0,0,1031.57,762.372Z" transform="translate(-797.327 -690.214)"/><path class="c" d="M2804.31,745.4V893.5h-23.243V717.938A205.732,205.732,0,0,1,2804.31,745.4Z" transform="translate(-2158.582 -656.094)"/><path class="g" d="M1.506,0h697.45a1.506,1.506,0,0,1,1.506,1.506v0a1.506,1.506,0,0,1-1.506,1.506H1.506A1.506,1.506,0,0,1,0,1.506v0A1.506,1.506,0,0,1,1.506,0Z" transform="translate(0 236.766)"/><g transform="translate(198.557 27.058)"><path class="f" d="M1181.521,1222.994h-7.02l8.6,108.8h17.075Z" transform="translate(-1174.501 -1122.486)"/><g transform="translate(0)"><path class="h" d="M1486.749,1108.48l-1.506.3a12.483,12.483,0,0,1-14.665-9.735l-1.592-7.877a12.484,12.484,0,0,1,9.735-14.666l1.506-.3a12.483,12.483,0,0,1,14.666,9.735l1.592,7.877A12.483,12.483,0,0,1,1486.749,1108.48Z" transform="translate(-1340.126 -1039.72)"/><path class="f" d="M1174.5,1209.945s38.336-18,90.861-6.023l-83.842,6.023Z" transform="translate(-1174.502 -1109.438)"/><path class="i" d="M1209.213,1321.542,1190.561,1211.7s58.739-19.726,104.311,0l27.108,109.146Z" transform="translate(-1183.541 -1111.196)"/><g transform="translate(342.066 157.234)"><path class="j" d="M2058.523,1371.871c-1.042,11.917-7.772,15.6-10.73,15.279s-20.266-6.923-20.641-4.5,10.04,10.346,17.334,10.716c0,0-13.773,15.19-22.926,10.806s-9.934-11.332-15.641-13.938-10.576-2.6-8.221.06,12.683,5.24,15.945,11.013c.77,1.361,1.523,2.62,2.1,3.728l-19.273-.039c-6.111-3.036-11.259-7.225-11.643-11.74-.03-.345-.057-.675-.083-.989l-.594-6.947s-9.9-11.544-4.751-21.122a14.638,14.638,0,0,1,3.921-4.55s9.223-5.585,16.745-5.129c0,0-5.828,9.773-7.469,15.581-.58,2.047-.637,3.6.26,4.065.982.508,2.254-.967,3.57-3.331,3.3-5.921,6.868-17.437,6.868-17.437s5.545-.538,11.857-.619c2.831-.036,5.817.019,8.524.256a22.941,22.941,0,0,1,7.36,1.575s-.377.308-1.009.837c-.941.789-2.45,2.068-4.127,3.552-4.977,4.4-11.445,10.61-9.027,11.169,1.957.453,8.1-3.2,13.568-6.819,5.09-3.37,9.592-6.719,9.592-6.719S2059.565,1359.954,2058.523,1371.871Z" transform="translate(-1968.801 -1352.769)"/><g transform="translate(0 19.331)"><path class="k" d="M2041.747,1397.086s-53.059-2.045-64.776,13.129a38.381,38.381,0,0,1-10.565,14.829l-1.243,3.387s9.194-9.695,12.484-10.281C1977.646,1418.151,1972.5,1399.351,2041.747,1397.086Z" transform="translate(-1961.623 -1396.994)"/><path class="k" d="M1964.077,1459.36c-.455.5-1.136,1.177-2.111,2.077l-.021.021c-.338.312-.667.651-.987,1.009a19.564,19.564,0,0,0-1.415,1.776l-2.478,0a29.741,29.741,0,0,1,4.781-4.791l.007,0C1962.047,1459.325,1966.617,1456.562,1964.077,1459.36Z" transform="translate(-1957.065 -1431.397)"/></g></g><g transform="translate(220.972 114.608)"><path class="j" d="M1758.551,1310.687s21.407-11.988,11.417-28.256c0,0-7.991-9.99-16.554-12.559,0,0,4.567,24.261,0,24.832s-3.14-27.4-3.14-27.4-22.548-10.845-31.4-9.99c0,0,13.986,23.69,9.419,23.119s-20.265-24.546-20.265-24.546-23.119-4.281-26.83,9.419,2.284,20.55,5.709,21.406,25.4.571,24.831,3.425-15.413,7.421-23.69,4.852c0,0,9.133,22.548,21.121,21.407s15.7-8.563,23.12-9.134,12.844,1.427,9.134,3.425-16.269.655-22.263,5.75-10.846,8.235.286,10.519,31.111.856,35.106-7.707Z" transform="translate(-1680.031 -1255.252)"/><g transform="translate(11.731 14.334)"><path class="k" d="M1706.869,1288.044s59.939,19.409,66.789,41.1a45.535,45.535,0,0,0,5.709,20.836v4.282s-6.28-14.557-9.7-16.554C1769.662,1337.708,1783.077,1318.87,1706.869,1288.044Z" transform="translate(-1706.869 -1288.044)"/><path class="k" d="M1874.59,1444.8l-3.425-.007c-.108-4.954-.681-10.516-2.371-14.753v0c-.212-.531-.439-1.039-.688-1.525l-.007-.016c-.711-1.391-1.191-2.417-1.5-3.16l0,0c-1.752-4.3,2.437.98,2.437.98A40.176,40.176,0,0,1,1874.59,1444.8Z" transform="translate(-1796.54 -1364.372)"/></g></g><g transform="translate(314.997 80.437)"><path class="l" d="M1913.69,1250.15s-28.218-15.8-15.05-37.248c0,0,10.535-13.168,21.822-16.554,0,0-6.02,31.98,0,32.733s4.139-36.119,4.139-36.119,29.723-14.3,41.386-13.168c0,0-18.436,31.227-12.416,30.475s26.714-32.357,26.714-32.357,30.474-5.644,35.366,12.416-3.01,27.089-7.525,28.218-33.485.753-32.733,4.515,20.317,9.782,31.228,6.4c0,0-12.04,29.723-27.842,28.218s-20.694-11.287-30.475-12.04-16.931,1.881-12.04,4.515,21.446.864,29.347,7.581,14.3,10.856-.377,13.865-41.01,1.129-46.277-10.159Z" transform="translate(-1895.139 -1177.077)"/><g transform="translate(3.648 18.894)"><path class="k" d="M2015.929,1220.3s-79.01,25.584-88.04,54.178c0,0,.376,12.792-7.525,27.466v5.644s8.278-19.188,12.792-21.822C1933.156,1285.768,1915.473,1260.937,2015.929,1220.3Z" transform="translate(-1912.986 -1220.303)"/><path class="k" d="M1914.076,1401.262c0,.005,0,.007,0,.01-.4.982-1.034,2.339-1.973,4.177,0,0,0,.007-.007.012-.326.637-.626,1.309-.9,2.006,0,0,0,0,0,0-2.7,6.779-3.241,16.134-3.14,23.506l-4.533-.01a53.044,53.044,0,0,1,7.351-28.406l0,0C1910.985,1402.408,1916.356,1395.673,1914.076,1401.262Z" transform="translate(-1903.485 -1320.917)"/></g></g><path class="m" d="M.2,125.293a6.127,6.127,0,0,1,.077-3.4c3.016-7.62,8.9-20.163,15.683-33.62,4.988-9.9,10.453-20.3,15.613-29.6,7.165-12.911,13.729-23.71,17.585-28.14a45.671,45.671,0,0,1,10.879-8.816,76.688,76.688,0,0,1,10.149-5.069v-.006c.227-.1.46-.189.688-.282,5.692-2.389,11.151-4.446,16.382-6.228a.31.31,0,0,0,.044-.01q6.6-2.25,12.705-3.911a185.555,185.555,0,0,1,19.984-4.36A146.222,146.222,0,0,1,139.716.033c.266-.011.526-.011.791-.015q2.331-.042,4.516.01c14.693.314,24.468,3.238,29.413,5.189.688.27,1.278.525,1.77.752.066.027.13.055.2.081l.074.033c.435.184.848.379,1.234.585a.673.673,0,0,1,.091.049l.094.052c.118.064.232.13.343.2v0c6.662,4.043,44.693,74.082,49.777,75.931s65.344,5.3,72.242,8.578c0,0,6.936,11.241-3.808,16.232s-74.714,9.183-80.857,7.413c-3.151-.91-16.338-12.524-29.6-26.813l-.011-.008h0l3.52,36.989H.2ZM71.669,79.01c-1.6,1.874-3.369,3.889-5.226,5.963-10.555,11.823-23.92,25.708-25.551,27.4-.113.114-.167.174-.167.174h.194l28.357.4,8.7.12h0a208.058,208.058,0,0,1-6.3-34.048Z" transform="translate(3.564 84.362)"/><path class="n" d="M1451.8,1163.2l-.016,3.961s1.1,12.385-14.152,14.217-26.815-4.789-26.416-14.348c1.362-7.4,2.862-12.487,2.955-18.611a43.1,43.1,0,0,0-.553-7.417l29.555-.635,8.707,1.409Z" transform="translate(-1307.741 -1075.976)"/><path class="o" d="M1454.985,1142.594l-.08,21.424a24.986,24.986,0,0,1-10.649,2.367c-13.584.021-27.1-21.839-27.532-24.565Z" transform="translate(-1310.846 -1076.795)"/><path class="n" d="M1447.529,1086.976s-37.841,7.7-42.276-15.934-12.307-38.565,11.666-44.484,30.373,2.218,33.773,9.748S1457.258,1084.362,1447.529,1086.976Z" transform="translate(-1301.649 -1010.768)"/><path d="M1444.573,1001.016a79.367,79.367,0,0,1-23.016-6.19c-10.111-4.378-22.853.48-26.988,2.667a6.156,6.156,0,0,1,1.006-2.491,5.554,5.554,0,0,0-2.128,3.162c-.19.142-.276.239-.227.271a7.115,7.115,0,0,0-3.459.23s.947-.137,1.286.471a.569.569,0,0,0,.152.167c-15.751,7.641-17.168,32.555-12.088,38.311,6.114,6.926,13.455,22.532,13.455,22.532s2.663-3.693,1.544-9.795,4.152-6.109,10.8-8.894,1.093-10.543,6.912-15.268,27.182-1.983,26.9-5.59C1446.652,1017.7,1444.573,1001.827,1444.573,1001.016Z" transform="translate(-1288.197 -993.057)"/><path class="m" d="M1357.054,1406.6a114.158,114.158,0,0,1-4.2-12.234,208.208,208.208,0,0,1-6.3-34.049c-.016-.146-.032-.3-.049-.444.081.038.215.258.3.152,4.18-5.076,15.586-10.63,29.4,9.592,2.756,4.029,14.844,32.265,16.773,36.982Z" transform="translate(-1271.32 -1196.942)"/><path class="n" d="M1396.163,1455.309a11.492,11.492,0,0,1,1.457-6.986s1.771-1.149,4.122-2.486c3.5-1.977,8.3-4.37,10.468-3.986.39.071.915.184,1.538.336,5.15,1.235,17.157,4.933,18.971,7.1,1.495,1.782,3.531,4.051,4.934,6.022Z" transform="translate(-1299.214 -1245.656)"/><path class="m" d="M1718.613,1404.88c-10.753,4.993-74.713,9.183-80.857,7.414-3.15-.91-16.337-12.524-29.6-26.813.655.087,6.721-10.026,34.384,14.173,0,0,7.245,3.224,26.96,1.419S1714.531,1398.6,1718.613,1404.88Z" transform="translate(-1418.599 -1212.809)"/><g transform="translate(164.061 129.826)"><path class="p" d="M1622.952,1464.745h-73.118a5.829,5.829,0,0,1,5.828-5.828h67.29Z" transform="translate(-1549.834 -1385.11)"/><path class="p" d="M1680.769,1290.07h113.047L1766.7,1369.7H1652.92Z" transform="translate(-1607.86 -1290.069)"/><path class="q" d="M1797.623,1290.067l-27.115,79.634h-113.78l27.849-79.634Z" transform="translate(-1610.004 -1290.067)"/><path class="r" d="M1825.251,1372.381a7.35,7.35,0,0,1-6.781,5.509,4.242,4.242,0,0,1-4.237-5.509,7.35,7.35,0,0,1,6.781-5.509A4.242,4.242,0,0,1,1825.251,1372.381Z" transform="translate(-1698.58 -1333.3)"/><path class="p" d="M1875.983,1290.067l-27.115,79.634h-52.929l63.4-79.634Z" transform="translate(-1688.364 -1290.067)"/></g><path class="s" d="M1413.489,1108.48l-1.507.3a12.484,12.484,0,0,1-14.666-9.735l-1.591-7.877a12.483,12.483,0,0,1,9.735-14.666l1.506-.3a12.484,12.484,0,0,1,14.666,9.735l1.591,7.877A12.484,12.484,0,0,1,1413.489,1108.48Z" transform="translate(-1298.888 -1039.72)"/><g transform="translate(101.755 0)"><path class="t" d="M1408.412,1033.449c-1.009-1.822-2.49-16.483,1.54-28.156A18.707,18.707,0,0,1,1419,994.261a9.684,9.684,0,0,1,4.661-1.2l3.971.066c-13.077,5.536-16.108,35.157-15.09,38.316a1.2,1.2,0,0,0-.1-.22Z" transform="translate(-1407.292 -993.057)"/></g><g transform="translate(108.075 52.48)"><path class="h" d="M1454.716,1131.865c-21.978,0-32.855-17.368-32.964-17.544l1.965-1.2-.982.6.981-.6c.1.165,10.346,16.444,31,16.444l.415,0,.024,2.3Z" transform="translate(-1421.752 -1113.119)"/></g><path class="u" d="M1417.02,1111.851l-.751.152a6.22,6.22,0,0,1-7.307-4.85l-.793-3.925a6.22,6.22,0,0,1,4.851-7.307l.75-.151a6.22,6.22,0,0,1,7.307,4.85l.793,3.925A6.219,6.219,0,0,1,1417.02,1111.851Z" transform="translate(-1305.962 -1050.803)"/><path class="h" d="M1498.274,1152.815H1496.2a1.925,1.925,0,0,1-1.919-1.919h0a1.925,1.925,0,0,1,1.919-1.919h2.073a1.925,1.925,0,0,1,1.919,1.919h0A1.925,1.925,0,0,1,1498.274,1152.815Z" transform="translate(-1354.503 -1080.823)"/></g></g></g></g></svg>