<svg xmlns="http://www.w3.org/2000/svg" width="97.59" height="23" viewBox="0 0 97.59 23">
  <g id="Credit_Card" data-name="Credit Card" transform="translate(2859 13927)">
    <path id="Path_23144" data-name="Path 23144" d="M8.606-3.24A3.594,3.594,0,0,1,7.431-.755,4.008,4.008,0,0,1,4.7.137a3.881,3.881,0,0,1-2.1-.564,3.7,3.7,0,0,1-1.4-1.6A5.785,5.785,0,0,1,.7-4.443v-.93a5.827,5.827,0,0,1,.5-2.481A3.761,3.761,0,0,1,2.628-9.509a4,4,0,0,1,2.157-.581,3.838,3.838,0,0,1,2.652.9A3.741,3.741,0,0,1,8.606-6.665H6.884a2.459,2.459,0,0,0-.625-1.548,2.067,2.067,0,0,0-1.473-.475,2.02,2.02,0,0,0-1.733.824,4.114,4.114,0,0,0-.619,2.417v.882a4.364,4.364,0,0,0,.578,2.461A1.917,1.917,0,0,0,4.7-1.258a2.236,2.236,0,0,0,1.531-.458A2.388,2.388,0,0,0,6.884-3.24Zm5.257-2.639a4.111,4.111,0,0,0-.677-.055,1.524,1.524,0,0,0-1.538.875V0H9.987V-7.4h1.586l.041.827a1.872,1.872,0,0,1,1.668-.964,1.555,1.555,0,0,1,.588.1ZM18.04.137a3.437,3.437,0,0,1-2.56-.995A3.608,3.608,0,0,1,14.5-3.507v-.205a4.438,4.438,0,0,1,.427-1.979,3.252,3.252,0,0,1,1.2-1.357,3.172,3.172,0,0,1,1.723-.485,2.9,2.9,0,0,1,2.334.964,4.076,4.076,0,0,1,.824,2.728v.67H16.174a2.221,2.221,0,0,0,.612,1.449,1.837,1.837,0,0,0,1.35.533A2.249,2.249,0,0,0,20-2.112l.9.854A2.99,2.99,0,0,1,19.7-.229,3.713,3.713,0,0,1,18.04.137Zm-.2-6.337a1.4,1.4,0,0,0-1.1.479A2.48,2.48,0,0,0,16.2-4.389h3.165v-.123a2.019,2.019,0,0,0-.444-1.261A1.388,1.388,0,0,0,17.842-6.2Zm4.143,2.447A4.4,4.4,0,0,1,22.777-6.5,2.541,2.541,0,0,1,24.9-7.533a2.414,2.414,0,0,1,1.9.82V-10.5h1.661V0h-1.5l-.082-.766a2.449,2.449,0,0,1-1.989.9,2.527,2.527,0,0,1-2.1-1.046A4.558,4.558,0,0,1,21.984-3.753Zm1.661.144a3.079,3.079,0,0,0,.434,1.76,1.408,1.408,0,0,0,1.234.632,1.569,1.569,0,0,0,1.49-.909V-5.284a1.545,1.545,0,0,0-1.477-.889,1.419,1.419,0,0,0-1.244.639A3.429,3.429,0,0,0,23.646-3.609ZM31.965,0H30.3V-7.4h1.661ZM30.2-9.317a.882.882,0,0,1,.243-.636.917.917,0,0,1,.694-.253.928.928,0,0,1,.7.253.875.875,0,0,1,.246.636.855.855,0,0,1-.246.625.935.935,0,0,1-.7.25.924.924,0,0,1-.694-.25A.861.861,0,0,1,30.2-9.317Zm5.653.123v1.8H37.16v1.23H35.854v4.129a.909.909,0,0,0,.167.612.777.777,0,0,0,.6.188,2.559,2.559,0,0,0,.581-.068V-.021a4.091,4.091,0,0,1-1.094.157q-1.914,0-1.914-2.112v-4.19H32.977V-7.4h1.217v-1.8ZM49.67-3.24A3.594,3.594,0,0,1,48.494-.755a4.008,4.008,0,0,1-2.728.892,3.881,3.881,0,0,1-2.1-.564,3.7,3.7,0,0,1-1.4-1.6,5.785,5.785,0,0,1-.513-2.413v-.93a5.827,5.827,0,0,1,.5-2.481,3.761,3.761,0,0,1,1.432-1.654,4,4,0,0,1,2.157-.581,3.838,3.838,0,0,1,2.652.9A3.741,3.741,0,0,1,49.67-6.665H47.947a2.459,2.459,0,0,0-.625-1.548,2.067,2.067,0,0,0-1.473-.475,2.02,2.02,0,0,0-1.733.824A4.114,4.114,0,0,0,43.5-5.448v.882a4.364,4.364,0,0,0,.578,2.461,1.917,1.917,0,0,0,1.692.848A2.236,2.236,0,0,0,47.3-1.716a2.388,2.388,0,0,0,.649-1.524ZM55.474,0a2.564,2.564,0,0,1-.191-.69,2.586,2.586,0,0,1-1.941.827A2.61,2.61,0,0,1,51.522-.5a2.034,2.034,0,0,1-.7-1.572A2.1,2.1,0,0,1,51.7-3.886a4.257,4.257,0,0,1,2.512-.632h1.019V-5a1.3,1.3,0,0,0-.321-.919,1.274,1.274,0,0,0-.978-.345,1.463,1.463,0,0,0-.93.284.878.878,0,0,0-.362.721H50.976a1.844,1.844,0,0,1,.4-1.138,2.687,2.687,0,0,1,1.1-.831,3.854,3.854,0,0,1,1.548-.3A3.1,3.1,0,0,1,56.1-6.88a2.328,2.328,0,0,1,.793,1.835v3.336a3.781,3.781,0,0,0,.28,1.593V0ZM53.648-1.2a1.89,1.89,0,0,0,.926-.239,1.6,1.6,0,0,0,.653-.643V-3.473h-.9a2.449,2.449,0,0,0-1.388.321,1.041,1.041,0,0,0-.465.909.971.971,0,0,0,.318.762A1.231,1.231,0,0,0,53.648-1.2ZM62.5-5.879a4.111,4.111,0,0,0-.677-.055,1.524,1.524,0,0,0-1.538.875V0H58.625V-7.4h1.586l.041.827a1.872,1.872,0,0,1,1.668-.964,1.555,1.555,0,0,1,.588.1Zm.608,2.126A4.4,4.4,0,0,1,63.9-6.5a2.541,2.541,0,0,1,2.126-1.036,2.414,2.414,0,0,1,1.9.82V-10.5H69.59V0h-1.5L68-.766a2.449,2.449,0,0,1-1.989.9,2.527,2.527,0,0,1-2.1-1.046A4.558,4.558,0,0,1,63.109-3.753Zm1.661.144a3.079,3.079,0,0,0,.434,1.76,1.408,1.408,0,0,0,1.234.632,1.569,1.569,0,0,0,1.49-.909V-5.284a1.545,1.545,0,0,0-1.477-.889,1.419,1.419,0,0,0-1.244.639A3.429,3.429,0,0,0,64.771-3.609Z" transform="translate(-2831 -13910)" fill="#343a40"/>
    <circle id="Ellipse_934" data-name="Ellipse 934" cx="11.5" cy="11.5" r="11.5" transform="translate(-2859 -13927)" fill="#b9b9b9"/>
    <g id="credit-card" transform="translate(-2854 -13992)">
      <g id="Group_14937" data-name="Group 14937" transform="translate(0 72)">
        <path id="Path_23151" data-name="Path 23151" d="M12.75,72H1.08A1.082,1.082,0,0,0,0,73.08V80.86a1.082,1.082,0,0,0,1.08,1.08H12.75a1.082,1.082,0,0,0,1.08-1.08V73.08A1.082,1.082,0,0,0,12.75,72Z" transform="translate(0 -72)" fill="#5d647f"/>
      </g>
      <g id="Group_14938" data-name="Group 14938" transform="translate(1.478 73.817)">
        <path id="Path_23152" data-name="Path 23152" d="M66.587,138.217H64.37a.37.37,0,0,1-.37-.37V136.37a.37.37,0,0,1,.37-.37h2.217a.37.37,0,0,1,.37.37v1.478A.37.37,0,0,1,66.587,138.217Z" transform="translate(-64 -136)" fill="#ffd100"/>
      </g>
      <g id="Group_14943" data-name="Group 14943" transform="translate(1.478 78.158)">
        <g id="Group_14939" data-name="Group 14939">
          <path id="Path_23153" data-name="Path 23153" d="M65.293,296.924H64.37a.37.37,0,0,1-.37-.37v-.185a.37.37,0,0,1,.37-.37h.924a.37.37,0,0,1,.37.37v.185A.37.37,0,0,1,65.293,296.924Z" transform="translate(-64 -296)" fill="#b8bac0"/>
        </g>
        <g id="Group_14940" data-name="Group 14940" transform="translate(3.07)">
          <path id="Path_23154" data-name="Path 23154" d="M169.293,296.924h-.924a.37.37,0,0,1-.37-.37v-.185a.37.37,0,0,1,.37-.37h.924a.37.37,0,0,1,.37.37v.185A.37.37,0,0,1,169.293,296.924Z" transform="translate(-168 -296)" fill="#b8bac0"/>
        </g>
        <g id="Group_14941" data-name="Group 14941" transform="translate(6.141)">
          <path id="Path_23155" data-name="Path 23155" d="M273.293,296.924h-.924a.37.37,0,0,1-.37-.37v-.185a.37.37,0,0,1,.37-.37h.924a.37.37,0,0,1,.37.37v.185A.37.37,0,0,1,273.293,296.924Z" transform="translate(-272 -296)" fill="#b8bac0"/>
        </g>
        <g id="Group_14942" data-name="Group 14942" transform="translate(9.211)">
          <path id="Path_23156" data-name="Path 23156" d="M377.293,296.924h-.924a.369.369,0,0,1-.37-.37v-.185a.37.37,0,0,1,.37-.37h.924a.37.37,0,0,1,.37.37v.185A.369.369,0,0,1,377.293,296.924Z" transform="translate(-376 -296)" fill="#b8bac0"/>
        </g>
      </g>
      <g id="Group_14945" data-name="Group 14945" transform="translate(1.478 80.277)">
        <g id="Group_14944" data-name="Group 14944">
          <path id="Path_23157" data-name="Path 23157" d="M67.88,368.37h-3.7a.185.185,0,1,1,0-.37h3.7a.185.185,0,1,1,0,.37Z" transform="translate(-64 -368)" fill="#8a8895"/>
        </g>
      </g>
      <g id="Group_14947" data-name="Group 14947" transform="translate(7.123 80.277)">
        <g id="Group_14946" data-name="Group 14946">
          <path id="Path_23158" data-name="Path 23158" d="M257.848,368.37h-1.663a.185.185,0,0,1,0-.37h1.663a.185.185,0,0,1,0,.37Z" transform="translate(-256 -368)" fill="#8a8895"/>
        </g>
      </g>
      <g id="Group_14948" data-name="Group 14948" transform="translate(8.13 73.806)">
        <path id="Path_23159" data-name="Path 23159" d="M286.012,137.667a1.033,1.033,0,0,1-.764.333,1,1,0,1,1,0-2,1.033,1.033,0,0,1,.763.333" transform="translate(-284.224 -136)" fill="#ff4f19"/>
      </g>
      <g id="Group_14949" data-name="Group 14949" transform="translate(2.68 73.817)">
        <path id="Path_23160" data-name="Path 23160" d="M98.217,137.293H96.37v-.37h1.848v-.37H96.37V136H96v2.217h.37v-.554h1.848Z" transform="translate(-96 -136)" fill="#ff9500"/>
      </g>
      <g id="Group_14950" data-name="Group 14950" transform="translate(9.632 73.833)">
        <circle id="Ellipse_935" data-name="Ellipse 935" cx="1" cy="1" r="1" fill="#ffd100"/>
      </g>
    </g>
  </g>
</svg>
