<svg xmlns="http://www.w3.org/2000/svg" xmlns:xlink="http://www.w3.org/1999/xlink" width="48" height="48" viewBox="0 0 48 48">
  <defs>
    <clipPath id="clip-path">
      <rect id="Rectangle_9235" data-name="Rectangle 9235" width="48" height="48" transform="translate(414 6041)" fill="#fff"/>
    </clipPath>
  </defs>
  <g id="ct-scan-icn" transform="translate(-414 -6041)" clip-path="url(#clip-path)">
    <g id="ct-scan-icn-2" data-name="ct-scan-icn">
      <g id="Ellipse_1248" data-name="Ellipse 1248" transform="translate(416 6043)" fill="none" stroke="#6c757d" stroke-width="1.25">
        <circle cx="22" cy="22" r="22" stroke="none"/>
        <circle cx="22" cy="22" r="21.375" fill="none"/>
      </g>
      <g id="Group_27881" data-name="Group 27881">
        <path id="noun-ct-scan-695624-404040" d="M35.914,18.362A17.54,17.54,0,0,0,20.8,44.826a.588.588,0,0,0,.084.141,17.648,17.648,0,0,0,1.827,2.49v.034A17.547,17.547,0,1,0,35.915,18.362ZM21.352,43.224a.557.557,0,0,0-.118.062A16.381,16.381,0,0,1,23.061,25.71a9.949,9.949,0,0,1,2.4,4.739,1.489,1.489,0,0,0,1.457,1.186h.124a2.509,2.509,0,0,0,2.2-1.41,2.543,2.543,0,0,1,1.719-1.3l4.6-1.03h0a1.038,1.038,0,0,0,.8-1.007v-.719a.367.367,0,0,1,.148-.3.355.355,0,0,1,.319-.055l.444.118c2.958.793,5.751,1.546,7.213,4.289a8.151,8.151,0,0,1-.949,8.957c-1.862,2.109-4.684,2.647-7.747,1.474l0,0a11.06,11.06,0,0,1-3.936-2.642c-.563-.563-1.18-1.232-1.687-1.81a2.367,2.367,0,0,0-1.855-.884H27.087a1.518,1.518,0,0,0-1.477,1.259c-.528,3.047-1.968,5.509-3.79,6.438a2.018,2.018,0,0,1-.467.214Zm1.017,1.985c-.032-.045.9,1.264,1.012,1.321-.009-.02-.7-.872-1.012-1.333Zm13.545,7.134a16.368,16.368,0,0,1-11.487-4.7c.093-.046-2.275-3.6-2.248-3.569l.136-.067c2.141-1.084,3.773-3.79,4.363-7.225h0a.4.4,0,0,1,.371-.333H28.3a1.257,1.257,0,0,1,.99.474c.523.613,1.124,1.282,1.743,1.884l0,0a12.176,12.176,0,0,0,4.324,2.9c3.526,1.349,6.8.7,9-1.783A9.182,9.182,0,0,0,45.473,29.7c-1.687-3.176-4.852-4.03-7.91-4.852l-.432-.118h0a1.489,1.489,0,0,0-1.894,1.434v.647l-4.5,1.007,0,0a3.667,3.667,0,0,0-2.484,1.918,1.4,1.4,0,0,1-1.21.8h-.124a.378.378,0,0,1-.365-.314,11.075,11.075,0,0,0-2.716-5.309.636.636,0,0,0-.055-.039A16.428,16.428,0,1,1,35.914,52.343Z" transform="translate(402.086 6029.085)" fill="#6c757d" stroke="#6c757d" stroke-width="0.35"/>
        <path id="noun-ct-scan-695624-404040-2" data-name="noun-ct-scan-695624-404040" d="M22.9,47.908H43.29a.638.638,0,1,1,0,1.272h-19.5c0-.026-.906-1.194-.893-1.283Zm.644,2.342H43.28a1.72,1.72,0,1,0,0-3.435l-22.168.078C21.091,46.872,23.5,50.226,23.544,50.249Z" transform="translate(402.402 6026.411)" fill="#08ce73"/>
        <path id="noun-ct-scan-695624-404040-3" data-name="noun-ct-scan-695624-404040" d="M36.182,37.277a.058.058,0,0,1-.027-.05c.039-.185.079-.371.118-.563h.067l1.81.393a1.256,1.256,0,0,1,.793.474,1.9,1.9,0,0,1,.163.309c.057.124.106.247.163.365a.072.072,0,0,1,0,.089,1.279,1.279,0,0,1-.613.479l-.084.034v0a.174.174,0,0,0,.129.321,1.62,1.62,0,0,0,.753-.516l.034-.045v0a1.688,1.688,0,0,0,1.253.451v.2a1.639,1.639,0,0,0,.276.758.173.173,0,0,0,.257.082.172.172,0,0,0,.029-.268A1.289,1.289,0,0,1,41.141,39a.08.08,0,0,1,.039-.057,1.638,1.638,0,0,0,1.052-1.023.99.99,0,0,1,.383.213c.089.084.168.18.252.269v0a.456.456,0,0,0,.1.089.163.163,0,0,0,.18-.057.17.17,0,0,0,0-.2,1.626,1.626,0,0,0-.782-.635l-.074-.027h0a1.248,1.248,0,0,1,.422-.563,1.273,1.273,0,0,1,1.035-.252.188.188,0,0,0,.23-.1.17.17,0,0,0-.007-.144.166.166,0,0,0-.117-.086.712.712,0,0,1-.281-.039.1.1,0,0,1-.067-.046,1.291,1.291,0,0,1,.393-1.625l.062-.045A.175.175,0,0,0,44,34.437a.165.165,0,0,0-.237-.033c-.1.074-.185.151-.276.225l-.045.045c-.106.118-.106.118-.252.05a1.289,1.289,0,0,1-.664-.781c.151-.1.3-.18.432-.276h0a1.416,1.416,0,0,0,.388-.45.164.164,0,0,0,.024-.132.17.17,0,0,0-.081-.11.166.166,0,0,0-.13-.019.175.175,0,0,0-.106.081,1.325,1.325,0,0,1-.494.489l-.118.062a1.048,1.048,0,0,1,.045-.377l0,0a1.635,1.635,0,0,0-.2-1.18.177.177,0,0,0-.1-.108.174.174,0,0,0-.151.014.175.175,0,0,0-.038.268,1.315,1.315,0,0,1,.153.98,1.64,1.64,0,0,0,1,1.855h.05a1.661,1.661,0,0,0-.01,1.338,1.67,1.67,0,0,0-.691.331,1.656,1.656,0,0,0-.743-.516,1.986,1.986,0,0,1,.079-.36,1.545,1.545,0,0,0-.045-.691.171.171,0,0,0-.209-.118.169.169,0,0,0-.117.208,1.357,1.357,0,0,1,0,.793.118.118,0,0,1-.05.074.108.108,0,0,1-.086.017,1.593,1.593,0,0,0-.921.23.169.169,0,0,0-.091.2.163.163,0,0,0,.168.124.235.235,0,0,0,.1-.045,1.3,1.3,0,0,1,.968-.141,1.273,1.273,0,0,1,.726.472,1.8,1.8,0,0,0-.333.7,1.285,1.285,0,0,1-1.438.99h-.084c0-.074.057-.141.079-.214h0a1.576,1.576,0,0,0,.069-.788.176.176,0,0,0-.192-.163.165.165,0,0,0-.12.072.169.169,0,0,0-.026.137,1.292,1.292,0,0,1-.118.781l-.027.05v0a.89.89,0,0,1-.3-.2,1.3,1.3,0,0,1-.321-.523,1.5,1.5,0,0,0-.467-.709,1.685,1.685,0,0,0-.714-.338l-1.832-.4h-.089l.124-.563h.084c.563.118,1.124.264,1.687.353v0a1.548,1.548,0,0,0,1.6-.64A1.865,1.865,0,0,1,40.4,35a1.01,1.01,0,0,0-.062-.214,1.6,1.6,0,0,1,.4-1.529.1.1,0,0,0,0-.118,1.686,1.686,0,1,1,3.2-.9.126.126,0,0,0,.057.072,1.627,1.627,0,0,1,.861,1.867.091.091,0,0,0,0,.1,1.633,1.633,0,0,1,.062,2.092.091.091,0,0,0,0,.1,1.617,1.617,0,0,1-.563,1.839.1.1,0,0,0-.045.089,1.625,1.625,0,0,1-1.237,1.563.154.154,0,0,0-.084.062,1.63,1.63,0,0,1-1.738.753,2.086,2.086,0,0,1-.353-.118.144.144,0,0,0-.113,0,1.622,1.622,0,0,1-1.906-.528.232.232,0,0,0-.094-.062,1.607,1.607,0,0,1-.963-.887c-.067-.175-.106-.276-.151-.4a2.425,2.425,0,0,0-1.3-1.412Z" transform="translate(400.232 6027.684)" fill="#e71c37"/>
      </g>
    </g>
  </g>
</svg>
