<svg xmlns="http://www.w3.org/2000/svg" width="204.931" height="180" viewBox="0 0 204.931 180">
  <g id="Current_location" data-name="Current location" transform="translate(-17.75 -48.58)">
    <g id="freepik--background-complete--inject-35" transform="translate(32.649 48.58)">
      <rect id="Rectangle_12427" data-name="Rectangle 12427" width="21.172" height="67.104" transform="translate(32.96 15.01)" fill="#f5f5f5"/>
      <rect id="Rectangle_12428" data-name="Rectangle 12428" width="10.586" height="66.92" transform="translate(43.546 15.01)" fill="#ebebeb"/>
      <rect id="Rectangle_12429" data-name="Rectangle 12429" width="7.476" height="6.587" transform="translate(35.378 8.418)" fill="#f5f5f5"/>
      <rect id="Rectangle_12430" data-name="Rectangle 12430" width="1.783" height="6.587" transform="translate(41.072 8.418)" fill="#ebebeb"/>
      <path id="Path_51318" data-name="Path 51318" d="M122.99,82.355V81.97h23.559v.385" transform="translate(-91.795 -67.346)" fill="#e0e0e0"/>
      <rect id="Rectangle_12431" data-name="Rectangle 12431" width="1.791" height="3.78" transform="translate(37.138 17.883)" fill="#fafafa"/>
      <path id="Path_51319" data-name="Path 51319" d="M137.606,101.33c0,.039-2.37.074-5.3.074s-5.291-.035-5.291-.074,2.37-.07,5.291-.07S137.606,101.291,137.606,101.33Z" transform="translate(-94.06 -78.187)" fill="#e0e0e0"/>
      <rect id="Rectangle_12432" data-name="Rectangle 12432" width="1.791" height="3.78" transform="translate(47.817 17.883)" fill="#e0e0e0"/>
      <path id="Path_51320" data-name="Path 51320" d="M161.986,101.33c0,.039-2.37.074-5.291.074s-5.3-.035-5.3-.074,2.37-.07,5.3-.07S161.986,101.291,161.986,101.33Z" transform="translate(-107.762 -78.187)" fill="#e0e0e0"/>
      <rect id="Rectangle_12433" data-name="Rectangle 12433" width="1.791" height="3.78" transform="translate(47.817 25.386)" fill="#e0e0e0"/>
      <path id="Path_51321" data-name="Path 51321" d="M161.986,118.46c0,.039-2.37.074-5.291.074s-5.3-.035-5.3-.074,2.37-.07,5.3-.07S161.986,118.421,161.986,118.46Z" transform="translate(-107.762 -87.814)" fill="#e0e0e0"/>
      <rect id="Rectangle_12434" data-name="Rectangle 12434" width="1.791" height="3.78" transform="translate(47.817 33.112)" fill="#e0e0e0"/>
      <path id="Path_51322" data-name="Path 51322" d="M161.986,136.11c0,.039-2.37.07-5.291.07s-5.3-.031-5.3-.07,2.37-.07,5.3-.07S161.986,136.071,161.986,136.11Z" transform="translate(-107.762 -97.734)" fill="#e0e0e0"/>
      <rect id="Rectangle_12435" data-name="Rectangle 12435" width="1.791" height="3.78" transform="translate(47.817 40.842)" fill="#e0e0e0"/>
      <path id="Path_51323" data-name="Path 51323" d="M161.986,153.754c0,.039-2.37.07-5.291.07s-5.3-.031-5.3-.07,2.37-.074,5.3-.074S161.986,153.715,161.986,153.754Z" transform="translate(-107.762 -107.648)" fill="#e0e0e0"/>
      <rect id="Rectangle_12436" data-name="Rectangle 12436" width="1.791" height="3.78" transform="translate(47.817 48.354)" fill="#e0e0e0"/>
      <path id="Path_51324" data-name="Path 51324" d="M161.986,170.91c0,.039-2.37.074-5.291.074s-5.3-.035-5.3-.074,2.37-.07,5.3-.07S161.986,170.866,161.986,170.91Z" transform="translate(-107.762 -117.292)" fill="#e0e0e0"/>
      <rect id="Rectangle_12437" data-name="Rectangle 12437" width="1.791" height="3.78" transform="translate(47.817 55.892)" fill="#e0e0e0"/>
      <rect id="Rectangle_12438" data-name="Rectangle 12438" width="1.791" height="3.78" transform="translate(47.817 63.53)" fill="#e0e0e0"/>
      <path id="Path_51325" data-name="Path 51325" d="M161.986,188.11c0,.039-2.37.074-5.291.074s-5.3-.035-5.3-.074,2.37-.07,5.3-.07S161.986,188.071,161.986,188.11Z" transform="translate(-107.762 -126.958)" fill="#e0e0e0"/>
      <rect id="Rectangle_12439" data-name="Rectangle 12439" width="1.791" height="3.78" transform="translate(37.138 25.5)" fill="#fafafa"/>
      <path id="Path_51326" data-name="Path 51326" d="M137.595,118.72c0,.039-2.37.074-5.3.074s-5.3-.035-5.3-.074,2.37-.07,5.291-.07S137.595,118.681,137.595,118.72Z" transform="translate(-94.049 -87.96)" fill="#e0e0e0"/>
      <rect id="Rectangle_12440" data-name="Rectangle 12440" width="1.791" height="3.78" transform="translate(37.138 33.116)" fill="#fafafa"/>
      <path id="Path_51327" data-name="Path 51327" d="M137.595,136.114c0,.039-2.37.07-5.3.07s-5.3-.031-5.3-.07,2.37-.074,5.291-.074S137.595,136.075,137.595,136.114Z" transform="translate(-94.049 -97.734)" fill="#e0e0e0"/>
      <rect id="Rectangle_12441" data-name="Rectangle 12441" width="1.791" height="3.78" transform="translate(37.138 40.733)" fill="#fafafa"/>
      <path id="Path_51328" data-name="Path 51328" d="M137.595,153.5c0,.039-2.37.07-5.3.07s-5.3-.031-5.3-.07,2.37-.074,5.291-.074S137.595,153.465,137.595,153.5Z" transform="translate(-94.049 -107.507)" fill="#e0e0e0"/>
      <rect id="Rectangle_12442" data-name="Rectangle 12442" width="1.791" height="3.78" transform="translate(37.138 48.354)" fill="#fafafa"/>
      <path id="Path_51329" data-name="Path 51329" d="M137.595,170.91c0,.039-2.37.074-5.3.074s-5.3-.039-5.3-.074,2.37-.07,5.291-.07S137.595,170.866,137.595,170.91Z" transform="translate(-94.049 -117.292)" fill="#e0e0e0"/>
      <rect id="Rectangle_12443" data-name="Rectangle 12443" width="1.791" height="3.78" transform="translate(37.138 55.97)" fill="#fafafa"/>
      <path id="Path_51330" data-name="Path 51330" d="M137.606,188.29c0,.039-2.37.074-5.3.074s-5.291-.035-5.291-.074,2.37-.07,5.291-.07S137.606,188.251,137.606,188.29Z" transform="translate(-94.06 -127.059)" fill="#e0e0e0"/>
      <rect id="Rectangle_12444" data-name="Rectangle 12444" width="1.791" height="3.78" transform="translate(37.138 63.587)" fill="#fafafa"/>
      <rect id="Rectangle_12445" data-name="Rectangle 12445" width="21.172" height="67.104" transform="translate(110.502 29.236)" fill="#f5f5f5"/>
      <rect id="Rectangle_12446" data-name="Rectangle 12446" width="10.586" height="66.92" transform="translate(121.092 29.236)" fill="#ebebeb"/>
      <rect id="Rectangle_12447" data-name="Rectangle 12447" width="7.476" height="6.587" transform="translate(112.924 22.648)" fill="#f5f5f5"/>
      <rect id="Rectangle_12448" data-name="Rectangle 12448" width="1.783" height="6.587" transform="translate(118.617 22.648)" fill="#ebebeb"/>
      <path id="Path_51331" data-name="Path 51331" d="M300.04,114.835v-.385H323.6v.385" transform="translate(-191.299 -85.6)" fill="#e0e0e0"/>
      <rect id="Rectangle_12449" data-name="Rectangle 12449" width="1.791" height="3.78" transform="translate(114.684 32.109)" fill="#fafafa"/>
      <path id="Path_51332" data-name="Path 51332" d="M314.651,133.814c0,.039-2.37.07-5.3.07s-5.3-.031-5.3-.07,2.374-.074,5.3-.074S314.651,133.775,314.651,133.814Z" transform="translate(-193.558 -96.441)" fill="#e0e0e0"/>
      <rect id="Rectangle_12450" data-name="Rectangle 12450" width="1.791" height="3.78" transform="translate(125.362 32.109)" fill="#e0e0e0"/>
      <path id="Path_51333" data-name="Path 51333" d="M339.036,133.814c0,.039-2.37.07-5.3.07s-5.291-.031-5.291-.07,2.37-.074,5.291-.074S339.036,133.775,339.036,133.814Z" transform="translate(-207.266 -96.441)" fill="#e0e0e0"/>
      <rect id="Rectangle_12451" data-name="Rectangle 12451" width="1.791" height="3.78" transform="translate(125.362 39.612)" fill="#e0e0e0"/>
      <path id="Path_51334" data-name="Path 51334" d="M339.036,150.9c0,.039-2.37.07-5.3.07s-5.291-.031-5.291-.07,2.37-.074,5.291-.074S339.036,150.9,339.036,150.9Z" transform="translate(-207.266 -106.046)" fill="#e0e0e0"/>
      <rect id="Rectangle_12452" data-name="Rectangle 12452" width="1.791" height="3.78" transform="translate(125.362 47.342)" fill="#e0e0e0"/>
      <path id="Path_51335" data-name="Path 51335" d="M339.036,168.594c0,.039-2.37.07-5.3.07s-5.291-.031-5.291-.07,2.37-.074,5.291-.074S339.036,168.555,339.036,168.594Z" transform="translate(-207.266 -115.988)" fill="#e0e0e0"/>
      <rect id="Rectangle_12453" data-name="Rectangle 12453" width="1.791" height="3.78" transform="translate(125.362 55.073)" fill="#e0e0e0"/>
      <path id="Path_51336" data-name="Path 51336" d="M339.036,186.24c0,.044-2.37.074-5.3.074s-5.291-.031-5.291-.074,2.37-.07,5.291-.07S339.036,186.2,339.036,186.24Z" transform="translate(-207.266 -125.907)" fill="#e0e0e0"/>
      <rect id="Rectangle_12454" data-name="Rectangle 12454" width="1.791" height="3.78" transform="translate(125.362 62.58)" fill="#e0e0e0"/>
      <path id="Path_51337" data-name="Path 51337" d="M339.036,203.384c0,.039-2.37.07-5.3.07s-5.291-.031-5.291-.07,2.37-.074,5.291-.074S339.036,203.345,339.036,203.384Z" transform="translate(-207.266 -135.54)" fill="#e0e0e0"/>
      <rect id="Rectangle_12455" data-name="Rectangle 12455" width="1.791" height="3.78" transform="translate(125.362 70.117)" fill="#e0e0e0"/>
      <rect id="Rectangle_12456" data-name="Rectangle 12456" width="1.791" height="3.78" transform="translate(125.362 77.756)" fill="#e0e0e0"/>
      <path id="Path_51338" data-name="Path 51338" d="M339.036,220.6c0,.039-2.37.07-5.3.07s-5.291-.031-5.291-.07,2.37-.07,5.291-.07S339.036,220.561,339.036,220.6Z" transform="translate(-207.266 -145.218)" fill="#e0e0e0"/>
      <rect id="Rectangle_12457" data-name="Rectangle 12457" width="1.791" height="3.78" transform="translate(114.684 39.725)" fill="#fafafa"/>
      <path id="Path_51339" data-name="Path 51339" d="M314.651,151.21c0,.039-2.37.07-5.3.07s-5.3-.031-5.3-.07,2.374-.07,5.3-.07S314.651,151.171,314.651,151.21Z" transform="translate(-193.558 -106.22)" fill="#e0e0e0"/>
      <rect id="Rectangle_12458" data-name="Rectangle 12458" width="1.791" height="3.78" transform="translate(114.684 47.346)" fill="#fafafa"/>
      <path id="Path_51340" data-name="Path 51340" d="M314.651,168.6c0,.039-2.37.074-5.3.074s-5.3-.035-5.3-.074,2.374-.07,5.3-.07S314.651,168.561,314.651,168.6Z" transform="translate(-193.558 -115.993)" fill="#e0e0e0"/>
      <rect id="Rectangle_12459" data-name="Rectangle 12459" width="1.791" height="3.78" transform="translate(114.684 54.963)" fill="#fafafa"/>
      <path id="Path_51341" data-name="Path 51341" d="M314.651,185.99c0,.044-2.37.074-5.3.074s-5.3-.031-5.3-.074,2.374-.07,5.3-.07S314.651,185.955,314.651,185.99Z" transform="translate(-193.558 -125.767)" fill="#e0e0e0"/>
      <rect id="Rectangle_12460" data-name="Rectangle 12460" width="1.791" height="3.78" transform="translate(114.684 62.58)" fill="#fafafa"/>
      <path id="Path_51342" data-name="Path 51342" d="M314.651,203.384c0,.039-2.37.07-5.3.07s-5.3-.031-5.3-.07,2.374-.074,5.3-.074S314.651,203.345,314.651,203.384Z" transform="translate(-193.558 -135.54)" fill="#e0e0e0"/>
      <rect id="Rectangle_12461" data-name="Rectangle 12461" width="1.791" height="3.78" transform="translate(114.684 70.201)" fill="#fafafa"/>
      <path id="Path_51343" data-name="Path 51343" d="M314.651,220.78c0,.039-2.37.07-5.3.07s-5.3-.031-5.3-.07,2.374-.07,5.3-.07S314.651,220.741,314.651,220.78Z" transform="translate(-193.558 -145.319)" fill="#e0e0e0"/>
      <rect id="Rectangle_12462" data-name="Rectangle 12462" width="1.791" height="3.78" transform="translate(114.684 77.817)" fill="#fafafa"/>
      <rect id="Rectangle_12463" data-name="Rectangle 12463" width="34.286" height="45.218" transform="translate(123.83 55.274)" fill="#ebebeb"/>
      <rect id="Rectangle_12464" data-name="Rectangle 12464" width="16.074" height="45.218" transform="translate(142.037 55.274)" fill="#e0e0e0"/>
      <rect id="Rectangle_12465" data-name="Rectangle 12465" width="3.083" height="7.49" transform="translate(131.017 61.397)" fill="#f5f5f5"/>
      <rect id="Rectangle_12466" data-name="Rectangle 12466" width="3.083" height="7.49" transform="translate(131.017 90.707)" fill="#f5f5f5"/>
      <path id="Path_51344" data-name="Path 51344" d="M352.7,212.373c0,.083-4.073.149-9.1.149s-9.106-.066-9.106-.149,4.073-.153,9.106-.153S352.7,212.286,352.7,212.373Z" transform="translate(-210.66 -140.548)" fill="#f5f5f5"/>
      <rect id="Rectangle_12467" data-name="Rectangle 12467" width="3.083" height="7.49" transform="translate(131.017 76.162)" fill="#f5f5f5"/>
      <path id="Path_51345" data-name="Path 51345" d="M352.7,246.083c0,.083-4.073.153-9.1.153s-9.106-.07-9.106-.153,4.073-.153,9.106-.153S352.7,246,352.7,246.083Z" transform="translate(-210.66 -159.493)" fill="#f5f5f5"/>
      <rect id="Rectangle_12468" data-name="Rectangle 12468" width="3.083" height="7.49" transform="translate(145.453 61.397)" fill="#f5f5f5"/>
      <rect id="Rectangle_12469" data-name="Rectangle 12469" width="3.083" height="7.49" transform="translate(152.141 61.397)" fill="#f5f5f5"/>
      <rect id="Rectangle_12470" data-name="Rectangle 12470" width="3.083" height="7.49" transform="translate(145.453 75.605)" fill="#f5f5f5"/>
      <rect id="Rectangle_12471" data-name="Rectangle 12471" width="3.083" height="7.49" transform="translate(152.141 75.605)" fill="#f5f5f5"/>
      <rect id="Rectangle_12472" data-name="Rectangle 12472" width="3.083" height="7.49" transform="translate(145.453 89.818)" fill="#f5f5f5"/>
      <rect id="Rectangle_12473" data-name="Rectangle 12473" width="3.083" height="7.49" transform="translate(152.141 89.818)" fill="#f5f5f5"/>
      <rect id="Rectangle_12474" data-name="Rectangle 12474" width="39.441" height="1.629" transform="translate(121.25 53.697)" fill="#e0e0e0"/>
      <path id="Path_51346" data-name="Path 51346" d="M369.389,175.063c0,.083-7.66.149-17.112.149s-17.117-.066-17.117-.149,7.665-.153,17.117-.153S369.389,174.976,369.389,175.063Z" transform="translate(-211.037 -119.579)" fill="#ebebeb"/>
      <path id="Path_51347" data-name="Path 51347" d="M117.274,216.893H86.116L85.98,167.65h31.159Z" transform="translate(-70.995 -115.499)" fill="#ebebeb"/>
      <rect id="Rectangle_12475" data-name="Rectangle 12475" width="15.579" height="49.243" transform="translate(30.564 52.151)" fill="#e0e0e0"/>
      <rect id="Rectangle_12476" data-name="Rectangle 12476" width="11.002" height="9.693" transform="translate(18.541 42.458)" fill="#ebebeb"/>
      <rect id="Rectangle_12477" data-name="Rectangle 12477" width="2.624" height="9.693" transform="translate(26.92 42.458)" fill="#e0e0e0"/>
      <rect id="Rectangle_12478" data-name="Rectangle 12478" width="34.667" height="0.565" transform="translate(12.388 51.586)" fill="#e0e0e0"/>
      <rect id="Rectangle_12479" data-name="Rectangle 12479" width="2.637" height="5.562" transform="translate(21.134 56.382)" fill="#fff"/>
      <path id="Path_51348" data-name="Path 51348" d="M101.571,194.865c0,.057-3.5.105-7.792.105S86,194.918,86,194.865s3.5-.105,7.787-.105S101.571,194.8,101.571,194.865Z" transform="translate(-71.006 -130.735)" fill="#e0e0e0"/>
      <rect id="Rectangle_12480" data-name="Rectangle 12480" width="2.637" height="5.562" transform="translate(36.849 56.382)" fill="#f5f5f5"/>
      <path id="Path_51349" data-name="Path 51349" d="M137.439,194.865c0,.057-3.5.105-7.792.105s-7.787-.048-7.787-.105,3.5-.105,7.787-.105S137.439,194.8,137.439,194.865Z" transform="translate(-91.16 -130.735)" fill="#ebebeb"/>
      <rect id="Rectangle_12481" data-name="Rectangle 12481" width="2.637" height="5.562" transform="translate(36.849 67.424)" fill="#f5f5f5"/>
      <path id="Path_51350" data-name="Path 51350" d="M137.439,220.059c0,.057-3.5.105-7.792.105s-7.787-.048-7.787-.105,3.5-.109,7.787-.109S137.439,220,137.439,220.059Z" transform="translate(-91.16 -144.892)" fill="#ebebeb"/>
      <rect id="Rectangle_12482" data-name="Rectangle 12482" width="2.637" height="5.562" transform="translate(36.849 78.798)" fill="#f5f5f5"/>
      <path id="Path_51351" data-name="Path 51351" d="M137.439,246.029c0,.057-3.5.105-7.792.105s-7.787-.048-7.787-.105,3.5-.109,7.787-.109S137.439,245.955,137.439,246.029Z" transform="translate(-91.16 -159.488)" fill="#ebebeb"/>
      <rect id="Rectangle_12483" data-name="Rectangle 12483" width="2.637" height="5.562" transform="translate(36.849 90.169)" fill="#f5f5f5"/>
      <path id="Path_51352" data-name="Path 51352" d="M137.439,272c0,.057-3.5.105-7.792.105s-7.787-.048-7.787-.105,3.5-.109,7.787-.109S137.439,271.938,137.439,272Z" transform="translate(-91.16 -174.083)" fill="#ebebeb"/>
      <rect id="Rectangle_12484" data-name="Rectangle 12484" width="2.637" height="5.562" transform="translate(21.134 67.59)" fill="#fff"/>
      <path id="Path_51353" data-name="Path 51353" d="M101.571,220.445c0,.061-3.5.105-7.792.105S86,220.506,86,220.445s3.5-.105,7.787-.105S101.571,220.388,101.571,220.445Z" transform="translate(-71.006 -145.111)" fill="#e0e0e0"/>
      <rect id="Rectangle_12485" data-name="Rectangle 12485" width="2.637" height="5.562" transform="translate(21.134 78.798)" fill="#fff"/>
      <path id="Path_51354" data-name="Path 51354" d="M101.571,246.035c0,.061-3.5.11-7.792.11S86,246.1,86,246.035s3.5-.105,7.787-.105S101.571,245.961,101.571,246.035Z" transform="translate(-71.006 -159.493)" fill="#e0e0e0"/>
      <rect id="Rectangle_12486" data-name="Rectangle 12486" width="2.637" height="5.562" transform="translate(21.134 90.011)" fill="#fff"/>
      <path id="Path_51355" data-name="Path 51355" d="M101.571,271.635c0,.057-3.5.105-7.792.105S86,271.692,86,271.635s3.5-.105,7.787-.105S101.571,271.574,101.571,271.635Z" transform="translate(-71.006 -173.881)" fill="#e0e0e0"/>
      <path id="Path_51356" data-name="Path 51356" d="M411.525,138.314c.166-1.2-1.524-2.19-2.794-2.286a7.306,7.306,0,0,1-1.809-.153c-1.239-.438-1.752-2.041-2.948-2.549a3.458,3.458,0,0,0-2.829.4,7.4,7.4,0,0,1-2.729,1.06c-.876.057-1.783-.263-2.527.158-.556.311-.85.95-1.362,1.314a3.276,3.276,0,0,1-1.778.482,4.954,4.954,0,0,0-1.835.3,1.445,1.445,0,0,0-.92,1.472Z" transform="translate(-241.851 -96.114)" fill="#f5f5f5"/>
      <path id="Path_51357" data-name="Path 51357" d="M275.543,56.648c.258-1.87-2.387-3.412-4.38-3.574a11.2,11.2,0,0,1-2.825-.241c-1.945-.679-2.724-3.193-4.621-3.994-1.419-.6-3.066-.066-4.428.626a11.509,11.509,0,0,1-4.27,1.664c-1.314.083-2.79-.412-3.942.241-.876.486-1.314,1.494-2.129,2.085a5.051,5.051,0,0,1-2.786.753,7.931,7.931,0,0,0-2.873.469,2.268,2.268,0,0,0-1.437,2.3Z" transform="translate(-158.582 -48.58)" fill="#ebebeb"/>
      <path id="Path_51358" data-name="Path 51358" d="M78.674,117.943c.206-1.494-1.9-2.724-3.5-2.851a9,9,0,0,1-2.256-.193c-1.55-.543-2.19-2.545-3.679-3.184a4.326,4.326,0,0,0-3.53.5,9.024,9.024,0,0,1-3.408,1.314c-1.064.066-2.221-.328-3.154.193-.7.385-1.06,1.187-1.7,1.66a4,4,0,0,1-2.221.6,6.307,6.307,0,0,0-2.291.377,1.807,1.807,0,0,0-1.143,1.835Z" transform="translate(-51.767 -83.946)" fill="#f5f5f5"/>
    </g>
    <g id="freepik--Locators--inject-35" transform="translate(34.377 106.647)">
      <path id="Path_51359" data-name="Path 51359" d="M66.115,201.407a9.355,9.355,0,0,0-7.371,14.813h0l.088.127h0l6.627,9.009a1.423,1.423,0,0,0,2.326-.048l5.987-8.9a10.15,10.15,0,0,0,1.91-5.663,9.355,9.355,0,0,0-9.566-9.334Zm.223,16.157a7.034,7.034,0,1,1,7.034-7.034A7.034,7.034,0,0,1,66.338,217.564Z" transform="translate(-56.427 -192.536)" fill="#ff725e"/>
      <g id="Group_33848" data-name="Group 33848" transform="translate(0.558 8.869)" opacity="0.3">
        <path id="Path_51360" data-name="Path 51360" d="M66.115,201.407a9.355,9.355,0,0,0-7.371,14.813h0l.088.127h0l6.627,9.009a1.423,1.423,0,0,0,2.326-.048l5.987-8.9a10.15,10.15,0,0,0,1.91-5.663,9.355,9.355,0,0,0-9.566-9.334Zm.223,16.157a7.034,7.034,0,1,1,7.034-7.034A7.034,7.034,0,0,1,66.338,217.564Z" transform="translate(-56.985 -201.405)"/>
      </g>
      <path id="Path_51361" data-name="Path 51361" d="M64.847,201.407a9.386,9.386,0,0,0-9.132,9.123,9.277,9.277,0,0,0,1.752,5.694h0l.092.127h0l6.622,9.009a1.423,1.423,0,0,0,2.343-.044l5.987-8.9a10.117,10.117,0,0,0,1.91-5.663,9.355,9.355,0,0,0-9.574-9.342Zm.219,14.892a5.326,5.326,0,1,1,5.33-5.326,5.326,5.326,0,0,1-5.33,5.326Z" transform="translate(-55.711 -192.536)" fill="#ff725e"/>
      <path id="Path_51362" data-name="Path 51362" d="M403.912,181.159a7.13,7.13,0,0,0-5.633,11.291h0l.07.1h0l5.05,6.863a1.082,1.082,0,0,0,1.752-.035l4.564-6.784a7.735,7.735,0,0,0,1.459-4.314,7.135,7.135,0,0,0-7.262-7.117Zm.171,12.316a5.361,5.361,0,1,1,3.8-1.576A5.361,5.361,0,0,1,404.082,193.475Z" transform="translate(-247.485 -181.157)" fill="#ff725e"/>
      <g id="Group_33849" data-name="Group 33849" transform="translate(149.453 0.001)" opacity="0.3">
        <path id="Path_51363" data-name="Path 51363" d="M403.912,181.159a7.13,7.13,0,0,0-5.633,11.291h0l.07.1h0l5.05,6.863a1.082,1.082,0,0,0,1.752-.035l4.564-6.784a7.735,7.735,0,0,0,1.459-4.314,7.135,7.135,0,0,0-7.262-7.117Zm.171,12.316a5.361,5.361,0,1,1,3.8-1.576A5.361,5.361,0,0,1,404.082,193.475Z" transform="translate(-396.938 -181.157)"/>
      </g>
      <path id="Path_51364" data-name="Path 51364" d="M402.968,181.158a7.13,7.13,0,0,0-5.619,11.291h0l.066.1h0l5.046,6.863a1.086,1.086,0,0,0,1.774-.035l4.564-6.784a7.73,7.73,0,0,0,1.454-4.314,7.13,7.13,0,0,0-7.284-7.117Zm.166,11.348a4.056,4.056,0,1,1,2.872-1.188,4.06,4.06,0,0,1-2.872,1.188Z" transform="translate(-246.962 -181.156)" fill="#ff725e"/>
    </g>
    <g id="freepik--Map--inject-35" transform="translate(17.75 140.225)">
      <path id="Path_51365" data-name="Path 51365" d="M49.371,266.815,18.09,344.5l58.651-9.645,43.015,9.645,44.053-9.645,58.914,11.239-31.54-79.276-35.192-8.865-35.582,6.78-36.366-6.78Z" transform="translate(-17.941 -257.893)" fill="#fff"/>
      <path id="Path_51366" data-name="Path 51366" d="M49.18,266.742l.574-.153,1.713-.438,6.71-1.73,25.662-6.57h.022l36.353,6.758h-.031l35.582-6.789h.061l35.188,8.839h.053v.048L222.6,345.983l.079.193-.206-.039-30.3-5.781L163.561,334.9h.048l-44.057,9.636h-.026L76.515,334.9h.035l-58.655,9.636-.145.022.057-.136c9.675-23.984,17.52-43.4,22.924-56.829l6.246-15.448L48.6,268.13c.368-.9.561-1.362.561-1.362s-.18.469-.543,1.38l-1.612,4.03-6.189,15.448L17.978,344.454l-.092-.114,58.664-9.662h.039l43.01,9.636h-.044l44.053-9.636h.022l28.609,5.457,30.3,5.781-.127.153-31.535-79.276.07.061-35.188-8.874h.061l-35.6,6.749H120.2l-36.353-6.8h0l-25.635,6.535-6.723,1.7-1.721.438Z" transform="translate(-17.75 -257.82)" fill="#263238"/>
      <path id="Path_51367" data-name="Path 51367" d="M58.223,272.581,30.59,344.267l52.918-8.6,43.926,10.166,43.4-10.424,53.96,10.424-28.412-73.249L163.537,264.5l-36.1,6.78L90.546,264.5Z" transform="translate(-24.966 -261.574)" fill="#fff"/>
      <path id="Path_51368" data-name="Path 51368" d="M37.6,356.042,79.66,346.3l-1.55-9.058,3.5-2.2-5.44-21.159L59.346,299.62Z" transform="translate(-28.906 -281.312)" fill="#455a64"/>
      <path id="Path_51369" data-name="Path 51369" d="M30.59,418.772l2.05-5.317,70.525-16.385,3.828,10.542-1.24,2.129-13.245,2.514-9-2.085Z" transform="translate(-24.966 -336.08)" fill="#ebebeb"/>
      <path id="Path_51370" data-name="Path 51370" d="M205.03,382.381l2.8,10.429,8.125,3.53,11.554-5.133,24.243-7.06-7.564-11.4Z" transform="translate(-123.003 -322.412)" fill="#ebebeb"/>
      <path id="Path_51371" data-name="Path 51371" d="M138.669,388.987l13.1-2.843-2.615-8.515-9.548,2.3-2.54,1.8Z" transform="translate(-84.809 -325.155)" fill="#e0e0e0"/>
      <path id="Path_51372" data-name="Path 51372" d="M134.61,339.13l4.757,15.614,7.437-1.638-1.34-6,16.359-3.666Z" transform="translate(-83.427 -303.517)" fill="#455a64"/>
      <path id="Path_51373" data-name="Path 51373" d="M90.08,276.676,110.661,293.2l27.322,5.181,29.144-7.244-13.3-21.15L123.98,264.5l-32.324,8.081Z" transform="translate(-58.4 -261.574)" fill="#ebebeb"/>
      <path id="Path_51374" data-name="Path 51374" d="M244.71,278.69l42.726,65.589,3.736-.9L249.817,278.87l-2.045.385Z" transform="translate(-145.304 -269.549)" fill="#ebebeb"/>
      <path id="Path_51375" data-name="Path 51375" d="M165.67,346.137l5.414,15.746L219.148,349.6l-8.9-15.141Z" transform="translate(-100.883 -300.892)" fill="#e0e0e0"/>
      <path id="Path_51376" data-name="Path 51376" d="M226.72,421.452l.469-.7,3.158-4.691,7.573-2.409,5.212-3.924,22.587-6.171,7.017,12-35.074,8.427" transform="translate(-135.194 -339.728)" fill="#e0e0e0"/>
      <path id="Path_51377" data-name="Path 51377" d="M318.08,265.818,329.4,278.411l28.557-5.83L325.11,264.5Z" transform="translate(-186.539 -261.574)" fill="#e0e0e0"/>
      <path id="Path_51378" data-name="Path 51378" d="M382.347,300.813l-20.971,5.83-10.586-14.02,26.262-5.453Z" transform="translate(-204.922 -274.315)" fill="#e0e0e0"/>
      <path id="Path_51379" data-name="Path 51379" d="M261.49,272.836l21.991,31.588,25.377-7.284-25.377-28.43Z" transform="translate(-154.735 -263.94)" fill="#ebebeb"/>
      <path id="Path_51380" data-name="Path 51380" d="M401.85,423.5l25.373-9.938,6.224,16.044Z" transform="translate(-233.619 -345.348)" fill="#e0e0e0"/>
      <path id="Path_51381" data-name="Path 51381" d="M341.26,341.326l13.788-3.6,14.563,17.476-14.173,4.7Z" transform="translate(-199.566 -302.73)" fill="#455a64"/>
      <path id="Path_51382" data-name="Path 51382" d="M379.83,326.918l15.343,17.59,11.554-3.881-7.6-19.587Z" transform="translate(-221.243 -293.35)" fill="#e0e0e0"/>
      <path id="Path_51383" data-name="Path 51383" d="M391.288,395.16,379.83,379.265l27.694-8.825,5.624,14.506-3.609,3.631Z" transform="translate(-221.243 -321.114)" fill="#455a64"/>
      <path id="Path_51384" data-name="Path 51384" d="M314.77,351.768l21.05,31.925,12.964,2.624,2.444-1.117L324.555,348.82Z" transform="translate(-184.679 -308.963)" fill="#e0e0e0"/>
      <path id="Path_51385" data-name="Path 51385" d="M72.731,378.219,67.488,353.56,49,356.792,37.6,386.357Z" transform="translate(-28.906 -311.627)" fill="#e0e0e0"/>
      <path id="Path_51386" data-name="Path 51386" d="M119.228,267.21V278.5l3.959.5,11.055,12.877,9.5-1.091,4.524,6.557L137.983,299.9l-27.322-5.181L90.08,278.2l1.577-4.1Z" transform="translate(-58.4 -263.097)" fill="#455a64"/>
      <path id="Path_51387" data-name="Path 51387" d="M288.59,270.707l15.527,22.657,13.376-3.613L298.712,268.71Z" transform="translate(-169.965 -263.94)" fill="#e0e0e0"/>
      <path id="Path_51388" data-name="Path 51388" d="M385.449,309.934l-5.619-8.782,15.189-4.292,3.648,9.4Z" transform="translate(-221.243 -279.761)" fill="#ebebeb"/>
      <path id="Path_51389" data-name="Path 51389" d="M341.26,392.465l7.354-2.545,14.261,19.333-12.167-2.462Z" transform="translate(-199.566 -332.062)" fill="#ebebeb"/>
      <path id="Path_51390" data-name="Path 51390" d="M186.41,429.735l6.837-.832,2.278-3.333,8.541,2.685-2.234,5.05Z" transform="translate(-112.539 -352.097)" fill="#455a64"/>
      <path id="Path_51391" data-name="Path 51391" d="M58.06,272.513l2.129-.547,6.254-1.577,23.927-6.014h.022l36.892,6.758h-.031l36.1-6.793h.039l32.849,8.072h.048v.053c8.72,22.386,18.325,47.158,28.443,73.236l.074.193-.2-.039-27.072-5.23-26.888-5.2h.048L127.3,345.85h-.053L83.323,335.675h.039L30.44,344.26l-.14.022.048-.136C38.9,322.006,45.827,304.083,50.61,291.7c2.4-6.184,4.253-10.989,5.514-14.248l1.441-3.7c.324-.837.495-1.257.495-1.257s-.162.438-.482,1.275l-1.419,3.714L50.68,291.758,30.506,344.207l-.092-.11,52.913-8.62h.039l43.926,10.179h-.048l43.4-10.429h.026l26.91,5.173,27.055,5.23-.127.153C214.4,319.7,204.8,294.947,196.1,272.53l.07.061-32.849-8.09h.039l-36.108,6.763h-.031l-36.879-6.8h0l-23.87,5.948L60.21,271.97Z" transform="translate(-24.803 -261.484)" fill="#263238"/>
      <g id="Group_33850" data-name="Group 33850" transform="translate(58.8 0.057)" opacity="0.2">
        <path id="Path_51392" data-name="Path 51392" d="M195.015,344.5l.653-79.766L159.3,257.95l-7.3,76.9Z" transform="translate(-152 -257.95)"/>
      </g>
      <g id="Group_33851" data-name="Group 33851" transform="translate(138.05 0.057)" opacity="0.2">
        <path id="Path_51393" data-name="Path 51393" d="M332.94,257.95l7.818,76.9,58.914,11.239-31.54-79.276Z" transform="translate(-332.94 -257.95)"/>
      </g>
    </g>
    <g id="freepik--Character--inject-35" transform="translate(70.915 62.97)">
      <path id="Path_51394" data-name="Path 51394" d="M192.359,101.072a47.869,47.869,0,0,0-37.728,75.816h0l.469.635.066.092,33.9,46.111a7.279,7.279,0,0,0,11.9-.25l30.659-45.551c5.8-8.847,9.776-18.089,9.776-28.986a47.881,47.881,0,0,0-49.046-47.868ZM193.5,183.76a36,36,0,1,1,35.994-36,36,36,0,0,1-35.994,36Z" transform="translate(-142.776 -92.462)" fill="#ff725e"/>
      <g id="Group_33852" data-name="Group 33852" transform="translate(2.838 8.595)" opacity="0.3">
        <path id="Path_51395" data-name="Path 51395" d="M192.359,101.072a47.869,47.869,0,0,0-37.728,75.816h0l.469.635.066.092,33.9,46.111a7.279,7.279,0,0,0,11.9-.25l30.659-45.551c5.8-8.847,9.776-18.089,9.776-28.986a47.881,47.881,0,0,0-49.046-47.868ZM193.5,183.76a36,36,0,1,1,35.994-36,36,36,0,0,1-35.994,36Z" transform="translate(-145.614 -101.058)"/>
      </g>
      <path id="Path_51396" data-name="Path 51396" d="M185.879,101.072a47.869,47.869,0,0,0-37.728,75.816h0l.469.635.066.092,33.9,46.111a7.279,7.279,0,0,0,11.9-.25l30.659-45.551c5.8-8.847,9.776-18.089,9.776-28.986a47.881,47.881,0,0,0-49.046-47.868Zm1.139,82.688a36,36,0,1,1,35.994-36,36,36,0,0,1-35.994,36Z" transform="translate(-139.134 -92.462)" fill="#ff725e"/>
      <g id="Group_33853" data-name="Group 33853" transform="translate(29.374 82.45)" opacity="0.3">
        <path id="Path_51397" data-name="Path 51397" d="M245.417,269.68c-.578.653-38.644,10.7-39.217,11.357,7.3,2.225,16.206,4.161,23.835,3.719,4.3-.245,8.76-1.012,12.176-3.657S247.485,273.455,245.417,269.68Z" transform="translate(-206.2 -269.68)"/>
      </g>
      <path id="Path_51398" data-name="Path 51398" d="M201.045,103.82a9.947,9.947,0,0,0-2.488,8.865c.333,1.515,1,3.206.166,4.516s-2.768,1.533-3.543,2.86c-.92,1.555.307,3.5.153,5.317a3.583,3.583,0,0,1-3.4,3.162,13.941,13.941,0,0,0,7.279,2.015q.788-1.367,1.572-2.733a2.573,2.573,0,0,0,.609,3.1,5.944,5.944,0,0,0,3.11,1.314,17.725,17.725,0,0,0,15.054-4.682" transform="translate(-168.806 -94.015)" fill="#263238"/>
      <path id="Path_51399" data-name="Path 51399" d="M240.679,100.743a31.283,31.283,0,0,1-1.752-3.294c-.92-2.518-.066-5.624-1.656-7.783-1.13-1.542-3.154-2.089-5.041-2.391s-3.889-.5-5.422-1.638c-1.126-.837-1.875-2.1-3-2.935a8.428,8.428,0,0,0-5.729-1.222,11.931,11.931,0,0,0-5.812,1.8,6.6,6.6,0,0,0-3.018,5.089,19.49,19.49,0,0,1,.066,2.987,18.731,18.731,0,0,1-1.257,3.035,5.256,5.256,0,0,0,2.19,6.057l16.425,16.017c3.066.692,9.969-1.634,11.922-4.108S242.055,103.581,240.679,100.743Z" transform="translate(-177.729 -81.434)" fill="#263238"/>
      <path id="Path_51400" data-name="Path 51400" d="M213.43,107.667c0-4.157,2.431-9.412,6.57-9.233l13.1,2.448a2.435,2.435,0,0,1,2.326,2.33l.569,31.167h.088s-2.365,8.952-11.055,6.828c-1.726-.438-2.628-2.216-3.066-4.1h-.083c-.022-.228-.035-.438-.053-.653a20.274,20.274,0,0,1-.328-4.262h0c-.188-2.51-.25-3.539-.25-3.5s-5.348-.543-6.876-7.38C213.61,117.951,213.43,112.288,213.43,107.667Z" transform="translate(-180.889 -90.986)" fill="#ffbe9d"/>
      <path id="Path_51401" data-name="Path 51401" d="M240.82,128.153a.876.876,0,0,0,.911.841.85.85,0,0,0,.876-.854.876.876,0,0,0-.911-.841.85.85,0,0,0-.876.854Z" transform="translate(-196.283 -107.21)" fill="#263238"/>
      <path id="Path_51402" data-name="Path 51402" d="M220.169,129.711a.876.876,0,0,0,.911.841.85.85,0,0,0,.876-.876.876.876,0,0,0-.911-.837.845.845,0,0,0-.876.872Z" transform="translate(-184.677 -108.076)" fill="#263238"/>
      <path id="Path_51403" data-name="Path 51403" d="M215.813,124.843c.118.145.876-.482,1.905-.477s1.791.613,1.91.464c.057-.066-.061-.328-.39-.613a2.4,2.4,0,0,0-1.529-.556,2.361,2.361,0,0,0-1.515.587C215.888,124.51,215.756,124.777,215.813,124.843Z" transform="translate(-182.222 -105.165)" fill="#263238"/>
      <path id="Path_51404" data-name="Path 51404" d="M237.782,124.064c.14.131.876-.565,1.967-.67s1.967.4,2.072.25c.053-.07-.1-.32-.477-.561a2.689,2.689,0,0,0-1.677-.372,2.628,2.628,0,0,0-1.55.714C237.8,123.735,237.711,124.007,237.782,124.064Z" transform="translate(-194.563 -104.623)" fill="#263238"/>
      <path id="Path_51405" data-name="Path 51405" d="M228.007,131.506a6.5,6.5,0,0,0-1.568-.18c-.241,0-.477-.044-.526-.21a1.222,1.222,0,0,1,.114-.731c.193-.6.394-1.235.6-1.9a31.584,31.584,0,0,0,1.314-4.949,31.825,31.825,0,0,0-1.708,4.818c-.2.666-.39,1.314-.574,1.91a1.4,1.4,0,0,0-.066.964.613.613,0,0,0,.438.328,1.624,1.624,0,0,0,.438.031,6.066,6.066,0,0,0,1.533-.083Z" transform="translate(-187.696 -105.097)" fill="#263238"/>
      <path id="Path_51406" data-name="Path 51406" d="M231.28,163.664a17.6,17.6,0,0,0,9.075-3.044s-1.945,4.884-8.9,4.669Z" transform="translate(-190.921 -125.937)" fill="#eb996e"/>
      <path id="Path_51407" data-name="Path 51407" d="M232.326,145.973a1.721,1.721,0,0,1,1.5-.736,1.6,1.6,0,0,1,1.121.512,1,1,0,0,1,.145,1.134,1.161,1.161,0,0,1-1.231.394,3.614,3.614,0,0,1-1.261-.653.981.981,0,0,1-.289-.263.311.311,0,0,1,0-.355" transform="translate(-191.468 -117.291)" fill="#ff725e"/>
      <path id="Path_51408" data-name="Path 51408" d="M233.972,142.839c-.158,0-.1,1.034-.933,1.822s-1.949.745-1.949.876c0,.066.258.184.727.166a2.6,2.6,0,0,0,1.629-.683,2.264,2.264,0,0,0,.714-1.524C234.173,143.076,234.042,142.826,233.972,142.839Z" transform="translate(-190.814 -115.944)" fill="#263238"/>
      <path id="Path_51409" data-name="Path 51409" d="M236.989,117.387c.114.254,1.056.07,2.19.136s2.05.311,2.19.07c.057-.114-.114-.35-.495-.578a3.819,3.819,0,0,0-3.324-.158C237.129,117.049,236.937,117.264,236.989,117.387Z" transform="translate(-194.125 -101.169)" fill="#263238"/>
      <path id="Path_51410" data-name="Path 51410" d="M217.015,118.259c.2.206.937-.066,1.84-.136s1.677.044,1.84-.2c.07-.114-.066-.324-.412-.508a2.851,2.851,0,0,0-1.52-.258,2.812,2.812,0,0,0-1.445.526C217.011,117.931,216.924,118.158,217.015,118.259Z" transform="translate(-182.885 -101.503)" fill="#263238"/>
      <path id="Path_51411" data-name="Path 51411" d="M241.577,101.346a5.714,5.714,0,0,0-3.11-1.489,63.806,63.806,0,0,0-15-1.66,2.591,2.591,0,0,0,1.314,3.018,11.43,11.43,0,0,0,3.443.994,4.533,4.533,0,0,1,3.018,1.752c.653,1.1.438,2.536,1.029,3.666,1.025,1.945,3.973,2.19,4.984,4.152.766,1.476.1,3.25.105,4.914a5.939,5.939,0,0,0,6.71,5.882q-.731-8.882-1.454-17.76A5.9,5.9,0,0,0,241.577,101.346Z" transform="translate(-186.449 -90.854)" fill="#263238"/>
      <path id="Path_51412" data-name="Path 51412" d="M273.421,116.721c-1.047-.7-2.308-1.257-2.847-2.4-.78-1.656.324-3.889-.793-5.339-1.016-1.314-3.416-.915-4.38-2.278-.753-1.064-.215-2.19-.583-3.154a2.8,2.8,0,0,0-2.93-1.4l-6.39,12.75c-.2,4-.657,6.184.5,8.348a17.549,17.549,0,0,1,1.752,3.618,3.872,3.872,0,0,1-.731,3.771c4.844-.3,8.988-3.438,12.8-6.447l4.034-3.184a3.21,3.21,0,0,0,1.064-1.174C275.432,118.7,274.464,117.422,273.421,116.721Z" transform="translate(-204.388 -93.05)" fill="#263238"/>
      <path id="Path_51413" data-name="Path 51413" d="M251.238,114.506a2.329,2.329,0,0,1-.495.171,4.38,4.38,0,0,1-1.511.105,4.643,4.643,0,0,1-2.238-.832,4.573,4.573,0,0,1-1.752-2.628,4.7,4.7,0,0,1-.1-1.861,7.631,7.631,0,0,1,.639-1.888,7.17,7.17,0,0,0,.661-1.98,2.4,2.4,0,0,0-.543-2,4.386,4.386,0,0,0-2.142-.749,1.948,1.948,0,0,1-1.634-1.826,13.749,13.749,0,0,1,.193-2.571,2.746,2.746,0,0,0-.162-1.226,1.752,1.752,0,0,0-.828-.876,4.793,4.793,0,0,0-2.518-.307,5.256,5.256,0,0,1-2.571-.381,4.691,4.691,0,0,1-1.949-1.6,7.687,7.687,0,0,1-.946-2.212,10.84,10.84,0,0,0-.775-2.089,4.888,4.888,0,0,0-1.367-1.542,5.422,5.422,0,0,0-6.408,0,6.627,6.627,0,0,0-1.651,1.664,8.576,8.576,0,0,0-.911,1.8.517.517,0,0,1,.026-.131c.026-.083.057-.215.118-.372a6.443,6.443,0,0,1,.675-1.353,6.688,6.688,0,0,1,1.651-1.752,5.694,5.694,0,0,1,2.948-1.082,5.8,5.8,0,0,1,3.679,1.047,5.09,5.09,0,0,1,1.445,1.612,10.919,10.919,0,0,1,.8,2.133,7.616,7.616,0,0,0,.92,2.133,4.45,4.45,0,0,0,1.84,1.5,4.993,4.993,0,0,0,2.44.337,5.02,5.02,0,0,1,2.659.337,2.006,2.006,0,0,1,.959,1.016,3,3,0,0,1,.184,1.349,14.125,14.125,0,0,0-.2,2.527,1.9,1.9,0,0,0,.438,1.06,2,2,0,0,0,.994.539c.381.1.78.149,1.174.254a2.326,2.326,0,0,1,1.086.569,2.663,2.663,0,0,1,.6,2.212,7.357,7.357,0,0,1-.692,2.045,7.28,7.28,0,0,0-.639,1.844,4.547,4.547,0,0,0,.079,1.778,4.45,4.45,0,0,0,1.664,2.532,4.63,4.63,0,0,0,2.159.85,5.19,5.19,0,0,0,2-.153Z" transform="translate(-185.835 -84.549)" fill="#455a64"/>
      <path id="Path_51414" data-name="Path 51414" d="M269.908,104.416a1.029,1.029,0,0,1,.215.368,1.752,1.752,0,0,1-.039,1.218,1.831,1.831,0,0,1-.521.731,1.914,1.914,0,0,1-.99.416,2.413,2.413,0,0,1-2.286-1.038,3.267,3.267,0,0,1-.547-1.415,4.581,4.581,0,0,1,.118-1.629,9.933,9.933,0,0,0,.626-3.416,2.216,2.216,0,0,0-.784-1.568,2.47,2.47,0,0,0-1.822-.3,6.009,6.009,0,0,1-2.107.079,1.857,1.857,0,0,1-.955-.6,2.628,2.628,0,0,1-.5-1.012,8.615,8.615,0,0,1-.123-2.155,4.774,4.774,0,0,0-.39-1.962,5.032,5.032,0,0,0-2.628-2.628,7.1,7.1,0,0,0-3.429-.293,9.89,9.89,0,0,1-3.105-.053,6.364,6.364,0,0,1-2.339-1.051,6.486,6.486,0,0,1-1.388-1.345,4.7,4.7,0,0,1-.784-1.441,9.392,9.392,0,0,0,.876,1.371,6.491,6.491,0,0,0,3.683,2.273,9.912,9.912,0,0,0,3.04,0,7.341,7.341,0,0,1,3.552.285,5.308,5.308,0,0,1,2.794,2.746,5.049,5.049,0,0,1,.416,2.072,8.239,8.239,0,0,0,.118,2.085,1.8,1.8,0,0,0,1.248,1.41,5.873,5.873,0,0,0,2.006-.079,2.7,2.7,0,0,1,2.015.359,2.479,2.479,0,0,1,.876,1.752,4.7,4.7,0,0,1-.188,1.848c-.153.578-.342,1.117-.469,1.651a4.2,4.2,0,0,0-.127,1.55,3.021,3.021,0,0,0,.495,1.314,2.256,2.256,0,0,0,2.1,1,1.787,1.787,0,0,0,.92-.368,1.716,1.716,0,0,0,.508-.666,1.752,1.752,0,0,0,.088-1.161,3.77,3.77,0,0,0-.175-.346Z" transform="translate(-199.267 -83.618)" fill="#263238"/>
      <path id="Path_51415" data-name="Path 51415" d="M185.863,124.434a1.909,1.909,0,0,0,.188,1.253,1.677,1.677,0,0,0,1.139.876,1.752,1.752,0,0,0,1.7-.727,1.656,1.656,0,0,0,.272-1.064,3.386,3.386,0,0,0-.355-1.187,7.135,7.135,0,0,1-1.082-2.659,3.916,3.916,0,0,1,1.073-2.974,4.5,4.5,0,0,1,1.384-.994,6.57,6.57,0,0,1,1.673-.486,9.1,9.1,0,0,0,1.634-.407,2.238,2.238,0,0,0,1.178-.981,2.755,2.755,0,0,0,.267-1.485,5.506,5.506,0,0,0-.333-1.463,11.359,11.359,0,0,1-.823-2.746,4.3,4.3,0,0,1,.53-2.448,5.488,5.488,0,0,1,1.38-1.537,10.639,10.639,0,0,0,1.13-1.042,3.18,3.18,0,0,0,.644-1.121v.088a1.179,1.179,0,0,1-.061.25,2.628,2.628,0,0,1-.486.854,9.821,9.821,0,0,1-1.113,1.086,5.475,5.475,0,0,0-1.314,1.515,4.148,4.148,0,0,0-.473,2.33,11.01,11.01,0,0,0,.837,2.68,5.637,5.637,0,0,1,.355,1.533,2.987,2.987,0,0,1-.293,1.634,2.527,2.527,0,0,1-1.314,1.112,9.494,9.494,0,0,1-1.686.438,6.377,6.377,0,0,0-1.607.464,4.218,4.218,0,0,0-1.314.929,3.662,3.662,0,0,0-1.016,2.768A7.128,7.128,0,0,0,189,123.5a3.547,3.547,0,0,1,.359,1.275,1.8,1.8,0,0,1-.324,1.191,1.918,1.918,0,0,1-1.888.766,1.853,1.853,0,0,1-1.388-1.945.976.976,0,0,1,.1-.35Z" transform="translate(-165.336 -93.689)" fill="#263238"/>
      <path id="Path_51416" data-name="Path 51416" d="M188.65,189.787s.736-5.891,3.574-8.834,14.716-6.631,14.716-6.631.491,4.2,3.337,5.212c3.018,1.077,6.425.674,8.633-1.892A13.792,13.792,0,0,0,221.652,172s14.186,1.314,16.5,5.195,5.3,18.961,5.3,18.961l-13.262,2.816,1.8,25.955H196.774l.688-24.361-9.592,1.371Z" transform="translate(-166.524 -132.333)" fill="#455a64"/>
      <path id="Path_51417" data-name="Path 51417" d="M278.465,216.405a2.211,2.211,0,0,1-.048-.583c0-.377,0-.924,0-1.594,0-1.349.022-3.206.066-5.256s.1-3.911.153-5.256c.026-.674.053-1.218.079-1.594a2.053,2.053,0,0,1,.074-.583,2.375,2.375,0,0,1,.044.583c0,.377,0,.924,0,1.594,0,1.349-.022,3.206-.066,5.256s-.1,3.911-.153,5.256c-.026.67-.057,1.213-.079,1.59A2.054,2.054,0,0,1,278.465,216.405Z" transform="translate(-217.411 -148.935)" fill="#263238"/>
      <path id="Path_51418" data-name="Path 51418" d="M202.3,211.08c.083-.022.911,2.628,1.848,5.882a61.223,61.223,0,0,1,1.555,5.961c-.083.022-.907-2.628-1.848-5.878A60.408,60.408,0,0,1,202.3,211.08Z" transform="translate(-174.632 -154.296)" fill="#263238"/>
      <path id="Path_51419" data-name="Path 51419" d="M288.652,181.674c0,.053-.631.171-1.6.539a11.515,11.515,0,0,0-5.965,5.19c-.5.907-.705,1.524-.758,1.507a1.45,1.45,0,0,1,.1-.438,7.666,7.666,0,0,1,.464-1.161,10.512,10.512,0,0,1,6.088-5.291,7.513,7.513,0,0,1,1.213-.3A1.247,1.247,0,0,1,288.652,181.674Z" transform="translate(-218.488 -137.767)" fill="#263238"/>
      <path id="Path_51420" data-name="Path 51420" d="M197.3,195.15a6.707,6.707,0,0,1,.622,1.831,6.074,6.074,0,0,1,.324,1.905,6.221,6.221,0,0,1-.622-1.831A6.073,6.073,0,0,1,197.3,195.15Z" transform="translate(-171.811 -145.343)" fill="#263238"/>
      <path id="Path_51421" data-name="Path 51421" d="M255,228.24s-3.973,20.174-4.428,21.9-1.187,6.373-6,7.336c-6.5,1.314-32,.39-32,.39l4.818-6.088,22.316-6.259,3.066-14.677Z" transform="translate(-180.406 -163.94)" fill="#ffbe9d"/>
      <path id="Path_51422" data-name="Path 51422" d="M215.575,274.2a1.489,1.489,0,0,1,.188.464,6.68,6.68,0,0,1,.254,1.349,7.735,7.735,0,0,1-.911,4.38,8.912,8.912,0,0,1-1.458,2.041,4.9,4.9,0,0,1-1.7,1.134,4.956,4.956,0,0,1-1.34.3,1.569,1.569,0,0,1-.5,0,10.336,10.336,0,0,0,1.752-.486,4.967,4.967,0,0,0,1.586-1.13,9.528,9.528,0,0,0,1.393-1.975,8.068,8.068,0,0,0,.964-4.231C215.75,274.892,215.518,274.218,215.575,274.2Z" transform="translate(-179.018 -189.77)" fill="#eb996e"/>
      <path id="Path_51423" data-name="Path 51423" d="M173.84,216.093s3.6,12.1,5.085,17.331c1.586,5.554,5.05,18.168,12.435,15.93,5.619-1.708,3.968-8.988,3.968-8.988l-5.751-16.617-4.472.749-4.34-11.208Z" transform="translate(-158.639 -155.538)" fill="#ffbe9d"/>
      <path id="Path_51424" data-name="Path 51424" d="M207.85,255.066a6.294,6.294,0,0,0,0-2.737,8.519,8.519,0,0,0-1.2-2.72,23.731,23.731,0,0,0-2.33-2.86,24.13,24.13,0,0,1-2.339-2.908,18.394,18.394,0,0,1-1.467-2.672,16.005,16.005,0,0,1-.718-1.923,2.843,2.843,0,0,1-.175-.736,4.788,4.788,0,0,1,.285.7c.175.438.438,1.095.806,1.87a19.555,19.555,0,0,0,1.507,2.606,25.549,25.549,0,0,0,2.33,2.86,22.052,22.052,0,0,1,2.339,2.913,8.322,8.322,0,0,1,1.178,2.847,5.256,5.256,0,0,1,0,2.067,3.165,3.165,0,0,1-.153.539.579.579,0,0,1-.061.158Z" transform="translate(-173.128 -169.712)" fill="#eb996e"/>
      <path id="Path_51425" data-name="Path 51425" d="M167.3,190.028a37.221,37.221,0,0,0-.4-6.193l-3.416-7.63s-.876-.539-1.314.981.911,3.088.911,3.088l.105,2-1.367-1.13-2.659-4.984s-1.835-3.631-2.308-3.066-.32,1.752.469,3.307l1.8,3.556s.272.631-.67-.285-2.987-5.348-3.412-5.9-1-2.19-1.918-1.809.258,2.317.258,2.317l2.93,6.57s-1.7-2.488-2.006-2.908-1.016-1.844-1.572-2.571-1.165-1.007-1.568-.832a.819.819,0,0,0-.508,1l3.132,5.431s1.564,2.44,1.564,2.628-1.367-.806-1.367-.806l-1.314-1.673s-1.419-2.505-2.164-2.37-.613.692-.613.692L152.516,184l3.828,4.923,4.091,4.065,2.365-.762Z" transform="translate(-145.173 -132.277)" fill="#ffbe9d"/>
      <path id="Path_51426" data-name="Path 51426" d="M172.361,200.1a9.447,9.447,0,0,0,.236-1.5,4.842,4.842,0,0,1,1.572-3.127,2.628,2.628,0,0,1,1.59-.609h.2v-.21c-.061-.937-.026-1.831-.061-2.422a2.19,2.19,0,0,0-.131-.959,5.054,5.054,0,0,0-.092.955,24.285,24.285,0,0,0-.074,2.483l.18-.21a2.843,2.843,0,0,0-1.835.666,4,4,0,0,0-1.239,1.726,6.451,6.451,0,0,0-.368,1.673A4.686,4.686,0,0,0,172.361,200.1Z" transform="translate(-157.765 -143.163)" fill="#eb996e"/>
      <rect id="Rectangle_12487" data-name="Rectangle 12487" width="60.85" height="19.688" rx="4.86" transform="translate(18.722 99.947)" fill="#fff"/>
      <path id="Path_51427" data-name="Path 51427" d="M240.479,329.075a2.3,2.3,0,0,0,.4-.053,2.106,2.106,0,0,0,1.034-.543,2.146,2.146,0,0,0,.657-1.752V312.313a8.473,8.473,0,0,0-.039-1.2,2.068,2.068,0,0,0-.565-1.047,2.037,2.037,0,0,0-1.086-.565,10.6,10.6,0,0,0-1.314-.031l-55.651.031a2.015,2.015,0,0,0-2,1.73c-.039.311,0,.661-.022.994V326.9a2.045,2.045,0,0,0,.18.876,2.019,2.019,0,0,0,1.314,1.121,3.181,3.181,0,0,0,.876.074h33.138l16.867.039h4.586l-4.586.022-16.867.035-25.018.026h-8.16a3.413,3.413,0,0,1-.955-.083,2.238,2.238,0,0,1-1.647-2.19V312.142a10.137,10.137,0,0,1,.026-1.025,2.19,2.19,0,0,1,.39-.981,2.269,2.269,0,0,1,1.831-.946l55.651.035a10.457,10.457,0,0,1,1.314.039,2.19,2.19,0,0,1,1.752,1.752,7.793,7.793,0,0,1,.039,1.231v14.414a2.427,2.427,0,0,1-.18,1.047,2.189,2.189,0,0,1-.517.718,2.085,2.085,0,0,1-1.06.53,1.977,1.977,0,0,1-.3.031Z" transform="translate(-163.013 -209.435)" fill="#263238"/>
      <path id="Path_51428" data-name="Path 51428" d="M195.74,326.435a1.621,1.621,0,0,1,1.726-1.629,1.66,1.66,0,0,1,1.349.591l-.565.512a.916.916,0,0,0-.74-.368.9.9,0,0,0,0,1.791.929.929,0,0,0,.74-.368l.565.508a1.66,1.66,0,0,1-1.349.591,1.621,1.621,0,0,1-1.726-1.629Z" transform="translate(-170.947 -218.209)" fill="#263238"/>
      <path id="Path_51429" data-name="Path 51429" d="M203.5,326.672V324.92h.876v1.713c0,.539.223.753.6.753s.591-.215.591-.753v-1.677h.876v1.752a1.476,1.476,0,0,1-2.948,0Z" transform="translate(-175.303 -218.276)" fill="#263238"/>
      <path id="Path_51430" data-name="Path 51430" d="M212.992,327.282h-.486v.832h-.876V325h1.432c.876,0,1.393.438,1.393,1.161a1.038,1.038,0,0,1-.613.99l.674.985h-.972Zm0-1.6H212.5v.915h.495c.364,0,.547-.166.547-.438s-.175-.477-.539-.477Z" transform="translate(-179.878 -218.321)" fill="#263238"/>
      <path id="Path_51431" data-name="Path 51431" d="M220.552,327.282h-.486v.832h-.876V325h1.432c.876,0,1.393.438,1.393,1.161a1.038,1.038,0,0,1-.613.99l.674.985h-.955Zm0-1.6h-.495v.915h.495c.368,0,.552-.166.552-.438s-.175-.477-.543-.477Z" transform="translate(-184.126 -218.321)" fill="#263238"/>
      <path id="Path_51432" data-name="Path 51432" d="M229.248,327.431v.683H226.73V325h2.461v.688H227.61v.526H229v.666H227.61v.574Z" transform="translate(-188.364 -218.321)" fill="#263238"/>
      <path id="Path_51433" data-name="Path 51433" d="M236.577,325v3.136h-.731l-1.38-1.669v1.669h-.876V325h.731l1.384,1.673V325Z" transform="translate(-192.219 -218.321)" fill="#263238"/>
      <path id="Path_51434" data-name="Path 51434" d="M242.129,325.683h-.959V325h2.807v.705h-.959v2.431h-.876Z" transform="translate(-196.48 -218.321)" fill="#263238"/>
      <path id="Path_51435" data-name="Path 51435" d="M251.3,325h.876v2.435h1.494v.7H251.3Z" transform="translate(-202.173 -218.321)" fill="#263238"/>
      <path id="Path_51436" data-name="Path 51436" d="M257.054,326.125a1.752,1.752,0,1,1,1.752,1.629,1.638,1.638,0,0,1-1.752-1.629Zm2.589,0a.85.85,0,1,0-.85.9.841.841,0,0,0,.863-.9Z" transform="translate(-205.404 -217.899)" fill="#263238"/>
      <path id="Path_51437" data-name="Path 51437" d="M265.71,326.435a1.616,1.616,0,0,1,1.721-1.629,1.66,1.66,0,0,1,1.349.591l-.565.512a.916.916,0,0,0-.74-.368.9.9,0,0,0,0,1.791.928.928,0,0,0,.74-.368l.565.508a1.66,1.66,0,0,1-1.349.591,1.616,1.616,0,0,1-1.721-1.629Z" transform="translate(-210.271 -218.209)" fill="#263238"/>
      <path id="Path_51438" data-name="Path 51438" d="M275.126,327.477h-1.314l-.245.609h-.907l1.384-3.136h.876l1.388,3.136h-.924Zm-.263-.653-.4-1-.4,1Z" transform="translate(-214.177 -218.293)" fill="#263238"/>
      <path id="Path_51439" data-name="Path 51439" d="M281.454,325.683h-.964V325H283.3v.705h-.955v2.431h-.876Z" transform="translate(-218.578 -218.321)" fill="#263238"/>
      <path id="Path_51440" data-name="Path 51440" d="M287.66,325h.876v3.136h-.876Z" transform="translate(-222.607 -218.321)" fill="#263238"/>
      <path id="Path_51441" data-name="Path 51441" d="M290.755,326.125a1.752,1.752,0,1,1,1.752,1.629,1.638,1.638,0,0,1-1.752-1.629Zm2.588,0a.85.85,0,1,0-.85.9.841.841,0,0,0,.85-.9Z" transform="translate(-224.344 -217.899)" fill="#263238"/>
      <path id="Path_51442" data-name="Path 51442" d="M302.741,325v3.136h-.731l-1.384-1.669v1.669h-.876V325h.731l1.384,1.673V325Z" transform="translate(-229.402 -218.321)" fill="#263238"/>
      <path id="Path_51443" data-name="Path 51443" d="M211.37,338.49a1.638,1.638,0,0,1,2.843-1.012l-.438.407a.968.968,0,0,0-.749-.35.955.955,0,1,0,.749,1.555l.438.407a1.634,1.634,0,0,1-2.843-1.007Z" transform="translate(-179.732 -225.035)" fill="#e0e0e0"/>
      <path id="Path_51444" data-name="Path 51444" d="M218.91,337.07h.692v2.978h-.692Z" transform="translate(-183.969 -225.104)" fill="#e0e0e0"/>
      <path id="Path_51445" data-name="Path 51445" d="M222.285,337.631h-.955v-.561h2.6v.561h-.955v2.418h-.688Z" transform="translate(-185.329 -225.104)" fill="#e0e0e0"/>
      <path id="Path_51446" data-name="Path 51446" d="M228.857,338.993v1.056h-.688v-1.064L227,337.07h.731l.793,1.314.8-1.314H230Z" transform="translate(-188.516 -225.104)" fill="#e0e0e0"/>
      <path id="Path_51447" data-name="Path 51447" d="M234.51,342.489a.977.977,0,0,1-.118.438l-.241.613h-.438l.184-.679a.364.364,0,0,1-.228-.359.412.412,0,1,1,.823,0Z" transform="translate(-192.264 -227.925)" fill="#e0e0e0"/>
      <path id="Path_51448" data-name="Path 51448" d="M239,338.493a1.642,1.642,0,0,1,2.847-1.012l-.438.407a.958.958,0,1,0-.749,1.559.937.937,0,0,0,.749-.355l.438.407A1.638,1.638,0,0,1,239,338.493Z" transform="translate(-195.26 -225.038)" fill="#e0e0e0"/>
      <path id="Path_51449" data-name="Path 51449" d="M246,338.256a1.634,1.634,0,1,1,1.629,1.542A1.542,1.542,0,0,1,246,338.256Zm2.562,0a.933.933,0,1,0-.933.955.911.911,0,0,0,.942-.955Z" transform="translate(-199.191 -224.801)" fill="#e0e0e0"/>
      <path id="Path_51450" data-name="Path 51450" d="M254.59,338.739V337.07h.688v1.642c0,.565.245.8.666.8s.661-.236.661-.8V337.07h.683v1.669a1.349,1.349,0,1,1-2.7,0Z" transform="translate(-204.022 -225.104)" fill="#e0e0e0"/>
      <path id="Path_51451" data-name="Path 51451" d="M265.033,337.07v2.978h-.565l-1.485-1.809v1.809H262.3V337.07h.569l1.489,1.809V337.07Z" transform="translate(-208.355 -225.104)" fill="#e0e0e0"/>
      <path id="Path_51452" data-name="Path 51452" d="M270.335,337.631h-.955v-.561h2.6v.561h-.955v2.418h-.688Z" transform="translate(-212.334 -225.104)" fill="#e0e0e0"/>
      <path id="Path_51453" data-name="Path 51453" d="M278.051,340.06l-.574-.819h-.635v.828h-.692V337.09h1.314c.793,0,1.292.412,1.292,1.082a.968.968,0,0,1-.613.942l.67.955Zm-.653-2.418h-.561v1.038h.561c.438,0,.635-.193.635-.517S277.836,337.642,277.4,337.642Z" transform="translate(-216.139 -225.115)" fill="#e0e0e0"/>
      <path id="Path_51454" data-name="Path 51454" d="M284.094,338.993v1.056h-.688v-1.064l-1.156-1.914h.731l.8,1.314.8-1.314h.679Z" transform="translate(-219.567 -225.104)" fill="#e0e0e0"/>
    </g>
  </g>
</svg>
