<svg id="Group_6627" data-name="Group 6627" xmlns="http://www.w3.org/2000/svg" width="629.694" height="152.654" viewBox="0 0 629.694 152.654">
  <g id="Group_6626" data-name="Group 6626">
    <path id="Path_11168" data-name="Path 11168" d="M629.5,157.2a.7.7,0,0,1-.984.007c-.5-.492-1-.993-1.48-1.487a.7.7,0,0,1,1-.972c.477.489.967.982,1.461,1.469A.7.7,0,0,1,629.5,157.2Zm-3.879-3.979a.7.7,0,0,1-.982-.045c-.473-.52-.943-1.045-1.4-1.565a.7.7,0,0,1,1.049-.915c.447.511.909,1.031,1.375,1.542A.7.7,0,0,1,625.618,153.218Zm-3.653-4.191a.7.7,0,0,1-.979-.1c-.442-.548-.88-1.1-1.3-1.652a.7.7,0,0,1,1.1-.849c.416.541.847,1.087,1.281,1.626A.694.694,0,0,1,621.964,149.027Zm-3.391-4.412a.694.694,0,0,1-.969-.167c-.405-.576-.805-1.162-1.189-1.739a.695.695,0,1,1,1.158-.769c.377.567.77,1.141,1.169,1.706A.694.694,0,0,1,618.574,144.615Zm-3.076-4.634a.7.7,0,0,1-.955-.24c-.362-.6-.715-1.217-1.054-1.824a.694.694,0,0,1,.27-.946.675.675,0,0,1,.337-.089.7.7,0,0,1,.609.356c.33.595.678,1.2,1.033,1.789A.7.7,0,0,1,615.5,139.981Zm-2.794-4.808a.7.7,0,0,1-.96-.214c-.367-.574-.751-1.149-1.142-1.708a.693.693,0,0,1,.172-.969.684.684,0,0,1,.4-.127.7.7,0,0,1,.572.3c.4.576.8,1.167,1.174,1.758A.7.7,0,0,1,612.7,135.173Zm-3.184-4.554a.7.7,0,0,1-.979-.1c-.428-.529-.875-1.055-1.327-1.567a.7.7,0,0,1,1.043-.922c.464.527.923,1.069,1.365,1.614A.694.694,0,0,1,609.519,130.619Zm-3.68-4.163a.7.7,0,0,1-.984.009c-.483-.476-.988-.951-1.5-1.412a.7.7,0,0,1,.466-1.212.684.684,0,0,1,.466.181c.523.473,1.042.962,1.541,1.45A.7.7,0,0,1,605.84,126.456Zm-150.417-3.834q-.477.005-.955.005c-.388.005-.763,0-1.144-.007a.7.7,0,0,1,.007-1.391h.007q1.036.01,2.073,0h.007a.7.7,0,0,1,.005,1.391Zm5.6-.2c-.7.043-1.4.08-2.1.11a.7.7,0,0,1-.059-1.389c.687-.03,1.382-.066,2.069-.108a.393.393,0,0,1,.045,0,.7.7,0,0,1,.042,1.389Zm-11.19.1c-.694-.031-1.4-.068-2.09-.113a.7.7,0,0,1,.043-1.389.406.406,0,0,1,.045,0c.683.043,1.377.08,2.062.11a.7.7,0,0,1-.061,1.391Zm16.766-.6c-.69.08-1.393.153-2.088.221a.7.7,0,0,1-.132-1.386c.687-.064,1.381-.137,2.061-.217.028,0,.054,0,.082,0a.7.7,0,0,1,.078,1.386Zm-22.345.205c-.692-.066-1.395-.141-2.087-.221a.7.7,0,0,1,.078-1.386c.026,0,.054,0,.082,0,.683.08,1.377.153,2.061.219a.7.7,0,1,1-.134,1.384Zm157.464.591a.7.7,0,0,1-.977.117c-.534-.421-1.085-.838-1.64-1.242a.7.7,0,0,1,.409-1.259.686.686,0,0,1,.407.134c.57.414,1.137.842,1.687,1.273A.7.7,0,0,1,601.715,122.726Zm-129.576-1.586c-.687.117-1.384.228-2.075.33a.7.7,0,0,1-.205-1.375c.682-.1,1.37-.21,2.047-.325a.674.674,0,0,1,.116-.01.7.7,0,0,1,.117,1.381Zm-32.655-.271a.693.693,0,0,1-.789.586c-.69-.1-1.388-.214-2.074-.329a.7.7,0,0,1,.115-1.382.659.659,0,0,1,.116.01c.678.115,1.367.224,2.047.325A.694.694,0,0,1,439.484,120.869Zm38.148-.809c-.68.151-1.37.3-2.054.44a.7.7,0,0,1-.278-1.363c.675-.137,1.356-.283,2.026-.435a.78.78,0,0,1,.153-.017.7.7,0,0,1,.153,1.375ZM434,119.944a.7.7,0,0,1-.819.544c-.682-.137-1.372-.283-2.054-.435a.7.7,0,0,1,.15-1.375.641.641,0,0,1,.151.017c.673.15,1.355.294,2.028.43A.7.7,0,0,1,434,119.944Zm-5.431-1.205a.693.693,0,0,1-.845.5c-.678-.172-1.36-.355-2.029-.539a.7.7,0,0,1,.184-1.367.677.677,0,0,1,.186.026c.661.183,1.334.362,2,.532A.7.7,0,0,1,428.57,118.739Zm54.491-.047c-.671.188-1.353.372-2.029.546a.7.7,0,1,1-.348-1.346c.666-.172,1.339-.355,2-.539a.7.7,0,1,1,.376,1.339Zm114.158.769a.7.7,0,0,1-.96.214c-.574-.363-1.167-.723-1.76-1.069a.7.7,0,1,1,.7-1.2c.609.355,1.215.725,1.8,1.1A.7.7,0,0,1,597.218,119.461Zm-108.8-2.25q-1,.269-2.01.546a.7.7,0,0,1-.369-1.341q1.012-.279,2.017-.548a.656.656,0,0,1,.181-.024.7.7,0,0,1,.181,1.367Zm-65.206.047a.7.7,0,0,1-.871.459c-.664-.207-1.337-.423-2-.642a.7.7,0,0,1,.438-1.322c.652.217,1.316.43,1.974.635A.693.693,0,0,1,423.209,117.258Zm-130.825-.769c-.69-.005-1.395-.014-2.1-.028a.7.7,0,0,1,.014-1.391h.012c.7.014,1.4.023,2.081.028a.7.7,0,1,1-.01,1.391Zm5.584-.04c-.689.016-1.393.028-2.094.035a.7.7,0,1,1-.016-1.391c.7-.007,1.395-.019,2.078-.035h.016a.7.7,0,0,1,.016,1.391Zm-11.167-.085q-1.046-.039-2.092-.087a.7.7,0,0,1,.031-1.391.2.2,0,0,1,.033,0q1.041.047,2.078.087a.7.7,0,0,1-.05,1.389Zm16.756-.132c-.689.038-1.4.073-2.1.1a.7.7,0,0,1-.059-1.389c.7-.03,1.4-.064,2.081-.1h.04a.7.7,0,0,1,.038,1.389Zm288.861.424a.7.7,0,0,1-.936.3c-.605-.31-1.228-.614-1.852-.906a.7.7,0,0,1,.3-1.325.688.688,0,0,1,.294.066c.638.3,1.276.609,1.9.925A.7.7,0,0,1,592.417,116.656Zm-311.192-.572q-1.043-.068-2.088-.144a.695.695,0,0,1,.05-1.388.522.522,0,0,1,.052,0q1.038.076,2.074.141a.7.7,0,0,1-.089,1.389Zm212.563-.266c-.671.167-1.342.339-2.017.511a.7.7,0,1,1-.348-1.346q1.017-.263,2.028-.515a.623.623,0,0,1,.169-.021.7.7,0,0,1,.169,1.37Zm-184.647.009c-.69.063-1.4.122-2.094.176a.7.7,0,1,1-.106-1.388c.692-.054,1.389-.111,2.075-.174.023,0,.043,0,.064,0a.7.7,0,0,1,.061,1.388Zm-33.48-.169q-1.041-.091-2.083-.195a.7.7,0,0,1,.066-1.388c.023,0,.047,0,.07,0,.692.068,1.381.132,2.071.193a.7.7,0,1,1-.123,1.386Zm39.048-.435c-.687.087-1.389.172-2.087.25a.7.7,0,0,1-.156-1.382c.692-.078,1.388-.162,2.068-.249a.758.758,0,0,1,.089-.005.7.7,0,0,1,.087,1.386Zm103.22.285a.7.7,0,0,1-.894.412c-.654-.24-1.315-.489-1.963-.741a.7.7,0,0,1,.252-1.344.718.718,0,0,1,.252.047c.64.249,1.292.5,1.939.732A.7.7,0,0,1,417.929,115.508Zm-147.05-1.024a.694.694,0,0,1-.769.614q-1.038-.117-2.078-.242a.7.7,0,1,1,.167-1.382q1.036.125,2.066.242A.7.7,0,0,1,270.879,114.484Zm228.3.031q-1.009.235-2.026.476a.7.7,0,0,1-.323-1.353c.68-.162,1.36-.322,2.035-.478a.714.714,0,0,1,.158-.019.7.7,0,0,1,.156,1.374Zm-178.936-.1c-.687.115-1.386.226-2.073.329a.7.7,0,1,1-.209-1.375c.682-.1,1.372-.212,2.054-.325a.64.64,0,0,1,.115-.01.7.7,0,0,1,.113,1.382Zm-54.891-.595a.7.7,0,0,1-.783.6c-.689-.092-1.381-.188-2.071-.287a.7.7,0,0,1,.1-1.384.635.635,0,0,1,.1.007q1.03.146,2.061.285A.7.7,0,0,1,265.356,113.816Zm322.029.478a.7.7,0,0,1-.908.383c-.631-.256-1.278-.508-1.923-.749a.7.7,0,0,1,.485-1.3c.659.247,1.318.5,1.963.765A.7.7,0,0,1,587.385,114.295ZM0,113.1v-.527A.7.7,0,0,1,0,113.1Zm325.746.283c-.68.141-1.372.28-2.059.412a.7.7,0,0,1-.263-1.367c.68-.13,1.365-.268,2.038-.407a.675.675,0,0,1,.143-.016.7.7,0,0,1,.141,1.377ZM504.6,113.31q-1.015.216-2.034.44a.7.7,0,0,1-.3-1.358q1.025-.227,2.045-.442a.7.7,0,1,1,.289,1.36Zm-244.753-.28a.7.7,0,0,1-.795.581q-1.03-.159-2.066-.329a.7.7,0,0,1,.111-1.382.825.825,0,0,1,.113.009c.687.113,1.372.221,2.055.329A.7.7,0,0,1,259.849,113.03Zm152.895.463a.7.7,0,0,1-.913.369c-.642-.273-1.288-.556-1.923-.84a.7.7,0,1,1,.569-1.269c.626.28,1.266.558,1.9.828A.7.7,0,0,1,412.744,113.493Zm-158.386-1.356a.7.7,0,0,1-.805.565q-1.028-.18-2.057-.367a.7.7,0,0,1,.124-1.381.623.623,0,0,1,.125.012q1.025.185,2.048.365A.7.7,0,0,1,254.358,112.137Zm255.684.075q-1.017.2-2.041.4a.7.7,0,1,1-.273-1.363q1.03-.206,2.054-.4a.665.665,0,0,1,.13-.014.7.7,0,0,1,.13,1.379Zm72.134.139a.7.7,0,0,1-.875.45c-.652-.209-1.316-.412-1.977-.605a.7.7,0,0,1,.195-1.363.685.685,0,0,1,.195.028c.673.2,1.349.4,2.012.616A.7.7,0,0,1,582.175,112.351ZM331.2,112.128c-.675.17-1.36.337-2.04.5a.7.7,0,0,1-.318-1.355c.671-.158,1.351-.323,2.017-.492a.725.725,0,0,1,.17-.021.7.7,0,0,1,.17,1.37Zm-82.317-.988a.7.7,0,0,1-.816.551q-1.025-.2-2.052-.4a.7.7,0,0,1,.136-1.379.751.751,0,0,1,.137.014q1.022.2,2.043.4A.7.7,0,0,1,248.886,111.14Zm266.616.085q-1.02.172-2.05.356a.7.7,0,0,1-.243-1.37q1.036-.183,2.061-.358a.679.679,0,0,1,.118-.01.7.7,0,0,1,.115,1.382Zm61.336-.436a.7.7,0,0,1-.842.508c-.663-.165-1.341-.325-2.015-.475a.7.7,0,0,1,.151-1.375.665.665,0,0,1,.153.017c.685.153,1.374.315,2.047.482A.7.7,0,0,1,576.837,110.789Zm-169.171.431a.7.7,0,0,1-.93.322c-.626-.3-1.257-.619-1.878-.936a.7.7,0,0,1,.316-1.316.683.683,0,0,1,.315.077c.612.313,1.238.623,1.855.923A.7.7,0,0,1,407.666,111.22Zm-71.073-.577c-.664.2-1.342.4-2.014.584a.7.7,0,0,1-.376-1.339c.663-.186,1.334-.381,1.991-.577a.663.663,0,0,1,.2-.03.7.7,0,0,1,.2,1.362Zm184.388-.283q-1.025.149-2.057.31a.7.7,0,1,1-.214-1.374q1.041-.162,2.069-.313a.678.678,0,0,1,.1-.007.7.7,0,0,1,.1,1.384Zm-277.552-.308a.694.694,0,0,1-.824.537q-1.02-.214-2.043-.435a.7.7,0,0,1,.146-1.375.724.724,0,0,1,.148.016q1.02.219,2.036.435A.693.693,0,0,1,243.429,110.052Zm327.981-.478a.693.693,0,0,1-.81.556c-.671-.123-1.356-.245-2.042-.356a.7.7,0,0,1,.113-1.382.848.848,0,0,1,.113.009c.694.115,1.389.236,2.069.363A.694.694,0,0,1,571.41,109.574Zm-44.933.05q-1.028.125-2.062.259a.7.7,0,1,1-.181-1.379q1.043-.136,2.076-.261a.7.7,0,1,1,.167,1.381ZM3.668,109.262c-.487.494-.972.995-1.445,1.492a.695.695,0,1,1-1.007-.958c.476-.5.969-1.01,1.459-1.511a.7.7,0,0,1,.5-.207.7.7,0,0,1,.5,1.184Zm528.321-.231q-1.03.1-2.069.205a.7.7,0,0,1-.144-1.384q1.049-.11,2.083-.207c.023,0,.045,0,.066,0a.7.7,0,0,1,.064,1.389Zm33.933-.362a.7.7,0,0,1-.779.6c-.68-.089-1.372-.174-2.059-.25a.7.7,0,0,1,.077-1.388.591.591,0,0,1,.078.005c.7.078,1.4.163,2.085.254A.693.693,0,0,1,565.922,108.669Zm-224.011.254c-.652.228-1.32.454-1.984.673a.7.7,0,0,1-.435-1.322c.656-.216,1.316-.44,1.961-.664a.706.706,0,0,1,.23-.038.695.695,0,0,1,.228,1.351Zm-103.919-.047a.7.7,0,0,1-.831.525q-1.02-.23-2.038-.466a.695.695,0,0,1,.157-1.372.71.71,0,0,1,.158.017q1.015.235,2.029.464A.7.7,0,0,1,237.991,108.876Zm299.524-.287c-.685.045-1.382.094-2.073.146a.695.695,0,1,1-.106-1.386c.7-.054,1.4-.1,2.088-.148l.045,0a.7.7,0,0,1,.045,1.389Zm22.129.094c-.682-.057-1.379-.11-2.069-.155a.7.7,0,0,1,.045-1.389.422.422,0,0,1,.047,0c.7.045,1.4.1,2.092.156a.7.7,0,1,1-.115,1.386Zm-16.6-.365c-.682.023-1.381.05-2.075.082a.7.7,0,0,1-.064-1.389c.7-.033,1.405-.061,2.094-.083h.024a.7.7,0,0,1,.021,1.391Zm11.073.026c-.682-.028-1.381-.05-2.075-.068a.7.7,0,0,1,.017-1.391h.017c.7.019,1.407.042,2.1.07a.7.7,0,1,1-.056,1.389Zm-5.533-.115h-.276q-.9,0-1.8.01H546.5a.7.7,0,0,1-.007-1.391q.913-.01,1.817-.01h.278a.7.7,0,0,1,0,1.391Zm-145.878.464a.7.7,0,0,1-.946.275c-.614-.337-1.229-.683-1.829-1.029a.7.7,0,1,1,.694-1.205c.593.341,1.2.682,1.807,1.016A.7.7,0,0,1,402.711,108.694Zm-170.139-1.071a.7.7,0,0,1-.838.513q-1.015-.245-2.031-.494a.7.7,0,0,1,.165-1.372.686.686,0,0,1,.167.021q1.012.248,2.024.492A.7.7,0,0,1,232.571,107.622Zm114.572-.654c-.643.257-1.3.513-1.949.76a.7.7,0,1,1-.5-1.3c.643-.245,1.292-.5,1.928-.753a.678.678,0,0,1,.257-.05.7.7,0,0,1,.259,1.342Zm-119.974-.675a.7.7,0,0,1-.845.5q-1.012-.258-2.024-.52a.7.7,0,0,1,.174-1.37.771.771,0,0,1,.176.023q1.009.263,2.017.518A.7.7,0,0,1,227.169,106.294ZM7.637,105.4c-.5.471-1.012.953-1.508,1.429a.7.7,0,0,1-.965-1c.5-.482,1.014-.967,1.525-1.443a.7.7,0,1,1,.948,1.017Zm390.25.523a.7.7,0,0,1-.956.226c-.593-.367-1.191-.744-1.775-1.122a.695.695,0,0,1,.377-1.28.68.68,0,0,1,.376.111c.579.372,1.168.744,1.753,1.106A.7.7,0,0,1,397.887,105.922Zm-176.1-1.024a.7.7,0,0,1-.852.492l-2.017-.544a.7.7,0,0,1,.183-1.367.732.732,0,0,1,.183.024q1.007.274,2.012.543A.7.7,0,0,1,221.783,104.9Zm130.493-.122c-.631.287-1.275.572-1.911.849a.7.7,0,0,1-.555-1.276c.631-.273,1.266-.555,1.89-.838a.679.679,0,0,1,.287-.063.7.7,0,0,1,.289,1.329Zm-135.861-1.337a.7.7,0,0,1-.857.482q-1-.279-2.012-.565a.7.7,0,0,1,.19-1.365.711.711,0,0,1,.19.026q1,.284,2.007.565A.7.7,0,0,1,216.415,103.439Zm140.89-1.092c-.617.316-1.249.633-1.874.941a.7.7,0,1,1-.612-1.25c.617-.3,1.242-.616,1.854-.929a.685.685,0,0,1,.316-.077.7.7,0,0,1,.316,1.315Zm35.908.56a.7.7,0,0,1-.969.177c-.572-.4-1.149-.8-1.716-1.212a.7.7,0,0,1,.814-1.129c.558.4,1.129.805,1.694,1.195A.7.7,0,0,1,393.213,102.907Zm-381.448-1.2c-.522.447-1.049.906-1.565,1.363a.7.7,0,1,1-.922-1.042c.522-.463,1.054-.925,1.581-1.379a.7.7,0,0,1,.454-.167.7.7,0,0,1,.452,1.224Zm199.3.216a.693.693,0,0,1-.861.473q-1-.29-2-.584a.7.7,0,0,1,.195-1.363.688.688,0,0,1,.2.028q1,.295,2,.584A.7.7,0,0,1,211.061,101.922Zm-5.337-1.57a.694.694,0,0,1-.866.466q-1-.3-2-.6a.7.7,0,0,1,.2-1.362.676.676,0,0,1,.2.031q1,.3,2,.6A.7.7,0,0,1,205.725,100.352Zm156.5-.669c-.605.346-1.221.692-1.831,1.026a.7.7,0,1,1-.669-1.219c.6-.33,1.212-.673,1.81-1.014a.687.687,0,0,1,.344-.092.7.7,0,0,1,.346,1.3Zm26.473-.028a.7.7,0,0,1-.975.127c-.553-.428-1.108-.864-1.65-1.3a.7.7,0,0,1,.871-1.085c.534.43,1.082.861,1.629,1.282A.7.7,0,0,1,388.7,99.655Zm-188.3-.918a.693.693,0,0,1-.869.457q-1-.308-1.995-.621a.695.695,0,0,1,.209-1.358.72.72,0,0,1,.207.031q1,.31,1.991.619A.7.7,0,0,1,200.4,98.737Zm-184.36-.551c-.541.428-1.087.866-1.619,1.3a.7.7,0,0,1-.88-1.08c.539-.438,1.09-.88,1.636-1.313a.7.7,0,1,1,.863,1.092Zm179.051-1.111a.7.7,0,0,1-.875.452q-.994-.316-1.988-.635a.7.7,0,0,1,.424-1.325l1.986.635A.7.7,0,0,1,195.091,97.074ZM367.015,96.8c-.59.372-1.188.746-1.782,1.108a.7.7,0,0,1-.725-1.186c.588-.36,1.181-.729,1.762-1.1a.7.7,0,0,1,.96.214A.7.7,0,0,1,367.015,96.8Zm-177.22-1.422a.7.7,0,0,1-.878.447l-1.984-.65a.7.7,0,0,1,.217-1.356.737.737,0,0,1,.217.035l1.981.649A.7.7,0,0,1,189.795,95.374Zm194.565.8a.7.7,0,0,1-.981.075c-.53-.454-1.061-.92-1.581-1.384a.7.7,0,0,1,.929-1.036c.511.457,1.036.916,1.558,1.365A.7.7,0,0,1,384.36,96.172Zm-363.9-1.328c-.556.4-1.118.817-1.671,1.233a.7.7,0,0,1-.835-1.115c.558-.417,1.127-.836,1.688-1.245a.7.7,0,1,1,.817,1.127Zm351.211-1.151c-.57.4-1.151.8-1.728,1.188a.7.7,0,1,1-.777-1.153c.569-.384,1.144-.779,1.708-1.174a.7.7,0,0,1,.8,1.139Zm-187.158-.054a.7.7,0,0,1-.88.44l-1.981-.663a.7.7,0,0,1,.221-1.355.664.664,0,0,1,.223.037l1.977.661A.7.7,0,0,1,184.509,93.638ZM25,91.684c-.575.383-1.155.774-1.721,1.163a.7.7,0,0,1-.788-1.148c.572-.393,1.158-.788,1.739-1.174A.7.7,0,0,1,25,91.684Zm154.22.181a.7.7,0,0,1-.882.435l-1.984-.675a.7.7,0,0,1,.226-1.355.684.684,0,0,1,.224.038l1.98.675A.7.7,0,0,1,179.222,91.865Zm200.99.6a.7.7,0,0,1-.983.021c-.506-.485-1.012-.979-1.5-1.468a.7.7,0,1,1,.982-.986c.483.483.983.97,1.482,1.448A.7.7,0,0,1,380.213,92.465Zm-4.038-2.08c-.551.423-1.115.849-1.673,1.264a.7.7,0,1,1-.829-1.118c.553-.41,1.109-.831,1.655-1.25a.7.7,0,0,1,.847,1.1ZM173.942,90.06a.7.7,0,0,1-.885.431q-.989-.342-1.979-.685a.7.7,0,0,1,.456-1.315q.989.344,1.977.685A.7.7,0,0,1,173.942,90.06ZM29.675,88.717c-.588.355-1.182.722-1.767,1.089a.695.695,0,1,1-.739-1.177c.589-.372,1.191-.743,1.784-1.1a.7.7,0,0,1,.722,1.191Zm138.994-.487a.7.7,0,0,1-.887.426l-1.975-.692a.7.7,0,0,1,.231-1.353.658.658,0,0,1,.229.04q.989.347,1.975.692A.7.7,0,0,1,168.669,88.23Zm207.607.3a.7.7,0,0,1-.984-.033c-.478-.511-.955-1.033-1.417-1.551a.7.7,0,1,1,1.036-.927c.456.509.927,1.022,1.4,1.528A.7.7,0,0,1,376.276,88.535Zm4.259-1.65c-.532.445-1.076.9-1.617,1.334a.7.7,0,1,1-.876-1.08c.536-.435,1.073-.878,1.6-1.32a.7.7,0,1,1,.894,1.066Zm-217.129-.506a.694.694,0,0,1-.887.423q-.986-.35-1.974-.7a.7.7,0,1,1,.468-1.309l1.97.7A.7.7,0,0,1,163.406,86.379Zm-128.938-.43c-.6.33-1.212.671-1.81,1.014a.7.7,0,0,1-.69-1.209c.605-.346,1.222-.69,1.831-1.024a.684.684,0,0,1,.334-.087.7.7,0,0,1,.336,1.306Zm123.683-1.442a.7.7,0,0,1-.889.421l-1.97-.708a.7.7,0,0,1,.235-1.351.707.707,0,0,1,.237.042q.983.355,1.968.706A.7.7,0,0,1,158.151,84.508ZM39.373,83.388c-.619.306-1.242.621-1.852.936a.7.7,0,1,1-.638-1.236c.617-.318,1.247-.636,1.873-.946a.7.7,0,1,1,.617,1.247Zm345.37-.184c-.513.468-1.038.939-1.56,1.4a.7.7,0,1,1-.922-1.043c.516-.457,1.036-.923,1.544-1.386a.7.7,0,1,1,.937,1.028Zm-12.177,1.188a.7.7,0,0,1-.981-.09c-.447-.537-.894-1.085-1.325-1.629a.7.7,0,1,1,1.089-.866c.426.536.866,1.076,1.306,1.6A.7.7,0,0,1,372.565,84.391ZM152.9,82.621a.7.7,0,0,1-.892.417l-1.967-.713a.7.7,0,0,1,.236-1.349.668.668,0,0,1,.238.042l1.965.711A.7.7,0,0,1,152.9,82.621ZM44.384,81.044c-.629.276-1.266.565-1.89.852a.7.7,0,0,1-.584-1.262c.633-.292,1.276-.583,1.913-.862a.7.7,0,1,1,.562,1.273Zm103.277-.325a.693.693,0,0,1-.89.416l-1.967-.716a.7.7,0,0,1,.24-1.349.678.678,0,0,1,.238.043l1.963.715A.7.7,0,0,1,147.662,80.718ZM388.8,79.357c-.494.489-1,.979-1.5,1.461a.695.695,0,1,1-.962-1c.5-.476,1-.963,1.487-1.448a.7.7,0,0,1,.977.991Zm-339.3-.435c-.64.249-1.289.508-1.927.769a.695.695,0,0,1-.525-1.287c.645-.264,1.3-.525,1.948-.777a.684.684,0,0,1,.252-.049.7.7,0,0,1,.252,1.344Zm92.934-.108a.7.7,0,0,1-.887.426c-.649-.228-1.309-.454-1.965-.675a.7.7,0,0,1,.223-1.356.657.657,0,0,1,.221.038c.661.223,1.329.45,1.982.68A.7.7,0,0,1,142.428,78.814ZM369.1,80.037a.7.7,0,0,1-.972-.146c-.416-.563-.828-1.137-1.228-1.708a.7.7,0,1,1,1.139-.8c.393.56.8,1.125,1.208,1.68A.7.7,0,0,1,369.1,80.037Zm-314.409-3c-.652.221-1.311.449-1.96.68a.7.7,0,0,1-.468-1.309c.656-.235,1.322-.466,1.982-.689a.7.7,0,1,1,.445,1.318Zm82.463,0a.7.7,0,0,1-.871.456c-.663-.209-1.33-.414-1.986-.61a.7.7,0,0,1,.2-1.363.724.724,0,0,1,.2.03c.661.2,1.335.407,2,.617A.7.7,0,0,1,137.155,77.037ZM392.7,75.354c-.476.509-.963,1.021-1.443,1.518a.7.7,0,0,1-1-.965c.476-.494.958-1,1.431-1.5a.7.7,0,1,1,1.014.951ZM59.97,75.382c-.661.19-1.329.39-1.987.591a.7.7,0,0,1-.409-1.33c.668-.2,1.344-.405,2.012-.6a.74.74,0,0,1,.193-.028.7.7,0,0,1,.191,1.365Zm71.858.056a.7.7,0,0,1-.855.483c-.666-.184-1.341-.367-2-.541a.7.7,0,0,1,.177-1.368.709.709,0,0,1,.177.023c.669.176,1.349.36,2.022.546A.7.7,0,0,1,131.827,75.438Zm-5.378-1.415a.7.7,0,0,1-.838.515c-.675-.162-1.355-.32-2.024-.469a.7.7,0,0,1,.153-1.375.779.779,0,0,1,.153.017c.675.151,1.362.311,2.041.475A.7.7,0,0,1,126.449,74.022Zm-61.13-.049c-.669.16-1.348.329-2.014.5a.7.7,0,0,1-.346-1.348c.673-.172,1.358-.343,2.034-.5a.666.666,0,0,1,.163-.019.7.7,0,0,1,.162,1.372Zm300.588,1.511a.7.7,0,0,1-.962-.207c-.381-.589-.758-1.189-1.12-1.781a.7.7,0,1,1,1.186-.727c.358.583.729,1.172,1.1,1.753A.7.7,0,0,1,365.907,75.484ZM121.022,72.8a.7.7,0,0,1-.819.546c-.678-.136-1.363-.268-2.04-.393a.7.7,0,0,1,.127-1.381.785.785,0,0,1,.127.012c.682.127,1.375.261,2.059.4A.7.7,0,0,1,121.022,72.8Zm-50.3.01c-.676.129-1.362.266-2.034.407a.7.7,0,0,1-.285-1.363c.682-.141,1.374-.28,2.057-.41a.7.7,0,0,1,.263,1.367Zm44.827-1.024a.7.7,0,0,1-.8.577c-.683-.11-1.374-.216-2.052-.315a.7.7,0,0,1,.1-1.384c.033,0,.066,0,.1.007.685.1,1.382.207,2.073.318A.7.7,0,0,1,115.552,71.788ZM76.178,71.9c-.68.1-1.37.2-2.05.313a.7.7,0,1,1-.223-1.374c.69-.111,1.388-.217,2.074-.316a.987.987,0,0,1,.1-.007.7.7,0,0,1,.1,1.384Zm320.264-.7c-.45.522-.916,1.052-1.384,1.577a.7.7,0,1,1-1.038-.927c.463-.52.923-1.043,1.368-1.56a.7.7,0,0,1,1.054.909Zm-286.4-.214a.7.7,0,0,1-.772.609c-.689-.083-1.382-.16-2.062-.231a.7.7,0,0,1,.07-1.388c.024,0,.049,0,.073,0,.689.071,1.391.15,2.085.233A.7.7,0,0,1,110.046,70.988Zm-28.379.249c-.687.068-1.381.141-2.062.219a.695.695,0,1,1-.158-1.381c.689-.08,1.391-.155,2.085-.223.023,0,.047,0,.07,0a.7.7,0,0,1,.066,1.388Zm22.1-.186c-.687-.054-1.384-.1-2.071-.146a.7.7,0,0,1,.043-1.389.379.379,0,0,1,.043,0c.694.043,1.4.092,2.092.146a.7.7,0,1,1-.108,1.388Zm-16.585-.226c-.685.037-1.382.078-2.069.125a.7.7,0,0,1-.1-1.388c.7-.047,1.4-.09,2.094-.127h.038a.7.7,0,0,1,.035,1.389Zm11.061-.089c-.692-.024-1.389-.043-2.074-.057a.7.7,0,0,1,.014-1.391H96.2c.692.014,1.4.033,2.1.057a.7.7,0,0,1-.049,1.391Zm-5.531-.077c-.687.005-1.386.016-2.074.033A.7.7,0,0,1,90.6,69.3c.7-.017,1.4-.028,2.1-.033H92.7a.7.7,0,0,1,.007,1.391ZM363,70.741a.7.7,0,0,1-.946-.27c-.341-.612-.678-1.233-1-1.85a.7.7,0,1,1,1.231-.647c.318.607.65,1.219.986,1.821A.7.7,0,0,1,363,70.741ZM400,66.882c-.424.543-.864,1.1-1.309,1.642a.7.7,0,0,1-1.078-.878c.438-.539.873-1.085,1.292-1.621a.7.7,0,0,1,1.1.857Zm-39.58-1.066a.7.7,0,0,1-.927-.332c-.3-.633-.593-1.278-.873-1.914a.7.7,0,1,1,1.273-.56c.275.624.565,1.257.859,1.88A.7.7,0,0,1,360.418,65.816Zm42.909-3.438c-.391.563-.8,1.141-1.217,1.711a.7.7,0,1,1-1.125-.819c.41-.563.814-1.13,1.2-1.687a.7.7,0,0,1,1.142.795Zm-45.152-1.65a.7.7,0,0,1-.9-.4c-.254-.654-.5-1.316-.736-1.972a.7.7,0,0,1,.421-.89.731.731,0,0,1,.235-.04.7.7,0,0,1,.654.461c.231.643.473,1.3.723,1.937A.7.7,0,0,1,358.174,60.728Zm48.2-3.059c-.355.593-.725,1.195-1.1,1.791a.7.7,0,0,1-1.174-.746c.372-.586.737-1.177,1.085-1.76a.7.7,0,1,1,1.193.715ZM356.305,55.5a.7.7,0,0,1-.869-.461c-.205-.666-.4-1.344-.586-2.015a.7.7,0,0,1,.485-.856.672.672,0,0,1,.184-.024.7.7,0,0,1,.671.51c.181.659.374,1.323.576,1.977A.7.7,0,0,1,356.305,55.5Zm52.763-2.761c-.306.621-.631,1.252-.963,1.876a.7.7,0,0,1-1.228-.656c.327-.612.643-1.229.943-1.835a.7.7,0,0,1,1.248.614ZM354.83,50.154a.7.7,0,0,1-.831-.525c-.155-.683-.3-1.375-.431-2.057a.7.7,0,0,1,.549-.816.715.715,0,0,1,.134-.014.7.7,0,0,1,.682.563c.13.669.273,1.348.423,2.017A.694.694,0,0,1,354.83,50.154Zm56.481-2.575c-.243.649-.506,1.309-.781,1.963A.7.7,0,0,1,409.249,49c.268-.638.523-1.282.76-1.913a.7.7,0,0,1,.652-.452.708.708,0,0,1,.243.045A.694.694,0,0,1,411.311,47.579Zm1.666-5.392c-.162.675-.346,1.363-.546,2.048a.7.7,0,0,1-1.335-.393c.195-.663.372-1.329.529-1.981a.7.7,0,0,1,.676-.534.658.658,0,0,1,.163.021A.693.693,0,0,1,412.977,42.187ZM353.772,44.7a.693.693,0,0,1-.786-.589c-.1-.7-.188-1.4-.266-2.088a.7.7,0,0,1,.614-.769.593.593,0,0,1,.078-.005.7.7,0,0,1,.69.619c.077.676.163,1.365.261,2.047A.7.7,0,0,1,353.772,44.7Zm59.882-5.989a.7.7,0,1,1-1.375-.2c.1-.68.179-1.362.238-2.029a.694.694,0,0,1,.692-.636c.019,0,.04,0,.061,0a.7.7,0,0,1,.633.755C413.841,37.3,413.758,38.008,413.653,38.714Zm-60.5.463a.7.7,0,0,1-.737-.652c-.042-.7-.073-1.41-.092-2.108A.7.7,0,0,1,353,35.7h.021a.7.7,0,0,1,.694.675c.021.685.05,1.381.092,2.066A.7.7,0,0,1,353.156,39.177Zm60.183-5.411h-.016a.7.7,0,0,1-.7-.68c-.014-.682-.054-1.365-.117-2.031a.7.7,0,0,1,.628-.756c.023,0,.043,0,.066,0a.7.7,0,0,1,.692.631c.064.7.106,1.414.122,2.128A.7.7,0,0,1,413.339,33.765Zm-59.619-.823a.7.7,0,1,1-1.391-.054c.028-.713.075-1.426.139-2.116a.7.7,0,0,1,.692-.631c.021,0,.044,0,.064,0a.7.7,0,0,1,.628.758C353.791,31.567,353.745,32.254,353.719,32.943Zm59.1-4.7a.7.7,0,0,1-.829-.529c-.148-.661-.322-1.32-.518-1.961a.693.693,0,0,1,.459-.868.708.708,0,0,1,.205-.031.7.7,0,0,1,.664.49c.209.676.393,1.372.548,2.068A.7.7,0,0,1,412.817,28.239Zm-58.023-2.692c-.172.647-.327,1.315-.459,1.986a.7.7,0,0,1-1.365-.268c.139-.7.3-1.4.48-2.076a.7.7,0,0,1,.671-.516.647.647,0,0,1,.181.024A.7.7,0,0,1,354.794,25.547Zm56.39-2.614a.7.7,0,0,1-.923-.337c-.283-.612-.595-1.217-.927-1.8a.7.7,0,1,1,1.21-.687c.351.619.68,1.261.979,1.9A.7.7,0,0,1,411.184,22.934Zm-54.5-2.455c-.3.6-.574,1.222-.828,1.854a.7.7,0,0,1-1.29-.518c.266-.664.56-1.32.871-1.951a.7.7,0,1,1,1.247.616Zm51.76-2.375a.7.7,0,0,1-.974-.132c-.405-.534-.84-1.062-1.292-1.568a.7.7,0,0,1,1.04-.925c.475.534.932,1.09,1.36,1.652A.7.7,0,0,1,408.447,18.1ZM359.59,15.929c-.423.522-.828,1.071-1.205,1.629a.7.7,0,0,1-1.153-.781c.4-.589.829-1.169,1.275-1.721a.692.692,0,0,1,.541-.259.7.7,0,0,1,.543,1.132Zm45.166-1.975a.7.7,0,0,1-.981.066c-.5-.442-1.036-.875-1.579-1.285a.7.7,0,0,1,.84-1.109c.569.431,1.125.883,1.655,1.346A.7.7,0,0,1,404.756,13.954Zm-41.335-1.819c-.529.419-1.045.862-1.535,1.322a.7.7,0,1,1-.949-1.016c.516-.485,1.062-.955,1.621-1.4a.7.7,0,1,1,.864,1.09ZM400.328,10.6a.7.7,0,0,1-.953.243c-.579-.343-1.179-.673-1.788-.982a.7.7,0,0,1,.316-1.316.683.683,0,0,1,.315.077c.635.322,1.262.668,1.866,1.024A.7.7,0,0,1,400.328,10.6ZM367.987,9.249c-.607.3-1.207.628-1.784.97a.7.7,0,0,1-.711-1.195c.607-.362,1.24-.706,1.878-1.022a.7.7,0,1,1,.617,1.247ZM395.378,8.08a.7.7,0,0,1-.9.4c-.631-.243-1.28-.471-1.928-.676a.7.7,0,0,1,.21-1.36.682.682,0,0,1,.21.033c.675.216,1.351.452,2.007.706A.7.7,0,0,1,395.378,8.08Zm-22.322-.765c-.657.183-1.311.39-1.944.614a.7.7,0,1,1-.464-1.311c.663-.235,1.348-.45,2.036-.643a.684.684,0,0,1,.186-.024.7.7,0,0,1,.186,1.365Zm17.025-.922a.7.7,0,0,1-.826.534c-.663-.143-1.341-.266-2.012-.37a.7.7,0,0,1,.106-1.382.722.722,0,0,1,.106.007c.7.11,1.4.238,2.092.386A.7.7,0,0,1,390.081,6.393ZM378.4,6.313c-.678.07-1.36.16-2.028.27a.7.7,0,0,1-.224-1.372c.694-.115,1.405-.209,2.111-.282.024,0,.047,0,.071,0a.7.7,0,0,1,.07,1.388Zm5.448-.115c-.664-.038-1.339-.057-2-.057h-.042a.7.7,0,1,1,0-1.391h.042c.69,0,1.391.019,2.083.059a.7.7,0,0,1-.08,1.389Z" transform="translate(-0.003 -4.75)" fill="#f2e4ef" opacity="0.512"/>
  </g>
</svg>
