<svg xmlns="http://www.w3.org/2000/svg" xmlns:xlink="http://www.w3.org/1999/xlink" width="328.305" height="179.017" viewBox="0 0 328.305 179.017">
  <defs>
    <clipPath id="clip-path">
      <circle id="Ellipse_828" data-name="Ellipse 828" cx="15.685" cy="15.685" r="15.685" transform="matrix(0.974, -0.228, 0.228, 0.974, 2415.648, 2214.067)" fill="none"/>
    </clipPath>
    <clipPath id="clip-path-2">
      <circle id="Ellipse_830" data-name="Ellipse 830" cx="15.685" cy="15.685" r="15.685" transform="translate(2358.919 2273.412) rotate(-45)" fill="none"/>
    </clipPath>
    <clipPath id="clip-path-3">
      <circle id="Ellipse_832" data-name="Ellipse 832" cx="15.685" cy="15.685" r="15.685" transform="translate(2412.926 2325.525) rotate(-58.517)" fill="none"/>
    </clipPath>
  </defs>
  <g id="Group_16803" data-name="Group 16803" transform="translate(-2302.242 -2188.997)">
    <path id="Path_24080" data-name="Path 24080" d="M2630.547,2359.191c0-4.872-73.493-8.822-164.152-8.822s-164.153,3.95-164.153,8.822,73.493,8.823,164.153,8.823S2630.547,2364.064,2630.547,2359.191Z" fill="#e6f8ff"/>
    <g id="Group_16754" data-name="Group 16754">
      <rect id="Rectangle_5542" data-name="Rectangle 5542" width="122.154" height="38.681" rx="7.292" transform="translate(2409.506 2205.845)" fill="#fff"/>
      <g id="Group_16753" data-name="Group 16753">
        <g id="Group_16746" data-name="Group 16746">
          <g id="Group_16745" data-name="Group 16745">
            <path id="Path_24081" data-name="Path 24081" d="M2463.468,2218.748l.753,2.316a.392.392,0,0,0,.373.271h2.435a.392.392,0,0,1,.231.709l-1.97,1.432a.392.392,0,0,0-.143.438l.752,2.316a.392.392,0,0,1-.6.439l-1.97-1.432a.391.391,0,0,0-.461,0l-1.97,1.432a.393.393,0,0,1-.6-.439l.752-2.316a.391.391,0,0,0-.142-.438l-1.97-1.432a.392.392,0,0,1,.231-.709h2.435a.393.393,0,0,0,.373-.271l.752-2.316A.392.392,0,0,1,2463.468,2218.748Z" fill="#fbbe42"/>
            <path id="Path_24082" data-name="Path 24082" d="M2476.978,2218.748l.753,2.316a.392.392,0,0,0,.373.271h2.435a.392.392,0,0,1,.23.709l-1.97,1.432a.392.392,0,0,0-.142.438l.752,2.316a.392.392,0,0,1-.6.439l-1.97-1.432a.393.393,0,0,0-.462,0l-1.969,1.432a.393.393,0,0,1-.6-.439l.752-2.316a.391.391,0,0,0-.142-.438l-1.97-1.432a.392.392,0,0,1,.23-.709h2.435a.394.394,0,0,0,.374-.271l.752-2.316A.392.392,0,0,1,2476.978,2218.748Z" fill="#fbbe42"/>
            <path id="Path_24083" data-name="Path 24083" d="M2490.488,2218.748l.752,2.316a.394.394,0,0,0,.373.271h2.436a.392.392,0,0,1,.23.709l-1.97,1.432a.392.392,0,0,0-.142.438l.752,2.316a.393.393,0,0,1-.6.439l-1.97-1.432a.391.391,0,0,0-.461,0l-1.97,1.432a.392.392,0,0,1-.6-.439l.752-2.316a.391.391,0,0,0-.142-.438l-1.97-1.432a.392.392,0,0,1,.23-.709h2.435a.392.392,0,0,0,.373-.271l.753-2.316A.392.392,0,0,1,2490.488,2218.748Z" fill="#fbbe42"/>
            <path id="Path_24084" data-name="Path 24084" d="M2504,2218.748l.752,2.316a.393.393,0,0,0,.373.271h2.435a.392.392,0,0,1,.231.709l-1.97,1.432a.392.392,0,0,0-.143.438l.753,2.316a.393.393,0,0,1-.6.439l-1.97-1.432a.391.391,0,0,0-.461,0l-1.97,1.432a.393.393,0,0,1-.6-.439l.753-2.316a.392.392,0,0,0-.143-.438l-1.97-1.432a.392.392,0,0,1,.231-.709h2.435a.392.392,0,0,0,.373-.271l.753-2.316A.392.392,0,0,1,2504,2218.748Z" fill="#fbbe42"/>
            <path id="Path_24085" data-name="Path 24085" d="M2517.507,2218.748l.753,2.316a.392.392,0,0,0,.373.271h2.435a.392.392,0,0,1,.231.709l-1.97,1.432a.392.392,0,0,0-.143.438l.753,2.316a.393.393,0,0,1-.6.439l-1.97-1.432a.391.391,0,0,0-.461,0l-1.97,1.432a.393.393,0,0,1-.6-.439l.753-2.316a.392.392,0,0,0-.143-.438l-1.97-1.432a.392.392,0,0,1,.231-.709h2.435a.393.393,0,0,0,.373-.271l.752-2.316A.392.392,0,0,1,2517.507,2218.748Z" fill="#b1d7dd"/>
          </g>
          <rect id="Rectangle_5543" data-name="Rectangle 5543" width="39.286" height="1.091" transform="translate(2458.769 2230.547)" fill="#b1d7dd"/>
          <rect id="Rectangle_5544" data-name="Rectangle 5544" width="39.286" height="2.057" transform="translate(2458.769 2212.585)" fill="#379cf7"/>
          <rect id="Rectangle_5545" data-name="Rectangle 5545" width="39.286" height="1.091" transform="translate(2458.769 2234.7)" fill="#b1d7dd"/>
          <rect id="Rectangle_5546" data-name="Rectangle 5546" width="17.958" height="1.091" transform="translate(2458.769 2238.557)" fill="#b1d7dd"/>
        </g>
        <g id="Group_16752" data-name="Group 16752">
          <circle id="Ellipse_827" data-name="Ellipse 827" cx="15.685" cy="15.685" r="15.685" transform="matrix(0.974, -0.228, 0.228, 0.974, 2415.648, 2214.067)" fill="#7bc7ff"/>
          <g id="Group_16751" data-name="Group 16751">
            <g id="Group_16750" data-name="Group 16750" clip-path="url(#clip-path)">
              <g id="Group_16749" data-name="Group 16749">
                <path id="Path_24086" data-name="Path 24086" d="M2442.273,2235.263l-1.376-14.494c0-3.711-1.458-7.125-5.385-6.113h0a4.726,4.726,0,0,0-5.437.668,8.285,8.285,0,0,0-2.417,5.931l-1.538,14.089Z" fill="#0a4d7a"/>
                <g id="Group_16748" data-name="Group 16748">
                  <g id="Group_16747" data-name="Group 16747">
                    <path id="Path_24087" data-name="Path 24087" d="M2436.821,2227.818v3.191s-.445,2.494-2.546,2.916a3.679,3.679,0,0,1-2.527-2.916v-3.191Z" fill="#ffa683"/>
                  </g>
                  <path id="Path_24088" data-name="Path 24088" d="M2436.821,2227.362v2.031a5.354,5.354,0,0,1-5.073,0v-2.031Z" fill="#e57c5c"/>
                </g>
                <path id="Path_24089" data-name="Path 24089" d="M2439.43,2220.94a5.749,5.749,0,0,1-3.859-1.871c-1.421,1.236-6.4,1.871-6.4,1.871l-.033,1.965a8.5,8.5,0,0,0,1.625,4.664,4.375,4.375,0,0,0,7.043,0,8.5,8.5,0,0,0,1.625-4.664Z" fill="#ffa683"/>
                <path id="Path_24090" data-name="Path 24090" d="M2446.83,2236.315c-1.987-3.418-10.4-5.306-10.4-5.306l-2.212.848-2.212-.848s-8.412,1.888-10.4,5.306l-2.438,18.421,3.868-.06,2.266-15.38s1.43,4.967,1.351,7.869a64.3,64.3,0,0,1-.983,7.7h17.094a64.317,64.317,0,0,1-.983-7.7c-.079-2.9,1.352-7.869,1.352-7.869l2.265,15.38,3.869.06Z" fill="#ffa683"/>
                <path id="Path_24091" data-name="Path 24091" d="M2431.562,2234.924" fill="#379cf7"/>
                <path id="Path_24092" data-name="Path 24092" d="M2441.035,2232.44a7.08,7.08,0,0,1-13.587-.018,19.792,19.792,0,0,0-3.743,1.866l1.512,5.008c.024.038.044.087.066.131l.02-.131s.063.22.159.581c.016.055.031.114.046.174a30.9,30.9,0,0,1,1.146,7.114,64.3,64.3,0,0,1-.983,7.7h17.094a64.317,64.317,0,0,1-.983-7.7c-.079-2.9,1.352-7.869,1.352-7.869l.031.212a1.887,1.887,0,0,1,.108-.212l1.5-4.978A19.531,19.531,0,0,0,2441.035,2232.44Z" fill="#379cf7"/>
              </g>
            </g>
          </g>
        </g>
      </g>
    </g>
    <g id="Group_16758" data-name="Group 16758">
      <path id="Path_24093" data-name="Path 24093" d="M2542.775,2250.756a1.537,1.537,0,0,1-1.329-.82l-8.037-16s-.962-3.846-2.093-3.846l-.113,5.091,5.436,19.668a2.608,2.608,0,0,0,2.6,2.317,72.63,72.63,0,0,1,13.43,2.193,14.731,14.731,0,0,0,7.5-.025C2560.419,2250.342,2546.2,2250.832,2542.775,2250.756Z" fill="#ffa683"/>
      <g id="Group_16757" data-name="Group 16757">
        <g id="Group_16756" data-name="Group 16756">
          <g id="Group_16755" data-name="Group 16755">
            <path id="Path_24094" data-name="Path 24094" d="M2554.8,2248.745v4.548H2547.9v-2.562s-4.54-1.072-4.319-5.171,2.144-6.085,3.184-6.4,6.054,1.7,6.148,1.955.631,4.6.631,4.6Z" fill="#ffa683"/>
            <path id="Path_24095" data-name="Path 24095" d="M2547.55,2242.534s1.223-1.727,2.364-.872.57,2.566-.856,3.421c0,0,1.426,4.847,4.277,4.561a7.462,7.462,0,0,0,6.2-7.993c-.316-4.7-6.45-8-9.806-7.347C2546.351,2234.967,2543.041,2238.719,2547.55,2242.534Z" fill="#004cba"/>
            <path id="Path_24096" data-name="Path 24096" d="M2559.5,2238.687s3.721-4.729,7.441-.63,6.054,8.7,7.756,9.584-1.45,3.027-5.549,1.7S2559.751,2242.975,2559.5,2238.687Z" fill="#004cba"/>
            <path id="Path_24097" data-name="Path 24097" d="M2547.9,2253.293v-2.562s2.823.111,4.023-.982a3.379,3.379,0,0,1-2.688,2.007v1.537Z" fill="#ed7d5a"/>
          </g>
          <path id="Path_24098" data-name="Path 24098" d="M2544.864,2289.675s1.626,25.435,3.7,30.759,15.166,29.541,15.166,29.541l6.784-1.494-9.676-28.935c-.074,1.775-1.359-6.567,1.035-15.009a21.059,21.059,0,0,0-1.236-14.679l-16.953-.183" fill="#006cbc"/>
          <path id="Path_24099" data-name="Path 24099" d="M2560.5,2288.6s-.635,7.067-8.762,15.083c-8.207,8.1-11.424,13.531-11.424,13.531l-1.22,35.047h-6.765s-3.993-36.932-3.882-38.263,11.313-25.4,12.644-27.5S2560.5,2288.6,2560.5,2288.6Z" fill="#379cf7"/>
          <path id="Path_24100" data-name="Path 24100" d="M2555.511,2252.927s7.256.543,4.584,9.539c-2.921,9.833.427,25.594,1.092,27.221l-2.175.867a27.084,27.084,0,0,1-20.138-.435h0s5.768-12.718,1.664-19.372c-2.639-4.28-1.861-8.6,1.22-12.422,2-2.477,4.514-5.057,5.508-5.1Z" fill="#57bfff"/>
          <path id="Path_24101" data-name="Path 24101" d="M2532.333,2352.266h1.43l-2.9-38c.478-.792,2.134-3.827,7.155-13.492a52.289,52.289,0,0,0,3.847-9.593,25.691,25.691,0,0,1-2.695-.941c-3.585,7.366-10.637,22.7-10.725,23.758C2528.336,2315.329,2532.333,2352.266,2532.333,2352.266Z" fill="#2481c6"/>
          <path id="Path_24102" data-name="Path 24102" d="M2546.382,2268.354c-3.388,1.255-.871,10.259-4.515,22.829a27.221,27.221,0,0,1-2.993-1.064h0s5.768-12.718,1.664-19.372a9.757,9.757,0,0,1-1.542-6.292l14.383-3.269S2550.99,2266.647,2546.382,2268.354Z" fill="#30afef"/>
          <path id="Path_24103" data-name="Path 24103" d="M2515.378,2245.826s13.166,21.882,17.01,23.125c1.708.553,12.355-3.6,16.848-4.344a4.689,4.689,0,0,0,3.91-5.055h0a5.518,5.518,0,0,0-6.234-4.592l-14.78,4.6s-12.516-12.942-15.3-15.9c0,0-1.155-3.64-2.873-3.64C2512.42,2240.024,2514.752,2244.575,2515.378,2245.826Z" fill="#ffa683"/>
          <path id="Path_24104" data-name="Path 24104" d="M2525.878,2354.5c1.867-.607,5.359-1.347,6.623-2.236h6.571c-.066,1.316-.1,2.6-.118,3.447a1.048,1.048,0,0,1-1.05,1.026h-13.08a.846.846,0,0,1-.439-1.569A6.954,6.954,0,0,1,2525.878,2354.5Z" fill="#004cba"/>
          <path id="Path_24105" data-name="Path 24105" d="M2557.918,2353.655c1.681-1.013,4.915-2.523,5.946-3.675l6.4-1.485c.234,1.3.489,2.551.664,3.384a1.047,1.047,0,0,1-.79,1.236l-12.743,2.957a.845.845,0,0,1-.782-1.428A6.886,6.886,0,0,1,2557.918,2353.655Z" fill="#004cba"/>
          <path id="Path_24106" data-name="Path 24106" d="M2532.39,2261.476c3.1.075,16.94-5.118,20.618-2.637a5.57,5.57,0,0,0-6.1-3.879l-14.78,4.6s-12.516-12.942-15.3-15.9C2516.829,2243.664,2529.024,2261.394,2532.39,2261.476Z" fill="#ed7d5a" opacity="0.58"/>
        </g>
        <path id="Path_24107" data-name="Path 24107" d="M2559.4,2238.407l-.966.174a6.958,6.958,0,0,1,.988,3.923l1.25-.232S2560.54,2238.814,2559.4,2238.407Z" fill="#fff"/>
      </g>
    </g>
    <g id="Group_16774" data-name="Group 16774">
      <g id="Group_16763" data-name="Group 16763">
        <rect id="Rectangle_5547" data-name="Rectangle 5547" width="122.154" height="38.681" rx="7.292" transform="translate(2356.113 2253.49)" fill="#fff"/>
        <g id="Group_16762" data-name="Group 16762">
          <g id="Group_16760" data-name="Group 16760">
            <g id="Group_16759" data-name="Group 16759">
              <path id="Path_24108" data-name="Path 24108" d="M2410.076,2266.393l.752,2.316a.392.392,0,0,0,.373.271h2.435a.393.393,0,0,1,.231.71l-1.97,1.431a.393.393,0,0,0-.143.439l.753,2.315a.393.393,0,0,1-.6.439l-1.97-1.431a.392.392,0,0,0-.461,0l-1.97,1.431a.393.393,0,0,1-.6-.439l.753-2.315a.393.393,0,0,0-.143-.439l-1.97-1.431a.393.393,0,0,1,.231-.71h2.435a.392.392,0,0,0,.373-.271l.752-2.316A.393.393,0,0,1,2410.076,2266.393Z" fill="#fbbe42"/>
              <path id="Path_24109" data-name="Path 24109" d="M2423.585,2266.393l.753,2.316a.391.391,0,0,0,.373.271h2.435a.392.392,0,0,1,.23.71l-1.969,1.431a.391.391,0,0,0-.143.439l.752,2.315a.392.392,0,0,1-.6.439l-1.97-1.431a.392.392,0,0,0-.461,0l-1.97,1.431a.393.393,0,0,1-.6-.439l.752-2.315a.391.391,0,0,0-.142-.439l-1.97-1.431a.393.393,0,0,1,.231-.71h2.434a.392.392,0,0,0,.374-.271l.752-2.316A.392.392,0,0,1,2423.585,2266.393Z" fill="#fbbe42"/>
              <path id="Path_24110" data-name="Path 24110" d="M2437.095,2266.393l.752,2.316a.393.393,0,0,0,.374.271h2.435a.392.392,0,0,1,.23.71l-1.97,1.431a.392.392,0,0,0-.142.439l.752,2.315a.392.392,0,0,1-.6.439l-1.969-1.431a.393.393,0,0,0-.462,0l-1.97,1.431a.392.392,0,0,1-.6-.439l.752-2.315a.392.392,0,0,0-.142-.439l-1.97-1.431a.392.392,0,0,1,.23-.71h2.435a.391.391,0,0,0,.373-.271l.753-2.316A.392.392,0,0,1,2437.095,2266.393Z" fill="#fbbe42"/>
              <path id="Path_24111" data-name="Path 24111" d="M2450.6,2266.393l.752,2.316a.392.392,0,0,0,.373.271h2.435a.393.393,0,0,1,.231.71l-1.97,1.431a.392.392,0,0,0-.142.439l.752,2.315a.393.393,0,0,1-.6.439l-1.97-1.431a.391.391,0,0,0-.461,0l-1.97,1.431a.392.392,0,0,1-.6-.439l.752-2.315a.391.391,0,0,0-.143-.439l-1.969-1.431a.392.392,0,0,1,.23-.71h2.435a.391.391,0,0,0,.373-.271l.753-2.316A.392.392,0,0,1,2450.6,2266.393Z" fill="#fbbe42"/>
              <path id="Path_24112" data-name="Path 24112" d="M2464.115,2266.393l.752,2.316a.392.392,0,0,0,.373.271h2.435a.393.393,0,0,1,.231.71l-1.97,1.431a.393.393,0,0,0-.143.439l.753,2.315a.393.393,0,0,1-.6.439l-1.97-1.431a.391.391,0,0,0-.461,0l-1.97,1.431a.393.393,0,0,1-.6-.439l.753-2.315a.393.393,0,0,0-.143-.439l-1.97-1.431a.393.393,0,0,1,.231-.71h2.435a.391.391,0,0,0,.373-.271l.752-2.316A.393.393,0,0,1,2464.115,2266.393Z" fill="#fbbe42"/>
            </g>
            <rect id="Rectangle_5548" data-name="Rectangle 5548" width="39.286" height="1.091" transform="translate(2405.376 2278.192)" fill="#b1d7dd"/>
            <rect id="Rectangle_5549" data-name="Rectangle 5549" width="39.286" height="2.057" transform="translate(2405.376 2260.231)" fill="#0a4d7a"/>
            <rect id="Rectangle_5550" data-name="Rectangle 5550" width="39.286" height="1.091" transform="translate(2405.376 2282.345)" fill="#b1d7dd"/>
            <rect id="Rectangle_5551" data-name="Rectangle 5551" width="17.958" height="1.091" transform="translate(2405.376 2286.202)" fill="#b1d7dd"/>
          </g>
          <g id="Group_16761" data-name="Group 16761">
            <circle id="Ellipse_829" data-name="Ellipse 829" cx="15.685" cy="15.685" r="15.685" transform="translate(2358.919 2273.412) rotate(-45)" fill="#7bc7ff"/>
          </g>
        </g>
      </g>
      <g id="Group_16767" data-name="Group 16767">
        <g id="Group_16765" data-name="Group 16765">
          <path id="Path_24113" data-name="Path 24113" d="M2347.607,2333.327s26.6-22.288,31.278-14.407-2.217,33.371-2.217,33.371Z" fill="#0a85e0"/>
          <path id="Path_24114" data-name="Path 24114" d="M2361.565,2342.436l15.1,9.855s6.3-23.316,2.755-32.239C2381.045,2331.787,2368.6,2339.219,2361.565,2342.436Z" fill="#006cbc"/>
          <g id="Group_16764" data-name="Group 16764">
            <path id="Path_24115" data-name="Path 24115" d="M2361.235,2330.947s16.472,13.219,17.814,17.978c2.176,7.717-10.724,6.855-16.3,6.855s-41.081-.982-41.081-.982l.321-5.462,32.756-1.56s-18.143-2.689-17.471-13.161S2361.235,2330.947,2361.235,2330.947Z" fill="#379cf7"/>
            <path id="Path_24116" data-name="Path 24116" d="M2378.157,2353.292c-3.007,2.969-11.238,2.486-15.4,2.486-5.574,0-41.085-.98-41.085-.98l.327-5.463,32.757-1.559s13.049,6.28,23.144,5.545C2377.986,2353.314,2378.075,2353.306,2378.157,2353.292Z" fill="#0a85e0"/>
            <path id="Path_24117" data-name="Path 24117" d="M2321.839,2354.7s-1.446,3.263-.338,5.418-3.694.585-4.464-3.663-.4-9.328,4.956-7.05Z" fill="#004cba"/>
          </g>
        </g>
        <path id="Path_24118" data-name="Path 24118" d="M2340.3,2298.191s11.957-34.555,12.314-34.4a28.3,28.3,0,0,0,3.858,1.191l-4.925,37.927Z" fill="#0a4d7a"/>
        <path id="Path_24119" data-name="Path 24119" d="M2352.656,2294.25c-2.72-1.286-6.116-2.791-10.1-2.545-1.641,4.706-2.257,6.486-2.257,6.486l11.247,4.72Z" fill="#083954"/>
        <g id="Group_16766" data-name="Group 16766">
          <path id="Path_24120" data-name="Path 24120" d="M2355.272,2289.052c-.883,3.263-4.384,2.655-4.384,2.655v3.1h-6.04v-4.2c.007,0,.022.007.029.007,3.139.723,6.546-1.555,5.042-2.676s-1.823-2.966-1.042-3.87,2.677-.232,2.677-.232a9.541,9.541,0,0,0,3.855-.68A14.905,14.905,0,0,1,2355.272,2289.052Z" fill="#ffa683"/>
          <path id="Path_24121" data-name="Path 24121" d="M2351.55,2283.845s-1.885-.676-2.669.229-.463,2.758,1.04,3.875-1.908,3.4-5.046,2.672-4.89-7.274-2.2-11.537c2.472-3.915,11.161-5.615,12.911-1.511S2357.442,2283.685,2351.55,2283.845Z" fill="#004cba"/>
          <path id="Path_24122" data-name="Path 24122" d="M2350.888,2294.81v-3.1a12.305,12.305,0,0,1-2.831-.692,7,7,0,0,0,1.77,1.575v2.22Z" fill="#e57c5c"/>
        </g>
        <path id="Path_24123" data-name="Path 24123" d="M2352.5,2294.87s-9.982-3.457-12.792,4.325,1.966,26.436-3.124,32.84h0a32.114,32.114,0,0,0,25.013.908l1.093-.416s-3.489-23.793-3.656-22.966c-.141.7,11.784,4.5,14.161,3.2s16.771-17.548,16.771-17.548l-4.844-.718-12.971,8.538S2355.783,2295.085,2352.5,2294.87Z" fill="#0a4d7a"/>
        <path id="Path_24124" data-name="Path 24124" d="M2389.968,2295.215s4.987-2.155,5.295-3.14h-7.186a2.335,2.335,0,0,0-1.887.96l-1.066,1.462Z" fill="#ffa683"/>
        <path id="Path_24125" data-name="Path 24125" d="M2362.692,2332.527s-3.065-20.9-3.587-22.843a1.434,1.434,0,0,0,.3.208l-.365-.331s-7.612-1.847-10.321-5.049c0,0,2.586,5.295,5.911,6.527,2.969,1.1,1.915,17.116,4.2,22.813.934-.262,1.861-.56,2.775-.909Z" fill="#083954"/>
        <path id="Path_24126" data-name="Path 24126" d="M2352.984,2263.957s1.27-4.534,3.159-4.853l0,5.921Z" fill="#ffa683"/>
      </g>
      <g id="Group_16773" data-name="Group 16773">
        <g id="Group_16772" data-name="Group 16772" clip-path="url(#clip-path-2)">
          <path id="Path_24127" data-name="Path 24127" d="M2398.326,2296.388l-1.011-9.052a5.019,5.019,0,0,0-2.251-3.584l-3.141-2.051-.013.077v-.071l-2.591-1-2.635-1.02-2.183-.846-.957-.371-2.4,1.227-2.4-1.227-.842.327-2.06.8-2.785,1.079-2.679,1.038v.042l-3.066,2a5.019,5.019,0,0,0-2.251,3.584l-1.011,9.052h6.362l.018,7.53h21.431l.018-7.53Z" fill="#fbbe42"/>
          <g id="Group_16771" data-name="Group 16771">
            <path id="Path_24128" data-name="Path 24128" d="M2381.242,2262.568h0a6.4,6.4,0,0,0-6.4,6.4v3.053h12.8v-3.053A6.4,6.4,0,0,0,2381.242,2262.568Z" fill="#0a4d7a"/>
            <g id="Group_16769" data-name="Group 16769">
              <g id="Group_16768" data-name="Group 16768">
                <path id="Path_24129" data-name="Path 24129" d="M2383.779,2276.787v2.242s-.011.066-.04.179c-.333,1.32-1.449,3.874-2.545,3.849s-2.17-2.632-2.42-3.969c-.008-.038-.01-.059-.01-.059v-2.242Z" fill="#ffa683"/>
              </g>
              <path id="Path_24130" data-name="Path 24130" d="M2383.779,2276.336v2.008a5.283,5.283,0,0,1-5.015,0v-2.008Z" fill="#e57c5c"/>
            </g>
            <g id="Group_16770" data-name="Group 16770">
              <path id="Path_24131" data-name="Path 24131" d="M2377.883,2272.047a1.552,1.552,0,1,0-1.552,1.553A1.552,1.552,0,0,0,2377.883,2272.047Z" fill="#ffa683"/>
              <path id="Path_24132" data-name="Path 24132" d="M2387.609,2272.047a1.552,1.552,0,1,0-1.552,1.553A1.552,1.552,0,0,0,2387.609,2272.047Z" fill="#ffa683"/>
            </g>
            <path id="Path_24133" data-name="Path 24133" d="M2386.358,2269.414a10.9,10.9,0,0,1-2.578-1.844h-5.039c-.4,1.14-2.515,1.844-2.515,1.844l-.043,2.516a8.4,8.4,0,0,0,1.607,4.612,4.235,4.235,0,0,0,1.526,1.3,4.367,4.367,0,0,0,1.955.462,4.291,4.291,0,0,0,3.482-1.758,8.4,8.4,0,0,0,1.607-4.612Z" fill="#ffa683"/>
          </g>
        </g>
      </g>
    </g>
    <g id="Group_16785" data-name="Group 16785">
      <g id="Group_16778" data-name="Group 16778">
        <rect id="Rectangle_5552" data-name="Rectangle 5552" width="122.154" height="38.681" rx="7.292" transform="translate(2409.506 2300.851)" fill="#fff"/>
        <g id="Group_16777" data-name="Group 16777">
          <g id="Group_16776" data-name="Group 16776">
            <g id="Group_16775" data-name="Group 16775">
              <path id="Path_24134" data-name="Path 24134" d="M2463.468,2313.754l.753,2.316a.391.391,0,0,0,.373.271h2.435a.393.393,0,0,1,.231.71l-1.97,1.431a.392.392,0,0,0-.143.438l.752,2.316a.392.392,0,0,1-.6.439l-1.97-1.431a.392.392,0,0,0-.461,0l-1.97,1.431a.393.393,0,0,1-.6-.439l.752-2.316a.391.391,0,0,0-.142-.438l-1.97-1.431a.393.393,0,0,1,.231-.71h2.435a.392.392,0,0,0,.373-.271l.752-2.316A.392.392,0,0,1,2463.468,2313.754Z" fill="#fbbe42"/>
              <path id="Path_24135" data-name="Path 24135" d="M2476.978,2313.754l.753,2.316a.391.391,0,0,0,.373.271h2.435a.392.392,0,0,1,.23.71l-1.97,1.431a.392.392,0,0,0-.142.438l.752,2.316a.392.392,0,0,1-.6.439l-1.97-1.431a.394.394,0,0,0-.462,0l-1.969,1.431a.393.393,0,0,1-.6-.439l.752-2.316a.391.391,0,0,0-.142-.438l-1.97-1.431a.392.392,0,0,1,.23-.71h2.435a.394.394,0,0,0,.374-.271l.752-2.316A.392.392,0,0,1,2476.978,2313.754Z" fill="#fbbe42"/>
              <path id="Path_24136" data-name="Path 24136" d="M2490.488,2313.754l.752,2.316a.393.393,0,0,0,.373.271h2.436a.392.392,0,0,1,.23.71l-1.97,1.431a.392.392,0,0,0-.142.438l.752,2.316a.393.393,0,0,1-.6.439l-1.97-1.431a.392.392,0,0,0-.461,0l-1.97,1.431a.392.392,0,0,1-.6-.439l.752-2.316a.391.391,0,0,0-.142-.438l-1.97-1.431a.392.392,0,0,1,.23-.71h2.435a.391.391,0,0,0,.373-.271l.753-2.316A.392.392,0,0,1,2490.488,2313.754Z" fill="#b1d7dd"/>
              <path id="Path_24137" data-name="Path 24137" d="M2490.052,2313.5a.371.371,0,0,0-.31.252l-.753,2.316a.393.393,0,0,1-.373.271h-2.435a.392.392,0,0,0-.23.71l1.97,1.431a.391.391,0,0,1,.142.438l-.752,2.316a.392.392,0,0,0,.6.439l1.97-1.431a.377.377,0,0,1,.168-.055Z" fill="#fbbe42"/>
              <path id="Path_24138" data-name="Path 24138" d="M2504,2313.754l.752,2.316a.392.392,0,0,0,.373.271h2.435a.393.393,0,0,1,.231.71l-1.97,1.431a.392.392,0,0,0-.143.438l.753,2.316a.393.393,0,0,1-.6.439l-1.97-1.431a.392.392,0,0,0-.461,0l-1.97,1.431a.393.393,0,0,1-.6-.439l.753-2.316a.392.392,0,0,0-.143-.438l-1.97-1.431a.393.393,0,0,1,.231-.71h2.435a.391.391,0,0,0,.373-.271l.753-2.316A.392.392,0,0,1,2504,2313.754Z" fill="#b1d7dd"/>
              <path id="Path_24139" data-name="Path 24139" d="M2517.507,2313.754l.753,2.316a.391.391,0,0,0,.373.271h2.435a.393.393,0,0,1,.231.71l-1.97,1.431a.392.392,0,0,0-.143.438l.753,2.316a.393.393,0,0,1-.6.439l-1.97-1.431a.392.392,0,0,0-.461,0l-1.97,1.431a.393.393,0,0,1-.6-.439l.753-2.316a.392.392,0,0,0-.143-.438l-1.97-1.431a.393.393,0,0,1,.231-.71h2.435a.392.392,0,0,0,.373-.271l.752-2.316A.392.392,0,0,1,2517.507,2313.754Z" fill="#b1d7dd"/>
            </g>
            <rect id="Rectangle_5553" data-name="Rectangle 5553" width="39.286" height="1.091" transform="translate(2458.769 2325.553)" fill="#b1d7dd"/>
            <rect id="Rectangle_5554" data-name="Rectangle 5554" width="39.286" height="2.057" transform="translate(2458.769 2307.592)" fill="#ff5a5a"/>
            <rect id="Rectangle_5555" data-name="Rectangle 5555" width="39.286" height="1.091" transform="translate(2458.769 2329.706)" fill="#b1d7dd"/>
            <rect id="Rectangle_5556" data-name="Rectangle 5556" width="17.958" height="1.091" transform="translate(2458.769 2333.563)" fill="#b1d7dd"/>
          </g>
        </g>
      </g>
      <g id="Group_16784" data-name="Group 16784">
        <circle id="Ellipse_831" data-name="Ellipse 831" cx="15.685" cy="15.685" r="15.685" transform="translate(2412.926 2325.525) rotate(-58.517)" fill="#7bc7ff"/>
        <g id="Group_16783" data-name="Group 16783">
          <g id="Group_16782" data-name="Group 16782" clip-path="url(#clip-path-3)">
            <g id="Group_16781" data-name="Group 16781">
              <path id="Path_24140" data-name="Path 24140" d="M2428.175,2316.978s-.894-3.557.493-5.122,4.137-3.221,6.374-2.371a3.658,3.658,0,0,1,3.377-.179c1.611.9,3.937,1.677,4.183.6,0,0,.134,4.093-1.7,4.742l-.76,3.153H2428.4Z" fill="#0a4d7a"/>
              <path id="Path_24141" data-name="Path 24141" d="M2446.83,2330.888c-1.987-3.418-10.4-5.306-10.4-5.306l-2.212.848-2.212-.848s-8.412,1.888-10.4,5.306l-2.438,18.421,3.868-.06,2.266-15.38s1.43,4.968,1.351,7.869a64.3,64.3,0,0,1-.983,7.7h17.094a64.317,64.317,0,0,1-.983-7.7c-.079-2.9,1.352-7.869,1.352-7.869l2.265,15.38,3.869.06Z" fill="#0a4d7a"/>
              <path id="Path_24142" data-name="Path 24142" d="M2431.562,2329.5" fill="#379cf7"/>
              <g id="Group_16780" data-name="Group 16780">
                <g id="Group_16779" data-name="Group 16779">
                  <path id="Path_24143" data-name="Path 24143" d="M2436.821,2322.391v3.191s-.445,2.494-2.546,2.916a3.678,3.678,0,0,1-2.527-2.916v-3.191Z" fill="#ffa683"/>
                </g>
                <path id="Path_24144" data-name="Path 24144" d="M2436.821,2321.935v2.031a5.354,5.354,0,0,1-5.073,0v-2.031Z" fill="#e57c5c"/>
              </g>
              <path id="Path_24145" data-name="Path 24145" d="M2439.43,2315.513a5.749,5.749,0,0,1-3.859-1.871c-1.421,1.236-6.4,1.871-6.4,1.871l-.033,1.965a8.5,8.5,0,0,0,1.625,4.664,4.375,4.375,0,0,0,7.043,0,8.5,8.5,0,0,0,1.625-4.664Z" fill="#ffa683"/>
              <path id="Path_24146" data-name="Path 24146" d="M2430.479,2317.716a1.409,1.409,0,1,1-1.409-1.409A1.409,1.409,0,0,1,2430.479,2317.716Z" fill="#ffa683"/>
              <path id="Path_24147" data-name="Path 24147" d="M2440.863,2317.716a1.409,1.409,0,1,1-1.409-1.409A1.409,1.409,0,0,1,2440.863,2317.716Z" fill="#ffa683"/>
            </g>
          </g>
        </g>
      </g>
    </g>
    <g id="Group_16794" data-name="Group 16794">
      <g id="Group_16792" data-name="Group 16792">
        <g id="Group_16786" data-name="Group 16786">
          <path id="Path_24148" data-name="Path 24148" d="M2587.865,2339.562l1.141-.381c.164-1.971-.682-5.289-5.153-10.409-8.275-9.475-15.371-22.976-13.578-28.241,0,0-8.094,12.185-2.633,20.226C2572.767,2328.3,2586.39,2329.925,2587.865,2339.562Z" fill="#379cf7"/>
          <path id="Path_24149" data-name="Path 24149" d="M2588.329,2339.407l.677-.226c.166-1.97-.681-5.288-5.153-10.409-8.275-9.475-15.371-22.976-13.578-28.241,0,0-4.287,11.2,1.273,18.693C2577.036,2326.625,2586.827,2328.164,2588.329,2339.407Z" fill="#006cbc"/>
        </g>
        <g id="Group_16788" data-name="Group 16788">
          <path id="Path_24150" data-name="Path 24150" d="M2591.179,2331.464a23.581,23.581,0,0,1-1.543,4.721l.527.092a37.8,37.8,0,0,0,7.288-17.952c1.289-12,3.032-27.019,3.032-27.019s-12.215,10.078-9.481,24.083A39.389,39.389,0,0,1,2591.179,2331.464Z" fill="#379cf7"/>
          <g id="Group_16787" data-name="Group 16787">
            <path id="Path_24151" data-name="Path 24151" d="M2595.476,2309.661c-.668,10.013-2.556,21.026-5,25.4.356-.273.735-.56,1.123-.851a36.967,36.967,0,0,0,5.856-15.885c1.289-12,3.032-27.019,3.032-27.019S2596.345,2296.63,2595.476,2309.661Z" fill="#006cbc"/>
          </g>
        </g>
        <g id="Group_16790" data-name="Group 16790">
          <path id="Path_24152" data-name="Path 24152" d="M2593.368,2336.12a18.107,18.107,0,0,1-2.786,2.61l.321.256a29.092,29.092,0,0,0,11.553-9.4c5.308-7.6,12.039-17.072,12.039-17.072s-11.96,2.283-15.3,12.719A30.254,30.254,0,0,1,2593.368,2336.12Z" fill="#379cf7"/>
          <g id="Group_16789" data-name="Group 16789">
            <path id="Path_24153" data-name="Path 24153" d="M2604.33,2323.026c-4.154,6.5-9.5,13.213-12.769,15.256.341-.053.7-.107,1.072-.159a28.468,28.468,0,0,0,9.823-8.537c5.308-7.6,12.039-17.072,12.039-17.072S2609.737,2314.573,2604.33,2323.026Z" fill="#006cbc"/>
          </g>
        </g>
        <g id="Group_16791" data-name="Group 16791">
          <path id="Path_24154" data-name="Path 24154" d="M2588.788,2335.75c.75,2.137,1.3,3.6,1.622,4.621l.432-.1c-.7-3.752-1.918-10.233-3.064-14.487-1.688-6.265-.374-9.306-1.731-20.21s-7.823-25.3-7.823-25.3-4.176,15.2,1.793,29.686S2585.482,2326.333,2588.788,2335.75Z" fill="#379cf7"/>
          <path id="Path_24155" data-name="Path 24155" d="M2590.437,2340.365l.082-.019.049-1.533c-.72-3.817-1.782-9.285-2.79-13.028-1.688-6.265-.374-9.306-1.731-20.21s-7.823-25.3-7.823-25.3,2.03,21.655,4.993,31.12C2585.959,2320.152,2589.868,2337.778,2590.437,2340.365Z" fill="#006cbc"/>
        </g>
      </g>
      <g id="Group_16793" data-name="Group 16793">
        <path id="Path_24156" data-name="Path 24156" d="M2578.082,2338.174l2.617,15.488a3,3,0,0,0,2.958,2.5h15.131a3,3,0,0,0,2.958-2.5l2.617-15.488a2.294,2.294,0,0,0-2.262-2.677h-21.756A2.294,2.294,0,0,0,2578.082,2338.174Z" fill="#fff"/>
        <path id="Path_24157" data-name="Path 24157" d="M2604.348,2337.391v-.005a2.3,2.3,0,0,0-.119-.422l-.012-.029a2.258,2.258,0,0,0-.183-.36c-.013-.022-.029-.042-.043-.064a2.39,2.39,0,0,0-.221-.282c-.031-.034-.066-.063-.1-.095a2.312,2.312,0,0,0-.232-.2c-.055-.041-.117-.073-.176-.109a2.348,2.348,0,0,0-.217-.123,2.29,2.29,0,0,0-.273-.094,1.781,1.781,0,0,0-.177-.057,2.292,2.292,0,0,0-.494-.055h-21.756a2.285,2.285,0,0,0-2.281,2.357h19.429a2.325,2.325,0,0,1-.018.32l-2.617,15.488a3,3,0,0,1-2.959,2.5h6.889a3,3,0,0,0,2.958-2.5l2.617-15.488A2.277,2.277,0,0,0,2604.348,2337.391Z" fill="#caedff"/>
      </g>
    </g>
    <g id="Group_16802" data-name="Group 16802">
      <g id="Group_16796" data-name="Group 16796">
        <path id="Path_24158" data-name="Path 24158" d="M2378.271,2225.219h-34.163a4.436,4.436,0,0,0-4.437,4.437v26.84l8.688-7.871a3.839,3.839,0,0,1,2.578-.994h27.334a3.046,3.046,0,0,0,3.046-3.046v-16.32A3.046,3.046,0,0,0,2378.271,2225.219Z" fill="#0a4d7a"/>
        <g id="Group_16795" data-name="Group 16795">
          <path id="Path_24159" data-name="Path 24159" d="M2366.573,2232.1a3.785,3.785,0,0,0-5.351,0l-.5.5-.5-.5a3.784,3.784,0,0,0-5.351,5.351l.5.5,5.351,5.351,5.351-5.351.5-.5a3.787,3.787,0,0,0,0-5.351Z" fill="#ff5a5a"/>
        </g>
      </g>
      <g id="Group_16799" data-name="Group 16799">
        <path id="Path_24160" data-name="Path 24160" d="M2581.407,2189h-34.363a4.463,4.463,0,0,0-4.462,4.463v27l8.739-7.916a3.862,3.862,0,0,1,2.592-1h27.494a3.064,3.064,0,0,0,3.064-3.064v-16.415A3.064,3.064,0,0,0,2581.407,2189Z" fill="#0a4d7a"/>
        <g id="Group_16798" data-name="Group 16798">
          <path id="Path_24161" data-name="Path 24161" d="M2573.278,2201.258a1.192,1.192,0,0,0-.095-2.38h-2.33a2.231,2.231,0,0,0-.357-.025,6.291,6.291,0,0,1-1.809-.1c-1.015-.218.18-1.452-.453-3.718s-2.837-2.13-2.731-1.074.227,3.576-.359,4.373a5.191,5.191,0,0,1-3.484,1.966l-.043,6,2.356.017a5.737,5.737,0,0,0,3.274,1.5v.021h4.488a1.091,1.091,0,0,0,.682-1.943,1.191,1.191,0,0,0,.291-2.322h.174a1.193,1.193,0,0,0,1.193-1.193h0A1.191,1.191,0,0,0,2573.278,2201.258Z" fill="#379cf7"/>
          <g id="Group_16797" data-name="Group 16797">
            <path id="Path_24162" data-name="Path 24162" d="M2555.023,2207.429l4.039,0,.05-8.762-4.039,0Z" fill="#379cf7"/>
          </g>
        </g>
      </g>
      <g id="Group_16801" data-name="Group 16801">
        <path id="Path_24163" data-name="Path 24163" d="M2502.941,2286.986a11.125,11.125,0,1,1,5.738,4.9,3.415,3.415,0,0,0-2.194-.076l-4.33,1.308,1.058-3.5A3.344,3.344,0,0,0,2502.941,2286.986Z" fill="#0a4d7a"/>
        <g id="Group_16800" data-name="Group 16800">
          <path id="Path_24164" data-name="Path 24164" d="M2512.365,2275.459l-1.146,3.526a.481.481,0,0,1-.457.333h-3.708a.48.48,0,0,0-.282.87l3,2.179a.485.485,0,0,1,.175.539l-1.146,3.525a.481.481,0,0,0,.741.538l3-2.179a.483.483,0,0,1,.566,0l3,2.179a.481.481,0,0,0,.74-.538l-1.145-3.525a.482.482,0,0,1,.175-.539l3-2.179a.481.481,0,0,0-.283-.87h-3.707a.482.482,0,0,1-.458-.333l-1.146-3.526A.481.481,0,0,0,2512.365,2275.459Z" fill="#fbbe42"/>
        </g>
      </g>
    </g>
  </g>
</svg>