<svg xmlns="http://www.w3.org/2000/svg" width="350" height="251.786" viewBox="0 0 350 251.786"><defs><style>.a{fill:#f5f5f5;}.b{fill:#e0e0e0;}.c{fill:#fafafa;}.d{fill:#263238;}.e,.h{fill:#fff;}.f{fill:#455a64;}.g{fill:#ff725e;}.h,.i{opacity:0.3;}.j{fill:#b77153;}.k{fill:#995037;}.l{opacity:0.2;}</style></defs><g transform="translate(-92.9 -41.617)"><g transform="translate(94.942 102.283)"><path class="a" d="M475,194.866V221.11a8.565,8.565,0,0,0,8.6,8.417H577.69a8.6,8.6,0,0,0,8.619-8.6V198.747l11.714-12.31-114.411-.357A8.643,8.643,0,0,0,475,194.866Z" transform="translate(-250.065 -161.032)"/><path class="b" d="M580.581,210.744l-85.411-.4.012-2.625,85.4.4Z" transform="translate(-258.229 -169.791)"/><path class="b" d="M580.581,225.254l-85.411-.4.012-2.625,85.4.4Z" transform="translate(-258.229 -175.664)"/><rect class="b" width="2.625" height="33.792" transform="translate(288.548 57.837) rotate(-89.72)"/><path class="a" d="M168.03,363.842c13.161-9.2,16.143-26.262,15.625-41.607-.089-2.56.19-5.262-1.024-7.506s-4.06-3.786-6.357-2.7c-1.9.893-2.726,3.107-3.792,4.935a14.976,14.976,0,0,1-6.006,5.738c-1.631.845-3.649,1.363-5.256.476-2.214-1.22-2.47-4.274-2.458-6.821l.089-14.238a24.948,24.948,0,0,0-.768-7.565,7.907,7.907,0,0,0-4.964-5.357c-2.423-.7-5.417.714-5.952,3.208a24.451,24.451,0,0,0-.077,3.173,2.689,2.689,0,0,1-1.565,2.524c-1.006.3-2.036-.423-2.8-1.191-2.631-2.571-4.411-5.881-6.077-9.179s-3.286-6.667-5.673-9.47-5.685-5.03-9.333-5.238-7.536,2.048-8.452,5.631,1.19,7.232,3.446,10.119a56.911,56.911,0,0,0,11.839,11.31,4.858,4.858,0,0,1,1.982,2.125c.548,1.7-1.06,3.387-2.732,3.946-1.9.631-3.964.435-5.952.667s-4.167,1.113-4.887,2.976c-1.048,2.6,1.131,5.357,3.274,7.143a48.809,48.809,0,0,0,14.417,8.333,16.473,16.473,0,0,1,5.357,2.6c1.512,1.315,2.423,3.607,1.512,5.4s-3.256,2.381-5.22,2.006-3.714-1.429-5.589-2.131c-3.5-1.321-8.018-1.083-10.262,1.946a8.1,8.1,0,0,0-.857,7.143,18.408,18.408,0,0,0,3.863,6.292,48.745,48.745,0,0,0,20.911,14.7c8.119,2.792,15.643,3.571,23.714.631" transform="translate(-103.066 -196.217)"/><path class="b" d="M170.885,376.69a111.572,111.572,0,0,0-4.167-20.988,227.02,227.02,0,0,0-9.059-24.571q-1.363-3.208-2.7-6.321c-.893-2.071-1.786-4.125-2.768-6.083a114.032,114.032,0,0,0-6.327-10.911c-2.185-3.375-4.375-6.5-6.452-9.4s-4.065-5.565-5.952-7.923a90.221,90.221,0,0,0-9.863-10.423c-1.256-1.137-2.262-1.988-2.976-2.554l-.8-.649a1.7,1.7,0,0,0-.274-.2,2.077,2.077,0,0,0,.244.238l.756.679c.667.6,1.655,1.458,2.887,2.613a95.426,95.426,0,0,1,9.732,10.5q2.839,3.571,5.923,7.94c2.06,2.911,4.238,6.036,6.4,9.411a114.878,114.878,0,0,1,6.286,10.887c.982,1.946,1.857,3.982,2.75,6.059l2.7,6.316a233.664,233.664,0,0,1,9.077,24.512,113.814,113.814,0,0,1,4.244,20.9" transform="translate(-105.725 -197.696)"/><path class="b" d="M174.168,328.272a4.763,4.763,0,0,0,.25-1.083c.137-.7.292-1.732.47-2.976.363-2.536.738-6.054,1.143-9.935s.827-7.387,1.226-9.911c.2-1.262.363-2.28.488-2.976a4.968,4.968,0,0,0,.143-1.1,5.1,5.1,0,0,0-.321,1.065c-.179.69-.4,1.708-.637,2.976-.482,2.518-.964,6.03-1.363,9.923l-1.006,9.94c-.125,1.19-.238,2.2-.321,3.012A5.2,5.2,0,0,0,174.168,328.272Z" transform="translate(-127.834 -207.26)"/><path class="b" d="M119.16,336.975a6.4,6.4,0,0,0,1.3.155c.839.077,2.06.179,3.571.351,2.976.327,7.143.917,11.655,1.786s8.589,1.815,11.506,2.589c1.458.381,2.637.714,3.452.946a7.342,7.342,0,0,0,1.274.31,7.024,7.024,0,0,0-1.19-.488c-.8-.28-1.964-.667-3.423-1.089-2.9-.857-6.964-1.869-11.506-2.732a114.437,114.437,0,0,0-11.7-1.637c-1.506-.131-2.732-.185-3.571-.2A7.064,7.064,0,0,0,119.16,336.975Z" transform="translate(-105.571 -222.094)"/><path class="b" d="M198.14,380.005a1.874,1.874,0,0,0,.22-.4c.155-.321.339-.714.56-1.19.482-1.036,1.143-2.542,1.929-4.423,1.583-3.75,3.6-9,5.75-14.821s4.119-11.089,5.619-14.881l1.786-4.47c.19-.488.345-.893.476-1.19a1.386,1.386,0,0,0,.137-.44,1.853,1.853,0,0,0-.22.4c-.155.315-.339.708-.56,1.19-.482,1.036-1.143,2.542-1.929,4.423-1.583,3.75-3.6,9-5.75,14.827s-4.119,11.083-5.619,14.881c-.738,1.839-1.339,3.351-1.786,4.47-.19.488-.345.893-.476,1.22a1.434,1.434,0,0,0-.137.4Z" transform="translate(-137.624 -222.601)"/><path class="b" d="M125,384.88a2.048,2.048,0,0,0,.435.173l1.262.429,4.661,1.506c3.935,1.28,9.345,3.1,15.327,5.125s11.417,3.8,15.381,5c1.976.6,3.571,1.066,4.7,1.363l1.292.339a2.081,2.081,0,0,0,.458.089,1.82,1.82,0,0,0-.435-.179l-1.262-.423-4.661-1.512c-3.935-1.274-9.351-3.1-15.327-5.125s-11.417-3.8-15.381-5c-1.976-.6-3.571-1.065-4.7-1.363l-1.274-.351A1.554,1.554,0,0,0,125,384.88Z" transform="translate(-107.935 -241.499)"/><path class="b" d="M191.657,150.673v20.339A6.667,6.667,0,0,1,185,177.679H112.068a6.667,6.667,0,0,1-6.661-6.667V153.827L96.33,144.3l88.649-.3a6.661,6.661,0,0,1,6.679,6.673Z" transform="translate(-96.33 -144)"/><path class="c" d="M129.636,163.129l66.179-.3-.006-2.036-66.179.3Z" transform="translate(-109.809 -150.796)"/><path class="c" d="M129.636,174.369l66.179-.3-.006-2.036-66.179.31Z" transform="translate(-109.809 -155.345)"/><rect class="c" width="26.185" height="2.036" transform="translate(19.813 23.52) rotate(-0.28)"/></g><g transform="translate(154.317 55.921)"><rect class="d" width="153.631" height="220.476" rx="11.55" transform="translate(0 237.327) rotate(-90)"/><rect class="e" width="143.946" height="184.125" transform="translate(15.083 232.488) rotate(-90)"/><circle class="f" cx="5.893" cy="5.893" r="5.893" transform="matrix(0.229, -0.973, 0.973, 0.229, 202.331, 165.006)"/><rect class="f" width="46.274" height="2.435" rx="1.217" transform="translate(6.345 183.726) rotate(-90)"/><circle class="g" cx="14.875" cy="14.875" r="14.875" transform="matrix(0.55, -0.835, 0.835, 0.55, 34.285, 169.142)"/><circle class="h" cx="14.875" cy="14.875" r="14.875" transform="matrix(0.55, -0.835, 0.835, 0.55, 34.285, 169.142)"/><path class="d" d="M279.384,336.738c.56-.048,1.071.6,1.143,1.393s-.339,1.506-.9,1.554-1.071-.6-1.137-1.387S278.843,336.786,279.384,336.738Z" transform="translate(-229.652 -175.563)"/><path class="d" d="M295.182,336.41c-.56,0-1.048.6-1.083,1.44s.4,1.494.964,1.518,1.054-.6,1.083-1.435S295.747,336.434,295.182,336.41Z" transform="translate(-235.974 -175.431)"/><path class="d" d="M290.227,347.781c0,.173-2.774.315-6.19.315s-6.2-.143-6.2-.315,2.774-.321,6.2-.321S290.227,347.6,290.227,347.781Z" transform="translate(-229.394 -179.909)"/><path class="d" d="M279.845,333.624c-.036.179-.744.173-1.571.3s-1.5.345-1.589.19.536-.667,1.494-.815S279.845,333.458,279.845,333.624Z" transform="translate(-228.922 -174.153)"/><path class="d" d="M298.3,334.264c-.107.143-.75-.19-1.577-.44s-1.542-.339-1.56-.524.792-.381,1.744-.083S298.41,334.138,298.3,334.264Z" transform="translate(-236.404 -174.072)"/><circle class="g" cx="15.417" cy="15.417" r="15.417" transform="translate(144.933 176.489) rotate(-80.95)"/><circle class="i" cx="15.417" cy="15.417" r="15.417" transform="translate(144.933 176.489) rotate(-80.95)"/><path class="d" d="M459.993,334.438c.6-.048,1.119.6,1.19,1.44s-.345,1.565-.929,1.613-1.119-.6-1.19-1.44S459.41,334.486,459.993,334.438Z" transform="translate(-302.743 -174.631)"/><path class="d" d="M476.334,334.1c-.6,0-1.089.643-1.125,1.488s.417,1.548,1,1.571,1.089-.643,1.125-1.488S476.923,334.124,476.334,334.1Z" transform="translate(-309.28 -174.494)"/><path class="d" d="M471.213,344.258a10.648,10.648,0,0,1-1.786-.94,9.958,9.958,0,0,0-4.589-1.131,11.452,11.452,0,0,0-4.6,1.19,10.147,10.147,0,0,1-1.839.881c-.054-.083.53-.6,1.631-1.274a9.995,9.995,0,0,1,4.8-1.435,9.054,9.054,0,0,1,4.821,1.375A4.608,4.608,0,0,1,471.213,344.258Z" transform="translate(-302.475 -177.515)"/><path class="d" d="M460.392,331.44c.054.065-.048.262-.3.482a2.494,2.494,0,0,1-1.19.6,2.286,2.286,0,0,1-1.339-.149c-.315-.143-.458-.31-.423-.387s.8.077,1.649-.089S460.279,331.3,460.392,331.44Z" transform="translate(-301.964 -173.403)"/><path class="d" d="M479.553,332.036c0,.077-.143.226-.488.333a2.262,2.262,0,0,1-1.381-.048,2.779,2.779,0,0,1-1.137-.756c-.226-.262-.31-.47-.25-.53s.756.393,1.589.685S479.494,331.858,479.553,332.036Z" transform="translate(-309.714 -173.249)"/><path class="b" d="M418.558,405.534l3.571-1.768,3.488,1.94-.583-3.946,2.923-2.714-3.935-.667-1.679-3.619L420.5,398.3l-3.958.476,2.786,2.851Z" transform="translate(-285.534 -199.135)"/><path class="g" d="M394.078,405.534l3.571-1.768,3.488,1.94-.583-3.946,2.923-2.714-3.935-.667-1.679-3.619-1.845,3.536-3.958.476,2.786,2.851Z" transform="translate(-275.625 -199.135)"/><path class="g" d="M369.6,405.534l3.571-1.768,3.482,1.94-.577-3.946L379,399.046l-3.935-.667-1.679-3.619-1.845,3.536-3.958.476,2.786,2.851Z" transform="translate(-265.717 -199.135)"/><path class="g" d="M345.118,405.534l3.571-1.768,3.482,1.94-.577-3.946,2.923-2.714-3.935-.667L348.9,394.76l-1.845,3.536-3.958.476,2.786,2.851Z" transform="translate(-255.808 -199.135)"/><path class="g" d="M320.638,405.534l3.571-1.768,3.482,1.94-.577-3.946,2.923-2.714-3.935-.667-1.679-3.619-1.845,3.536-3.958.476,2.786,2.851Z" transform="translate(-245.9 -199.135)"/><path class="d" d="M387.429,265.4c0,.089-15.988.161-35.714.161S316,265.494,316,265.4s15.982-.155,35.714-.155S387.429,265.321,387.429,265.4Z" transform="translate(-244.839 -146.577)"/><path class="d" d="M382.518,258.2c0,.089-7.893.161-17.631.161s-17.637-.071-17.637-.161,7.893-.161,17.637-.161S382.518,258.111,382.518,258.2Z" transform="translate(-257.488 -143.654)"/><circle class="g" cx="20.31" cy="20.31" r="20.31" transform="matrix(0.307, -0.952, 0.952, 0.307, 84.384, 173.248)"/><path class="d" d="M368.52,326.4c.768-.06,1.464.786,1.56,1.9s-.458,2.06-1.226,2.125-1.47-.786-1.56-1.893S367.752,326.463,368.52,326.4Z" transform="translate(-265.597 -171.371)"/><path class="d" d="M390.045,326c-.768-.036-1.435.845-1.476,1.958s.542,2.042,1.31,2.071,1.435-.845,1.482-1.958S390.819,326,390.045,326Z" transform="translate(-274.211 -171.21)"/><path class="d" d="M383.27,337.142c.036.036-.131.244-.458.6a11.58,11.58,0,0,1-1.524,1.375,10.844,10.844,0,0,1-2.685,1.47,9.469,9.469,0,0,1-3.726.6,10.868,10.868,0,0,1-3.661-.845,15.631,15.631,0,0,1-2.7-1.411,8.161,8.161,0,0,1-2.161-1.786,23.473,23.473,0,0,1,2.381,1.381,18.886,18.886,0,0,0,2.673,1.256,11.383,11.383,0,0,0,3.482.756,9.572,9.572,0,0,0,3.5-.506,12.121,12.121,0,0,0,2.625-1.286c.691-.476,1.25-.875,1.613-1.19S383.24,337.112,383.27,337.142Z" transform="translate(-265.222 -175.724)"/><path class="d" d="M367.965,318.468c-.036.179-1.006.113-2.161.3s-2.06.536-2.149.375.768-.8,2.054-1S368.025,318.3,367.965,318.468Z" transform="translate(-264.126 -167.999)"/><path class="d" d="M395.46,319.276c-.113.143-.97-.369-2.125-.714s-2.149-.417-2.155-.6,1.065-.4,2.345,0S395.573,319.151,395.46,319.276Z" transform="translate(-275.269 -167.86)"/><path class="d" d="M365.54,334.7c.077,0,.208.2.226.6a2.321,2.321,0,0,1-.44,1.4,2.3,2.3,0,0,1-1.19.881c-.369.107-.6.054-.625,0,0-.179.75-.44,1.286-1.226S365.361,334.73,365.54,334.7Z" transform="translate(-264.07 -174.738)"/><path class="d" d="M396.071,336.719c0,.077-.155.2-.47.226a1.836,1.836,0,0,1-1.839-1.363c-.065-.31,0-.506.083-.512.179,0,.381.6.976,1.006S396.03,336.54,396.071,336.719Z" transform="translate(-276.304 -174.887)"/><path class="g" d="M388.417,317.469a3.576,3.576,0,0,0-.036-.411l-.077-1.19c0-.262-.03-.56-.048-.881s-.107-.673-.161-1.054-.125-.792-.2-1.226a13.883,13.883,0,0,0-.327-1.381,24.084,24.084,0,0,0-2.8-6.69,25.1,25.1,0,0,0-6.387-7.143l-1.089-.8c-.381-.25-.78-.482-1.19-.726a12.594,12.594,0,0,0-1.226-.708l-1.3-.625-.661-.315-.7-.25-1.417-.518c-.476-.161-.982-.262-1.476-.393a11.7,11.7,0,0,0-1.518-.345,23.216,23.216,0,0,0-3.173-.369c-.542,0-1.089-.071-1.637-.06l-1.661.083a4.421,4.421,0,0,0-.839.054l-.839.131c-.554.089-1.125.155-1.685.274a25.467,25.467,0,0,0-3.345.982,26.384,26.384,0,0,0-3.274,1.435c-.53.292-1.036.625-1.56.935-.256.167-.53.3-.774.488l-.738.554a28.671,28.671,0,0,0-2.845,2.417l-1.274,1.4-.321.357-.292.381-.6.768-.6.768-.506.827-.506.833-.25.417-.214.435-.851,1.786-.679,1.857a24.833,24.833,0,0,0,0,15.827c.232.6.458,1.238.684,1.857s.565,1.19.851,1.786l.214.44.25.417.506.827.506.827.6.774.6.768.286.381.321.351,1.274,1.4a28.619,28.619,0,0,0,2.845,2.423l.744.548c.244.19.518.327.774.494.524.31,1.03.643,1.56.935a27.727,27.727,0,0,0,6.619,2.417c.56.119,1.131.184,1.69.274l.833.131c.28.036.56.036.839.054l1.661.083c.548,0,1.1-.042,1.637-.06a23.1,23.1,0,0,0,3.173-.369,12.769,12.769,0,0,0,1.518-.345c.5-.131,1-.238,1.482-.393l1.411-.518.7-.25.661-.315,1.3-.625a13.68,13.68,0,0,0,1.226-.708c.4-.244.8-.476,1.19-.726l1.083-.81a25.1,25.1,0,0,0,6.393-7.143,24.185,24.185,0,0,0,2.792-6.72,13.793,13.793,0,0,0,.327-1.375c.071-.435.137-.845.2-1.226s.125-.732.161-1.054.036-.6.048-.881c.036-.518.06-.917.077-1.19s.036-.411.036-.411v.411c0,.274-.03.679-.048,1.19a7.567,7.567,0,0,1-.036.887c-.036.292-.1.679-.143,1.06s-.119.8-.185,1.238a14.1,14.1,0,0,1-.315,1.381,23.894,23.894,0,0,1-2.756,6.768,25.149,25.149,0,0,1-6.4,7.214l-1.1.821c-.381.256-.786.488-1.19.738a10.618,10.618,0,0,1-1.238.714l-1.31.637-.667.339-.7.256-1.423.524c-.488.167-.994.268-1.494.4a13.087,13.087,0,0,1-1.536.357,23.5,23.5,0,0,1-3.208.375c-.542,0-1.1.077-1.649.071l-1.679-.083a4.391,4.391,0,0,1-.851-.054l-.845-.131c-.565-.089-1.143-.155-1.708-.274a27.344,27.344,0,0,1-3.387-.988,26.944,26.944,0,0,1-3.31-1.446c-.542-.292-1.054-.631-1.583-.946a8.276,8.276,0,0,1-.786-.494l-.75-.56a28.425,28.425,0,0,1-2.881-2.44l-1.292-1.423-.327-.357-.292-.387-.6-.774-.6-.786-.512-.833-.512-.839-.256-.423-.214-.446-.863-1.786c-.232-.625-.458-1.256-.69-1.881a25.167,25.167,0,0,1,0-16.024l.69-1.881.863-1.786.22-.446.256-.423.512-.839.512-.833.6-.78.6-.78.292-.387.321-.357c.435-.47.863-.946,1.292-1.417a29.273,29.273,0,0,1,2.881-2.446l.75-.56c.25-.185.524-.327.786-.494.53-.31,1.048-.649,1.583-.94a26.943,26.943,0,0,1,3.31-1.446,27.342,27.342,0,0,1,3.387-.988c.565-.119,1.143-.185,1.708-.274l.845-.131c.28-.036.565-.036.845-.054l1.679-.083c.56,0,1.107.048,1.655.071a23.493,23.493,0,0,1,3.208.375,14.716,14.716,0,0,1,1.536.351c.5.143,1.006.244,1.488.4l1.429.524.7.262.667.321,1.315.631c.44.2.827.488,1.232.72s.809.482,1.19.738l1.1.821a25.15,25.15,0,0,1,6.4,7.2,23.936,23.936,0,0,1,2.762,6.75c.107.494.268.946.315,1.387s.125.851.185,1.238.113.732.143,1.06,0,.6.036.881c0,.524.036.923.048,1.19A2.716,2.716,0,0,1,388.417,317.469Z" transform="translate(-253.655 -157.518)"/><rect class="b" width="184.125" height="9.185" transform="translate(15.083 88.71)"/><path class="e" d="M230.078,221.3a1.244,1.244,0,1,1-1.244-1.244A1.244,1.244,0,0,1,230.078,221.3Z" transform="translate(-209.054 -128.255)"/><path class="e" d="M237.018,221.3a1.244,1.244,0,1,1-1.244-1.244,1.244,1.244,0,0,1,1.244,1.244Z" transform="translate(-211.863 -128.255)"/><path class="e" d="M243.968,221.3a1.244,1.244,0,1,1-1.244-1.244A1.244,1.244,0,0,1,243.968,221.3Z" transform="translate(-214.676 -128.255)"/><path class="b" d="M399.958,277.575c0,.089-31.946.161-71.351.161s-71.357-.071-71.357-.161,31.946-.155,71.357-.155S399.958,277.491,399.958,277.575Z" transform="translate(-221.06 -151.511)"/><path class="b" d="M399.958,283.521c0,.083-31.946.155-71.351.155s-71.357-.071-71.357-.155,31.946-.161,71.357-.161S399.958,283.431,399.958,283.521Z" transform="translate(-221.06 -153.92)"/><path class="f" d="M336.017,186.437s-1.256-2.851-1.494-3.476c-.637-1.708-4.762-13.155-3.768-14.881,4.565-8.018,8.107-13.69,17.113-13.69l15.911-.107s15.071-3.071,25.7,31.214Z" transform="translate(-250.749 -101.565)"/><path class="f" d="M281.424,189.264l20.833-4.488L326.746,171.9l.089-17.577c-3.673-1.012-10.714,1.536-23.363,7.982l-18.8,9.708a11.131,11.131,0,0,0-3.244,17.262Z" transform="translate(-229.716 -101.525)"/><path class="j" d="M352.281,264.032c-.3-.988-.1-1.625,1.345-1.137,3.179,1.065,6.018.714,6.708.1s.06-1.786-.976-1.7a12.542,12.542,0,0,1-3.345-.464,8.18,8.18,0,0,1-2.494-1.054c-.667-.423-1.238-.821-1.744-1.19,0,0-2.935-2.119-3.851-3.821l-10.054,4.3,1.619,5.036a5.357,5.357,0,0,0,3.4,3.893c2.875.935,7.446.6,7.446.6.839-.548,4.071,4.131,5.054,5.78s2.143,1.857,2.524.851c.256-.69-2.619-5.815-3.619-7.429a19.53,19.53,0,0,1-2.012-3.78" transform="translate(-253.691 -142.34)"/><path class="k" d="M349.292,275.826c0,.036-.25,0-.6-.143a2.482,2.482,0,0,1-1.054-1.024,2.577,2.577,0,0,1-.327-1.435c.036-.381.155-.6.191-.6a3.321,3.321,0,0,0,1.786,3.179Z" transform="translate(-257.513 -149.571)"/><path class="k" d="M354.738,276.142c0,.036-.238,0-.56-.161a2.494,2.494,0,0,1-.982-1.006,2.553,2.553,0,0,1-.31-1.375c.036-.363.137-.6.179-.554a4.7,4.7,0,0,0,.411,1.786A4.833,4.833,0,0,0,354.738,276.142Z" transform="translate(-259.768 -149.738)"/><path class="f" d="M282.32,203.5s31.917,36.679,31.875,36.071,14.286-11.31,14.286-11.31L297.213,191Z" transform="translate(-231.207 -116.494)"/><path class="d" d="M314.84,199.92a2.5,2.5,0,0,1,.226.214l.6.667,2.143,2.476c1.786,2.1,4.268,5.012,6.982,8.244s5.161,6.173,6.917,8.333l2.065,2.542.554.7c.119.161.185.25.173.256a1.221,1.221,0,0,1-.22-.214l-.6-.667c-.542-.6-1.262-1.458-2.143-2.476-1.786-2.1-4.274-5.012-6.988-8.244s-5.155-6.173-6.917-8.333l-2.065-2.542c-.22-.28-.4-.512-.548-.7a1.322,1.322,0,0,1-.179-.256Z" transform="translate(-244.37 -120.099)"/><path class="d" d="M405.823,197.189a10.775,10.775,0,0,0,.381-2.381,7.03,7.03,0,0,0-2.083-5.143c-.774-.815-1.607-1.518-2.28-2.256a6.87,6.87,0,0,1-1.429-2.226,3.935,3.935,0,0,1-.262-1.786,1.643,1.643,0,0,1,.167-.637,4.476,4.476,0,0,0,.3,2.321,7.19,7.19,0,0,0,1.435,2.113c.667.708,1.5,1.4,2.292,2.232a7.292,7.292,0,0,1,1.72,2.75,7.048,7.048,0,0,1,.363,2.619,6.15,6.15,0,0,1-.339,1.75,2.108,2.108,0,0,1-.268.643Z" transform="translate(-278.894 -113.136)"/><path class="d" d="M330.036,158.764s.161-.083.464-.22a13.253,13.253,0,0,1,1.381-.5,11.908,11.908,0,0,1,2.286-.464,7.775,7.775,0,0,1,3.083.286,7.184,7.184,0,0,1,3.149,2.024,8.333,8.333,0,0,1,1.917,3.875,14.7,14.7,0,0,1,.3,4.762,10.345,10.345,0,0,1-1.786,4.762,13.1,13.1,0,0,1-3.815,3.387c-1.4.881-2.8,1.6-4.137,2.3l-7.089,3.726-4.762,2.482-1.31.661a2.541,2.541,0,0,1-.47.208,3.887,3.887,0,0,1,.44-.268l1.28-.714,4.762-2.571,7.048-3.78c1.327-.708,2.738-1.435,4.113-2.31a12.935,12.935,0,0,0,3.726-3.3,10.017,10.017,0,0,0,1.714-4.637,14.625,14.625,0,0,0-.28-4.643,8.107,8.107,0,0,0-1.786-3.744,6.911,6.911,0,0,0-3.024-1.988,7.738,7.738,0,0,0-2.976-.327,12.273,12.273,0,0,0-2.268.411c-.6.173-1.077.327-1.393.44A2.434,2.434,0,0,1,330.036,158.764Z" transform="translate(-246.155 -102.911)"/><path class="d" d="M317.379,200.389a16.313,16.313,0,0,0-1.786-4.256,18.064,18.064,0,0,0-3.155-3.363,4.089,4.089,0,0,1,1.19.726,10.226,10.226,0,0,1,3.571,5.524A4.024,4.024,0,0,1,317.379,200.389Z" transform="translate(-243.397 -117.192)"/><path class="c" d="M385.972,190.979a3.858,3.858,0,0,1-.679.185,6.911,6.911,0,0,1-2.012.089,7.476,7.476,0,0,1-3.024-.994,6.958,6.958,0,0,1-2.792-3.137,7.4,7.4,0,0,1-.387-5.065,4.167,4.167,0,0,1,1.685-2.333,2.089,2.089,0,0,1,1.524-.315,2.25,2.25,0,0,1,1.321.881,7.369,7.369,0,0,1,.714,6.351,7.536,7.536,0,0,1-1.786,2.976,6.887,6.887,0,0,1-3.1,1.786,7.1,7.1,0,0,1-6.667-1.6,6.958,6.958,0,0,1-1.994-6.048,6.03,6.03,0,0,1,1.19-2.8,3.03,3.03,0,0,1,1.19-.911,1.917,1.917,0,0,1,1.464,0,2.726,2.726,0,0,1,1.554,2.167,4.572,4.572,0,0,1-.482,2.429,11.637,11.637,0,0,1-2.536,3.381,12.019,12.019,0,0,1-2.6,1.839,11.217,11.217,0,0,1-1.857.78c-.214.071-.387.107-.5.137a.7.7,0,0,1-.179.036.6.6,0,0,1,.167-.065c.113-.042.28-.089.494-.173a12.5,12.5,0,0,0,1.815-.821,12.3,12.3,0,0,0,2.542-1.863,11.549,11.549,0,0,0,2.452-3.339,4.405,4.405,0,0,0,.44-2.31,2.488,2.488,0,0,0-1.411-1.952,1.655,1.655,0,0,0-1.262,0,2.732,2.732,0,0,0-1.071.833,5.69,5.69,0,0,0-1.143,2.673,6.661,6.661,0,0,0,1.917,5.774,6.78,6.78,0,0,0,6.357,1.482,6.5,6.5,0,0,0,2.976-1.667,7.208,7.208,0,0,0,1.732-2.827,7.738,7.738,0,0,0,.351-3.2,6.314,6.314,0,0,0-.327-1.53,4.411,4.411,0,0,0-.667-1.351,1.988,1.988,0,0,0-1.155-.78,1.786,1.786,0,0,0-1.315.274,3.863,3.863,0,0,0-1.6,2.149,7.185,7.185,0,0,0,.333,4.9,6.762,6.762,0,0,0,2.685,3.077,7.345,7.345,0,0,0,2.946,1.024,8.137,8.137,0,0,0,2.69-.149Z" transform="translate(-265.085 -111.763)"/><path class="k" d="M402.551,135.842a7.214,7.214,0,0,1-1.423-2.827,1.893,1.893,0,0,1-.036-1.03.786.786,0,0,1,.768-.6c.357,0,.6.363.792.667a15.373,15.373,0,0,1,1.464,2.786,2.108,2.108,0,0,1,.173.845.851.851,0,0,1-.411.72.881.881,0,0,1-.9-.119,2.661,2.661,0,0,1-.6-.72" transform="translate(-279.259 -92.257)"/><path class="k" d="M404.857,134.2l-1.571-3.3a2.647,2.647,0,0,1-.327-1.024.893.893,0,0,1,.506-.881.881.881,0,0,1,.869.226,2.488,2.488,0,0,1,.53.774l.744,1.446a4.632,4.632,0,0,1,.488,1.226,1.583,1.583,0,0,1-.244,1.268.97.97,0,0,1-1.19.28" transform="translate(-280.035 -91.275)"/><path class="j" d="M392.772,143.732s-2.19-2.839-2.381-4.333,1.637-4.167,5.571-4.762a9.619,9.619,0,0,0,4.048-1.381,1.268,1.268,0,0,0,.458-1.536,22.249,22.249,0,0,1-1.375-3.9c.185-.8.708-.786,2.065,1.19s2.935,4.012,2.631,4.929-5.1,3.756-5.1,3.756l1.31,2.113Z" transform="translate(-274.944 -90.657)"/><path class="f" d="M405.991,180.106l-15.1-29.589,9.726-5.446,20.429,32.381s1.077,2.071,2.583,4.494H406.5" transform="translate(-275.152 -97.859)"/><path class="d" d="M400.273,145.07a1.41,1.41,0,0,1-.167.119l-.512.31-1.952,1.137-7.024,4,.054-.179c1.47,2.976,3.381,6.458,5.3,10.226,2.863,5.565,5.357,10.667,7.083,14.381.869,1.857,1.56,3.369,2.03,4.411.22.506.4.9.53,1.191a2.167,2.167,0,0,1,.167.429,2.251,2.251,0,0,1-.226-.4c-.143-.3-.339-.69-.6-1.19l-2.119-4.369c-1.786-3.685-4.3-8.768-7.143-14.333-1.923-3.762-3.821-7.232-5.268-10.244l-.054-.119.113-.065,7.077-3.9,1.994-1.077.53-.274A.7.7,0,0,1,400.273,145.07Z" transform="translate(-274.945 -97.859)"/><path class="d" d="M337.988,203.622a18.292,18.292,0,0,1-2.518-6.952c.1,0,.506,1.583,1.19,3.494S338.071,203.581,337.988,203.622Z" transform="translate(-252.72 -118.773)"/><path class="d" d="M394.026,118.492a5.952,5.952,0,0,0,7.042-9.03c3.411-.863,5.536-4.8,4.845-8.25a9.31,9.31,0,0,0-7.208-6.887,7.738,7.738,0,0,0-3.988.1,4.9,4.9,0,0,0-2.976,2.554" transform="translate(-275.496 -77.168)"/><path class="g" d="M391.979,121.98c0,.036-.44.119-1.161.494a5.125,5.125,0,0,0-2.28,2.452,5.047,5.047,0,0,0,.381,4.8,4.809,4.809,0,0,0,.952,1.083,4.726,4.726,0,0,0,1.274.792,5,5,0,0,0,5.768-1.315,4.852,4.852,0,0,0,.8-1.268,4.937,4.937,0,0,0,.387-1.387,5.1,5.1,0,0,0-4.857-5.714c-.815-.03-1.262.1-1.268.06a1.244,1.244,0,0,1,.321-.089,4.322,4.322,0,0,1,.946-.1,5.229,5.229,0,0,1,5.173,5.869,4.7,4.7,0,0,1-.4,1.47,4.893,4.893,0,0,1-.845,1.351,5.286,5.286,0,0,1-6.125,1.4,5.06,5.06,0,0,1-1.345-.851,4.924,4.924,0,0,1-1-1.149,5.357,5.357,0,0,1-.827-2.667,5.214,5.214,0,0,1,2.911-4.851,4.059,4.059,0,0,1,.9-.327A1.309,1.309,0,0,1,391.979,121.98Z" transform="translate(-273.932 -88.371)"/><path class="d" d="M368.828,89.875a5.851,5.851,0,0,0,2.75-10.815,7.268,7.268,0,0,0-10.851-8.506,9.643,9.643,0,0,0-17.857,2.857A9.321,9.321,0,0,0,330.905,86.06a7.222,7.222,0,0,0,1.226,14.393,6.369,6.369,0,0,0,9.655,7.143,6.976,6.976,0,0,0,12.536-1.44" transform="translate(-248.197 -65.647)"/><path class="j" d="M374.777,125.718c.125-2.9.28-5.524.28-5.524s6.482-.815,6.762-7.429-.381-21.839-.381-21.839l-11.9-5.726L356.7,95.533l2.012,30.357a8.06,8.06,0,0,0,8.411,7.512h0A8.048,8.048,0,0,0,374.777,125.718Z" transform="translate(-261.313 -73.561)"/><path class="d" d="M395.5,113.166c-.107.113-.726-.4-1.613-.44s-1.548.417-1.637.3.06-.256.345-.47a2.1,2.1,0,0,1,1.315-.375,2.131,2.131,0,0,1,1.28.494C395.461,112.91,395.55,113.118,395.5,113.166Z" transform="translate(-275.693 -84.48)"/><path class="d" d="M378.981,113.166c-.107.113-.72-.4-1.613-.44s-1.542.417-1.637.3.06-.256.345-.47a2.1,2.1,0,0,1,1.315-.375,2.131,2.131,0,0,1,1.28.494C378.939,112.91,379.029,113.118,378.981,113.166Z" transform="translate(-269.005 -84.48)"/><path class="d" d="M386.613,119.65a5.3,5.3,0,0,1,1.446-.22c.226,0,.44-.06.482-.22a1.327,1.327,0,0,0-.137-.726q-.31-.893-.643-1.875a33.367,33.367,0,0,1-1.429-4.9,33.933,33.933,0,0,1,1.786,4.762l.6,1.887a1.56,1.56,0,0,1,.1.958.6.6,0,0,1-.381.339,1.3,1.3,0,0,1-.381.042,5.423,5.423,0,0,1-1.441-.048Z" transform="translate(-273.303 -84.291)"/><path class="k" d="M381.707,142.09a15.762,15.762,0,0,1-8.577-2.81s2.018,4.815,8.464,4.435Z" transform="translate(-267.963 -95.503)"/><path class="d" d="M371.023,85.113a8.738,8.738,0,0,0,.119,10.119,5.079,5.079,0,0,0,4.006,2.232c1.589-.06,3.125-1.56,2.786-3.113a3.286,3.286,0,1,0,6.3.113,6,6,0,0,0,.744,2.024,2.006,2.006,0,0,0,1.827.964c.994-.131,1.571-1.19,1.786-2.185a8.97,8.97,0,0,0-2.53-8.262,10.845,10.845,0,0,0-8.262-2.9,13.8,13.8,0,0,0-8.113,3.571" transform="translate(-266.481 -73.106)"/><path class="d" d="M363.6,89.74a15.333,15.333,0,0,1,1.333,5.952,7.958,7.958,0,0,1-2.143,5.571,5.411,5.411,0,0,1-5.625,1.351,6.262,6.262,0,0,1-.821,5.28,4,4,0,0,1-4.9,1.286c-1.464-.8-2.1-2.571-2.3-4.226a13.536,13.536,0,0,1,14.72-15.1" transform="translate(-258.215 -75.399)"/><path class="j" d="M357.181,116.045a2.316,2.316,0,0,0-2.786.667,3.8,3.8,0,0,0,3.786,6.238" transform="translate(-259.979 -85.948)"/><path class="k" d="M357.922,122.311c0,.036-.292.077-.75-.048a2.006,2.006,0,0,1-1.357-1.19,1.47,1.47,0,0,1,.036-1.06,1.59,1.59,0,0,1,.548-.649c.411-.268.72-.262.726-.226s-.268.125-.6.4a1.3,1.3,0,0,0-.423,1.429,1.988,1.988,0,0,0,1.137,1.1C357.677,122.221,357.927,122.263,357.922,122.311Z" transform="translate(-260.922 -87.291)"/><path class="d" d="M379.126,108.706c-.083.256-1.054.161-2.2.214s-2.107.2-2.208-.054.833-.851,2.173-.9S379.215,108.462,379.126,108.706Z" transform="translate(-268.602 -82.776)"/><path class="d" d="M395.723,108.191c-.1.089-.3,0-.53-.03a2.3,2.3,0,0,0-.81-.048c-.345,0-.726.1-1.018.089s-.494-.065-.53-.2.1-.286.339-.452a2.589,2.589,0,0,1,1.125-.393,1.5,1.5,0,0,1,1.28.452C395.8,107.882,395.818,108.108,395.723,108.191Z" transform="translate(-275.937 -82.445)"/><path class="k" d="M383.9,127.67a2.012,2.012,0,0,1,1.673-.238,1.25,1.25,0,0,1,.827,1.369,1.333,1.333,0,0,1-.536.762,1.732,1.732,0,0,1-1.375.333,1.351,1.351,0,0,1-1.03-.935,1.107,1.107,0,0,1,.542-1.238" transform="translate(-272.13 -90.621)"/><path class="d" d="M387.046,127.982a1.516,1.516,0,0,1-.637.274,2.851,2.851,0,0,1-1.679-.161,2.917,2.917,0,0,1-1.3-1.077c-.238-.363-.286-.631-.25-.649s.167.208.429.518a3.441,3.441,0,0,0,1.238.917,3.387,3.387,0,0,0,1.524.232C386.778,128.006,387.028,127.935,387.046,127.982Z" transform="translate(-272.028 -90.225)"/><path class="g" d="M359.995,130.776a10,10,0,0,0-.226-1.25,5.107,5.107,0,0,0-1.881-2.762,5.012,5.012,0,0,0-2.125-.929,5.119,5.119,0,0,0-2.637.226,4.762,4.762,0,0,0-1.268.69,4.6,4.6,0,0,0-1.054,1.065,4.988,4.988,0,0,0,0,5.911,4.6,4.6,0,0,0,1.054,1.065,4.763,4.763,0,0,0,1.268.69,5.083,5.083,0,0,0,6.643-3.464c.208-.786.185-1.25.226-1.244a1.981,1.981,0,0,1,0,.327,4.084,4.084,0,0,1-.113.946,5.125,5.125,0,0,1-1.869,2.911,5.238,5.238,0,0,1-2.214,1.012,5.3,5.3,0,0,1-2.786-.214,4.988,4.988,0,0,1-1.345-.72,4.924,4.924,0,0,1-1.125-1.125,5.256,5.256,0,0,1,0-6.28,4.922,4.922,0,0,1,1.125-1.125,4.987,4.987,0,0,1,1.345-.72,5.226,5.226,0,0,1,5,.8,5.125,5.125,0,0,1,1.869,2.911,4.084,4.084,0,0,1,.113.946,2.033,2.033,0,0,1,0,.333Z" transform="translate(-258.399 -89.863)"/><path class="f" d="M387.995,84.66a.488.488,0,0,1,.167.042,1.273,1.273,0,0,1,.417.268,1.923,1.923,0,0,1,.53,1.738,2.488,2.488,0,0,1-2.06,1.821,5.173,5.173,0,0,1-3.488-.833l-1.226-.708,1.345.44a1.458,1.458,0,0,1,.934,1.048,1.851,1.851,0,0,1-.19,1.423,1.982,1.982,0,0,1-1.19.857,2.816,2.816,0,0,1-1.506-.036,5.137,5.137,0,0,1-2.6-2.238l-.9-1.238,1.1,1.065a2.381,2.381,0,0,1,.6,2.25,2.44,2.44,0,0,1-1.321,1.673,3.19,3.19,0,0,1-3.387-.411,4.042,4.042,0,0,1-1.31-1.935,4.091,4.091,0,0,1-.143-.6,1.153,1.153,0,0,1,0-.214c.03,0,.066.286.256.78a4.113,4.113,0,0,0,1.3,1.786,3.012,3.012,0,0,0,3.149.327,2.185,2.185,0,0,0,1.161-1.5,2.1,2.1,0,0,0-.518-1.964l.232-.2a4.88,4.88,0,0,0,2.423,2.107,2.1,2.1,0,0,0,2.381-.679,1.425,1.425,0,0,0-.554-2.03l.119-.268a4.97,4.97,0,0,0,3.286.851,2.3,2.3,0,0,0,1.94-1.643,1.881,1.881,0,0,0-.423-1.637A2.263,2.263,0,0,0,387.995,84.66Z" transform="translate(-268.215 -73.343)"/><path class="f" d="M358.062,95.568s0,.042-.077.113a2.742,2.742,0,0,1-.28.3,3.881,3.881,0,0,1-1.327.792,3.786,3.786,0,0,1-2.381.036,3.976,3.976,0,0,1-2.381-2.042l.25-.036a3.851,3.851,0,1,1-6.476-3.381l.208.22a3.946,3.946,0,0,1-2.5.911,4.315,4.315,0,0,1-2.351-.643,3.572,3.572,0,0,1-1.411-1.655,4.2,4.2,0,0,1-.292-1.839,4.047,4.047,0,0,1,.976-2.417,2.582,2.582,0,0,1,.726-.6,4.246,4.246,0,0,0-1.512,3.054,4.029,4.029,0,0,0,.315,1.738,3.357,3.357,0,0,0,1.333,1.518,4.041,4.041,0,0,0,2.208.6,3.72,3.72,0,0,0,2.31-.845l.2.22a3.685,3.685,0,0,0-.756,4.006,3.643,3.643,0,0,0,3.976,2.018,3.7,3.7,0,0,0,2.786-2.9l.065-.417.185.381a3.786,3.786,0,0,0,2.19,1.952,3.631,3.631,0,0,0,2.292,0,3.964,3.964,0,0,0,1.321-.7C357.949,95.7,358.062,95.556,358.062,95.568Z" transform="translate(-254.163 -73.614)"/><path class="f" d="M342.118,115.307a1.488,1.488,0,0,1-.518.31,3.506,3.506,0,0,1-1.649.256,3.4,3.4,0,0,1-2.268-1.107,3.673,3.673,0,0,1-.9-3.054l.274.119a6.119,6.119,0,0,1-2.232,1.827,4.762,4.762,0,0,1-2.173.458,4.352,4.352,0,0,1-1.994-.548,3.53,3.53,0,0,1-1.9-2.815,3.369,3.369,0,0,1,.6-2.232,2.445,2.445,0,0,1,.446-.452.6.6,0,0,1,.19-.119,3.709,3.709,0,0,0-.536.643,3.357,3.357,0,0,0-.488,2.143,3.3,3.3,0,0,0,1.833,2.6,4.268,4.268,0,0,0,3.887.054,5.857,5.857,0,0,0,2.125-1.72l.387-.5-.113.6a3.435,3.435,0,0,0,.792,2.821,3.268,3.268,0,0,0,2.1,1.1,3.7,3.7,0,0,0,1.589-.161C341.922,115.4,342.106,115.289,342.118,115.307Z" transform="translate(-249.999 -82.77)"/><path class="f" d="M404.812,98.65a2.054,2.054,0,0,1,.131,1.1,3.97,3.97,0,0,1-3.482,3.637,1.97,1.97,0,0,1-1.1-.083c0-.054.423,0,1.065-.137a4.089,4.089,0,0,0,3.292-3.446C404.824,99.073,404.759,98.656,404.812,98.65Z" transform="translate(-278.985 -79.005)"/><path class="f" d="M408.9,109.12a1.137,1.137,0,0,1,.149.452,2.577,2.577,0,0,1-.125,1.3,2.036,2.036,0,0,1-1.44,1.327,2.077,2.077,0,0,1-1.19-.107,1.661,1.661,0,0,1-.946-.917l.3-.1a2.09,2.09,0,0,1,.077.6,2.381,2.381,0,0,1-1.494,2.119,1.976,1.976,0,0,1-1.19.054,2.274,2.274,0,0,1-.893-.494,2.137,2.137,0,0,1-.72-1.25,1.307,1.307,0,0,1,0-.524,1.788,1.788,0,0,0,.1.5,2.226,2.226,0,0,0,.744,1.1,1.857,1.857,0,0,0,1.833.339,2.1,2.1,0,0,0,1.28-1.851,1.612,1.612,0,0,0-.065-.488l.3-.1a1.613,1.613,0,0,0,1.786.857,1.833,1.833,0,0,0,1.3-1.125,2.721,2.721,0,0,0,.208-1.19C408.9,109.287,408.846,109.126,408.9,109.12Z" transform="translate(-279.406 -83.243)"/><path class="d" d="M382.428,124c.042,0,.065.137,0,.339a1.4,1.4,0,0,1-1.19.976c-.208,0-.333-.036-.327-.077a3.7,3.7,0,0,0,.863-.482C382.178,124.4,382.338,124,382.428,124Z" transform="translate(-271.112 -89.266)"/></g><g transform="translate(92.9 293.093)"><path class="d" d="M435.46,464.715c0,.089-76.682.155-171.268.155S92.9,464.822,92.9,464.715s76.682-.155,171.292-.155S435.46,464.631,435.46,464.715Z" transform="translate(-92.9 -464.56)"/></g><g transform="translate(388.921 239.065)"><path class="g" d="M615.053,395.815c-1.488,2.119-4.375,1.417-5.714.125a10.8,10.8,0,0,1-2.423-4.964c-1.19-4.089-2.381-8.381-1.488-12.548a6.957,6.957,0,0,1,1.607-3.411,3.619,3.619,0,0,1,3.446-1.149c1.458.381,2.381,1.786,3.018,3.167a29.956,29.956,0,0,1,2.976,12.833,10.468,10.468,0,0,1-1.4,5.952" transform="translate(-596.711 -373.794)"/><g class="l" transform="translate(8.406)"><path d="M615.053,395.815c-1.488,2.119-4.375,1.417-5.714.125a10.8,10.8,0,0,1-2.423-4.964c-1.19-4.089-2.381-8.381-1.488-12.548a6.957,6.957,0,0,1,1.607-3.411,3.619,3.619,0,0,1,3.446-1.149c1.458.381,2.381,1.786,3.018,3.167a29.956,29.956,0,0,1,2.976,12.833,10.468,10.468,0,0,1-1.4,5.952" transform="translate(-605.116 -373.794)"/></g><path class="g" d="M603.772,428.016a12.875,12.875,0,0,0-8.012-.976,6.548,6.548,0,0,0-3.946,1.786c-.97,1.107-1.19,3.006-.042,3.94a3.768,3.768,0,0,0,2.488.631c2.113,0,4.458-.393,6.143.875.964.726,1.607,1.935,2.756,2.292a2.732,2.732,0,0,0,2.976-1.333,4.661,4.661,0,0,0,.339-3.435A5.232,5.232,0,0,0,603.772,428.016Z" transform="translate(-590.995 -395.244)"/><path class="g" d="M627.6,403.484a7.651,7.651,0,0,1-1.19-7.1,13.69,13.69,0,0,1,4.208-6.107,22.62,22.62,0,0,1,7.536-4.446,7.928,7.928,0,0,1,3.393-.6,3.572,3.572,0,0,1,2.839,1.72c.8,1.512.036,3.345-.786,4.845a57.5,57.5,0,0,1-4.964,7.577c-1.482,1.917-3.185,3.8-5.446,4.667s-4.607.762-5.81-.8" transform="translate(-605.179 -378.421)"/><path class="d" d="M614.455,451.3a4.544,4.544,0,0,1-.137-.964c-.065-.7-.155-1.583-.256-2.631a38.017,38.017,0,0,0-.6-3.857,29.914,29.914,0,0,0-1.4-4.56,16.672,16.672,0,0,0-2.327-4.119,8.684,8.684,0,0,0-2.941-2.446,8.238,8.238,0,0,0-2.476-.774,4.635,4.635,0,0,1-.958-.137,4.069,4.069,0,0,1,.976,0,7.572,7.572,0,0,1,2.583.673,8.733,8.733,0,0,1,3.1,2.47,16.492,16.492,0,0,1,2.411,4.2,28.052,28.052,0,0,1,1.393,4.631,31.939,31.939,0,0,1,.512,3.911c.083,1.119.119,2.024.131,2.649A4.557,4.557,0,0,1,614.455,451.3Z" transform="translate(-596 -397.265)"/><path class="d" d="M618.315,431.582a2.382,2.382,0,0,1,0-.446v-1.28c0-1.107,0-2.714-.06-4.7-.1-3.97-.44-9.446-1.1-15.476s-1.548-11.44-2.345-15.327c-.19-.976-.381-1.851-.6-2.619s-.315-1.435-.458-1.97-.22-.917-.3-1.244a1.542,1.542,0,0,1-.077-.446,2.214,2.214,0,0,1,.155.423l.369,1.226c.167.53.333,1.19.53,1.958s.411,1.637.6,2.613a145.5,145.5,0,0,1,2.47,15.345c.661,6.036.958,11.53.982,15.506,0,1.988,0,3.6-.065,4.714-.036.518-.06.94-.083,1.28a1.427,1.427,0,0,1-.018.446Z" transform="translate(-600.056 -379.572)"/><path class="d" d="M621.611,423.2a8.259,8.259,0,0,1,0-1.339c.054-.857.173-2.1.411-3.619a48.5,48.5,0,0,1,1.19-5.28,47.089,47.089,0,0,1,2.191-6.244,33.334,33.334,0,0,1,6.476-10.089,16.757,16.757,0,0,1,1.53-1.417c.232-.2.441-.393.649-.548l.6-.411a8.677,8.677,0,0,1,1.125-.72,41.67,41.67,0,0,0-3.685,3.292,34.952,34.952,0,0,0-6.316,10.083,54.361,54.361,0,0,0-3.47,11.411c-.292,1.5-.435,2.732-.536,3.571a8.246,8.246,0,0,1-.161,1.309Z" transform="translate(-603.376 -381.782)"/></g><g transform="translate(175.793 41.617)"><path class="d" d="M255.008,41.619a3.957,3.957,0,0,1-.417.054l-1.19.1a13.2,13.2,0,0,0-1.952.28c-.387.083-.809.119-1.238.25s-.893.262-1.375.4a22.923,22.923,0,0,0-6.548,3.339,23.351,23.351,0,0,0-6.387,7.274,25,25,0,0,0-3.03,14.488c.036.548.155,1.089.232,1.643a12.453,12.453,0,0,0,.333,1.649A23.292,23.292,0,0,0,236,77.559a22.982,22.982,0,0,0,10.97,9.744,21.286,21.286,0,0,0,7.679,1.637,20.708,20.708,0,0,0,7.982-1.262l.78-.3.1-.036.1.042,11.31,5.583-.327.292-3.607-10.768-.042-.137.1-.1a23.977,23.977,0,0,0,5.792-9.881,24.663,24.663,0,0,0,.738-10.458,24.054,24.054,0,0,0-8.2-14.988,25,25,0,0,0-5.565-3.452,24.149,24.149,0,0,0-4.685-1.417l-1.75-.274-1.292-.077-.792-.054a1.328,1.328,0,0,1-.268-.03,1.137,1.137,0,0,1,.268,0h.792l1.3.036,1.786.244a23.635,23.635,0,0,1,4.762,1.363,24.553,24.553,0,0,1,5.661,3.44,24.107,24.107,0,0,1,5.256,6.2,24.464,24.464,0,0,1,3.149,8.929,25,25,0,0,1-.714,10.637A24.333,24.333,0,0,1,271.4,82.559l.042-.238c1.19,3.452,2.381,7.054,3.619,10.762l.185.542-.512-.25L263.419,87.8h.2l-.8.3a21.042,21.042,0,0,1-8.161,1.268,21.7,21.7,0,0,1-7.845-1.673,23.434,23.434,0,0,1-11.173-9.964,23.684,23.684,0,0,1-2.6-6.548,11.61,11.61,0,0,1-.327-1.679c-.077-.56-.2-1.107-.232-1.667a24.354,24.354,0,0,1-.083-3.286,25.243,25.243,0,0,1,.946-6.137,24.8,24.8,0,0,1,2.25-5.262,23.5,23.5,0,0,1,6.548-7.327,22.69,22.69,0,0,1,6.637-3.3l1.4-.381a12.351,12.351,0,0,1,1.244-.226,12.138,12.138,0,0,1,1.97-.238l1.22-.06Z" transform="translate(-232.374 -41.617)"/><path class="g" d="M269.939,70.882H268.29l-3.655-4.97L264.6,62.62s-2.548-.125-2.2,4.167,0,3.208,0,3.208-5.4.083-5.851.56c-.321.345-.411,5.72-.429,8.631a3.155,3.155,0,0,0,2.31,3.185,2.482,2.482,0,0,0,.6.071c1.351,0,8.226-1.19,8.226-1.19l2.851-.036Z" transform="translate(-241.983 -50.118)"/><path class="g" d="M284.643,74.89l-.887,11.28-2.821.036-.125-11.042Z" transform="translate(-251.979 -55.084)"/></g></g></svg>