<svg xmlns="http://www.w3.org/2000/svg" width="91.784" height="23" viewBox="0 0 91.784 23">
  <g id="Debit_Card" data-name="Debit Card" transform="translate(2859 13967)">
    <path id="Path_23143" data-name="Path 23143" d="M1.012,0V-9.953H3.951a4.61,4.61,0,0,1,2.341.588A4.009,4.009,0,0,1,7.875-7.7a5.3,5.3,0,0,1,.561,2.475v.5a5.273,5.273,0,0,1-.564,2.488A3.96,3.96,0,0,1,6.265-.581,4.824,4.824,0,0,1,3.876,0ZM2.741-8.559v7.178H3.869a2.6,2.6,0,0,0,2.088-.851A3.707,3.707,0,0,0,6.7-4.676v-.554A3.8,3.8,0,0,0,6-7.7a2.5,2.5,0,0,0-2.044-.854ZM13.255.137a3.437,3.437,0,0,1-2.56-.995,3.608,3.608,0,0,1-.981-2.649v-.205a4.438,4.438,0,0,1,.427-1.979,3.252,3.252,0,0,1,1.2-1.357,3.172,3.172,0,0,1,1.723-.485,2.9,2.9,0,0,1,2.334.964,4.076,4.076,0,0,1,.824,2.728v.67H11.389A2.221,2.221,0,0,0,12-1.723a1.837,1.837,0,0,0,1.35.533,2.249,2.249,0,0,0,1.859-.923l.9.854A2.99,2.99,0,0,1,14.919-.229,3.713,3.713,0,0,1,13.255.137Zm-.2-6.337a1.4,1.4,0,0,0-1.1.479,2.48,2.48,0,0,0-.537,1.333h3.165v-.123a2.019,2.019,0,0,0-.444-1.261A1.388,1.388,0,0,0,13.057-6.2ZM24-3.623a4.443,4.443,0,0,1-.769,2.741A2.505,2.505,0,0,1,21.116.137,2.413,2.413,0,0,1,19.093-.8l-.082.8h-1.5V-10.5h1.661v3.814A2.4,2.4,0,0,1,21.1-7.533a2.534,2.534,0,0,1,2.126,1A4.517,4.517,0,0,1,24-3.719ZM22.34-3.767a3.14,3.14,0,0,0-.424-1.8,1.411,1.411,0,0,0-1.23-.6,1.542,1.542,0,0,0-1.518.943v3.049a1.558,1.558,0,0,0,1.531.964A1.4,1.4,0,0,0,21.9-1.8a3.043,3.043,0,0,0,.438-1.757ZM27.159,0H25.5V-7.4h1.661ZM25.4-9.317a.882.882,0,0,1,.243-.636.917.917,0,0,1,.694-.253.928.928,0,0,1,.7.253.875.875,0,0,1,.246.636.855.855,0,0,1-.246.625.935.935,0,0,1-.7.25.924.924,0,0,1-.694-.25A.861.861,0,0,1,25.4-9.317Zm5.653.123v1.8h1.306v1.23H31.049v4.129a.909.909,0,0,0,.167.612.777.777,0,0,0,.6.188,2.559,2.559,0,0,0,.581-.068V-.021A4.091,4.091,0,0,1,31.3.137q-1.914,0-1.914-2.112v-4.19H28.171V-7.4h1.217v-1.8ZM44.864-3.24A3.594,3.594,0,0,1,43.688-.755a4.008,4.008,0,0,1-2.728.892,3.881,3.881,0,0,1-2.1-.564,3.7,3.7,0,0,1-1.4-1.6,5.785,5.785,0,0,1-.513-2.413v-.93a5.827,5.827,0,0,1,.5-2.481,3.761,3.761,0,0,1,1.432-1.654,4,4,0,0,1,2.157-.581,3.838,3.838,0,0,1,2.652.9,3.741,3.741,0,0,1,1.169,2.529H43.142a2.459,2.459,0,0,0-.625-1.548,2.067,2.067,0,0,0-1.473-.475,2.02,2.02,0,0,0-1.733.824,4.114,4.114,0,0,0-.619,2.417v.882a4.364,4.364,0,0,0,.578,2.461,1.917,1.917,0,0,0,1.692.848,2.236,2.236,0,0,0,1.531-.458,2.388,2.388,0,0,0,.649-1.524ZM50.668,0a2.564,2.564,0,0,1-.191-.69,2.586,2.586,0,0,1-1.941.827A2.61,2.61,0,0,1,46.717-.5a2.034,2.034,0,0,1-.7-1.572,2.1,2.1,0,0,1,.878-1.815A4.257,4.257,0,0,1,49.4-4.519h1.019V-5a1.3,1.3,0,0,0-.321-.919,1.274,1.274,0,0,0-.978-.345,1.463,1.463,0,0,0-.93.284.878.878,0,0,0-.362.721H46.17a1.844,1.844,0,0,1,.4-1.138,2.687,2.687,0,0,1,1.1-.831,3.854,3.854,0,0,1,1.548-.3,3.1,3.1,0,0,1,2.071.653,2.328,2.328,0,0,1,.793,1.835v3.336a3.781,3.781,0,0,0,.28,1.593V0ZM48.843-1.2a1.89,1.89,0,0,0,.926-.239,1.6,1.6,0,0,0,.653-.643V-3.473h-.9a2.449,2.449,0,0,0-1.388.321,1.041,1.041,0,0,0-.465.909.971.971,0,0,0,.318.762A1.231,1.231,0,0,0,48.843-1.2ZM57.7-5.879a4.111,4.111,0,0,0-.677-.055,1.524,1.524,0,0,0-1.538.875V0H53.819V-7.4h1.586l.041.827a1.872,1.872,0,0,1,1.668-.964,1.555,1.555,0,0,1,.588.1ZM58.3-3.753A4.4,4.4,0,0,1,59.1-6.5a2.541,2.541,0,0,1,2.126-1.036,2.414,2.414,0,0,1,1.9.82V-10.5h1.661V0h-1.5L63.2-.766a2.449,2.449,0,0,1-1.989.9,2.526,2.526,0,0,1-2.1-1.046A4.558,4.558,0,0,1,58.3-3.753Zm1.661.144a3.079,3.079,0,0,0,.434,1.76,1.408,1.408,0,0,0,1.234.632,1.569,1.569,0,0,0,1.49-.909V-5.284a1.545,1.545,0,0,0-1.477-.889,1.419,1.419,0,0,0-1.244.639A3.429,3.429,0,0,0,59.965-3.609Z" transform="translate(-2832 -13950)" fill="#08ce73"/>
    <g id="credit-card_1_" data-name="credit-card (1)" transform="translate(-2870.241 -13978)">
      <circle id="Ellipse_934" data-name="Ellipse 934" cx="11.5" cy="11.5" r="11.5" transform="translate(11.241 11)" fill="#08ce73"/>
      <rect id="Rectangle_5482" data-name="Rectangle 5482" width="14.856" height="9.44" rx="1" transform="translate(15.387 18.071)" fill="#fff"/>
      <path id="Path_23145" data-name="Path 23145" d="M34.68,58.57H49.536V60.5H34.68Z" transform="translate(-19.293 -38.806)" fill="#3a556a"/>
      <path id="Path_23146" data-name="Path 23146" d="M43.59,75h7v.748h-7Z" transform="translate(-26.561 -52.209)" fill="#fff"/>
      <g id="Group_14936" data-name="Group 14936" transform="translate(17.089 25.716)">
        <path id="Path_23147" data-name="Path 23147" d="M43.92,90.88h1.964v.639H43.92Z" transform="translate(-43.92 -90.88)" fill="#555"/>
        <path id="Path_23148" data-name="Path 23148" d="M61,90.88h1.964v.639H61Z" transform="translate(-57.853 -90.88)" fill="#555"/>
        <path id="Path_23149" data-name="Path 23149" d="M78.08,90.88h1.964v.639H78.08Z" transform="translate(-71.787 -90.88)" fill="#555"/>
        <path id="Path_23150" data-name="Path 23150" d="M95.17,90.88h1.964v.639H95.17Z" transform="translate(-85.728 -90.88)" fill="#555"/>
      </g>
    </g>
  </g>
</svg>
