<svg xmlns="http://www.w3.org/2000/svg" width="200" height="111" viewBox="0 0 234 144">
  <g id="Group_16314" data-name="Group 16314" transform="translate(-3.999)">
    <rect id="Rectangle_5423" data-name="Rectangle 5423" width="234" height="144" transform="translate(3.999)" fill="none"/>
    <g id="Group_16310" data-name="Group 16310" transform="translate(81 18)">
      <g id="Group_16309" data-name="Group 16309" transform="translate(8.726)">
        <path id="Path_23412" data-name="Path 23412" d="M-1.367,2432.688h-42a2.622,2.622,0,0,0-2.622,2.622v49.639a2.622,2.622,0,0,0,2.622,2.622h42a2.623,2.623,0,0,0,2.622-2.622v-49.639A2.622,2.622,0,0,0-1.367,2432.688Zm-1.411,43.341a2.467,2.467,0,0,1-2.467,2.467H-39.493a2.467,2.467,0,0,1-2.467-2.467v-36.552a2.467,2.467,0,0,1,2.467-2.467H-5.245a2.467,2.467,0,0,1,2.467,2.467Z" transform="translate(61.513 -2432.688)" fill="#dedede"/>
        <path id="Path_23413" data-name="Path 23413" d="M-68.635,2519.371V2489l-7.23,1.77a7.094,7.094,0,0,0-5.2,8.577l6.351,25.957a7.094,7.094,0,0,0,8.577,5.2l22.6-5.529a7.062,7.062,0,0,0,4.228-2.987h-26.7A2.622,2.622,0,0,1-68.635,2519.371Z" transform="translate(81.274 -2464.229)" fill="#dedede" opacity="0.46"/>
        <path id="Path_23414" data-name="Path 23414" d="M-21.213,2482.838l-10.372,4.61v9.262a2.262,2.262,0,0,0,2.262,2.261H.725a2.262,2.262,0,0,0,2.262-2.261v-23.091l-20.743,14.405Z" transform="translate(53.443 -2455.613)" fill="#dedede"/>
        <circle id="Ellipse_799" data-name="Ellipse 799" cx="2.859" cy="2.859" r="2.859" transform="translate(30.655 10.558)" fill="#dedede"/>
      </g>
      <path id="Path_23415" data-name="Path 23415" d="M8.789-.153h-1.7L2.715-7.109V-.153h-1.7v-9.8h1.7L7.1-2.974V-9.957h1.69Zm1.551-3.71a4.3,4.3,0,0,1,.424-1.929,3.1,3.1,0,0,1,1.192-1.32,3.358,3.358,0,0,1,1.764-.461,3.182,3.182,0,0,1,2.394.949,3.734,3.734,0,0,1,.993,2.518l.007.384A4.335,4.335,0,0,1,16.7-1.8,3.061,3.061,0,0,1,15.515-.483a3.383,3.383,0,0,1-1.781.465,3.16,3.16,0,0,1-2.468-1.027,3.933,3.933,0,0,1-.926-2.737Zm1.636.141a2.936,2.936,0,0,0,.465,1.761,1.51,1.51,0,0,0,1.293.636,1.494,1.494,0,0,0,1.289-.646,3.243,3.243,0,0,0,.461-1.892,2.9,2.9,0,0,0-.475-1.751A1.516,1.516,0,0,0,13.72-6.26a1.5,1.5,0,0,0-1.273.636A3.181,3.181,0,0,0,11.976-3.722ZM23.8-3.789V-.153h-1.7v-9.8h3.751a3.793,3.793,0,0,1,2.609.856,2.879,2.879,0,0,1,.966,2.265,2.783,2.783,0,0,1-.946,2.245,3.976,3.976,0,0,1-2.65.8Zm0-1.374h2.047a2.016,2.016,0,0,0,1.387-.428,1.571,1.571,0,0,0,.478-1.236A1.7,1.7,0,0,0,27.225-8.1a1.869,1.869,0,0,0-1.333-.488H23.8Zm10.769-.781A4.049,4.049,0,0,0,33.9-6a1.5,1.5,0,0,0-1.515.862V-.153H30.749V-7.439h1.562l.04.815a1.844,1.844,0,0,1,1.643-.949,1.532,1.532,0,0,1,.579.094ZM38.811-.018A3.385,3.385,0,0,1,36.29-1a3.554,3.554,0,0,1-.966-2.609v-.2a4.372,4.372,0,0,1,.421-1.949A3.2,3.2,0,0,1,36.926-7.1a3.124,3.124,0,0,1,1.7-.478,2.86,2.86,0,0,1,2.3.949,4.015,4.015,0,0,1,.811,2.687v.66H36.973a2.188,2.188,0,0,0,.6,1.428,1.809,1.809,0,0,0,1.33.525,2.216,2.216,0,0,0,1.832-.909l.882.842A2.946,2.946,0,0,1,40.451-.378,3.658,3.658,0,0,1,38.811-.018Zm-.2-6.242a1.378,1.378,0,0,0-1.087.471A2.443,2.443,0,0,0,37-4.476h3.118V-4.6a1.989,1.989,0,0,0-.438-1.242A1.367,1.367,0,0,0,38.616-6.26Zm6.87,4.033,1.542-5.212h1.69L46.193-.153H44.773L42.227-7.439h1.7Zm6,2.074H49.845V-7.439h1.636ZM49.744-9.331a.868.868,0,0,1,.239-.626.9.9,0,0,1,.683-.249.914.914,0,0,1,.687.249.862.862,0,0,1,.242.626.842.842,0,0,1-.242.616.921.921,0,0,1-.687.246.91.91,0,0,1-.683-.246A.848.848,0,0,1,49.744-9.331ZM56.473-.018A3.385,3.385,0,0,1,53.951-1a3.554,3.554,0,0,1-.966-2.609v-.2a4.372,4.372,0,0,1,.421-1.949A3.2,3.2,0,0,1,54.588-7.1a3.124,3.124,0,0,1,1.7-.478,2.86,2.86,0,0,1,2.3.949A4.015,4.015,0,0,1,59.4-3.937v.66H54.635a2.188,2.188,0,0,0,.6,1.428,1.809,1.809,0,0,0,1.33.525A2.216,2.216,0,0,0,58.4-2.233l.882.842A2.946,2.946,0,0,1,58.113-.378,3.658,3.658,0,0,1,56.473-.018Zm-.2-6.242a1.378,1.378,0,0,0-1.087.471,2.443,2.443,0,0,0-.529,1.313h3.118V-4.6a1.989,1.989,0,0,0-.438-1.242A1.367,1.367,0,0,0,56.278-6.26ZM67.067-2.408l1.158-5.03h1.6L67.835-.153H66.488l-1.562-5-1.535,5H62.044L60.051-7.439h1.6l1.178,4.976L64.32-7.439h1.232Z" transform="translate(5.757 88.309)" fill="#343a40"/>
      <path id="Path_23416" data-name="Path 23416" d="M7.413-2.779H3.073L2.165-.17H.141l4.233-11.2H6.12L10.36-.17H8.329ZM3.619-4.349H6.867L5.243-9ZM14.988-2.61l2.847-8.765h2.139L15.942-.17H14.057l-4.017-11.2h2.132Zm11.946-.169h-4.34L21.685-.17H19.661l4.233-11.2h1.747l4.24,11.2H27.85ZM23.14-4.349h3.248L24.764-9ZM33.208-.17H31.269v-11.2h1.939Zm4.343-1.555h5.087V-.17H35.6v-11.2h1.947Zm13-1.054h-4.34L45.3-.17H43.279l4.233-11.2h1.747L53.5-.17H51.467Zm-3.794-1.57H50L48.381-9ZM54.77-.17v-11.2h3.84a4.688,4.688,0,0,1,2.894.762,2.683,2.683,0,0,1,.993,2.27,2.42,2.42,0,0,1-.416,1.385A2.675,2.675,0,0,1,60.865-6a2.473,2.473,0,0,1,1.4.927,2.7,2.7,0,0,1,.5,1.635,2.983,2.983,0,0,1-1.012,2.424,4.4,4.4,0,0,1-2.9.847Zm1.947-5.056v3.5H58.88a2.093,2.093,0,0,0,1.431-.454,1.594,1.594,0,0,0,.516-1.262,1.6,1.6,0,0,0-1.785-1.785Zm0-1.431h1.909a2.207,2.207,0,0,0,1.42-.412,1.411,1.411,0,0,0,.512-1.166,1.43,1.43,0,0,0-.473-1.2,2.39,2.39,0,0,0-1.474-.369H56.717Zm9.945,4.933h5.087V-.17H64.716v-11.2h1.947ZM79.794-5.172h-4.6v3.448h5.379V-.17H73.245v-11.2h7.272v1.57H75.192v3.094h4.6Z" transform="translate(-0.141 109.013)" fill="#343a40"/>
    </g>
  </g>
</svg>
