<svg xmlns="http://www.w3.org/2000/svg" width="211.639" height="207.5" viewBox="0 0 211.639 207.5"><defs><style>.a{opacity:0.4;}.b{fill:#ebebeb;}.c{fill:#f5f5f5;}.d{fill:#e0e0e0;}.e{fill:#fafafa;}.f{fill:#263238;}.g{fill:#ffbe9d;}.h{fill:#eb996e;}.i{fill:#e8505b;}.j{opacity:0.6;}.k{fill:#fff;}.l{opacity:0.3;}.m{fill:#455a64;}.n{opacity:0.2;}</style></defs><g class="a" transform="translate(-26.768 -41.286)"><g transform="translate(110.266 171.114)"><path class="b" d="M224.82,330.312l-9.768,6.422a1.463,1.463,0,0,1-2.026-.419l-8.889-13.521a1.463,1.463,0,0,1,.419-2.026l6.2-4.073,8.045,1.79,6.444,9.8A1.463,1.463,0,0,1,224.82,330.312Z" transform="translate(-203.895 -316.695)"/><g transform="translate(6.855)"><path class="c" d="M218.436,316.695l2.5,3.806a1.36,1.36,0,0,0,1.884.389l3.659-2.4Z" transform="translate(-218.436 -316.695)"/></g><g transform="translate(9.626 1.79)"><path class="d" d="M224.315,322.809a1.512,1.512,0,0,0,1.809.567,1.383,1.383,0,0,0,.138-.052c.534-.229,4.047-1.737,4-1.809l-.672-1.022L225.93,322.9A1.394,1.394,0,0,1,224.315,322.809Z" transform="translate(-224.315 -320.493)"/></g><g transform="translate(3.915 4.186)"><path class="e" d="M216.72,325.578a34.6,34.6,0,0,1-4.519,2.971,34.6,34.6,0,0,1,4.519-2.971Z" transform="translate(-212.2 -325.575)"/></g><g transform="translate(5.33 4.42)"><path class="e" d="M222.641,326.072c.032.049-1.607,1.184-3.661,2.534s-3.745,2.406-3.777,2.357,1.607-1.183,3.661-2.534S222.608,326.024,222.641,326.072Z" transform="translate(-215.202 -326.071)"/></g><g transform="translate(6.511 5.776)"><path class="e" d="M225.816,328.95c.033.049-1.757,1.282-4,2.753s-4.08,2.626-4.112,2.577,1.757-1.282,4-2.754S225.784,328.9,225.816,328.95Z" transform="translate(-217.707 -328.949)"/></g><g transform="translate(7.625 7.471)"><path class="e" d="M228.18,332.545c.033.049-1.757,1.282-4,2.754s-4.08,2.626-4.112,2.577,1.757-1.281,4-2.754S228.148,332.5,228.18,332.545Z" transform="translate(-220.071 -332.544)"/></g><g transform="translate(8.74 9.166)"><path class="e" d="M230.544,336.141c.032.049-1.757,1.282-4,2.754s-4.08,2.626-4.113,2.577,1.757-1.282,4-2.754S230.512,336.093,230.544,336.141Z" transform="translate(-222.435 -336.14)"/></g><g transform="translate(9.855 10.861)"><path class="e" d="M232.909,339.737c.032.049-1.757,1.282-4,2.754s-4.08,2.626-4.112,2.577,1.756-1.282,4-2.754S232.876,339.688,232.909,339.737Z" transform="translate(-224.8 -339.736)"/></g></g><g transform="translate(109.848 57.966)"><path class="c" d="M218.079,107.558l-14.032-7.708a2,2,0,0,1-.791-2.72l10.669-19.421a2,2,0,0,1,2.72-.791l8.9,4.888,2.988,10.884L220.8,106.766A2,2,0,0,1,218.079,107.558Z" transform="translate(-203.008 -76.669)"/><g transform="translate(19.302 5.136)"><path class="e" d="M247.188,87.565l-3,5.466a1.863,1.863,0,0,0,.736,2.53l5.255,2.888Z" transform="translate(-243.955 -87.565)"/></g><g transform="translate(19.094 11.121)"><path class="d" d="M243.76,100.261a2.072,2.072,0,0,0,.472,2.553,1.868,1.868,0,0,0,.152.134c.618.5,4.695,3.785,4.752,3.681l.807-1.469-5.256-2.887A1.909,1.909,0,0,1,243.76,100.261Z" transform="translate(-243.513 -100.261)"/></g><g transform="translate(11.986 6.162)"><path class="e" d="M234.928,93.312a23.75,23.75,0,0,1-3.315-1.656,23.807,23.807,0,0,1-3.176-1.91,47.343,47.343,0,0,1,6.492,3.566Z" transform="translate(-228.435 -89.741)"/></g><g transform="translate(10.289 9.254)"><path class="e" d="M235.519,102.172c-.039.07-2.462-1.187-5.411-2.807s-5.311-2.992-5.273-3.062,2.461,1.187,5.412,2.808S235.558,102.1,235.519,102.172Z" transform="translate(-224.835 -96.3)"/></g><g transform="translate(8.872 11.835)"><path class="e" d="M233.474,108.176c-.039.07-2.677-1.305-5.893-3.072s-5.792-3.256-5.753-3.326,2.677,1.3,5.893,3.072S233.513,108.106,233.474,108.176Z" transform="translate(-221.828 -101.776)"/></g><g transform="translate(7.534 14.27)"><path class="e" d="M230.637,113.34c-.039.071-2.678-1.3-5.893-3.071s-5.792-3.256-5.753-3.326,2.677,1.3,5.893,3.072S230.676,113.271,230.637,113.34Z" transform="translate(-218.99 -106.941)"/></g><g transform="translate(6.196 16.705)"><path class="e" d="M227.8,118.505c-.039.07-2.677-1.3-5.892-3.071s-5.792-3.256-5.753-3.326,2.677,1.3,5.893,3.072S227.838,118.435,227.8,118.505Z" transform="translate(-216.153 -112.106)"/></g><g transform="translate(4.859 19.139)"><path class="e" d="M224.962,123.67c-.039.07-2.677-1.3-5.892-3.071s-5.792-3.256-5.753-3.326,2.677,1.3,5.893,3.072S225,123.6,224.962,123.67Z" transform="translate(-213.316 -117.271)"/></g></g><g transform="translate(179.977 138.984)"><g transform="translate(0 0)"><g transform="translate(1.884 53.69)"><path class="d" d="M366.841,364.989a16.988,16.988,0,0,0-7.268-2.5,4.843,4.843,0,0,0-3.438.632.707.707,0,0,0-.354.627.766.766,0,0,0,.336.429,10.392,10.392,0,0,0,10.724.813" transform="translate(-355.774 -362.433)"/></g><g transform="translate(5.04 44.646)"><path class="d" d="M370.192,354.641a35.474,35.474,0,0,1-4.694-4.13,11.871,11.871,0,0,1-2.943-5.443,2.2,2.2,0,0,1,.232-1.821c3.742,2.922,6.681,6.7,7.4,11.394" transform="translate(-362.468 -343.247)"/></g><g transform="translate(12.673 44.969)"><path class="d" d="M378.9,355.181a16.977,16.977,0,0,1,.087-6.164,8.333,8.333,0,0,1,3.283-5.085,7.278,7.278,0,0,1-.087,4.832,23.483,23.483,0,0,1-3.255,6.854" transform="translate(-378.662 -343.932)"/></g><g transform="translate(7.417 62.79)"><path class="d" d="M376.675,381.738a10.739,10.739,0,0,0-5.829,2.95,11.023,11.023,0,0,0-3.334,5.723c2.184-.135,4.037-1.675,5.381-3.4s2.275-3.622,3.751-5.238" transform="translate(-367.512 -381.738)"/></g><g transform="translate(16.374 50.244)"><path class="d" d="M387.515,368.72a14.375,14.375,0,0,1,1.66-13.6,17.311,17.311,0,0,1-1.66,13.6" transform="translate(-386.513 -355.122)"/></g><g transform="translate(12.133 69.593)"><path class="d" d="M387.606,396.188a10.4,10.4,0,0,0-9.939,5.721c-.124.247-.232.559-.067.78a.738.738,0,0,0,.659.194,8.648,8.648,0,0,0,5.127-2.647,49.1,49.1,0,0,1,4.263-4.053" transform="translate(-377.516 -396.169)"/></g><g transform="translate(21.236 55.526)"><path class="d" d="M397.659,380.1a18.513,18.513,0,0,1-.185-10.341,5.043,5.043,0,0,1,2.207-3.356.433.433,0,0,1,.338-.059.447.447,0,0,1,.214.247,6.232,6.232,0,0,1,.52,2.967,18.557,18.557,0,0,1-.465,3c-.387,1.836-.594,3.808-1.6,5.391a10.886,10.886,0,0,0-.64,1.184c-.19.4-.192.544-.367.864" transform="translate(-396.827 -366.328)"/></g><g transform="translate(34.542 59.819)"><path class="d" d="M425.408,386.825a13.331,13.331,0,0,1,2.337-10.962c.168-.218.39-.452.664-.427.42.039.528.6.51,1.019a19.81,19.81,0,0,1-3.51,10.37" transform="translate(-425.052 -375.434)"/></g><g transform="translate(36.054 68.21)"><path class="d" d="M428.261,397.026a15.949,15.949,0,0,0,13.086-2.662,10.594,10.594,0,0,0-7.084-.869,10.107,10.107,0,0,0-6,3.531" transform="translate(-428.261 -393.236)"/></g><g transform="translate(37.03 62.726)"><path class="d" d="M430.331,388.469a15.121,15.121,0,0,1,11.875-6.867,7.314,7.314,0,0,1-3.884,4.294,21.555,21.555,0,0,1-5.7,1.667,4.018,4.018,0,0,0-2.291.906" transform="translate(-430.331 -381.602)"/></g><g transform="translate(33.436 44.077)"><path class="d" d="M424.413,355.875a34.509,34.509,0,0,0,1.519-6.956,11.583,11.583,0,0,0-1.385-6.88,15.144,15.144,0,0,0-.2,14.073" transform="translate(-422.707 -342.04)"/></g><g transform="translate(42.879 44.669)"><path class="d" d="M442.739,352.628a18.636,18.636,0,0,1,13.718-9.332c-2.14,5.329-7.977,9.447-13.718,9.332" transform="translate(-442.739 -343.296)"/></g><g transform="translate(41.189 54.157)"><path class="d" d="M439.152,364.225c4.008.61,7.423,3.17,11.168,4.722a5,5,0,0,0,2.524.484,1.976,1.976,0,0,0,1.237-3.5,5.4,5.4,0,0,0-1.834-1.112,20.379,20.379,0,0,0-12.751-.711" transform="translate(-439.152 -363.424)"/></g><g transform="translate(38.869 57.575)"><path class="d" d="M434.232,370.869a4.727,4.727,0,0,1,1.936,1.342,20.887,20.887,0,0,0,8.469,4.35c.323.081.748.112.908-.18.14-.255-.037-.564-.219-.791a11.659,11.659,0,0,0-5.113-3.471c-1.954-.728-3.648-1.605-5.981-1.417" transform="translate(-434.232 -370.675)"/></g><g transform="translate(36.252 40.358)"><path class="d" d="M428.68,334.586a16.028,16.028,0,0,0,12.288,4.18.844.844,0,0,0,.56-.2c.309-.336-.062-.856-.422-1.137a14.155,14.155,0,0,0-12.425-2.843" transform="translate(-428.68 -334.152)"/></g><g transform="translate(39.355 36.32)"><path class="d" d="M435.263,328.921a17.125,17.125,0,0,1,15.332-2.53,12.173,12.173,0,0,1-7.306,3.208,23.128,23.128,0,0,1-8.026-.678" transform="translate(-435.263 -325.585)"/></g><g transform="translate(36.051 21.011)"><path class="d" d="M430.324,303.953c-.355-3.606-.125-6.452-.375-10.075-.02-.289-.082-.637-.353-.742-.377-.145-.692.319-.815.7a11.548,11.548,0,0,0,1.537,10.035" transform="translate(-428.253 -293.109)"/></g><g transform="translate(37.862 20.918)"><path class="d" d="M432.1,304.248a21.2,21.2,0,0,0,5.973-5.805c1.179-1.614,2.174-3.548,1.906-5.53a5.716,5.716,0,0,0-4.309,2.14,12.024,12.024,0,0,0-2.2,4.419c-.478,1.587-.813,3.217-1.374,4.776" transform="translate(-432.096 -292.912)"/></g><g transform="translate(43.654 21.592)"><path class="d" d="M444.459,303.373a48.161,48.161,0,0,0,14.7-8.668,7.506,7.506,0,0,0-5.522.425,17.41,17.41,0,0,0-9.255,8.2" transform="translate(-444.382 -294.342)"/></g><g transform="translate(39.512 29.974)"><path class="d" d="M435.6,316.376a29.907,29.907,0,0,0,8.162.04,34.637,34.637,0,0,0,7.62-2.532.9.9,0,0,0,.518-.393.6.6,0,0,0-.186-.652,1.572,1.572,0,0,0-.65-.3,14.11,14.11,0,0,0-8.234.492,38.228,38.228,0,0,0-7.23,3.35" transform="translate(-435.596 -312.124)"/></g><g transform="translate(22.658 28.966)"><path class="d" d="M401.2,321.934a14.439,14.439,0,0,1-.132-11.949,9.127,9.127,0,0,1,1.057,5.941c-.206,2.042-.827,4.143-.867,6.194" transform="translate(-399.843 -309.985)"/></g><g transform="translate(4.238 37.183)"><path class="d" d="M373.152,327.418a16.666,16.666,0,0,0-12.385,5.275,11.572,11.572,0,0,0,6.782-1.257,34.495,34.495,0,0,0,5.811-3.89" transform="translate(-360.767 -327.415)"/></g><g transform="translate(0 35.305)"><path class="d" d="M363.427,323.649c-2.261-.183-4.437-.463-6.611.2a7.93,7.93,0,0,0-5.039,4.272,11.941,11.941,0,0,0,6.2-1.17,35.61,35.61,0,0,0,5.452-3.3" transform="translate(-351.777 -323.431)"/></g><g transform="translate(5.756 32.127)"><path class="d" d="M377.243,320.162a20.87,20.87,0,0,0-6.491-3.242c-2.369-.552-5.114-.144-6.765,1.641a12.641,12.641,0,0,0,6.467,1.256,22.33,22.33,0,0,1,7.044.715" transform="translate(-363.987 -316.69)"/></g><g transform="translate(15.077 21.487)"><path class="d" d="M387.708,308.338c-3.478-3.415-4.8-9.55-3.4-14.218a21.664,21.664,0,0,1,3.4,14.218" transform="translate(-383.761 -294.12)"/></g><g transform="translate(28.587 14.809)"><path class="d" d="M412.42,291.174c.656-1.525,1.117-3.125,1.706-4.677a13.451,13.451,0,0,1,2.432-4.312,6.406,6.406,0,0,1,4.307-2.232A17.346,17.346,0,0,1,412.5,291.2" transform="translate(-412.42 -279.953)"/></g><g transform="translate(17.861 21.918)"><path class="d" d="M398.662,301.162c-1.086-1.494-2.34-3.522-3.811-4.637a6.375,6.375,0,0,0-5.185-1.361,12.077,12.077,0,0,0,9,6" transform="translate(-389.666 -295.033)"/></g><g transform="translate(25.362 14.949)"><path class="d" d="M407.419,291.456A25.8,25.8,0,0,1,405.7,285.9a8.665,8.665,0,0,1,.87-5.649c1.909,3.609,2.524,7.482.943,11.246" transform="translate(-405.578 -280.251)"/></g><g transform="translate(28.605 7.301)"><path class="d" d="M412.457,271.675c1.081-3.577,4.357-6.211,7.893-7.42a2.946,2.946,0,0,1,1.384-.208,1.2,1.2,0,0,1,1.02.852c.129.608-.374,1.154-.847,1.558a26.872,26.872,0,0,1-9.451,5.218" transform="translate(-412.457 -264.026)"/></g><g transform="translate(28.587)"><path class="d" d="M412.477,260.562a25.632,25.632,0,0,1,1.031-6.832,8.636,8.636,0,0,1,4.3-5.192c.358,2.33-.67,4.647-1.91,6.652s-2.734,3.9-3.478,6.132" transform="translate(-412.42 -248.538)"/></g><g transform="translate(21.879 1.071)"><path class="d" d="M404.9,263.35c-.894-2.607-.986-5.918-2.547-8.19-1.091-1.588-2.839-2.669-3.779-4.351a6.618,6.618,0,0,0,.22,4.939,14.3,14.3,0,0,0,2.888,4.135c1.155,1.234,2.145,2.162,3.219,3.467" transform="translate(-398.191 -250.81)"/></g><g transform="translate(28.47 12.703)"><path class="d" d="M412.306,353.169c-.069,0-.13-17.391-.134-38.84s.048-38.844.117-38.844.13,17.388.134,38.844S412.375,353.169,412.306,353.169Z" transform="translate(-412.171 -275.485)"/></g><g transform="translate(28.582 38.288)"><path class="d" d="M427.63,329.763a3.681,3.681,0,0,1-.654.246l-1.8.607c-1.517.517-3.6,1.265-5.864,2.192-2.24.961-4.352,1.741-5.555,2.784a4.078,4.078,0,0,0-1.116,1.477c-.173.408-.2.658-.226.653a.5.5,0,0,1,.008-.182,2.751,2.751,0,0,1,.128-.507,3.92,3.92,0,0,1,1.089-1.574,9.751,9.751,0,0,1,2.41-1.5c.964-.45,2.033-.919,3.168-1.385,2.269-.93,4.37-1.655,5.9-2.129.767-.24,1.392-.416,1.826-.532A3.746,3.746,0,0,1,427.63,329.763Z" transform="translate(-412.409 -329.76)"/></g><g transform="translate(29.778 26.054)"><path class="d" d="M433.953,303.808a1.1,1.1,0,0,1-.183.2l-.558.524-2.084,1.892-6.934,6.174c-2.707,2.409-5.046,4.712-6.667,6.445-.812.866-1.451,1.583-1.887,2.084l-.5.576a1.046,1.046,0,0,1-.189.19,1.112,1.112,0,0,1,.149-.223c.106-.14.259-.348.468-.606.414-.521,1.034-1.258,1.831-2.141a87.909,87.909,0,0,1,6.631-6.512c2.716-2.4,5.188-4.563,6.984-6.12l2.136-1.833.589-.489A1.066,1.066,0,0,1,433.953,303.808Z" transform="translate(-414.947 -303.808)"/></g><g transform="translate(36.097 31.27)"><path class="d" d="M428.357,320.894c-.071-.032.495-1.337,1.058-2.988s.836-3.044.908-3.033a10.179,10.179,0,0,1-.67,3.113,20.4,20.4,0,0,1-.842,2.09A3.248,3.248,0,0,1,428.357,320.894Z" transform="translate(-428.351 -314.873)"/></g><g transform="translate(18.54 35.118)"><path class="d" d="M401.187,335.735a3.133,3.133,0,0,1-.417-.485l-1.069-1.37c-.9-1.16-2.138-2.762-3.529-4.515s-2.67-3.325-3.6-4.462l-1.092-1.352a3.1,3.1,0,0,1-.377-.516,3.121,3.121,0,0,1,.451.453c.279.3.673.746,1.154,1.3.962,1.109,2.264,2.666,3.657,4.421s2.612,3.375,3.475,4.564c.431.594.774,1.079,1.005,1.418A3.153,3.153,0,0,1,401.187,335.735Z" transform="translate(-391.106 -323.036)"/></g><g transform="translate(23.559 38.282)"><path class="d" d="M403.482,335a6.114,6.114,0,0,1-1.4-2.613,7.475,7.475,0,0,1-.317-2.635l.111.009c-.049.2-.086.308-.106.3s-.021-.115,0-.322l.111.009a11.984,11.984,0,0,0,.445,2.563A19.458,19.458,0,0,0,403.482,335Z" transform="translate(-401.753 -329.747)"/></g><g transform="translate(13.458 37.059)"><path class="d" d="M387.854,328.222a4.485,4.485,0,0,0-.974-.566,6.518,6.518,0,0,0-2.706-.215,16.71,16.71,0,0,0-2.725.439,8.2,8.2,0,0,1-1.121.269,3.91,3.91,0,0,1,1.074-.44,12.446,12.446,0,0,1,2.754-.519,5.9,5.9,0,0,1,2.792.3A1.726,1.726,0,0,1,387.854,328.222Z" transform="translate(-380.327 -327.154)"/></g><g transform="translate(9.389 35.218)"><path class="d" d="M382.271,324.846c-.019.039-.568-.228-1.493-.543a15.035,15.035,0,0,0-7.525-.574c-.963.173-1.545.353-1.558.311a1.431,1.431,0,0,1,.4-.169,9.323,9.323,0,0,1,1.128-.316,13.282,13.282,0,0,1,7.621.581,9.381,9.381,0,0,1,1.067.484A1.429,1.429,0,0,1,382.271,324.846Z" transform="translate(-371.694 -323.247)"/></g><g transform="translate(26.645 23.642)"><path class="d" d="M410.242,306.32a61.756,61.756,0,0,1-1.935-7.628,61.727,61.727,0,0,1,1.935,7.628Z" transform="translate(-408.3 -298.692)"/></g><g transform="translate(25.672 27.168)"><path class="d" d="M409.22,310.273a18.2,18.2,0,0,0-1.207-2.265,9.958,9.958,0,0,0-1.776-1.833,1.654,1.654,0,0,1,.685.354,5.528,5.528,0,0,1,1.3,1.335A5.022,5.022,0,0,1,409.22,310.273Z" transform="translate(-406.236 -306.171)"/></g><g transform="translate(12.672 55.732)"><path class="d" d="M394.591,392.148c-.027,0-.078-.418-.274-1.156a16.49,16.49,0,0,0-1.162-3.011,41.668,41.668,0,0,0-6.166-8.687c-1.376-1.573-2.712-3.057-3.846-4.477a31.385,31.385,0,0,1-2.75-3.966A19.054,19.054,0,0,1,379,367.906c-.128-.363-.222-.646-.273-.842a1.412,1.412,0,0,1-.071-.3c.022-.007.149.4.436,1.107a21.563,21.563,0,0,0,1.45,2.889,33.329,33.329,0,0,0,2.777,3.911c1.138,1.406,2.476,2.882,3.855,4.457a39.5,39.5,0,0,1,6.137,8.775,15.027,15.027,0,0,1,1.1,3.065,8.5,8.5,0,0,1,.154.872A1.438,1.438,0,0,1,394.591,392.148Z" transform="translate(-378.659 -366.764)"/></g><g transform="translate(28.603 65.602)"><path class="d" d="M426.189,387.7a6.368,6.368,0,0,1-.719.4,15.707,15.707,0,0,0-1.867,1.234,21.445,21.445,0,0,0-2.452,2.236c-.86.909-1.747,1.965-2.652,3.1-1.809,2.269-3.5,4.278-4.514,5.881-.515.8-.889,1.466-1.133,1.936a6.2,6.2,0,0,1-.4.725.692.692,0,0,1,.066-.2c.054-.129.126-.324.242-.564a18.358,18.358,0,0,1,1.071-1.987,64.73,64.73,0,0,1,4.468-5.943c.907-1.133,1.8-2.191,2.68-3.1A19.96,19.96,0,0,1,423.5,389.2a13.142,13.142,0,0,1,1.928-1.178c.239-.12.433-.193.562-.248A.678.678,0,0,1,426.189,387.7Z" transform="translate(-412.454 -387.703)"/></g><g transform="translate(33.115 70.617)"><path class="d" d="M431.517,398.36a10.441,10.441,0,0,1-1.522.221,20.089,20.089,0,0,0-3.608.71,10.847,10.847,0,0,0-3.23,1.7c-.744.576-1.1,1.051-1.13,1.024a1.166,1.166,0,0,1,.225-.35,5.77,5.77,0,0,1,.793-.811,9.785,9.785,0,0,1,3.266-1.8,16.267,16.267,0,0,1,3.667-.648A8.4,8.4,0,0,1,431.517,398.36Z" transform="translate(-422.025 -398.342)"/></g><g transform="translate(33.554 68.58)"><path class="d" d="M422.963,399.173c-.079-.045.607-1.092,1.138-2.5.5-1.422.616-2.668.705-2.654a2.41,2.41,0,0,1-.025.816,8.745,8.745,0,0,1-.444,1.923,9.319,9.319,0,0,1-.882,1.764A2.452,2.452,0,0,1,422.963,399.173Z" transform="translate(-422.957 -394.019)"/></g><g transform="translate(28.609 52.092)"><path class="d" d="M430.643,359.045a1.127,1.127,0,0,1-.244.13l-.715.325c-.313.134-.693.3-1.121.53s-.931.45-1.454.764l-.83.472c-.288.165-.572.362-.875.552-.612.371-1.225.828-1.879,1.295a32.226,32.226,0,0,0-7.236,7.488c-.444.67-.88,1.3-1.23,1.922-.179.309-.366.6-.521.894l-.443.846c-.3.533-.507,1.042-.714,1.479s-.368.821-.492,1.139l-.3.725a1.169,1.169,0,0,1-.121.247,1.152,1.152,0,0,1,.073-.264l.257-.744c.11-.324.255-.717.454-1.16s.4-.962.684-1.5l.431-.858c.152-.3.336-.594.512-.907.345-.633.777-1.27,1.219-1.948a31.057,31.057,0,0,1,7.289-7.543c.663-.465,1.285-.919,1.905-1.285.307-.187.6-.38.889-.543l.843-.461c.531-.305,1.041-.524,1.478-.735s.824-.372,1.144-.494l.735-.282A1.141,1.141,0,0,1,430.643,359.045Z" transform="translate(-412.466 -359.043)"/></g><g transform="translate(35.914 57.56)"><path class="d" d="M427.966,372.459a1.745,1.745,0,0,1,.6-.89,3.775,3.775,0,0,1,2.408-.924,6.586,6.586,0,0,1,2.534.495,3.6,3.6,0,0,1,.958.466,5.9,5.9,0,0,1-1.017-.3,7.652,7.652,0,0,0-2.467-.412,3.923,3.923,0,0,0-2.3.807A7.058,7.058,0,0,0,427.966,372.459Z" transform="translate(-427.964 -370.643)"/></g><g transform="translate(34.287 56.505)"><path class="d" d="M424.516,372.952a6.427,6.427,0,0,0,.531-4.547,1.48,1.48,0,0,1,.282.648,4.6,4.6,0,0,1-.389,3.334C424.728,372.77,424.54,372.969,424.516,372.952Z" transform="translate(-424.511 -368.404)"/></g></g><g transform="translate(16.593 83.608)"><path class="d" d="M386.976,425.9a57.56,57.56,0,0,0,5.458,20.24h13.4a58.207,58.207,0,0,0,5.134-20.24Z" transform="translate(-386.976 -425.899)"/></g><g transform="translate(18.708 94.237)"><path class="e" d="M411.165,448.572c0,.07-4.411.126-9.85.126s-9.852-.056-9.852-.126,4.41-.125,9.852-.125S411.165,448.5,411.165,448.572Z" transform="translate(-391.463 -448.447)"/></g><g transform="translate(19.641 96.645)"><path class="e" d="M411.912,453.68c0,.069-4.135.126-9.235.126s-9.235-.057-9.235-.126,4.134-.125,9.235-.125S411.912,453.611,411.912,453.68Z" transform="translate(-393.442 -453.555)"/></g><g transform="translate(22.142 87.972)"><path class="e" d="M398.872,435.156a37.887,37.887,0,0,1,0,6.171,38.024,38.024,0,0,1,0-6.171Z" transform="translate(-398.747 -435.156)"/></g><g transform="translate(29.319 87.972)"><path class="e" d="M414.1,435.156a40.627,40.627,0,0,1,0,6.391,40.765,40.765,0,0,1,0-6.391Z" transform="translate(-413.973 -435.156)"/></g><g transform="translate(36.057 87.917)"><path class="e" d="M428.392,435.041a42.266,42.266,0,0,1,0,6.519,42.409,42.409,0,0,1,0-6.519Z" transform="translate(-428.267 -435.041)"/></g><g transform="translate(17.048 87.846)"><path class="e" d="M411.049,435.015c0,.069-5.173.125-11.553.125s-11.555-.056-11.555-.125,5.172-.126,11.555-.126S411.049,434.946,411.049,435.015Z" transform="translate(-387.941 -434.889)"/></g></g><g transform="translate(47.896 41.286)"><g transform="translate(2.362 0.011)"><rect class="d" width="34.719" height="36.191"/></g><g transform="translate(0.011 0.011)"><rect class="e" width="34.719" height="36.191"/></g><path class="d" d="M106.328,77.5H71.588V41.286h34.74Zm-34.719-.021h34.7V41.308h-34.7Z" transform="translate(-71.588 -41.286)"/><g transform="translate(4.678 4.876)"><rect class="e" width="25.384" height="26.461"/></g><g transform="translate(0.044 31.511)"><path class="d" d="M76.315,108.134a4.156,4.156,0,0,1-.626.728c-.405.428-.975,1.007-1.614,1.636s-1.226,1.19-1.658,1.588a4.085,4.085,0,0,1-.733.611,4.058,4.058,0,0,1,.623-.725c.4-.428.976-1.008,1.617-1.639s1.229-1.192,1.662-1.59A3.985,3.985,0,0,1,76.315,108.134Z" transform="translate(-71.682 -108.133)"/></g><g transform="translate(30.06 31.447)"><path class="d" d="M135.358,108a4.177,4.177,0,0,1,.728.626c.428.405,1.007.975,1.636,1.614s1.19,1.226,1.588,1.658a4.086,4.086,0,0,1,.611.734,4.017,4.017,0,0,1-.725-.623c-.428-.405-1.008-.977-1.639-1.617s-1.192-1.228-1.59-1.662A3.966,3.966,0,0,1,135.358,108Z" transform="translate(-135.357 -107.996)"/></g><g transform="translate(29.992 0.383)"><path class="d" d="M135.212,46.662a4.118,4.118,0,0,1,.626-.728c.406-.428.975-1.007,1.614-1.636s1.226-1.19,1.659-1.588a4.016,4.016,0,0,1,.733-.611,4.048,4.048,0,0,1-.623.725c-.405.428-.977,1.008-1.617,1.64s-1.228,1.192-1.661,1.59A3.985,3.985,0,0,1,135.212,46.662Z" transform="translate(-135.21 -42.098)"/></g><g transform="translate(0.044 0.378)"><path class="d" d="M76.246,46.721a4.093,4.093,0,0,1-.728-.626c-.428-.405-1.007-.975-1.636-1.614s-1.19-1.226-1.588-1.658a4.026,4.026,0,0,1-.611-.734,4.058,4.058,0,0,1,.725.623c.428.405,1.008.977,1.639,1.617s1.193,1.228,1.591,1.661A3.985,3.985,0,0,1,76.246,46.721Z" transform="translate(-71.682 -42.088)"/></g><g transform="translate(4.565 4.763)"><path class="d" d="M106.7,77.965a1.2,1.2,0,0,1-.006-.129c0-.09,0-.212-.006-.369,0-.332-.007-.809-.011-1.428-.006-1.254-.015-3.077-.026-5.393-.012-4.634-.029-11.236-.049-19.142l.1.1-25.313.014h0L81.5,51.5c-.006,9.712-.011,18.8-.016,26.461l-.1-.1,18.329.049,5.149.025,1.362.011.352.005a1.1,1.1,0,0,1,.123.006.747.747,0,0,1-.112.005l-.341.006-1.344.011-5.126.025-18.391.049h-.1v-.1c0-7.663-.01-16.749-.016-26.461v-.113h.115l25.313.015h.1v.1c-.02,7.931-.037,14.555-.049,19.2-.011,2.307-.02,4.122-.026,5.371,0,.611-.008,1.082-.011,1.41,0,.153,0,.271-.006.359A.935.935,0,0,1,106.7,77.965Z" transform="translate(-81.272 -51.391)"/></g><g transform="translate(13.135 13.871)"><rect class="b" width="8.47" height="8.47"/></g></g><g transform="translate(26.768 85.714)"><g transform="translate(1.696 0.008)"><rect class="d" width="24.937" height="25.995"/></g><g transform="translate(0.008 0.008)"><rect class="e" width="24.937" height="25.995"/></g><path class="d" d="M51.721,161.542H26.768v-26.01H51.721Zm-24.937-.015H51.705v-25.98H26.783Z" transform="translate(-26.768 -135.532)"/><g transform="translate(3.36 3.502)"><rect class="e" width="18.233" height="19.006"/></g><g transform="translate(0.032 22.634)"><path class="d" d="M30.164,183.547a2.952,2.952,0,0,1-.45.523c-.291.307-.7.723-1.159,1.175s-.88.855-1.191,1.14a2.909,2.909,0,0,1-.527.439,2.869,2.869,0,0,1,.447-.521c.291-.307.7-.724,1.162-1.178s.882-.856,1.194-1.142A2.849,2.849,0,0,1,30.164,183.547Z" transform="translate(-26.836 -183.546)"/></g><g transform="translate(21.591 22.587)"><g transform="translate(0)"><path class="d" d="M72.572,183.448a3,3,0,0,1,.523.45c.307.291.723.7,1.175,1.159s.855.881,1.14,1.191a2.87,2.87,0,0,1,.439.527,2.913,2.913,0,0,1-.521-.448c-.307-.291-.724-.7-1.177-1.162s-.857-.882-1.142-1.193A2.841,2.841,0,0,1,72.572,183.448Z" transform="translate(-72.571 -183.447)"/></g></g><g transform="translate(21.542 0.275)"><g transform="translate(0)"><path class="d" d="M72.466,139.393a3,3,0,0,1,.45-.523c.291-.307.7-.723,1.159-1.175s.881-.854,1.191-1.14a2.934,2.934,0,0,1,.527-.439,2.9,2.9,0,0,1-.447.521c-.291.307-.7.724-1.162,1.178s-.882.857-1.194,1.142A2.805,2.805,0,0,1,72.466,139.393Z" transform="translate(-72.465 -136.115)"/></g></g><g transform="translate(0.032 0.272)"><path class="d" d="M30.114,139.437a2.958,2.958,0,0,1-.523-.45c-.307-.291-.723-.7-1.175-1.159s-.855-.88-1.14-1.191a2.9,2.9,0,0,1-.439-.527,2.889,2.889,0,0,1,.521.447c.307.291.724.7,1.177,1.162s.857.882,1.142,1.194A2.874,2.874,0,0,1,30.114,139.437Z" transform="translate(-26.836 -136.109)"/></g><g transform="translate(3.279 3.421)"><path class="d" d="M51.987,161.877s0-.033,0-.092,0-.152,0-.265c0-.239,0-.581-.008-1.026,0-.9-.01-2.21-.018-3.874-.008-3.329-.021-8.071-.036-13.749l.07.07-18.181.01h0l.081-.081c0,6.976-.008,13.5-.012,19.006l-.069-.069,13.166.035,3.7.018.978.008.253,0a.809.809,0,0,1,.088,0,.583.583,0,0,1-.08,0l-.246,0-.965.008-3.682.018-13.21.035h-.069v-.07c0-5.5-.007-12.03-.011-19.006v-.081h.082l18.181.011h.071v.07c-.015,5.7-.027,10.454-.036,13.794-.008,1.656-.014,2.961-.018,3.858,0,.439-.007.777-.008,1.012l0,.258A.6.6,0,0,1,51.987,161.877Z" transform="translate(-33.724 -142.79)"/></g><g transform="translate(9.434 9.963)"><rect class="b" width="6.084" height="6.084"/></g></g><g transform="translate(29.834 175.127)"><path class="c" d="M40.385,393.044s-7.1-36.764-7.112-44.325a16.571,16.571,0,0,1,7.989-14.633l-3.113-8.878H55.273l-2.7,8.816a15.907,15.907,0,0,1,7.759,15.635c-2.351,20.3-6.1,43.385-6.1,43.385Z" transform="translate(-33.273 -325.208)"/><g transform="translate(1.178 12.956)"><path class="d" d="M58.038,352.783a1.111,1.111,0,0,1-.191-.015,4.632,4.632,0,0,0-.558-.025,5.36,5.36,0,0,0-2.079.456,7.308,7.308,0,0,0-2.668,2.037,12.785,12.785,0,0,0-1.225,1.726,14.968,14.968,0,0,0-1.077,2.115,6.331,6.331,0,0,0-.5,2.524,3.926,3.926,0,0,0,1.014,2.523,2.751,2.751,0,0,0,1.211.761,2.4,2.4,0,0,0,1.459-.038,3.431,3.431,0,0,0,2.052-2.218,3.316,3.316,0,0,0-.717-3.071,5.01,5.01,0,0,0-2.936-1.7,6.7,6.7,0,0,0-3.54.426,11.042,11.042,0,0,0-3.179,1.94,11.192,11.192,0,0,0-3.743,6.2,7.725,7.725,0,0,0,.069,3.465,5.1,5.1,0,0,0,1.687,2.8,2.9,2.9,0,0,0,1.418.651A2.174,2.174,0,0,0,46,373.054a3.008,3.008,0,0,0,1.307-2.508,3.1,3.1,0,0,0-.273-1.367,3.431,3.431,0,0,0-.818-1.074,4.778,4.778,0,0,0-2.31-1.075,6.621,6.621,0,0,0-4.316.748,7.773,7.773,0,0,0-2.546,2.193,7.181,7.181,0,0,0-1.029,1.875c-.171.46-.228.715-.243.71a4.8,4.8,0,0,1,.2-.727,6.914,6.914,0,0,1,1-1.914,7.8,7.8,0,0,1,2.557-2.257,6.749,6.749,0,0,1,4.413-.8,4.946,4.946,0,0,1,2.4,1.1,3.617,3.617,0,0,1,.87,1.133,3.286,3.286,0,0,1,.3,1.454,3.213,3.213,0,0,1-1.4,2.688,2.393,2.393,0,0,1-1.6.323,3.113,3.113,0,0,1-1.529-.693,5.328,5.328,0,0,1-1.773-2.917,7.948,7.948,0,0,1-.078-3.569,11.414,11.414,0,0,1,3.819-6.345,11.265,11.265,0,0,1,3.252-1.982,6.941,6.941,0,0,1,3.671-.434,5.241,5.241,0,0,1,3.075,1.79,4.08,4.08,0,0,1,.8,1.566A3.131,3.131,0,0,1,55.7,362.7a3.643,3.643,0,0,1-2.2,2.357,2.617,2.617,0,0,1-1.59.035,2.965,2.965,0,0,1-1.3-.823,4.117,4.117,0,0,1-1.055-2.657,6.494,6.494,0,0,1,.527-2.595,15.1,15.1,0,0,1,1.1-2.132,12.759,12.759,0,0,1,1.255-1.734,7.332,7.332,0,0,1,2.734-2.036,5.229,5.229,0,0,1,2.116-.418A3.3,3.3,0,0,1,58.038,352.783Z" transform="translate(-35.772 -352.693)"/></g><g transform="translate(2.381 38.671)"><path class="d" d="M59.831,409.387a6.224,6.224,0,0,1-.157,1.869,8.093,8.093,0,0,1-.751,2.075,7.919,7.919,0,0,1-1.794,2.307A7.443,7.443,0,0,1,54,417.284a7.641,7.641,0,0,1-4.057-.059,7.086,7.086,0,0,1-3.654-2.576,6.814,6.814,0,0,1-1.4-4.578,3.377,3.377,0,0,1,1.012-2.254,2.455,2.455,0,0,1,2.336-.462,2.928,2.928,0,0,1,1.808,1.449,3.316,3.316,0,0,1,.238,2.212,4.116,4.116,0,0,1-.981,1.878,4.754,4.754,0,0,1-1.643,1.132,6.879,6.879,0,0,1-3.51.443,8.393,8.393,0,0,1-4.608-2.115,6.115,6.115,0,0,1-1.211-1.433.448.448,0,0,1,.083.092l.224.282a9.012,9.012,0,0,0,.966.987,8.334,8.334,0,0,0,1.813,1.2,8.22,8.22,0,0,0,2.752.809,6.735,6.735,0,0,0,3.41-.457,4.563,4.563,0,0,0,1.564-1.09,3.906,3.906,0,0,0,.918-1.78,3.1,3.1,0,0,0-.225-2.059,2.7,2.7,0,0,0-1.665-1.324,2.215,2.215,0,0,0-2.109.414,3.145,3.145,0,0,0-.93,2.094,6.6,6.6,0,0,0,1.351,4.411,6.879,6.879,0,0,0,3.527,2.5,7.47,7.47,0,0,0,3.943.078,7.3,7.3,0,0,0,3.068-1.579,7.865,7.865,0,0,0,1.787-2.241,8.282,8.282,0,0,0,.779-2.032,9.263,9.263,0,0,0,.215-1.365l.02-.36A.464.464,0,0,1,59.831,409.387Z" transform="translate(-38.324 -407.243)"/></g><g transform="translate(6.589 56.662)"><path class="d" d="M61.359,446.886c-.022.048-.766-.355-2.062-.73a10.062,10.062,0,0,0-1.071-.256c-.386-.09-.808-.132-1.248-.189a13.649,13.649,0,0,0-5.71.637c-.417.153-.819.287-1.176.46a10.244,10.244,0,0,0-.989.486c-1.181.651-1.819,1.208-1.851,1.166a2.753,2.753,0,0,1,.438-.4,5.023,5.023,0,0,1,.553-.42,8.323,8.323,0,0,1,.775-.5,9.363,9.363,0,0,1,.989-.52,12.412,12.412,0,0,1,1.188-.488A13.075,13.075,0,0,1,57,445.486a12.479,12.479,0,0,1,1.266.215,9.46,9.46,0,0,1,1.08.289,8.4,8.4,0,0,1,.865.316,5.113,5.113,0,0,1,.632.288A2.738,2.738,0,0,1,61.359,446.886Z" transform="translate(-47.251 -445.408)"/></g><g transform="translate(2.802 9.34)"><path class="d" d="M55.918,345.022a3.739,3.739,0,0,1-.566.4c-.371.246-.928.571-1.631.944a28.081,28.081,0,0,1-11.931,3.2c-.8.029-1.44.025-1.885,0a3.74,3.74,0,0,1-.689-.06,3.744,3.744,0,0,1,.69-.036c.443,0,1.084-.025,1.874-.076a31.111,31.111,0,0,0,11.861-3.182c.709-.351,1.276-.652,1.661-.872A3.678,3.678,0,0,1,55.918,345.022Z" transform="translate(-39.217 -345.02)"/></g><g transform="translate(6.217 0.281)"><path class="d" d="M61.9,325.944c0,.025-.421-.039-1.179-.04a10.144,10.144,0,0,0-5.151,1.428,9.393,9.393,0,0,0-1.009.7,5.061,5.061,0,0,0-.922.9,2.681,2.681,0,0,0-.564,1.183,1.356,1.356,0,0,0,.4,1.215,2.907,2.907,0,0,0,1.266.639,3.168,3.168,0,0,0,1.45.167,1.1,1.1,0,0,0,.78-1.037,2.554,2.554,0,0,0-.287-1.379,4.361,4.361,0,0,0-1.909-1.919,5.551,5.551,0,0,0-2.4-.65,6.586,6.586,0,0,0-2.161.32,9.906,9.906,0,0,0-2.82,1.485c-.3.227-.534.412-.689.539a1.392,1.392,0,0,1-.244.185,1.479,1.479,0,0,1,.211-.223c.145-.14.367-.337.664-.577A9.447,9.447,0,0,1,50.16,327.3a6.679,6.679,0,0,1,2.221-.359,5.717,5.717,0,0,1,2.5.654,4.569,4.569,0,0,1,2.019,2.013,2.794,2.794,0,0,1,.314,1.509,1.637,1.637,0,0,1-.269.773,1.192,1.192,0,0,1-.695.478,3.356,3.356,0,0,1-1.576-.17,3.121,3.121,0,0,1-1.369-.7,1.593,1.593,0,0,1-.458-1.422,2.9,2.9,0,0,1,.618-1.286,5.23,5.23,0,0,1,.967-.926,9.4,9.4,0,0,1,1.038-.7,9.992,9.992,0,0,1,2.053-.905,9.6,9.6,0,0,1,3.2-.444,7.248,7.248,0,0,1,.877.077A1.459,1.459,0,0,1,61.9,325.944Z" transform="translate(-46.46 -325.804)"/></g></g><g transform="translate(28.846 242.929)"><path class="f" d="M235.821,469.164c0,.068-45.815.123-102.317.123-56.522,0-102.327-.055-102.327-.123s45.8-.123,102.327-.123C190.007,469.041,235.821,469.1,235.821,469.164Z" transform="translate(-31.177 -469.041)"/></g><g transform="translate(39.409 60.33)"><g transform="translate(82.838 27.032)"><g transform="translate(0 6.152)"><path class="g" d="M229.311,157.149a71.533,71.533,0,0,1,5.548-4.64c.7-.269,6.336-.6,6.728-.33s6.225,3.173,5.3,3.69-4.976-1.569-4.976-1.569l-.662.114a27.6,27.6,0,0,1,4.17,2.394c.593.631.082,1.436-.576,1.161s-3.688-1.869-3.92-1.794,3.24,1.924,3.567,2.279c.439.478.206,1.445-.455,1.195-.389-.148-3.6-2.1-3.6-2.1a31.11,31.11,0,0,1,2.623,2.216c.3.521-.214,1.023-.773.71-.383-.214-2.054-1.733-2.568-2.019,0,0-.555-.017-1.335.882-.372.429-2.345,2.84-3.956,1.77l-1.762,1.38Z" transform="translate(-229.311 -152.079)"/><g transform="translate(9.669 1.994)"><path class="h" d="M257.712,158.116a2.974,2.974,0,0,1-1.214-.028,6.906,6.906,0,0,1-1.283-.33c-.454-.194-.946-.421-1.464-.659l-1.1-.513.071.014a17.31,17.31,0,0,1-2.9.033,17.235,17.235,0,0,1,2.887-.321l.034,0,.037.017,1.092.5,1.44.675a8.5,8.5,0,0,0,1.225.38C257.253,158.041,257.714,158.07,257.712,158.116Z" transform="translate(-249.823 -156.31)"/></g></g><g transform="translate(5.753)"><path class="i" d="M258.263,167.768l-15.251-3.756a1.965,1.965,0,0,1-1.438-2.378l5.2-21.109a1.965,1.965,0,0,1,2.378-1.438l9.672,2.382,5.587,9.561-3.768,15.3A1.965,1.965,0,0,1,258.263,167.768Z" transform="translate(-241.516 -139.029)"/><g transform="translate(15.79 2.44)"><path class="i" d="M276.529,144.2l-1.463,5.941a1.828,1.828,0,0,0,1.337,2.212l5.712,1.408Z" transform="translate(-275.013 -144.204)"/></g><g transform="translate(7.569 6.074)"><path class="e" d="M264.628,153.664a46.409,46.409,0,0,1-7.056-1.738,46.407,46.407,0,0,1,7.056,1.738Z" transform="translate(-257.572 -151.915)"/></g><g transform="translate(6.741 9.438)"><path class="e" d="M267.429,161.916c-.018.076-2.634-.5-5.84-1.292s-5.792-1.492-5.773-1.568,2.633.5,5.841,1.292S267.448,161.84,267.429,161.916Z" transform="translate(-255.817 -159.05)"/></g><g transform="translate(6.051 12.243)"><path class="e" d="M267.01,168.125c-.018.076-2.868-.56-6.363-1.421s-6.314-1.621-6.3-1.7,2.867.56,6.363,1.421S267.029,168.049,267.01,168.125Z" transform="translate(-254.352 -165.001)"/></g><g transform="translate(5.399 14.89)"><path class="e" d="M265.627,173.738c-.019.077-2.868-.56-6.363-1.42s-6.314-1.621-6.3-1.7,2.868.56,6.363,1.421S265.646,173.662,265.627,173.738Z" transform="translate(-252.969 -170.615)"/></g><g transform="translate(4.747 17.536)"><path class="e" d="M264.244,179.352c-.019.076-2.868-.56-6.363-1.42s-6.314-1.621-6.3-1.7,2.868.56,6.364,1.421S264.263,179.277,264.244,179.352Z" transform="translate(-251.586 -176.229)"/></g><g transform="translate(4.095 20.182)"><path class="e" d="M262.862,184.966c-.019.076-2.868-.56-6.363-1.42s-6.314-1.621-6.3-1.7,2.867.56,6.363,1.42S262.881,184.89,262.862,184.966Z" transform="translate(-250.204 -181.843)"/></g></g><g transform="translate(3.59 8.789)"><g transform="translate(0.002 0.006)"><path class="g" d="M236.929,160.408a1.281,1.281,0,0,0,1.429.429c.518-.132.976-.435,1.483-.6,1.516-.5,3.255.248,4.745-.328.208-.08.439-.244.4-.464-.032-.2-.267-.3-.466-.352l-5.1-1.406" transform="translate(-236.929 -157.685)"/></g><path class="h" d="M239.421,157.679a2.1,2.1,0,0,1,.567.1c.36.08.879.206,1.517.368l2.24.584.646.173c.2.07.494.073.7.379a.447.447,0,0,1-.06.5.917.917,0,0,1-.353.251,3.474,3.474,0,0,1-.754.2,20.238,20.238,0,0,1-2.851-.041,3.973,3.973,0,0,0-1.182.16c-.355.111-.675.281-.986.406a1.862,1.862,0,0,1-1.575.074c-.353-.185-.414-.425-.4-.422a1.553,1.553,0,0,0,.449.315,1.8,1.8,0,0,0,1.443-.163c.3-.132.61-.315.992-.448a4.115,4.115,0,0,1,1.256-.2,23.541,23.541,0,0,0,2.809.021,3.258,3.258,0,0,0,.683-.178c.2-.082.338-.237.269-.333-.059-.116-.294-.182-.513-.24l-.643-.182-2.223-.646c-.632-.188-1.142-.346-1.492-.461A2.117,2.117,0,0,1,239.421,157.679Z" transform="translate(-236.926 -157.673)"/></g></g><g transform="translate(0 165.866)"><path class="i" d="M61.86,433.543l-3.007,11.93-5.1,8.751a1.261,1.261,0,0,0,.53,1.764h0a1.253,1.253,0,0,0,1.154-.018c2.29-1.236,10.689-5.821,10.861-6.707.2-1.025,4.006-12.374,4.006-12.374Z" transform="translate(-53.583 -433.543)"/><g class="j" transform="translate(0.702 14.92)"><path class="k" d="M55.072,472.718l12.235-7.525-.139.5a1.9,1.9,0,0,1-.761,1.066c-1,.677-3.793,2.485-10.145,5.949a1.26,1.26,0,0,1-1.189.008Z" transform="translate(-55.072 -465.193)"/></g><g class="j" transform="translate(11.067 10.378)"><path class="k" d="M77.554,455.6a.763.763,0,0,0-.467.9.733.733,0,0,0,.892.47.8.8,0,0,0,.489-.96.76.76,0,0,0-.982-.387" transform="translate(-77.059 -455.558)"/></g><g transform="translate(2.767 16.107)"><path class="f" d="M61.53,469.618a2.72,2.72,0,0,0-2.078-1.849c0-.032.173-.083.462-.045a2.011,2.011,0,0,1,1.607,1.429C61.592,469.436,61.562,469.616,61.53,469.618Z" transform="translate(-59.452 -467.711)"/></g><g transform="translate(1.534 18.036)"><path class="f" d="M58.865,473.135c-.071.035-.345-.455-.909-.8a10.338,10.338,0,0,0-1.117-.47,1.4,1.4,0,0,1,1.26.24C58.74,472.5,58.935,473.12,58.865,473.135Z" transform="translate(-56.838 -471.803)"/></g><g transform="translate(4.014 14.166)"><path class="f" d="M65.063,465.841a12.6,12.6,0,0,0-1.32-1.33,12.662,12.662,0,0,0-1.646-.9,3.446,3.446,0,0,1,2.966,2.226Z" transform="translate(-62.097 -463.595)"/></g><g transform="translate(5.14 11.772)"><path class="f" d="M67.544,459.606c-.051.063-.631-.392-1.475-.659s-1.576-.249-1.581-.329a3.128,3.128,0,0,1,3.056.988Z" transform="translate(-64.487 -458.516)"/></g><g transform="translate(5.969 8.316)"><path class="f" d="M69.444,452.251a6.145,6.145,0,0,0-1.517-.727,6.184,6.184,0,0,0-1.681-.04c-.013-.03.158-.143.475-.225a2.744,2.744,0,0,1,2.4.576C69.368,452.052,69.469,452.23,69.444,452.251Z" transform="translate(-66.245 -451.185)"/></g><g transform="translate(6.353 5.669)"><path class="f" d="M68.562,447.9a1.066,1.066,0,0,1,.108-.453,3.232,3.232,0,0,1,.681-1.076,1.433,1.433,0,0,1,.775-.5.507.507,0,0,1,.52.261.825.825,0,0,1,.04.587,1.782,1.782,0,0,1-1.945,1.173,2.067,2.067,0,0,1-1.669-1.583.719.719,0,0,1,.126-.584.5.5,0,0,1,.571-.115,1.757,1.757,0,0,1,.669.622,3.6,3.6,0,0,1,.555,1.145,1.1,1.1,0,0,1,.069.46,5.722,5.722,0,0,0-.776-1.49,1.646,1.646,0,0,0-.6-.528.265.265,0,0,0-.312.061.494.494,0,0,0-.061.389,1.845,1.845,0,0,0,1.463,1.356,1.547,1.547,0,0,0,1.665-.972.6.6,0,0,0-.01-.411.274.274,0,0,0-.285-.148,1.3,1.3,0,0,0-.664.408A4.776,4.776,0,0,0,68.562,447.9Z" transform="translate(-67.06 -445.569)"/></g></g><g transform="translate(38.393 167.114)"><path class="i" d="M145.149,436.513l-.664,10.023s9.976,3.311,10.033,5.175l-19.491.141.394-15.659Z" transform="translate(-135.028 -436.192)"/><g class="j" transform="translate(2.869 9.289)"><path class="k" d="M141.7,455.925a.8.8,0,0,0-.578.891.765.765,0,0,0,.879.58.84.84,0,0,0,.607-.947.794.794,0,0,0-.981-.5" transform="translate(-141.114 -455.897)"/></g><g class="j" transform="translate(0 14.081)"><path class="k" d="M135.028,467.641l.04-1.578,18.825.52a1.348,1.348,0,0,1,.725,1.059Z" transform="translate(-135.028 -466.063)"/></g><g transform="translate(7.969 10.156)"><path class="f" d="M153.74,457.834c-.006.1-.483.124-.96.416s-.739.684-.825.643c-.087-.021.072-.585.656-.929S153.763,457.748,153.74,457.834Z" transform="translate(-151.933 -457.737)"/></g><g transform="translate(10.464 11.119)"><path class="f" d="M158.555,459.821c.019.093-.4.242-.733.635s-.442.815-.536.808c-.09.012-.139-.547.287-1.027S158.556,459.731,158.555,459.821Z" transform="translate(-157.225 -459.779)"/></g><g transform="translate(12.777 12.022)"><path class="f" d="M162.236,463.314c-.087.017-.205-.462.055-.975s.711-.707.749-.627-.246.351-.453.776S162.33,463.307,162.236,463.314Z" transform="translate(-162.132 -461.694)"/></g><g transform="translate(7.646 7.583)"><path class="f" d="M153.276,452.648c-.042.085-.475-.059-1.014-.039s-.963.177-1.01.094.366-.41,1-.425S153.325,452.575,153.276,452.648Z" transform="translate(-151.248 -452.277)"/></g><g class="l" transform="translate(0.3 2.104)"><path d="M145.352,440.856l-.116,1.786-9.571-.377.037-1.612Z" transform="translate(-135.665 -440.654)"/></g><g transform="translate(6.843 4.285)"><path class="f" d="M152.472,446.925a1.826,1.826,0,0,1-.975-.034,4.374,4.374,0,0,1-1.011-.345,4.6,4.6,0,0,1-.552-.314,1.222,1.222,0,0,1-.288-.239.415.415,0,0,1-.028-.507.523.523,0,0,1,.423-.205,1.276,1.276,0,0,1,.364.062,3.513,3.513,0,0,1,.6.226,3.437,3.437,0,0,1,.882.618c.439.432.583.792.55.809s-.255-.274-.7-.634a3.894,3.894,0,0,0-.856-.517,3.663,3.663,0,0,0-.555-.19c-.2-.06-.38-.067-.436.023-.02.035-.024.049.018.11a.97.97,0,0,0,.212.174,5.273,5.273,0,0,0,.506.31,5.419,5.419,0,0,0,.932.39A6.751,6.751,0,0,1,152.472,446.925Z" transform="translate(-149.544 -445.281)"/></g><g transform="translate(9.413 2.988)"><path class="f" d="M155.226,445.6a1.555,1.555,0,0,1-.229-.95,3.164,3.164,0,0,1,.165-1.064,3.2,3.2,0,0,1,.266-.585.807.807,0,0,1,.637-.474.456.456,0,0,1,.4.285,1.313,1.313,0,0,1,.089.361,2.174,2.174,0,0,1-.019.657,2.247,2.247,0,0,1-.447,1c-.4.493-.8.595-.8.562-.03-.049.307-.222.613-.7a2.243,2.243,0,0,0,.336-.907,1.986,1.986,0,0,0,0-.564c-.024-.208-.1-.377-.175-.358-.1,0-.266.146-.351.309a3.259,3.259,0,0,0-.258.521,3.511,3.511,0,0,0-.218.968C155.188,445.232,155.278,445.591,155.226,445.6Z" transform="translate(-154.996 -442.531)"/></g></g><g transform="translate(4.466 80.136)"><g transform="translate(0 0)"><path class="f" d="M107.106,251.905l-29.7-.224L63.058,345.937,75.383,347.5l15.8-77.5,4.728,77.776.012.231,13.329-.233Z" transform="translate(-63.058 -251.682)"/></g><g transform="translate(29.103 8.453)"><path class="m" d="M124.807,277.451a6.417,6.417,0,0,1,.077-1.15c.066-.707.144-1.683.177-2.764s.014-2.06-.01-2.77a6.4,6.4,0,0,1-.008-1.153,4.659,4.659,0,0,1,.181,1.142,23.329,23.329,0,0,1-.168,5.566A4.637,4.637,0,0,1,124.807,277.451Z" transform="translate(-124.795 -269.614)"/></g><g transform="translate(30.939 8.654)"><path class="m" d="M129.312,270.11c0-.012.052-.054.175-.066a.749.749,0,0,1,.491.147.861.861,0,0,1,.371.68.863.863,0,0,1-1.5.509.861.861,0,0,1-.118-.766.757.757,0,0,1,.3-.415c.105-.065.175-.066.18-.054.023.033-.239.14-.313.512a.712.712,0,0,0,.127.581.653.653,0,0,0,1.1-.372.715.715,0,0,0-.252-.539A1.077,1.077,0,0,0,129.312,270.11Z" transform="translate(-128.689 -270.041)"/></g><g transform="translate(15.316 6.824)"><path class="m" d="M104.189,266.162c.01.013-.086.1-.272.247a4.961,4.961,0,0,1-.847.531,6.714,6.714,0,0,1-1.391.526,7.3,7.3,0,0,1-3.618,0,6.75,6.75,0,0,1-1.392-.525,4.957,4.957,0,0,1-.848-.531c-.185-.146-.282-.233-.272-.247.027-.038.441.28,1.194.621a7.62,7.62,0,0,0,1.37.462,7.731,7.731,0,0,0,3.511,0,7.573,7.573,0,0,0,1.37-.463C103.748,266.442,104.161,266.124,104.189,266.162Z" transform="translate(-95.548 -266.159)"/></g><g transform="translate(37.116 7.327)"><g transform="translate(0)"><path class="m" d="M147.017,268.72a2,2,0,0,1-.814.172A5.759,5.759,0,0,1,142.4,267.8c-.414-.309-.62-.555-.6-.576a7.707,7.707,0,0,0,5.222,1.491Z" transform="translate(-141.794 -267.226)"/></g></g><g transform="translate(4.701 11.102)"><path class="m" d="M73.031,359.243a1.069,1.069,0,0,0,.086-.2c.044-.139.1-.347.167-.623.133-.552.309-1.373.522-2.431.426-2.118,1-5.19,1.694-8.991,1.384-7.6,3.23-18.115,5.262-29.727S84.655,295.151,86,287.532c.686-3.794,1.242-6.867,1.628-9l.459-2.445c.054-.271.1-.481.126-.635s.051-.215.051-.215-.005.075-.026.219-.058.367-.1.639c-.1.573-.236,1.4-.413,2.454l-1.551,9.017L81,317.312c-2.033,11.612-3.906,22.122-5.333,29.716-.713,3.8-1.316,6.866-1.771,8.979A13.543,13.543,0,0,1,73.031,359.243Z" transform="translate(-73.031 -275.233)"/></g><g transform="translate(36.258 10.179)"><path class="m" d="M146.266,357.146s-.008-.074-.012-.217-.007-.366-.012-.638c-.005-.573-.013-1.4-.023-2.453s-.013-2.368-.04-3.881-.036-3.235-.087-5.139c-.074-3.807-.22-8.34-.439-13.37s-.549-10.557-.979-16.351-.953-11.309-1.473-16.318-1.066-9.511-1.561-13.288c-.233-1.89-.478-3.595-.681-5.094s-.385-2.789-.539-3.843-.263-1.862-.343-2.429c-.035-.269-.063-.479-.083-.633s-.02-.217-.02-.217.019.072.045.213.062.361.107.629c.091.566.222,1.379.389,2.422s.369,2.34.581,3.838.472,3.2.717,5.091c.517,3.774,1.067,8.278,1.614,13.286s1.052,10.525,1.493,16.324.738,11.327.96,16.359c.206,5.033.335,9.568.387,13.377.041,1.9.04,3.627.051,5.141s.008,2.817,0,3.882-.018,1.881-.023,2.454c-.005.272-.009.483-.012.638S146.266,357.146,146.266,357.146Z" transform="translate(-139.973 -273.275)"/></g></g><g transform="translate(14.682 28.892)"><g transform="translate(34.585 38.852)"><path class="i" d="M158.1,225.769c0-.116,0-.239-.006-.376Z" transform="translate(-158.095 -225.393)"/></g><path class="i" d="M117.606,144.544c-.367-.308-6.5-1.09-6.5-1.09-3.227-.094-8.1-.734-11.573-.364h0a111.1,111.1,0,0,0-10.961,4.549,9.164,9.164,0,0,0-3.839,5.852l5.329,29.8v.017L87.8,196.727c-.348,3.053,11.012,4.421,17.8,4.963a17.878,17.878,0,0,0,9.082-1.659l4.787-2.266a.071.071,0,0,0,.074-.073l-.221-15.49,2.806-29.642C122.5,149.924,119.646,146.257,117.606,144.544Z" transform="translate(-84.728 -142.975)"/><g transform="translate(26.765 1.26)"><path class="i" d="M141.506,145.68s6.321-.344,9.5,1.215,17.166,11.184,17.166,11.184l14.337-5.312,5.073,6.88-12.419,9.05a10.549,10.549,0,0,1-10.074.957l-16.089-6.387Z" transform="translate(-141.506 -145.648)"/></g><g transform="translate(34.76 13.609)"><path class="f" d="M160.553,171.844c.084.008-.313,4.709-.886,10.5s-1.105,10.478-1.189,10.47.313-4.708.887-10.5S160.47,171.836,160.553,171.844Z" transform="translate(-158.466 -171.844)"/></g><g class="l" transform="translate(3.741 43.031)"><path d="M93.141,238.571l-.478,2.445c3.436.423,6.618.711,10.054,1.134l14.1,1.734a5.68,5.68,0,0,0,3.279-.247c1.518-.774,2.008-2.7,2.1-4.4s-.035-3.521.844-4.98C112.85,235.432,103.244,236.806,93.141,238.571Z" transform="translate(-92.663 -234.258)"/></g><g class="l" transform="translate(9.876 19.175)"><path d="M105.678,200.109a104.853,104.853,0,0,1,5.435-16.458A110.932,110.932,0,0,1,108,200.869" transform="translate(-105.678 -183.652)"/></g><g transform="translate(4.68 7.764)"><path class="f" d="M99.5,164.219a8.749,8.749,0,0,0-4.839-4.77,2.874,2.874,0,0,1,1,.3,7.058,7.058,0,0,1,3.526,3.475A2.872,2.872,0,0,1,99.5,164.219Z" transform="translate(-94.657 -159.445)"/></g><g transform="translate(36.347 3.599)"><path class="f" d="M162.393,155.586a25.536,25.536,0,0,1-.534-4.975,25.546,25.546,0,0,1,.534,4.975Z" transform="translate(-161.832 -150.611)"/></g><g transform="translate(53.118 13.623)"><path class="f" d="M198.547,178.7a3.135,3.135,0,0,1-.48-.914,9.222,9.222,0,0,1-.535-4.913,3.144,3.144,0,0,1,.272-1,12.754,12.754,0,0,0,.742,6.822Z" transform="translate(-197.41 -171.875)"/></g><g class="l" transform="translate(52.579 13.784)"><path d="M197.068,172.215a3.007,3.007,0,0,0-.766,2.159,21.071,21.071,0,0,0,.089,3.517,4.621,4.621,0,0,0,.5,1.849.884.884,0,0,0,.519.46c.409.092.776-.349.788-.769a2.583,2.583,0,0,0-.4-1.179,8.7,8.7,0,0,1-.726-5.684" transform="translate(-196.266 -172.215)"/></g><g transform="translate(5.998 2.17)"><path class="e" d="M124.733,147.579a1.851,1.851,0,0,1-.025.331c-.027.216-.053.538-.122.949a27.729,27.729,0,0,1-.764,3.477,29.777,29.777,0,0,1-5.586,10.652l-.058.07-.083-.036c-1.17-.515-2.382-1.058-3.594-1.671a71.214,71.214,0,0,1-12.456-7.909c-1.483-1.174-2.625-2.192-3.411-2.9l-.885-.834-.226-.222c-.05-.051-.074-.079-.071-.082a.38.38,0,0,1,.088.064l.242.2.915.8c.8.684,1.962,1.68,3.454,2.833a74.985,74.985,0,0,0,12.459,7.826c1.208.61,2.415,1.154,3.581,1.669l-.141.034a30.4,30.4,0,0,0,5.621-10.543,31.643,31.643,0,0,0,.831-3.447c.081-.408.121-.727.162-.941A1.862,1.862,0,0,1,124.733,147.579Z" transform="translate(-97.452 -147.579)"/></g><g transform="translate(9.938 1.927)"><path class="e" d="M126.932,147.064a1.2,1.2,0,0,1-.052.263c-.043.17-.1.422-.2.745-.18.646-.465,1.578-.875,2.724a46.465,46.465,0,0,1-4.211,8.714l-.066.107-.1-.072L119.176,158l-9.481-6.551-2.857-2.009-.77-.556a1.641,1.641,0,0,1-.259-.207,1.661,1.661,0,0,1,.287.167l.8.518,2.9,1.944,9.522,6.492,2.247,1.545-.171.036a49.59,49.59,0,0,0,4.267-8.642c.428-1.134.736-2.057.942-2.694l.236-.732A1.263,1.263,0,0,1,126.932,147.064Z" transform="translate(-105.81 -147.064)"/></g><g transform="translate(61.663 10.885)"><path class="e" d="M219.732,175.149a1.186,1.186,0,0,1-.374-.174,5.218,5.218,0,0,1-.9-.676,8.011,8.011,0,0,1-2-3.106,15.885,15.885,0,0,1-.8-3.6,8.4,8.4,0,0,1-.108-1.523,10.732,10.732,0,0,1,.28,1.5,19.369,19.369,0,0,0,.861,3.544,8.622,8.622,0,0,0,1.888,3.066C219.233,174.836,219.757,175.11,219.732,175.149Z" transform="translate(-215.537 -166.066)"/></g><g transform="translate(63.869 9.886)"><path class="e" d="M224.688,172.687c-.013.011-.114-.085-.285-.27s-.408-.461-.685-.815a18.913,18.913,0,0,1-3.186-6.233c-.125-.432-.213-.786-.259-1.033a1.24,1.24,0,0,1-.051-.389,13.118,13.118,0,0,1,.476,1.369,24.029,24.029,0,0,0,3.16,6.183A12.964,12.964,0,0,1,224.688,172.687Z" transform="translate(-220.215 -163.947)"/></g><g transform="translate(3.811 52.114)"><path class="e" d="M123.872,253.749a1.659,1.659,0,0,1-.283.168l-.834.442-.606.314c-.225.108-.477.21-.743.327-.537.225-1.138.513-1.837.739l-1.087.382c-.379.13-.785.227-1.2.349-.826.256-1.733.429-2.683.632a32.726,32.726,0,0,1-12.563-.09c-.947-.216-1.852-.4-2.674-.67-.412-.127-.817-.23-1.194-.366l-1.082-.4c-.7-.236-1.292-.533-1.826-.765-.265-.121-.515-.226-.738-.338l-.6-.323-.828-.453a1.64,1.64,0,0,1-.28-.173,1.668,1.668,0,0,1,.3.129l.848.412.609.3c.225.1.477.2.744.318.537.22,1.134.5,1.83.728l1.08.381c.376.13.78.228,1.191.35.819.258,1.72.435,2.662.644a33.524,33.524,0,0,0,12.478.089c.944-.2,1.847-.36,2.67-.606.413-.116.818-.208,1.2-.333l1.086-.365c.7-.214,1.3-.49,1.84-.7.268-.111.521-.206.749-.307l.613-.294.853-.4A1.662,1.662,0,0,1,123.872,253.749Z" transform="translate(-92.813 -253.527)"/></g></g><g transform="translate(8.186 39.046)"><g transform="translate(15.72 5.937)"><path class="m" d="M125.032,211.541l-19.4-4.824a1.759,1.759,0,0,1-1.282-2.131l6.5-26.143a1.759,1.759,0,0,1,2.131-1.282l13.568,3.374,5.716,9.216-5.1,20.509A1.759,1.759,0,0,1,125.032,211.541Z" transform="translate(-104.295 -177.108)"/><g transform="translate(20.904 3.363)"><path class="f" d="M150,184.242l-1.292,5.2a2.4,2.4,0,0,0,1.747,2.9l5.245,1.18Z" transform="translate(-148.639 -184.242)"/></g><g transform="translate(5.739 12.396)"><path class="k" d="M129.84,219.553a2.286,2.286,0,0,1,.049-.248l.16-.694.618-2.6,2.233-9.214.08.132-13.24-3.274c-.035.019.29-.174.152-.09v0l0,.007,0,.014-.007.027-.014.055-.027.109-.054.217-.108.434-.214.862-.423,1.7-.821,3.288-1.508,6.012-.08-.134,9.544,2.431,2.7.7.717.191a2.314,2.314,0,0,1,.252.076,1.733,1.733,0,0,1-.235-.046l-.7-.161-2.686-.638-9.64-2.339-.107-.026.027-.108c.458-1.859.956-3.88,1.484-6.018q.4-1.6.815-3.29.209-.841.422-1.7l.214-.862.107-.434.054-.217.027-.109.014-.055.007-.027,0-.014v-.01c-.137.082.188-.115.156-.094l13.231,3.308.107.026-.027.106c-.973,3.819-1.785,7-2.358,9.255l-.668,2.566-.179.668A1.429,1.429,0,0,1,129.84,219.553Z" transform="translate(-116.47 -203.404)"/><g transform="translate(6.584 1.889)"><path class="k" d="M130.442,220.145c-.068-.017.586-2.881,1.46-6.4s1.638-6.354,1.706-6.337-.586,2.881-1.46,6.4S130.509,220.162,130.442,220.145Z" transform="translate(-130.437 -207.412)"/></g><g transform="translate(0.809 9.707)"><path class="k" d="M131.474,227.3c-.017.068-3.005-.616-6.674-1.528s-6.63-1.707-6.613-1.775,3,.617,6.674,1.529S131.491,227.236,131.474,227.3Z" transform="translate(-118.187 -223.995)"/></g><g transform="translate(1.767 6.498)"><path class="k" d="M133.506,220.5c-.017.068-3.005-.617-6.674-1.529s-6.63-1.707-6.613-1.775,3,.617,6.675,1.529S133.523,220.429,133.506,220.5Z" transform="translate(-120.219 -217.188)"/></g><g transform="translate(2.575 3.252)"><path class="k" d="M135.118,213.585c-.017.068-2.983-.611-6.623-1.516s-6.58-1.695-6.563-1.763,2.982.611,6.624,1.516S135.135,213.517,135.118,213.585Z" transform="translate(-121.932 -210.302)"/></g></g></g><g transform="translate(25.45 22.117)"><path class="g" d="M126.238,217.86l3.32-.364a18.246,18.246,0,0,1,2.263-3.056,48.821,48.821,0,0,1,5.533-3.009,1.28,1.28,0,0,1,0,1.627,20.144,20.144,0,0,1-2.5,1.6h0a1.264,1.264,0,0,0,1.442,1.594c1.358-.249,2.939-.531,3.148-.531a15.842,15.842,0,0,0,2.583-2.255.845.845,0,0,1,1.424.774.416.416,0,0,1-.119.2s1.43-.051.154,1.872c0,0,.295,1.775-.752,2.589a8.542,8.542,0,0,1-1.125,2.885c-.673.74-7.248,2.144-7.248,2.144l-9.429,1.143Z" transform="translate(-124.936 -211.431)"/><g transform="translate(11.952 2.98)"><path class="h" d="M150.29,221.629a3.977,3.977,0,0,0,1.177.029,6.172,6.172,0,0,0,2.765-.726,5.729,5.729,0,0,0,1.925-2.113,3.9,3.9,0,0,0,.5-1.065,5.42,5.42,0,0,0-.684.95,6.4,6.4,0,0,1-1.9,1.967,7,7,0,0,1-2.629.774A5.27,5.27,0,0,0,150.29,221.629Z" transform="translate(-150.29 -217.752)"/></g><g transform="translate(12.63 4.926)"><path class="h" d="M151.728,225.335a2.217,2.217,0,0,0,1.074.084,7.676,7.676,0,0,0,1.159-.169,3.632,3.632,0,0,0,1.356-.553,6.267,6.267,0,0,0,1.008-1.036l.723-.9a3.752,3.752,0,0,0,.61-.878,3.786,3.786,0,0,0-.774.739c-.223.24-.49.532-.774.86a7.164,7.164,0,0,1-.976.973,3.7,3.7,0,0,1-1.24.524,10.681,10.681,0,0,1-1.115.227C152.136,225.306,151.734,225.292,151.728,225.335Z" transform="translate(-151.728 -221.881)"/></g><g transform="translate(13.554 7.469)"><path class="h" d="M153.688,229.881a8.319,8.319,0,0,0,2.584-.514,1.194,1.194,0,0,0,.509-.308,4.162,4.162,0,0,0,.357-.364,4.936,4.936,0,0,0,.508-.687c.255-.417.326-.719.289-.732s-.178.241-.466.61a7.527,7.527,0,0,1-.537.619,4.755,4.755,0,0,1-.347.329.962.962,0,0,1-.387.238c-.71.191-1.332.39-1.786.536A3.267,3.267,0,0,0,153.688,229.881Z" transform="translate(-153.688 -227.275)"/></g></g><path class="i" d="M84.264,189l3.01-16.286,0-.013a10.874,10.874,0,0,0-9.745-8.187l-3.6,12.252a102.931,102.931,0,0,0-2.955,16.273c-.384,4.364,3.813,8.392,8.714,9.072.066.009.132.02.2.028a59.893,59.893,0,0,0,17.587-.605l1.178-8.907C98.747,192.679,84.264,189,84.264,189Z" transform="translate(-70.948 -164.514)"/><g transform="translate(5.433 7.639)"><path class="f" d="M82.475,199.217a.69.69,0,0,1,.025-.2,3.348,3.348,0,0,1,.158-.562,4.7,4.7,0,0,1,1.2-1.808,4.572,4.572,0,0,1,3.012-1.263,4.875,4.875,0,0,1,3.754,1.611l-.208.06c.148-.976.3-2.007.464-3.067.571-3.653,1.088-6.958,1.467-9.391.2-1.175.355-2.137.473-2.841l.14-.771a1.181,1.181,0,0,1,.066-.266,1.152,1.152,0,0,1-.016.274l-.1.777-.4,2.853c-.362,2.436-.853,5.744-1.4,9.4l-.471,3.066-.039.254-.169-.193a4.692,4.692,0,0,0-3.569-1.561,4.458,4.458,0,0,0-2.913,1.169,4.854,4.854,0,0,0-1.228,1.726C82.544,198.948,82.5,199.221,82.475,199.217Z" transform="translate(-82.472 -180.718)"/></g><g transform="translate(2.695 24.265)"><path class="f" d="M87.546,215.989a1.588,1.588,0,0,1,.267.071l.764.236c.668.208,1.646.5,2.888.856,2.484.7,6.032,1.608,10.233,2.574l.1.023-.012.1c-.329,2.75-.69,5.772-1.07,8.948l-.011.093-.092.014-.59.088a79.688,79.688,0,0,1-9.415.823,40.38,40.38,0,0,1-7.71-.343,11.6,11.6,0,0,1-4.835-1.871,6.194,6.194,0,0,1-.64-.511,4.28,4.28,0,0,1-.433-.415l-.247-.273a.46.46,0,0,1-.078-.1.492.492,0,0,1,.1.082l.264.255a4.82,4.82,0,0,0,.445.395,6.561,6.561,0,0,0,.647.488,11.79,11.79,0,0,0,4.809,1.778,41.5,41.5,0,0,0,7.674.288,82.628,82.628,0,0,0,9.386-.84l.588-.088-.1.107c.387-3.175.755-6.2,1.09-8.946l.086.123c-4.2-.984-7.743-1.919-10.22-2.662-1.238-.371-2.211-.688-2.873-.918-.331-.112-.584-.207-.754-.27A1.491,1.491,0,0,1,87.546,215.989Z" transform="translate(-76.664 -215.988)"/></g><g class="l" transform="translate(8.539 23.728)"><path d="M94.038,215.012a2.307,2.307,0,0,0-2.026.193,5.571,5.571,0,0,0-2.866,3.649,2.1,2.1,0,0,0-.039,1,.952.952,0,0,0,.646.707,1.037,1.037,0,0,0,1.045-.51,4.272,4.272,0,0,0,.434-1.155,7.047,7.047,0,0,1,2.785-3.78" transform="translate(-89.063 -214.85)"/></g><g transform="translate(18.727 26.42)"><path class="e" d="M111.295,231.688a1.593,1.593,0,0,1-.149-.427,10.611,10.611,0,0,1-.266-1.2,15.147,15.147,0,0,1,.829-7.994,10.594,10.594,0,0,1,.506-1.121,1.6,1.6,0,0,1,.234-.387c.038.019-.239.6-.577,1.567a17.214,17.214,0,0,0-.82,7.909C111.183,231.056,111.336,231.678,111.295,231.688Z" transform="translate(-110.675 -220.559)"/></g><g transform="translate(21.796 26.872)"><path class="e" d="M117.986,232.251c0,.01-.178-.018-.364-.253a2.165,2.165,0,0,1-.342-1.153,23.274,23.274,0,0,1,.622-7.784c.124-.486.244-.874.335-1.139a1.519,1.519,0,0,1,.166-.4c.036.011-.124.608-.332,1.582a29.5,29.5,0,0,0-.617,7.731,2.27,2.27,0,0,0,.247,1.111C117.843,232.171,118,232.23,117.986,232.251Z" transform="translate(-117.186 -221.519)"/></g></g><g transform="translate(27.146)"><g transform="translate(1.715 2.271)"><path class="g" d="M114.815,95.372l.641,18.649a5.771,5.771,0,0,0,5.954,5.57h0a5.771,5.771,0,0,0,5.581-5.6c.047-1.671.08-3.064.08-3.064s4.643-.5,4.918-5.1c.132-2.22.033-6.81-.1-10.969a8.635,8.635,0,0,0-8.632-8.346h0A8.539,8.539,0,0,0,114.815,95.372Z" transform="translate(-114.808 -86.503)"/></g><g transform="translate(8.055 24.71)"><path class="h" d="M134.185,136.1a10.73,10.73,0,0,1-5.927-1.992s1.263,3.384,5.881,3.186Z" transform="translate(-128.258 -134.104)"/></g><g transform="translate(7.787 9.316)"><g transform="translate(0.333 2.611)"><g transform="translate(6.968 0.197)"><g transform="translate(0.873 1.078)"><path class="f" d="M146.344,110.317a.659.659,0,0,1-.666.634.63.63,0,0,1-.65-.626.659.659,0,0,1,.665-.634A.631.631,0,0,1,146.344,110.317Z" transform="translate(-145.028 -109.691)"/></g><path class="f" d="M145.777,108.16c-.086.082-.567-.311-1.275-.342s-1.244.3-1.317.207c-.036-.04.055-.191.289-.345a1.807,1.807,0,0,1,1.059-.272,1.739,1.739,0,0,1,1.01.379C145.752,107.965,145.819,108.123,145.777,108.16Z" transform="translate(-143.177 -107.405)"/></g><g transform="translate(1.13 1.252)"><path class="f" d="M132.11,110.269a.659.659,0,0,1-.666.634.63.63,0,0,1-.651-.626.659.659,0,0,1,.666-.635A.631.631,0,0,1,132.11,110.269Z" transform="translate(-130.793 -109.643)"/></g><path class="f" d="M131,107.742c-.086.082-.568-.311-1.276-.342s-1.244.3-1.317.207c-.036-.04.054-.191.289-.345a1.8,1.8,0,0,1,1.059-.272,1.736,1.736,0,0,1,1.01.379C130.971,107.546,131.037,107.7,131,107.742Z" transform="translate(-128.396 -106.987)"/><g transform="translate(4.868 0.212)"><path class="f" d="M138.776,113.353a4.7,4.7,0,0,1,1.16-.153c.182-.01.354-.038.391-.16a.918.918,0,0,0-.1-.542l-.47-1.4a23.682,23.682,0,0,1-1.031-3.659A23.768,23.768,0,0,1,140.053,111q.234.737.447,1.409a1.05,1.05,0,0,1,.06.714.454.454,0,0,1-.31.25,1.205,1.205,0,0,1-.309.028A4.6,4.6,0,0,1,138.776,113.353Z" transform="translate(-138.722 -107.436)"/></g><g transform="translate(2.679 6.519)"><path class="f" d="M134.214,120.817c.116,0,.081.768.713,1.344s1.455.531,1.456.639c.008.049-.19.14-.536.134a1.92,1.92,0,0,1-1.217-.49,1.669,1.669,0,0,1-.548-1.125C134.067,121,134.162,120.81,134.214,120.817Z" transform="translate(-134.08 -120.817)"/></g></g><path class="f" d="M130.936,102.047c-.079.189-.782.065-1.617.125-.837.044-1.518.256-1.621.078-.045-.085.08-.261.36-.434a2.82,2.82,0,0,1,2.467-.155C130.824,101.8,130.97,101.957,130.936,102.047Z" transform="translate(-127.689 -101.448)"/><g transform="translate(7.332 0.707)"><path class="f" d="M145.648,103.742c-.132.155-.612-.035-1.2-.071-.585-.056-1.088.057-1.195-.117-.046-.084.04-.241.264-.384a1.738,1.738,0,0,1,1.928.151C145.646,103.5,145.707,103.666,145.648,103.742Z" transform="translate(-143.242 -102.948)"/></g></g><g transform="translate(0.874 3.457)"><path class="f" d="M119.109,91.962l-.026.019a3.63,3.63,0,0,0-1.459,2.281l-.017.092c-.242,1.306-.273,2.645-.528,3.948a5.963,5.963,0,0,1-1.787,3.476c-.417.353-1.135.576-1.443.124a1.126,1.126,0,0,1-.135-.61c-.1-3.186-.829-6.043-.667-9.361a2.8,2.8,0,0,1,1.269-2.223c.718-.465,1.591-.941,2.346-.539s1.687,1.9,2.257,2.536" transform="translate(-113.024 -89.018)"/></g><g transform="translate(0 13.18)"><path class="g" d="M114.341,109.84c-.077-.038-3.122-1.087-3.171,2.069s3.13,2.553,3.137,2.463S114.341,109.84,114.341,109.84Z" transform="translate(-111.17 -109.643)"/><g transform="translate(0.8 1.013)"><path class="h" d="M114.259,114.3c-.014-.01-.056.038-.149.079a.55.55,0,0,1-.411,0,1.361,1.361,0,0,1-.61-1.23,1.815,1.815,0,0,1,.166-.784.635.635,0,0,1,.42-.416.28.28,0,0,1,.322.156c.041.089.02.152.037.157s.068-.052.045-.182a.348.348,0,0,0-.121-.2.416.416,0,0,0-.3-.085.773.773,0,0,0-.582.48,1.87,1.87,0,0,0-.2.877,1.428,1.428,0,0,0,.781,1.375.589.589,0,0,0,.5-.075C114.252,114.374,114.27,114.3,114.259,114.3Z" transform="translate(-112.868 -111.792)"/></g></g><g transform="translate(3.802)"><path class="f" d="M119.471,86.26c-.909-1.17,1.01-3.2,2.5-3.859s3.616-.125,5.211.218a8.6,8.6,0,0,0,3.043.406,6.967,6.967,0,0,0,1.932-.724,5.1,5.1,0,0,1,1.963-.615,1.9,1.9,0,0,1,1.764.866,1.192,1.192,0,0,1-.618,1.687,1.549,1.549,0,1,1,.722,2.809c.409-.387,1.154.1,1.159.659a1.631,1.631,0,0,1-.942,1.3,5.907,5.907,0,0,1-4.193.393c-1.4-.308-2.736-.881-4.131-1.223s-3.738-.975-5.033-.353c-.954.458-1.513,1.728-2.1,1.525a1.929,1.929,0,0,1-1.146-1.3,5.582,5.582,0,0,1-.133-1.792" transform="translate(-119.236 -81.685)"/></g><g transform="translate(5.849 2.189)"><path class="m" d="M137.4,86.923c0,.008.059.029.158.1a.932.932,0,0,1,.323.408,1.337,1.337,0,0,1,.068.816,1.356,1.356,0,0,1-.632.858,2.563,2.563,0,0,1-1.279.35,5.085,5.085,0,0,1-1.53-.223,15.475,15.475,0,0,1-3.213-1.568,9.272,9.272,0,0,0-3.357-1.3,4.165,4.165,0,0,0-1.58.1,3.841,3.841,0,0,0-1.246.588,3.982,3.982,0,0,0-1.289,1.5,2.77,2.77,0,0,0-.243.686c.015.005.074-.25.289-.663a4.049,4.049,0,0,1,1.3-1.449,3.789,3.789,0,0,1,1.221-.559,4.083,4.083,0,0,1,1.537-.083,9.3,9.3,0,0,1,3.307,1.3,15.2,15.2,0,0,0,3.244,1.571,5.145,5.145,0,0,0,1.568.215,2.64,2.64,0,0,0,1.325-.38,1.66,1.66,0,0,0,.442-.42,1.32,1.32,0,0,0,.212-.5,1.369,1.369,0,0,0-.093-.853.921.921,0,0,0-.354-.409A.583.583,0,0,0,137.4,86.923Z" transform="translate(-123.578 -86.329)"/></g><g transform="translate(5.521 1.181)"><path class="m" d="M125.882,84.2a.559.559,0,0,0-.2-.006,2.631,2.631,0,0,0-.549.1,3.078,3.078,0,0,0-2.233,2.679,2.659,2.659,0,0,0,0,.557.55.55,0,0,0,.043.2c.024,0-.019-.29.046-.746a3.182,3.182,0,0,1,2.169-2.6C125.592,84.234,125.884,84.224,125.882,84.2Z" transform="translate(-122.882 -84.19)"/></g><g transform="translate(0.963 5.002)"><path class="m" d="M113.213,96.568a.547.547,0,0,0,.256.073,1.255,1.255,0,0,0,.712-.154,1.818,1.818,0,0,0,.753-.773,5.259,5.259,0,0,0,.433-1.242,5.259,5.259,0,0,1,.421-1.214,1.74,1.74,0,0,1,.705-.734,1.274,1.274,0,0,1,.668-.166c.165.009.255.042.258.031a.546.546,0,0,0-.254-.081,1.24,1.24,0,0,0-.716.134,1.786,1.786,0,0,0-.768.758,5.014,5.014,0,0,0-.442,1.24,5.525,5.525,0,0,1-.412,1.217,1.777,1.777,0,0,1-.692.75,1.292,1.292,0,0,1-.664.184C113.307,96.586,113.216,96.556,113.213,96.568Z" transform="translate(-113.213 -92.295)"/></g><g transform="translate(1.128 6.333)"><path class="m" d="M113.563,100.145s.026.012.077.022a1.653,1.653,0,0,0,.227.029,2.834,2.834,0,0,0,.841-.065,3.789,3.789,0,0,0,2.255-1.553,5.608,5.608,0,0,0,.929-2.6,2.4,2.4,0,0,1,.072-.462.572.572,0,0,1,.182-.282.486.486,0,0,1,.272-.1c.008,0-.124-.059-.3.061a.608.608,0,0,0-.221.3,2.275,2.275,0,0,0-.095.474,5.865,5.865,0,0,1-.944,2.534,3.838,3.838,0,0,1-2.169,1.538A4.328,4.328,0,0,1,113.563,100.145Z" transform="translate(-113.563 -95.119)"/></g></g></g><g transform="translate(135.122 126.031)"><path class="b" d="M284.434,245.287l-16.22,6.238a2.175,2.175,0,0,1-2.81-1.249l-8.633-22.45a2.174,2.174,0,0,1,1.249-2.81l10.287-3.956,11.119,5.145,6.258,16.273A2.175,2.175,0,0,1,284.434,245.287Z" transform="translate(-256.625 -221.059)"/><g transform="translate(11.681)"><path class="c" d="M281.4,221.059l2.43,6.319a2.023,2.023,0,0,0,2.613,1.162l6.076-2.335Z" transform="translate(-281.405 -221.059)"/></g><g transform="translate(14.407 5.145)"><path class="d" d="M287.188,233.67a2.248,2.248,0,0,0,2.448,1.4,2.11,2.11,0,0,0,.217-.032c.848-.164,6.428-1.243,6.381-1.363l-.653-1.7-6.075,2.336A2.072,2.072,0,0,1,287.188,233.67Z" transform="translate(-287.188 -231.974)"/></g><g transform="translate(5.147 6.576)"><path class="e" d="M275.049,235.017a51.4,51.4,0,0,1-7.5,2.885,51.307,51.307,0,0,1,7.5-2.885Z" transform="translate(-267.544 -235.01)"/></g><g transform="translate(6.521 8.288)"><path class="e" d="M282.809,238.645c.031.082-2.709,1.211-6.118,2.522s-6.2,2.309-6.232,2.228,2.708-1.21,6.119-2.522S282.778,238.564,282.809,238.645Z" transform="translate(-270.458 -238.64)"/></g><g transform="translate(7.668 10.844)"><path class="e" d="M286.355,244.066c.031.082-2.958,1.306-6.675,2.736s-6.757,2.523-6.788,2.442,2.957-1.306,6.675-2.736S286.324,243.985,286.355,244.066Z" transform="translate(-272.892 -244.062)"/></g><g transform="translate(8.751 13.658)"><path class="e" d="M288.651,250.037c.031.081-2.958,1.306-6.675,2.736s-6.757,2.523-6.788,2.441,2.957-1.306,6.675-2.736S288.62,249.956,288.651,250.037Z" transform="translate(-275.188 -250.033)"/></g><g transform="translate(9.833 16.473)"><path class="e" d="M290.947,256.007c.031.082-2.958,1.306-6.674,2.736s-6.757,2.523-6.788,2.442,2.957-1.306,6.675-2.736S290.916,255.926,290.947,256.007Z" transform="translate(-277.484 -256.003)"/></g><g transform="translate(10.915 19.287)"><path class="e" d="M293.243,261.978c.031.081-2.958,1.306-6.674,2.736s-6.757,2.523-6.788,2.442,2.957-1.306,6.675-2.736S293.212,261.9,293.243,261.978Z" transform="translate(-279.78 -261.974)"/></g><rect class="k" width="14.506" height="18.517" transform="translate(12.763 8.25)"/><g transform="translate(8.606 0.023)"><path class="m" d="M294.923,247.348a1.914,1.914,0,0,0-1.912-1.912H291.1v3.823h1.911A1.913,1.913,0,0,0,294.923,247.348Z" transform="translate(-283.454 -233.968)"/><path class="m" d="M297.63,227.665l-6.37-6.37a.634.634,0,0,0-.451-.188h-13.38a2.551,2.551,0,0,0-2.548,2.549v25.484a2.551,2.551,0,0,0,2.548,2.549h17.84a2.551,2.551,0,0,0,2.548-2.549V228.116A.634.634,0,0,0,297.63,227.665Zm-6.3,17.92a.637.637,0,1,1-1.037.741l-1.914-2.68-2.167,2.708a.637.637,0,1,1-1-.8l2.392-2.99-3.5-4.894h-1.583v3.185a.637.637,0,0,1-1.275,0v-8.919a.637.637,0,0,1,.637-.637h2.548a3.178,3.178,0,0,1,1.091,6.166l2.9,4.065,1.878-2.348a.638.638,0,0,1,1,.8l-2.1,2.629Zm1.393-18.106a1.276,1.276,0,0,1-1.274-1.274v-2.922l4.2,4.2Z" transform="translate(-274.881 -221.108)"/></g></g><g transform="translate(155.621 161.128)"><g transform="translate(0 0)"><path class="f" d="M300.233,310.914c-.068,0-.123-3.448-.123-7.7s.055-7.7.123-7.7.123,3.447.123,7.7S300.3,310.914,300.233,310.914Z" transform="translate(-300.11 -295.513)"/></g><g transform="translate(2.172 3.167)"><path class="f" d="M304.84,316.087c-.068,0-.123-3.1-.123-6.927s.055-6.928.123-6.928.123,3.1.123,6.928S304.907,316.087,304.84,316.087Z" transform="translate(-304.717 -302.232)"/></g></g><g transform="translate(174.224 133.988)"><g transform="translate(0 3.05)"><path class="f" d="M339.695,258.391c-.068,0-.123-3.13-.123-6.99s.055-6.991.123-6.991.123,3.13.123,6.991S339.762,258.391,339.695,258.391Z" transform="translate(-339.572 -244.409)"/></g><g transform="translate(2.034)"><path class="f" d="M344.009,248.361c-.067,0-.123-2.333-.123-5.211s.055-5.211.123-5.211.123,2.333.123,5.211S344.076,248.361,344.009,248.361Z" transform="translate(-343.886 -237.938)"/></g></g><g transform="translate(157.257 165.841)"><g transform="translate(0 0)"><g transform="translate(0.794)"><path class="i" d="M320.991,338.576l-14.683-8.767a2.139,2.139,0,0,1-.741-2.934L317.7,306.552a2.14,2.14,0,0,1,2.935-.74l9.312,5.56L332.72,323.1l-8.8,14.731A2.14,2.14,0,0,1,320.991,338.576Z" transform="translate(-305.265 -305.509)"/></g><g transform="translate(10.281 8.251)"><g transform="translate(0.064)"><path class="e" d="M333.845,335.854c.006-.01.125.069.378.155a2.011,2.011,0,0,0,1.143.022,1.954,1.954,0,0,0,.73-.387,1.976,1.976,0,0,0,.323-.346c.093-.134.18-.288.272-.444l1.252-2.123.73-1.234.388-.656a3.406,3.406,0,0,0,.347-.691,2.194,2.194,0,0,0-.556-2.253,3.543,3.543,0,0,0-.716-.5l-6.746-4.007a2.111,2.111,0,0,0-1.905.056,2.033,2.033,0,0,0-.715.639c-.178.268-.343.566-.513.844l-1.947,3.25c-.149.258-.323.516-.445.765a1.983,1.983,0,0,0,.424,2.246,3.258,3.258,0,0,0,.633.442l.653.393,1.228.74,3.7,2.242,1,.618.258.165a.416.416,0,0,1,.084.061.46.46,0,0,1-.094-.046l-.267-.149-1.019-.588-3.728-2.192-1.233-.73-.656-.388a3.408,3.408,0,0,1-.663-.458,2.137,2.137,0,0,1-.468-2.422c.136-.28.3-.518.45-.783l1.938-3.256c.173-.282.328-.566.519-.855a2.205,2.205,0,0,1,.775-.7,2.289,2.289,0,0,1,2.069-.061c2.418,1.418,4.677,2.788,6.754,4.028a3.679,3.679,0,0,1,.744.524,2.346,2.346,0,0,1,.584,2.417,3.535,3.535,0,0,1-.365.718l-.393.653-.74,1.228-1.275,2.109c-.094.155-.181.305-.282.447a2.035,2.035,0,0,1-.344.357,2,2,0,0,1-1.94.333A1.5,1.5,0,0,1,333.845,335.854Z" transform="translate(-325.527 -323.013)"/></g><g transform="translate(0 5.96)"><path class="e" d="M335.995,342.56a.661.661,0,0,1-.04-.173c-.022-.135-.049-.3-.081-.5l-.264-1.85c-.053-.393-.111-.821-.173-1.278l-.095-.713c-.017-.122-.033-.245-.05-.369a.588.588,0,0,0-.148-.3.6.6,0,0,0-.642-.163l-.776.3-1.638.636-.734.284-.093.036-.026-.1-.42-1.565-.1-.374a.951.951,0,0,0-.124-.326.65.65,0,0,0-.552-.288,1.344,1.344,0,0,0-.325.066l-.331.089-.632.169-1.13.3-1.63.419-.443.105a.551.551,0,0,1-.157.025.559.559,0,0,1,.148-.058l.434-.136,1.615-.473,1.125-.321.629-.177.329-.093a1.481,1.481,0,0,1,.363-.076.814.814,0,0,1,.7.355,1.1,1.1,0,0,1,.149.376l.1.373.426,1.563-.119-.06.734-.284,1.64-.633.783-.3a.77.77,0,0,1,.822.214.749.749,0,0,1,.184.385l.048.376q.044.368.086.714l.152,1.281.206,1.858.047.506A.658.658,0,0,1,335.995,342.56Z" transform="translate(-325.391 -335.657)"/></g><g transform="translate(6.635 3.323)"><path class="e" d="M340.076,332.218a2.287,2.287,0,0,1,.262.075,1.109,1.109,0,0,0,.7-.059,1.053,1.053,0,0,0,.62-.778,1.032,1.032,0,0,0-1.661-.991,1.053,1.053,0,0,0-.391.914,1.114,1.114,0,0,0,.28.644c.115.127.2.181.19.194s-.1-.024-.24-.145a1.1,1.1,0,0,1-.357-.679,1.171,1.171,0,0,1,.412-1.058,1.191,1.191,0,0,1,1.929,1.152,1.172,1.172,0,0,1-.735.865,1.108,1.108,0,0,1-.767.008C340.145,332.3,340.071,332.225,340.076,332.218Z" transform="translate(-339.466 -330.062)"/></g></g><g class="n" transform="translate(0 15.922)"><path d="M0,0H21.38a0,0,0,0,1,0,0V2.746A5.734,5.734,0,0,1,15.646,8.48H5.734A5.734,5.734,0,0,1,0,2.746V0A0,0,0,0,1,0,0Z" transform="translate(4.347 0) rotate(30.839)"/></g><g transform="translate(21.78 5.863)"><path class="i" d="M353.48,317.946l-3.415,5.72a1.99,1.99,0,0,0,.688,2.729l5.5,3.284Z" transform="translate(-349.783 -317.946)"/></g><g class="n" transform="translate(21.535 12.129)"><path d="M349.566,331.239a2.212,2.212,0,0,0,.406,2.743,2.018,2.018,0,0,0,.156.148c.641.557,4.866,4.22,4.931,4.112l.918-1.537-5.5-3.283A2.038,2.038,0,0,1,349.566,331.239Z" transform="translate(-349.263 -331.239)"/></g></g><g class="l" transform="translate(21.78 5.863)"><path class="k" d="M353.48,317.946l-3.415,5.72a1.99,1.99,0,0,0,.688,2.729l5.5,3.284Z" transform="translate(-349.783 -317.946)"/></g></g><g transform="translate(122.609 162.652)"><g transform="translate(0 0)"><path class="m" d="M257.882,328.965l-19.374,3.945a2.475,2.475,0,0,1-2.918-1.931l-5.46-26.816a2.474,2.474,0,0,1,1.93-2.917l12.287-2.5,11.507,7.866,3.958,19.437A2.474,2.474,0,0,1,257.882,328.965Z" transform="translate(-230.081 -298.744)"/><g transform="translate(14.267)"><path class="f" d="M260.346,298.744l1.537,7.547a2.3,2.3,0,0,0,2.713,1.8l7.257-1.476Z" transform="translate(-260.346 -298.744)"/></g></g><g transform="translate(5.153 7.553)"><path class="e" d="M249.976,314.783a58.344,58.344,0,0,1-8.963,1.825,58.552,58.552,0,0,1,8.963-1.825Z" transform="translate(-241.013 -314.766)"/></g><g transform="translate(6.023 10.648)"><path class="e" d="M257.608,321.342c.02.1-3.267.848-7.34,1.677s-7.392,1.424-7.412,1.327,3.266-.848,7.34-1.678S257.589,321.245,257.608,321.342Z" transform="translate(-242.857 -321.332)"/></g><g transform="translate(6.748 13.942)"><path class="e" d="M260.476,328.328c.019.1-3.564.908-8,1.813s-8.056,1.559-8.076,1.462,3.563-.908,8-1.813S260.456,328.231,260.476,328.328Z" transform="translate(-244.396 -328.319)"/></g><g transform="translate(7.433 17.303)"><path class="e" d="M261.928,335.459c.02.1-3.564.909-8,1.813s-8.057,1.558-8.076,1.461,3.563-.908,8-1.813S261.909,335.362,261.928,335.459Z" transform="translate(-245.848 -335.45)"/></g><g transform="translate(8.117 20.665)"><path class="e" d="M263.38,342.59c.02.1-3.564.909-8,1.813s-8.057,1.558-8.076,1.462,3.563-.908,8-1.813S263.36,342.494,263.38,342.59Z" transform="translate(-247.3 -342.581)"/></g><g transform="translate(8.802 24.027)"><path class="e" d="M264.832,349.722c.02.1-3.564.909-8,1.813s-8.057,1.559-8.076,1.462,3.564-.908,8-1.813S264.812,349.625,264.832,349.722Z" transform="translate(-248.752 -349.713)"/></g></g><g transform="translate(94.684 184.468)"><g transform="translate(19.199 0)"><rect class="i" width="90.306" height="58.679"/></g><g class="l" transform="translate(85.64 0)"><rect width="23.866" height="58.679"/></g><g transform="translate(85.64 0)"><path class="i" d="M352.513,345.024l13.65,16.064h22.555l-12.339-16.064Z" transform="translate(-352.513 -345.024)"/></g><g transform="translate(0.652 0)"><path class="i" d="M190.772,345.024l-18.547,16.064H242.4l14.816-16.064Z" transform="translate(-172.224 -345.024)"/></g><path class="f" d="M256.482,345.024s-.084.107-.259.305l-.779.867-2.982,3.275-10.72,11.687-.031.033h-.046l-24.483.038-32.769-.01-9.931-.031-2.7-.021-.7-.012c-.158,0-.239-.012-.239-.012s.081-.008.239-.013l.7-.013,2.7-.025,9.931-.047,32.769-.062h24.483l-.077.033,10.784-11.628,3.025-3.237.8-.846C256.382,345.117,256.482,345.024,256.482,345.024Z" transform="translate(-170.842 -345.024)"/><g transform="translate(85.517)"><path class="f" d="M352.376,403.7c-.068,0-.123-13.137-.123-29.338s.055-29.341.123-29.341.123,13.134.123,29.341S352.443,403.7,352.376,403.7Z" transform="translate(-352.253 -345.024)"/></g><g class="l" transform="translate(45.295 50.016)"><rect class="k" width="9.701" height="8.663"/></g><g class="l" transform="translate(19.199 0.308)"><path d="M211.57,361.491v4.485l52.663-.267,13.494-20.031-14.532,15.756Z" transform="translate(-211.57 -345.678)"/></g></g><g transform="translate(94.627 123.227)"><path class="i" d="M189.118,245.632l-17.211-4.256a1.559,1.559,0,0,1-1.139-1.888L176.5,216.3a1.559,1.559,0,0,1,1.888-1.139l12.035,2.976L195.5,226.3l-4.5,18.193A1.56,1.56,0,0,1,189.118,245.632Z" transform="translate(-170.721 -215.111)"/><g transform="translate(18.515 2.966)"><path class="i" d="M211.2,221.4l-1.14,4.609a2.126,2.126,0,0,0,1.553,2.573l4.653,1.04Z" transform="translate(-209.998 -221.403)"/></g><g transform="translate(5.087 10.991)"><path class="k" d="M193.372,252.737a2.016,2.016,0,0,1,.043-.22l.141-.616.545-2.309,1.97-8.174.071.117L184.4,238.648c-.031.017.257-.155.135-.081v.009l0,.012-.006.024-.012.049-.024.1-.048.193-.1.385q-.1.384-.19.764-.188.762-.373,1.508l-.724,2.917-1.33,5.333-.072-.119,8.466,2.145,2.392.618.636.169a1.89,1.89,0,0,1,.223.067,1.535,1.535,0,0,1-.208-.04l-.623-.142-2.383-.563-8.551-2.063-.095-.023.024-.1c.4-1.649.844-3.442,1.309-5.339l.719-2.918.372-1.508q.094-.38.189-.765l.095-.385.048-.193.024-.1.012-.048.006-.025,0-.012,0-.006v0c-.121.073.166-.1.138-.083l11.736,2.918.095.024-.024.094c-.858,3.388-1.574,6.213-2.081,8.209l-.589,2.276-.158.592A1.27,1.27,0,0,1,193.372,252.737Z" transform="translate(-181.512 -238.428)"/><g transform="translate(5.84 1.668)"><path class="k" d="M193.905,253.262c-.06-.015.516-2.556,1.287-5.675s1.445-5.636,1.506-5.62-.516,2.555-1.287,5.675S193.965,253.277,193.905,253.262Z" transform="translate(-193.901 -241.967)"/></g><g transform="translate(0.714 8.611)"><path class="k" d="M194.812,259.613c-.015.06-2.666-.543-5.92-1.348s-5.882-1.506-5.867-1.566,2.665.543,5.92,1.348S194.827,259.552,194.812,259.613Z" transform="translate(-183.026 -256.694)"/></g><g transform="translate(1.56 5.764)"><path class="k" d="M196.607,253.575c-.015.06-2.666-.544-5.92-1.348s-5.881-1.506-5.866-1.566,2.665.543,5.92,1.348S196.622,253.514,196.607,253.575Z" transform="translate(-184.821 -250.656)"/></g><g transform="translate(2.272 2.885)"><path class="k" d="M198.028,247.443c-.015.06-2.646-.538-5.876-1.337s-5.837-1.495-5.822-1.555,2.645.538,5.876,1.337S198.043,247.383,198.028,247.443Z" transform="translate(-186.331 -244.547)"/></g></g><g class="a" transform="translate(18.515 2.966)"><path class="k" d="M211.2,221.4l-1.14,4.609a2.126,2.126,0,0,0,1.553,2.573l4.653,1.04Z" transform="translate(-209.998 -221.403)"/></g></g></g></svg>