<svg className="mr-2" xmlns="http://www.w3.org/2000/svg" width="36.71" height="23.222" viewBox="0 0 36.71 23.222">
    <g transform="translate(0 0)">
        <path d="M2.57,103.906l.951-3.8a.575.575,0,0,1-.455-.562v-.613A2.417,2.417,0,0,1,5.48,96.515H9.81V95.25A1.189,1.189,0,0,1,11,94.062H33.07a1.189,1.189,0,0,1,1.188,1.188v10.423a.575.575,0,1,1-1.15,0V95.25a.038.038,0,0,0-.038-.038H11a.038.038,0,0,0-.038.038v10.423a.575.575,0,1,1-1.15,0v-.652H3.026a1.881,1.881,0,0,0-1.786,1.3H3.027a.575.575,0,0,1,.575.575v1.226a1.8,1.8,0,0,1-1.8,1.8H1.15v2.529h1.5a3.639,3.639,0,0,1,6.881,0H9.81v-4.33a.575.575,0,0,1,1.15,0v4.33H22.885a3.639,3.639,0,0,1,6.881,0h3.3a.038.038,0,0,0,.038-.038v-1.265H30.617a.575.575,0,0,1,0-1.15h5.518a.575.575,0,0,1,0,1.15H34.257v1.265a1.189,1.189,0,0,1-1.188,1.188h-3.1c0,.013,0,.025,0,.038a3.64,3.64,0,1,1-7.281,0c0-.013,0-.026,0-.038H9.732c0,.013,0,.025,0,.038a3.64,3.64,0,1,1-7.281,0c0-.013,0-.026,0-.038H.575A.575.575,0,0,1,0,113.03V106.9A3.032,3.032,0,0,1,2.57,103.906Zm7.24-6.242H5.48a1.266,1.266,0,0,0-1.265,1.265v.038H9.81Zm0,6.208v-3.755H4.7l-.939,3.755Zm16.516,12.262a2.491,2.491,0,1,0-2.491-2.491A2.494,2.494,0,0,0,26.325,116.134Zm-20.233,0A2.491,2.491,0,1,0,3.6,113.643,2.494,2.494,0,0,0,6.093,116.134Zm-4.943-7.357H1.8a.652.652,0,0,0,.651-.651v-.651H1.15v1.3Z" transform="translate(0 -94.062)"/>
    </g>
    <g transform="translate(25.137 18.394)">
        <g transform="translate(0)">
            <path d="M129.455,350.6a1.188,1.188,0,1,1-1.188,1.188A1.189,1.189,0,0,1,129.455,350.6Z" transform="translate(-128.267 -350.597)"/>
        </g>
    </g>
    <g transform="translate(4.905 18.394)">
        <path d="M411.643,350.6a1.188,1.188,0,1,1-1.188,1.188A1.189,1.189,0,0,1,411.643,350.6Z" transform="translate(-410.455 -350.597)"/>
    </g>
    <g transform="translate(12.262 15.941)">
        <path d="M205.8,316.393h8.584a.575.575,0,0,1,0,1.15H205.8a.575.575,0,0,1,0-1.15Z" transform="translate(-205.227 -316.393)"/>
    </g>
    <g transform="translate(26.977 13.489)">
        <path d="M17.677,282.188h7.357a.575.575,0,1,1,0,1.15H17.677a.575.575,0,1,1,0-1.15Z" transform="translate(-17.102 -282.188)"/>
    </g>
    <g transform="translate(16.554 5.518)">
        <g transform="translate(0)">
            <path d="M154.934,171.191a.575.575,0,0,0-.813,0L149.01,176.3l-2.659-2.659a.575.575,0,1,0-.813.813l3.065,3.066a.575.575,0,0,0,.813,0L154.934,172A.575.575,0,0,0,154.934,171.191Z" transform="translate(-145.37 -171.023)"/>
        </g>
    </g>
</svg>