<svg xmlns="http://www.w3.org/2000/svg" width="18" height="18" viewBox="0 0 18 18"><defs><style>.a{fill:#32b34b;}</style></defs><g transform="translate(-10.359 0.002)"><g transform="translate(10.359 -0.002)"><g transform="translate(0 0)"><path class="a" d="M27.491,9.231a.508.508,0,0,1,0-.466l.7-1.373a1.533,1.533,0,0,0-.7-2.075L26.081,4.6a.53.53,0,0,1-.286-.377L25.52,2.717a1.622,1.622,0,0,0-1.84-1.282L22.1,1.649a.564.564,0,0,1-.462-.144L20.5.442a1.678,1.678,0,0,0-2.274,0L17.077,1.5a.565.565,0,0,1-.462.144l-1.577-.214A1.621,1.621,0,0,0,13.2,2.717l-.275,1.506a.53.53,0,0,1-.286.377l-1.407.716a1.533,1.533,0,0,0-.7,2.075l.7,1.373a.508.508,0,0,1,0,.466l-.7,1.373a1.533,1.533,0,0,0,.7,2.075l1.407.716a.53.53,0,0,1,.286.377l.275,1.506a1.61,1.61,0,0,0,1.605,1.3,1.742,1.742,0,0,0,.234-.016l1.577-.214a.564.564,0,0,1,.462.144l1.145,1.063a1.678,1.678,0,0,0,2.274,0l1.145-1.063a.565.565,0,0,1,.462-.144l1.577.214a1.621,1.621,0,0,0,1.84-1.282l.275-1.506a.53.53,0,0,1,.286-.377l1.407-.716a1.533,1.533,0,0,0,.7-2.075Zm-10.3-4.9a1.947,1.947,0,0,1,1.984,1.9,1.985,1.985,0,0,1-3.967,0A1.947,1.947,0,0,1,17.2,4.326Zm-1.024,8.464a.557.557,0,0,1-.765,0,.5.5,0,0,1,0-.734l7.14-6.851a.557.557,0,0,1,.765,0,.5.5,0,0,1,0,.734Zm5.352.879a1.9,1.9,0,1,1,1.984-1.9A1.947,1.947,0,0,1,21.523,13.67Z" transform="translate(-10.359 0.002)"/></g></g><g transform="translate(20.453 10.675)"><g transform="translate(0)"><path class="a" d="M291.486,310.141a1.034,1.034,0,1,0,1.034,1.034A1.035,1.035,0,0,0,291.486,310.141Z" transform="translate(-290.452 -310.141)"/></g></g><g transform="translate(16.196 5.253)"><path class="a" d="M173.367,152.646a1.034,1.034,0,1,0,1.034,1.034A1.035,1.035,0,0,0,173.367,152.646Z" transform="translate(-172.333 -152.646)"/></g></g></svg>