<svg xmlns="http://www.w3.org/2000/svg" xmlns:xlink="http://www.w3.org/1999/xlink" width="48" height="48" viewBox="0 0 48 48">
  <defs>
    <clipPath id="clip-path">
      <rect id="Rectangle_9231" data-name="Rectangle 9231" width="48" height="48" transform="translate(2013 5982)" fill="#fff"/>
    </clipPath>
  </defs>
  <g id="ecg-icn" transform="translate(-2013 -5982)" clip-path="url(#clip-path)">
    <g id="ecg-icn-2" data-name="ecg-icn" transform="translate(2002.192 5916.262)">
      <path id="Path_41988" data-name="Path 41988" d="M56.807,102.065V73.888a2.15,2.15,0,0,0-2.15-2.15h-39.7a2.15,2.15,0,0,0-2.15,2.15v28.177a2.15,2.15,0,0,0,2.15,2.15h1.075v2.4a.717.717,0,0,0,.717.717H20.49a.717.717,0,0,0,.717-.717v-2.421H48.438v2.4a.717.717,0,0,0,.717.717h3.734a.717.717,0,0,0,.717-.717v-2.4H54.68a2.15,2.15,0,0,0,2.127-2.129Zm-37.034,3.82H17.444v-1.691h2.329Zm32.434,0H49.871v-1.691h2.322Zm3.2-3.82a.717.717,0,0,1-.717.717H14.958a.717.717,0,0,1-.717-.717V73.888a.717.717,0,0,1,.717-.717H54.687a.717.717,0,0,1,.717.717Z" fill="#6c757d"/>
      <path id="Path_41989" data-name="Path 41989" d="M94.611,115.364H58.451a.717.717,0,0,0-.717.717v20.4a.717.717,0,0,0,.717.717h36.16a.717.717,0,0,0,.717-.717V116.067a.717.717,0,0,0-.717-.7Zm-.717,20.423H59.153V116.776H93.909Z" transform="translate(-41.709 -40.502)" fill="#6c757d"/>
      <path id="Path_41990" data-name="Path 41990" d="M527.187,436.572a2.057,2.057,0,1,0,2.051,2.049A2.053,2.053,0,0,0,527.187,436.572Zm0,2.687a.638.638,0,1,1,.452-.188.638.638,0,0,1-.452.188Z" transform="translate(-475.625 -338.705)" fill="#6c757d"/>
      <path id="Path_41991" data-name="Path 41991" d="M442.518,436.572a2.056,2.056,0,1,0,2.056,2.049,2.055,2.055,0,0,0-2.056-2.049Zm0,2.687a.638.638,0,1,1,.451-.188A.635.635,0,0,1,442.518,439.26Z" transform="translate(-397.025 -338.706)" fill="#6c757d"/>
      <path id="Path_41992" data-name="Path 41992" d="M129.766,455.274H110.783a.717.717,0,0,0,0,1.433h18.983a.717.717,0,0,0,0-1.433Z" transform="translate(-90.293 -356.068)" fill="#6c757d"/>
      <path id="Path_41993" data-name="Path 41993" d="M59.485,455.274h-1.04a.717.717,0,0,0,0,1.433h1.04a.717.717,0,0,0,0-1.433Z" transform="translate(-41.703 -356.068)" fill="#6c757d"/>
      <path id="Path_41994" data-name="Path 41994" d="M143,218.344h4.142a.716.716,0,0,0,.652-.437l.673-1.633,1.691,4.672h0a.685.685,0,0,0,1.282.043l1.67-3.769.287.68a.716.716,0,0,0,.652.43h8.055a.717.717,0,1,0,0-1.433h-7.575l-.717-1.748a.716.716,0,0,0-.645-.43.672.672,0,0,0-.652.416l-1.619,3.654-1.741-4.7a.7.7,0,0,0-1.318-.021l-1.19,2.866H143a.717.717,0,0,0,0,1.433Z" transform="translate(-120.206 -131.722)" fill="#08ce73"/>
      <path id="Path_41995" data-name="Path 41995" d="M442.093,260.884a.717.717,0,0,0,0-1.433h-.308a.717.717,0,1,0,0,1.433Z" transform="translate(-397.589 -174.269)" fill="#6c757d"/>
      <path id="Path_41996" data-name="Path 41996" d="M106.775,260.884h.287a.717.717,0,1,0,0-1.433h-.287a.717.717,0,1,0,0,1.433Z" transform="translate(-86.573 -174.269)" fill="#6c757d"/>
      <path id="Path_41997" data-name="Path 41997" d="M369.692,197.931a.716.716,0,0,0,.752-.659,2.088,2.088,0,0,1,.617-1.348,2.149,2.149,0,0,1,2.952,0l.43.43h0a.711.711,0,0,0,1,0l.423-.43h0a2.152,2.152,0,0,1,2.96,0,2.093,2.093,0,0,1,0,2.96l-3.891,3.891-1.828-1.828h0a.716.716,0,1,0-1,1l2.329,2.329a.708.708,0,0,0,1,0l4.428-4.385a3.511,3.511,0,0,0-2.48-5.99,3.46,3.46,0,0,0-2.407.96,3.511,3.511,0,0,0-4.894.064,3.578,3.578,0,0,0-1.053,2.286.715.715,0,0,0,.659.717Z" transform="translate(-330.713 -113.416)" fill="#e71c37"/>
    </g>
  </g>
</svg>
