<svg xmlns="http://www.w3.org/2000/svg" width="250" height="215.674" viewBox="0 0 284.236 215.674">
  <g id="email" transform="translate(-95.773 -46.937)">
    <g id="freepik--background-complete--inject-38" transform="translate(114.213 46.937)">
      <rect id="Rectangle_9928" data-name="Rectangle 9928" width="57.502" height="85.311" transform="translate(0.001 153.9) rotate(-70.85)" fill="#ebebeb"/>
      <path id="Path_46952" data-name="Path 46952" d="M254.33,265.152a5.86,5.86,0,0,1-1,.466L250.4,266.8l-10.824,4.234-35.9,13.74-.3.11-.167-.267-.413-.649-20.685-33.006-6.2-10.05-1.649-2.753a6.184,6.184,0,0,1-.523-.989,5.7,5.7,0,0,1,.654.905l1.774,2.675,6.4,9.94,20.884,32.886c.136.225.277.445.408.649l-.466-.157,35.979-13.52,10.913-4.025,2.978-1.047a5.631,5.631,0,0,1,1.052-.325Z" transform="translate(-154.88 -137.599)" fill="#e0e0e0"/>
      <path id="Path_46953" data-name="Path 46953" d="M137.7,319.878c-.11-.183,8.537-5.522,19.309-11.929s19.6-11.447,19.707-11.264-8.537,5.522-19.314,11.929S137.809,320.035,137.7,319.878Z" transform="translate(-137.698 -165.961)" fill="#e0e0e0"/>
      <path id="Path_46954" data-name="Path 46954" d="M263.861,313.11c.2-.068,3.622,9.421,7.642,21.151s7.113,21.334,6.909,21.4-3.622-9.421-7.642-21.151S263.657,313.178,263.861,313.11Z" transform="translate(-197.821 -173.791)" fill="#e0e0e0"/>
      <rect id="Rectangle_9929" data-name="Rectangle 9929" width="80.883" height="54.519" transform="translate(176.94 98.959) rotate(-9.62)" fill="#e0e0e0"/>
      <path id="Path_46955" data-name="Path 46955" d="M555.511,210.22a5.593,5.593,0,0,1-.618.843L553,213.381l-7.066,8.458c-6.066,7.155-14.368,16.948-23.554,27.793l-.194.23-.262-.147-.639-.351-32.253-17.995-9.73-5.527-2.617-1.534a5.167,5.167,0,0,1-.89-.581,6.2,6.2,0,0,1,.963.45l2.7,1.418,9.845,5.318,32.357,17.8.639.351-.455.084,23.732-27.652,7.239-8.307c.832-.926,1.492-1.67,1.994-2.235A6.378,6.378,0,0,1,555.511,210.22Z" transform="translate(-298.833 -124.755)" fill="#ebebeb"/>
      <path id="Path_46956" data-name="Path 46956" d="M493.136,304.968c-.173-.1,4.575-8.49,10.6-18.728s11.065-18.456,11.238-18.351-4.575,8.485-10.6,18.728S493.309,305.067,493.136,304.968Z" transform="translate(-307.093 -152.239)" fill="#ebebeb"/>
      <path id="Path_46957" data-name="Path 46957" d="M585.3,258c.136-.147,7.328,6.161,16,14.1s15.645,14.488,15.5,14.656-7.3-6.171-16-14.1S585.141,258.16,585.3,258Z" transform="translate(-351.016 -147.524)" fill="#ebebeb"/>
      <rect id="Rectangle_9930" data-name="Rectangle 9930" width="39.251" height="58.235" transform="translate(162.606 36.527) rotate(-68.53)" fill="#ebebeb"/>
      <path id="Path_46958" data-name="Path 46958" d="M529.993,69.188a3.239,3.239,0,0,1-.7.288l-2.026.733-7.5,2.591L494.9,81.174l-.2.068-.1-.188-.262-.45L481.148,57.516C479.5,54.59,478.16,52.2,477.2,50.492l-1.047-1.921a4.1,4.1,0,0,1-.335-.691,4.156,4.156,0,0,1,.429.633c.283.476.66,1.1,1.136,1.874l4.093,6.946c3.434,5.93,8.139,14.043,13.331,23.03l.262.455-.309-.12,24.909-8.228,7.537-2.455,2.057-.612A4.767,4.767,0,0,1,529.993,69.188Z" transform="translate(-298.842 -47.386)" fill="#e0e0e0"/>
      <path id="Path_46959" data-name="Path 46959" d="M448.339,104.241c-.073-.126,5.972-3.533,13.5-7.605s13.682-7.265,13.75-7.139-5.967,3.533-13.5,7.59S448.407,104.372,448.339,104.241Z" transform="translate(-285.745 -67.218)" fill="#e0e0e0"/>
      <path id="Path_46960" data-name="Path 46960" d="M535.153,102.16c.141-.042,2.214,6.517,4.627,14.656s4.266,14.75,4.125,14.792-2.214-6.511-4.627-14.656S535.012,102.2,535.153,102.16Z" transform="translate(-327.116 -73.255)" fill="#e0e0e0"/>
    </g>
    <g id="freepik--Character--inject-38" transform="translate(95.773 80.288)">
      <path id="Path_46962" data-name="Path 46962" d="M109.917,169.413l7.485-2.654-3.219-4.3a16.671,16.671,0,0,1-.23-2.874,4.428,4.428,0,0,1,.251-1.455,6.653,6.653,0,0,1,.78-1.664.571.571,0,0,0-.523-.953c-.523.131-1.507,1.324-1.952,3.093s-1.659-.837-2.094-1.774-2.015-3.784-2.418-3.873c-.586-.131-.832.476-.351,1.4s1.722,3.816,1.209,4.036-2.769-4.606-2.769-4.606-.314-1.11-.911-.874c-1.078.419,1.712,5.365,1.989,5.826.194.324-.351.581-.523.225s-2.151-4.863-3.25-4.444c-.843.319,2.256,4.088,2.146,5.234s-2.057-3.093-2.853-2.758c-.293.126-.523.262.974,2.544a37.541,37.541,0,0,0,2.361,3.083h0l3.91,6.773" transform="translate(-102.468 -130.783)" fill="#ffbe9d"/>
      <path id="Path_46963" data-name="Path 46963" d="M184.088,185.474a139.041,139.041,0,0,0-6.244-12.818,8.988,8.988,0,0,0-7.281-4.711,11.614,11.614,0,0,0-2.156-.445l-13.844-.11a13.122,13.122,0,0,0-8.275,3.036c-.644.523-5.433,6.082-11.793,14l-11.123-12.039-6.632,3.926s7.2,24.867,16.226,23.161a22.4,22.4,0,0,0,9.558-4.726l7.04-5.674.162.942c.141,1.146.5,3,.769,4.119.848,3.554,1.324,8.233-.523,11.332,0,0-2.507,1.921-.523,4.03H175.54s3.7-2.507.319-5.292l-2.094-5.292,1.366-6.459.523-2.586,2.3,3.936s4.543,5.716,9.27,5.014c5.679-.848,8.971-11.2,3.847-24.878l-6.176,1.879Z" transform="translate(-109.27 -137.695)" fill="#ff725e"/>
      <g id="Group_28427" data-name="Group 28427" transform="translate(7.449 34.704)" opacity="0.4">
        <path id="Path_46964" data-name="Path 46964" d="M116.7,180.886l.654,2.073,7.37-4.5-1.392-1.5Z" transform="translate(-116.7 -176.96)"/>
      </g>
      <g id="Group_28428" data-name="Group 28428" transform="translate(40.419 52.12)" opacity="0.2">
        <path id="Path_46965" data-name="Path 46965" d="M179.967,225.882a8.228,8.228,0,0,0,5.5-3.381,8.579,8.579,0,0,0,1.57-6.407,2.847,2.847,0,0,0-1.089-2.041c-.822-.523-1.947-.251-2.8-.707a5.814,5.814,0,0,1-1.57-1.764c-.5-.628-1.162-1.6-1.884-1.288,0,0,.874,4.606,1.256,6.658a15.481,15.481,0,0,1-.215,7.15A8.9,8.9,0,0,1,179.967,225.882Z" transform="translate(-179.69 -210.234)"/>
      </g>
      <path id="Path_46966" data-name="Path 46966" d="M148.62,204.125a6.6,6.6,0,0,1,.387-2.162,12.918,12.918,0,0,1,.66-2.094,6.281,6.281,0,0,1-.387,2.162,12.917,12.917,0,0,1-.66,2.094Z" transform="translate(-124.463 -153.174)" fill="#263238"/>
      <path id="Path_46967" data-name="Path 46967" d="M151.208,203.024a8.762,8.762,0,0,1-.628-3.1,4.491,4.491,0,0,1,.45,1.523A4.71,4.71,0,0,1,151.208,203.024Z" transform="translate(-125.398 -153.198)" fill="#263238"/>
      <path id="Path_46968" data-name="Path 46968" d="M238.214,147.64l-9.474,15.346,7.453,2.078,8.27-12.756Z" transform="translate(-162.647 -128.282)" fill="#455a64"/>
      <path id="Path_46969" data-name="Path 46969" d="M242.307,164.374l.319,2.245,1.324,1.7.131,1.392,4.753-1.445-1.921-6.8a14.132,14.132,0,0,0,.188-2.774l-1.309,1.733-.361-2.826-2.675-2.151a.654.654,0,0,0-.916.141h0a.654.654,0,0,0,.068.843l2.151,1.895.141,2.34-1.57-1.445a1.131,1.131,0,0,0-.55-.283l-2.162-.434a.565.565,0,0,0-.67.5h0a.565.565,0,0,0,.393.6l1.968.6,1.989,2.01-1.947-.743-2.643.372a.523.523,0,0,0-.44.523h0a.523.523,0,0,0,.523.523l1.68-.094.989.309-2.272.6a.45.45,0,0,0-.34.466h0a.455.455,0,0,0,.492.434Z" transform="translate(-167.332 -131.941)" fill="#ffbe9d"/>
      <g id="Group_28429" data-name="Group 28429" transform="translate(75.394 36.243)" opacity="0.4">
        <path id="Path_46970" data-name="Path 46970" d="M246.714,181.779l-.2,2.512,7.207-1.984-.827-2.408Z" transform="translate(-246.51 -179.9)"/>
      </g>
      <path id="Path_46971" data-name="Path 46971" d="M228.2,162.512s-.639-.864-.586-1.01,9.013-14.9,9.013-14.9l1.047.565Z" transform="translate(-162.111 -127.787)" fill="#263238"/>
      <path id="Path_46972" data-name="Path 46972" d="M251.3,154.912a.33.33,0,1,1,.162.555.345.345,0,0,1-.183-.523" transform="translate(-173.359 -131.702)" fill="#263238"/>
      <path id="Path_46973" data-name="Path 46973" d="M203.05,188.75a1.246,1.246,0,0,1-.272.372,2.45,2.45,0,0,1-1.167.607,5.234,5.234,0,0,1-2.094,0,7.187,7.187,0,0,0-2.685-.12,7.328,7.328,0,0,0-2.832,1.57,10.712,10.712,0,0,1-3.256,2.026,5.3,5.3,0,0,1-2.094.162,9.186,9.186,0,0,1-2.094-.581c-1.371-.523-2.685-1.3-4.13-1.821a7.354,7.354,0,0,0-4.371-.3c-1.418.293-2.748.785-4.072,1.047a10.285,10.285,0,0,1-6.977-.963,10.468,10.468,0,0,1-3.664-3.14,7.648,7.648,0,0,1-.874-1.534c.037,0,.288.565.963,1.471a10.725,10.725,0,0,0,3.664,3.015,10.165,10.165,0,0,0,6.851.89c1.3-.283,2.617-.78,4.072-1.083a7.584,7.584,0,0,1,4.522.309c1.476.523,2.8,1.3,4.14,1.832a9.07,9.07,0,0,0,2.031.571,5.156,5.156,0,0,0,1.989-.147,10.54,10.54,0,0,0,3.182-1.963,7.469,7.469,0,0,1,2.936-1.57,7.2,7.2,0,0,1,2.753.157,5.182,5.182,0,0,0,2.031.052,2.481,2.481,0,0,0,1.152-.523,3.924,3.924,0,0,0,.293-.33Z" transform="translate(-131.064 -146.597)" fill="#fafafa"/>
      <path id="Path_46974" data-name="Path 46974" d="M245.467,206.008a9.715,9.715,0,0,1-.215-2.319,9.547,9.547,0,0,1,.068-2.329,9.714,9.714,0,0,1,.215,2.319A9.574,9.574,0,0,1,245.467,206.008Z" transform="translate(-170.497 -153.884)" fill="#263238"/>
      <path id="Path_46975" data-name="Path 46975" d="M214.51,393.8c.225.911,5.564,30.845,5.564,30.845l8.181-.612-1.5-30.567Z" transform="translate(-155.866 -245.441)" fill="#ffbe9d"/>
      <path id="Path_46976" data-name="Path 46976" d="M233.281,451.994l-.026-.864-8.715.183.052,2.837h.523c2.4.079,12.2.241,13.781-.236C240.687,453.4,233.281,451.994,233.281,451.994Z" transform="translate(-160.646 -272.921)" fill="#ff725e"/>
      <g id="Group_28430" data-name="Group 28430" transform="translate(63.905 178.847)" opacity="0.3">
        <path id="Path_46977" data-name="Path 46977" d="M227.748,454.605a2.805,2.805,0,0,0-1.146-1.7,3.1,3.1,0,0,0-2.041-.55l.047,2.256Z" transform="translate(-224.56 -452.349)"/>
      </g>
      <g id="Group_28431" data-name="Group 28431" transform="translate(63.947 179.878)" opacity="0.3">
        <path id="Path_46978" data-name="Path 46978" d="M236.951,454.32s2.617.644,2.287,1.047-10.222.586-14.6.309v-.183l11.557-.115S236.448,454.346,236.951,454.32Z" transform="translate(-224.64 -454.32)"/>
      </g>
      <path id="Path_46979" data-name="Path 46979" d="M224.4,456.316h.576l1.57.037c1.335,0,3.172.026,5.208,0s3.873-.1,5.208-.173l1.57-.089.424-.031h-.429l-1.57.058c-1.329.047-3.172.11-5.2.141s-3.873.042-5.208.042H224.4Z" transform="translate(-160.579 -275.271)" fill="#263238"/>
      <path id="Path_46980" data-name="Path 46980" d="M246.731,455.407a2.948,2.948,0,0,1,.277-.707,3.141,3.141,0,0,1,.523-.57,1.11,1.11,0,0,0-.618.523,1.047,1.047,0,0,0-.183.754Z" transform="translate(-171.217 -274.351)" fill="#263238"/>
      <path id="Path_46981" data-name="Path 46981" d="M241.8,453.729a1.8,1.8,0,0,0,.267-.314c.126-.188.2-.351.173-.366s-.141.126-.262.314S241.769,453.714,241.8,453.729Z" transform="translate(-168.867 -273.835)" fill="#263238"/>
      <path id="Path_46982" data-name="Path 46982" d="M240.438,453.288a1.349,1.349,0,0,0,.3-.194c.147-.126.246-.246.23-.267s-.157.068-.3.194S240.417,453.272,240.438,453.288Z" transform="translate(-168.221 -273.729)" fill="#263238"/>
      <path id="Path_46983" data-name="Path 46983" d="M239.56,452.217a2.086,2.086,0,0,0,.906-.005,1.142,1.142,0,0,0-.455-.047A1.182,1.182,0,0,0,239.56,452.217Z" transform="translate(-167.804 -273.412)" fill="#263238"/>
      <path id="Path_46984" data-name="Path 46984" d="M239.25,451.25a.885.885,0,0,0,.523.131.905.905,0,0,0,.523-.078,3.436,3.436,0,0,0-.523,0,2.961,2.961,0,0,0-.523-.052Z" transform="translate(-167.656 -272.978)" fill="#263238"/>
      <path id="Path_46985" data-name="Path 46985" d="M242.33,452.331a1.8,1.8,0,0,0,.56,0,2.986,2.986,0,0,0,.586-.136,1.4,1.4,0,0,0,.34-.136.262.262,0,0,0,.131-.162.183.183,0,0,0-.089-.2,1.047,1.047,0,0,0-1.256.3.926.926,0,0,0-.173.351v.141a1.282,1.282,0,0,1,.241-.445,1,1,0,0,1,.471-.3.911.911,0,0,1,.665.031c.089.058.058.157-.037.209a1.653,1.653,0,0,1-.314.131,3.9,3.9,0,0,1-.571.152A3.135,3.135,0,0,1,242.33,452.331Z" transform="translate(-169.124 -273.144)" fill="#263238"/>
      <path id="Path_46986" data-name="Path 46986" d="M241.93,452.094a.523.523,0,0,0,.052-.361.822.822,0,0,0-.157-.377.565.565,0,0,0-.471-.256.2.2,0,0,0-.167.241.523.523,0,0,0,.1.23,1.629,1.629,0,0,0,.272.309.791.791,0,0,0,.325.2,2.843,2.843,0,0,1-.272-.251,1.76,1.76,0,0,1-.241-.309c-.079-.1-.136-.3,0-.33a.523.523,0,0,1,.372.215.79.79,0,0,1,.162.335,1.737,1.737,0,0,1,.026.351Z" transform="translate(-168.577 -272.907)" fill="#263238"/>
      <path id="Path_46987" data-name="Path 46987" d="M224.64,452.248a4.18,4.18,0,0,1,.644,0,2.962,2.962,0,0,1,1.408.523,2.617,2.617,0,0,1,.9,1.131c.141.345.157.576.178.576a.388.388,0,0,0,0-.162,2.2,2.2,0,0,0-.1-.434,2.523,2.523,0,0,0-.911-1.188,2.837,2.837,0,0,0-1.466-.523,2.454,2.454,0,0,0-.476,0A.931.931,0,0,0,224.64,452.248Z" transform="translate(-160.693 -273.411)" fill="#263238"/>
      <path id="Path_46988" data-name="Path 46988" d="M232.7,455.088a5.055,5.055,0,0,0,1.272.094,5.338,5.338,0,0,0,1.267-.115c0-.031-.571,0-1.272,0A11.808,11.808,0,0,0,232.7,455.088Z" transform="translate(-164.535 -274.791)" fill="#263238"/>
      <path id="Path_46989" data-name="Path 46989" d="M229.45,455.177s.047.11.11.23.094.225.126.225.042-.131-.031-.267S229.471,455.156,229.45,455.177Z" transform="translate(-162.986 -274.848)" fill="#263238"/>
      <path id="Path_46990" data-name="Path 46990" d="M228.2,453.777a.53.53,0,0,0,.126.188c.089.084.183.136.2.115s-.037-.1-.131-.188S228.216,453.762,228.2,453.777Z" transform="translate(-162.39 -274.182)" fill="#263238"/>
      <path id="Path_46991" data-name="Path 46991" d="M226.429,453.124c0,.026.12.026.251.063s.22.1.241.084-.052-.131-.209-.178S226.419,453.1,226.429,453.124Z" transform="translate(-161.546 -273.848)" fill="#263238"/>
      <path id="Path_46992" data-name="Path 46992" d="M225.17,452.87a.257.257,0,0,0,.115.089c.073.026.141.026.152,0s-.042-.068-.115-.094S225.18,452.843,225.17,452.87Z" transform="translate(-160.946 -273.74)" fill="#263238"/>
      <path id="Path_46993" data-name="Path 46993" d="M171.619,389.34c-.042.937-3.439,30.086-3.439,30.086l8,1.774,7.385-29.7Z" transform="translate(-133.785 -243.473)" fill="#ffbe9d"/>
      <path id="Path_46994" data-name="Path 46994" d="M176.01,449.2l.183-.837-8.511-1.9-.623,2.769.523.147c2.308.649,11.787,3.14,13.447,3.051C182.872,452.327,176.01,449.2,176.01,449.2Z" transform="translate(-133.252 -270.696)" fill="#ff725e"/>
      <g id="Group_28432" data-name="Group 28432" transform="translate(33.866 176.246)" opacity="0.3">
        <path id="Path_46995" data-name="Path 46995" d="M170.221,450.322a2.79,2.79,0,0,0-.707-1.921,3.093,3.093,0,0,0-1.853-1.021l-.492,2.2Z" transform="translate(-167.17 -447.38)"/>
      </g>
      <g id="Group_28433" data-name="Group 28433" transform="translate(33.808 178.371)" opacity="0.3">
        <path id="Path_46996" data-name="Path 46996" d="M179.339,453.22s2.371,1.246,1.973,1.57-10.065-1.869-14.253-3.177l.052-.173,11.253,2.617S178.842,453.125,179.339,453.22Z" transform="translate(-167.06 -451.44)"/>
      </g>
      <path id="Path_46997" data-name="Path 46997" d="M166.91,451.35l.141.047.413.12,1.523.408c1.293.335,3.078.78,5.061,1.23s3.79.822,5.1,1.073l1.57.288.424.068h.152l-.147-.037-.419-.089-1.57-.319c-1.309-.272-3.109-.649-5.093-1.1s-3.769-.885-5.067-1.2l-1.518-.356-.419-.1A.523.523,0,0,0,166.91,451.35Z" transform="translate(-133.18 -273.026)" fill="#263238"/>
      <path id="Path_46998" data-name="Path 46998" d="M188.6,455.732a3.141,3.141,0,0,1,.44-.623,3.459,3.459,0,0,1,.649-.429,1.167,1.167,0,0,0-.722.361A1.047,1.047,0,0,0,188.6,455.732Z" transform="translate(-143.517 -274.613)" fill="#263238"/>
      <path id="Path_46999" data-name="Path 46999" d="M184.328,452.853a1.587,1.587,0,0,0,.335-.246c.162-.157.277-.293.256-.309s-.167.089-.33.241S184.307,452.832,184.328,452.853Z" transform="translate(-141.48 -273.477)" fill="#263238"/>
      <path id="Path_47000" data-name="Path 47000" d="M183.159,452.12a.733.733,0,0,0,.34-.12c.173-.089.3-.183.288-.2a.7.7,0,0,0-.34.115C183.275,452,183.149,452.094,183.159,452.12Z" transform="translate(-140.924 -273.236)" fill="#263238"/>
      <path id="Path_47001" data-name="Path 47001" d="M180.665,450.807a2.141,2.141,0,1,0,.455.058,1.12,1.12,0,0,0-.455-.058Z" transform="translate(-138.697 -272.765)" fill="#263238"/>
      <path id="Path_47002" data-name="Path 47002" d="M182.59,449.74a.9.9,0,0,0,.461.246.958.958,0,0,0,.523.052,2.675,2.675,0,0,0-.492-.147A3.57,3.57,0,0,0,182.59,449.74Z" transform="translate(-140.653 -272.259)" fill="#263238"/>
      <path id="Path_47003" data-name="Path 47003" d="M185.17,451.7a1.727,1.727,0,0,0,.523.115,3.221,3.221,0,0,0,.607,0,1.773,1.773,0,0,0,.356-.052.293.293,0,0,0,.173-.126.209.209,0,0,0-.037-.225,1.047,1.047,0,0,0-1.293,0,.885.885,0,0,0-.256.3c-.042.079-.047.131-.042.131a1.329,1.329,0,0,1,.34-.372,1,1,0,0,1,.523-.178.906.906,0,0,1,.639.188c.073.078,0,.162-.089.194a1.734,1.734,0,0,1-.33.058,4.516,4.516,0,0,1-.591,0C185.379,451.731,185.175,451.689,185.17,451.7Z" transform="translate(-141.883 -272.951)" fill="#263238"/>
      <path id="Path_47004" data-name="Path 47004" d="M184.938,451.269a.53.53,0,0,0,.141-.335.837.837,0,0,0-.068-.4.571.571,0,0,0-.4-.361.2.2,0,0,0-.215.2.523.523,0,0,0,.042.246,1.568,1.568,0,0,0,.188.361.848.848,0,0,0,.267.277,3.375,3.375,0,0,1-.2-.309,2.063,2.063,0,0,1-.162-.356c-.052-.126-.058-.33.084-.319s.251.173.309.293a.853.853,0,0,1,.084.366,1.572,1.572,0,0,1-.068.34Z" transform="translate(-141.514 -272.464)" fill="#263238"/>
      <path id="Path_47005" data-name="Path 47005" d="M168.15,447.3a3.436,3.436,0,0,1,.623.162,2.921,2.921,0,0,1,1.246.827,2.654,2.654,0,0,1,.607,1.319,5.406,5.406,0,0,1,.031.6.552.552,0,0,0,.037-.157,2.052,2.052,0,0,0,0-.45,2.533,2.533,0,0,0-.6-1.366,2.858,2.858,0,0,0-1.309-.838,2.461,2.461,0,0,0-.471-.094.492.492,0,0,0-.167,0Z" transform="translate(-133.771 -271.094)" fill="#263238"/>
      <path id="Path_47006" data-name="Path 47006" d="M175.31,451.937a4.951,4.951,0,0,0,1.209.393,5.265,5.265,0,0,0,1.261.188c0-.026-.56-.12-1.235-.283S175.32,451.911,175.31,451.937Z" transform="translate(-137.183 -273.305)" fill="#263238"/>
      <path id="Path_47007" data-name="Path 47007" d="M172.14,451.219a.753.753,0,0,0,.052.251c.052.131.037.241.068.246s.073-.115.037-.262S172.161,451.2,172.14,451.219Z" transform="translate(-135.673 -272.963)" fill="#263238"/>
      <path id="Path_47008" data-name="Path 47008" d="M171.25,449.568a.356.356,0,0,0,.084.209c.084.1.147.173.168.162s0-.11-.079-.209S171.276,449.552,171.25,449.568Z" transform="translate(-135.249 -272.176)" fill="#263238"/>
      <path id="Path_47009" data-name="Path 47009" d="M169.68,448.529c0,.031.115.052.23.12s.194.152.22.141,0-.141-.167-.225S169.68,448.5,169.68,448.529Z" transform="translate(-134.5 -271.671)" fill="#263238"/>
      <path id="Path_47010" data-name="Path 47010" d="M168.53,447.986a.259.259,0,0,0,.089.115c.063.042.131.058.147.031s0-.073-.089-.115S168.546,447.955,168.53,447.986Z" transform="translate(-133.952 -271.416)" fill="#263238"/>
      <path id="Path_47011" data-name="Path 47011" d="M199.267,126.729c-.215-.623-.743-1.089-1-1.7a5.993,5.993,0,0,1,0-2.921c.1-.979-.1-2.172-1-2.575a9.275,9.275,0,0,1-1.152-.382c-.7-.44-.665-1.434-.728-2.256a4.616,4.616,0,0,0-.408-1.57l.147-.047a2.324,2.324,0,0,1,2.675,1.324,1.361,1.361,0,0,1-.094,1.314.864.864,0,0,1-1.015.33.722.722,0,0,1-.372-.8.523.523,0,0,1,.576-.325.56.56,0,0,1,.4.225c.063.094.068.162.078.157a.855.855,0,0,0,0-.183.612.612,0,0,0-.445-.319.78.78,0,0,0-.4.031.591.591,0,0,0-.351.356.89.89,0,0,0,.434,1.047,1.083,1.083,0,0,0,1.319-.366,1.607,1.607,0,0,0,.157-1.57,2.586,2.586,0,0,0-2.753-1.57,1.722,1.722,0,0,0,.162-1.392,1.958,1.958,0,0,0-1.209-1.214,2.617,2.617,0,0,0-1.534-.084,3.889,3.889,0,0,0-1.209.523c-.34.22-.6.461-.853.623a1.486,1.486,0,0,1-.707.272,1.11,1.11,0,0,1-.633-.131.74.74,0,0,0,.639.251,1.528,1.528,0,0,0,.79-.246c.277-.157.555-.393.879-.586a2.874,2.874,0,0,1,2.523-.372,1.685,1.685,0,0,1,1.047,1.047,1.356,1.356,0,0,1-.361,1.4,3.051,3.051,0,0,0-1.131-1.162,2.323,2.323,0,0,0-3.14.775l-8.589-2.952a4.187,4.187,0,0,0-3.947-.79l-.178-.031a2.879,2.879,0,0,0-1.45.241,4.711,4.711,0,0,0-1.46,1.277,3.355,3.355,0,0,1-.822.686,1.567,1.567,0,0,1-.167.063,7.557,7.557,0,0,1-1.146.042,16.544,16.544,0,0,0-2.361-.67,3.664,3.664,0,0,0-1.486.1,2.863,2.863,0,0,0-1.329.843,2.266,2.266,0,0,0-.576,1.523,4.3,4.3,0,0,0,.188,1.188,4.072,4.072,0,0,0-.251,1.623c.037.728.246,1.492.256,2.2a2.093,2.093,0,0,1-.707.361c-.45.141-.937.209-1.4.387a3.256,3.256,0,0,0-1.853,1.963,2.3,2.3,0,0,0,.23,2.167,3.313,3.313,0,0,0,.607,2.769,16.6,16.6,0,0,1,1.345,1.439,7.307,7.307,0,0,1,.628,3.031c.147,1.031.738,2.2,1.78,2.272.837.052,1.57-.649,2.429-.581,1.172.094,1.654,1.5,2.334,2.465a4.187,4.187,0,0,0,3.9,1.7c1.047-.141,2.125-.707,3.167-.445,1.314.335,2.094,1.874,3.449,2.067a3.5,3.5,0,0,0,2.664-1.2,5.412,5.412,0,0,1,2.486-1.644c1.193-.215,2.345.523,3.549.67a4.015,4.015,0,0,0,3.957-1.984c.659-1.2.654-2.669,1.277-3.889a21.954,21.954,0,0,1,1.57-2.235A3,3,0,0,0,199.267,126.729Zm-34.441-3.863a.7.7,0,0,0-.293,0,.718.718,0,0,1,.236.058l-.162.12a3.141,3.141,0,0,0-1.015,1.57,2.256,2.256,0,0,1-.052-1.785,3.01,3.01,0,0,1,1.717-1.78c.419-.157.9-.225,1.382-.372a2.245,2.245,0,0,0,.6-.267,1.973,1.973,0,0,1-.246.811c-.45.78-1.4,1.11-2.162,1.644Zm5.862-9.631a4.522,4.522,0,0,0-3.235,2.481,3.391,3.391,0,0,1-.084-.717,2,2,0,0,1,.5-1.329,2.889,2.889,0,0,1,2.554-.864,6.045,6.045,0,0,1,1.408.361,7.547,7.547,0,0,0-1.141.068Zm4.308-.361c-.1.047-.215.079-.319.115a5.714,5.714,0,0,0,.434-.44,4.842,4.842,0,0,1,1.371-1.267,2.675,2.675,0,0,1,1.272-.272,3.4,3.4,0,0,0-.649.319A18.757,18.757,0,0,1,175,112.874Z" transform="translate(-131.39 -110.679)" fill="#263238"/>
      <path id="Path_47012" data-name="Path 47012" d="M205.17,135.18a55.328,55.328,0,0,0,.063-10.264,5.475,5.475,0,0,0-6.04-5.1l-9,.953a1.816,1.816,0,0,0-1.628,1.848l.926,22.1H187.4v4a8.291,8.291,0,1,0,16.582,0v-3.465a12.532,12.532,0,0,0-3.465-.633H200.2c0-2.026.168-3.612.168-3.612S204.348,140.367,205.17,135.18Z" transform="translate(-142.945 -115.005)" fill="#ffbe9d"/>
      <path id="Path_47013" data-name="Path 47013" d="M217.689,135.45a.67.67,0,0,1-.644.67.633.633,0,0,1-.686-.6.67.67,0,0,1,.644-.67.639.639,0,0,1,.686.6Z" transform="translate(-156.747 -122.185)" fill="#263238"/>
      <path id="Path_47014" data-name="Path 47014" d="M217.311,133.161c-.084.084-.586-.288-1.3-.288s-1.24.361-1.319.272.047-.194.277-.361a1.858,1.858,0,0,1,1.047-.325,1.764,1.764,0,0,1,1.047.335C217.274,132.962,217.353,133.119,217.311,133.161Z" transform="translate(-155.94 -121.048)" fill="#263238"/>
      <path id="Path_47015" data-name="Path 47015" d="M204.324,135.45a.665.665,0,0,1-.639.67.633.633,0,0,1-.686-.6.659.659,0,0,1,.639-.67.639.639,0,0,1,.686.6Z" transform="translate(-150.38 -122.185)" fill="#263238"/>
      <path id="Path_47016" data-name="Path 47016" d="M203.871,133.416c-.084.089-.586-.283-1.3-.283s-1.241.361-1.319.272.047-.194.277-.361a1.78,1.78,0,0,1,1.047-.325,1.727,1.727,0,0,1,1.047.335C203.834,133.222,203.913,133.39,203.871,133.416Z" transform="translate(-149.534 -121.171)" fill="#263238"/>
      <path id="Path_47017" data-name="Path 47017" d="M210.956,138.781a4.748,4.748,0,0,1,1.162-.209c.183,0,.356-.052.387-.178a.947.947,0,0,0-.12-.523c-.173-.44-.351-.906-.523-1.392a23.184,23.184,0,0,1-1.209-3.638,24.732,24.732,0,0,1,1.5,3.533c.178.492.351.953.523,1.4a1.047,1.047,0,0,1,.094.717.466.466,0,0,1-.3.267,1.172,1.172,0,0,1-.309.042A4.711,4.711,0,0,1,210.956,138.781Z" transform="translate(-154.023 -121.229)" fill="#263238"/>
      <path id="Path_47018" data-name="Path 47018" d="M205.866,158.683a13.19,13.19,0,0,1-6.946-1.853s1.685,3.564,6.872,3.078Z" transform="translate(-148.436 -132.662)" fill="#eb996e"/>
      <path id="Path_47019" data-name="Path 47019" d="M208.717,147.044a1.293,1.293,0,0,0-1.157-.482,1.178,1.178,0,0,0-.811.44.743.743,0,0,0-.058.853.879.879,0,0,0,.937.236,2.764,2.764,0,0,0,.916-.523.8.8,0,0,0,.2-.215.236.236,0,0,0,0-.267" transform="translate(-152.088 -127.765)" fill="#eb996e"/>
      <path id="Path_47020" data-name="Path 47020" d="M207.127,145.14c.115,0,.115.769.78,1.319s1.492.466,1.5.576-.183.152-.523.162a1.916,1.916,0,0,1-1.246-.44,1.659,1.659,0,0,1-.607-1.1C207.012,145.328,207.075,145.135,207.127,145.14Z" transform="translate(-152.299 -127.091)" fill="#263238"/>
      <path id="Path_47021" data-name="Path 47021" d="M203.919,131.17c-.068.194-.785.1-1.623.2s-1.518.33-1.628.152c-.052-.078.068-.262.34-.45a2.664,2.664,0,0,1,1.209-.424,2.759,2.759,0,0,1,1.272.147C203.8,130.924,203.977,131.076,203.919,131.17Z" transform="translate(-149.264 -120.177)" fill="#263238"/>
      <path id="Path_47022" data-name="Path 47022" d="M217,130.336c-.126.162-.623,0-1.214,0s-1.094.11-1.209-.063c-.052-.084,0-.246.246-.4a1.706,1.706,0,0,1,.984-.267,1.685,1.685,0,0,1,.968.324C216.981,130.09,217.049,130.258,217,130.336Z" transform="translate(-155.887 -119.688)" fill="#263238"/>
      <path id="Path_47023" data-name="Path 47023" d="M206.568,115.939a3.857,3.857,0,0,0-2.806-2.921,23.488,23.488,0,0,0-2.779.042c-.769-.047-1.047-.66-1.774-.9-1.214-.4-2.146-1.748-4.768-1.466a4.078,4.078,0,0,0-2.245,1.811,4.164,4.164,0,0,0-3.051.351,5.317,5.317,0,0,0-2.737,4.062,16.915,16.915,0,0,0,.188,5.208c.11.785.22,1.57.335,2.366a4.218,4.218,0,0,0,.413,1.507l-1.193,11.1a4.617,4.617,0,0,0,5.873-3.229c.461-2.183-.754-4.4-.56-6.626.115-1.324.864-2.554.858-3.884a5.235,5.235,0,0,0-.188-1.293h0c2.094-1.712,2.648-3.088,2.559-4.711a4.041,4.041,0,0,0,2.2.728c1.11,0,2.266-.419,3.3,0a5.758,5.758,0,0,1,1.848,1.5,2.659,2.659,0,0,0,2.094.974,5.49,5.49,0,0,0,1.089-.382,1.309,1.309,0,0,1,1.12,0A8.662,8.662,0,0,0,206.568,115.939Z" transform="translate(-142.35 -110.656)" fill="#263238"/>
      <path id="Path_47024" data-name="Path 47024" d="M165.92,133.076a9.175,9.175,0,0,0,1.722.984,6.087,6.087,0,0,0,2.251.476,4.789,4.789,0,0,0,2.874-.864,4.376,4.376,0,0,0,1.853-3.036,3.167,3.167,0,0,0-.393-1.947,2.094,2.094,0,0,0-1.7-1.047,1.534,1.534,0,0,0-.984.325,1.947,1.947,0,0,0-.607.906,2.256,2.256,0,0,0,.4,2.162,3.774,3.774,0,0,0,2.052,1.225,5.888,5.888,0,0,0,2.512.042,5.454,5.454,0,0,0,2.287-1.047A4.313,4.313,0,0,0,179.6,129.3a4.366,4.366,0,0,0,.188-2.324,3.434,3.434,0,0,0-.387-1.047,2.408,2.408,0,0,0-.707-.827,1.68,1.68,0,0,0-.958-.361.885.885,0,0,0-.8.45,1.267,1.267,0,0,0-.1.937,1.879,1.879,0,0,0,.523.811,4.517,4.517,0,0,0,6.093-.236,4.711,4.711,0,0,0,1.146-1.979,5.266,5.266,0,0,0,.162-1.958,2.261,2.261,0,0,1,.084.523,4.5,4.5,0,0,1-.136,1.481,4.894,4.894,0,0,1-1.141,2.057,4.512,4.512,0,0,1-2.785,1.366,4.6,4.6,0,0,1-3.585-1.073,2.031,2.031,0,0,1-.576-.916,1.518,1.518,0,0,1,.12-1.125,1.141,1.141,0,0,1,1.015-.581,1.947,1.947,0,0,1,1.115.408,2.654,2.654,0,0,1,.78.906,3.821,3.821,0,0,1,.424,1.146,4.6,4.6,0,0,1-.194,2.471,4.643,4.643,0,0,1-1.5,2.094,5.758,5.758,0,0,1-2.408,1.089,6.14,6.14,0,0,1-2.617-.047,4.077,4.077,0,0,1-2.2-1.319,2.559,2.559,0,0,1-.523-1.167,2.748,2.748,0,0,1,.1-1.256,2.225,2.225,0,0,1,.7-1.047,1.821,1.821,0,0,1,1.162-.377,2.319,2.319,0,0,1,1.905,1.193,3.444,3.444,0,0,1,.413,2.094,4.575,4.575,0,0,1-1.973,3.172,4.873,4.873,0,0,1-2.983.858,6.035,6.035,0,0,1-2.293-.523,6.15,6.15,0,0,1-1.288-.748c-.136-.1-.23-.188-.3-.241Z" transform="translate(-132.708 -116.43)" fill="#455a64"/>
      <path id="Path_47025" data-name="Path 47025" d="M212.705,119.206a.984.984,0,0,1-.251.173,2.836,2.836,0,0,1-.822.3,3.5,3.5,0,0,1-1.392,0,3.8,3.8,0,0,1-1.638-.848,4.91,4.91,0,0,1-1.288-1.827,1.643,1.643,0,0,1-.042-1.293,1.11,1.11,0,0,1,.487-.523.817.817,0,0,1,.754,0,1.151,1.151,0,0,1,.523,1.329,1.905,1.905,0,0,1-1.047,1.089,3.968,3.968,0,0,1-3.031.047,7.5,7.5,0,0,1-1.4-.675,5.145,5.145,0,0,1-1.188-.947,1.193,1.193,0,0,1-.12-1.486.775.775,0,0,1,.754-.267,1.115,1.115,0,0,1,.639.4.974.974,0,0,1,.2.712,1.235,1.235,0,0,1-.293.644,1.68,1.68,0,0,1-1.146.576,2.994,2.994,0,0,1-1.178-.152,8.631,8.631,0,0,1-1-.387,3.6,3.6,0,0,1-1.46-1.12,2.047,2.047,0,0,1-.377-1.34,1.518,1.518,0,0,1,.3-.822.79.79,0,0,1,.23-.2,1.6,1.6,0,0,0-.424,1.047,1.952,1.952,0,0,0,.393,1.235,3.434,3.434,0,0,0,1.418,1.047,4.58,4.58,0,0,0,2.094.492,1.45,1.45,0,0,0,.984-.523.806.806,0,0,0,.073-1.047c-.236-.309-.738-.445-.974-.126a.748.748,0,0,0-.141.565,1.131,1.131,0,0,0,.262.576,4.988,4.988,0,0,0,1.12.879,6.908,6.908,0,0,0,1.345.644,3.664,3.664,0,0,0,2.816,0,1.612,1.612,0,0,0,.885-.916.885.885,0,0,0-.4-1.047.654.654,0,0,0-.89.387,1.434,1.434,0,0,0,.037,1.1,4.753,4.753,0,0,0,1.2,1.759,3.664,3.664,0,0,0,1.539.848,3.4,3.4,0,0,0,1.335.068A4.386,4.386,0,0,0,212.705,119.206Z" transform="translate(-148.183 -111.578)" fill="#455a64"/>
      <path id="Path_47026" data-name="Path 47026" d="M188.21,146.7a.811.811,0,0,1-.22.178,2.094,2.094,0,0,1-.764.3,2.444,2.444,0,0,1-1.293-.084,2.094,2.094,0,0,1-1.314-1.125.885.885,0,0,1,.2-1.047.921.921,0,0,1,1.125,0,2.308,2.308,0,0,1,.806,2.235,2.743,2.743,0,0,1-1.513,2.141,3.093,3.093,0,0,1-2.816-.209,3.14,3.14,0,0,1-1.078-1,1.8,1.8,0,0,1-.256-1.429,1.366,1.366,0,0,1,.372-.639.942.942,0,0,1,.7-.267,1.371,1.371,0,0,1,1.12.748,2.827,2.827,0,0,1,.309,1.225,4.276,4.276,0,0,1-.115,1.167,3.664,3.664,0,0,1-1.047,1.816,2.617,2.617,0,0,1-2.853.523,2.246,2.246,0,0,1-.68-.461.863.863,0,0,1-.178-.22,3.454,3.454,0,0,0,.9.576,2.538,2.538,0,0,0,1.225.152,2.486,2.486,0,0,0,1.445-.7,3.476,3.476,0,0,0,.942-1.722,3.848,3.848,0,0,0,.094-1.1,2.549,2.549,0,0,0-.288-1.1,1.1,1.1,0,0,0-.9-.612.848.848,0,0,0-.785.712,1.5,1.5,0,0,0,.225,1.2,2.921,2.921,0,0,0,.979.911,2.853,2.853,0,0,0,2.6.188,2.5,2.5,0,0,0,1.371-1.931,2.094,2.094,0,0,0-.68-2,.691.691,0,0,0-.853,0,.675.675,0,0,0-.152.785,1.931,1.931,0,0,0,1.162,1.047,2.465,2.465,0,0,0,1.225.126A3.14,3.14,0,0,0,188.21,146.7Z" transform="translate(-138.804 -126.897)" fill="#455a64"/>
      <path id="Path_47027" data-name="Path 47027" d="M155.55,322.756s3.5,6.8,12.63,3.5c0,0,8.94,4.857,17.492-.581,0,0,11.07,1.481,17.095-1.434l-7.726-66.809-.984-10.259H169.609s-7.255,3.3-8.422,19.429-3.664,38.277-3.664,38.277Z" transform="translate(-127.766 -175.717)" fill="#263238"/>
      <path id="Path_47028" data-name="Path 47028" d="M210.216,326.128v-.2c0-.136-.031-.34-.052-.591-.042-.523-.1-1.3-.178-2.282-.147-1.978-.34-4.847-.55-8.375-.424-7.087-.874-16.9-1.11-27.741s-.209-20.659-.094-27.741c.058-3.554.12-6.428.188-8.411.031-.984.058-1.748.079-2.287v-.6a.985.985,0,0,1,0-.2.833.833,0,0,1,0,.2v.6c0,.523,0,1.309-.026,2.287,0,2-.058,4.873-.1,8.411-.063,7.1-.063,16.917.173,27.741s.66,20.638,1.047,27.741c.194,3.538.351,6.4.466,8.375.052.979.094,1.748.126,2.282a3.81,3.81,0,0,0,.026.6A1.2,1.2,0,0,1,210.216,326.128Z" transform="translate(-152.833 -175.969)" fill="#455a64"/>
      <path id="Path_47029" data-name="Path 47029" d="M215.663,360.881a.346.346,0,0,1,.188-.11.911.911,0,0,1,.6.073,1.047,1.047,0,0,1,.56.707,1.015,1.015,0,0,1-1.612.921,1.047,1.047,0,0,1-.319-.848.9.9,0,0,1,.241-.55c.1-.1.183-.12.188-.11a1.288,1.288,0,0,0-.236.67.869.869,0,0,0,.288.644.785.785,0,0,0,1.2-.686.837.837,0,0,0-.408-.576,1.178,1.178,0,0,0-.691-.136Z" transform="translate(-156.134 -229.848)" fill="#455a64"/>
      <path id="Path_47030" data-name="Path 47030" d="M214.626,322.984a.362.362,0,0,1,.188-.1.874.874,0,0,1,.6.073.994.994,0,0,1,.56.707,1.015,1.015,0,0,1-1.607.916,1,1,0,0,1-.319-.843.869.869,0,0,1,.236-.523c.1-.1.183-.12.188-.11a1.282,1.282,0,0,0-.236.665.864.864,0,0,0,.288.644.78.78,0,0,0,1.2-.68.869.869,0,0,0-.4-.581,1.3,1.3,0,0,0-.7-.162Z" transform="translate(-155.641 -211.788)" fill="#455a64"/>
      <path id="Path_47031" data-name="Path 47031" d="M214.017,289.464a.365.365,0,0,1,.194-.1.864.864,0,0,1,.591.073.977.977,0,1,1-1.366.78.911.911,0,0,1,.236-.55c.1-.1.183-.12.194-.11a1.256,1.256,0,0,0-.241.665.843.843,0,0,0,.293.644.78.78,0,0,0,1.2-.68.869.869,0,0,0-.4-.581A1.3,1.3,0,0,0,214.017,289.464Z" transform="translate(-155.351 -195.813)" fill="#455a64"/>
      <path id="Path_47032" data-name="Path 47032" d="M212.808,253.6a.346.346,0,0,1,.188-.11.885.885,0,0,1,.6.078,1.01,1.01,0,0,1,.56.707.947.947,0,0,1-.523.979.963.963,0,0,1-1.1-.063,1.047,1.047,0,0,1-.319-.848.9.9,0,0,1,.241-.523c.1-.1.183-.12.188-.11a1.288,1.288,0,0,0-.236.67.869.869,0,0,0,.288.644.785.785,0,0,0,1.2-.686.837.837,0,0,0-.408-.576A1.178,1.178,0,0,0,212.808,253.6Z" transform="translate(-154.766 -178.72)" fill="#455a64"/>
    </g>
    <g id="freepik--Message--inject-38" transform="translate(184.737 86.08)">
      <path id="Path_47033" data-name="Path 47033" d="M273.382,214.085l123.458-.9,3.439,83.935L272.44,295.942Z" transform="translate(-272.438 -165.314)" fill="#ff725e"/>
      <path id="Path_47034" data-name="Path 47034" d="M274.23,170.492l58.434-47.28a6.71,6.71,0,0,1,8.474.031L397.693,169.6" transform="translate(-273.291 -121.721)" fill="#ff725e"/>
      <g id="Group_28434" data-name="Group 28434" transform="translate(0.939)" opacity="0.3">
        <path id="Path_47035" data-name="Path 47035" d="M274.23,170.492l58.434-47.28a6.71,6.71,0,0,1,8.474.031L397.693,169.6" transform="translate(-274.23 -121.721)"/>
      </g>
      <path id="Path_47036" data-name="Path 47036" d="M272.438,327.872c-.152-.147,9.73-10.939,22.078-24.1s22.475-23.721,22.632-23.58-9.73,10.934-22.078,24.1S272.6,328.013,272.438,327.872Z" transform="translate(-272.437 -197.244)" fill="#263238"/>
      <path id="Path_47037" data-name="Path 47037" d="M478.042,330.084c-.157.141-9.783-10.432-21.5-23.611s-21.083-23.983-20.937-24.124,9.783,10.432,21.5,23.616S478.209,329.943,478.042,330.084Z" transform="translate(-350.201 -198.273)" fill="#263238"/>
      <g id="Group_28435" data-name="Group 28435" transform="translate(0.944 47.876)" opacity="0.5">
        <path id="Path_47038" data-name="Path 47038" d="M397.7,213.19l-62,49.525-61.459-48.63" transform="translate(-274.24 -213.19)"/>
      </g>
      <path id="Path_47039" data-name="Path 47039" d="M285.938,187.387l-.188-38.555,108.1-1.282,1.22,40.57L341.18,230.783Z" transform="translate(-278.782 -134.031)" fill="#fafafa"/>
      <path id="Path_47040" data-name="Path 47040" d="M285.9,187.268s.351.262,1.015.78l2.931,2.282,11.175,8.725,40.2,31.52h-.136L394.959,187.9l-.052.11c-.23-7.736-.476-15.859-.728-24.119-.162-5.564-.33-11.06-.492-16.451l.136.131-108.1,1.23.084-.084c.042,12.128.079,21.764.1,28.369v7.589c0-1.722-.037-4.261-.063-7.558-.042-6.616-.1-16.257-.183-28.4v-.089h.084L393.85,147.3h.131v.136c.162,5.386.325,10.882.492,16.446.251,8.265.492,16.383.728,24.124v.068l-.052.042-53.912,42.643-.068.052-.068-.052-40.177-31.625-11.107-8.767-2.931-2.3C286.225,187.54,285.9,187.268,285.9,187.268Z" transform="translate(-278.739 -133.912)" fill="#263238"/>
      <path id="Path_47041" data-name="Path 47041" d="M392.4,184.612c0,.073-16.535.236-36.922.356s-36.927.167-36.927.089,16.529-.236,36.927-.361S392.4,184.534,392.4,184.612Z" transform="translate(-294.414 -151.674)" fill="#263238"/>
      <path id="Path_47042" data-name="Path 47042" d="M392.4,205.416c0,.078-16.535.241-36.922.361s-36.927.162-36.927.089,16.529-.236,36.927-.361S392.4,205.343,392.4,205.416Z" transform="translate(-294.414 -161.591)" fill="#263238"/>
      <path id="Path_47043" data-name="Path 47043" d="M392.4,229.4c0,.073-16.535.236-36.922.361s-36.927.162-36.927.084,16.529-.236,36.927-.356S392.4,229.326,392.4,229.4Z" transform="translate(-294.414 -173.023)" fill="#263238"/>
      <path id="Path_47044" data-name="Path 47044" d="M395.487,253.384c0,.078-15.77.23-35.226.351s-35.226.152-35.231.078,15.77-.23,35.231-.351S395.487,253.311,395.487,253.384Z" transform="translate(-297.502 -184.451)" fill="#263238"/>
      <path id="Path_47045" data-name="Path 47045" d="M394.412,274.446a2.28,2.28,0,0,1-.429.031l-1.246.037-4.564.073L373.1,274.8c-5.883.1-11.217.131-15.074.136h-5.81a2.721,2.721,0,0,1-.429-.026,2.275,2.275,0,0,1,.429-.031l1.246-.031,4.564-.079,15.069-.215c5.883-.1,11.217-.131,15.069-.136h5.815a3.384,3.384,0,0,1,.429.026Z" transform="translate(-310.255 -194.495)" fill="#263238"/>
      <path id="Path_47046" data-name="Path 47046" d="M392.332,294.586c0,.073-3.523.136-7.851.136s-7.851-.063-7.851-.136,3.528-.136,7.851-.136S392.332,294.508,392.332,294.586Z" transform="translate(-322.094 -204.041)" fill="#263238"/>
      <circle id="Ellipse_1592" data-name="Ellipse 1592" cx="13.059" cy="13.059" r="13.059" transform="translate(93.567 55.874)" fill="#263238"/>
      <circle id="Ellipse_1593" data-name="Ellipse 1593" cx="13.059" cy="13.059" r="13.059" transform="translate(90.17 55.874)" fill="#455a64"/>
      <path id="Path_47047" data-name="Path 47047" d="M468.912,241.791v10.856h-2v-9.186h-2.3V241.77Z" transform="translate(-364.024 -178.935)" fill="#ebebeb"/>
    </g>
    <g id="freepik--speech-bubble--inject-38" transform="translate(180.311 59.99)">
      <path id="Path_47048" data-name="Path 47048" d="M287.73,106.651h11.944l-1.617-1.853v-4.444A4.355,4.355,0,0,0,293.7,96h0a4.35,4.35,0,0,0-4.35,4.355v4.224Z" transform="translate(-275.299 -83.373)" fill="#ff725e"/>
      <path id="Path_47049" data-name="Path 47049" d="M296,114.668a1.842,1.842,0,1,0,3.606-.618" transform="translate(-279.24 -91.976)" fill="#ff725e"/>
      <rect id="Rectangle_9931" data-name="Rectangle 9931" width="1.172" height="2.491" transform="translate(17.896 10.816)" fill="#ff725e"/>
      <path id="Path_47050" data-name="Path 47050" d="M299.8,86.984a2.232,2.232,0,0,1-.084-.314c-.052-.225-.12-.523-.209-.921a11.842,11.842,0,0,0-.424-1.476c-.1-.283-.178-.6-.319-.921l-.445-1.015a18.173,18.173,0,0,0-3.167-4.679,17.571,17.571,0,0,0-6.035-4.145,17.377,17.377,0,0,0-4.051-1.152,17.681,17.681,0,0,0-4.533-.073,17.9,17.9,0,0,0-2.355.408c-.393.084-.775.236-1.172.356a7.993,7.993,0,0,0-1.167.424,16.587,16.587,0,0,0-4.423,2.654,17.6,17.6,0,0,0-5.915,9.458,17.314,17.314,0,0,0-.34,6.072,16.781,16.781,0,0,0,1.8,6.009l.3.571.037.073v.079c-.968,3.14-1.91,6.281-2.832,9.28l-.246-.225,7.48-3.9.089-.047.084.063a17.4,17.4,0,0,0,21.727-.377,18.11,18.11,0,0,0,3.931-4.606,19.541,19.541,0,0,0,1.91-4.637,19.89,19.89,0,0,0,.523-3.753V88.811c0-.4-.063-.722-.084-1s-.042-.461-.052-.612a.9.9,0,0,1,0-.209,1.114,1.114,0,0,1,.037.2,3.2,3.2,0,0,0,.078.612c.031.277.068.607.115,1a13.459,13.459,0,0,1,0,1.382,18.973,18.973,0,0,1-.471,3.79,19.282,19.282,0,0,1-1.884,4.711,18.23,18.23,0,0,1-3.957,4.711,17.7,17.7,0,0,1-14.048,3.9,17.932,17.932,0,0,1-8.045-3.439h.178l-7.469,3.91-.377.2.126-.424,2.826-9.28v.152l-.309-.581a17.184,17.184,0,0,1-1.832-6.14,17.378,17.378,0,0,1,.356-6.213,17.927,17.927,0,0,1,6.045-9.636,17.031,17.031,0,0,1,4.517-2.685,8.047,8.047,0,0,1,1.188-.429c.4-.115.79-.267,1.193-.351a16.812,16.812,0,0,1,2.392-.408,17.754,17.754,0,0,1,4.606.094,18.042,18.042,0,0,1,4.1,1.193,17.681,17.681,0,0,1,6.082,4.25,18.006,18.006,0,0,1,3.14,4.763c.152.366.3.707.429,1.047s.209.649.309.937a9.825,9.825,0,0,1,.393,1.492c.073.393.136.7.178.932A2.289,2.289,0,0,1,299.8,86.984Z" transform="translate(-263.98 -71.876)" fill="#263238"/>
    </g>
    <g id="freepik--Plant--inject-54" transform="translate(324.42 190.611)">
      <path id="Path_42266" data-name="Path 42266" d="M101.008,376.211c0-.242-.84-24.705-4.806-28.558-3.785-3.716-8.228-.136-8.417,0l-.484-.583c.053-.045,5.117-4.178,9.431,0,4.186,4.065,5,28.058,5.026,29.073Z" transform="translate(-81.896 -327.96)" fill="#d3b087"/>
      <path id="Path_42267" data-name="Path 42267" d="M105.742,379.17c-.121-1.2-2.725-29.428,7.917-41.63l.575.5c-10.43,11.974-7.766,40.782-7.743,41.07Z" transform="translate(-86.29 -326.097)" fill="#d3b087"/>
      <path id="Path_42268" data-name="Path 42268" d="M103.436,375.362l-.757-.053c0-.325,2.074-33.054-5.7-40.2l.515-.56C105.541,341.945,103.527,374,103.436,375.362Z" transform="translate(-84.249 -325.37)" fill="#d3b087"/>
      <path id="Path_42269" data-name="Path 42269" d="M106.617,379.983h-.757c0-.9.257-22.162,6.313-25.636a4.345,4.345,0,0,1,3.966-.386c3.671,1.514,5.488,8.038,5.563,8.326l-.757.2c0-.061-1.786-6.434-5.124-7.811a3.557,3.557,0,0,0-3.293.341C106.867,358.252,106.617,379.764,106.617,379.983Z" transform="translate(-86.408 -330.013)" fill="#d3b087"/>
      <path id="Path_42270" data-name="Path 42270" d="M99.318,380.337h-.757c0-.167.908-16.75-3.557-22.578a4.162,4.162,0,0,0-3.451-1.983c-2.907.2-5.351,4.473-5.374,4.541l-.659-.371c.106-.189,2.672-4.663,5.972-4.89,1.514-.106,2.876.658,4.11,2.271C100.264,363.337,99.364,379.649,99.318,380.337Z" transform="translate(-81.463 -330.353)" fill="#d3b087"/>
      <path id="Path_42271" data-name="Path 42271" d="M104.588,376.6c-.129-1.612-2.937-39.548,2.021-46.247l.606.447c-4.784,6.479-1.907,45.354-1.877,45.74Z" transform="translate(-85.878 -324.349)" fill="#d3b087"/>
      <g id="Group_28092" data-name="Group 28092" transform="translate(0 0)">
        <path id="Path_42272" data-name="Path 42272" d="M120.458,358.434s-2.967,1.09-2.081,3.671,10.248,6.812,10.248,6.812,3.921-3.6.318-9.454S120.534,356.587,120.458,358.434Z" transform="translate(-89.41 -330.589)" fill="#07b464"/>
        <path id="Path_42274" data-name="Path 42274" d="M101.731,352.339s3.156-.129,3.33,2.589-6.812,10.241-6.812,10.241-5-1.809-3.928-8.591S100.944,350.667,101.731,352.339Z" transform="translate(-83.566 -329.406)" fill="#07b464"/>
        <path id="Path_42276" data-name="Path 42276" d="M97.117,334.346s2.1-.227,1.93-1.514-8.175-4.541-12.867.757c0,0,3.028,5.2,7.395,5.3S97.117,334.346,97.117,334.346Z" transform="translate(-81.623 -324.424)" fill="#07b464"/>
        <path id="Path_42278" data-name="Path 42278" d="M105.015,329.225s-1.907.923-2.437-.25,4.541-8.212,11.354-6.191c0,0,.182,6.055-3.5,8.386S105.015,329.225,105.015,329.225Z" transform="translate(-85.6 -322.421)" fill="#07b464"/>
        <path id="Path_42280" data-name="Path 42280" d="M89.614,357.217s1.453-1.173-.114-1.741-9.257-.416-9.34,7.206c0,0,8.954,1.514,10.067-1.415S89.614,357.217,89.614,357.217Z" transform="translate(-80.16 -330.408)" fill="#07b464"/>
        <path id="Path_42282" data-name="Path 42282" d="M116.453,334.647s-1.453-1.173.114-1.741,9.257-.409,9.34,7.206c0,0-8.954,1.514-10.067-1.415S116.453,334.647,116.453,334.647Z" transform="translate(-88.743 -324.922)" fill="#07b464"/>
        <path id="Path_42284" data-name="Path 42284" d="M109.659,343.06s-.129-1.423,1.022-.87,5.155,4.882,1.007,8.992c0,0-5.594-4.148-4.587-6.3S109.659,343.06,109.659,343.06Z" transform="translate(-86.68 -327.196)" fill="#07b464"/>
        <path id="Path_42286" data-name="Path 42286" d="M88.926,345.646s.87-1.135-.4-1.279-6.971,1.378-5.639,7.069c0,0,6.941-.522,7.236-2.884S88.926,345.646,88.926,345.646Z" transform="translate(-80.774 -327.754)" fill="#07b464"/>
      </g>
      <g id="Group_28091" data-name="Group 28091" transform="translate(0 0)">
        <path id="Path_42273" data-name="Path 42273" d="M120.458,358.434s-2.967,1.09-2.081,3.671,10.248,6.812,10.248,6.812,3.921-3.6.318-9.454S120.534,356.587,120.458,358.434Z" transform="translate(-89.41 -330.589)" fill="#fff" opacity="0.2"/>
        <path id="Path_42275" data-name="Path 42275" d="M101.731,352.339s3.156-.129,3.33,2.589-6.812,10.241-6.812,10.241-5-1.809-3.928-8.591S100.944,350.667,101.731,352.339Z" transform="translate(-83.566 -329.406)" fill="#fff" opacity="0.2"/>
        <path id="Path_42277" data-name="Path 42277" d="M97.117,334.346s2.1-.227,1.93-1.514-8.175-4.541-12.867.757c0,0,3.028,5.2,7.395,5.3S97.117,334.346,97.117,334.346Z" transform="translate(-81.623 -324.424)" fill="#fff" opacity="0.2"/>
        <path id="Path_42279" data-name="Path 42279" d="M105.015,329.225s-1.907.923-2.437-.25,4.541-8.212,11.354-6.191c0,0,.182,6.055-3.5,8.386S105.015,329.225,105.015,329.225Z" transform="translate(-85.6 -322.421)" fill="#fff" opacity="0.2"/>
        <path id="Path_42281" data-name="Path 42281" d="M89.614,357.217s1.453-1.173-.114-1.741-9.257-.416-9.34,7.206c0,0,8.954,1.514,10.067-1.415S89.614,357.217,89.614,357.217Z" transform="translate(-80.16 -330.408)" fill="#fff" opacity="0.2"/>
        <path id="Path_42283" data-name="Path 42283" d="M116.453,334.647s-1.453-1.173.114-1.741,9.257-.409,9.34,7.206c0,0-8.954,1.514-10.067-1.415S116.453,334.647,116.453,334.647Z" transform="translate(-88.743 -324.922)" fill="#fff" opacity="0.2"/>
        <path id="Path_42285" data-name="Path 42285" d="M109.659,343.06s-.129-1.423,1.022-.87,5.155,4.882,1.007,8.992c0,0-5.594-4.148-4.587-6.3S109.659,343.06,109.659,343.06Z" transform="translate(-86.68 -327.196)" fill="#fff" opacity="0.2"/>
        <path id="Path_42287" data-name="Path 42287" d="M88.926,345.646s.87-1.135-.4-1.279-6.971,1.378-5.639,7.069c0,0,6.941-.522,7.236-2.884S88.926,345.646,88.926,345.646Z" transform="translate(-80.774 -327.754)" fill="#fff" opacity="0.2"/>
      </g>
      <path id="Path_42288" data-name="Path 42288" d="M113.438,407.955H89.626L87.06,381.88H116Z" transform="translate(-81.837 -336.875)" fill="#a7600e"/>
      <path id="Path_42289" data-name="Path 42289" d="M113.438,407.955H89.626L87.06,381.88H116Z" transform="translate(-81.837 -336.875)" fill="#fff" opacity="0.5"/>
      <rect id="Rectangle_9363" data-name="Rectangle 9363" width="31.495" height="5.752" transform="translate(3.951 42.128)" fill="#824907"/>
      <rect id="Rectangle_9364" data-name="Rectangle 9364" width="31.495" height="5.752" transform="translate(3.951 42.128)" fill="#fff" opacity="0.2"/>
    </g>
  </g>
</svg>
