<svg xmlns="http://www.w3.org/2000/svg" width="107.258" height="20.453" viewBox="0 0 107.258 20.453"><defs><style>.a{fill:#ed1c24;}.b{fill:#08ce73;}</style></defs><g transform="translate(-578 -145)"><g transform="translate(592.873 151.984)"><g transform="translate(45.423 0)"><path class="a" d="M2764.232,801.05h2.831c1.788,0,2.572.992,2.4,2.814l-.552,5.757a2.724,2.724,0,0,1-2.937,2.814h-2.831Zm1.634,1.626-.78,8.132h1.009c.567,0,.937-.293,1.014-1.106l.568-5.921c.078-.813-.235-1.106-.8-1.106Z" transform="translate(-2763.14 -801.05)"/><path class="a" d="M2852.137,805.848h2.458l-.156,1.626h-2.458l-.32,3.335h3.091l-.156,1.626h-4.878l1.092-11.385h4.878l-.156,1.626h-3.091Z" transform="translate(-2843.077 -801.05)"/><path class="a" d="M2928.891,801.05h1.788l-.937,9.758h2.945l-.156,1.626H2927.8Z" transform="translate(-2915.171 -801.05)"/><path class="a" d="M3000.826,801.05h1.788l-1.092,11.385h-1.788Z" transform="translate(-2981.589 -801.05)"/><path class="a" d="M3050.41,810.336l2.258-9.286h1.642l-2.848,11.385h-2.667l-.664-11.385h1.8Z" transform="translate(-3026.274 -801.05)"/><path class="a" d="M3127.755,805.848h2.458l-.156,1.626H3127.6l-.32,3.335h3.091l-.156,1.626h-4.879l1.092-11.385h4.878l-.156,1.626h-3.091Z" transform="translate(-3097.557 -801.05)"/><path class="a" d="M3207.157,812.435a3.416,3.416,0,0,1-.027-1.4l.172-1.789c.1-1.058-.219-1.447-1.032-1.447h-.62l-.445,4.635h-1.788l1.092-11.385h2.7c1.854,0,2.568.862,2.4,2.618l-.086.9a2.536,2.536,0,0,1-1.392,2.31c.859.373,1.068,1.235.954,2.422l-.168,1.757a3.248,3.248,0,0,0,.063,1.383Zm-1.016-9.758-.336,3.5h.7c.667,0,1.1-.293,1.191-1.2l.108-1.123c.078-.813-.166-1.171-.8-1.171Z" transform="translate(-3169.651 -801.05)"/><path class="a" d="M3294.718,808.662l-1.532-7.612h1.87l.869,5.188,1.865-5.188h1.708l-2.992,7.612-.362,3.773h-1.788Z" transform="translate(-3252.535 -801.05)"/></g><g transform="translate(0 0)"><path class="b" d="M2251.1,801.05l-2.4,5.53,1.44,5.855h-1.888l-1.03-4.505-1.913,4.505h-1.677l2.564-5.855-1.342-5.53h1.857l.945,4.2,1.785-4.2Z" transform="translate(-2238.048 -801.05)"/><path class="b" d="M2346.312,803.864l-.142,1.479a2.724,2.724,0,0,1-2.937,2.814h-.848l-.41,4.277h-1.788l1.092-11.385h2.635C2345.7,801.05,2346.487,802.042,2346.312,803.864Zm-3.4-1.188-.37,3.855h.847c.569,0,.9-.261.98-1.074l.164-1.707c.078-.813-.2-1.074-.774-1.074Z" transform="translate(-2327.201 -801.05)"/><path class="b" d="M2424.979,812.435a3.421,3.421,0,0,1-.027-1.4l.172-1.789c.1-1.058-.219-1.447-1.032-1.447h-.62l-.445,4.635h-1.788l1.092-11.385h2.7c1.854,0,2.568.862,2.4,2.618l-.086.9a2.536,2.536,0,0,1-1.392,2.31c.859.373,1.068,1.235.954,2.422l-.169,1.757a3.251,3.251,0,0,0,.063,1.383Zm-1.015-9.758-.335,3.5h.7c.667,0,1.1-.293,1.191-1.2l.108-1.123c.078-.813-.166-1.171-.8-1.171Z" transform="translate(-2402.037 -801.05)"/><path class="b" d="M2508.927,805.848h2.455l-.156,1.626h-2.455l-.32,3.335h3.091l-.156,1.626H2506.5l1.093-11.385h4.881l-.156,1.626h-3.091Z" transform="translate(-2480.763 -801.05)"/><path class="b" d="M2173.288,805.848h2.455l-.156,1.626h-2.455l-.32,3.335h3.091l-.156,1.626h-4.881l1.092-11.385h4.881l-.156,1.626h-3.091Z" transform="translate(-2170.865 -801.05)"/><path class="b" d="M2587.658,801.05c1.74,0,2.535,1.018,2.361,2.8l-.034.349h-1.692l.045-.461c.078-.795-.215-1.1-.785-1.1s-.925.3-1,1.1c-.225,2.29,3.229,2.719,2.917,5.9a2.754,2.754,0,0,1-2.942,2.8c-1.756,0-2.567-1.018-2.392-2.8l.067-.685h1.692l-.078.795c-.078.8.251,1.082.821,1.082s.955-.286,1.033-1.082c.225-2.289-3.232-2.719-2.92-5.9A2.737,2.737,0,0,1,2587.658,801.05Z" transform="translate(-2552.417 -801.05)"/><path class="b" d="M2667.018,801.05c1.74,0,2.535,1.018,2.361,2.8l-.034.349h-1.692l.045-.461c.078-.795-.216-1.1-.785-1.1s-.925.3-1,1.1c-.225,2.29,3.229,2.719,2.917,5.9a2.754,2.754,0,0,1-2.942,2.8c-1.756,0-2.567-1.018-2.392-2.8l.067-.685h1.692l-.078.795c-.078.8.251,1.082.821,1.082s.955-.286,1.033-1.082c.225-2.289-3.232-2.719-2.92-5.9A2.737,2.737,0,0,1,2667.018,801.05Z" transform="translate(-2625.69 -801.05)"/></g></g><g transform="translate(578 145)"><path class="b" d="M22.711,6.086s-.346-.361-.669-.641a6.831,6.831,0,0,0-.621-.478A8.464,8.464,0,0,0,17.37,3.45V1.7h1.7V0H13.963V1.7h1.7V3.45a8.464,8.464,0,0,0-4.051,1.516L10.306,3.657l-1.2,1.2,1.224,1.224a8.518,8.518,0,1,0,12.385,0ZM16.518,18.74a6.815,6.815,0,1,1,6.815-6.815,6.815,6.815,0,0,1-6.815,6.815Z" transform="translate(-8 0)"/><path class="b" d="M29.111,32v5.111H24A5.111,5.111,0,1,0,29.111,32Z" transform="translate(-20.593 -25.185)"/></g></g></svg>