<svg xmlns="http://www.w3.org/2000/svg" width="300" height="304.456" viewBox="0 0 300 304.456">
  <g id="faqs" transform="translate(-42.894 -47.823)">
    <circle id="Ellipse_1594" data-name="Ellipse 1594" cx="105.581" cy="105.581" r="105.581" transform="translate(61.702 47.823)" fill="#dadeea" opacity="0.36" style="mix-blend-mode: multiply;isolation: isolate"/>
    <ellipse id="Ellipse_1595" data-name="Ellipse 1595" cx="145.33" cy="9.686" rx="145.33" ry="9.686" transform="translate(51.332 332.906)" fill="#7dbbf1" opacity="0.36" style="mix-blend-mode: multiply;isolation: isolate"/>
    <g id="Group_28436" data-name="Group 28436" transform="translate(134.253 236.258)">
      <path id="Path_47053" data-name="Path 47053" d="M185.8,313.96s-.408-8.379-12.263-12.841C173.533,301.119,175.368,312.434,185.8,313.96Z" transform="translate(-167.901 -301.119)" fill="#48be97"/>
      <path id="Path_47054" data-name="Path 47054" d="M182.9,332.959s-1.232-10.813-16.954-15.593C165.948,317.366,169.274,331.86,182.9,332.959Z" transform="translate(-165.948 -305.301)" fill="#48be97"/>
      <path id="Path_47055" data-name="Path 47055" d="M187.057,361.129s-1.787-12.538-20.231-17.585C166.826,343.544,171.169,360.295,187.057,361.129Z" transform="translate(-166.174 -312.04)" fill="#48be97"/>
      <path id="Path_47056" data-name="Path 47056" d="M201.031,393.287s-6.99-13.546-29.953-11.987C171.078,381.3,182.64,398.623,201.031,393.287Z" transform="translate(-167.269 -321.727)" fill="#48be97"/>
      <path id="Path_47057" data-name="Path 47057" d="M190.024,314.841s1.623-8.231,14-10.921C204.025,303.92,200.563,314.848,190.024,314.841Z" transform="translate(-172.146 -301.84)" fill="#48be97"/>
      <path id="Path_47058" data-name="Path 47058" d="M188.375,334.058s2.792-10.519,19.043-12.96C207.418,321.1,202.018,334.953,188.375,334.058Z" transform="translate(-171.721 -306.262)" fill="#48be97"/>
      <path id="Path_47059" data-name="Path 47059" d="M193.657,359.369s-1.575-12.566,14.892-22.288C208.549,337.081,208.767,354.384,193.657,359.369Z" transform="translate(-173.071 -310.377)" fill="#48be97"/>
      <path id="Path_47060" data-name="Path 47060" d="M209.639,386.983s-6.148-13.949,9.491-30.835C219.13,356.148,225.345,376.027,209.639,386.983Z" transform="translate(-176.889 -315.285)" fill="#48be97"/>
      <path id="Path_47061" data-name="Path 47061" d="M189.908,318.066s-11.6,48.31,41.5,82.827" transform="translate(-171.84 -305.482)" fill="none" stroke="#48be97" stroke-linecap="round" stroke-width="2.011"/>
    </g>
    <g id="Group_28437" data-name="Group 28437" transform="translate(209.012 252.007)">
      <path id="Path_47062" data-name="Path 47062" d="M308.086,335.466s1.563-8.243,13.922-11.021C322.008,324.445,318.625,335.4,308.086,335.466Z" transform="translate(-277.31 -322.873)" fill="#48be97"/>
      <path id="Path_47063" data-name="Path 47063" d="M306.177,354.871s2.716-10.539,18.949-13.1C325.126,341.774,319.826,355.668,306.177,354.871Z" transform="translate(-276.819 -327.334)" fill="#48be97"/>
      <path id="Path_47064" data-name="Path 47064" d="M297.53,383.579s6.526-10.853,25.481-8.322C323.011,375.257,312.491,389,297.53,383.579Z" transform="translate(-274.593 -335.855)" fill="#48be97"/>
      <path id="Path_47065" data-name="Path 47065" d="M276.89,412.874s11.07-10.478,32.231-1.424C309.121,411.45,292.488,423.983,276.89,412.874Z" transform="translate(-269.28 -344.322)" fill="#48be97"/>
      <path id="Path_47066" data-name="Path 47066" d="M303.8,335.081s-.468-8.376-12.355-12.753C291.441,322.328,293.357,333.629,303.8,335.081Z" transform="translate(-273.026 -322.328)" fill="#48be97"/>
      <path id="Path_47067" data-name="Path 47067" d="M300.269,353.992s-1.31-10.8-17.065-15.471C283.2,338.521,286.633,352.99,300.269,353.992Z" transform="translate(-270.905 -326.496)" fill="#48be97"/>
      <path id="Path_47068" data-name="Path 47068" d="M293.65,378.632s3.3-12.227-11.664-24.134C281.986,354.5,279.376,371.6,293.65,378.632Z" transform="translate(-270.543 -330.609)" fill="#48be97"/>
      <path id="Path_47069" data-name="Path 47069" d="M274.558,403.973s8.02-12.962-5.131-31.852C269.427,372.121,260.521,390.948,274.558,403.973Z" transform="translate(-266.642 -335.146)" fill="#48be97"/>
      <path id="Path_47070" data-name="Path 47070" d="M297.476,338.912s1.7,40.588-30.081,61.973" transform="translate(-266.836 -326.597)" fill="none" stroke="#48be97" stroke-linecap="round" stroke-width="2.011"/>
    </g>
    <g id="Group_28438" data-name="Group 28438" transform="translate(42.894 279.503)">
      <path id="Path_47071" data-name="Path 47071" d="M87.694,422.447c3.585-7.774,9.969-30.584.134-35.354-6.168-2.991-7.979,2.131-7.979,2.131s4.457-24.951-6.109-25c-6.16-.031-7.2,7.041-7.2,7.041s-3.348-7.8-7.447-10.07c-8.906-4.928-19.509.166-11.292,14.107a30.019,30.019,0,0,0,5.321,6.5s-9.285-3.5-10.193,3.143,16.692,17.188,16.692,17.188-5.268.2-5.474,6.285c-.28,8.222,16.692,14.033,16.692,14.033Z" transform="translate(-42.894 -359.356)" fill="#36a871"/>
      <path id="Path_47072" data-name="Path 47072" d="M57.968,370.011C69.513,386.937,79,391.967,86.717,423.488" transform="translate(-46.775 -362.099)" fill="none" stroke="#fff" stroke-linecap="round" stroke-width="0.794"/>
    </g>
    <g id="Group_28439" data-name="Group 28439" transform="translate(63.076 263.056)">
      <path id="Path_47073" data-name="Path 47073" d="M102.521,416.745c-.379-11.557,16.68-35.569,6.347-41.391-6.48-3.651-8.309,2.949-8.309,2.949s14.6-24.734.631-26.391c-4.867-.578-7.689,6.535-7.689,6.535s-.117-12.734-4.014-17.5c-6.359-7.781-19.667-3.433-16.527,13.344C74.68,363.487,81,367.129,81,367.129s-6.394-4.88-9.443,1.527c-4.086,8.586,9.614,19.677,9.614,19.677s-6.131-4.542-10.181,2.886c-5.474,10.036,15.34,25.527,15.34,25.527Z" transform="translate(-70.073 -337.207)" fill="#48be97"/>
      <path id="Path_47074" data-name="Path 47074" d="M88.9,354.676c7.815,19.842,11.887,41.614,13.574,64.614" transform="translate(-74.919 -341.704)" fill="none" stroke="#fff" stroke-linecap="round" stroke-width="0.794"/>
    </g>
    <g id="Group_28440" data-name="Group 28440" transform="translate(296.839 280.752)">
      <path id="Path_47075" data-name="Path 47075" d="M388.805,422.88c2.54-9.384-9.7-27.873-.192-32.6,5.961-2.965,9.165.068,9.165.068s-7.02-18.636,4.629-19.981a4.914,4.914,0,0,1,5.289,3.148,20.009,20.009,0,0,1,5.966-8.981c8.252-6.566,19.005-4.132,13.219,9.492-3.173,7.471-5.679,8.567-5.679,8.567s5.736-1.112,6.973,4.092c1.657,6.971-12.079,18.639-12.079,18.639s4.937.465,5.587,4.158c1.438,8.165-15.875,13.4-15.875,13.4Z" transform="translate(-384.938 -361.038)" fill="#36a871"/>
      <path id="Path_47076" data-name="Path 47076" d="M427.9,367.578c-15.8,12.833-16.391,38.95-24.4,54.033" transform="translate(-389.717 -362.722)" fill="none" stroke="#fff" stroke-linecap="round" stroke-width="0.725"/>
    </g>
    <g id="Group_28441" data-name="Group 28441" transform="translate(281.275 259.745)">
      <path id="Path_47077" data-name="Path 47077" d="M376.265,415.6c-5.722-9.412-18.171-37.027-9.046-42.8,5.722-3.622,8.914,2.58,8.914,2.58s-10.964-30.207.115-30.272c6.46-.038,9.332,8.524,9.332,8.524s2.193-8.861,5.265-14.187c7.071-12.257,23.654-7.362,17.8,12.093-1.483,4.93-5.939,11.186-5.939,11.186s10.3-.619,10.025,8.292c-.259,8.453-14.531,16.4-14.531,16.4s9.489-2.115,11.239,5.252c2.365,9.954-18.594,22.929-18.594,22.929Z" transform="translate(-363.978 -332.748)" fill="#48be97"/>
      <path id="Path_47078" data-name="Path 47078" d="M406.633,348.343c-7.973,27.017-19.654,31.047-19.819,69.209" transform="translate(-369.857 -336.763)" fill="none" stroke="#fff" stroke-linecap="round" stroke-width="0.725"/>
    </g>
    <g id="Group_28442" data-name="Group 28442" transform="translate(164.582 264.198)">
      <path id="Path_47079" data-name="Path 47079" d="M250.111,347.008s.645-5.724,8.964-8.263C259.075,338.745,257.323,346.417,250.111,347.008Z" transform="translate(-217.948 -338.745)" fill="#36a871"/>
      <path id="Path_47080" data-name="Path 47080" d="M250.107,360.151s1.317-7.355,12.3-9.942C262.406,350.209,259.492,359.994,250.107,360.151Z" transform="translate(-217.947 -341.696)" fill="#36a871"/>
      <path id="Path_47081" data-name="Path 47081" d="M245.219,379.271s1.773-8.513,14.631-11.164C259.85,368.107,256.142,379.394,245.219,379.271Z" transform="translate(-216.689 -346.304)" fill="#36a871"/>
      <path id="Path_47082" data-name="Path 47082" d="M232.012,400.615s5.381-8.976,21.047-6.9C253.059,393.712,244.38,405.076,232.012,400.615Z" transform="translate(-213.289 -352.815)" fill="#36a871"/>
      <path id="Path_47083" data-name="Path 47083" d="M246.957,347.213s-.751-5.71-9.115-8.094C237.842,339.119,239.736,346.757,246.957,347.213Z" transform="translate(-214.79 -338.841)" fill="#36a871"/>
      <path id="Path_47084" data-name="Path 47084" d="M246.049,360.376s-1.453-7.329-12.48-9.712C233.569,350.664,236.663,360.393,246.049,360.376Z" transform="translate(-213.69 -341.813)" fill="#36a871"/>
      <path id="Path_47085" data-name="Path 47085" d="M242.292,377.549s1.629-8.541-9.229-15.922C233.063,361.627,232.157,373.473,242.292,377.549Z" transform="translate(-213.554 -344.635)" fill="#36a871"/>
      <path id="Path_47086" data-name="Path 47086" d="M230.707,395.836s4.823-9.288-5.153-21.543C225.554,374.293,220.425,387.642,230.707,395.836Z" transform="translate(-211.297 -347.896)" fill="#36a871"/>
      <path id="Path_47087" data-name="Path 47087" d="M238.854,349.624s5.834,33.609-32.056,54.936" transform="translate(-206.798 -341.546)" fill="none" stroke="#36a871" stroke-linecap="round" stroke-width="1.381"/>
    </g>
    <g id="Group_28443" data-name="Group 28443" transform="translate(100.888 58.024)">
      <path id="Path_47088" data-name="Path 47088" d="M221.583,346.13H210.64c-7.608,0-19.451-21.344-19.451-29.618,0-8.22,11.8-30.03,19.451-30.03h10.943c9.693,0,17.35,3.019,22.761,8.972a30.335,30.335,0,0,1,7.834,21.058c0,8.3-2.667,15.347-7.926,20.951C238.842,343.216,231.217,346.13,221.583,346.13Zm-28.946-85.415.169-8.569c.291-14.789,2.294-26.335,6.123-35.3,3.868-9.05,11.264-18.55,22.612-29.042l.177-.159,26.291-22.961c9.574-9.215,14.23-18.6,14.23-28.673,0-9.585-2.74-16.758-8.378-21.928-5.769-5.284-14.729-7.965-26.626-7.965-11.829,0-21.289,2.56-28.115,7.608-6.215,4.594-9.109,10.339-9.109,18.083v8.4H135.763l.124-8.525c.307-21.167,9.29-38.469,26.7-51.423,16.679-12.412,38.43-18.706,64.65-18.706,27.292,0,49.073,6.476,64.741,19.249,16.184,13.2,24.388,31.418,24.388,54.157,0,22.367-11.949,44.336-35.517,65.3l-.18.155-21.81,18.314c-8.026,7.645-11.927,18.631-11.927,33.58v8.4Z" transform="translate(-124.82 -61.561)" fill="#65a4da"/>
      <path id="Path_47089" data-name="Path 47089" d="M206.847,346.13c-9.665,0-17.274-2.933-22.614-8.718-5.163-5.595-7.78-12.626-7.78-20.9a30.555,30.555,0,0,1,7.683-21c5.345-5.992,12.986-9.03,22.71-9.03,9.693,0,17.35,3.019,22.76,8.972a30.332,30.332,0,0,1,7.835,21.058c0,8.3-2.667,15.347-7.926,20.951C224.106,343.216,216.481,346.13,206.847,346.13ZM177.9,260.715l.169-8.569c.291-14.789,2.294-26.335,6.123-35.3,3.868-9.05,11.264-18.55,22.612-29.042l.177-.159,26.29-22.961c9.575-9.215,14.23-18.6,14.23-28.673,0-9.585-2.739-16.758-8.377-21.928-5.769-5.284-14.729-7.965-26.626-7.965-11.83,0-21.289,2.56-28.115,7.608-6.215,4.594-9.109,10.339-9.109,18.083v8.4H121.027l.124-8.525c.307-21.167,9.29-38.469,26.7-51.423,16.679-12.412,38.43-18.706,64.65-18.706,27.291,0,49.073,6.476,64.741,19.249,16.183,13.2,24.388,31.418,24.388,54.157,0,22.367-11.95,44.336-35.517,65.3l-.18.155-21.811,18.314c-8.025,7.645-11.926,18.631-11.926,33.58v8.4Z" transform="translate(-121.027 -61.561)" fill="#7dbbf1"/>
    </g>
    <g id="Group_28448" data-name="Group 28448" transform="translate(61.881 135.175)">
      <g id="Group_28444" data-name="Group 28444" transform="translate(55.174 195.813)">
        <path id="Path_47090" data-name="Path 47090" d="M143.093,428.689c.273,3.533-.889,11.419.033,11.606h26.093s.26-3.973-2.831-4.834c-4.128-1.15-9.153-2-11.03-3.65-.927-.814-1.376-3.122-1.376-3.122Z" transform="translate(-142.764 -428.689)" fill="#0a1930"/>
        <path id="Path_47091" data-name="Path 47091" d="M167.189,436.316s-3.316-.3-4.5,1.586" transform="translate(-147.892 -430.648)" fill="none" stroke="#7dbbf1" stroke-linecap="round" stroke-linejoin="round" stroke-width="0.848"/>
        <path id="Path_47092" data-name="Path 47092" d="M163.159,435.124s-3.316-.3-4.5,1.587" transform="translate(-146.854 -430.341)" fill="none" stroke="#7dbbf1" stroke-linecap="round" stroke-linejoin="round" stroke-width="0.848"/>
      </g>
      <g id="Group_28445" data-name="Group 28445" transform="translate(22.066 195.813)">
        <path id="Path_47093" data-name="Path 47093" d="M116.41,428.689c-.333,5.074.547,11.179-.882,11.606H98.186a7.147,7.147,0,0,1,2.066-5.2c.948-.968,3.186-2.076,4.2-3.1.923-.926,1.066-3.306,1.066-3.306Z" transform="translate(-98.179 -428.689)" fill="#0a1930"/>
        <path id="Path_47094" data-name="Path 47094" d="M106.935,436.72a3.612,3.612,0,0,0-5.01-.5" transform="translate(-99.143 -430.415)" fill="none" stroke="#7dbbf1" stroke-linecap="round" stroke-linejoin="round" stroke-width="0.848"/>
        <path id="Path_47095" data-name="Path 47095" d="M110.314,434.9s-3.325-2.735-5.867-.6" transform="translate(-99.792 -429.925)" fill="none" stroke="#7dbbf1" stroke-linecap="round" stroke-linejoin="round" stroke-width="0.848"/>
      </g>
      <g id="Group_28446" data-name="Group 28446" transform="translate(63.211 49.229)">
        <path id="Path_47096" data-name="Path 47096" d="M164.817,236.752c.754,4.678.508,9.676.745,9.429.622-.671,8.054-4.319,8.65-4.625a11.537,11.537,0,0,1,6.385-1.239c.5.025,1.995-.091,1.995-.091a3.63,3.63,0,0,1,1.995.091c.829.375,1.063,1.026.3,1.282a16.047,16.047,0,0,1-1.971.426s2.659-.055,4.755-.221c.789-.062.878,1.008.878,1.008s.333-.049.5-.085c1.067-.236,1.481,1.366,1.054,1.489a9.025,9.025,0,0,1-1.205.27c.269.105.74.85.066,1.048-.733.215-2.7.612-2.7.612.465,0,.852.9.581,1a51.769,51.769,0,0,1-5.292,1.363,26.682,26.682,0,0,1-3.94-.149c-.849-.128-2.646-.543-2.646-.543s-12.027,9.815-13.814,9.371c-1.323-.336-3.871-1.916-4.285-4.276s-3.277-16.443-3.277-16.443C154.7,229.366,163.676,229.672,164.817,236.752Z" transform="translate(-153.588 -231.289)" fill="#f4a484"/>
        <path id="Path_47097" data-name="Path 47097" d="M181.17,248.735a7,7,0,0,0,.691,3.336" transform="translate(-160.688 -235.78)" fill="none" stroke="#e08d68" stroke-linecap="round" stroke-linejoin="round" stroke-width="0.565"/>
        <path id="Path_47098" data-name="Path 47098" d="M188.972,246.076s-1.187,1.979-4.88,1.717c2.8.511,4.576,3.367,4.576,3.367" transform="translate(-161.441 -235.096)" fill="none" stroke="#e08d68" stroke-linecap="round" stroke-linejoin="round" stroke-width="0.565"/>
        <line id="Line_400" data-name="Line 400" x1="4.027" y2="0.578" transform="translate(28.392 14.845)" fill="none" stroke="#e08d68" stroke-linecap="round" stroke-linejoin="round" stroke-width="0.565"/>
        <line id="Line_401" data-name="Line 401" x1="6.061" y2="0.703" transform="translate(28.639 13.133)" fill="none" stroke="#e08d68" stroke-linecap="round" stroke-linejoin="round" stroke-width="0.565"/>
        <line id="Line_402" data-name="Line 402" x1="5.5" y2="0.517" transform="translate(28.953 11.526)" fill="none" stroke="#e08d68" stroke-linecap="round" stroke-linejoin="round" stroke-width="0.565"/>
      </g>
      <path id="Path_47099" data-name="Path 47099" d="M153.534,171.374a6.622,6.622,0,0,1,1.386,3.746c.27,2.582-1.742,6.011-1.742,6.011Z" transform="translate(-90.271 -166.637)" fill="#24292d"/>
      <path id="Path_47100" data-name="Path 47100" d="M157,282.865c.843,8-3.716,107.39-3.716,107.39H141.66s-3.645-70.7-3.154-81.016-1.74-20.1-1.083-26.373S155.578,269.364,157,282.865Z" transform="translate(-86.184 -193.368)" fill="#fe5456"/>
      <path id="Path_47101" data-name="Path 47101" d="M133.683,282.219c.011,35.934-14.56,107.094-14.56,107.094H107.139S113.178,308.357,113.4,298a178.1,178.1,0,0,1,1.733-18.9C116.374,268.475,133.679,268.69,133.683,282.219Z" transform="translate(-78.419 -192.427)" fill="#fe5456"/>
      <path id="Path_47102" data-name="Path 47102" d="M151.85,289.426c-.529-.293-1.133-.638-1.746-1.015-1.729-1.049-2.241-.815-14-.084l-.462.025c-1.158.067-2.3.075-3.408.033A41.627,41.627,0,0,1,117,284.659c.218-1.813.453-3.634.671-5.556,1.075-9.165,14.1-10.273,17.65-1.712,5.262-4.054,15.384-5.606,16.45,4.532C151.883,282.98,151.9,285.624,151.85,289.426Z" transform="translate(-80.959 -192.427)" fill="#fe5456" opacity="0.36" style="mix-blend-mode: multiply;isolation: isolate"/>
      <path id="Path_47103" data-name="Path 47103" d="M156.6,208.306c8.526,8,8.049,29.292,8.049,29.292s-7.85,5.219-12.521,3.183c0,0-3.532-21.834-1.668-28.568C151.6,208.1,155.018,206.818,156.6,208.306Z" transform="translate(-89.432 -175.99)" fill="#021946"/>
      <path id="Path_47104" data-name="Path 47104" d="M162.52,228.747c-.114,4.083-.083,7.923-.317,10.459-2.694,1.377-7.05,3.1-10.071,1.779,0,0-3.534-21.829-1.67-28.56a6.694,6.694,0,0,1,2.459-3.769l3.685-.143.016.017C157.033,208.967,162.939,213.8,162.52,228.747Z" transform="translate(-89.432 -176.197)" fill="#021946" opacity="0.36" style="mix-blend-mode: multiply;isolation: isolate"/>
      <path id="Path_47105" data-name="Path 47105" d="M124.988,204.06s-12.5,2.055-12.887,4.335,4.377,35.169,4.377,42.89a139.341,139.341,0,0,1-.9,15.027,78.684,78.684,0,0,0,19.586,2.632,82.516,82.516,0,0,0,15.672-1.6s-.554-9.5-.746-15.812,1.3-24.742,1.317-31.492a20.565,20.565,0,0,0-4.544-12.751c-1.486-1.724-9.3-3.538-9.3-3.538Z" transform="translate(-79.691 -174.971)" fill="#021946"/>
      <path id="Path_47106" data-name="Path 47106" d="M119.37,252.046c-1.074,1.939-1.922,3.559-2.585,4.9.025-.772.033-1.561.033-2.35,0-5.127-2.107-21.376-3.4-32.362l9.668-5.606C124.28,220.38,124.28,243.175,119.37,252.046Z" transform="translate(-80.036 -178.286)" fill="#021946" opacity="0.36" style="mix-blend-mode: multiply;isolation: isolate"/>
      <path id="Path_47107" data-name="Path 47107" d="M130.6,196.188l-1.139,4.638s4.909,8.183,10.706,7.365,1.869-7.7,1.869-7.7l.231-3.072-10.692-6.336Z" transform="translate(-84.166 -171.709)" fill="#e08d68"/>
      <path id="Path_47108" data-name="Path 47108" d="M147.106,173.131c.3,1.539.175,6.56-.127,10.437-.292,3.749-1.3,9.184-3.431,9.66s-11.278-1.291-11.705-6.552c-1.559-1.23-7.481-8.482-5.4-12.071C130.155,168.225,146.135,168.183,147.106,173.131Z" transform="translate(-83.277 -166.18)" fill="#f4a484"/>
      <ellipse id="Ellipse_1596" data-name="Ellipse 1596" cx="0.636" cy="0.95" rx="0.636" ry="0.95" transform="translate(55.723 13.892)" fill="#24292d"/>
      <path id="Path_47109" data-name="Path 47109" d="M152.436,184.294c0,.525-.285.951-.636.951s-.636-.426-.636-.951.284-.951.636-.951S152.436,183.77,152.436,184.294Z" transform="translate(-89.752 -169.718)" fill="#24292d"/>
      <path id="Path_47110" data-name="Path 47110" d="M144.676,181.708a2.326,2.326,0,0,0-3.241.533" transform="translate(-87.248 -169.181)" fill="none" stroke="#24292d" stroke-width="0.628"/>
      <path id="Path_47111" data-name="Path 47111" d="M149.6,181.351a2.326,2.326,0,0,1,3.241.533" transform="translate(-89.349 -169.089)" fill="none" stroke="#24292d" stroke-width="0.628"/>
      <path id="Path_47112" data-name="Path 47112" d="M148.921,186.506c.036,1.1,1.994,3.916,1.744,4.4s-1.783.792-1.783.792" transform="translate(-89.165 -170.532)" fill="none" stroke="#e5744c" stroke-width="0.732"/>
      <path id="Path_47113" data-name="Path 47113" d="M150.479,194.645a7.047,7.047,0,0,0-3.432.693s2.933.427,3.2.134A1.294,1.294,0,0,0,150.479,194.645Z" transform="translate(-88.693 -172.624)" fill="#fff"/>
      <path id="Path_47114" data-name="Path 47114" d="M147.228,173.278c-.465,1-3.645,2.453-9.482,2.132,0,0,2.921-.8,3.562-3.085a8.472,8.472,0,0,1-6.933,3.509,11.166,11.166,0,0,1-1.573,6.52s-1.316,1.739-1.121,3.137a5.755,5.755,0,0,1-2.13,4.2c-.555-4.16-4.911-12.293-4.063-16.874a5.423,5.423,0,0,1,5.037-4.714c1.9-3.026,8.931-4.267,13.514-1.767C147.431,168.183,148.076,171.461,147.228,173.278Z" transform="translate(-83.115 -164.994)" fill="#24292d"/>
      <path id="Path_47115" data-name="Path 47115" d="M134.533,185.846c-.976-2.4-4.266-2.2-4.284-.18a4.824,4.824,0,0,0,2.686,4.742C133.645,190.842,135.122,187.3,134.533,185.846Z" transform="translate(-84.368 -169.912)" fill="#f4a484"/>
      <g id="Group_28447" data-name="Group 28447" transform="translate(0 49.473)">
        <path id="Path_47116" data-name="Path 47116" d="M98.593,236.964c-.754,4.677-1.388,9.278-1.625,9.031-.622-.671-11.412-3.605-12.084-4.007a10.893,10.893,0,0,0-6.754-1.588l-1.995-.091a3.63,3.63,0,0,0-1.995.091c-.829.375-1.063,1.026-.3,1.282a16.049,16.049,0,0,0,1.971.426s-2.659-.055-4.755-.221c-.789-.062-.878,1.008-.878,1.008s-.333-.049-.5-.085c-1.067-.236-1.481,1.366-1.054,1.489a9.028,9.028,0,0,0,1.205.27c-.269.105-.74.849-.066,1.048.733.215,2.7.612,2.7.612-.465,0-.852.9-.581,1a51.824,51.824,0,0,0,5.293,1.363,26.669,26.669,0,0,0,3.939-.148c.85-.128,2.638-.2,2.638-.2s15.27,7.4,17.1,7.63c1.655.209,4.409-.376,5.3-2.875.806-2.269,4.154-16.087,4.154-16.087C109.186,229.806,99.734,229.884,98.593,236.964Z" transform="translate(-68.463 -231.617)" fill="#f4a484"/>
        <path id="Path_47117" data-name="Path 47117" d="M89.317,252.944a5.658,5.658,0,0,0,.9-2.364" transform="translate(-73.832 -236.499)" fill="none" stroke="#e08d68" stroke-linecap="round" stroke-linejoin="round" stroke-width="0.565"/>
        <path id="Path_47118" data-name="Path 47118" d="M80.778,246.076s1.187,1.979,4.88,1.717c-2.8.511-4.576,3.367-4.576,3.367" transform="translate(-71.633 -235.339)" fill="none" stroke="#e08d68" stroke-linecap="round" stroke-linejoin="round" stroke-width="0.565"/>
        <line id="Line_403" data-name="Line 403" x2="4.027" y2="0.578" transform="translate(4.258 14.601)" fill="none" stroke="#e08d68" stroke-linecap="round" stroke-linejoin="round" stroke-width="0.565"/>
        <line id="Line_404" data-name="Line 404" x2="6.061" y2="0.703" transform="translate(1.975 12.889)" fill="none" stroke="#e08d68" stroke-linecap="round" stroke-linejoin="round" stroke-width="0.565"/>
        <line id="Line_405" data-name="Line 405" x2="5.5" y2="0.517" transform="translate(2.223 11.283)" fill="none" stroke="#e08d68" stroke-linecap="round" stroke-linejoin="round" stroke-width="0.565"/>
      </g>
      <path id="Path_47119" data-name="Path 47119" d="M110.592,209.464c-4.146,8.271-4.289,26.95-4.289,26.95s8.175,4.254,13.037,2.283c0,0,3.153-17.779,1.919-24.3C120.5,210.416,112.61,205.439,110.592,209.464Z" transform="translate(-78.204 -176.058)" fill="#021946"/>
    </g>
    <g id="Group_28453" data-name="Group 28453" transform="translate(243.402 134.674)">
      <g id="Group_28449" data-name="Group 28449" transform="translate(0 196.314)">
        <path id="Path_47120" data-name="Path 47120" d="M339.106,428.689c-.273,3.533.888,11.419-.033,11.606H312.98s-.26-3.973,2.831-4.834c4.129-1.151,9.153-2,11.03-3.65.927-.814,1.376-3.122,1.376-3.122Z" transform="translate(-312.975 -428.689)" fill="#fe5456"/>
        <path id="Path_47121" data-name="Path 47121" d="M322.621,436.316s3.316-.3,4.5,1.586" transform="translate(-315.458 -430.648)" fill="none" stroke="#7dbbf1" stroke-linecap="round" stroke-linejoin="round" stroke-width="0.848"/>
        <path id="Path_47122" data-name="Path 47122" d="M326.651,435.124s3.316-.3,4.5,1.587" transform="translate(-316.495 -430.341)" fill="none" stroke="#7dbbf1" stroke-linecap="round" stroke-linejoin="round" stroke-width="0.848"/>
      </g>
      <g id="Group_28450" data-name="Group 28450" transform="translate(41.336 196.314)">
        <path id="Path_47123" data-name="Path 47123" d="M368.641,428.689c.333,5.074-.547,11.179.882,11.606h17.342a7.146,7.146,0,0,0-2.067-5.2c-.948-.968-3.186-2.076-4.2-3.1-.923-.926-1.066-3.306-1.066-3.306Z" transform="translate(-368.641 -428.689)" fill="#fe5456"/>
        <path id="Path_47124" data-name="Path 47124" d="M382.7,436.72a3.613,3.613,0,0,1,5.011-.5" transform="translate(-372.26 -430.415)" fill="none" stroke="#7dbbf1" stroke-linecap="round" stroke-linejoin="round" stroke-width="0.848"/>
        <path id="Path_47125" data-name="Path 47125" d="M379.023,434.9s3.325-2.735,5.868-.6" transform="translate(-371.314 -429.925)" fill="none" stroke="#7dbbf1" stroke-linecap="round" stroke-linejoin="round" stroke-width="0.848"/>
      </g>
      <path id="Path_47126" data-name="Path 47126" d="M326.423,282.492c-.843,8,4.771,107.7,4.771,107.7H342.82s3.645-70.7,3.154-81.016,1.74-20.1,1.083-26.373S327.846,268.991,326.423,282.492Z" transform="translate(-316.415 -192.801)" fill="#021946"/>
      <path id="Path_47127" data-name="Path 47127" d="M348.82,282.219c-.011,35.934,14.56,107.094,14.56,107.094h11.983S369.325,308.357,369.1,298a178.114,178.114,0,0,0-1.732-18.9C366.129,268.475,348.824,268.69,348.82,282.219Z" transform="translate(-322.202 -191.926)" fill="#021946"/>
      <path id="Path_47128" data-name="Path 47128" d="M362.3,285.182a39.9,39.9,0,0,1-15.267,3.24c-.671,0-1.36-.016-2.048-.059-.629-.033-1.242-.076-1.838-.1-8.779-.461-13.613-.26-15.132.16a3.341,3.341,0,0,0-1.6,1.242c-.093-3.97-.1-6.74.016-7.822,1.074-10.222,11.968-8.384,17.482-4.179a9.22,9.22,0,0,1,4.054-4.642l8.292-.6a8.169,8.169,0,0,1,5.329,6.907C361.819,281.355,362.071,283.269,362.3,285.182Z" transform="translate(-316.415 -192.147)" fill="#021946" opacity="0.36" style="mix-blend-mode: multiply;isolation: isolate"/>
      <path id="Path_47129" data-name="Path 47129" d="M330.724,208.306c-8.526,8-8.05,29.292-8.05,29.292s7.851,5.219,12.522,3.183c0,0,3.532-21.834,1.668-28.568C335.724,208.1,332.309,206.818,330.724,208.306Z" transform="translate(-315.47 -175.489)" fill="#1b84c1"/>
      <path id="Path_47130" data-name="Path 47130" d="M355.434,204.06s11.9,3.784,12.286,6.065-6.235,33.068-6.235,40.788.843,15.4.843,15.4a78.691,78.691,0,0,1-19.586,2.632,85.406,85.406,0,0,1-16.727-1.908s.521-9.445.711-15.761.33-24.486.315-31.236a20.556,20.556,0,0,1,4.544-12.751c1.486-1.724,11.275-3.538,11.275-3.538Z" transform="translate(-316.332 -174.47)" fill="#1b84c1"/>
      <path id="Path_47131" data-name="Path 47131" d="M361.793,250.912c0,2.148.067,4.288.159,6.261-1.9-3.751-5.488-7.2-7.31-7.78-2.316-.738-21.9-8.736-23.433-8.418a14.3,14.3,0,0,1-4-.31c.034-2.257.051-4.633.076-6.966l10.239-28.686c2.837-.747,5.64-1.268,5.64-1.268-.839.672-2.006,4.49-2.862,6.387s-5.565,21.78-5.565,21.78l16,1.586c2-15.258,6.3-21.41,6.3-21.41l9.517,8.032C364.713,230.483,361.793,245.783,361.793,250.912Z" transform="translate(-316.64 -174.469)" fill="#1b84c1" opacity="0.36" style="mix-blend-mode: multiply;isolation: isolate"/>
      <path id="Path_47132" data-name="Path 47132" d="M359.684,196.188l1.139,4.638s-4.91,8.183-10.706,7.365-1.869-7.7-1.869-7.7l-.231-3.072,10.692-6.336Z" transform="translate(-321.72 -171.208)" fill="#e08d68"/>
      <path id="Path_47133" data-name="Path 47133" d="M341.095,173.2a52.333,52.333,0,0,0-.292,10.38c.292,3.749,1.3,9.176,3.429,9.652s11.28-1.283,11.706-6.544c1.559-1.23,7.481-8.482,5.4-12.071C357.626,168.236,342.065,168.252,341.095,173.2Z" transform="translate(-320.106 -165.69)" fill="#f4a484"/>
      <ellipse id="Ellipse_1597" data-name="Ellipse 1597" cx="0.636" cy="0.95" rx="0.636" ry="0.95" transform="translate(27.404 14.393)" fill="#24292d"/>
      <ellipse id="Ellipse_1598" data-name="Ellipse 1598" cx="0.636" cy="0.95" rx="0.636" ry="0.95" transform="translate(21.842 14.018)" fill="#24292d"/>
      <path id="Path_47134" data-name="Path 47134" d="M349.226,182.158a2.459,2.459,0,0,1,3.429.123" transform="translate(-322.307 -168.743)" fill="none" stroke="#24292d" stroke-width="0.848"/>
      <path id="Path_47135" data-name="Path 47135" d="M344.9,181.654a2.459,2.459,0,0,0-3.429.123" transform="translate(-320.311 -168.613)" fill="none" stroke="#24292d" stroke-width="0.848"/>
      <path id="Path_47136" data-name="Path 47136" d="M345.549,186.506c-.035,1.157-1.994,4.114-1.744,4.627s1.783.832,1.783.832" transform="translate(-320.905 -170.031)" fill="none" stroke="#e08d68" stroke-width="0.751"/>
      <path id="Path_47137" data-name="Path 47137" d="M343.191,195.5a4.619,4.619,0,0,1,3.383.234s-2.933.427-3.2.134S343.191,195.5,343.191,195.5Z" transform="translate(-320.75 -172.291)" fill="#fff"/>
      <path id="Path_47138" data-name="Path 47138" d="M340.446,173.813c.466,1,8.857.929,13.438.838,0,0-1.364,4.225.613,7.529,0,0,1.316,1.739,1.121,3.137-.183,1.314,1.98,4.372,2.109,3.314.4-3.289,4.961-12.648,3.727-17.141-1.045-3.8-3.432-3.624-3.432-3.624-1.9-3.026-6.633-1.395-16.139-3.489C338.108,163.545,339.6,172,340.446,173.813Z" transform="translate(-319.785 -164.32)" fill="#24292d"/>
      <path id="Path_47139" data-name="Path 47139" d="M359.031,185.846c.976-2.4,4.265-2.2,4.283-.18a4.824,4.824,0,0,1-2.686,4.742C359.918,190.842,358.442,187.3,359.031,185.846Z" transform="translate(-324.796 -169.411)" fill="#f4a484"/>
      <g id="Group_28451" data-name="Group 28451" transform="translate(6.493 46.991)">
        <path id="Path_47140" data-name="Path 47140" d="M324.763,244.952a7.622,7.622,0,0,0,2.427.636,18.879,18.879,0,0,0,2.372-.071s21.235,7.446,23.251,7.328c1.495-.094,4.747-1.053,6.148-3.434,1.339-2.276,4.31-11.39,5.408-15.435,2.066-7.606-8.1-8.81-10.764-1.41-1.76,4.89-2.234,9.972-2.439,9.658-.535-.85-18.187-2.643-18.547-3.284-.707-1.261-3.242-1.831-3.962-1.862a6.028,6.028,0,0,1-1.458-.248c-.975-.214-1.819.734-.874,1.157.724.324,2.038.858,2.038.858s-4.544-1.621-5.417-1.95a.885.885,0,0,0-.677,1.635c1.2.682,1.437.784,1.437.784a2.326,2.326,0,0,0-1.625-.362c-.536.134-.223,1.64.369,1.816l.313.091a.981.981,0,0,0,.466,1.747l.275.1s-.95.809-.2,1.305S324.763,244.952,324.763,244.952Z" transform="translate(-321.719 -227.601)" fill="#f4a484"/>
      </g>
      <g id="Group_28452" data-name="Group 28452" transform="translate(6.256 24.974)">
        <path id="Path_47141" data-name="Path 47141" d="M339.335,205.505c-.526,2.168-1.44,1.637-1.722,2.271-.3.671-5.976,22.121-6.184,23.1-.673,3.167-4.681,5.654-6.988,4.605-2.515-1.143-3.385-4.665-2.921-6.662.457-1.968,10.694-22.684,10.694-22.684s.775-6.456,1.181-6.685a21.479,21.479,0,0,1,3.5-1.437c.762-.155,4.352.023,4.329,0a1.841,1.841,0,0,1-.636,1.207,26.671,26.671,0,0,1-3.062.46s2.589.137,2.707.391a17.457,17.457,0,0,1,.307,3.511A8.143,8.143,0,0,1,339.335,205.505Z" transform="translate(-321.4 -197.952)" fill="#f4a484"/>
        <line id="Line_406" data-name="Line 406" y1="0.294" x2="1.24" transform="translate(13.785 1.934)" fill="none" stroke="#e08d68" stroke-linecap="round" stroke-linejoin="round" stroke-width="0.565"/>
        <path id="Path_47142" data-name="Path 47142" d="M340.292,202.452s3.652.048,3.762.139.365,1.709.635,1.957.408.22.408.22" transform="translate(-326.263 -199.11)" fill="none" stroke="#e08d68" stroke-linecap="round" stroke-linejoin="round" stroke-width="0.565"/>
        <path id="Path_47143" data-name="Path 47143" d="M339.52,204.387s2.984.33,3.166.411.511,1.756,1.087,1.784.717-.631.717-.631" transform="translate(-326.065 -199.608)" fill="none" stroke="#e08d68" stroke-linecap="round" stroke-linejoin="round" stroke-width="0.565"/>
        <line id="Line_407" data-name="Line 407" x2="2.43" y2="0.37" transform="translate(13.632 6.247)" fill="none" stroke="#e08d68" stroke-linecap="round" stroke-linejoin="round" stroke-width="0.565"/>
        <path id="Path_47144" data-name="Path 47144" d="M341.805,207.5c-.576.055-.3,1.07,0,1.125a4.8,4.8,0,0,0,1.536,0,1.679,1.679,0,0,0,.633-1.15,7.013,7.013,0,0,0-.33-1.113" transform="translate(-326.566 -200.117)" fill="none" stroke="#e08d68" stroke-linecap="round" stroke-linejoin="round" stroke-width="0.565"/>
        <path id="Path_47145" data-name="Path 47145" d="M342.612,210.584a5.25,5.25,0,0,1-3.362.417" transform="translate(-325.995 -201.204)" fill="none" stroke="#e08d68" stroke-linecap="round" stroke-linejoin="round" stroke-width="0.565"/>
        <path id="Path_47146" data-name="Path 47146" d="M342.2,211.676s-.593.383-1.912-.1" transform="translate(-326.263 -201.459)" fill="none" stroke="#e08d68" stroke-linecap="round" stroke-linejoin="round" stroke-width="0.565"/>
        <path id="Path_47147" data-name="Path 47147" d="M342.772,197.982s3.785.042,3.954.042-.155,1.087-.636,1.207-3.062.46-3.062.46a12.418,12.418,0,0,1,2.707.391c.052.21.2,1.357.2,1.357" transform="translate(-326.902 -197.959)" fill="none" stroke="#e08d68" stroke-linecap="round" stroke-linejoin="round" stroke-width="0.565"/>
      </g>
      <path id="Path_47148" data-name="Path 47148" d="M376.591,211.691c3.9,4.255-4.669,27.488-4.669,27.488a44.742,44.742,0,0,1-11.533-2.428s3.737-20.233,5.192-23.079C367.426,210.063,373.548,208.373,376.591,211.691Z" transform="translate(-325.181 -176.055)" fill="#1b84c1"/>
      <path id="Path_47149" data-name="Path 47149" d="M331.6,241.673c-.577,2.417-2.669,5.869-6.333,5.252-3.034-.511-3.629-4.363-3.629-4.363" transform="translate(-315.206 -184.232)" fill="none" stroke="#e08d68" stroke-linecap="round" stroke-linejoin="round" stroke-width="0.565"/>
    </g>
    <g id="Group_28454" data-name="Group 28454" transform="translate(48.061 62.386)">
      <circle id="Ellipse_1599" data-name="Ellipse 1599" cx="27.089" cy="27.089" r="27.089" transform="translate(0 21.163) rotate(-22.994)" fill="#dadeea"/>
      <path id="Path_47150" data-name="Path 47150" d="M82.877,114.068a3.455,3.455,0,1,1-3.455-3.455A3.455,3.455,0,0,1,82.877,114.068Z" transform="translate(-56.575 -78.55)" fill="#fff"/>
      <path id="Path_47151" data-name="Path 47151" d="M99.94,114.068a3.455,3.455,0,1,1-3.455-3.455A3.455,3.455,0,0,1,99.94,114.068Z" transform="translate(-60.967 -78.55)" fill="#fff"/>
      <path id="Path_47152" data-name="Path 47152" d="M117,114.068a3.455,3.455,0,1,1-3.455-3.455A3.455,3.455,0,0,1,117,114.068Z" transform="translate(-65.359 -78.55)" fill="#fff"/>
      <path id="Path_47153" data-name="Path 47153" d="M96.085,148.413s2.782,6.832,13.857,7.2c0,0-4.745-3.388-4.782-9Z" transform="translate(-61.753 -87.817)" fill="#dadeea"/>
    </g>
    <g id="Group_28455" data-name="Group 28455" transform="translate(277.865 86.662)">
      <circle id="Ellipse_1600" data-name="Ellipse 1600" cx="27.089" cy="27.089" r="27.089" transform="translate(0 12.256) rotate(-13.074)" fill="#dadeea"/>
      <path id="Path_47154" data-name="Path 47154" d="M415.582,142.714a3.455,3.455,0,1,0,3.455-3.455A3.455,3.455,0,0,0,415.582,142.714Z" transform="translate(-373.852 -110.2)" fill="#fff"/>
      <path id="Path_47155" data-name="Path 47155" d="M398.519,142.714a3.455,3.455,0,1,0,3.455-3.455A3.455,3.455,0,0,0,398.519,142.714Z" transform="translate(-369.46 -110.2)" fill="#fff"/>
      <path id="Path_47156" data-name="Path 47156" d="M381.456,142.714a3.455,3.455,0,1,0,3.455-3.455A3.455,3.455,0,0,0,381.456,142.714Z" transform="translate(-365.067 -110.2)" fill="#fff"/>
      <path id="Path_47157" data-name="Path 47157" d="M399.966,177.059s-2.782,6.832-13.857,7.2c0,0,4.745-3.388,4.782-9Z" transform="translate(-366.265 -119.467)" fill="#dadeea"/>
    </g>
    <g id="Group_28456" data-name="Group 28456" transform="translate(145.547 321.882)">
      <path id="Path_47158" data-name="Path 47158" d="M190.514,438.05a23.581,23.581,0,0,0-9.356-18.082s13.649,1.513,14.759,18.081Z" transform="translate(-181.158 -417.339)" fill="#48be97"/>
      <path id="Path_47159" data-name="Path 47159" d="M195.69,437.137s-1.283-17.165,14.019-20.71c0,0-8.8,6.192-9.673,20.71Z" transform="translate(-184.892 -416.427)" fill="#36a871"/>
      <path id="Path_47160" data-name="Path 47160" d="M195.7,439.195s3.478-15.308,17.969-14.761c0,0-10.968,6.158-11.6,14.761Z" transform="translate(-184.901 -418.485)" fill="#48be97"/>
    </g>
    <g id="Group_28457" data-name="Group 28457" transform="translate(217.886 326.373)">
      <path id="Path_47161" data-name="Path 47161" d="M293.368,440.819s-1.946-6.473,6.7-9.985c0,0-9.777-1.883-10.573,9.985Z" transform="translate(-281.398 -424.598)" fill="#48be97"/>
      <path id="Path_47162" data-name="Path 47162" d="M292.128,438.694a28.114,28.114,0,0,1,1.936-16.22s-6.928,3.4-5.049,16.22Z" transform="translate(-281.19 -422.474)" fill="#36a871"/>
      <path id="Path_47163" data-name="Path 47163" d="M289.527,441.582s-.557-8.269-10.937-7.876c0,0,7.431,2.4,6.379,7.876Z" transform="translate(-278.59 -425.362)" fill="#48be97"/>
    </g>
  </g>
</svg>