<svg xmlns="http://www.w3.org/2000/svg" width="351.06" height="346.095" viewBox="0 0 351.06 346.095"><defs><style>.a{fill:#fafafa;}.b{fill:#ff725e;}.c{opacity:0.15;}.d,.z{fill:#fff;}.e,.y{opacity:0.2;}.f{fill:#e0e0e0;}.g{fill:#ebebeb;}.h{fill:#ffbda7;}.i{fill:#f0f0f0;}.j{fill:#37474f;}.k{opacity:0.25;}.l{fill:#455a64;}.m{fill:#f5f5f5;}.n{fill:#263238;}.o{fill:#f0997a;}.p{opacity:0.05;}.q,.z{opacity:0.3;}.r{fill:#b16668;}.s{fill:#f28f8f;}.t{opacity:0.85;}.u{opacity:0.7;}.aa,.v{opacity:0.1;}.w{opacity:0.6;}.x{opacity:0.4;}</style></defs><g transform="translate(-935 -2393.001)"><g transform="translate(935 2537.02)"><ellipse class="a" cx="175" cy="101.038" rx="175" ry="101.038" transform="translate(0 0)"/></g><g transform="translate(1099.427 2607.054)"><path class="b" d="M316.54,388.976l51.492-25.746,20.509,9.07Z" transform="translate(-316.54 -262.511)"/><g class="c" transform="translate(0 100.719)"><path class="d" d="M316.54,388.976l51.492-25.746,20.509,9.07Z" transform="translate(-316.54 -363.23)"/></g><path class="b" d="M316.54,383.351l45.36-30.314-8.126-11.677Z" transform="translate(-316.54 -256.886)"/><g class="c" transform="translate(0 84.474)"><path class="d" d="M316.54,383.351l45.36-30.314-8.126-11.677Z" transform="translate(-316.54 -341.36)"/></g><path class="b" d="M361.9,357.08l-.862,8.06-44.5,22.255Z" transform="translate(-316.54 -260.929)"/><g class="e" transform="translate(0 96.151)"><path d="M361.9,357.08l-.862,8.06-44.5,22.255Z" transform="translate(-316.54 -357.08)"/></g><path class="f" d="M387.307,354.23a.483.483,0,0,1-.334-.126.5.5,0,0,1-.052-.743l.988-1.159a.5.5,0,0,1,.743-.059.5.5,0,0,1,.059.743c-.327.394-.661.78-1,1.174a.527.527,0,0,1-.409.171Z" transform="translate(-334.604 -259.625)"/><path class="f" d="M388.508,318.019a.5.5,0,0,1-.409-.817q.906-1.189,1.76-2.407a.505.505,0,0,1,.706-.126.513.513,0,0,1,.126.743c-.572.817-1.166,1.627-1.775,2.436a.513.513,0,0,1-.409.171Zm4.516-6.6a.483.483,0,0,1-.267-.074.5.5,0,0,1-.171-.7c.52-.854,1.025-1.708,1.486-2.578a.5.5,0,0,1,.691-.193.513.513,0,0,1,.2.691q-.735,1.316-1.53,2.607a.5.5,0,0,1-.386.245Zm3.8-7.034a.609.609,0,0,1-.215-.052.513.513,0,0,1-.245-.676c.423-.906.832-1.82,1.2-2.726a.513.513,0,0,1,.943.394c-.379.914-.8,1.85-1.218,2.763a.52.52,0,0,1-.446.3Zm2.971-7.428a.387.387,0,0,1-.156,0,.5.5,0,0,1-.334-.639c.312-.951.594-1.909.854-2.852a.5.5,0,0,1,.624-.357.505.505,0,0,1,.357.624c-.26.958-.55,1.931-.862,2.9a.505.505,0,0,1-.483.319Zm1.954-7.755h-.089a.52.52,0,0,1-.416-.594c.178-.966.334-1.954.461-2.971a.513.513,0,1,1,1.01.126c-.126,1-.282,2.006-.461,2.971a.513.513,0,0,1-.505.461Zm.877-7.948h0a.52.52,0,0,1-.49-.535c0-.743.044-1.552.052-2.332v-.639a.5.5,0,0,1,.505-.513h0a.5.5,0,0,1,.505.5v.654c0,.8,0,1.59-.052,2.377a.505.505,0,0,1-.524.484Zm-.223-7.993a.505.505,0,0,1-.505-.461c-.1-.98-.215-1.976-.357-2.971a.513.513,0,0,1,.431-.579.505.505,0,0,1,.579.431c.141,1,.267,2.006.357,2.971a.505.505,0,0,1-.461.55Zm-1.263-7.9a.513.513,0,0,1-.5-.394c-.215-.958-.468-1.931-.743-2.875a.512.512,0,0,1,.349-.631.5.5,0,0,1,.631.342c.282.966.542,1.954.743,2.934a.5.5,0,0,1-.379.609Zm-2.392-7.629a.512.512,0,0,1-.475-.327c-.364-.906-.743-1.827-1.189-2.719a.513.513,0,0,1,.245-.676.5.5,0,0,1,.676.245c.431.906.839,1.842,1.211,2.771a.52.52,0,0,1-.282.669.549.549,0,0,1-.19.037Zm-3.551-7.153a.512.512,0,0,1-.438-.253c-.505-.847-1.047-1.686-1.6-2.5a.513.513,0,1,1,.839-.579c.565.832,1.114,1.686,1.634,2.555a.513.513,0,0,1-.178.7.475.475,0,0,1-.26.077Zm-4.628-6.522a.513.513,0,0,1-.394-.178c-.631-.743-1.292-1.486-1.961-2.228a.513.513,0,0,1,.743-.7c.683.743,1.359,1.486,2.006,2.273a.5.5,0,0,1-.067.743.49.49,0,0,1-.334.089ZM385,238.315a.49.49,0,0,1-.342-.126c-.743-.654-1.486-1.3-2.28-1.909a.513.513,0,0,1,.639-.8c.743.624,1.567,1.278,2.318,1.946a.513.513,0,0,1,.045.743.49.49,0,0,1-.386.149Zm-6.373-4.828a.52.52,0,0,1-.275-.082c-.847-.542-1.708-1.047-2.555-1.486a.509.509,0,1,1,.49-.891c.869.475,1.746,1,2.615,1.545a.491.491,0,0,1-.282.914Z" transform="translate(-331.713 -228.494)"/><path class="f" d="M369.387,229.051h-.156a9.118,9.118,0,0,0-1.367-.4.513.513,0,0,1,.149-1.01,10.344,10.344,0,0,1,1.567.386.505.505,0,0,1,.327.639.5.5,0,0,1-.52.386Z" transform="translate(-329.638 -227.639)"/></g><g transform="translate(1139.757 2645.687) rotate(-54.975)"><path class="b" d="M361.418,379.277l-32.1-16.047-12.783,5.653Z" transform="translate(-307.791 -263.579)"/><g class="c" transform="translate(8.749 99.652)"><path class="d" d="M361.418,379.277l-32.1-16.047-12.783,5.653Z" transform="translate(-316.54 -363.23)"/></g><path class="b" d="M344.815,367.533,316.54,348.638l5.065-7.278Z" transform="translate(-291.188 -251.834)"/><g class="c" transform="translate(25.352 89.526)"><path class="d" d="M344.815,367.533,316.54,348.638l5.065-7.278Z" transform="translate(-316.54 -341.36)"/></g><path class="b" d="M316.54,357.08l.537,5.023,27.738,13.871Z" transform="translate(-291.188 -260.276)"/><g class="e" transform="translate(25.352 96.804)"><path d="M316.54,357.08l.537,5.023,27.738,13.871Z" transform="translate(-316.54 -357.08)"/></g><path class="f" d="M388.322,354.23a.483.483,0,0,0,.334-.126.5.5,0,0,0,.052-.743l-.988-1.159a.527.527,0,1,0-.8.684c.327.394.661.78,1,1.174a.527.527,0,0,0,.409.171Z" transform="translate(-369.543 -259.625)"/><path class="f" d="M390.22,318.019a.5.5,0,0,0,.409-.817q-.906-1.189-1.76-2.407a.505.505,0,0,0-.706-.126.513.513,0,0,0-.126.743q.858,1.225,1.775,2.436a.513.513,0,0,0,.409.171Zm-4.516-6.6a.483.483,0,0,0,.267-.074.5.5,0,0,0,.171-.7c-.52-.854-1.025-1.708-1.486-2.578a.5.5,0,0,0-.691-.193.513.513,0,0,0-.2.691q.735,1.314,1.53,2.607a.5.5,0,0,0,.386.245Zm-3.8-7.034a.608.608,0,0,0,.215-.052.513.513,0,0,0,.245-.676c-.423-.906-.832-1.82-1.2-2.726a.513.513,0,0,0-.943.394c.379.914.8,1.85,1.218,2.763a.52.52,0,0,0,.446.3Zm-2.971-7.428a.386.386,0,0,0,.156,0,.5.5,0,0,0,.334-.639c-.312-.951-.594-1.909-.854-2.852a.508.508,0,1,0-.981.267c.26.958.55,1.931.862,2.9a.505.505,0,0,0,.483.319Zm-1.954-7.755h.089a.52.52,0,0,0,.416-.594c-.178-.966-.334-1.954-.461-2.971a.513.513,0,1,0-1.01.126c.126,1,.282,2.006.461,2.971a.513.513,0,0,0,.505.461Zm-.877-7.948h0a.52.52,0,0,0,.49-.535c0-.743-.044-1.552-.052-2.332v-.639a.5.5,0,0,0-.505-.513h0a.5.5,0,0,0-.505.5v.654c0,.8,0,1.59.052,2.377a.5.5,0,0,0,.525.484Zm.223-7.993a.505.505,0,0,0,.505-.461c.1-.98.215-1.976.357-2.971a.513.513,0,0,0-.431-.579.505.505,0,0,0-.579.431c-.141,1-.267,2.006-.357,2.971a.505.505,0,0,0,.461.55Z" transform="translate(-375.535 -228.494)"/></g><g transform="translate(956.764 2638.317)"><ellipse class="g" cx="52.123" cy="30.091" rx="52.123" ry="30.091" transform="translate(0 0)"/></g><g transform="translate(961.853 2426.201)"><g transform="translate(16.825 95.546)"><path class="h" d="M75.972,369.239c3.447,1.441,9.471,1.946,11.514-.594.141-5.943,4.457-32.045,4.457-32.045H74.1Z" transform="translate(-73.439 -230.355)"/><path class="i" d="M73.59,385.575v-2.34s1.2-.624,1.6,1.813-.7,13.319,1.916,16.8,13.772-1.114,13.987-3.335c0,.928.2,5.311-1.79,8.334s-8.684,1.931-11.075.854-3.625-3.536-4.219-6.143c-.631-2.734-.461-4.932.082-9.293A16.008,16.008,0,0,0,73.59,385.575Z" transform="translate(-73.308 -242.33)"/><path class="j" d="M87.734,375.925c0,.631.082,1.27.119,1.909.074,1.263.163,2.533.349,3.8.676,4.494,2.741,9.657,2.919,14.18a10.83,10.83,0,0,1-1.218,5.029c-1.077,1.976-3.6,3.878-5.541,3.952-3.907.156-5.475-.973-6.916-2.808-2.971-3.818-3.833-6.217-3.135-10.548a26.252,26.252,0,0,0,.572-6.411c-.059-1.107-1.218-4.212-1.263-4.836a20.368,20.368,0,0,1,.565-4.457c.059-.267.26-1.1.319-1.367.275-1.352,0-2.132.431-2.726a.743.743,0,0,1,.52-.319l.089,1.6c.089.988.475.847.5,1.6.045,1.04-.163,2.176-.045,2.459s.2.045.5-.238.639-.149.981.594a6.668,6.668,0,0,1,.267-2.1c.661-.824,3.981-1.864,4.969-1.857C84.45,373.392,87.674,374.8,87.734,375.925Z" transform="translate(-73.316 -239.284)"/><path class="b" d="M75.209,383.519c1.241,2.756.052,9.055.743,8.75a5.883,5.883,0,0,0,1.545-1.575l.854,2.035a18.047,18.047,0,0,0-1.374,3.714,5.134,5.134,0,0,0,3.239,3.491c2.169.884,6.091.312,7.376-.29a6.433,6.433,0,0,0,2.756-3.714,4.972,4.972,0,0,0-1-2.422l.1-2.689.594.282a32.039,32.039,0,0,1,1.04,6.2,10.831,10.831,0,0,1-1.218,5.029c-1.077,1.976-3.6,3.877-5.541,3.952-3.907.156-5.475-.973-6.916-2.808-2.971-3.818-3.833-6.217-3.135-10.548a26.251,26.251,0,0,0,.572-6.411c-.059-1.107-1.218-4.212-1.263-4.836a20.368,20.368,0,0,1,.565-4.457C73.731,379.8,73.976,380.771,75.209,383.519Z" transform="translate(-73.308 -240.802)"/><g class="k" transform="translate(0.282 136.418)"><path d="M75.209,383.519c1.241,2.756.052,9.055.743,8.75a5.883,5.883,0,0,0,1.545-1.575l.854,2.035a18.047,18.047,0,0,0-1.374,3.714,5.134,5.134,0,0,0,3.239,3.491c2.169.884,6.091.312,7.376-.29a6.433,6.433,0,0,0,2.756-3.714,4.972,4.972,0,0,0-1-2.422l.1-2.689.594.282a32.039,32.039,0,0,1,1.04,6.2,10.831,10.831,0,0,1-1.218,5.029c-1.077,1.976-3.6,3.877-5.541,3.952-3.907.156-5.475-.973-6.916-2.808-2.971-3.818-3.833-6.217-3.135-10.548a26.251,26.251,0,0,0,.572-6.411c-.059-1.107-1.218-4.212-1.263-4.836a20.368,20.368,0,0,1,.565-4.457C73.731,379.8,73.976,380.771,75.209,383.519Z" transform="translate(-73.59 -377.22)"/></g><path class="b" d="M85.078,394.733c1.664-.149,3.974-.3,3.929-3.387s.126-7.272.126-7.272h0a55.019,55.019,0,0,0,1.255,5.371h0s.981,4.7-.178,6.247-8.542,1.552-10.236.394-2.006-3.6-2.392-7.9-.743-9.411-.743-9.411c.141.334.2.045.5-.238s.639-.149.981.594c.253,2.823,1.226,11.209,1.575,12.97S83.392,394.889,85.078,394.733Z" transform="translate(-74.144 -241.104)"/><path class="f" d="M90.624,397.775,90.4,399.03a18.37,18.37,0,0,0-10.34-2.971l-.4-1.486C87.408,394.261,90.624,397.775,90.624,397.775Z" transform="translate(-74.869 -245.26)"/><path class="f" d="M89.967,392.19l.067,1.738c-4.724-3.276-10.971-3.038-10.971-3.038l-.253-1.716C86.558,388.884,89.967,392.19,89.967,392.19Z" transform="translate(-74.65 -243.872)"/><path class="f" d="M89.557,387.342v1.723a21.356,21.356,0,0,0-11-4l-.215-1.367C86.125,383.413,89.557,387.342,89.557,387.342Z" transform="translate(-74.53 -242.463)"/><path class="f" d="M89.345,382.15l.074,1.746c-4.8-3.759-11.484-2.741-11.484-2.741l-.186-1.619C85.156,378.391,89.345,382.15,89.345,382.15Z" transform="translate(-74.378 -241.342)"/><path class="l" d="M87.91,407.588c-.832.334-.3-2.971-1.76-3.127s-5.281-.683-5.489.215-.676,3.053-1.352,2.815-3.053-.386-4.182-2.526a13.274,13.274,0,0,1-1.486-6.782c.1-2.526.743-7.287.513-9.144a6.078,6.078,0,0,0-.743-2.63V387.9a2.5,2.5,0,0,0,.267,1.1c.327,1,.119,3.714-.267,6.574-.5,3.714,0,7.369.743,8.966,1.723,3.781,2.6,5.987,9.545,6.269,6.121.253,7.666-6.388,7.28-10.273C90.651,402.826,90.577,406.525,87.91,407.588Z" transform="translate(-73.21 -243.165)"/><path class="m" d="M90.648,399.958a68.017,68.017,0,0,0-9.657.253l-.371-1.322a21.229,21.229,0,0,1,10.266-.186Z" transform="translate(-75.116 -246.188)"/><path class="m" d="M80.6,397.623s1.263-3.818,9.827-4.383a2.154,2.154,0,0,1,.067,1.738s-6.515.416-9.523,3.967Z" transform="translate(-75.111 -244.922)"/><path class="m" d="M79.66,393.022s1.671-3.848,10.236-4.412a1.642,1.642,0,0,1,0,1.723s-6.856.646-9.872,4.2Z" transform="translate(-74.869 -243.731)"/><path class="m" d="M78.81,387.624s2.228-3.922,10.808-4.494a2.645,2.645,0,0,1,.074,1.746s-7.621.914-10.63,4.457Z" transform="translate(-74.65 -242.322)"/><path class="m" d="M78.39,382.311s2.228-3.447,10.83-4.011a1.887,1.887,0,0,1,.059,1.582s-7.658.245-10.674,3.8Z" transform="translate(-74.542 -241.08)"/><path class="h" d="M118.1,344.014c2.162,5.437,6.878,4.175,12.19,1.137l1.33-34.8L113.87,313.8Z" transform="translate(-83.667 -223.604)"/><path class="i" d="M114.55,370.2c1.619,1.924,4.516,1.835,7.926,3.031a10.876,10.876,0,0,1,1.768.839h0c3.008,1.738,6.344,4.888,12.145,5.809,6.968,1.107,12.524-.587,13.683-1.552s1.092-1.708,1.2-3.127c-1.582,1.879-5.66,2.734-10.459,2.436s-7.762-2.407-12.353-5.883a15.9,15.9,0,0,0-7.748-3.573c-.379-.089-.743-.178-1.181-.312-2.444-.743-4.368-1.619-4.836-2.971a.609.609,0,0,1-.045-.141,22.974,22.974,0,0,0-.1,5.444Z" transform="translate(-83.813 -237.597)"/><path class="j" d="M127.7,352.517a6.01,6.01,0,0,1,2.533-1.486,4.167,4.167,0,0,1,2.689,1.686c.49.646,1.107,2.065,1.961,3.15,2.845,3.6,3.714,4.747,8.914,8.082,1.4.891,5.259,3.15,6.633,4.085a2.971,2.971,0,0,1-1,4.992c-2.37,1.04-10.162,2.139-15.881-.8-5.891-3.008-7.606-6.344-11.974-7.146-2.778-.513-6.262-1.968-6.826-3.335a11.591,11.591,0,0,1,.981-6.6,8.773,8.773,0,0,0,.624-3.566,2.639,2.639,0,0,1,.579-2.147,1.707,1.707,0,0,1,.669-.334c0,.134.193,1.352.193,1.352a5.871,5.871,0,0,0,.743.683c.572.513,1.24.743.594,1.946-.594,1.07.126,2.117,1.731,1.6a23.144,23.144,0,0,0,2.355-1.174,4.338,4.338,0,0,1,2.384-.409c.958.29,1.226,1.538,1.976,2.526C127.058,354.6,126.538,353.7,127.7,352.517Z" transform="translate(-83.871 -233.57)"/><path class="b" d="M133.559,374.728c-5.891-3.008-7.606-6.344-11.974-7.146-2.778-.513-6.262-1.968-6.826-3.335-.2-2.54-.23-3.84.535-5.467.178,2.845,2.644,2.682,5.868,3.083s6.908,5.943,8.914,5.987a35.023,35.023,0,0,0,6.626-1.241l2.058,1.56c-.958,1.374-5.2,1.486-3.788,2.422s2.971.639,7.9,1.449c2.971.49,6.418-1.151,5.779-2.622.743.438,1.344.839,1.753,1.114a2.971,2.971,0,0,1-1,4.992C147.071,376.563,139.278,377.662,133.559,374.728Z" transform="translate(-83.865 -236.059)"/><g class="k" transform="translate(30.772 122.721)"><path d="M133.559,374.728c-5.891-3.008-7.606-6.344-11.974-7.146-2.778-.513-6.262-1.968-6.826-3.335-.2-2.54-.23-3.84.535-5.467.178,2.845,2.644,2.682,5.868,3.083s6.908,5.943,8.914,5.987a35.023,35.023,0,0,0,6.626-1.241l2.058,1.56c-.958,1.374-5.2,1.486-3.788,2.422s2.971.639,7.9,1.449c2.971.49,6.418-1.151,5.779-2.622.743.438,1.344.839,1.753,1.114a2.971,2.971,0,0,1-1,4.992C147.071,376.563,139.278,377.662,133.559,374.728Z" transform="translate(-114.637 -358.78)"/></g><path class="f" d="M114.552,370.179c1.619,1.924,4.516,1.835,7.926,3.031a10.878,10.878,0,0,1,1.768.839h0c.743.386.743-.2.149-1.159a23.285,23.285,0,0,0-3.714-4.732,4.977,4.977,0,0,0-2.228-1.255c-2.763-.594-3.439-1.337-3.714-2.05a1.357,1.357,0,0,1-.082-.193A24.424,24.424,0,0,0,114.552,370.179Z" transform="translate(-83.815 -237.572)"/><path class="b" d="M115.453,370.377c-.149,1.01-.156,1.2.669,1.567A35.982,35.982,0,0,0,121,373.556c1.753.416,1.486-.156,1.53-.49s-2.838-2.228-3.573-2.644S115.453,370.377,115.453,370.377Z" transform="translate(-84.055 -239.003)"/><path class="l" d="M122.5,375.11a10.872,10.872,0,0,1,1.768.839h0c3.008,1.738,6.344,4.888,12.145,5.809a29.112,29.112,0,0,0,3.365.334H141a7.182,7.182,0,0,0,5.2-1.426c.624-.535-.052-3.432.594-3.714a9.873,9.873,0,0,0,4.583-.921s.683,3.462-.513,4.813c-2.228,2.228-9.315,2.919-14.856,1.916-5.839-1.055-8.914-3.878-11.373-5.467-2.726-1.76-5.549-1.664-8-2.622a5.2,5.2,0,0,1-2.028-1.4l-.067-1.218C116.2,374,119.093,373.914,122.5,375.11Z" transform="translate(-83.84 -239.472)"/><path class="b" d="M129.823,359.965a55.075,55.075,0,0,0-5.133-4.457c.416-.215.832-.453,1.144-.609a4.339,4.339,0,0,1,2.384-.409c.958.29,1.226,1.538,1.976,2.526,1.723,2.652,9.159,7.911,11.083,8.914s4.732-.817,4.732-.817l.052.037.334.215c.609.386,1.679,1.033,2.8,1.708h0a7.7,7.7,0,0,1-7.755,1.426C136.8,366.814,132.133,362.29,129.823,359.965Z" transform="translate(-86.45 -234.949)"/><path class="f" d="M148.477,366.929a7.144,7.144,0,0,0-7.517.5l1.2.832a5.942,5.942,0,0,1,4.145-.6,46.123,46.123,0,0,1,4.851,1.033Z" transform="translate(-90.634 -237.939)"/><path class="f" d="M144.672,364.078c-1.656-1.114-6.151-1.4-7.852-.26l1.077,1.159a8.253,8.253,0,0,1,4.353-.334,38.736,38.736,0,0,1,4.353.914Z" transform="translate(-89.57 -237.167)"/><path class="f" d="M141.608,361.1c-1.656-1.114-6.425-1.746-8.468-.557l1.137,1.181s.869-.557,3.67-.4a16.127,16.127,0,0,1,5.081,1.233Z" transform="translate(-88.623 -236.347)"/><path class="f" d="M138.458,357.181c-1.656-1.114-6.767-2.228-9.218-.453.1.557.743.973,1.419,1.2,0,0,.862-.542,3.662-.386a17.827,17.827,0,0,1,5.356,1.315Z" transform="translate(-87.62 -235.292)"/><path class="m" d="M152.326,369.235a14.6,14.6,0,0,0-5.712,1.835,1.887,1.887,0,0,1-1.114-.78,6.8,6.8,0,0,1,5.244-2.072,1.723,1.723,0,0,1,1.582,1.017Z" transform="translate(-91.802 -238.484)"/><path class="m" d="M149.529,366.9a4.754,4.754,0,0,0-3.283,3.439s-.936-.267-1.2-.832a6.873,6.873,0,0,1,3.157-3.536,1.887,1.887,0,0,1,1.326.929Z" transform="translate(-91.686 -237.909)"/><path class="m" d="M145.736,364.027s-2.971.869-3.573,3.409c0,0-.936-.267-1.2-.832a5.2,5.2,0,0,1,3.566-3.714,1.619,1.619,0,0,1,1.207,1.137Z" transform="translate(-90.634 -237.116)"/><path class="m" d="M142.094,360.3a6.473,6.473,0,0,0-4.2,3.61s-.929-.438-1.077-1.159a7.056,7.056,0,0,1,4.189-3.8,1.486,1.486,0,0,1,1.088,1.349Z" transform="translate(-89.57 -236.103)"/><path class="m" d="M138.875,356.173s-3.6,1.344-4.657,4.175c0,0-.929-.438-1.077-1.159,0,0,1.894-3.714,4.858-4.539A1.671,1.671,0,0,1,138.875,356.173Z" transform="translate(-88.623 -234.997)"/><path class="j" d="M77.34,200.077c-3.142,23.31-2.043,57.59-2.689,66.059-.409,5.363-1.4,9.612-1.352,20.613.052,11.142.988,23.77.988,23.77s9.048,4.375,15.963.572c0,0,3.588-24.513,6-38.062,2.117-11.885,5.155-33.583,5.155-33.583l2.028,23.146s-1.085,12.784.1,23.243c1.122,9.879,2.414,15.956,2.414,15.956a14.8,14.8,0,0,0,14.381.631s3.1-35.477,3.343-41.256c.282-6.581-.825-67.6-.825-67.6Z" transform="translate(-73.233 -193.57)"/><path class="l" d="M91.768,340.9s-1.954,1.582-8.869,1.27-9.129-2.013-9.129-2.013l.869,11.38a15.993,15.993,0,0,0,7.911,1.909c4.992.045,7.584-1.894,7.584-1.894Z" transform="translate(-73.354 -231.271)"/><path class="l" d="M114.92,326.549a33.925,33.925,0,0,0,9.263,1.4c5.7.171,8-1.486,8-1.486l-.966,10.511s-1.887,1.946-6.871,1.9a13.754,13.754,0,0,1-7.755-2.147Z" transform="translate(-83.937 -227.747)"/><path class="n" d="M111.14,245.7l2.117-18.57s8.914-2.563,13.824-9.2c0,0-.327,7.25-10.31,11.885l-3.112,16.453-.49,22.582Z" transform="translate(-82.965 -199.835)"/></g><path class="h" d="M174.857,98.822c.483-2.592.743-3.655.349-4.36-.282-.535-.617-.743-.973-.743.1-.743.111-2.065-1.189-2.34l.134-1.174c.1-.981-.357-1.664-1.062-1.768.631-1.686.565-3.075-.334-3.41-.3-.111-1.879,1.137-2.808,2.028-3.187,3.053-3.172,1.686-5.519,7.428-.8,1.968-2.444,4.747-3.046,8.022-.342,1.842.9,7.963-1.01,12.687-1.56,3.87-4.739,9.657-9,16.81,0,0-3.759-3.506-8.216-8.23-7.993-8.468-8.58-10.162-14.314-11.283-5.816,2.667-2.793,15.6.669,21.727a168.3,168.3,0,0,0,19.6,15.6c7.057,4.672,10.6,3.759,13.14-1.486,3.491-7.2,8.424-25.932,9.411-29.445.9-3.194,3.083-3.6,3.714-6.812.966-4.7-.691-7.762-.245-9.924C174.337,101.28,174.611,100.159,174.857,98.822Z" transform="translate(-69.599 -70.107)"/><path class="o" d="M158.044,147.872c-2.228,3.848-3.4,6.321-2.867,10.489-1.656-3.714-.527-7.978,1.753-11.551Z" transform="translate(-77.263 -85.998)"/><path class="o" d="M183.22,112.2c2.266,2.228,2.9,7.116,1.315,9.761C186.83,120.118,187.357,115.238,183.22,112.2Z" transform="translate(-84.678 -77.097)"/><path class="o" d="M176.151,97.39c0,.089-.067.163-.1.253-.141.334-.3.743-.483,1.092l.669,4.071-1.255,1.255a4.2,4.2,0,0,0-1.285,3.016l3.484-2.644Z" transform="translate(-82.229 -73.288)"/><path class="b" d="M126.789,121.4c4.286.943,5.541,1.382,7.97,3.655s12.8,13.452,12.8,13.452-3.424.661-6.448,5.333a15.615,15.615,0,0,0-2.815,8.513,70.827,70.827,0,0,1-10.281-8.78S119.569,128.42,126.789,121.4Z" transform="translate(-69.414 -79.463)"/><g transform="translate(92.766 7.924)"><path class="b" d="M187.564,75.811,175.984,82.5a1.025,1.025,0,0,0-.535.981l3.818,26.63a1.4,1.4,0,0,0,.743,1,1.656,1.656,0,0,0,1.337-.1l11.536-6.685a1.2,1.2,0,0,0,.565-1.092l-3.773-26.519a1.4,1.4,0,0,0-.743-1,1.657,1.657,0,0,0-1.367.1Z" transform="translate(-175.445 -75.61)"/><g class="p" transform="translate(0.001)"><path d="M187.564,75.811,175.984,82.5a1.025,1.025,0,0,0-.535.981l3.818,26.63a1.4,1.4,0,0,0,.743,1,1.656,1.656,0,0,0,1.337-.1l11.536-6.685a1.2,1.2,0,0,0,.565-1.092l-3.773-26.519a1.4,1.4,0,0,0-.743-1,1.657,1.657,0,0,0-1.367.1Z" transform="translate(-175.446 -75.61)"/></g><path class="b" d="M181.22,113.625a1.7,1.7,0,0,1-1.181,0,1.4,1.4,0,0,1-.743-1L175.448,86.01a.958.958,0,0,1,.1-.535l1.241.52a1,1,0,0,0-.23.743L180.31,113.1a.617.617,0,0,0,.906.52Z" transform="translate(-175.444 -78.149)"/><g class="q" transform="translate(0 7.331)"><path d="M181.22,113.625a1.7,1.7,0,0,1-1.181,0,1.4,1.4,0,0,1-.743-1L175.448,86.01a.958.958,0,0,1,.1-.535l1.241.52a1,1,0,0,0-.23.743L180.31,113.1a.617.617,0,0,0,.906.52Z" transform="translate(-175.444 -85.48)"/></g><path class="b" d="M177.447,83.46a1.032,1.032,0,0,0-.5.966L180.7,110.8a.63.63,0,0,0,1.04.438l11.536-6.685a1.2,1.2,0,0,0,.565-1.092L190.06,76.945a.468.468,0,0,0-.743-.327Z" transform="translate(-175.83 -75.846)"/><g class="c" transform="translate(1.116 0.681)"><path d="M177.447,83.46a1.032,1.032,0,0,0-.5.966L180.7,110.8a.63.63,0,0,0,1.04.438l11.536-6.685a1.2,1.2,0,0,0,.565-1.092L190.06,76.945a.468.468,0,0,0-.743-.327Z" transform="translate(-176.946 -76.527)"/></g><path class="n" d="M178.394,85.8a1.129,1.129,0,0,0-.535,1.04l3.395,23.681c.052.371.379.5.743.3l10.823-6.284a1.144,1.144,0,0,0,.535-1.04l-3.38-23.644a.446.446,0,0,0-.743-.312Z" transform="translate(-176.064 -76.592)"/><path class="d" d="M178.817,89.753V89.6a.082.082,0,0,1,0-.074h0v.149a.074.074,0,0,1,0,.074Z" transform="translate(-176.309 -79.19)"/><path class="d" d="M178.987,89.607l-.037-.253V89.28h0l.037.045v.327h0Z" transform="translate(-176.346 -79.126)"/><path class="d" d="M179.169,89.468l-.052-.364a.074.074,0,0,1,0-.074h0a.039.039,0,0,1,.037.045l.052.357v.074h0A.054.054,0,0,1,179.169,89.468Z" transform="translate(-176.386 -79.062)"/><path class="d" d="M179.349,89.268l-.089-.624V88.57h0l.089.624a.089.089,0,0,1,0,.082h0Z" transform="translate(-176.425 -78.943)"/><path class="d" d="M179.836,89.123v-.089l-.156.089h0l.119-.423h0l.045.319h0v-.1h0v.089h0S179.836,89.131,179.836,89.123Zm0-.193V88.7l-.082.3Z" transform="translate(-176.533 -78.977)"/><path class="d" d="M180.1,88.862a.29.29,0,0,1-.074-.186.491.491,0,0,1,0-.238.238.238,0,0,1,.119-.149h.119v.052h0a.111.111,0,0,0-.082,0,.193.193,0,0,0-.082.1.454.454,0,0,0,0,.178.253.253,0,0,0,.052.141.074.074,0,0,0,.1,0h.037v-.149h-.059l.1-.067h0v.208h0a.282.282,0,0,1-.111.119.119.119,0,0,1-.119-.015Z" transform="translate(-176.618 -78.871)"/><path class="d" d="M193.155,80.687a.074.074,0,0,0-.074,0l-.461.267a.178.178,0,0,0-.052.178l.045.327a.193.193,0,0,0,.045.1h.037l.468-.267a.2.2,0,0,0,.052-.178l-.045-.319a.193.193,0,0,0-.015-.108Zm-.483.817v-.052l-.045-.319V81l.468-.267h0a.06.06,0,0,1,0,.045l.052.327a.156.156,0,0,1-.045.134l-.461.267Z" transform="translate(-179.846 -76.913)"/><path class="d" d="M192.916,81l.052.379-.245.149h0l-.037-.29a.111.111,0,0,1,0-.1Z" transform="translate(-179.875 -76.996)"/><path class="d" d="M193.45,80.81s.037,0,.045.1v.178h0l-.037-.3Z" transform="translate(-180.075 -76.94)"/><path class="d" d="M181.255,88.271a.2.2,0,0,1-.074.186c-.052,0-.1,0-.111-.082a.193.193,0,0,1,.074-.178C181.2,88.167,181.24,88.2,181.255,88.271Z" transform="translate(-176.89 -78.845)"/><path class="d" d="M181.066,87.915a.468.468,0,0,0-.186.3v.059h0a.044.044,0,0,0,.045-.045.342.342,0,0,1,.134-.215.111.111,0,0,1,.163.045h.059a.1.1,0,0,0,0-.067.163.163,0,0,0-.215-.074Z" transform="translate(-176.842 -78.771)"/><path class="d" d="M180.992,87.628a.691.691,0,0,0-.282.438v.067h0a.053.053,0,0,0,.052-.045.542.542,0,0,1,.23-.357.208.208,0,0,1,.29.052h.059a.082.082,0,0,0,0-.074.267.267,0,0,0-.349-.081Z" transform="translate(-176.798 -78.693)"/><path class="d" d="M185.951,85.553h0l-.067-.438-.074.156h0l.1-.2h0Z" transform="translate(-178.11 -78.043)"/><path class="d" d="M186.057,85.14h0v.089h-.037V85.14Zm.037.282h0v.052h0Z" transform="translate(-178.164 -78.061)"/><path class="d" d="M186.448,85.263h0v-.111l-.178.1h0v-.074l.134-.431h0l.045.334h.052v.045h-.045v.111h0Zm-.045-.2V84.84l-.089.3Z" transform="translate(-178.228 -77.961)"/><path class="d" d="M186.709,84.964h.045a.1.1,0,0,0,0-.045.059.059,0,0,0,0-.052h-.082v-.052l.082-.215-.163.1h0l.223-.126h0l-.082.208h.163a.089.089,0,0,1,.037,0,.141.141,0,0,1,0,.059.156.156,0,0,1,0,.082.1.1,0,0,1,0,.067.163.163,0,0,1-.037.059.1.1,0,0,1-.052.045h-.119a.1.1,0,0,1,0-.052h0Z" transform="translate(-178.311 -77.915)"/><path class="n" d="M184.608,82.606l1.924-1.114a.157.157,0,0,1,.238.089.364.364,0,0,1-.178.327l-1.924,1.114a.151.151,0,0,1-.238-.089.357.357,0,0,1,.178-.327Z" transform="translate(-177.755 -77.117)"/><path class="n" d="M189.053,80.382a.142.142,0,0,1,.223.1.327.327,0,0,1-.163.319.143.143,0,0,1-.223-.1.357.357,0,0,1,.163-.319Z" transform="translate(-178.902 -76.831)"/><path class="n" d="M190.1,79.772a.142.142,0,0,1,.223.1.319.319,0,0,1-.163.319.134.134,0,0,1-.223-.089.371.371,0,0,1,.163-.33Z" transform="translate(-179.172 -76.674)"/><path class="n" d="M181.7,84.619a.141.141,0,0,1,.23.1.342.342,0,0,1-.171.319.134.134,0,0,1-.223-.1.364.364,0,0,1,.163-.319Z" transform="translate(-177.012 -77.919)"/><path class="n" d="M182.753,83.989a.141.141,0,0,1,.23.1.356.356,0,0,1-.171.319.141.141,0,0,1-.223-.1.349.349,0,0,1,.163-.319Z" transform="translate(-177.282 -77.757)"/><g transform="translate(4.638 11.592)"><path class="b" d="M182.989,104.27a.208.208,0,0,1-.1,0,.253.253,0,0,1-.134-.186l-1.07-7.5a.453.453,0,0,1,.215-.423l8.513-4.917a.245.245,0,0,1,.245,0,.238.238,0,0,1,.134.186l1.07,7.5a.453.453,0,0,1-.215.423l-8.513,4.917a.3.3,0,0,1-.149,0Zm7.525-12.88L182,96.307a.26.26,0,0,0-.119.23l1.07,7.5h.067l8.557-4.888a.26.26,0,0,0,.119-.23l-1.07-7.5h-.067Z" transform="translate(-181.688 -91.216)"/><path class="b" d="M187.369,101.845a1.538,1.538,0,0,1-.683-.126,2,2,0,0,1-1.107-1.656,3.937,3.937,0,0,1,.409-2.3,3.591,3.591,0,0,1,.438-.654h0a2.809,2.809,0,0,1,.787-.676,1.753,1.753,0,0,1,1.612-.163,2,2,0,0,1,1.107,1.656,3.915,3.915,0,0,1-.409,2.3,3.291,3.291,0,0,1-1.218,1.337,2.1,2.1,0,0,1-.936.29Zm-.676-4.568a3.492,3.492,0,0,0-.409.609,3.655,3.655,0,0,0-.386,2.162,1.7,1.7,0,0,0,.914,1.426,1.441,1.441,0,0,0,1.293-.149,3.031,3.031,0,0,0,1.122-1.233,3.625,3.625,0,0,0,.386-2.154A1.723,1.723,0,0,0,188.7,96.5a1.486,1.486,0,0,0-1.293.156,2.629,2.629,0,0,0-.743.617Z" transform="translate(-182.681 -92.483)"/><path class="b" d="M189.38,99.2l-1.523,1.976c-.141.186-.275.163-.3-.045l-.282-1.983c0-.208.082-.371.245-.364l1.812.067C189.5,98.862,189.513,99.018,189.38,99.2Z" transform="translate(-183.124 -93.161)"/></g></g><path class="h" d="M172.9,112.126c0-3.9.617-5.943,2.533-7.569,2.526-2.1,3.387-5.943,4.338-5.749,1.144.26,2.147,2.711.639,5.861-1.708,3.566-2.585,5.943-2.31,7.837C178.419,114.719,172.9,112.126,172.9,112.126Z" transform="translate(-82.024 -73.651)"/><path class="i" d="M93.894,121.4A117.589,117.589,0,0,0,80.3,124.739c-4.457,1.486-5.341,18.169-4.189,25.909.49,3.276,2.05,10.778,1.894,14.589-.275,6.685-1.278,19.187-1.486,24.921,5.712,5.846,40.29,4.457,47.5-6.032,0-15.859-.1-31.406-.743-43.269-.676-12.97-5.527-18.964-9.374-19.841a53.8,53.8,0,0,0-20,.379Z" transform="translate(-57.013 -79.169)"/><path class="f" d="M98.706,195.64c-12.2-3.714-16.26-14.76-15.867-23.287s2.474-19.12,2.05-25.872l-9.218,2.05a56.337,56.337,0,0,0,.438,8.862c.49,3.276,2.05,10.778,1.894,14.589-.275,6.685-1.278,19.187-1.486,24.921,4.048,4.137,22.574,4.65,35.6.869a45.192,45.192,0,0,1-13.411-2.132Z" transform="translate(-57.012 -85.913)"/><path class="b" d="M103.528,93.746l-20.3-.936c-3.833,3.068-10.942,9.515-10.89,11.239h0v1.2h0a.342.342,0,0,0,0,.149c.743,1.345,3.365,2.11,7.428,2.065,4.776-.045,12.167-.683,14.069-2.414,2.867-2.6,9.657-10.169,9.657-10.169l-.951-.045Z" transform="translate(-56.158 -72.11)"/><path class="b" d="M83.227,94.34c-4,3.209-11.6,10.11-10.845,11.454s3.365,2.11,7.428,2.065c4.776-.045,12.167-.683,14.069-2.414,2.867-2.6,9.657-10.169,9.657-10.169Z" transform="translate(-56.159 -72.503)"/><g class="q" transform="translate(16.193 21.837)"><path d="M83.235,94.34c-3.989,3.209-11.58,10.147-10.823,11.454s3.358,2.11,7.384,2.065c4.776-.045,12.167-.683,14.069-2.414,2.867-2.6,9.657-10.169,9.657-10.169Z" transform="translate(-72.359 -94.34)"/></g><path class="n" d="M87,93.723c-.045.587,2.058,1.753,2.058,1.753l-.676-3.536A2.1,2.1,0,0,0,87,93.723Z" transform="translate(-59.931 -71.886)"/><path class="l" d="M87.853,78.961c1.1-2.422,4.249-2.971,4.249-2.971a11.569,11.569,0,0,1,4.026-3.714c3.112-1.968,7.74-2.444,12.977-2.607,6.076-.186,10.763,4.212,11.7,10.043a9.7,9.7,0,0,1,.691,2.927c.2,6.685-4.969,11.009-11.647,11.209A12.086,12.086,0,0,1,99.07,87.9a58.562,58.562,0,0,0-4.709,4.6l.364,4.5-.683,5.727a28.548,28.548,0,0,0-1.634-3.855A37.66,37.66,0,0,1,88.9,91.447C87.073,86.159,86.9,81.055,87.853,78.961Z" transform="translate(-60.005 -66.157)"/><path class="h" d="M93.994,93.616c-1.062.973-2.02-1.441-2.971-2.37s-3.959-2.139-5.348,1.04,1.486,7.651,3.833,8.468A2.971,2.971,0,0,0,93.221,99.4l-.089,13.92c3.61,6.106,10.34,6.217,13.571,5.779s3.937-3.833,1.486-6.492V108.15a17.784,17.784,0,0,0,5.2-.275c2.823-.743,4.457-2.451,5.252-5.69,1.293-5.2,1.627-13.928-.639-23.911-3.372-2.451-14.893-2.288-21.779,2.362C95.94,90.623,95.071,92.643,93.994,93.616Z" transform="translate(-59.497 -67.969)"/><path class="l" d="M121.907,79.355c1.887,2.9,1.233,8.565-2.1,9.345a5.212,5.212,0,0,0-1.025-5.2,5.155,5.155,0,0,1-.052,2.028,4.256,4.256,0,0,1-1.2,2.228,5.193,5.193,0,0,1-3.038,1.322,7.042,7.042,0,0,0,.126-1.634,5.809,5.809,0,0,0-.49-2.132,7.428,7.428,0,0,1-1.2,1.946,5.549,5.549,0,0,1-4.093,1.582,6.789,6.789,0,0,0-.238-1.634,4.628,4.628,0,0,0-.869-2.058,6.269,6.269,0,0,1-1.686,3.038,9.114,9.114,0,0,1-3.536,1.738c-.839.253-1.708.409-2.54.676a7.517,7.517,0,0,0-1.434.52,1.486,1.486,0,0,0-.669.743,9.092,9.092,0,0,1,0-12.524Z" transform="translate(-62.08 -68.646)"/><path class="o" d="M111.766,117.231s-6.121-.527-9.27-2.3a8.431,8.431,0,0,1-3.306-3.075,7.376,7.376,0,0,0,1.939,3.714c3.083,3.038,10.637,3.372,10.637,3.372Z" transform="translate(-63.067 -77.009)"/><path class="n" d="M109.374,88.755l-2.927,1.419a1.708,1.708,0,0,1,.787-2.228,1.575,1.575,0,0,1,2.139.81Z" transform="translate(-64.894 -70.818)"/><path class="r" d="M111.326,106.37l4.761,1.619a2.474,2.474,0,0,1-3.15,1.664,2.637,2.637,0,0,1-1.612-3.283Z" transform="translate(-66.155 -75.597)"/><path class="s" d="M112.964,110.072a2.384,2.384,0,0,0,1.307.059,2.228,2.228,0,0,0-2.971-2.006,2.585,2.585,0,0,0,1.664,1.946Z" transform="translate(-66.181 -76.016)"/><path class="n" d="M128.214,89.768l-2.934-1.486a1.567,1.567,0,0,1,2.147-.743A1.716,1.716,0,0,1,128.214,89.768Z" transform="translate(-69.776 -70.709)"/><path class="n" d="M111.281,94.636A1.486,1.486,0,1,1,109.8,93.15a1.486,1.486,0,0,1,1.481,1.486Z" transform="translate(-65.412 -72.197)"/><path class="n" d="M126.521,93.966a1.486,1.486,0,1,1-1.486-1.486A1.486,1.486,0,0,1,126.521,93.966Z" transform="translate(-69.332 -72.025)"/><path class="o" d="M117.78,91.95l.869,9.241,4.427-1.27Z" transform="translate(-67.848 -71.889)"/><path class="j" d="M102.988,65.149c8.379-1.107,13.735,2.3,16.528,9.018a13.014,13.014,0,0,1,.9,4.338c-5.111-3.618-16.208-2.592-23.2.513a30.455,30.455,0,0,0-9.307,6.425,6.121,6.121,0,0,0-1.263,1.441,17.687,17.687,0,0,1-1-5.007C85.16,72.139,93.123,66.471,102.988,65.149Z" transform="translate(-59.577 -64.943)"/><path class="l" d="M124.475,75.661a20.9,20.9,0,0,0-11.625-.676c-.5-2.763-.9-5.623,5.14-5.2C122.841,70.164,124.475,75.661,124.475,75.661Z" transform="translate(-66.513 -66.178)"/><g transform="translate(0 45.354)"><path class="h" d="M115.281,185.256a1.389,1.389,0,0,0-.743-.691c-3.016-1.486-6.685-.423-9.909-.542-1.04-.045-3.818,0-4.457-1.144-.416-.787,2.013-.832,3.766-1.9s1.486-3.818.1-3.06-3.618.52-6.945.929-5.779,1.486-8.171,1.144-6.73-2.422-12.36-5.088c-7.718-3.647-8.453-4.145-8.453-4.145l6.321-17.033c5.66-12.271,3.075-23.51-.579-26.793-8.914,1.738-11.8,7.376-14.381,14.775a290.742,290.742,0,0,0-8.17,28.454c-1.82,8.765-.527,9.612,6.871,13.155S81.8,190.6,85.487,191.436s6.21,2.845,12.68,3.3c3.023.215,6.8.282,9.144-2.028a8.334,8.334,0,0,1,1.656-1.582,8.63,8.63,0,0,1,1.226-.453,5.51,5.51,0,0,0,1.389-.743,1.649,1.649,0,0,0,.55-.646c.156-.423,0-.906.149-1.33a1.612,1.612,0,0,1,1.077-.914,6.388,6.388,0,0,0,1.374-.52,1.129,1.129,0,0,0,.55-1.263Z" transform="translate(-50.56 -126.239)"/><path class="o" d="M70.418,185.262c-4.212-1.552-8.483.052-10.808,1.01,1.983-2.318,6.477-3.878,11.306-2.3Z" transform="translate(-52.887 -140.745)"/><path class="b" d="M75.91,126c-6.358,1.322-11.231,3.937-14.113,12.086C58.67,146.866,55.75,157.1,55.75,157.1s.743,1.642,6.834,4.457,9.4,2.4,9.4,2.4,3.714-8.736,5.749-13.9S82.1,134.03,75.91,126Z" transform="translate(-51.894 -126)"/></g></g><g transform="translate(990.674 2474.718)"><path class="b" d="M275.146,131.359c-2.971-1.723-7.1-1.486-11.647,1.151L105.836,223.535c-9.1,5.259-16.476,18.036-16.476,28.539V276.49c0,5.244,1.842,8.914,4.821,10.659,2.763,1.6,7.242,4.123,9.991,5.727,2.971,1.738,7.109,1.486,11.67-1.137l157.67-91.025c9.1-5.259,16.476-18.036,16.476-28.539V147.76c0-5.252-1.85-8.914-4.828-10.659C282.4,135.5,277.909,132.956,275.146,131.359Z" transform="translate(-89.36 -130.258)"/><path class="b" d="M119.3,231.261l157.678-91.04c9.1-5.252,16.476-1,16.476,9.508v24.416c0,10.5-7.376,23.28-16.476,28.539L119.3,293.724c-9.092,5.252-16.468,1-16.468-9.508v-24.4C102.83,249.289,110.214,236.512,119.3,231.261Z" transform="translate(-92.824 -132.241)"/><g class="c" transform="translate(10.006 5.73)"><path class="d" d="M119.3,231.261l157.678-91.04c9.1-5.252,16.476-1,16.476,9.508v24.416c0,10.5-7.376,23.28-16.476,28.539L119.3,293.724c-9.092,5.252-16.468,1-16.468-9.508v-24.4C102.83,249.289,110.214,236.512,119.3,231.261Z" transform="translate(-102.83 -137.971)"/></g><path class="b" d="M104.172,330.208c-2.756-1.6-7.228-4.13-9.991-5.727-2.971-1.723-4.821-5.415-4.821-10.659V289.4A32.275,32.275,0,0,1,92.985,275.4l9.991,5.772a32.372,32.372,0,0,0-3.6,13.98v24.416C99.373,324.792,101.2,328.477,104.172,330.208Z" transform="translate(-89.36 -167.588)"/><g class="q" transform="translate(0 107.822)"><path d="M104.172,330.208c-2.756-1.6-7.228-4.13-9.991-5.727-2.971-1.723-4.821-5.415-4.821-10.659V289.4A32.275,32.275,0,0,1,92.985,275.4l9.991,5.772a32.372,32.372,0,0,0-3.6,13.98v24.416C99.373,324.792,101.2,328.477,104.172,330.208Z" transform="translate(-89.36 -275.41)"/></g><path class="a" d="M137.215,277.06c0,1.241-.929,4.539-1.649,4.955-.386.223-1.315-.394-3.32.743a4.844,4.844,0,0,0-2.778,4.189c0,2.533,1.486,2.607,3.2,2.667,2.451.149,5.445.3,5.445,6.574,0,7.5-3.5,12.108-6.76,13.987-4.553,2.63-7.034,1.575-7.034,0,0-1.426,1.226-4.806,1.857-5.2s2.006.958,4.4-.423a5.393,5.393,0,0,0,2.808-4.843c0-2.763-2.362-2.184-4.6-2.5-2.065-.327-4.041-1.4-4.041-6.923a15.312,15.312,0,0,1,7.094-13.371C135,275.114,137.215,275.537,137.215,277.06Z" transform="translate(-98.351 -167.671)"/><path class="a" d="M163.992,258.886v20.056c0,7.094-3.2,13-8.676,16.156s-8.676.958-8.676-6.136V268.907a2.9,2.9,0,0,1,1.8-2.5l1.018-.594c1.255-.743,1.79-.527,1.79.438v19.625c0,3.224,1.649,4.62,4.071,3.224s4.1-4.717,4.1-7.941V261.531a2.89,2.89,0,0,1,1.8-2.511l.981-.572C163.45,257.72,163.992,257.921,163.992,258.886Z" transform="translate(-104.092 -163.113)"/><path class="a" d="M190,252.04a15.183,15.183,0,0,1-3.231,8.869v.163c2.392-.646,4.041,1.679,4.041,5.2,0,5.943-2.429,10.749-7.48,13.668l-6.344,3.662c-.839.483-1.2.141-1.2-1.151V253.92a2.555,2.555,0,0,1,1.2-2.533l5.943-3.424C187.994,245.043,190,247.2,190,252.04Zm-9.6,3.365v6.864l2.065-1.2a5.943,5.943,0,0,0,2.786-5.059c0-2.228-.9-2.89-2.726-1.835Zm0,12.9v7.324l2.934-1.694a5.883,5.883,0,0,0,2.748-5.319c0-2.4-1.166-2.919-3.231-1.731Z" transform="translate(-111.588 -160.189)"/><path class="a" d="M211.115,234.391c0,1.248-.929,4.546-1.649,4.962-.386.223-1.315-.394-3.32.743a4.835,4.835,0,0,0-2.778,4.182c0,2.533,1.486,2.607,3.2,2.667,2.451.149,5.445.312,5.445,6.574,0,7.51-3.506,12.108-6.767,14-4.546,2.622-7.027,1.567-7.027,0,0-1.426,1.226-4.806,1.857-5.2s2,.958,4.4-.423a5.4,5.4,0,0,0,2.808-4.851c0-2.763-2.362-2.176-4.6-2.5-2.065-.327-4.041-1.4-4.041-6.93a15.31,15.31,0,0,1,7.094-13.371C208.9,232.445,211.115,232.876,211.115,234.391Z" transform="translate(-117.357 -156.698)"/><path class="a" d="M235.91,219.465c0,1.285-1.2,5.014-1.946,5.452-.357.2-1.552-.579-4.4,1.062-3.528,2.035-5.2,6.44-5.2,13.371s1.671,9.538,5.111,7.554c2.845-1.642,4.457-4.42,4.91-4.68.958-.55,1.76,2.228,1.76,2.971,0,2.771-4.271,6.344-6.685,7.725-6.685,3.87-9.842.475-9.842-10.9,0-10.964,3.35-18.333,10-22.166C232.292,218.328,235.91,217.526,235.91,219.465Z" transform="translate(-122.861 -152.907)"/><path class="a" d="M260.457,211.86a14.626,14.626,0,0,1-3.5,9.345v.186c.743,0,1.649,1.3,2.154,2.971l2.637,8.609a2.97,2.97,0,0,1,.149.787c0,.557-.572,1.248-1.8,1.961l-1.226.743c-.869.505-1.56.669-1.738,0l-2.362-7.621c-.594-1.486-1.077-2.139-3.023-1.018l-1.166.676v11.239a2.91,2.91,0,0,1-1.79,2.511l-1.018.587c-1.255.743-1.8.527-1.8-.438v-29a2.587,2.587,0,0,1,1.2-2.54l5.839-3.365C258.184,204.536,260.457,206.333,260.457,211.86Zm-9.872,3.075v7.428l2.845-1.642c1.226-.743,2.3-3.075,2.3-5.289s-.958-2.971-2.511-2.05Z" transform="translate(-129.64 -149.759)"/><path class="a" d="M275.4,197.123V226.6a2.968,2.968,0,0,1-1.8,2.555l-1.047.609c-1.255.743-1.79.483-1.79-.49v-29.5a2.958,2.958,0,0,1,1.79-2.555l1.047-.609C274.816,195.912,275.4,196.15,275.4,197.123Z" transform="translate(-136.013 -147.219)"/><path class="a" d="M296.88,190.332a15.131,15.131,0,0,1-3.231,8.869v.171c2.392-.646,4.041,1.671,4.041,5.2,0,5.943-2.429,10.749-7.48,13.668l-6.344,3.662c-.839.483-1.2.134-1.2-1.159V192.212a2.555,2.555,0,0,1,1.2-2.533l5.943-3.417C294.874,183.342,296.88,185.5,296.88,190.332ZM287.3,193.7v6.886l2.065-1.2a5.943,5.943,0,0,0,2.786-5.059c0-2.228-.9-2.89-2.726-1.835Zm0,12.9v7.361l2.934-1.694a5.876,5.876,0,0,0,2.748-5.319c0-2.392-1.166-2.919-3.231-1.723Z" transform="translate(-139.076 -144.321)"/><path class="a" d="M320.034,170.534v1.426c0,1.612-.267,2.459-.9,2.823l-7.54,4.353v6.685l6.737-3.885c.624-.364.891.171.891,1.783v1.434c0,1.612-.267,2.459-.891,2.815l-6.737,3.892v7.428l7.569-4.368c.631-.364.9.171.9,1.783v1.426c0,1.612-.267,2.459-.9,2.823L308.186,207.3c-.832.483-1.2.134-1.2-1.159V177.606a2.568,2.568,0,0,1,1.2-2.533l10.949-6.321C319.766,168.388,320.034,168.908,320.034,170.534Z" transform="translate(-145.331 -140.129)"/><path class="a" d="M334.126,188.259V192.5a2.91,2.91,0,0,1-1.79,2.511l-.958.55c-1.255.743-1.8.527-1.8-.438v-4.256a2.911,2.911,0,0,1,1.8-2.511l.958-.557C333.606,187.1,334.126,187.293,334.126,188.259Zm.929-26c-.505,6.745-.988,13.467-1.486,20.212a2.526,2.526,0,0,1-1.523,2.355l-.334.193c-1.226.706-1.523.371-1.523-.594V165.261a2.906,2.906,0,0,1,1.8-2.511l1.285-.743c1.159-.631,1.82-.535,1.82.29Z" transform="translate(-151.141 -138.318)"/></g><g transform="translate(1170.108 2514.744)"><path class="j" d="M375.388,190.157l-7.941-4.635H367.4c-3.863-2.184-9.166-1.85-15.027,1.53-11.811,6.819-21.378,23.4-21.378,37.029,0,6.8,2.384,11.588,6.24,13.831h0l8.045,4.613c3.892,2.474,9.389,2.228,15.488-1.263,11.8-6.819,21.378-23.4,21.378-37.029C382.118,197.155,379.526,192.267,375.388,190.157Z" transform="translate(-330.938 -184.142)"/><path class="n" d="M331.722,228.23a34.607,34.607,0,0,0-.8,7.183c0,6.8,2.384,11.588,6.24,13.831h0l8.067,4.635,1.887-3.164,5.3-10.533Z" transform="translate(-330.92 -195.481)"/><path class="l" d="M363.6,193.569c-11.811,6.819-21.378,23.4-21.378,37.029s9.567,19.165,21.378,12.346,21.378-23.4,21.378-37.029S375.431,186.75,363.6,193.569Z" transform="translate(-333.826 -185.816)"/><path class="d" d="M375.615,215.865v-5.244c0-5.943-3.632-8.721-8.119-6.136h0c-4.457,2.592-8.112,9.538-8.112,15.51v4.68a18.571,18.571,0,0,1-2.734,9.144h0a5.089,5.089,0,0,0-.661,2.392h0c0,1.486.914,2.228,2.043,1.545l18.957-10.942a4.9,4.9,0,0,0,2.043-3.907h0a1.924,1.924,0,0,0-.594-1.582h0C376.715,220.574,375.615,218.68,375.615,215.865Z" transform="translate(-337.368 -189.125)"/><path class="d" d="M374.032,241.43c0,2.867-1.746,6.2-3.9,7.428s-3.892-.082-3.892-2.971Z" transform="translate(-340.004 -198.876)"/></g><g transform="translate(1089.238 2574.188)"><path class="b" d="M274.758,284a3.625,3.625,0,0,0-1.411-1.642h0l-3.521-2.035h0c-1.53-.877-3.4,0-4.39.6l-2.206-1.285h0c-2.667-1.6-6.366,1.76-7.2,2.57l-.943-.55h0c-1.255-.743-2.971-.275-4.457.483V269.384a3.216,3.216,0,0,0-1.263-2.882h-.1l-3.484-2.05h0a3.206,3.206,0,0,0-3.164.327A9.976,9.976,0,0,0,238.1,272.6V311.77l-.535-.253c-3.09-2.176-6.329-3.469-9.189-2.971a9.724,9.724,0,0,0-5.868,4.056c-1.486,2.63.966,4.286,4.137,7.911s5.943,7.926,8.788,10.6a15.3,15.3,0,0,0,4.94,3.372V339.6l3.491,2.013L270.386,326.3V321.18s3.3-13.126,4.345-18.608S276.756,288.207,274.758,284Z" transform="translate(-222.056 -264.167)"/><g class="t" transform="translate(0.015)"><path class="d" d="M274.758,284a3.625,3.625,0,0,0-1.411-1.642h0l-3.521-2.035h0c-1.53-.877-3.4,0-4.39.6l-2.206-1.285h0c-2.667-1.6-6.366,1.76-7.2,2.57l-.943-.55h0c-1.255-.743-2.971-.275-4.457.483V269.384a3.216,3.216,0,0,0-1.263-2.882h-.1l-3.484-2.05h0a3.206,3.206,0,0,0-3.164.327A9.976,9.976,0,0,0,238.1,272.6V311.77l-.535-.253c-3.09-2.176-6.329-3.469-9.189-2.971a9.724,9.724,0,0,0-5.868,4.056c-1.486,2.63.966,4.286,4.137,7.911s5.943,7.926,8.788,10.6a15.3,15.3,0,0,0,4.94,3.372V339.6l3.491,2.013L270.386,326.3V321.18s3.3-13.126,4.345-18.608S276.756,288.207,274.758,284Z" transform="translate(-222.071 -264.167)"/></g><g class="e" transform="translate(0 8.418)"><path class="b" d="M250.611,285.127v4.338h0a19.555,19.555,0,0,1,3.41-2.332Zm16.023-1.879a7.653,7.653,0,0,0-1.211.6l1.122.661a4.018,4.018,0,0,1,1.671,1.827,8.083,8.083,0,0,1,2.006-1.129Zm-8.223.052a15.062,15.062,0,0,0-2.355,1.865l2.3,1.33.134.074a2.585,2.585,0,0,1,.891.78h0a14.286,14.286,0,0,1,2.444-1.983ZM238.1,275.5v39.169a22.185,22.185,0,0,1,3.484,2.147v-39.3ZM250.6,285.119Zm-11.684,50.92c-2.867-2.674-5.638-7-8.78-10.6-2.971-3.41-5.341-5.073-4.368-7.428L222.273,316c-.973,2.37,1.382,4.041,4.368,7.428,3.15,3.588,5.943,7.918,8.78,10.6a14.907,14.907,0,0,0,4.947,3.365v5.118l3.491,2.02V339.4a15.413,15.413,0,0,1-4.947-3.361Z" transform="translate(-222.05 -275.5)"/></g><path class="b" d="M245.068,342.306v-5.118a15.541,15.541,0,0,1-4.947-3.372c-2.867-2.674-5.638-7-8.78-10.6s-5.638-5.281-4.145-7.911a9.723,9.723,0,0,1,5.876-4.056c3.023-.542,6.477.936,9.716,3.343v-39.3a10,10,0,0,1,4.516-7.822h0c2.5-1.434,4.516-.267,4.516,2.607v17.166s6.217-5.527,8.736-2.132c0,0,6.106-6.4,8.869-1,0,0,4.457-3.625,6.507.579s1.055,13.088,0,18.57-4.345,18.608-4.345,18.608V327Z" transform="translate(-223.259 -264.859)"/><g class="u" transform="translate(3.493 1.996)"><path class="d" d="M245.068,342.306v-5.118a15.541,15.541,0,0,1-4.947-3.372c-2.867-2.674-5.638-7-8.78-10.6s-5.638-5.281-4.145-7.911a9.723,9.723,0,0,1,5.876-4.056c3.023-.542,6.477.936,9.716,3.343v-39.3a10,10,0,0,1,4.516-7.822h0c2.5-1.434,4.516-.267,4.516,2.607v17.166s6.217-5.527,8.736-2.132c0,0,6.106-6.4,8.869-1,0,0,4.457-3.625,6.507.579s1.055,13.088,0,18.57-4.345,18.608-4.345,18.608V327Z" transform="translate(-226.752 -266.855)"/></g><g class="q" transform="translate(0 8.418)"><path class="b" d="M230.132,339.461c-2.971-3.41-5.341-5.073-4.368-7.428l-3.491-2.013c-.973,2.37,1.382,4.041,4.368,7.428,3.15,3.588,5.943,7.918,8.78,10.6a14.906,14.906,0,0,0,4.947,3.365v5.118l3.491,2.02v-5.125a15.54,15.54,0,0,1-4.947-3.372C236.045,347.38,233.274,343.056,230.132,339.461Z" transform="translate(-222.05 -289.522)"/><path class="b" d="M260.48,288.44l.015.007v-.037Z" transform="translate(-231.934 -278.82)"/><path class="b" d="M247.134,277.513,243.65,275.5v39.169a22.186,22.186,0,0,1,3.484,2.147Z" transform="translate(-227.605 -275.5)"/><path class="b" d="M270.185,286a15.062,15.062,0,0,0-2.355,1.864l2.3,1.33.134.074a2.586,2.586,0,0,1,.891.78v7.161s.8-7.376,2.451-9.151h0Z" transform="translate(-233.824 -278.2)"/><path class="b" d="M285.239,287.891l-3.588-1.961a7.65,7.65,0,0,0-1.211.6l1.122.661a4.019,4.019,0,0,1,1.671,1.827h0v7.19s.438-7.235,1.991-8.312Z" transform="translate(-237.067 -278.182)"/><path class="b" d="M263.917,290.458l-3.417-2v11.714S261.042,292.323,263.917,290.458Z" transform="translate(-231.939 -278.833)"/></g></g><g transform="translate(1213.409 2440.5)"><g transform="translate(0 14.156)"><path class="l" d="M358.679,87.662a7.926,7.926,0,1,0,7.666-8.164,7.926,7.926,0,0,0-7.666,8.164Z" transform="translate(-358.624 -79.494)"/><path class="j" d="M362.658,89.826l9.092,4.9A7.926,7.926,0,0,1,359.865,84.47C359.241,86.513,359.731,88.251,362.658,89.826Z" transform="translate(-358.607 -80.774)"/><path class="j" d="M371.651,96.32,377.1,93a81.49,81.49,0,0,0-1.523,23.027l-2.169,1.337C371.963,113.138,371.414,104.543,371.651,96.32Z" transform="translate(-361.948 -82.968)"/><path class="l" d="M362.63,97.619l2.414,2.9.319,8.669a11.068,11.068,0,0,0,5.712,9.285h0c-1.486-4.984-1.879-13.519-1.731-21Z" transform="translate(-359.641 -84.117)"/><path class="b" d="M371.925,110.454l-.156.1a1.055,1.055,0,0,1-.943,0l-1.285-.691c-.267-.149-.475,0-.461.282v.186a1.055,1.055,0,0,0,.5.8l1.307.743a1.018,1.018,0,0,0,.936,0l.149-.1a1.062,1.062,0,0,0,.446-.832v-.253C372.4,110.409,372.185,110.3,371.925,110.454Z" transform="translate(-361.3 -87.289)"/><path class="b" d="M372.3,114.265l-.156.1a1.055,1.055,0,0,1-.943,0l-1.285-.7c-.267-.141-.468,0-.461.29v.186a1.07,1.07,0,0,0,.5.8l1.307.743a1.018,1.018,0,0,0,.936-.037l.149-.1a1.07,1.07,0,0,0,.446-.839v-.186C372.78,114.228,372.565,114.109,372.3,114.265Z" transform="translate(-361.398 -88.27)"/><path class="b" d="M372.692,118.085l-.163.1a1.032,1.032,0,0,1-.943,0l-1.285-.691c-.267-.141-.468,0-.461.29v.178a1.033,1.033,0,0,0,.49.8l1.307.706a1.018,1.018,0,0,0,.936,0l.149-.1a1.07,1.07,0,0,0,.446-.839v-.186C373.16,118.041,372.93,117.929,372.692,118.085Z" transform="translate(-361.496 -89.252)"/><path class="b" d="M377.754,82.427h0a4.29,4.29,0,0,0-4.071.312c-.163.082-.327.178-.5.282s-.386.253-.579.394a10.818,10.818,0,0,0-.921.743,12.863,12.863,0,0,0-1.545,1.731,15.5,15.5,0,0,0-2.756,5.645,11.047,11.047,0,0,0-.342,2.971c.059,2.013.795,3.424,1.939,4.085l-4.063-2.176h0a5.2,5.2,0,0,1-2.488-4.383,10.941,10.941,0,0,1,.312-2.815,15.6,15.6,0,0,1,2.786-5.779,13.371,13.371,0,0,1,1.545-1.679,10.823,10.823,0,0,1,.921-.743c.193-.141.386-.267.587-.394a5.332,5.332,0,0,1,5.021-.334h0l.111.059.141.074Z" transform="translate(-359.589 -79.571)"/><g class="v" transform="translate(2.838 9.587)"><path d="M364.918,99.6h0a5.2,5.2,0,0,1-2.488-4.383,10.942,10.942,0,0,1,.312-2.815l4.635,2.347a11.045,11.045,0,0,0-.342,2.971c.059,2.013.8,3.424,1.939,4.085Z" transform="translate(-362.427 -92.4)"/></g><path class="b" d="M381.378,87.366a14.3,14.3,0,0,1-6.143,11.417c-1.768,1.1-3.395,1.241-4.591.579h-.067c-1.144-.661-1.879-2.072-1.939-4.085a14.341,14.341,0,0,1,6.143-11.425c1.76-1.085,3.372-1.233,4.568-.594S381.318,85.294,381.378,87.366Z" transform="translate(-361.186 -80.365)"/><g class="e" transform="translate(7.449 2.514)"><path d="M381.378,87.366a14.3,14.3,0,0,1-6.143,11.417c-1.768,1.1-3.395,1.241-4.591.579h-.067c-1.144-.661-1.879-2.072-1.939-4.085a14.341,14.341,0,0,1,6.143-11.425c1.76-1.085,3.372-1.233,4.568-.594S381.318,85.294,381.378,87.366Z" transform="translate(-368.634 -82.879)"/></g><path class="b" d="M401.371,85.828s-6.44,3.551-11.736,13.371a43.531,43.531,0,0,0-2.488,5.475c-2.6,6.96-2.228,11.7-2.228,11.7-2.1-4.717-4.665-9.59-8.817-13.252A62.127,62.127,0,0,0,371,99.11h0c-1.085-.594-1.753-1.924-1.8-3.781a11.231,11.231,0,0,1,.617-3.833,15.179,15.179,0,0,1,1.04-2.407,12.814,12.814,0,0,1,4.293-4.813c1.582-.981,3.06-1.159,4.152-.572h0a61.4,61.4,0,0,0,6.151,2.05C390.8,87.217,396.283,86.683,401.371,85.828Z" transform="translate(-361.331 -80.491)"/><g class="w" transform="translate(7.868 2.878)"><path class="d" d="M401.371,85.828s-6.44,3.551-11.736,13.371a43.531,43.531,0,0,0-2.488,5.475c-2.6,6.96-2.228,11.7-2.228,11.7-2.1-4.717-4.665-9.59-8.817-13.252A62.127,62.127,0,0,0,371,99.11h0c-1.085-.594-1.753-1.924-1.8-3.781a11.231,11.231,0,0,1,.617-3.833,15.179,15.179,0,0,1,1.04-2.407,12.814,12.814,0,0,1,4.293-4.813c1.582-.981,3.06-1.159,4.152-.572h0a61.4,61.4,0,0,0,6.151,2.05C390.8,87.217,396.283,86.683,401.371,85.828Z" transform="translate(-369.199 -83.368)"/></g><g class="v" transform="translate(7.868 11.028)"><path d="M387.146,107.518c-2.6,6.96-2.228,11.7-2.228,11.7-2.1-4.717-4.665-9.59-8.817-13.252a62.116,62.116,0,0,0-5.1-4.011h0c-1.085-.594-1.753-1.924-1.8-3.781a11.231,11.231,0,0,1,.617-3.833C374.845,96.672,383,101.01,387.146,107.518Z" transform="translate(-369.198 -94.34)"/></g><path class="b" d="M418.97,95.023a30.456,30.456,0,0,1-3.142,13.49h0c-2.667,5.668-6.789,10.771-11.491,13.683-8.372,5.2-15.4,1.389-15.688-8.453a26.164,26.164,0,0,1,.81-7,36.688,36.688,0,0,1,8.877-16.119c.579-.609,1.189-1.188,1.8-1.731.26-.223.52-.446.787-.654h0q.557-.453,1.137-.869c.4-.282.8-.55,1.211-.8C411.646,81.407,418.673,85.181,418.97,95.023Z" transform="translate(-366.332 -80.72)"/><g class="c" transform="translate(22.311 3.539)"><path class="d" d="M418.97,95.023a30.456,30.456,0,0,1-3.142,13.49h0c-2.667,5.668-6.789,10.771-11.491,13.683-8.372,5.2-15.4,1.389-15.688-8.453a26.164,26.164,0,0,1,.81-7,36.688,36.688,0,0,1,8.877-16.119c.579-.609,1.189-1.188,1.8-1.731.26-.223.52-.446.787-.654h0q.557-.453,1.137-.869c.4-.282.8-.55,1.211-.8C411.646,81.407,418.673,85.181,418.97,95.023Z" transform="translate(-388.643 -84.258)"/></g><g class="v" transform="translate(22.311 26.032)"><path d="M415.828,116.308c-2.667,5.668-6.789,10.771-11.491,13.683-8.372,5.2-15.4,1.389-15.688-8.453a26.162,26.162,0,0,1,.81-7h0c.617,1.255,2.741,2.971,3.632,1.708a23.434,23.434,0,0,0-.743,6.21,10.6,10.6,0,0,0,2.02,6.544,5.066,5.066,0,0,0,4.2,1.8,11.811,11.811,0,0,0,5.623-1.961c4-2.466,7.621-6.8,10.125-11.662C414.35,117.177,414.907,117.608,415.828,116.308Z" transform="translate(-388.643 -114.54)"/></g><path class="b" d="M419.222,96.643a29.267,29.267,0,0,1-3.58,13.787c-2.5,4.858-6.121,9.2-10.125,11.662a11.81,11.81,0,0,1-5.623,1.961,5.066,5.066,0,0,1-4.2-1.8,10.669,10.669,0,0,1-2.021-6.544,23.438,23.438,0,0,1,.743-6.21q.289-1.215.691-2.422a34.808,34.808,0,0,1,1.694-4.189l.416-.832c.238-.461.483-.921.743-1.374a34.652,34.652,0,0,1,2.919-4.368v-.045a29.71,29.71,0,0,1,2.228-2.54c.557-.565,1.129-1.1,1.708-1.6.245-.208.49-.409.743-.6s.6-.453.914-.669.594-.409.9-.594A11.781,11.781,0,0,1,413,88.309C416.734,88.2,419.059,91.317,419.222,96.643Z" transform="translate(-367.624 -81.761)"/><g class="x" transform="translate(26.043 6.546)"><path d="M419.222,96.643a29.267,29.267,0,0,1-3.58,13.787c-2.5,4.858-6.121,9.2-10.125,11.662a11.81,11.81,0,0,1-5.623,1.961,5.066,5.066,0,0,1-4.2-1.8,10.669,10.669,0,0,1-2.021-6.544,23.438,23.438,0,0,1,.743-6.21q.289-1.215.691-2.422a34.808,34.808,0,0,1,1.694-4.189l.416-.832c.238-.461.483-.921.743-1.374a34.652,34.652,0,0,1,2.919-4.368v-.045a29.71,29.71,0,0,1,2.228-2.54c.557-.565,1.129-1.1,1.708-1.6.245-.208.49-.409.743-.6s.6-.453.914-.669.594-.409.9-.594A11.781,11.781,0,0,1,413,88.309C416.734,88.2,419.059,91.317,419.222,96.643Z" transform="translate(-393.667 -88.306)"/></g><path class="j" d="M408.576,103.256l-4.984,9.463c-2.228-1.107-4.969-2.481-8.372-2.3.082-.267.163-.535.253-.8a34.7,34.7,0,0,1,1.694-4.182c.141-.282.275-.565.416-.839.238-.461.483-.921.743-1.367a34.212,34.212,0,0,1,2.919-4.375l.037-.045c.156-.2.312-.394.475-.587C403.525,101.2,408.576,103.256,408.576,103.256Z" transform="translate(-368.023 -84.31)"/><path class="b" d="M406.819,114.545c-1.151,0-1.857-.869-1.909-2.422v-.052a8.49,8.49,0,0,1,3.64-6.752h.037a3.3,3.3,0,0,1,1.59-.55c1.144,0,1.857.877,1.9,2.429v.045A8.461,8.461,0,0,1,408.446,114h-.037a3.328,3.328,0,0,1-1.59.542Z" transform="translate(-370.515 -85.995)"/></g><path class="f" d="M409.12,74.449a1.211,1.211,0,0,1-1.241-1.174L407.53,61.6a1.211,1.211,0,0,1,2.414-.074l.349,11.677a1.211,1.211,0,0,1-1.173,1.246Z" transform="translate(-371.189 -60.437)"/><path class="f" d="M392.445,77.036a1.2,1.2,0,0,1-1.062-.572l-6.136-9.931a1.206,1.206,0,1,1,2.05-1.27l6.136,9.931a1.2,1.2,0,0,1-.386,1.664,1.285,1.285,0,0,1-.6.178Z" transform="translate(-365.412 -61.531)"/><path class="f" d="M383.309,153.226a1.2,1.2,0,0,1-1.1-1.775l5.534-10.281a1.206,1.206,0,0,1,2.124,1.144l-5.534,10.281a1.189,1.189,0,0,1-1.025.631Z" transform="translate(-364.64 -81.037)"/><path class="f" d="M412.109,156a1.2,1.2,0,0,1-1.367-1.025L409.1,143.414a1.211,1.211,0,1,1,2.392-.342l1.642,11.543A1.2,1.2,0,0,1,412.109,156Z" transform="translate(-371.586 -81.402)"/><path class="f" d="M433.429,142.842a1.211,1.211,0,0,1-1.144-.386l-7.74-8.743a1.211,1.211,0,1,1,1.813-1.6l7.733,8.743a1.211,1.211,0,0,1-.661,1.983Z" transform="translate(-375.472 -78.749)"/><path class="f" d="M445.57,126.15a1.188,1.188,0,0,1-.609-.141l-10.281-5.534a1.206,1.206,0,0,1,1.144-2.124l10.281,5.534a1.2,1.2,0,0,1-.535,2.266Z" transform="translate(-378.008 -75.294)"/><path class="f" d="M450.388,105.734l-11.67.349a1.211,1.211,0,0,1-.074-2.414l11.677-.349a1.218,1.218,0,0,1,1.241,1.174,1.2,1.2,0,0,1-1.174,1.241Z" transform="translate(-378.912 -71.466)"/><path class="f" d="M434.437,89.925a1.226,1.226,0,0,1-1.07-.572,1.211,1.211,0,0,1,.394-1.664l9.931-6.136a1.211,1.211,0,0,1,1.241,2.058L435,89.747a1.255,1.255,0,0,1-.565.178Z" transform="translate(-377.788 -65.841)"/><path class="f" d="M423.652,78.305a1.174,1.174,0,0,1-.6-.141,1.2,1.2,0,0,1-.49-1.634L428.1,66.249a1.2,1.2,0,1,1,2.124,1.137l-5.534,10.281a1.2,1.2,0,0,1-1.033.639Z" transform="translate(-375.017 -61.768)"/></g><g transform="translate(1090.987 2393)"><path class="j" d="M341.444,107.54c-3.6-2.083-8.539-1.8-14,1.352-10.985,6.354-19.911,21.913-19.911,34.759,0,6.464,2.264,10.988,5.908,13.1.845.478,4.15,2.389,4.15,2.389a9.115,9.115,0,0,1-4.637,7c-.21.119-.081.325.105.43l5.041,2.93a.478.478,0,0,0,.224.067,12.816,12.816,0,0,0,12.332-10.29c.6-.287,1.208-.6,1.824-.955,10.985-6.349,19.911-21.913,19.911-34.754,0-6.468-2.259-10.988-5.9-13.118Z" transform="translate(-307.53 -106.204)"/><path class="l" d="M338,114.988c-10.985,6.349-19.911,21.913-19.911,34.754,0,8.718,4.1,13.935,10.178,14.413-.229,2.771-1.036,5.886-4.776,8.088-.3.177.091.506.339.506a12.816,12.816,0,0,0,12.332-10.29c.6-.287,1.208-.6,1.824-.955,10.985-6.349,19.911-21.913,19.911-34.755S349,108.639,338,114.988Z" transform="translate(-313.047 -109.386)"/><path class="n" d="M323.8,226.927c-.181.115-.1.282.053.4l-4.986-2.866c-.186-.115-.315-.311-.105-.435A9.11,9.11,0,0,0,323.4,217l.549.325.506.3a9.908,9.908,0,0,0,4.107,1.2C328.337,221.61,327.525,224.725,323.8,226.927Z" transform="translate(-313.341 -164.07)"/><path class="a" d="M354.508,163.089a2.336,2.336,0,0,1-.8-2.035,6.049,6.049,0,0,1,.783-2.909A5.365,5.365,0,0,1,356.5,156a1.809,1.809,0,0,1,2-.167,2.258,2.258,0,0,1,.783,2,6.246,6.246,0,0,1-.8,2.962,5.331,5.331,0,0,1-1.987,2.174A1.764,1.764,0,0,1,354.508,163.089ZM353.8,137.12l5.4-3.12-.9,18.211-3.6,2.078Z" transform="translate(-331.655 -120.721)"/><path class="y" d="M365.34,191.5c5.865-4.3,10.923-11.117,14.017-18.435C373.493,177.364,368.435,184.177,365.34,191.5Z" transform="translate(-337.73 -141.121)"/><g transform="translate(25.962 28.502)"><path class="f" d="M401.039,212.627c-2.035.024-3.549-1.4-4.5-3.191,6.094-7.5,10.216-17.48,10.216-26.213,0-6.473-2.269-11.021-5.922-13.123l-5.039-2.9c-3.6-2.078-8.535-1.791-13.994,1.357-10.985,6.354-19.911,21.913-19.911,34.759,0,6.464,2.259,10.988,5.9,13.114.85.478,4.2,2.417,5.024,2.9,3.6,2.1,8.554,1.82,14.027-1.342a30.322,30.322,0,0,0,4.16-2.914c3.7,2.928,8.2-.263,9.991-1.791C401.234,213.076,401.263,212.627,401.039,212.627Z" transform="translate(-361.89 -165.866)"/><path class="a" d="M383.889,223.934c-6.658,0-10.789-5.422-10.789-14.145,0-12.727,8.864-28.186,19.753-34.487a17.526,17.526,0,0,1,8.659-2.651c6.653,0,10.789,5.417,10.789,14.145,0,8.346-3.888,18.316-10.144,26.012l-.129.162.1.182c1.122,2.116,2.751,3.3,4.594,3.344a.248.248,0,0,1-.067.105c-1.27,1.089-3.792,2.909-6.4,2.909h0a5.028,5.028,0,0,1-3.2-1.127l-.2-.153-.2.158a30.279,30.279,0,0,1-4.117,2.866A17.506,17.506,0,0,1,383.889,223.934Z" transform="translate(-367.746 -169.409)"/><path class="b" d="M401.152,172v.621c6.462,0,10.478,5.3,10.478,13.83,0,8.284-3.859,18.177-10.073,25.821l-.263.32.2.363a6.082,6.082,0,0,0,4.15,3.449c-1.323,1.056-3.515,2.465-5.755,2.465a4.723,4.723,0,0,1-3-1.061l-.392-.311-.387.32a30.259,30.259,0,0,1-4.074,2.866,17.231,17.231,0,0,1-8.5,2.608c-6.462,0-10.478-5.3-10.478-13.854,0-12.626,8.793-27.976,19.582-34.219a17.23,17.23,0,0,1,8.5-2.608V172m0,0a17.867,17.867,0,0,0-8.812,2.694c-10.985,6.349-19.911,21.908-19.911,34.754,0,9.148,4.523,14.456,11.1,14.456a17.867,17.867,0,0,0,8.812-2.694,30.32,30.32,0,0,0,4.16-2.914,5.3,5.3,0,0,0,3.386,1.194c2.732,0,5.344-1.911,6.605-2.986.239-.2.267-.65.043-.65h-.048c-2.006,0-3.506-1.409-4.451-3.191,6.094-7.5,10.216-17.48,10.216-26.213-.008-9.15-4.531-14.45-11.107-14.45Z" transform="translate(-367.386 -169.069)"/><path class="l" d="M404.336,212.351a36.374,36.374,0,0,1,1.992-4.051,30.514,30.514,0,0,0,1.4-2.766,5.218,5.218,0,0,0,.454-2.059c0-.955-.287-1.543-.86-1.772a2.731,2.731,0,0,0-2.278.478,8.344,8.344,0,0,0-2.421,2.15,13.264,13.264,0,0,0-1.786,3.143l-3.51-.721a20.762,20.762,0,0,1,3.3-5.733,17.671,17.671,0,0,1,4.919-4.2q3.343-1.911,5.354-1.194t2.016,4.1a11.263,11.263,0,0,1-.392,3.014,14.482,14.482,0,0,1-.955,2.584c-.377.774-.869,1.7-1.466,2.766a30.625,30.625,0,0,0-1.567,3.053,6.021,6.021,0,0,0-.478,2.389l-4.38,2.532a10,10,0,0,1,.659-3.712Zm-.478,12.292a2.34,2.34,0,0,1-.8-2.04,6.049,6.049,0,0,1,.783-2.909,5.388,5.388,0,0,1,2-2.145,1.8,1.8,0,0,1,2.006-.167,2.262,2.262,0,0,1,.783,2.006,6.241,6.241,0,0,1-.8,2.957,5.308,5.308,0,0,1-1.992,2.174,1.72,1.72,0,0,1-1.963.124Z" transform="translate(-380.404 -181.307)"/></g></g><g transform="translate(1192.888 2592.074)"><path class="b" d="M167.614,185.3l-12.834,7.434,5.1,8.668a1.175,1.175,0,0,0,.488.558c.608.343,4.21,2.431,4.408,2.545a1.18,1.18,0,0,0,1.721-.687l5.535-15.957Z" transform="translate(-132.418 -140.57)"/><path class="y" d="M167.614,185.3l-12.834,7.434,5.1,8.668a1.175,1.175,0,0,0,.488.558c.608.343,4.21,2.431,4.408,2.545a1.18,1.18,0,0,0,1.721-.687l5.535-15.957Z" transform="translate(-132.418 -140.57)"/><path class="b" d="M170.61,201.874l5.1,8.668a1.174,1.174,0,0,0,2.2-.145l5.535-15.957Z" transform="translate(-143.832 -147.159)"/><path class="b" d="M124.144,25.292l-48.4,27.943a2.456,2.456,0,0,0-1.116,1.926v33.6a2.425,2.425,0,0,0,1.116,1.914l3.981,2.233a2.483,2.483,0,0,0,2.232,0l48.4-27.96a2.464,2.464,0,0,0,1.116-1.926v-33.6a2.428,2.428,0,0,0-1.116-1.914l-3.979-2.233a2.488,2.488,0,0,0-2.238.017Z" transform="translate(-74.63 -25.018)"/><path class="z" d="M132.365,29.245c-.089-.558-.544-.759-1.1-.441l-48.4,27.952a2.232,2.232,0,0,0-.784.837l-6.2-3.53a2.26,2.26,0,0,1,.764-.79l48.4-27.955a2.491,2.491,0,0,1,2.232,0l3.979,2.233a2.453,2.453,0,0,1,1.1,1.694Z" transform="translate(-75.538 -25.044)"/><path class="b" d="M96.92,102.069v-33.6a2.45,2.45,0,0,1,1.116-1.923l48.4-27.938c.611-.354,1.116-.067,1.116.642V72.836a2.464,2.464,0,0,1-1.116,1.926l-48.4,27.949C97.417,103.073,96.92,102.778,96.92,102.069Z" transform="translate(-90.701 -34.706)"/><path class="y" d="M81.967,167.858a2.541,2.541,0,0,1-2.232,0l-3.979-2.233a2.417,2.417,0,0,1-1.116-1.909v-33.6A2.3,2.3,0,0,1,74.994,129l6.191,3.525a2.191,2.191,0,0,0-.329,1.091v33.6C80.856,167.864,81.314,168.237,81.967,167.858Z" transform="translate(-74.637 -99.981)"/><g transform="translate(9.865 13.99)"><path class="f" d="M119.93,141.1l-.483-.279a1.222,1.222,0,0,0-1.214,0l-2.949,1.7v-4.03l5.46-3.151a1.7,1.7,0,0,0,.837-1.471v-2.26a1.7,1.7,0,0,0-.837-1.471h0a1.7,1.7,0,0,0-1.7,0l-7.572,4.373A2.944,2.944,0,0,0,110,137.067V158.05a1.7,1.7,0,0,0,.837,1.474h0a1.7,1.7,0,0,0,1.7,0l1.889-1.088a1.7,1.7,0,0,0,.837-1.474V148.73l4.648-2.685a1.217,1.217,0,0,0,.605-1.052v-2.835a1.208,1.208,0,0,0-.586-1.058Z" transform="translate(-109.997 -114.629)"/><path class="aa" d="M112.7,174.295l-.162.1a1.7,1.7,0,0,1-2.55-1.471V151.935a2.942,2.942,0,0,1,.354-1.4l1.7.98a2.917,2.917,0,0,0-.354,1.4V173.7a.681.681,0,0,0,1.013.592Z" transform="translate(-109.99 -129.5)"/><path class="a" d="M119.7,141.5v6l4.64-2.676a.407.407,0,0,1,.614.354v2.841a1.211,1.211,0,0,1-.6,1.047l-4.651,2.685v8.23a1.694,1.694,0,0,1-.837,1.468l-1.719.993a.678.678,0,0,1-1.018-.589v-20.8A2.95,2.95,0,0,1,117.6,138.5l7.5-4.331a.614.614,0,0,1,.921.533v2.185a1.688,1.688,0,0,1-.837,1.462Z" transform="translate(-114.417 -117.637)"/><path class="f" d="M157.579,111.519a2.009,2.009,0,0,0-2.93-1.172l-1.878,1.086a2,2,0,0,0-.957,1.309l-5.6,25.5a1.049,1.049,0,0,0,.5,1.116l.513.3a1.046,1.046,0,0,0,1.046,0l2.263-1.306a2.037,2.037,0,0,0,.742-.8,3.815,3.815,0,0,0,.416-1.06l.91-4.649,4.576-2.643.474,1.889a1.063,1.063,0,0,0,.432.6c.19.112,1.509.868,1.7.982a.739.739,0,0,0,.751-.1l2.762-1.6Zm-3.719,13.906.979-5.043.059-.279,1.038,4.122Z" transform="translate(-136.093 -100.33)"/><path class="aa" d="M188.161,180.172c-.248-.148-1.493-.86-1.674-.968a1.063,1.063,0,0,1-.432-.6l-.474-1.889,1.267-.731.907,3.6A1.116,1.116,0,0,0,188.161,180.172Z" transform="translate(-164.49 -147.84)"/><path class="aa" d="M180.127,142.277l-1.7-.982-1.038-4.119h0v-.017c.089-.4.179-.86.279-1.367.12-.633.232-1.309.338-2.032q.181.871.36,1.6t.338,1.259Z" transform="translate(-158.585 -117.403)"/><path class="aa" d="M147.945,144.279a.4.4,0,0,0,.494.469v.022l-.159.089a1.046,1.046,0,0,1-1.046,0l-.519-.3a1.049,1.049,0,0,1-.5-1.116l5.6-25.49a1.954,1.954,0,0,1,.279-.661l1.7.982a1.865,1.865,0,0,0-.279.659Z" transform="translate(-136.093 -105.529)"/><path class="a" d="M167.768,134,165,135.6a.735.735,0,0,1-.748.1,1.069,1.069,0,0,1-.432-.6l-.907-3.606-5.859,3.374-.907,4.649a3.966,3.966,0,0,1-.419,1.063,2.006,2.006,0,0,1-.742.793l-2,1.158a.4.4,0,0,1-.591-.433l5.566-25.356a2,2,0,0,1,.957-1.306l1.8-1.044a.979.979,0,0,1,1.428.572Zm-5.667-5.777-1.423-5.665c-.106-.349-.218-.77-.338-1.259s-.24-1.024-.36-1.6c-.1.723-.218,1.4-.335,2.032s-.234,1.183-.34,1.658l-1.412,7.256Z" transform="translate(-140.56 -103.338)"/><path class="f" d="M217.065,96.037a20.745,20.745,0,0,0,1.281-2.607,23.079,23.079,0,0,0,.949-2.841,24.376,24.376,0,0,0,.586-2.969,22.837,22.837,0,0,0,.206-3.05,15.248,15.248,0,0,0-.569-4.44,6.759,6.759,0,0,0-1.618-2.9,3.934,3.934,0,0,0-.809-.6l-1.674-.971a3.816,3.816,0,0,0-1.738-.511,5.943,5.943,0,0,0-3.264.952,12.09,12.09,0,0,0-3.27,2.813,18.729,18.729,0,0,0-2.522,4,23.62,23.62,0,0,0-2.2,9.879A15.218,15.218,0,0,0,203,97.245a6.717,6.717,0,0,0,1.624,2.9,3.817,3.817,0,0,0,.812.614c.279.156,1.381.8,1.654.957a3.819,3.819,0,0,0,1.76.511,6.054,6.054,0,0,0,3.27-.963,10.647,10.647,0,0,0,1.448-1l.692.8a1.5,1.5,0,0,0,.318.248c.2.114,1.585.913,1.691.977a1.038,1.038,0,0,0,.622.151,2.72,2.72,0,0,0,1.136-.4l2.932-1.691Zm-2.617-7A13.656,13.656,0,0,1,213.6,91.9a9.237,9.237,0,0,1-1.353,2.269,6.714,6.714,0,0,1-1.825,1.566,3.506,3.506,0,0,1-1.707.558,5.066,5.066,0,0,1-.645-1.61,13.026,13.026,0,0,1-.3-3,17.968,17.968,0,0,1,.3-3.332,13.654,13.654,0,0,1,.837-2.869,9.369,9.369,0,0,1,1.362-2.28,6.723,6.723,0,0,1,1.841-1.585,3.428,3.428,0,0,1,1.674-.536,5.128,5.128,0,0,1,.653,1.624,13.121,13.121,0,0,1,.31,3.008,18.3,18.3,0,0,1-.3,3.332Z" transform="translate(-176.632 -75.148)"/><path class="aa" d="M207.018,122.654c-.354-.2-1.328-.77-1.585-.915a3.816,3.816,0,0,1-.812-.614,6.718,6.718,0,0,1-1.624-2.9,15.219,15.219,0,0,1-.575-4.446,22.975,22.975,0,0,1,.575-5.108,23.224,23.224,0,0,1,1.473-4.439l1.7.982a23.609,23.609,0,0,0-2.048,9.558,15.186,15.186,0,0,0,.575,4.443,6.715,6.715,0,0,0,1.624,2.905A4.01,4.01,0,0,0,207.018,122.654Z" transform="translate(-176.632 -96.114)"/><path class="aa" d="M231.554,97.162a1.9,1.9,0,0,0-1.353-.712h-.145a5.136,5.136,0,0,1,.65,1.621,13.12,13.12,0,0,1,.3,3,18.3,18.3,0,0,1-.3,3.349,13.654,13.654,0,0,1-.851,2.869,9.238,9.238,0,0,1-1.353,2.269,6.713,6.713,0,0,1-1.825,1.566,3.506,3.506,0,0,1-1.707.558,2.312,2.312,0,0,0,.2.279,1.847,1.847,0,0,0,1.362.7,3.372,3.372,0,0,0,1.841-.558,6.713,6.713,0,0,0,1.825-1.566,9.344,9.344,0,0,0,1.353-2.269,13.628,13.628,0,0,0,.851-2.872,18.275,18.275,0,0,0,.3-3.349,13.118,13.118,0,0,0-.3-2.989,4.527,4.527,0,0,0-.848-1.9Z" transform="translate(-192.891 -90.505)"/><path class="aa" d="M242.853,163.68c-.159.145-.318.279-.483.419l.692.8a1.5,1.5,0,0,0,.318.248c.19.112,1.5.862,1.674.968a1.513,1.513,0,0,1-.3-.237Z" transform="translate(-205.436 -138.973)"/><path class="a" d="M225.349,102.921l-2.932,1.694a2.753,2.753,0,0,1-1.133.4,1.166,1.166,0,0,1-.935-.4l-1.908-2.194a11.037,11.037,0,0,1-1.931,1.423,6.054,6.054,0,0,1-3.27.963,3.777,3.777,0,0,1-2.528-1.1,6.743,6.743,0,0,1-1.624-2.9,15.28,15.28,0,0,1-.575-4.432,23.62,23.62,0,0,1,2.2-9.879,18.73,18.73,0,0,1,2.528-4.01,12.132,12.132,0,0,1,3.27-2.813,5.912,5.912,0,0,1,3.264-.952,3.794,3.794,0,0,1,2.511,1.116,6.726,6.726,0,0,1,1.618,2.9,15.118,15.118,0,0,1,.575,4.426,22.828,22.828,0,0,1-.2,3.05,24.962,24.962,0,0,1-.591,2.983,23.053,23.053,0,0,1-.951,2.838,20.371,20.371,0,0,1-1.281,2.607ZM212.163,94.27a13.05,13.05,0,0,0,.3,3.006,4.58,4.58,0,0,0,.837,1.889,1.872,1.872,0,0,0,1.362.7,3.378,3.378,0,0,0,1.841-.558,6.712,6.712,0,0,0,1.825-1.566,9.352,9.352,0,0,0,1.356-2.269,13.631,13.631,0,0,0,.837-2.872,18.015,18.015,0,0,0,.3-3.349,12.963,12.963,0,0,0-.3-2.989,4.561,4.561,0,0,0-.837-1.889,1.908,1.908,0,0,0-1.356-.712,3.283,3.283,0,0,0-1.825.536,6.666,6.666,0,0,0-1.841,1.582,9.458,9.458,0,0,0-1.362,2.28,13.821,13.821,0,0,0-.837,2.869,17.99,17.99,0,0,0-.3,3.329Z" transform="translate(-181.024 -77.72)"/></g></g></g></svg>