<svg xmlns="http://www.w3.org/2000/svg" width="350" height="343.285" viewBox="0 0 350 343.285"><defs><style>.a,.i{fill:#ff725e;}.b,.k{opacity:0.3;}.c,.h,.j,.k,.l,.s{fill:#fff;}.d{opacity:0.65;}.e{fill:#fafafa;}.f{fill:#e6e6e6;}.g{fill:#ebebeb;}.h,.p,.r{opacity:0.2;}.i{opacity:0.6;}.j{opacity:0.5;}.l{opacity:0.4;}.m{fill:#37474f;}.n{fill:#263238;}.o{fill:#455a64;}.q,.s,.w{opacity:0.15;}.t{fill:#e0e0e0;}.u{opacity:0.1;}.v{opacity:0.25;}</style></defs><g transform="translate(-15.55 -25.018)"><g transform="translate(15.55 169.997)"><path class="a" d="M48.479,280.962l6.454-4.179s3.134-16.649.806-31.343c-3.268-20.731-17.354-27.858-22.472-25.813s-6.327,8.209,2.917,20.149C41.638,246.835,48.651,261.753,48.479,280.962Z" transform="translate(-19.047 -219.29)"/><g class="b" transform="translate(10.274)"><path class="c" d="M48.479,280.962l6.454-4.179s3.134-16.649.806-31.343c-3.268-20.731-17.354-27.858-22.472-25.813s-6.327,8.209,2.917,20.149C41.638,246.835,48.651,261.753,48.479,280.962Z" transform="translate(-29.32 -219.29)"/></g><path class="c" d="M53.225,273.753h-.067a.47.47,0,0,1-.4-.522c2.678-19.4-5.111-40.612-13.87-49.172a.464.464,0,0,1,.649-.664C48.457,232.1,56.4,253.664,53.68,273.35a.463.463,0,0,1-.455.4Z" transform="translate(-21.442 -220.298)"/><path class="a" d="M28.733,298.223c-.97.552-3.73-1.575-4.476-2.09a9.245,9.245,0,0,1-3.074-3.53,8.651,8.651,0,0,1-.746-5.224,20.735,20.735,0,0,1,.657-2.769c.261-.9.515-1.791.746-2.687a6.718,6.718,0,0,0,.388-2.709c-.231-1.836-1.865-3.119-3.342-4.231-1.641-1.224-3.342-2.843-3.335-5.052a7.747,7.747,0,0,1,1.947-4.627c1.059-1.343,2.313-2.522,3.268-3.94a5.419,5.419,0,0,0,1.112-3.433,5.7,5.7,0,0,0-.746-2.142,34.357,34.357,0,0,1-2.343-4.306,4.326,4.326,0,0,1,.746-4.575,5.036,5.036,0,0,1,3.8-.948,8.705,8.705,0,0,1,3.536,1.246c3.507,1.948,5.514,6.1,9.236,7.6a36.428,36.428,0,0,0,4.476,1.1,5.649,5.649,0,0,1,3.73,2.545c1.365,2.731-1.171,6.1-.209,8.993.851,2.567,3.342,3.545,4.738,5.858a5.5,5.5,0,0,1,.657,3.358,16.07,16.07,0,0,1-1.418,5.672,50.384,50.384,0,0,1-3.1,5.381Z" transform="translate(-15.55 -226.051)"/><g class="d" transform="translate(0 19.886)"><path class="c" d="M28.733,298.223c-.97.552-3.73-1.575-4.476-2.09a9.245,9.245,0,0,1-3.074-3.53,8.651,8.651,0,0,1-.746-5.224,20.735,20.735,0,0,1,.657-2.769c.261-.9.515-1.791.746-2.687a6.718,6.718,0,0,0,.388-2.709c-.231-1.836-1.865-3.119-3.342-4.231-1.641-1.224-3.342-2.843-3.335-5.052a7.747,7.747,0,0,1,1.947-4.627c1.059-1.343,2.313-2.522,3.268-3.94a5.419,5.419,0,0,0,1.112-3.433,5.7,5.7,0,0,0-.746-2.142,34.357,34.357,0,0,1-2.343-4.306,4.326,4.326,0,0,1,.746-4.575,5.036,5.036,0,0,1,3.8-.948,8.705,8.705,0,0,1,3.536,1.246c3.507,1.948,5.514,6.1,9.236,7.6a36.428,36.428,0,0,0,4.476,1.1,5.649,5.649,0,0,1,3.73,2.545c1.365,2.731-1.171,6.1-.209,8.993.851,2.567,3.342,3.545,4.738,5.858a5.5,5.5,0,0,1,.657,3.358,16.07,16.07,0,0,1-1.418,5.672,50.384,50.384,0,0,1-3.1,5.381Z" transform="translate(-15.55 -245.938)"/></g><path class="c" d="M41.029,293.936h0a.433.433,0,0,1-.418-.455c.746-17.343-7.461-36.5-13.429-42.06a.44.44,0,0,1,.6-.642c6.058,5.679,14.4,25.149,13.668,42.739A.44.44,0,0,1,41.029,293.936Z" transform="translate(-18.476 -227.257)"/><path class="c" d="M37.541,279.235h-.127a58.966,58.966,0,0,0-12.556-2.052.433.433,0,0,1-.418-.455.425.425,0,0,1,.455-.418,60.224,60.224,0,0,1,12.81,2.067.448.448,0,0,1,.284.552A.44.44,0,0,1,37.541,279.235Z" transform="translate(-17.807 -233.757)"/></g><g transform="translate(20.877 169.258)"><ellipse class="e" cx="172.336" cy="99.522" rx="172.336" ry="99.522" transform="translate(0)"/></g><g transform="translate(74.255 210.549)"><path class="f" d="M121.6,289.436c36.506-21.075,95.684-21.075,132.183,0,30.94,17.866,35.64,45.142,14.131,65.881l80.315,45.791c4.894,2.828,4.894,7.41,0,10.239l-7.222,4.172c-4.894,2.828-12.683,2.6-17.428-.493l-70.131-49.06c-36.558,20.9-95.438,20.813-131.817-.194C85.107,344.69,85.107,310.518,121.6,289.436Z" transform="translate(-94.235 -273.63)"/></g><g transform="translate(28.338 28.967)"><path class="g" d="M138.117,45.314l-6.327,3.657a7.978,7.978,0,0,0,.052-.836V46.3c0-3.269-2.29-4.59-5.118-2.985a9.8,9.8,0,0,0-3.051,2.933c-.47-4.1-3.686-5.634-7.6-3.381a16.945,16.945,0,0,0-7.655,13.276v2.739a7.2,7.2,0,0,0,.649,3.187L103.843,65.1A6.254,6.254,0,0,0,101,70.053c0,1.813,1.268,2.545,2.843,1.642l34.32-19.821A6.254,6.254,0,0,0,141,46.956C140.96,45.142,139.692,44.411,138.117,45.314Z" transform="translate(-50.035 -33.231)"/><path class="g" d="M37.323,58.855,40.889,56.1V48.235c0-6.239,4.976-13.478,10.37-16.59h0c5.4-3.119,9.781-.59,9.781,5.642v1.142a13.931,13.931,0,0,1,4.536-4.537h0c3.887-2.239,7.036-.425,7.036,4.06v.522L77.589,35.6c2.559-1.493,4.633-.284,4.633,2.672a10.247,10.247,0,0,1-4.633,8.03L37.323,69.556c-2.559,1.493-4.633.276-4.633-2.679A10.232,10.232,0,0,1,37.323,58.855Z" transform="translate(-32.69 -30.31)"/></g><g transform="translate(85.89 191.902)"><path class="a" d="M109.83,296.812v22.709c0,12.328,8.147,24.627,24.434,34.067,32.574,18.813,85.4,18.813,117.97,0,16.287-9.41,24.434-21.739,24.434-34.067V296.812h0c0-12.328-8.147-24.627-24.434-34.06-32.574-18.813-85.4-18.813-117.97,0-16.287,9.4-24.434,21.731-24.434,34.06Zm158.765,0c0,9.866-7.244,19.478-20.4,27.075-14.549,8.4-34.058,13.03-54.949,13.03s-40.4-4.627-54.949-13.03c-13.153-7.6-20.4-17.209-20.4-27.075s7.244-19.478,20.4-27.075c14.549-8.4,34.058-13.03,54.949-13.03s40.408,4.627,54.949,13.03C261.358,277.335,268.6,286.969,268.6,296.812Z" transform="translate(-109.83 -248.642)"/><path class="h" d="M109.83,296.812v22.709c0,12.328,8.147,24.627,24.434,34.067,32.574,18.813,85.4,18.813,117.97,0,16.287-9.41,24.434-21.739,24.434-34.067V296.812h0c0-12.328-8.147-24.627-24.434-34.06-32.574-18.813-85.4-18.813-117.97,0-16.287,9.4-24.434,21.731-24.434,34.06Zm158.765,0c0,9.866-7.244,19.478-20.4,27.075-14.549,8.4-34.058,13.03-54.949,13.03s-40.4-4.627-54.949-13.03c-13.153-7.6-20.4-17.209-20.4-27.075s7.244-19.478,20.4-27.075c14.549-8.4,34.058-13.03,54.949-13.03s40.408,4.627,54.949,13.03C261.358,277.335,268.6,286.969,268.6,296.812Z" transform="translate(-109.83 -248.642)"/><path class="i" d="M276.586,329.133c-1.3,7.813-4.738,13.694-18.592,24.507-19.585,15.3-69.176,21.545-97.96,12.045-27.15-8.955-35.812-26.485-35.812-38.507l.075-7.067c-4.193-4.993-6.4-10.358-6.4-15.806,0-5.582,2.32-11.082,6.715-16.179l.1-9.955h-1.544c-8.886,7.933-13.332,17.03-13.332,26.119V327c0,12.328,8.147,24.627,24.434,34.067,32.574,18.813,85.4,18.813,117.97,0C267.588,352.215,275.705,340.73,276.586,329.133Z" transform="translate(-109.83 -256.135)"/><path class="a" d="M252.244,262.753c-32.581-18.813-85.4-18.813-117.97,0s-32.581,49.313,0,68.127,85.389,18.813,117.97,0S284.818,281.566,252.244,262.753Zm-4.036,61.134c-14.548,8.4-34.066,13.03-54.949,13.03s-40.4-4.627-54.956-13.03c-13.153-7.6-20.4-17.209-20.4-27.075s7.244-19.478,20.4-27.075c14.549-8.4,34.066-13.03,54.956-13.03s40.4,4.627,54.949,13.03c13.153,7.6,20.4,17.216,20.4,27.075s-7.244,19.478-20.4,27.075Z" transform="translate(-109.833 -248.642)"/><path class="j" d="M252.244,262.753c-32.581-18.813-85.4-18.813-117.97,0s-32.581,49.313,0,68.127,85.389,18.813,117.97,0S284.818,281.566,252.244,262.753Zm-4.036,61.134c-14.548,8.4-34.066,13.03-54.949,13.03s-40.4-4.627-54.956-13.03c-13.153-7.6-20.4-17.209-20.4-27.075s7.244-19.478,20.4-27.075c14.549-8.4,34.066-13.03,54.956-13.03s40.4,4.627,54.949,13.03c13.153,7.6,20.4,17.216,20.4,27.075s-7.244,19.478-20.4,27.075Z" transform="translate(-109.833 -248.642)"/><path class="a" d="M271.358,299.554a22.347,22.347,0,0,1-3.26,11.358c-3.305-5.724-9.132-11.1-17.16-15.716-14.534-8.41-34.058-13.037-54.949-13.037s-40.4,4.627-54.941,13.037c-8.02,4.619-13.84,9.993-17.16,15.716a22.541,22.541,0,0,1-3.238-11.358c0-9.858,7.244-19.478,20.405-27.082C155.6,264.084,175.114,259.45,196,259.45s40.415,4.634,54.949,13.022C264.113,280.077,271.358,289.711,271.358,299.554Z" transform="translate(-112.577 -251.385)"/><path class="k" d="M271.358,299.554a22.347,22.347,0,0,1-3.26,11.358c-3.305-5.724-9.132-11.1-17.16-15.716-14.534-8.41-34.058-13.037-54.949-13.037s-40.4,4.627-54.941,13.037c-8.02,4.619-13.84,9.993-17.16,15.716a22.541,22.541,0,0,1-3.238-11.358c0-9.858,7.244-19.478,20.405-27.082C155.6,264.084,175.114,259.45,196,259.45s40.415,4.634,54.949,13.022C264.113,280.077,271.358,289.711,271.358,299.554Z" transform="translate(-112.577 -251.385)"/><path class="i" d="M141.055,272.719c-13.161,7.6-20.405,17.224-20.405,27.082a22.541,22.541,0,0,0,3.245,11.358c3.328-5.724,9.147-11.1,17.16-15.716a83.411,83.411,0,0,1,10.535-5.082c-3.178,1.231-12.937,4.373-9.378-4.933,4.23-11.052,24.874-23.022,40.042-25.007h0C166.653,261.965,152.351,266.2,141.055,272.719Z" transform="translate(-112.577 -251.631)"/><path class="l" d="M251.181,286.26c-14.548-8.4-34.066-13.03-54.949-13.03s-40.408,4.627-54.956,13.03c-10.848,6.269-17.667,13.91-19.726,21.933,2.059,8.022,8.878,15.672,19.726,21.933,14.556,8.4,34.066,13.03,54.956,13.03s40.4-4.627,54.949-13.03c10.855-6.269,17.675-13.91,19.726-21.933C268.863,300.17,262.036,292.529,251.181,286.26Z" transform="translate(-112.806 -254.881)"/><path class="c" d="M140.52,324.048a50.924,50.924,0,0,0,15.347,7.806,109.651,109.651,0,0,0,16.57,4.09,164,164,0,0,0,33.991,1.94c5.678-.254,11.363-.784,17.011-1.545a139.72,139.72,0,0,0,16.7-3.291,72.314,72.314,0,0,0,15.765-5.97,35.86,35.86,0,0,0,3.581-2.187,28.237,28.237,0,0,0,3.275-2.612,18.737,18.737,0,0,0,2.753-3.187,13.643,13.643,0,0,0,1.858-3.9,12.6,12.6,0,0,1-.746,4.478,19.578,19.578,0,0,1-2.134,4.09,24.525,24.525,0,0,1-2.925,3.582,36.342,36.342,0,0,1-3.425,3.1,61.255,61.255,0,0,1-15.988,8.776,102.192,102.192,0,0,1-17.436,4.858,131.024,131.024,0,0,1-17.906,2.127A114.211,114.211,0,0,1,171,342.384a80.261,80.261,0,0,1-16.794-6.716,52.142,52.142,0,0,1-7.535-5.03c-.589-.47-1.141-.985-1.709-1.493s-1.1-1.022-1.619-1.567a27.12,27.12,0,0,1-2.828-3.53Z" transform="translate(-117.623 -265.528)"/><path class="m" d="M297.38,374.485a12.9,12.9,0,0,1,5.8-10.149c1.6-.933,3.051-1.03,4.111-.433h0l18.592,10.634h0a4.082,4.082,0,0,1,1.716,3.731,12.926,12.926,0,0,1-5.8,10.149c-1.612.94-3.074,1.037-4.133.425h0l-18.585-10.627h0C298.051,377.664,297.387,376.358,297.38,374.485Z" transform="translate(-157.453 -277.793)"/><path class="n" d="M299.118,380.507c-1.067-.6-1.731-1.91-1.738-3.784a10.988,10.988,0,0,1,.992-4.373l26.717,15.313a11.192,11.192,0,0,1-3.253,3.045c-1.612.94-3.074,1.037-4.133.425Z" transform="translate(-157.453 -280.031)"/><path class="o" d="M395.909,408.385h0l-59.164-30.157h0l-.075-.045h0c-1.373-.746-3.238-.612-5.29.582a16.812,16.812,0,0,0-7.55,13.209c0,2.433.873,4.134,2.238,4.925l55.605,35.821h0A14.1,14.1,0,1,0,395.9,408.385Z" transform="translate(-164.169 -281.394)"/><path class="m" d="M326.071,400.487l55.605,35.821a14.086,14.086,0,0,0,21.547-11.037c-1.067,4.634-8.722,8.575-18.212,3.269S340.365,401,324.392,391.8a12.967,12.967,0,0,0-.582,3.731C323.817,397.994,324.7,399.7,326.071,400.487Z" transform="translate(-164.164 -284.966)"/><path class="a" d="M326.078,396.921c-1.388-.791-2.238-2.493-2.238-4.925a16.873,16.873,0,0,1,7.55-13.209c2.052-1.194,3.917-1.321,5.29-.582l5.223,2.657c-1.41-.746-3.313-.627-5.424.6a17.253,17.253,0,0,0-7.744,13.552c0,2.492.858,4.276,2.276,5.082" transform="translate(-164.172 -281.4)"/><path class="p" d="M331,403.658c-1.418-.806-2.238-2.59-2.276-5.082a13.333,13.333,0,0,1,.6-3.888c-1.783-1.06-3.447-2.03-4.932-2.888a14.882,14.882,0,0,0-.44,1.9q-.067.47-.112.94a7.531,7.531,0,0,0,0,.918c0,2.433.873,4.134,2.238,4.925Z" transform="translate(-164.169 -284.966)"/></g><g transform="translate(43.722 36.385)"><g transform="translate(0 186.707)"><path class="a" d="M115.906,442.146l-44.765-22.4-17.831,7.9Z" transform="translate(-53.31 -323.248)"/><g class="q" transform="translate(0 96.502)"><path class="c" d="M115.906,442.146l-44.765-22.4-17.831,7.9Z" transform="translate(-53.31 -419.75)"/></g><path class="a" d="M123.79,437.345,84.36,410.979l7.058-10.149Z" transform="translate(-61.194 -318.447)"/><g class="q" transform="translate(23.166 82.383)"><path class="c" d="M123.79,437.345,84.36,410.979l7.058-10.149Z" transform="translate(-84.36 -400.83)"/></g><path class="a" d="M84.36,414.43l.739,7.007L123.79,440.8Z" transform="translate(-61.194 -321.898)"/><g class="r" transform="translate(23.166 92.532)"><path d="M84.36,414.43l.739,7.007L123.79,440.8Z" transform="translate(-84.36 -414.43)"/></g><path class="o" d="M75.355,411.9a.44.44,0,0,0,.291-.119.522.522,0,0,0,.045-.694l-.858-1.149a.418.418,0,0,0-.627-.06.53.53,0,0,0-.052.694c.284.381.574.746.865,1.127a.44.44,0,0,0,.336.2Z" transform="translate(-58.576 -320.715)"/><path class="o" d="M66.317,377.321q-.8-1.164-1.544-2.351a.53.53,0,0,1,.112-.687.41.41,0,0,1,.612.119c.5.784,1.007,1.56,1.492,2.328a.515.515,0,0,1-.09.687.4.4,0,0,1-.261.1.44.44,0,0,1-.321-.194Zm-3.947-6.41c-.455-.828-.9-1.672-1.328-2.515a.522.522,0,0,1,.172-.672.418.418,0,0,1,.6.194c.418.828.858,1.657,1.306,2.478a.522.522,0,0,1-.142.679.455.455,0,0,1-.231.067A.44.44,0,0,1,62.37,370.911Zm-3.327-6.836c-.373-.888-.746-1.784-1.059-2.672a.515.515,0,0,1,.239-.642.433.433,0,0,1,.582.269c.321.873.671,1.754,1.045,2.627a.522.522,0,0,1-.216.657.425.425,0,0,1-.187.045.448.448,0,0,1-.4-.284Zm-2.581-7.224c-.269-.933-.522-1.881-.746-2.8a.493.493,0,0,1,.313-.6.44.44,0,0,1,.545.343c.216.91.463,1.836.746,2.754a.507.507,0,0,1-.284.619H56.9a.455.455,0,0,1-.44-.313Zm-1.731-7.545c-.149-.948-.284-1.918-.4-2.881a.478.478,0,0,1,.38-.552.47.47,0,0,1,.5.425c.1.948.239,1.9.388,2.836a.485.485,0,0,1-.351.567h-.082A.47.47,0,0,1,54.731,349.307Zm-.746-7.731c0-.746-.045-1.493-.045-2.291v-.627a.463.463,0,0,1,.44-.485h0a.47.47,0,0,1,.433.5v2.851a.478.478,0,0,1-.425.515h0a.463.463,0,0,1-.4-.463Zm.589-7.231a.485.485,0,0,1-.4-.537c.082-.963.187-1.94.306-2.9a.448.448,0,0,1,.507-.41.478.478,0,0,1,.373.552c-.119.948-.224,1.91-.306,2.851a.47.47,0,0,1-.44.448Zm1.045-7.627a.493.493,0,0,1-.328-.59c.194-.948.418-1.9.664-2.828a.433.433,0,0,1,.545-.336.507.507,0,0,1,.306.612c-.239.91-.463,1.851-.657,2.776a.448.448,0,0,1-.425.381Zm2.014-7.381a.5.5,0,0,1-.246-.634c.321-.9.679-1.8,1.052-2.679a.433.433,0,0,1,.589-.239.53.53,0,0,1,.216.657c-.373.866-.746,1.746-1.037,2.627a.44.44,0,0,1-.41.306.328.328,0,0,1-.164-.037ZM60.7,312.4a.523.523,0,0,1-.157-.679c.455-.828.933-1.657,1.418-2.455a.418.418,0,0,1,.619-.134.537.537,0,0,1,.119.687c-.485.784-.955,1.6-1.4,2.41a.433.433,0,0,1-.38.239A.41.41,0,0,1,60.7,312.4Zm3.962-6.336a.523.523,0,0,1-.052-.687c.56-.746,1.149-1.493,1.738-2.194a.41.41,0,0,1,.627,0,.522.522,0,0,1,0,.694c-.582.694-1.156,1.41-1.709,2.149a.425.425,0,0,1-.343.179.4.4,0,0,1-.3-.142Zm4.8-5.582a.522.522,0,0,1,0-.694c.657-.649,1.335-1.284,2.014-1.881a.418.418,0,0,1,.627.082.537.537,0,0,1-.075.694c-.671.582-1.335,1.2-1.985,1.836a.418.418,0,0,1-.291.127.425.425,0,0,1-.328-.164Zm5.491-4.724a.537.537,0,0,1,.134-.679c.746-.537,1.492-1.037,2.238-1.493a.418.418,0,0,1,.6.194.515.515,0,0,1-.172.664c-.746.448-1.492.94-2.238,1.493a.41.41,0,0,1-.239.075.455.455,0,0,1-.358-.254Z" transform="translate(-53.47 -291.222)"/><path class="o" d="M90.747,291.753h.134a6.8,6.8,0,0,1,1.216-.336.485.485,0,0,0,.373-.56.455.455,0,0,0-.5-.418,8.464,8.464,0,0,0-1.358.373.5.5,0,0,0-.291.619A.455.455,0,0,0,90.747,291.753Z" transform="translate(-62.702 -290.437)"/></g><g transform="translate(191.66)"><path class="a" d="M356.084,57.367,310.2,43.3l35.349,24.291Z" transform="translate(-310.2 -41.024)"/><path class="s" d="M356.084,57.367,310.2,43.3l35.349,24.291Z" transform="translate(-310.2 -41.024)"/><path class="a" d="M310.2,42.526l49.383,7.948L370.117,40.25Z" transform="translate(-310.2 -40.25)"/><path class="s" d="M310.2,42.526l49.383,7.948L370.117,40.25Z" transform="translate(-310.2 -40.25)"/><path class="a" d="M359.583,51.248l.045,12.209-3.544-6.09L310.2,43.3Z" transform="translate(-310.2 -41.024)"/><path class="p" d="M359.583,51.248l.045,12.209-3.544-6.09L310.2,43.3Z" transform="translate(-310.2 -41.024)"/><path class="a" d="M374.048,68.24,366.99,65.56l3.514-3.41Z" transform="translate(-324.62 -45.807)"/><path class="p" d="M370.5,62.15l-3.514,3.41,1.127.425Z" transform="translate(-324.62 -45.807)"/><path class="o" d="M388.805,59.241a.4.4,0,0,0-.157.269.537.537,0,0,0,.388.582l1.358.366a.41.41,0,0,0,.53-.336.53.53,0,0,0-.373-.582l-1.373-.366a.425.425,0,0,0-.373.067Z" transform="translate(-330.119 -45.047)"/><path class="o" d="M397,61.491c.888.3,1.776.612,2.649.933a.537.537,0,0,1,.336.612.418.418,0,0,1-.567.276c-.865-.321-1.746-.627-2.626-.925a.522.522,0,0,1-.343-.6.381.381,0,0,1,.149-.239A.425.425,0,0,1,397,61.491Zm7.021,2.7c.873.388,1.731.746,2.581,1.2a.515.515,0,0,1,.269.634.425.425,0,0,1-.6.216c-.836-.41-1.686-.806-2.544-1.179a.53.53,0,0,1-.291-.627.4.4,0,0,1,.142-.2.433.433,0,0,1,.44-.045Zm6.789,3.425c.836.478,1.656.978,2.462,1.493a.522.522,0,0,1,.2.657.433.433,0,0,1-.627.142c-.791-.5-1.6-.985-2.425-1.493a.515.515,0,0,1-.224-.649.366.366,0,0,1,.119-.157.448.448,0,0,1,.492.007ZM417.24,71.8c.783.575,1.552,1.172,2.29,1.769a.5.5,0,0,1,.112.672A.433.433,0,0,1,419,74.3c-.746-.59-1.492-1.172-2.238-1.739a.508.508,0,0,1-.149-.672.277.277,0,0,1,.089-.1A.463.463,0,0,1,417.24,71.8Zm5.931,4.985c.7.664,1.4,1.351,2.067,2.052a.485.485,0,0,1,0,.672.463.463,0,0,1-.657,0c-.657-.687-1.343-1.366-2.029-2.015a.493.493,0,0,1-.06-.672l.06-.06a.463.463,0,0,1,.619.022Zm5.29,5.687c.485.59.955,1.187,1.425,1.8l.373.5a.47.47,0,0,1-.06.657h0a.463.463,0,0,1-.649-.127l-.373-.493c-.455-.6-.918-1.187-1.4-1.769a.478.478,0,0,1,0-.664h0a.462.462,0,0,1,.679.067Zm3.917,6.119a.485.485,0,0,1,.642.179c.515.821,1.022,1.657,1.492,2.5a.455.455,0,0,1-.149.634.492.492,0,0,1-.634-.216c-.478-.828-.977-1.657-1.492-2.455a.463.463,0,0,1,.082-.619Zm3.783,6.716a.5.5,0,0,1,.627.269c.41.873.813,1.761,1.179,2.649a.448.448,0,0,1-.231.6.507.507,0,0,1-.612-.306c-.358-.873-.746-1.746-1.156-2.6a.448.448,0,0,1,.112-.567.305.305,0,0,1,.082-.1Zm2.872,7.09a.507.507,0,0,1,.582.358c.284.91.552,1.843.783,2.769a.425.425,0,0,1-.328.545.507.507,0,0,1-.56-.388c-.231-.91-.492-1.828-.746-2.716a.44.44,0,0,1,.134-.493.38.38,0,0,1,.134-.127Zm1.791,7.351a.522.522,0,0,1,.53.448c.149.933.269,1.881.366,2.821a.418.418,0,0,1-.41.47.515.515,0,0,1-.507-.47c-.1-.918-.209-1.843-.358-2.761a.44.44,0,0,1,.157-.418.417.417,0,0,1,.224-.142Z" transform="translate(-332.097 -45.633)"/></g></g><g transform="translate(276.513 25.034)"><g transform="translate(0 193.852)"><path class="t" d="M441.094,285.569c-2-1.194-4.82-1.03-7.953.746L376.32,319.151c-6.066,3.5-10.99,11.828-10.99,18.6,0,3.306,1.179,5.619,3.089,6.716l6.1,3.515c1.992,1.134,4.775.955,7.864-.828l56.829-32.836c6.066-3.5,10.982-11.828,10.982-18.6,0-3.284-1.164-5.6-3.059-6.716C446.093,288.435,442.094,286.166,441.094,285.569Z" transform="translate(-365.33 -284.802)"/><path class="e" d="M379.526,349.709c-3.432,0-5.566-2.716-5.566-7.082,0-6.634,4.842-14.836,10.8-18.269l56.829-32.836a9.987,9.987,0,0,1,4.857-1.493c3.432,0,5.566,2.716,5.566,7.082,0,6.642-4.842,14.836-10.8,18.276l-56.829,32.836A9.906,9.906,0,0,1,379.526,349.709Z" transform="translate(-367.521 -286.129)"/><path class="g" d="M446.314,290.239h0c3.2,0,5.223,2.575,5.223,6.716,0,6.522-4.76,14.575-10.609,17.91L384.1,347.7a9.6,9.6,0,0,1-4.67,1.448,4.64,4.64,0,0,1-3.73-1.679,7.845,7.845,0,0,1-1.492-5.03c0-6.515,4.76-14.567,10.609-17.91l56.829-32.836a9.6,9.6,0,0,1,4.67-1.448m0-.746a10.234,10.234,0,0,0-5.043,1.552l-56.829,32.836c-6.066,3.507-10.982,11.828-10.982,18.6,0,4.739,2.41,7.463,5.969,7.463a10.316,10.316,0,0,0,5.043-1.545L441.3,315.567c6.066-3.5,10.982-11.828,10.982-18.6,0-4.739-2.41-7.463-5.969-7.463Z" transform="translate(-367.394 -285.994)"/><g transform="translate(13.974 10.534)"><path class="a" d="M396.044,344.025c.231-.433.194-.881,0-1l-1.9-1.1a.283.283,0,0,0-.261,0l-1.746.672-.574-1.224a.313.313,0,0,0-.134-.142l-1.9-1.1c-.239-.134-.634.172-.791.679l-1.186,3.888a1.18,1.18,0,0,1-.388.6l-2.649,2.052c-.425.321-.589,1.112-.284,1.328l1.917,1.388a.575.575,0,0,1,.149.522l-.455,3.784c-.037.276.045.463.172.53l1.9,1.1c.149.082.373,0,.574-.246l2.373-3.03a.567.567,0,0,1,.477-.276l2.38.261c.373.052.813-.634.746-1.149l-.455-3.261a1.209,1.209,0,0,1,.149-.694Z" transform="translate(-384.062 -309.366)"/><path class="s" d="M398.759,343.616a.313.313,0,0,0-.261,0l-2.656,1.015a.276.276,0,0,1-.38-.149l-.612-1.3,1.746-.664a.291.291,0,0,1,.261,0Z" transform="translate(-386.8 -309.973)"/><path class="s" d="M389.473,347.347a1.209,1.209,0,0,1-.388.6l-2.649,2.045a.962.962,0,0,0-.284.358l-1.9-1.1a1.1,1.1,0,0,1,.283-.358l2.649-2.045a1.186,1.186,0,0,0,.388-.59h0Z" transform="translate(-384.108 -310.927)"/><path class="u" d="M392.595,341.221c-.239-.157-.642.149-.806.672l-1.186,3.888-1.9-1.1,1.186-3.888c.157-.507.552-.813.791-.679.052,0,1.664.97,1.91,1.1Z" transform="translate(-385.238 -309.361)"/><path class="v" d="M388.022,353.735l-1.888-1.09h0l-1.917-1.388c-.224-.164-.194-.612,0-.978l1.9,1.1c-.194.358-.224.813,0,.978Z" transform="translate(-384.06 -311.95)"/><path class="w" d="M388.351,358.848c0,.276.045.463.187.537h0l-1.91-1.1a.515.515,0,0,1-.164-.53l.455-3.784a.582.582,0,0,0-.134-.507l1.888,1.09h0a.56.56,0,0,1,.134.5Z" transform="translate(-384.665 -312.757)"/><path class="a" d="M392.189,341.73l1.186,2.522a.276.276,0,0,0,.38.149l2.656-1.015c.418-.164.589.433.284,1.007l-1.917,3.6a1.209,1.209,0,0,0-.149.694l.455,3.261c.067.515-.373,1.2-.746,1.149l-2.373-.291a.567.567,0,0,0-.478.276l-2.343,3.03c-.38.485-.821.313-.746-.291l.455-3.784a.56.56,0,0,0-.149-.522l-1.917-1.381c-.306-.224-.134-1.007.283-1.336l2.649-2.045a1.179,1.179,0,0,0,.388-.6l1.186-3.888C391.45,341.648,391.995,341.335,392.189,341.73Z" transform="translate(-384.713 -309.736)"/><path class="j" d="M392.189,341.73l1.186,2.522a.276.276,0,0,0,.38.149l2.656-1.015c.418-.164.589.433.284,1.007l-1.917,3.6a1.209,1.209,0,0,0-.149.694l.455,3.261c.067.515-.373,1.2-.746,1.149l-2.373-.291a.567.567,0,0,0-.478.276l-2.343,3.03c-.38.485-.821.313-.746-.291l.455-3.784a.56.56,0,0,0-.149-.522l-1.917-1.381c-.306-.224-.134-1.007.283-1.336l2.649-2.045a1.179,1.179,0,0,0,.388-.6l1.186-3.888C391.45,341.648,391.995,341.335,392.189,341.73Z" transform="translate(-384.713 -309.736)"/><path class="a" d="M413.908,333.727c.231-.433.187-.873,0-.993l-1.9-1.1a.3.3,0,0,0-.269,0l-1.738.672-.582-1.224a.269.269,0,0,0-.127-.142l-1.9-1.1c-.239-.134-.634.172-.791.679l-1.239,3.91a1.231,1.231,0,0,1-.388.6l-2.649,2.045c-.425.328-.589,1.119-.291,1.336l1.925,1.388a.56.56,0,0,1,.142.522l-.448,3.784c-.037.276.037.463.164.53l1.88,1.067c.149.082.366,0,.574-.246l2.373-3.03a.567.567,0,0,1,.478-.276l2.372.291c.373.045.813-.634.746-1.149l-.448-3.261a1.157,1.157,0,0,1,.149-.694Z" transform="translate(-388.586 -306.755)"/><path class="s" d="M416.6,333.336a.321.321,0,0,0-.261,0l-2.678,1.015a.283.283,0,0,1-.388-.149l-.6-1.3,1.738-.664a.306.306,0,0,1,.269,0Z" transform="translate(-391.324 -307.364)"/><path class="s" d="M407.32,337.062a1.209,1.209,0,0,1-.388.6l-2.671,2.067a.963.963,0,0,0-.283.358l-1.888-1.1a1.232,1.232,0,0,1,.291-.358l2.649-2.045a1.232,1.232,0,0,0,.388-.6h0Z" transform="translate(-388.638 -308.321)"/><path class="u" d="M410.444,330.944c-.239-.157-.642.149-.806.672l-1.186,3.888-1.9-1.067,1.186-3.888c.157-.507.552-.813.791-.679.052,0,1.664.97,1.9,1.1Z" transform="translate(-389.77 -306.763)"/><path class="v" d="M405.874,343.438l-1.888-1.082h0l-1.917-1.388c-.216-.164-.186-.612,0-.978l1.91,1.1c-.194.358-.224.813,0,.97Z" transform="translate(-388.594 -309.339)"/><path class="w" d="M406.164,348.551c-.037.284.045.47.179.545h0l-1.9-1.1c-.127-.075-.2-.254-.164-.53l.455-3.784a.6.6,0,0,0-.134-.507l1.888,1.082h0a.56.56,0,0,1,.134.5Z" transform="translate(-389.191 -310.146)"/><path class="a" d="M410.018,331.444l1.186,2.522a.283.283,0,0,0,.388.149l2.656-1.015c.418-.164.589.433.284,1l-1.917,3.6a1.157,1.157,0,0,0-.149.694l.448,3.261c.075.515-.366,1.194-.746,1.149l-2.372-.291a.567.567,0,0,0-.478.276l-2.373,3.03c-.381.485-.821.313-.746-.291l.455-3.784a.575.575,0,0,0-.149-.522l-1.917-1.381c-.306-.224-.142-1.007.284-1.336l2.649-2.045a1.179,1.179,0,0,0,.388-.6l1.186-3.888C409.287,331.362,409.831,331.071,410.018,331.444Z" transform="translate(-389.232 -307.128)"/><path class="j" d="M410.018,331.444l1.186,2.522a.283.283,0,0,0,.388.149l2.656-1.015c.418-.164.589.433.284,1l-1.917,3.6a1.157,1.157,0,0,0-.149.694l.448,3.261c.075.515-.366,1.194-.746,1.149l-2.372-.291a.567.567,0,0,0-.478.276l-2.373,3.03c-.381.485-.821.313-.746-.291l.455-3.784a.575.575,0,0,0-.149-.522l-1.917-1.381c-.306-.224-.142-1.007.284-1.336l2.649-2.045a1.179,1.179,0,0,0,.388-.6l1.186-3.888C409.287,331.362,409.831,331.071,410.018,331.444Z" transform="translate(-389.232 -307.128)"/><path class="a" d="M431.735,323.445c.224-.433.187-.873,0-.993l-1.925-1.075a.328.328,0,0,0-.269,0l-1.746.672-.574-1.224a.269.269,0,0,0-.127-.142l-1.9-1.1c-.239-.134-.642.172-.791.679l-1.186,3.888a1.232,1.232,0,0,1-.388.6l-2.656,2.045c-.418.328-.589,1.112-.284,1.336l1.917,1.388a.537.537,0,0,1,.149.522l-.455,3.784c0,.276.045.455.172.53l1.9,1.1c.157.082.373,0,.582-.246l2.365-3.03A.567.567,0,0,1,427,331.9l2.365.291c.381.045.821-.634.746-1.149l-.448-3.261a1.2,1.2,0,0,1,.142-.694Z" transform="translate(-393.118 -304.152)"/><path class="s" d="M434.457,323.046a.336.336,0,0,0-.269,0l-2.649,1.015a.283.283,0,0,1-.388-.149l-.612-1.3,1.746-.664a.291.291,0,0,1,.261,0Z" transform="translate(-395.862 -304.754)"/><path class="s" d="M425.22,326.757a1.254,1.254,0,0,1-.388.6l-2.649,2.045a1.059,1.059,0,0,0-.291.358l-1.9-1.1a1.231,1.231,0,0,1,.291-.358l2.649-2.045a1.231,1.231,0,0,0,.388-.6h0Z" transform="translate(-393.183 -305.703)"/><path class="u" d="M428.307,320.619c-.239-.157-.649.149-.806.664l-1.149,3.91-1.9-1.1,1.186-3.888c.157-.507.552-.813.791-.679.052,0,1.656.97,1.9,1.1Z" transform="translate(-394.316 -304.139)"/><path class="v" d="M423.707,333.145l-1.88-1.082h0l-1.94-1.4c-.216-.164-.194-.612,0-.978l1.9,1.1c-.187.358-.216.813,0,.97Z" transform="translate(-393.118 -306.726)"/><path class="w" d="M424.013,338.261c-.037.284.045.47.179.545h0l-1.9-1.1c-.127-.075-.2-.254-.172-.53l.455-3.791a.575.575,0,0,0-.127-.5l1.88,1.082h0a.6.6,0,0,1,.134.5Z" transform="translate(-393.722 -307.535)"/><path class="a" d="M427.87,321.15l1.186,2.522a.283.283,0,0,0,.388.149l2.649-1.015c.425-.164.589.433.291,1l-1.925,3.6a1.2,1.2,0,0,0-.142.694l.448,3.261c.075.515-.366,1.194-.746,1.149l-2.365-.291a.567.567,0,0,0-.485.276l-2.365,3.03c-.381.485-.821.313-.746-.291l.448-3.784a.56.56,0,0,0-.142-.522l-1.925-1.388c-.3-.216-.134-1.007.291-1.328l2.649-2.045a1.231,1.231,0,0,0,.388-.6l1.186-3.888C427.139,321.068,427.683,320.755,427.87,321.15Z" transform="translate(-393.766 -304.514)"/><path class="j" d="M427.87,321.15l1.186,2.522a.283.283,0,0,0,.388.149l2.649-1.015c.425-.164.589.433.291,1l-1.925,3.6a1.2,1.2,0,0,0-.142.694l.448,3.261c.075.515-.366,1.194-.746,1.149l-2.365-.291a.567.567,0,0,0-.485.276l-2.365,3.03c-.381.485-.821.313-.746-.291l.448-3.784a.56.56,0,0,0-.142-.522l-1.925-1.388c-.3-.216-.134-1.007.291-1.328l2.649-2.045a1.231,1.231,0,0,0,.388-.6l1.186-3.888C427.139,321.068,427.683,320.755,427.87,321.15Z" transform="translate(-393.766 -304.514)"/><path class="a" d="M449.585,313.145c.231-.433.194-.873,0-.993l-1.9-1.1a.328.328,0,0,0-.269,0l-1.746.672L445.1,310.5a.313.313,0,0,0-.127-.149c-.239-.127-1.85-1.067-1.9-1.1-.239-.134-.642.172-.8.679l-1.186,3.888a1.217,1.217,0,0,1-.38.6l-2.656,2.045c-.418.328-.589,1.112-.284,1.336l1.917,1.388a.538.538,0,0,1,.149.515l-.455,3.784c0,.276.045.463.172.537l1.9,1.1c.149.082.373,0,.574-.246l2.373-3.03a.567.567,0,0,1,.477-.276l2.373.291c.38.045.821-.634.746-1.149l-.455-3.261a1.261,1.261,0,0,1,.149-.694Z" transform="translate(-397.658 -301.531)"/><path class="s" d="M452.3,312.755a.313.313,0,0,0-.261,0l-2.656,1.015a.276.276,0,0,1-.38-.149l-.612-1.3,1.746-.664a.269.269,0,0,1,.261,0Z" transform="translate(-400.395 -302.142)"/><path class="s" d="M443.02,316.467a1.254,1.254,0,0,1-.388.6l-2.649,2.045a1.06,1.06,0,0,0-.291.358l-1.9-1.1a1.2,1.2,0,0,1,.284-.358l2.649-2.045a1.187,1.187,0,0,0,.4-.6h0Z" transform="translate(-397.703 -303.092)"/><path class="u" d="M446.145,310.351c-.239-.157-.649.149-.806.664l-1.186,3.888-1.9-1.1,1.186-3.888c.149-.507.552-.813.791-.679.052,0,1.656.97,1.9,1.1Z" transform="translate(-398.836 -301.528)"/><path class="v" d="M441.564,322.828l-1.88-1.082h0l-1.917-1.388c-.224-.164-.194-.612,0-.978l1.9,1.1c-.194.358-.216.813,0,.97Z" transform="translate(-397.657 -304.11)"/><path class="w" d="M441.85,327.958c0,.284.052.47.187.545h0l-1.917-1.142c-.127-.075-.2-.254-.172-.53l.455-3.791a.6.6,0,0,0-.127-.5l1.88,1.082h0a.575.575,0,0,1,.127.5Z" transform="translate(-398.249 -304.911)"/><path class="a" d="M445.718,310.86l1.186,2.522a.283.283,0,0,0,.388.149l2.649-1.015c.425-.164.589.433.284,1l-1.917,3.6a1.261,1.261,0,0,0-.149.694l.455,3.261c.075.515-.366,1.194-.746,1.149l-2.373-.291a.567.567,0,0,0-.477.276l-2.373,3.03c-.373.485-.813.313-.746-.291l.455-3.784a.538.538,0,0,0-.149-.522l-1.917-1.388c-.306-.216-.134-1.007.284-1.328l2.656-2.045a1.261,1.261,0,0,0,.388-.6l1.186-3.9C444.987,310.778,445.532,310.465,445.718,310.86Z" transform="translate(-398.298 -301.903)"/><path class="j" d="M445.718,310.86l1.186,2.522a.283.283,0,0,0,.388.149l2.649-1.015c.425-.164.589.433.284,1l-1.917,3.6a1.261,1.261,0,0,0-.149.694l.455,3.261c.075.515-.366,1.194-.746,1.149l-2.373-.291a.567.567,0,0,0-.477.276l-2.373,3.03c-.373.485-.813.313-.746-.291l.455-3.784a.538.538,0,0,0-.149-.522l-1.917-1.388c-.306-.216-.134-1.007.284-1.328l2.656-2.045a1.261,1.261,0,0,0,.388-.6l1.186-3.9C444.987,310.778,445.532,310.465,445.718,310.86Z" transform="translate(-398.298 -301.903)"/><path class="a" d="M467.422,302.855c.231-.433.194-.873,0-1l-1.9-1.1a.313.313,0,0,0-.261,0l-1.746.672-.574-1.224a.433.433,0,0,0-.127-.149c-.246-.127-1.858-1.067-1.9-1.1-.246-.134-.642.164-.8.679l-1.186,3.888a1.179,1.179,0,0,1-.388.6l-2.686,2.037c-.425.328-.589,1.112-.284,1.336l1.917,1.388a.537.537,0,0,1,.149.515l-.44,3.761c0,.276.045.463.172.537l1.9,1.1c.149.082.373,0,.575-.246l2.372-3.03a.567.567,0,0,1,.477-.276l2.373.291c.373.045.813-.634.746-1.149l-.455-3.261a1.2,1.2,0,0,1,.149-.694Z" transform="translate(-402.177 -298.92)"/><path class="s" d="M470.149,302.464a.291.291,0,0,0-.261,0l-2.656,1.015a.276.276,0,0,1-.38-.149l-.612-1.3,1.746-.672a.283.283,0,0,1,.261,0Z" transform="translate(-404.927 -299.529)"/><path class="s" d="M460.87,306.177a1.261,1.261,0,0,1-.4.6l-2.649,2.045a1.046,1.046,0,0,0-.284.358l-1.9-1.1a1.1,1.1,0,0,1,.284-.358l2.649-2.045a1.179,1.179,0,0,0,.388-.6h0Z" transform="translate(-402.236 -300.481)"/><path class="u" d="M463.992,300.054c-.239-.149-.649.157-.806.672L462,304.613l-1.91-1.1,1.186-3.888c.157-.507.56-.813.8-.679.052,0,1.656.97,1.9,1.1Z" transform="translate(-403.365 -298.918)"/><path class="v" d="M459.412,312.568l-1.888-1.082-1.917-1.388c-.224-.164-.194-.612,0-.978l1.9,1.1c-.194.358-.224.813,0,.97Z" transform="translate(-402.187 -301.506)"/><path class="w" d="M459.693,317.678c0,.284.045.47.187.537h0l-1.94-1.1c-.127-.075-.2-.254-.172-.537l.455-3.784a.575.575,0,0,0-.134-.5l1.888,1.082h0a.567.567,0,0,1,.127.5Z" transform="translate(-402.774 -302.311)"/><path class="a" d="M463.568,300.569l1.186,2.522a.283.283,0,0,0,.388.149l2.649-1.015c.418-.164.589.433.284,1l-1.917,3.59a1.2,1.2,0,0,0-.149.694l.455,3.261c.067.515-.373,1.194-.746,1.149l-2.372-.291a.567.567,0,0,0-.478.276l-2.372,3.03c-.373.485-.813.306-.746-.291l.455-3.784a.56.56,0,0,0-.149-.522l-1.917-1.388c-.306-.216-.134-1.007.284-1.328l2.656-2.045a1.291,1.291,0,0,0,.381-.6l1.186-3.9C462.837,300.487,463.382,300.166,463.568,300.569Z" transform="translate(-402.83 -299.291)"/><path class="j" d="M463.568,300.569l1.186,2.522a.283.283,0,0,0,.388.149l2.649-1.015c.418-.164.589.433.284,1l-1.917,3.59a1.2,1.2,0,0,0-.149.694l.455,3.261c.067.515-.373,1.194-.746,1.149l-2.372-.291a.567.567,0,0,0-.478.276l-2.372,3.03c-.373.485-.813.306-.746-.291l.455-3.784a.56.56,0,0,0-.149-.522l-1.917-1.388c-.306-.216-.134-1.007.284-1.328l2.656-2.045a1.291,1.291,0,0,0,.381-.6l1.186-3.9C462.837,300.487,463.382,300.166,463.568,300.569Z" transform="translate(-402.83 -299.291)"/></g></g><path class="t" d="M471.263,52.83l-5.969,2.56-1.276,6.366a.962.962,0,0,1-1.664.44l-4.275-4.888-6.454.746a.955.955,0,0,1-.925-1.493l3.32-5.575-2.7-5.9a.955.955,0,0,1,1.052-1.306l6.327,1.44,4.775-4.4a.955.955,0,0,1,1.6.619l.589,6.463,5.655,3.179a.955.955,0,0,1-.06,1.746Z" transform="translate(-386.964 -28.979)"/><path class="t" d="M430.407,37.831a.85.85,0,0,1-.187.179.835.835,0,0,1-.88.06l-3.32-1.746-3.328,1.746a.835.835,0,0,1-.88-.06.813.813,0,0,1-.328-.821l.634-3.731-2.693-2.619a.837.837,0,0,1,.463-1.425l3.73-.537,1.664-3.373a.828.828,0,0,1,.746-.463.843.843,0,0,1,.746.463l1.664,3.373,3.73.537a.836.836,0,0,1,.463,1.425h0l-2.693,2.619.642,3.731a.881.881,0,0,1-.172.642ZM419.79,30.077l-.045.1a.306.306,0,0,0,.082.321l2.88,2.813-.679,3.97a.321.321,0,0,0,.463.336l3.566-1.873,3.559,1.873a.336.336,0,0,0,.336,0,.306.306,0,0,0,.127-.313l-.679-3.97,2.88-2.813a.321.321,0,0,0,.082-.321.306.306,0,0,0-.254-.216l-3.992-.582-1.82-3.642a.306.306,0,0,0-.284-.179.321.321,0,0,0-.254.179l-1.776,3.612-3.992.582A.336.336,0,0,0,419.79,30.077Z" transform="translate(-379.002 -25.04)"/></g><g transform="translate(233.39 85.605)"><path class="m" d="M360.509,108.291c-5.618-3.254-13.34-2.813-21.875,2.112-17.16,9.925-31.1,34.231-31.1,54.3,0,10.1,3.536,17.164,9.229,20.47,1.321.746,6.483,3.731,6.483,3.731A14.239,14.239,0,0,1,316,199.843c-.328.187-.127.507.164.672l7.886,4.56a.746.746,0,0,0,.351.1c7.767,0,16.757-5.224,19.264-16.075.94-.448,1.888-.933,2.85-1.493,17.16-9.918,31.1-34.231,31.1-54.291,0-10.1-3.529-17.164-9.221-20.493Z" transform="translate(-307.53 -106.204)"/><path class="o" d="M349.194,116.5c-17.16,9.918-31.1,34.231-31.1,54.291,0,13.619,6.409,21.769,15.9,22.515-.358,4.328-1.619,9.194-7.461,12.634-.463.276.142.791.53.791,7.767,0,16.757-5.224,19.264-16.075.94-.448,1.888-.933,2.85-1.493,17.16-9.918,31.1-34.231,31.1-54.291S366.369,106.583,349.194,116.5Z" transform="translate(-310.211 -107.75)"/><path class="n" d="M326.694,232.507c-.284.179-.157.44.082.619l-7.789-4.478c-.291-.179-.492-.485-.164-.679A14.232,14.232,0,0,0,326.067,217l.858.507.791.463a15.478,15.478,0,0,0,6.416,1.881C333.781,224.2,332.513,229.067,326.694,232.507Z" transform="translate(-310.354 -134.317)"/><path class="e" d="M354.956,179.44a3.648,3.648,0,0,1-1.246-3.179,9.449,9.449,0,0,1,1.224-4.545,8.38,8.38,0,0,1,3.134-3.351q1.9-1.1,3.126-.261a3.528,3.528,0,0,1,1.224,3.127,9.756,9.756,0,0,1-1.246,4.627,8.328,8.328,0,0,1-3.1,3.4C356.829,179.963,355.792,180.03,354.956,179.44Zm-1.112-40.567L362.282,134l-1.41,28.448-5.618,3.246Z" transform="translate(-319.256 -113.257)"/><path class="p" d="M365.34,201.859c9.162-6.716,17.063-17.366,21.9-28.8C378.076,179.784,370.175,190.426,365.34,201.859Z" transform="translate(-322.209 -123.168)"/><g transform="translate(40.557 44.523)"><path class="t" d="M423.046,238.914c-3.178.037-5.543-2.187-7.028-4.985,9.52-11.709,15.959-27.306,15.959-40.948,0-10.112-3.544-17.216-9.251-20.5l-7.871-4.537c-5.618-3.246-13.332-2.8-21.86,2.119-17.16,9.925-31.1,34.231-31.1,54.3,0,10.1,3.529,17.164,9.221,20.485,1.328.746,6.558,3.776,7.849,4.53,5.625,3.276,13.362,2.843,21.912-2.1a47.363,47.363,0,0,0,6.5-4.552c5.775,4.575,12.818-.41,15.608-2.8C423.352,239.615,423.4,238.914,423.046,238.914Z" transform="translate(-361.89 -165.866)"/><path class="e" d="M389.954,252.762c-10.4,0-16.854-8.47-16.854-22.1,0-19.881,13.847-44.03,30.858-53.873,4.76-2.746,9.311-4.142,13.526-4.142,10.393,0,16.854,8.463,16.854,22.1,0,13.037-6.073,28.612-15.847,40.634l-.2.254.149.284c1.753,3.306,4.3,5.157,7.177,5.224a.388.388,0,0,1-.1.164c-1.985,1.7-5.924,4.545-10,4.545h0a7.855,7.855,0,0,1-4.991-1.761l-.306-.239-.306.246a47.3,47.3,0,0,1-6.431,4.478C398.72,251.329,394.169,252.762,389.954,252.762Z" transform="translate(-364.736 -167.587)"/><path class="a" d="M417.309,172v.97c10.094,0,16.369,8.284,16.369,21.6,0,12.94-6.028,28.4-15.735,40.336l-.41.5.306.567c1.612,3.045,3.88,4.918,6.483,5.388-2.067,1.649-5.491,3.851-8.99,3.851a7.377,7.377,0,0,1-4.693-1.657l-.612-.485-.6.5a47.266,47.266,0,0,1-6.364,4.478c-4.685,2.7-9.154,4.075-13.28,4.075-10.094,0-16.369-8.284-16.369-21.642,0-19.724,13.735-43.7,30.589-53.455,4.685-2.7,9.154-4.075,13.28-4.075V172m0,0c-4.148,0-8.819,1.351-13.765,4.209-17.16,9.918-31.1,34.224-31.1,54.291,0,14.291,7.065,22.582,17.339,22.582,4.148,0,8.819-1.351,13.765-4.209a47.363,47.363,0,0,0,6.5-4.552,8.272,8.272,0,0,0,5.29,1.866c4.268,0,8.349-2.985,10.318-4.664.373-.313.418-1.015.067-1.015h-.075c-3.134,0-5.476-2.2-6.953-4.985,9.52-11.709,15.959-27.306,15.959-40.948,0-14.291-7.065-22.575-17.339-22.575Z" transform="translate(-364.561 -167.422)"/><path class="o" d="M408.275,221.863a56.811,56.811,0,0,1,3.111-6.328,47.652,47.652,0,0,0,2.194-4.321,8.151,8.151,0,0,0,.709-3.216c0-1.493-.448-2.41-1.343-2.769s-2.074-.1-3.559.746a13.035,13.035,0,0,0-3.783,3.358,20.724,20.724,0,0,0-2.79,4.91l-5.484-1.127a32.435,32.435,0,0,1,5.148-8.955,27.608,27.608,0,0,1,7.685-6.56q5.222-2.985,8.363-1.866t3.148,6.4a17.593,17.593,0,0,1-.612,4.709,22.62,22.62,0,0,1-1.492,4.037c-.589,1.209-1.358,2.649-2.29,4.321a47.835,47.835,0,0,0-2.447,4.769,9.4,9.4,0,0,0-.746,3.731l-6.842,3.955a15.623,15.623,0,0,1,1.03-5.8Zm-.746,19.2a3.654,3.654,0,0,1-1.246-3.187,9.45,9.45,0,0,1,1.224-4.545,8.417,8.417,0,0,1,3.126-3.351c1.276-.746,2.313-.821,3.134-.261a3.533,3.533,0,0,1,1.224,3.134,9.749,9.749,0,0,1-1.246,4.619,8.29,8.29,0,0,1-3.111,3.4,2.687,2.687,0,0,1-3.066.194Z" transform="translate(-370.889 -173.367)"/></g></g><g transform="translate(59.628 25.018)"><path class="a" d="M189.1,185.3l-34.32,19.881,13.631,23.179a3.142,3.142,0,0,0,1.306,1.493c1.626.918,11.258,6.5,11.788,6.806a3.156,3.156,0,0,0,4.6-1.836l14.8-42.672Z" transform="translate(-94.982 -65.686)"/><path class="p" d="M189.1,185.3l-34.32,19.881,13.631,23.179a3.142,3.142,0,0,0,1.306,1.493c1.626.918,11.258,6.5,11.788,6.806a3.156,3.156,0,0,0,4.6-1.836l14.8-42.672Z" transform="translate(-94.982 -65.686)"/><path class="a" d="M170.61,214.321,184.241,237.5a3.141,3.141,0,0,0,5.887-.388l14.8-42.672Z" transform="translate(-99.001 -68.005)"/><path class="a" d="M207.036,25.751,77.614,100.475a6.567,6.567,0,0,0-2.984,5.149v89.843a6.485,6.485,0,0,0,2.984,5.119l10.647,5.97a6.639,6.639,0,0,0,5.969,0l129.43-74.769a6.59,6.59,0,0,0,2.984-5.149V36.8a6.493,6.493,0,0,0-2.984-5.119l-10.639-5.97a6.653,6.653,0,0,0-5.984.045Z" transform="translate(-74.63 -25.018)"/><path class="k" d="M226.911,36.26c-.239-1.493-1.455-2.03-2.94-1.179L94.557,109.827a5.97,5.97,0,0,0-2.1,2.239l-16.57-9.44a6.044,6.044,0,0,1,2.044-2.112L207.364,25.76a6.661,6.661,0,0,1,5.969,0l10.639,5.97a6.56,6.56,0,0,1,2.94,4.53Z" transform="translate(-74.95 -25.027)"/><path class="a" d="M96.92,208.563V118.713a6.553,6.553,0,0,1,2.984-5.142L229.319,38.862c1.634-.948,2.984-.179,2.984,1.716v89.813a6.59,6.59,0,0,1-2.984,5.149L99.889,210.28C98.248,211.25,96.92,210.459,96.92,208.563Z" transform="translate(-80.29 -28.427)"/><path class="p" d="M94.232,232.91a6.8,6.8,0,0,1-5.969,0l-10.639-5.97a6.463,6.463,0,0,1-2.984-5.1V131.985A6.15,6.15,0,0,1,75.588,129l16.555,9.425a5.859,5.859,0,0,0-.88,2.918v89.843C91.263,232.925,92.486,233.925,94.232,232.91Z" transform="translate(-74.633 -51.401)"/><g transform="translate(26.381 37.41)"><path class="t" d="M136.553,159.829l-1.291-.746a3.267,3.267,0,0,0-3.245,0l-7.886,4.552V152.858l14.6-8.425a4.553,4.553,0,0,0,2.238-3.933v-6.045a4.553,4.553,0,0,0-2.238-3.933h0a4.535,4.535,0,0,0-4.544,0l-20.249,11.694A7.873,7.873,0,0,0,110,149.045v56.112a4.552,4.552,0,0,0,2.238,3.94h0a4.55,4.55,0,0,0,4.544,0l5.051-2.91a4.553,4.553,0,0,0,2.238-3.94V180.232l12.43-7.179a3.254,3.254,0,0,0,1.619-2.813v-7.582a3.232,3.232,0,0,0-1.567-2.828Z" transform="translate(-109.993 -89.043)"/><path class="u" d="M117.242,214.062l-.433.254a4.551,4.551,0,0,1-6.819-3.933V154.271a7.867,7.867,0,0,1,.948-3.731l4.544,2.619a7.8,7.8,0,0,0-.948,3.731v55.59a1.82,1.82,0,0,0,2.708,1.582Z" transform="translate(-109.99 -94.277)"/><path class="e" d="M125.687,153.917v16.03l12.407-7.157a1.089,1.089,0,0,1,1.641.948v7.6a3.239,3.239,0,0,1-1.612,2.8l-12.437,7.179V203.32a4.53,4.53,0,0,1-2.238,3.925l-4.6,2.657a1.813,1.813,0,0,1-2.723-1.575V152.716a7.888,7.888,0,0,1,3.939-6.828l20.055-11.582a1.641,1.641,0,0,1,2.462,1.425v5.843a4.515,4.515,0,0,1-2.238,3.91Z" transform="translate(-111.549 -90.102)"/><path class="t" d="M176.638,113.93A5.371,5.371,0,0,0,168.8,110.8l-5.021,2.9a5.358,5.358,0,0,0-2.559,3.5l-14.974,68.194a2.806,2.806,0,0,0,1.335,2.985l1.373.791a2.8,2.8,0,0,0,2.8,0l6.051-3.493a5.447,5.447,0,0,0,1.985-2.127,10.2,10.2,0,0,0,1.112-2.836l2.432-12.433,12.236-7.067,1.268,5.052A2.843,2.843,0,0,0,178,167.878c.507.3,4.036,2.321,4.544,2.627a1.977,1.977,0,0,0,2.007-.269l7.386-4.269Zm-9.945,37.187,2.619-13.485.157-.746,2.775,11.022Z" transform="translate(-119.183 -84.011)"/><path class="u" d="M192.481,187.189c-.664-.4-3.992-2.3-4.476-2.59a2.843,2.843,0,0,1-1.156-1.612l-1.268-5.052,3.387-1.955,2.425,9.627A2.985,2.985,0,0,0,192.481,187.189Z" transform="translate(-129.184 -100.732)"/><path class="u" d="M184.709,156.536l-4.544-2.627-2.775-11.015h0v-.045c.239-1.075.477-2.3.746-3.657.321-1.694.619-3.5.9-5.433q.485,2.328.962,4.291c.321,1.306.619,2.425.9,3.366Z" transform="translate(-127.104 -90.019)"/><path class="u" d="M150.876,189.462a1.06,1.06,0,0,0,1.321,1.254v.06l-.425.239a2.8,2.8,0,0,1-2.8,0l-1.388-.806a2.806,2.806,0,0,1-1.335-2.985l14.966-68.164a5.225,5.225,0,0,1,.746-1.769l4.544,2.627a4.985,4.985,0,0,0-.746,1.761Z" transform="translate(-119.183 -85.84)"/><path class="e" d="M193.513,167.049l-7.394,4.269a1.964,1.964,0,0,1-2,.269,2.858,2.858,0,0,1-1.156-1.612l-2.425-9.642-15.668,9.022-2.425,12.433a10.606,10.606,0,0,1-1.119,2.843,5.365,5.365,0,0,1-1.985,2.119l-5.349,3.1a1.074,1.074,0,0,1-1.582-1.157L167.3,120.885a5.358,5.358,0,0,1,2.559-3.493l4.827-2.791a2.619,2.619,0,0,1,3.82,1.53ZM178.361,151.6l-3.8-15.149c-.284-.933-.582-2.06-.9-3.366s-.642-2.739-.962-4.291c-.276,1.933-.582,3.731-.9,5.433s-.627,3.164-.91,4.433l-3.775,19.4Z" transform="translate(-120.756 -85.069)"/><path class="t" d="M241.582,131.008a55.471,55.471,0,0,0,3.424-6.97,61.714,61.714,0,0,0,2.537-7.6,65.2,65.2,0,0,0,1.567-7.94,61.071,61.071,0,0,0,.552-8.157A40.771,40.771,0,0,0,248.14,88.47a18.076,18.076,0,0,0-4.327-7.746,10.52,10.52,0,0,0-2.164-1.6l-4.476-2.6a10.2,10.2,0,0,0-4.648-1.366,15.893,15.893,0,0,0-8.729,2.545,32.33,32.33,0,0,0-8.744,7.522,50.084,50.084,0,0,0-6.745,10.7,63.163,63.163,0,0,0-5.879,26.418,40.7,40.7,0,0,0,1.537,11.888A17.964,17.964,0,0,0,208.307,142a10.206,10.206,0,0,0,2.171,1.642c.746.418,3.693,2.134,4.424,2.56a10.212,10.212,0,0,0,4.708,1.366,16.189,16.189,0,0,0,8.744-2.575,28.47,28.47,0,0,0,3.872-2.687l1.85,2.127a4,4,0,0,0,.851.664c.522.306,4.238,2.44,4.521,2.612a2.775,2.775,0,0,0,1.664.4,7.273,7.273,0,0,0,3.037-1.082l7.841-4.522Zm-7-18.731a36.515,36.515,0,0,1-2.276,7.672,24.7,24.7,0,0,1-3.618,6.067,17.951,17.951,0,0,1-4.879,4.187,9.376,9.376,0,0,1-4.566,1.493,13.547,13.547,0,0,1-1.723-4.306,34.829,34.829,0,0,1-.791-8.03,48.049,48.049,0,0,1,.791-8.91,36.516,36.516,0,0,1,2.238-7.672,25.053,25.053,0,0,1,3.641-6.1,17.982,17.982,0,0,1,4.924-4.239,9.167,9.167,0,0,1,4.476-1.433,13.711,13.711,0,0,1,1.746,4.343,35.083,35.083,0,0,1,.828,8.045,48.938,48.938,0,0,1-.791,8.91Z" transform="translate(-133.46 -75.148)"/><path class="u" d="M214.715,153.5c-.948-.545-3.551-2.06-4.238-2.448a10.206,10.206,0,0,1-2.171-1.642,17.964,17.964,0,0,1-4.342-7.761,40.7,40.7,0,0,1-1.537-11.888,61.43,61.43,0,0,1,1.537-13.659A62.1,62.1,0,0,1,207.9,104.23l4.544,2.627a63.133,63.133,0,0,0-5.476,25.56,40.607,40.607,0,0,0,1.537,11.881,17.956,17.956,0,0,0,4.342,7.769A10.72,10.72,0,0,0,214.715,153.5Z" transform="translate(-133.46 -82.527)"/><path class="u" d="M242.577,98.353a5.088,5.088,0,0,0-3.618-1.9h-.388a13.734,13.734,0,0,1,1.738,4.336,35.083,35.083,0,0,1,.791,8.015,48.937,48.937,0,0,1-.791,8.955,36.517,36.517,0,0,1-2.276,7.672,24.7,24.7,0,0,1-3.618,6.067,17.952,17.952,0,0,1-4.879,4.187,9.376,9.376,0,0,1-4.566,1.493,6.179,6.179,0,0,0,.545.746,4.939,4.939,0,0,0,3.641,1.873,9.018,9.018,0,0,0,4.924-1.493,17.952,17.952,0,0,0,4.879-4.187,24.986,24.986,0,0,0,3.618-6.067,36.452,36.452,0,0,0,2.276-7.679,48.879,48.879,0,0,0,.791-8.955,35.084,35.084,0,0,0-.791-7.993A12.106,12.106,0,0,0,242.577,98.353Z" transform="translate(-139.186 -80.553)"/><path class="u" d="M243.661,163.68c-.425.388-.851.746-1.291,1.119l1.85,2.127a4,4,0,0,0,.851.664c.507.3,4.006,2.306,4.476,2.59a4.044,4.044,0,0,1-.791-.634Z" transform="translate(-143.604 -97.611)"/><path class="e" d="M253.536,143.443l-7.841,4.53a7.363,7.363,0,0,1-3.029,1.075,3.118,3.118,0,0,1-2.5-1.06l-5.1-5.866a29.515,29.515,0,0,1-5.163,3.806,16.189,16.189,0,0,1-8.744,2.575,10.1,10.1,0,0,1-6.759-2.94,18.031,18.031,0,0,1-4.342-7.769,40.86,40.86,0,0,1-1.537-11.851A63.163,63.163,0,0,1,214.4,99.525,50.084,50.084,0,0,1,221.156,88.8a32.441,32.441,0,0,1,8.744-7.522q4.79-2.776,8.729-2.545a10.146,10.146,0,0,1,6.715,2.985,17.987,17.987,0,0,1,4.327,7.754,40.428,40.428,0,0,1,1.537,11.836,61.055,61.055,0,0,1-.545,8.157,66.756,66.756,0,0,1-1.582,7.978,61.638,61.638,0,0,1-2.544,7.59,54.48,54.48,0,0,1-3.425,6.97Zm-35.26-23.134a34.9,34.9,0,0,0,.791,8.037,12.248,12.248,0,0,0,2.238,5.052,5.006,5.006,0,0,0,3.641,1.873,9.033,9.033,0,0,0,4.924-1.493,17.952,17.952,0,0,0,4.879-4.187,25.009,25.009,0,0,0,3.626-6.067,36.455,36.455,0,0,0,2.238-7.679,48.168,48.168,0,0,0,.791-8.955,34.665,34.665,0,0,0-.791-7.993,12.2,12.2,0,0,0-2.238-5.052,5.1,5.1,0,0,0-3.626-1.9,8.78,8.78,0,0,0-4.879,1.433,17.825,17.825,0,0,0-4.924,4.231,25.292,25.292,0,0,0-3.641,6.1,36.962,36.962,0,0,0-2.238,7.672,48.11,48.11,0,0,0-.791,8.9Z" transform="translate(-135.007 -76.053)"/></g></g></g></svg>