<svg xmlns="http://www.w3.org/2000/svg" xmlns:xlink="http://www.w3.org/1999/xlink" width="36" height="36" viewBox="0 0 36 36"><defs><style>.a{fill:none;}.b{fill:#08ce73;}.c{fill:url(#a);}.d{fill:url(#b);}.e{fill:#ffa700;}.f{fill:#fff;}.g{fill:#2699fb;}.h{fill:#e71c37;}.i{fill:#e2e2e2;}</style><linearGradient id="a" x1="0.5" x2="0.5" y2="1" gradientUnits="objectBoundingBox"><stop offset="0" stop-color="#faca5d"/><stop offset="1" stop-color="#ff6d21"/></linearGradient><linearGradient id="b" x1="0.5" x2="0.5" y2="1" gradientUnits="objectBoundingBox"><stop offset="0" stop-color="#faca5d"/><stop offset="1" stop-color="#ff9057"/></linearGradient></defs><g transform="translate(-8361.055 5849)"><rect class="a" width="36" height="35.945" transform="translate(8361.055 -5848.945)"/><g transform="translate(8361.819 -5849)"><circle class="b" cx="5.209" cy="5.209" r="5.209" transform="translate(1.158 8.113)"/><circle class="b" cx="5.209" cy="5.209" r="5.209" transform="translate(23.119 8.113)"/><circle class="b" cx="5.209" cy="5.209" r="5.209" transform="translate(12.413 0.637)"/><rect class="c" width="19.679" height="14.44" transform="translate(10.386 21.328)"/><path class="d" d="M15.524,54.44H8V44.126L8.579,40h6.945Z" transform="translate(-4.527 -18.672)"/><path class="e" d="M40.678,40l3.473,3.473H24.473L21,40Z" transform="translate(-10.614 -18.626)"/><path class="f" d="M13.021,23.57a1.644,1.644,0,0,0-1.691-.4l-1.2.4a.494.494,0,0,1-.506-.818l.12-.12a.5.5,0,0,1,.7,0l.058.058.818-.818-.058-.058a1.648,1.648,0,0,0-1.927-.289l-.469-.469-.818.815.469.469A1.645,1.645,0,0,0,10.5,24.665l1.2-.4a.494.494,0,0,1,.506.818l-.12.12a.5.5,0,0,1-.7,0l-.058-.058-.818.818.058.058a1.631,1.631,0,0,0,1.927.289l.469.469.818-.818-.469-.469a1.649,1.649,0,0,0-.29-1.924Z" transform="translate(-4.548 -10.599)"/><path class="f" d="M52.78,21.868l-.818-.818-.469.469A1.645,1.645,0,0,0,49.167,23.5l.4,1.2a.494.494,0,0,1-.818.506l-.12-.12a.5.5,0,0,1,0-.7l.058-.058-.818-.818-.058.058a1.649,1.649,0,0,0-.289,1.927l-.469.469.818.818.469-.469a1.645,1.645,0,0,0,2.326-1.981l-.4-1.2a.494.494,0,0,1,.818-.506l.12.12a.5.5,0,0,1,0,.7l-.058.058.818.818.058-.058a1.649,1.649,0,0,0,.289-1.927Z" transform="translate(-21.587 -10.597)"/><path class="f" d="M32.315,7.663V7H31.158v.663a1.646,1.646,0,0,0-.244,3.045l1.128.564a.494.494,0,0,1-.221.937h-.169a.5.5,0,0,1-.494-.494V11.63H30v.085a1.649,1.649,0,0,0,1.158,1.568v.663h1.158v-.663a1.646,1.646,0,0,0,.244-3.045l-1.128-.564a.494.494,0,0,1,.221-.937h.169a.5.5,0,0,1,.494.494v.084h1.158V9.231A1.649,1.649,0,0,0,32.315,7.663Z" transform="translate(-14.111 -4.627)"/><rect class="g" width="1.158" height="6.945" transform="translate(16.479 12.725)"/><path class="g" d="M36.158,33.63H35V31.315A2.315,2.315,0,0,1,37.315,29v1.158a1.158,1.158,0,0,0-1.158,1.158Z" transform="translate(-16.26 -13.966)"/><path class="g" d="M27.315,32.788H26.158V29.315A1.158,1.158,0,0,0,25,28.158V27a2.315,2.315,0,0,1,2.315,2.315Z" transform="translate(-11.939 -13.12)"/><path class="b" d="M19.024,9.369Q19,9.06,19,8.746A8.036,8.036,0,0,1,21.493,2.9l.8.836a6.887,6.887,0,0,0-2.137,5.01q0,.27.02.534Z" transform="translate(-9.352 -2.9)"/><rect class="h" width="1.158" height="1.158" transform="translate(1.158 1.215)"/><rect class="b" width="1.158" height="1.158" transform="translate(5.209 4.109)"/><rect class="i" width="1.158" height="1.158" transform="translate(0.579 19.652)"/><rect class="i" width="1.158" height="1.158" transform="translate(32.958 19.652)"/><rect class="h" width="1.158" height="1.158" transform="translate(25.003 0.637)"/><rect class="b" width="1.158" height="1.158" transform="translate(30.643 4.688)"/><path class="e" d="M6.473,40,3,43.473H9.945L13.418,40Z" transform="translate(-2.421 -18.626)"/><rect class="e" width="34.116" height="1.163" transform="translate(0 34.836)"/></g></g></svg>