<svg xmlns="http://www.w3.org/2000/svg" width="24" height="24" viewBox="0 0 24 24"><defs><style>.a{fill:none;}.b{fill:#08ce73;}</style></defs><g transform="translate(6933 -10316)"><rect class="a" width="24" height="24" transform="translate(-6933 10316)"/><g transform="translate(-6931 10316)"><path class="b" d="M56.793,158.794v-3.6h-2.4V154a2,2,0,0,0-4,0v1.2H48v11.191h4.8v-.8h-4V156h1.6v.8h.8V156h2.4v.8h.8V156h1.6v2.8Zm-3.2-3.6H51.2V154a1.2,1.2,0,0,1,2.4,0Zm0,0" transform="translate(-45.602 -144.387)"/><path class="b" d="M15.6,23.2H1.2a.378.378,0,0,1-.4-.4V1.2A.378.378,0,0,1,1.2.8H12.8V3.2A1.179,1.179,0,0,0,14,4.4h.8V3.6H14a.378.378,0,0,1-.4-.4V1.44L16,4.12V14.4h.8V3.84L13.361,0H1.2A1.179,1.179,0,0,0,0,1.2V22.8A1.179,1.179,0,0,0,1.2,24H15.6a1.179,1.179,0,0,0,1.2-1.2H16A.378.378,0,0,1,15.6,23.2Zm0,0"/><path class="b" d="M112,40h4.4v.8H112Zm0,0" transform="translate(-106.399 -38.002)"/><path class="b" d="M48,80h8.393v.8H48Zm0,0" transform="translate(-45.602 -76.003)"/><path class="b" d="M48,120H59.99v.8H48Zm0,0" transform="translate(-45.602 -114)"/><path class="b" d="M200,160h4.4v.8H200Zm0,0" transform="translate(-189.997 -152)"/><path class="b" d="M240,200h2.4v.8H240Zm0,0" transform="translate(-227.999 -190)"/><path class="b" d="M240,240h2.4v.8H240Zm0,0" transform="translate(-227.999 -228)"/><path class="b" d="M48,160h1.6v.8H48Zm0,0" transform="translate(-45.602 -152)"/><path class="b" d="M192,368h2v.8h-2Zm0,0" transform="translate(-182.399 -349.599)"/><path class="b" d="M192,392h1.2v.8H192Zm0,0" transform="translate(-182.399 -372.396)"/><path class="b" d="M169.193,304H161.2a1.178,1.178,0,0,0-1.2,1.2v4.4a1.178,1.178,0,0,0,1.2,1.2h7.993a1.178,1.178,0,0,0,1.2-1.2v-4.4A1.178,1.178,0,0,0,169.193,304Zm.4,5.6a.378.378,0,0,1-.4.4H161.2a.378.378,0,0,1-.4-.4v-3.2h8.793Zm0-4H160.8v-.4a.378.378,0,0,1,.4-.4h7.993a.378.378,0,0,1,.4.4Zm0,0" transform="translate(-151.992 -288.793)"/></g></g></svg>