<svg xmlns="http://www.w3.org/2000/svg" width="24" height="24" viewBox="0 0 24 24"><defs><style>.a{fill:none;}.b{fill:#08ce73;}</style></defs><g transform="translate(-266 -9548)"><rect class="a" width="24" height="24" transform="translate(266 9548)"/><g transform="translate(266 9548)"><path class="b" d="M23.3,17.3h-.844V15.75a.7.7,0,0,0-1.406,0V17.3H18.7V.7A.7.7,0,0,0,18,0H6a.7.7,0,0,0-.7.7V17.3H2.953V15.75a.7.7,0,0,0-1.406,0V17.3H.7A.7.7,0,0,0,0,18v5.3a.7.7,0,0,0,.7.7H23.3a.7.7,0,0,0,.7-.7V18A.7.7,0,0,0,23.3,17.3ZM1.406,18.7H5.3v3.891H1.406Zm8.672,3.891V20.953h3.844v1.641Zm5.25,0V20.25a.7.7,0,0,0-.7-.7H9.375a.7.7,0,0,0-.7.7v2.344H6.7V1.406H17.3V22.594Zm7.266,0H18.7V18.7h3.891Z"/><path class="b" d="M183.714,65H177.7a.7.7,0,1,0,0,1.409h6.01a.7.7,0,1,0,0-1.409Z" transform="translate(-168.709 -61.948)"/><path class="b" d="M186.456,129H185.7a.7.7,0,1,0,0,1.409h.751a.7.7,0,1,0,0-1.409Z" transform="translate(-176.33 -122.954)"/><path class="b" d="M282.456,129H281.7a.7.7,0,1,0,0,1.409h.751a.7.7,0,0,0,0-1.409Z" transform="translate(-267.83 -122.954)"/><path class="b" d="M186.456,193H185.7a.7.7,0,1,0,0,1.409h.751a.7.7,0,1,0,0-1.409Z" transform="translate(-176.33 -183.954)"/><path class="b" d="M282.456,193H281.7a.7.7,0,1,0,0,1.409h.751a.7.7,0,0,0,0-1.409Z" transform="translate(-267.83 -183.954)"/><path class="b" d="M186.456,257H185.7a.7.7,0,1,0,0,1.409h.751a.7.7,0,1,0,0-1.409Z" transform="translate(-176.33 -244.954)"/><path class="b" d="M282.456,257H281.7a.7.7,0,1,0,0,1.409h.751a.7.7,0,0,0,0-1.409Z" transform="translate(-267.83 -244.954)"/><path class="b" d="M186.456,321H185.7a.7.7,0,1,0,0,1.409h.751a.7.7,0,1,0,0-1.409Z" transform="translate(-176.33 -305.955)"/><path class="b" d="M282.456,321H281.7a.7.7,0,1,0,0,1.409h.751a.7.7,0,0,0,0-1.409Z" transform="translate(-267.83 -305.955)"/></g></g></svg>