<svg xmlns="http://www.w3.org/2000/svg" xmlns:xlink="http://www.w3.org/1999/xlink" width="36" height="36" viewBox="0 0 36 36"><defs><style>.a{fill:none;}.b{fill:url(#a);}.c{fill:#2699fb;}.d{fill:#e71c37;}.e{fill:url(#b);}.f{fill:#08ce73;}</style><linearGradient id="a" x1="0.5" x2="0.5" y2="1" gradientUnits="objectBoundingBox"><stop offset="0" stop-color="#e71c37"/><stop offset="1" stop-color="#ff6d21"/></linearGradient><linearGradient id="b" x1="0.462" y1="0.03" x2="0.5" y2="1.077" gradientUnits="objectBoundingBox"><stop offset="0" stop-color="#faca5d"/><stop offset="1" stop-color="#ff6d21"/></linearGradient></defs><g transform="translate(-1612 -1283)"><rect class="a" width="36" height="36" transform="translate(1612 1283)"/><g transform="translate(1612.975 1283)"><path class="b" d="M85.139,81.741a4.356,4.356,0,0,0-5.225-2.408,7.532,7.532,0,0,0-1.341.6c-.118.064-.24.127-.361.191a.611.611,0,0,1-.087.032h-.038A.7.7,0,0,1,78,80.12l-.358-.191a7.532,7.532,0,0,0-1.341-.6,4.354,4.354,0,0,0-5.225,2.408c-1.575,3.286.26,6.887,5.029,9.876.159.1.321.2.483.3.225.136,1.066.671,1.523.962.477-.306,1.3-.829,1.517-.962.162-.1.324-.2.483-.3C84.879,88.628,86.715,85.027,85.139,81.741Z" transform="translate(-51.582 -56.88)"/><path class="c" d="M56.382,70.521H49.269a.846.846,0,0,0,0,1.692h7.113a.846.846,0,0,0,0-1.692Z" transform="translate(-35.872 -50.746)"/><path class="d" d="M27.567,45.814a1.137,1.137,0,0,0,1.608,0l1.792-1.792a.846.846,0,0,0-1.195-1.2l0,0-1.4,1.4-.4-.4a.867.867,0,0,0-1.2,0,.848.848,0,0,0,0,1.2Z" transform="translate(-20.303 -30.878)"/><path class="c" d="M49.265,45.828a.846.846,0,0,0,0,1.692h7.113a.846.846,0,0,0,0-1.692Z" transform="translate(-35.868 -33.19)"/><path class="d" d="M27.567,70.509a1.137,1.137,0,0,0,1.608,0h0l1.792-1.792a.846.846,0,0,0-1.2-1.2h0l-1.4,1.4-.4-.4a.867.867,0,0,0-1.2,0,.848.848,0,0,0,0,1.2Z" transform="translate(-20.303 -48.437)"/><path class="e" d="M31.055,11.565H41.161a1.853,1.853,0,0,0,1.723-1.341,1.444,1.444,0,0,0,.064-.332V7.727a1.615,1.615,0,0,0-.064-.335,1.9,1.9,0,0,0-.257-.535A1.853,1.853,0,0,0,41.1,6.065h-1.09V5.909A3.865,3.865,0,0,0,36.159,2.1H36.1a3.9,3.9,0,0,0-2.737,1.116,3.836,3.836,0,0,0-1.15,2.694v.156h-1.09a1.853,1.853,0,0,0-1.523.792,1.9,1.9,0,0,0-.257.535,1.506,1.506,0,0,0-.064.347V9.877a1.414,1.414,0,0,0,.064.347A1.847,1.847,0,0,0,31.055,11.565ZM34.043,5.9a2.04,2.04,0,0,1,2.026-1.968h.09A2.04,2.04,0,0,1,38.185,5.9v.165H34.043Z" transform="translate(-22.261 -2.1)"/><path class="f" d="M25.776,48.3H10.145a2.664,2.664,0,0,1-2.482-1.56,4.262,4.262,0,0,1-.319-2V28.912c0-1.152-.006-2.453.06-3.7a2.691,2.691,0,0,1,2.488-2.467c.253-.02.531-.026.873-.032h.118v-2.47h-.531a5.059,5.059,0,0,0-2.439.528A5.412,5.412,0,0,0,5,25.887c.006,3.148.006,6.345.006,9.442v1.025C5,38.353,5,36.7,5,38.7c.006.85,0,1.715,0,2.553l-.006.359c0,2.4-.008,1.706.04,4.165a5.1,5.1,0,0,0,1.531,3.516,5.038,5.038,0,0,0,3.562,1.488h.023c2.824-.012,5.584-.023,8.4-.023h.6c1.732,0,6.46,0,9.841.009-.029-.02-.058-.037-.086-.055A18.881,18.881,0,0,1,25.776,48.3Z" transform="translate(-4.993 -14.997)"/><path class="f" d="M81.47,22.745a2.689,2.689,0,0,1,2.488,2.467c.066,1.247.063,2.548.063,3.7v7.543a8.7,8.7,0,0,1,1.166.54,9.186,9.186,0,0,1,1.169-.543c0-4.145,0-8.9.005-10.564a5.422,5.422,0,0,0-2.912-5.116,5.053,5.053,0,0,0-2.439-.528h-.529v2.47H80.6C80.939,22.719,81.218,22.724,81.47,22.745Z" transform="translate(-58.664 -14.997)"/></g></g></svg>