<svg xmlns="http://www.w3.org/2000/svg" xmlns:xlink="http://www.w3.org/1999/xlink" width="44" height="44" viewBox="0 0 44 44">
  <defs>
    <linearGradient id="linear-gradient" x1="0.5" x2="0.5" y2="1" gradientUnits="objectBoundingBox">
      <stop offset="0" stop-color="#e71c37"/>
      <stop offset="1" stop-color="#ff6d21"/>
    </linearGradient>
    <linearGradient id="linear-gradient-2" x1="0.462" y1="0.03" x2="0.5" y2="1.077" gradientUnits="objectBoundingBox">
      <stop offset="0" stop-color="#faca5d"/>
      <stop offset="1" stop-color="#ff6d21"/>
    </linearGradient>
  </defs>
  <g id="Group_18061" data-name="Group 18061" transform="translate(-1612 -1283)">
    <rect id="Rectangle_5719" data-name="Rectangle 5719" width="44" height="44" transform="translate(1612 1283)" fill="none"/>
    <g id="Group_18057" data-name="Group 18057" transform="translate(1613.192 1283)">
      <path id="Path_25810" data-name="Path 25810" d="M88.388,82.317A5.324,5.324,0,0,0,82,79.375a9.206,9.206,0,0,0-1.639.728c-.145.078-.293.155-.442.233a.748.748,0,0,1-.106.039h-.046a.86.86,0,0,1-.11-.039l-.438-.233a9.205,9.205,0,0,0-1.639-.728A5.322,5.322,0,0,0,71.2,82.317c-1.925,4.016.318,8.418,6.146,12.07.194.124.392.247.59.367.276.166,1.3.82,1.862,1.176.583-.374,1.59-1.014,1.855-1.176.2-.12.4-.24.59-.364C88.07,90.735,90.313,86.334,88.388,82.317Z" transform="translate(-47.374 -51.931)" fill="url(#linear-gradient)"/>
      <path id="Path_25811" data-name="Path 25811" d="M58.15,70.521H49.456a1.034,1.034,0,0,0,0,2.068H58.15a1.034,1.034,0,0,0,0-2.068Z" transform="translate(-33.082 -46.352)" fill="#2699fb"/>
      <path id="Path_25812" data-name="Path 25812" d="M27.8,46.534a1.39,1.39,0,0,0,1.965,0l2.191-2.19a1.034,1.034,0,0,0-1.46-1.465l0,0-1.711,1.711-.49-.49a1.059,1.059,0,0,0-1.463,0,1.036,1.036,0,0,0,0,1.463Z" transform="translate(-18.92 -28.278)" fill="#e71c37"/>
      <path id="Path_25813" data-name="Path 25813" d="M49.453,45.828a1.034,1.034,0,0,0,0,2.069h8.694a1.034,1.034,0,0,0,0-2.069Z" transform="translate(-33.079 -30.381)" fill="#2699fb"/>
      <path id="Path_25814" data-name="Path 25814" d="M27.8,71.228a1.389,1.389,0,0,0,1.965,0h0l2.191-2.19a1.034,1.034,0,1,0-1.463-1.462h0l-1.711,1.711-.49-.49a1.059,1.059,0,0,0-1.463,0,1.036,1.036,0,0,0,0,1.463Z" transform="translate(-18.92 -44.251)" fill="#e71c37"/>
      <path id="Path_25815" data-name="Path 25815" d="M31.449,13.669H43.8a2.265,2.265,0,0,0,2.105-1.639,1.764,1.764,0,0,0,.078-.406V8.978a1.975,1.975,0,0,0-.078-.41,2.321,2.321,0,0,0-.314-.654,2.264,2.264,0,0,0-1.862-.968H42.4V6.756A4.724,4.724,0,0,0,37.687,2.1h-.071a4.772,4.772,0,0,0-3.345,1.364,4.689,4.689,0,0,0-1.406,3.292v.191H31.534a2.264,2.264,0,0,0-1.862.968,2.321,2.321,0,0,0-.314.654,1.841,1.841,0,0,0-.078.424v2.614a1.729,1.729,0,0,0,.078.424A2.258,2.258,0,0,0,31.449,13.669ZM35.1,6.745A2.494,2.494,0,0,1,37.578,4.34h.11a2.494,2.494,0,0,1,2.476,2.406v.2H35.1Z" transform="translate(-20.701 -2.1)" fill="url(#linear-gradient-2)"/>
      <path id="Path_25816" data-name="Path 25816" d="M30.395,54.54H11.29a3.256,3.256,0,0,1-3.033-1.906,5.209,5.209,0,0,1-.39-2.45V30.839c0-1.408-.007-3,.074-4.522a3.289,3.289,0,0,1,3.04-3.016c.309-.025.649-.032,1.067-.039h.144V20.244h-.649a6.184,6.184,0,0,0-2.981.646A6.615,6.615,0,0,0,5,27.142c.007,3.848.007,7.755.007,11.54v1.253C5,42.379,5,40.356,5,42.8c.007,1.039,0,2.1,0,3.121l-.007.439c0,2.939-.01,2.086.049,5.091a6.232,6.232,0,0,0,1.871,4.3,6.157,6.157,0,0,0,4.353,1.819H11.3c3.451-.014,6.825-.028,10.262-.028h.731c2.117,0,7.9,0,12.028.011-.035-.024-.07-.046-.105-.067A23.076,23.076,0,0,1,30.395,54.54Z" transform="translate(-4.993 -13.832)" fill="#08ce73"/>
      <path id="Path_25817" data-name="Path 25817" d="M81.69,23.3a3.287,3.287,0,0,1,3.04,3.016c.081,1.524.077,3.114.077,4.522v9.219a10.634,10.634,0,0,1,1.425.66,11.227,11.227,0,0,1,1.429-.664c0-5.066,0-10.883.007-12.912a6.627,6.627,0,0,0-3.56-6.253,6.176,6.176,0,0,0-2.981-.646h-.646v3.019h.141C81.04,23.269,81.381,23.277,81.69,23.3Z" transform="translate(-53.816 -13.832)" fill="#08ce73"/>
    </g>
  </g>
</svg>