<svg xmlns="http://www.w3.org/2000/svg" xmlns:xlink="http://www.w3.org/1999/xlink" width="157.665" height="46.524" viewBox="0 0 157.665 46.524">
  <defs>
    <linearGradient id="linear-gradient" x1="2.472" y1="1.035" x2="2.361" y2="1.005" gradientUnits="objectBoundingBox">
      <stop offset="0" stop-color="#00a0ff"/>
      <stop offset="0.007" stop-color="#00a1ff"/>
      <stop offset="0.26" stop-color="#00beff"/>
      <stop offset="0.512" stop-color="#00d2ff"/>
      <stop offset="0.76" stop-color="#00dfff"/>
      <stop offset="1" stop-color="#00e3ff"/>
    </linearGradient>
    <linearGradient id="linear-gradient-2" x1="1.95" y1="1.879" x2="1.69" y2="1.879" gradientUnits="objectBoundingBox">
      <stop offset="0" stop-color="#ffe000"/>
      <stop offset="0.409" stop-color="#ffbd00"/>
      <stop offset="0.775" stop-color="orange"/>
      <stop offset="1" stop-color="#ff9c00"/>
    </linearGradient>
    <linearGradient id="linear-gradient-3" x1="1.926" y1="0.946" x2="1.835" y2="0.793" gradientUnits="objectBoundingBox">
      <stop offset="0" stop-color="#ff3a44"/>
      <stop offset="1" stop-color="#c31162"/>
    </linearGradient>
    <linearGradient id="linear-gradient-4" x1="1.856" y1="2.093" x2="1.897" y2="2.025" gradientUnits="objectBoundingBox">
      <stop offset="0" stop-color="#32a071"/>
      <stop offset="0.068" stop-color="#2da771"/>
      <stop offset="0.476" stop-color="#15cf74"/>
      <stop offset="0.801" stop-color="#06e775"/>
      <stop offset="1" stop-color="#00f076"/>
    </linearGradient>
  </defs>
  <g id="Google_Play_Store-cssbg" transform="translate(-861 -7622)">
    <path id="Path_2110" data-name="Path 2110" d="M151.823,46.524H5.842A5.845,5.845,0,0,1,0,40.708V5.815A5.837,5.837,0,0,1,5.842,0H151.823a5.839,5.839,0,0,1,5.842,5.815V40.708A5.847,5.847,0,0,1,151.823,46.524Z" transform="translate(861 7622)" fill-rule="evenodd"/>
    <path id="Path_2111" data-name="Path 2111" d="M151.823.931a4.911,4.911,0,0,1,4.911,4.884V40.708a4.9,4.9,0,0,1-4.911,4.884H5.842A4.911,4.911,0,0,1,.931,40.708V5.815A4.9,4.9,0,0,1,5.842.931Zm0-.931H5.842A5.845,5.845,0,0,0,0,5.815V40.708a5.837,5.837,0,0,0,5.842,5.815H151.823a5.839,5.839,0,0,0,5.842-5.815V5.815A5.847,5.847,0,0,0,151.823,0Z" transform="translate(861 7622)" fill="none" fill-rule="evenodd"/>
    <path id="Path_2112" data-name="Path 2112" d="M1689.376,278.821a3.54,3.54,0,0,1-2.642-1.093,3.724,3.724,0,0,1-1.068-2.668,3.641,3.641,0,0,1,1.068-2.666,3.529,3.529,0,0,1,2.639-1.093,3.576,3.576,0,0,1,2.642,1.093,3.862,3.862,0,0,1,0,5.331A3.51,3.51,0,0,1,1689.376,278.821Zm-31.328,0a3.67,3.67,0,0,1-2.654-1.079,3.759,3.759,0,0,1,2.654-6.439,3.7,3.7,0,0,1,1.482.307,3,3,0,0,1,1.128.806l.07.084-.786.772-.081-.1a2.234,2.234,0,0,0-1.824-.786,2.521,2.521,0,0,0-1.819.743,2.82,2.82,0,0,0,0,3.863,2.659,2.659,0,0,0,3.687,0,2.01,2.01,0,0,0,.534-1.21h-2.521V274.7h3.6l.014.1a3.977,3.977,0,0,1,.052.545,3.266,3.266,0,0,1-.9,2.407A3.51,3.51,0,0,1,1658.047,278.821Zm41.654-.154h-1.111l-3.4-5.444.029.98v4.461h-1.111v-7.208h1.268l.035.055,3.2,5.128-.029-.977v-4.206h1.122Zm-18.673,0H1679.9v-6.126h-1.952v-1.085h5.026v1.085h-1.952v6.126Zm-3.994,0h-1.123v-7.211h1.123Zm-6.309,0H1669.6v-6.126h-1.952v-1.085h5.027v1.085h-1.952Zm-3.785-.012h-4.3v-7.2h4.3v1.085h-3.179v1.978h2.869v1.073h-2.869v1.978h3.179Zm20.617-1.674a2.484,2.484,0,0,0,1.819.754,2.421,2.421,0,0,0,1.819-.754,2.858,2.858,0,0,0,0-3.84,2.489,2.489,0,0,0-1.819-.754,2.41,2.41,0,0,0-1.816.754,2.862,2.862,0,0,0-.006,3.84Z" transform="translate(-745.317 7358.569)" fill="#fff"/>
    <path id="Path_2113" data-name="Path 2113" d="M1678.182,688.494a4.948,4.948,0,1,0,4.963,4.948A4.871,4.871,0,0,0,1678.182,688.494Zm0,7.936a3.007,3.007,0,1,1,2.79-3A2.863,2.863,0,0,1,1678.182,696.429Zm-10.828-7.936a4.948,4.948,0,1,0,4.963,4.948A4.871,4.871,0,0,0,1667.354,688.494Zm0,7.936a3.007,3.007,0,1,1,2.79-3A2.863,2.863,0,0,1,1667.354,696.429ZM1654.47,690V692.1h5.026a4.413,4.413,0,0,1-1.137,2.637,5.128,5.128,0,0,1-3.878,1.537,5.584,5.584,0,0,1,0-11.167,5.366,5.366,0,0,1,3.785,1.5l1.485-1.485a7.3,7.3,0,0,0-5.259-2.12,7.678,7.678,0,1,0,0,15.355,7.028,7.028,0,0,0,5.363-2.158,6.949,6.949,0,0,0,1.821-4.911,6.471,6.471,0,0,0-.116-1.305h-7.095S1654.47,690,1654.47,690Zm52.7,1.63a4.6,4.6,0,0,0-4.238-3.153,4.7,4.7,0,0,0-4.664,4.948,4.836,4.836,0,0,0,4.911,4.948,4.911,4.911,0,0,0,4.122-2.2l-1.679-1.125a2.814,2.814,0,0,1-2.431,1.369,2.527,2.527,0,0,1-2.4-1.5l6.616-2.741S1707.169,691.635,1707.169,691.635Zm-6.747,1.653a2.716,2.716,0,0,1,2.584-2.883,1.907,1.907,0,0,1,1.836,1.047Zm-5.375,4.795h2.172V683.545h-2.172Zm-3.568-8.49h-.078a3.427,3.427,0,0,0-2.61-1.111,4.948,4.948,0,0,0,0,9.888,3.418,3.418,0,0,0,2.61-1.125h.078v.711c0,1.888-1.009,2.906-2.637,2.906a2.743,2.743,0,0,1-2.494-1.758l-1.888.789a4.723,4.723,0,0,0,4.38,2.921c2.547,0,4.7-1.5,4.7-5.157v-8.878h-2.054v.815Zm-2.494,6.836a3.009,3.009,0,0,1,0-6,2.782,2.782,0,0,1,2.636,3.011A2.747,2.747,0,0,1,1688.986,696.429Zm28.355-12.884h-5.195v14.537h2.172v-5.505h3.025a4.523,4.523,0,1,0,0-9.032Zm.064,7h-3.089v-4.989h3.089a2.495,2.495,0,1,1,0,4.989Zm13.415-2.08a4.091,4.091,0,0,0-3.878,2.222l1.926.8a2.066,2.066,0,0,1,1.978-1.073,2.1,2.1,0,0,1,2.288,1.874v.154a4.866,4.866,0,0,0-2.262-.557c-2.08,0-4.188,1.137-4.188,3.269a3.36,3.36,0,0,0,3.605,3.205,3.058,3.058,0,0,0,2.764-1.421h.078v1.125h2.094V692.5C1735.226,689.9,1733.3,688.467,1730.82,688.467Zm-.273,7.962c-.711,0-1.705-.348-1.705-1.241,0-1.125,1.241-1.552,2.3-1.552a3.771,3.771,0,0,1,1.978.49A2.615,2.615,0,0,1,1730.547,696.429Zm12.318-7.651-2.494,6.306h-.078l-2.584-6.306h-2.338l3.878,8.815-2.21,4.9h2.262l5.966-13.714Zm-19.555,9.3h2.172V683.545h-2.172Z" transform="translate(-737.938 6958.811)" fill="#fff" fill-rule="evenodd"/>
    <g id="Group_17022" data-name="Group 17022">
      <path id="Path_2114" data-name="Path 2114" d="M400.631,299.478a2.356,2.356,0,0,0-.531,1.642v25.719a2.242,2.242,0,0,0,.542,1.627l.09.078,14.41-14.41v-.322L400.721,299.4Z" transform="translate(472.505 7331.284)" fill-rule="evenodd" fill="url(#linear-gradient)"/>
      <path id="Path_2115" data-name="Path 2115" d="M923.106,640.449l-4.806-4.806v-.336l4.806-4.806.1.064,5.685,3.231c1.627.917,1.627,2.431,0,3.359l-5.685,3.231Z" transform="translate(-30.665 7009.787)" fill-rule="evenodd" fill="url(#linear-gradient-2)"/>
      <path id="Path_2116" data-name="Path 2116" d="M437.81,806.911,432.9,802l-14.5,14.5a1.9,1.9,0,0,0,2.416.078l16.994-9.667" transform="translate(454.735 6843.262)" fill-rule="evenodd" fill="url(#linear-gradient-3)"/>
      <path id="Path_2117" data-name="Path 2117" d="M437.81,296.523l-16.994-9.653a1.884,1.884,0,0,0-2.416.078l14.5,14.485Z" transform="translate(454.735 7343.829)" fill-rule="evenodd" fill="url(#linear-gradient-4)"/>
    </g>
    <path id="Path_2118" data-name="Path 2118" d="M438.094,967.7l-16.878,9.589a1.915,1.915,0,0,1-2.326.012l-.09.09.09.078a1.92,1.92,0,0,0,2.326-.012L438.21,967.8Z" transform="translate(454.348 6682.368)" fill-rule="evenodd" opacity="0.2"/>
    <path id="Path_2119" data-name="Path 2119" d="M1089.3,803.511l-5.8,3.295.1.1,5.685-3.231A2.037,2.037,0,0,0,1090.5,802,2.092,2.092,0,0,1,1089.3,803.511Z" transform="translate(-191.073 6843.262)" fill-rule="evenodd" opacity="0.12"/>
    <path id="Path_2120" data-name="Path 2120" d="M403.047,286.868l22.679,12.884a2.137,2.137,0,0,1,1.215,1.511,2.037,2.037,0,0,0-1.215-1.679L403.047,286.7c-1.627-.931-2.947-.154-2.947,1.706v.168C400.1,286.712,401.42,285.949,403.047,286.868Z" transform="translate(472.505 7343.998)" fill="#fff" fill-rule="evenodd" opacity="0.25"/>
  </g>
</svg>
