<svg xmlns="http://www.w3.org/2000/svg" xmlns:xlink="http://www.w3.org/1999/xlink" width="44" height="44" viewBox="0 0 44 44">
  <defs>
    <linearGradient id="linear-gradient" x1="0.5" y1="0.271" x2="0.5" y2="1" gradientUnits="objectBoundingBox">
      <stop offset="0" stop-color="#faca5d"/>
      <stop offset="1" stop-color="#ff6d21"/>
    </linearGradient>
  </defs>
  <g id="healthrecords_color_icon_44px" transform="translate(0 -0.394)">
    <rect id="Rectangle_2057" data-name="Rectangle 2057" width="44" height="44" transform="translate(0 0.394)" fill="none"/>
    <g id="Group_16059" data-name="Group 16059" transform="translate(-0.311)">
      <g id="records" transform="translate(6 0.394)">
        <path id="Path_266" data-name="Path 266" d="M155.917,75.705v30.937a3.7,3.7,0,0,1-3.693,3.705H132.193a3.7,3.7,0,0,1-3.693-3.705v-.556h19.386a3.7,3.7,0,0,0,3.692-3.705V72h.646A3.7,3.7,0,0,1,155.917,75.705Z" transform="translate(-123.593 -67.094)" fill="#fff"/>
        <path id="Path_267" data-name="Path 267" d="M107.854,30.261V60.643a3.688,3.688,0,0,1-3.672,3.705H84.172A3.688,3.688,0,0,1,80.5,60.643V32.113h4.59a1.85,1.85,0,0,0,1.836-1.853V26h17.257a3.688,3.688,0,0,1,3.672,3.705Zm-4.222,5.928V33.966a.185.185,0,0,0-.184-.185h-3.029a.185.185,0,0,1-.184-.185V30.539a.185.185,0,0,0-.184-.185H97.757a.185.185,0,0,0-.184.185V33.6a.185.185,0,0,1-.184.185H94.177a.185.185,0,0,0-.184.185v2.223a.185.185,0,0,0,.184.185h3.213a.185.185,0,0,1,.184.185v3.335a.185.185,0,0,0,.184.185h2.295a.185.185,0,0,0,.184-.185V36.559a.185.185,0,0,1,.184-.185h3.029A.185.185,0,0,0,103.631,36.189Z" transform="translate(-79.806 -25.352)" fill="#fff"/>
        <path id="Path_268" data-name="Path 268" d="M237.219,76.61v2.221a.186.186,0,0,1-.185.185h-3.055a.186.186,0,0,0-.185.185v3.332a.186.186,0,0,1-.185.185H231.3a.186.186,0,0,1-.185-.185V79.2a.186.186,0,0,0-.185-.185h-3.24a.186.186,0,0,1-.185-.185V76.61a.186.186,0,0,1,.185-.185h3.24a.186.186,0,0,0,.185-.185V73.185a.186.186,0,0,1,.185-.185h2.314a.186.186,0,0,1,.185.185V76.24a.186.186,0,0,0,.185.185h3.055A.186.186,0,0,1,237.219,76.61Z" transform="translate(-213.384 -68.002)" fill="#e71c37"/>
        <path id="Path_269" data-name="Path 269" d="M86.979,26v4.258a1.857,1.857,0,0,1-1.851,1.851H80.5v-.243L86.939,26Z" transform="translate(-79.806 -25.352)" fill="#08ce73"/>
        <path id="Path_271" data-name="Path 271" d="M101.661,23.26h0A4.335,4.335,0,0,0,97.35,19H80.068a.639.639,0,0,0-.432.169l-6.4,5.87a.675.675,0,0,0-.233.479v28.77a4.376,4.376,0,0,0,4.356,4.353h.094a4.335,4.335,0,0,0,4.308,4.26h19.9a4.256,4.256,0,0,0,3.028-1.281,4.341,4.341,0,0,0,1.236-3.072V27.614a4.341,4.341,0,0,0-1.236-3.072A4.256,4.256,0,0,0,101.661,23.26ZM79.42,21.08v2.829a1.162,1.162,0,0,1-1.146,1.2H75.081ZM74.284,54.288V26.41h3.99a2.453,2.453,0,0,0,2.43-2.5V20.3H97.35a3.006,3.006,0,0,1,2.981,3.056V54.288a3.006,3.006,0,0,1-2.981,3.056H77.356A3.084,3.084,0,0,1,74.284,54.288Zm30.358,4.26a3.006,3.006,0,0,1-2.981,3.056h-19.9a3.044,3.044,0,0,1-3.024-2.964H97.35a4.256,4.256,0,0,0,3.028-1.281,4.341,4.341,0,0,0,1.236-3.072V24.557a3,3,0,0,1,3.027,3.056Z" transform="translate(-73 -19)" fill="#08ce73"/>
        <path id="Path_272" data-name="Path 272" d="M120.148,187.3h6.479a.648.648,0,0,0,0-1.3h-6.479a.648.648,0,1,0,0,1.3Z" transform="translate(-115.196 -170.532)" fill="#2699fb"/>
        <path id="Path_273" data-name="Path 273" d="M120.148,236.3h9.812a.648.648,0,0,0,0-1.3h-9.812a.648.648,0,1,0,0,1.3Z" transform="translate(-115.196 -215.991)" fill="#2699fb"/>
        <path id="Path_274" data-name="Path 274" d="M120.148,285.3h9.812a.648.648,0,0,0,0-1.3h-9.812a.648.648,0,1,0,0,1.3Z" transform="translate(-115.196 -261.45)" fill="#2699fb"/>
        <path id="Path_275" data-name="Path 275" d="M120.148,334.3h15.458a.648.648,0,1,0,0-1.3H120.148a.648.648,0,0,0,0,1.3Z" transform="translate(-115.196 -306.909)" fill="#2699fb"/>
        <path id="Path_276" data-name="Path 276" d="M140.234,382.648a.648.648,0,0,0-.648-.648H120.148a.648.648,0,0,0,0,1.3h19.438A.648.648,0,0,0,140.234,382.648Z" transform="translate(-115.196 -348.379)" fill="#d1d1d1"/>
      </g>
      <g id="Group_1892" data-name="Group 1892" transform="translate(3.311 19.863)">
        <path id="Path_279" data-name="Path 279" d="M7798.864-5577.937l1.509,15.117s.157,2.424.979,3.4,2.974,1.034,2.974,1.034l26.44.038a5.146,5.146,0,0,0,3.542-1.646,6.737,6.737,0,0,0,1.493-3.774l1.394-19.111h-7.652l-4.864,4.942Z" transform="translate(-7798.864 5582.879)" fill="url(#linear-gradient)"/>
      </g>
    </g>
  </g>
</svg>