<svg xmlns="http://www.w3.org/2000/svg" xmlns:xlink="http://www.w3.org/1999/xlink" width="36" height="36" viewBox="0 0 36 36"><defs><style>.a{fill:none;}.b{fill:#fff;}.c{fill:#e71c37;}.d{fill:#08ce73;}.e{fill:#2699fb;}.f{fill:#d1d1d1;}.g{fill:url(#a);}</style><linearGradient id="a" x1="0.5" y1="0.271" x2="0.5" y2="1" gradientUnits="objectBoundingBox"><stop offset="0" stop-color="#faca5d"/><stop offset="1" stop-color="#ff6d21"/></linearGradient></defs><g transform="translate(-7878 5599)"><rect class="a" width="36" height="35.916" transform="translate(7878 -5599)"/><g transform="translate(7882.917 -5599)"><path class="b" d="M150.75,75.029v25.29a3.013,3.013,0,0,1-3,3.029H131.5a3.013,3.013,0,0,1-3-3.029v-.454h15.733a3.013,3.013,0,0,0,3-3.029V72h.524A3.013,3.013,0,0,1,150.75,75.029Z" transform="translate(-124.356 -68.029)"/><path class="b" d="M102.812,29.483V54.318a3.012,3.012,0,0,1-2.995,3.029H83.495A3.012,3.012,0,0,1,80.5,54.318V31h3.744a1.51,1.51,0,0,0,1.5-1.514V26H99.817a3.012,3.012,0,0,1,2.995,3.029Zm-3.444,4.846V32.512a.151.151,0,0,0-.15-.151H96.747a.151.151,0,0,1-.15-.151v-2.5a.151.151,0,0,0-.15-.151H94.576a.151.151,0,0,0-.15.151v2.5a.151.151,0,0,1-.15.151h-2.62a.151.151,0,0,0-.15.151v1.817a.151.151,0,0,0,.15.151h2.62a.151.151,0,0,1,.15.151v2.726a.151.151,0,0,0,.15.151h1.872a.151.151,0,0,0,.15-.151V34.632a.151.151,0,0,1,.15-.151h2.471A.151.151,0,0,0,99.368,34.329Z" transform="translate(-79.938 -25.476)"/><path class="c" d="M235.366,75.922v1.8a.15.15,0,0,1-.15.15h-2.472a.15.15,0,0,0-.15.15v2.7a.15.15,0,0,1-.15.15h-1.873a.15.15,0,0,1-.15-.15v-2.7a.15.15,0,0,0-.15-.15H227.65a.15.15,0,0,1-.15-.15v-1.8a.15.15,0,0,1,.15-.15h2.622a.15.15,0,0,0,.15-.15V73.15a.15.15,0,0,1,.15-.15h1.873a.15.15,0,0,1,.15.15v2.472a.15.15,0,0,0,.15.15h2.472A.15.15,0,0,1,235.366,75.922Z" transform="translate(-215.934 -68.954)"/><path class="d" d="M85.744,26v3.446a1.5,1.5,0,0,1-1.5,1.5H80.5v-.2L85.712,26Z" transform="translate(-79.938 -25.476)"/><path class="d" d="M96.4,22.478h0A3.539,3.539,0,0,0,92.88,19H78.771a.521.521,0,0,0-.353.138L73.19,23.93a.551.551,0,0,0-.19.391V47.81a3.573,3.573,0,0,0,3.557,3.554h.077a3.539,3.539,0,0,0,3.517,3.478H96.4A3.475,3.475,0,0,0,98.872,53.8a3.544,3.544,0,0,0,1.009-2.508V26.032a3.544,3.544,0,0,0-1.009-2.508A3.475,3.475,0,0,0,96.4,22.478ZM78.242,20.7v2.31a.948.948,0,0,1-.936.983H74.7ZM74.048,47.81V25.049h3.257a2,2,0,0,0,1.984-2.042V20.059H92.88a2.454,2.454,0,0,1,2.434,2.5V47.81a2.454,2.454,0,0,1-2.434,2.5H76.557A2.518,2.518,0,0,1,74.048,47.81Zm24.785,3.478a2.454,2.454,0,0,1-2.434,2.5H80.151a2.485,2.485,0,0,1-2.469-2.42h15.2a3.475,3.475,0,0,0,2.473-1.046,3.544,3.544,0,0,0,1.009-2.508V23.537a2.448,2.448,0,0,1,2.471,2.5Z" transform="translate(-73 -19)"/><path class="e" d="M120.024,187.049h5.244a.524.524,0,1,0,0-1.049h-5.244a.524.524,0,1,0,0,1.049Z" transform="translate(-116.016 -173.369)"/><path class="e" d="M120.024,236.049h7.941a.524.524,0,0,0,0-1.049h-7.941a.524.524,0,0,0,0,1.049Z" transform="translate(-116.016 -219.477)"/><path class="e" d="M120.024,285.049h7.941a.524.524,0,0,0,0-1.049h-7.941a.524.524,0,0,0,0,1.049Z" transform="translate(-116.016 -265.585)"/><path class="e" d="M120.024,334.049h12.511a.524.524,0,1,0,0-1.049H120.024a.524.524,0,0,0,0,1.049Z" transform="translate(-116.016 -311.693)"/><path class="f" d="M136.281,382.524a.524.524,0,0,0-.524-.524H120.024a.524.524,0,0,0,0,1.049h15.733A.524.524,0,0,0,136.281,382.524Z" transform="translate(-116.016 -354.544)"/></g><g transform="translate(7880.68 -5582.855)"><path class="g" d="M7798.865-5578.879l1.224,12.235a6.188,6.188,0,0,0,.793,2.753,3.943,3.943,0,0,0,2.412.837l21.441.03a4.176,4.176,0,0,0,2.872-1.332,5.45,5.45,0,0,0,1.211-3.055l1.13-15.468h-6.205l-3.944,4Z" transform="translate(-7798.865 5582.879)"/></g></g></svg>