<svg xmlns="http://www.w3.org/2000/svg" xmlns:xlink="http://www.w3.org/1999/xlink" width="36" height="36" viewBox="0 0 36 36"><defs><style>.a{fill:none;}.b{fill:#fff;}.c{fill:#e71c37;}.d{fill:#08ce73;}.e{fill:#2699fb;}.f{fill:url(#a);}.g{fill:url(#b);}</style><linearGradient id="a" x1="0.5" y1="0.271" x2="0.5" y2="1" gradientUnits="objectBoundingBox"><stop offset="0" stop-color="#faca5d"/><stop offset="1" stop-color="#ff6d21"/></linearGradient><linearGradient id="b" x1="0.5" x2="0.5" y2="1" gradientUnits="objectBoundingBox"><stop offset="0" stop-color="#e71c37"/><stop offset="1" stop-color="#ff6d21"/></linearGradient></defs><g transform="translate(-281 -764)"><rect class="a" width="36" height="36" transform="translate(281 764)"/><g transform="translate(285.001 764)"><g transform="translate(0 0)"><path class="b" d="M102.383,29.446V54.015a2.967,2.967,0,0,1-2.937,3H83.437a2.967,2.967,0,0,1-2.937-3V30.944h3.672a1.488,1.488,0,0,0,1.469-1.5V26H99.445a2.967,2.967,0,0,1,2.937,3ZM99,34.24v-1.8a.149.149,0,0,0-.147-.15H96.435a.149.149,0,0,1-.147-.15V29.67a.149.149,0,0,0-.147-.15H94.305a.149.149,0,0,0-.147.15v2.472a.149.149,0,0,1-.147.15h-2.57a.149.149,0,0,0-.147.15v1.8a.149.149,0,0,0,.147.15h2.57a.149.149,0,0,1,.147.15v2.7a.149.149,0,0,0,.147.15h1.836a.149.149,0,0,0,.147-.15v-2.7a.149.149,0,0,1,.147-.15h2.423A.149.149,0,0,0,99,34.24Z" transform="translate(-79.921 -25.46)"/><path class="c" d="M235.606,76.011v1.853a.155.155,0,0,1-.154.154H232.9a.155.155,0,0,0-.154.154v2.779a.155.155,0,0,1-.154.154h-1.93a.155.155,0,0,1-.154-.154V78.173a.155.155,0,0,0-.154-.154h-2.7a.155.155,0,0,1-.154-.154V76.011a.155.155,0,0,1,.154-.154h2.7a.155.155,0,0,0,.154-.154V73.154a.155.155,0,0,1,.154-.154h1.93a.155.155,0,0,1,.154.154V75.7a.155.155,0,0,0,.154.154h2.548A.155.155,0,0,1,235.606,76.011Z" transform="translate(-216.17 -68.831)"/><path class="d" d="M85.9,26v3.551A1.549,1.549,0,0,1,84.36,31.1H80.5v-.2L85.871,26Z" transform="translate(-79.921 -25.46)"/><path class="d" d="M4.658,32.2H3.613a.084.084,0,0,1,0-.013H3.537A3.54,3.54,0,0,1,0,28.651V5.29A.536.536,0,0,1,.188,4.9L5.387.137A.523.523,0,0,1,5.74,0H19.77a3.532,3.532,0,0,1,3.487,3.254l0,1.258h-.02V9.849L23.163,29.2c0,.065,0,.136-.008.218a3.528,3.528,0,0,1-.926,1.725,3.425,3.425,0,0,1-2.459,1.04H4.658V32.2ZM1.042,6.016V28.651a2.491,2.491,0,0,0,2.495,2.481H19.77a2.454,2.454,0,0,0,2.421-2.481V3.533A2.454,2.454,0,0,0,19.77,1.053H6.256V3.985A1.983,1.983,0,0,1,4.28,6.016ZM5.211,1.689,1.69,4.963H4.28a.946.946,0,0,0,.931-.979Z"/><path class="e" d="M120.04,187.081h5.4a.54.54,0,1,0,0-1.081h-5.4a.54.54,0,1,0,0,1.081Z" transform="translate(-115.91 -173.453)"/><path class="e" d="M120.04,236.081h8.184a.54.54,0,0,0,0-1.081H120.04a.54.54,0,1,0,0,1.081Z" transform="translate(-115.91 -219.58)"/><path class="e" d="M120.04,285.081h8.184a.54.54,0,0,0,0-1.081H120.04a.54.54,0,1,0,0,1.081Z" transform="translate(-115.91 -265.707)"/><path class="e" d="M120.04,334.081h12.893a.54.54,0,1,0,0-1.081H120.04a.54.54,0,0,0,0,1.081Z" transform="translate(-115.91 -311.835)"/><path class="e" d="M136.794,382.54a.54.54,0,0,0-.54-.54H120.04a.54.54,0,1,0,0,1.081h16.213A.54.54,0,0,0,136.794,382.54Z" transform="translate(-115.91 -354.726)"/></g><g transform="translate(10.528 16.308)"><g transform="translate(0 0)"><path class="f" d="M5.906,23.754l5.061-9.1-.036-4.194h-.693a.729.729,0,0,1,0-1.459H18.99a.729.729,0,0,1,0,1.459H18.3l-.036,4.194,5.061,9.1a3.328,3.328,0,0,1-2.91,4.938H8.816a3.328,3.328,0,0,1-2.91-4.938ZM16.9,15.192a.736.736,0,0,1-.095-.365l.036-4.369H12.389l.036,4.369a.736.736,0,0,1-.095.365l-2.6,4.69a16.766,16.766,0,0,0,4.332-.693,18.66,18.66,0,0,1,4.646-.737Z" transform="translate(-5.49 -9)"/><path class="g" d="M5.906,23.754l5.061-9.1-.036-4.194h-.693a.729.729,0,0,1,0-1.459H18.99a.729.729,0,0,1,0,1.459H18.3l-.036,4.194,5.061,9.1a3.328,3.328,0,0,1-2.91,4.938H8.816a3.328,3.328,0,0,1-2.91-4.938ZM16.9,15.192a.736.736,0,0,1-.095-.365l.036-4.369H12.389l.036,4.369a.736.736,0,0,1-.095.365l-2.6,4.69a16.766,16.766,0,0,0,4.332-.693,18.66,18.66,0,0,1,4.646-.737Z" transform="translate(-5.49 -9)"/></g></g></g></g></svg>