<svg xmlns="http://www.w3.org/2000/svg" xmlns:xlink="http://www.w3.org/1999/xlink" width="18" height="18" viewBox="0 0 18 18">
  <defs>
    <clipPath id="clip-path">
      <rect id="Rectangle_36px" width="18" height="18" transform="translate(1576 905)" fill="#e6e6e6"/>
    </clipPath>
    <linearGradient id="linear-gradient" y1="0.5" x2="1" y2="0.5" gradientUnits="objectBoundingBox">
      <stop offset="0" stop-color="#faca5d"/>
      <stop offset="1" stop-color="#ff6d21"/>
    </linearGradient>
  </defs>
  <g id="MedPlus_Advantage_Icon_36px" transform="translate(-1576 -905)" clip-path="url(#clip-path)">
    <g id="Group_28341" data-name="Group 28341" transform="translate(1576 908)">
      <path id="Path_44916" data-name="Path 44916" d="M16.758,52.347l-3.636,7.232-4.432,0,.739-1.463L14.783,47.5s1.709,3.321,2,3.877c.281.533.215.487-.023.971Z" transform="translate(-8.69 -47.5)" fill="#08ce73" stroke="rgba(0,0,0,0)" stroke-width="1" fill-rule="evenodd"/>
      <path id="Path_44917" data-name="Path 44917" d="M36.711,52.347l-3.636,7.232-4.435,0,.739-1.463L34.733,47.5s1.709,3.321,2,3.877c.281.533.215.487-.02.971Z" transform="translate(-22.928 -47.5)" stroke="rgba(0,0,0,0)" stroke-width="1" fill-rule="evenodd" fill="url(#linear-gradient)"/>
      <path id="Path_44918" data-name="Path 44918" d="M54.906,67.62l-1.271,2.519-.945,1.872.968,1.927,1.9,0h2.54l-.424-.839-.315-.627Z" transform="translate(-40.093 -61.894)" fill="#e71c37" fill-rule="evenodd"/>
      <g id="Group_28340" data-name="Group 28340" transform="translate(11 6.469)">
        <circle id="Ellipse_127" data-name="Ellipse 127" cx="2.611" cy="2.611" r="2.611" transform="translate(0.201 0.202)" fill="#f4f2f2"/>
        <circle id="Ellipse_128" data-name="Ellipse 128" cx="1.507" cy="1.507" r="1.507" transform="translate(1.306 1.306)" fill="#fff"/>
        <path id="Path_290" data-name="Path 290" d="M1205.689,897.084a2.812,2.812,0,1,1,2.813-2.812A2.812,2.812,0,0,1,1205.689,897.084Zm0-5.223a2.41,2.41,0,1,0,2.411,2.411A2.411,2.411,0,0,0,1205.689,891.861Z" transform="translate(-1202.877 -891.459)" fill="#2699fb"/>
        <g id="Group_1894" data-name="Group 1894" transform="translate(0.503 0.491)">
          <path id="Path_291" data-name="Path 291" d="M1209.534,892.645a.1.1,0,0,0-.1.1h0v.1a.1.1,0,1,0,.2,0v-.1a.1.1,0,0,0-.1-.1Z" transform="translate(-1207.224 -892.645)" fill="#26b99a"/>
          <path id="Path_292" data-name="Path 292" d="M1209.534,903.087a.1.1,0,0,0-.1.1h0v.1a.1.1,0,0,0,.2,0h0v-.1a.1.1,0,0,0-.1-.1Z" transform="translate(-1207.224 -898.768)" fill="#26b99a"/>
          <path id="Path_293" data-name="Path 293" d="M1214.735,897.987h-.1a.1.1,0,0,0,0,.2h.1a.1.1,0,0,0,0-.2Z" transform="translate(-1210.215 -895.777)" fill="#26b99a"/>
          <path id="Path_294" data-name="Path 294" d="M1204.293,897.987h-.1a.1.1,0,0,0,0,.2h.1a.1.1,0,0,0,0-.2Z" transform="translate(-1204.092 -895.777)" fill="#26b99a"/>
          <path id="Path_295" data-name="Path 295" d="M1213.135,894.233l-.071.071a.1.1,0,0,0,.133.151l.009-.009.071-.071a.1.1,0,1,0-.133-.151Z" transform="translate(-1209.333 -893.557)" fill="#26b99a"/>
          <path id="Path_296" data-name="Path 296" d="M1205.751,901.616l-.071.071a.1.1,0,0,0,.133.151l.009-.009.071-.071a.1.1,0,1,0-.133-.151Z" transform="translate(-1205.003 -897.886)" fill="#26b99a"/>
          <path id="Path_297" data-name="Path 297" d="M1213.218,901.629a.1.1,0,0,0-.142.142l.071.071a.1.1,0,1,0,.151-.133l-.009-.009Z" transform="translate(-1209.346 -897.899)" fill="#26b99a"/>
          <path id="Path_298" data-name="Path 298" d="M1205.834,894.245a.1.1,0,0,0-.142.142l.071.071a.1.1,0,1,0,.151-.133l-.009-.009Z" transform="translate(-1205.016 -893.569)" fill="#26b99a"/>
        </g>
        <path id="Path_299" data-name="Path 299" d="M1211.067,898.218h-.8a.1.1,0,1,1,0-.2h.8a.1.1,0,0,1,0,.2Z" transform="translate(-1207.149 -895.305)" fill="#424a60"/>
        <path id="Path_300" data-name="Path 300" d="M1209.536,895.923a.1.1,0,0,1-.1-.1h0v-1.1a.1.1,0,1,1,.2,0v1.1a.1.1,0,0,1-.1.1Z" transform="translate(-1206.723 -893.311)" fill="#424a60"/>
        <path id="Path_301" data-name="Path 301" d="M1209.108,898.092a.4.4,0,1,1,.4-.4A.4.4,0,0,1,1209.108,898.092Zm0-.6a.2.2,0,1,0,.2.2.2.2,0,0,0-.2-.2Z" transform="translate(-1206.295 -894.878)" fill="#424a60"/>
      </g>
    </g>
  </g>
</svg>
