<svg xmlns="http://www.w3.org/2000/svg" xmlns:xlink="http://www.w3.org/1999/xlink" width="36" height="36" viewBox="0 0 36 36">
  <defs>
    <clipPath id="clip-path">
      <rect id="Rectangle_36px" width="36" height="36" transform="translate(1576 905)" fill="#e6e6e6"/>
    </clipPath>
    <linearGradient id="linear-gradient" y1="0.5" x2="1" y2="0.5" gradientUnits="objectBoundingBox">
      <stop offset="0" stop-color="#faca5d"/>
      <stop offset="1" stop-color="#ff6d21"/>
    </linearGradient>
  </defs>
  <g id="MedPlus_Advantage_Icon_36px" transform="translate(-1576 -905)" clip-path="url(#clip-path)">
    <g id="Group_28337" data-name="Group 28337" transform="translate(1577 912)">
      <path id="Path_44910" data-name="Path 44910" d="M23.93,56.656,17.062,70.316,8.69,70.311l1.4-2.763L20.2,47.5s3.229,6.273,3.775,7.322c.53,1.006.406.919-.043,1.833Z" transform="translate(-8.69 -47.5)" fill="#08ce73" stroke="rgba(0,0,0,0)" stroke-width="1" fill-rule="evenodd"/>
      <path id="Path_44911" data-name="Path 44911" d="M43.885,56.656,37.017,70.316l-8.377-.005,1.4-2.763L40.148,47.5s3.229,6.273,3.775,7.322c.53,1.006.406.919-.038,1.833Z" transform="translate(-17.851 -47.5)" stroke="rgba(0,0,0,0)" stroke-width="1" fill-rule="evenodd" fill="url(#linear-gradient)"/>
      <path id="Path_44912" data-name="Path 44912" d="M56.876,67.62l-2.4,4.759L52.69,75.916l1.828,3.64,3.58-.005h4.8l-.8-1.585L61.5,76.781Z" transform="translate(-28.895 -56.804)" fill="#e71c37" fill-rule="evenodd"/>
      <g id="Group_28336" data-name="Group 28336" transform="translate(20.778 12.219)">
        <circle id="Ellipse_127" data-name="Ellipse 127" cx="4.933" cy="4.933" r="4.933" transform="translate(0.38 0.381)" fill="#f4f2f2"/>
        <circle id="Ellipse_128" data-name="Ellipse 128" cx="2.846" cy="2.846" r="2.846" transform="translate(2.467 2.467)" fill="#fff"/>
        <path id="Path_290" data-name="Path 290" d="M1208.189,902.084a5.312,5.312,0,1,1,5.313-5.312A5.312,5.312,0,0,1,1208.189,902.084Zm0-9.865a4.553,4.553,0,1,0,4.553,4.553A4.553,4.553,0,0,0,1208.189,892.218Z" transform="translate(-1202.877 -891.459)" fill="#2699fb"/>
        <g id="Group_1894" data-name="Group 1894" transform="translate(0.949 0.927)">
          <path id="Path_291" data-name="Path 291" d="M1209.624,892.645a.19.19,0,0,0-.19.19h0v.19a.19.19,0,1,0,.38,0v-.19a.19.19,0,0,0-.19-.19Z" transform="translate(-1205.26 -892.645)" fill="#26b99a"/>
          <path id="Path_292" data-name="Path 292" d="M1209.624,903.087a.19.19,0,0,0-.19.19h0v.19a.19.19,0,0,0,.38,0h0v-.19a.19.19,0,0,0-.19-.19Z" transform="translate(-1205.26 -894.929)" fill="#26b99a"/>
          <path id="Path_293" data-name="Path 293" d="M1214.914,897.987h-.19a.19.19,0,0,0,0,.38h.19a.19.19,0,0,0,0-.38Z" transform="translate(-1206.376 -893.813)" fill="#26b99a"/>
          <path id="Path_294" data-name="Path 294" d="M1204.472,897.987h-.19a.19.19,0,0,0,0,.38h.19a.19.19,0,0,0,0-.38Z" transform="translate(-1204.092 -893.813)" fill="#26b99a"/>
          <path id="Path_295" data-name="Path 295" d="M1213.228,894.263l-.134.134a.19.19,0,0,0,.251.285l.016-.017.134-.134a.19.19,0,1,0-.251-.284Z" transform="translate(-1206.047 -892.985)" fill="#26b99a"/>
          <path id="Path_296" data-name="Path 296" d="M1205.844,901.646l-.135.134a.19.19,0,0,0,.252.284l.017-.016.134-.134a.19.19,0,1,0-.252-.284Z" transform="translate(-1204.432 -894.6)" fill="#26b99a"/>
          <path id="Path_297" data-name="Path 297" d="M1213.366,901.652a.19.19,0,0,0-.268.268l.135.134a.19.19,0,1,0,.284-.251l-.017-.017Z" transform="translate(-1206.052 -894.605)" fill="#26b99a"/>
          <path id="Path_298" data-name="Path 298" d="M1205.983,894.268a.19.19,0,0,0-.268.268l.134.134a.19.19,0,1,0,.284-.252l-.016-.016Z" transform="translate(-1204.437 -892.989)" fill="#26b99a"/>
        </g>
        <path id="Path_299" data-name="Path 299" d="M1211.871,898.4h-1.518a.19.19,0,1,1,0-.38h1.518a.19.19,0,1,1,0,.38Z" transform="translate(-1204.471 -892.894)" fill="#424a60"/>
        <path id="Path_300" data-name="Path 300" d="M1209.625,897.083a.189.189,0,0,1-.19-.19h0v-2.087a.19.19,0,1,1,.38,0v2.087a.19.19,0,0,1-.19.19Z" transform="translate(-1204.311 -892.15)" fill="#424a60"/>
        <path id="Path_301" data-name="Path 301" d="M1209.464,898.806a.759.759,0,1,1,.759-.759A.758.758,0,0,1,1209.464,898.806Zm0-1.138a.38.38,0,1,0,.38.38.38.38,0,0,0-.38-.38Z" transform="translate(-1204.152 -892.734)" fill="#424a60"/>
      </g>
    </g>
  </g>
</svg>
