<svg xmlns="http://www.w3.org/2000/svg" width="99.04" height="96" viewBox="0 0 99.04 96">
  <g id="Group_18677" data-name="Group 18677" transform="translate(-1515.727 -3307)">
    <g id="Group_18674" data-name="Group 18674" transform="translate(1511.767 3307)">
      <g id="Group_18673" data-name="Group 18673" transform="translate(13.74)">
        <path id="Path_7916" data-name="Path 7916" d="M-159.659-3265.321a1.179,1.179,0,0,0-.156-.587l-9.345-16.449a3.7,3.7,0,0,0-3.206-1.873H-227.34a3.7,3.7,0,0,0-3.208,1.873l-9.345,16.449a1.2,1.2,0,0,0-.154.587,11.006,11.006,0,0,0,5.034,9.251v35.142h-1.34a1.18,1.18,0,0,0-1.178,1.183,1.181,1.181,0,0,0,1.178,1.185h73a1.181,1.181,0,0,0,1.178-1.185,1.18,1.18,0,0,0-1.178-1.183h-1.34v-35.142A11,11,0,0,0-159.659-3265.321Zm-13.684,44.393H-186.09v-3.962h12.748Zm0-6.332H-186.09v-21.685h12.748Zm6.295,6.332h-3.939v-29.2a1.181,1.181,0,0,0-1.178-1.187h-15.1a1.182,1.182,0,0,0-1.178,1.187v29.2h-44.213v-33.991a10.866,10.866,0,0,0,3.542.592,10.937,10.937,0,0,0,9.755-6.032,10.933,10.933,0,0,0,9.753,6.032,10.934,10.934,0,0,0,9.755-6.032,10.933,10.933,0,0,0,9.753,6.032,10.934,10.934,0,0,0,9.755-6.032,10.933,10.933,0,0,0,9.753,6.032,10.888,10.888,0,0,0,3.544-.592Zm-51.054-43.208h16.988a8.6,8.6,0,0,1-8.494,7.443A8.607,8.607,0,0,1-218.1-3264.136Zm19.508,0h16.988a8.6,8.6,0,0,1-8.494,7.443A8.607,8.607,0,0,1-198.594-3264.136Zm28,7.443a8.607,8.607,0,0,1-8.494-7.443h8.18a1.181,1.181,0,0,0,1.178-1.185,1.181,1.181,0,0,0-1.178-1.184H-228.8a1.181,1.181,0,0,0-1.178,1.184,1.181,1.181,0,0,0,1.178,1.185h8.178a8.6,8.6,0,0,1-8.494,7.443,8.6,8.6,0,0,1-8.494-7.443h3.775a1.182,1.182,0,0,0,1.178-1.185,1.182,1.182,0,0,0-1.178-1.184h-3.005l8.338-14.677a1.34,1.34,0,0,1,1.163-.679h54.974a1.34,1.34,0,0,1,1.163.679l8.336,14.677h-3.005a1.182,1.182,0,0,0-1.178,1.184,1.182,1.182,0,0,0,1.178,1.185h3.777A8.607,8.607,0,0,1-170.592-3256.694Z" transform="translate(240.047 3303.431)" fill="#cecece"/>
        <path id="Path_7917" data-name="Path 7917" d="M-199.38-3268.92h-34.183a1.186,1.186,0,0,0-1.185,1.188v24.052a1.184,1.184,0,0,0,1.185,1.185h34.183a1.184,1.184,0,0,0,1.185-1.185v-24.052A1.186,1.186,0,0,0-199.38-3268.92Zm-1.185,24.054h-31.814v-21.685h31.814Z" transform="translate(246.192 3320.76)" fill="#cecece"/>
        <g id="Group_18672" data-name="Group 18672" transform="translate(73.26)">
          <path id="Path_7923" data-name="Path 7923" d="M-194-3292.292a1.333,1.333,0,0,0,1.333-1.333v-2.668a1.333,1.333,0,0,0-1.333-1.333,1.335,1.335,0,0,0-1.335,1.333v2.668A1.335,1.335,0,0,0-194-3292.292Z" transform="translate(202.005 3297.626)" fill="#cecece"/>
          <path id="Path_7924" data-name="Path 7924" d="M-194-3286.34a1.333,1.333,0,0,0,1.333-1.333v-2.666a1.333,1.333,0,0,0-1.333-1.333,1.334,1.334,0,0,0-1.335,1.333v2.666A1.335,1.335,0,0,0-194-3286.34Z" transform="translate(202.005 3302.34)" fill="#cecece"/>
          <path id="Path_7925" data-name="Path 7925" d="M-197.726-3291.239h2.666a1.333,1.333,0,0,0,1.333-1.333,1.333,1.333,0,0,0-1.333-1.333h-2.666a1.333,1.333,0,0,0-1.333,1.333A1.333,1.333,0,0,0-197.726-3291.239Z" transform="translate(199.059 3300.573)" fill="#cecece"/>
          <path id="Path_7926" data-name="Path 7926" d="M-191.773-3291.239h2.666a1.333,1.333,0,0,0,1.333-1.333,1.333,1.333,0,0,0-1.333-1.333h-2.666a1.333,1.333,0,0,0-1.333,1.333A1.333,1.333,0,0,0-191.773-3291.239Z" transform="translate(203.773 3300.573)" fill="#cecece"/>
        </g>
        <path id="Path_28529" data-name="Path 28529" d="M-178.123,276.412h-3.59v-3.59h-2.419v3.59h-3.59v2.419h3.59v3.59h2.419v-3.59h3.59Z" transform="translate(222.968 -248.822)" fill="#cecece"/>
      </g>
      <g id="Group_18671" data-name="Group 18671" transform="translate(91 44)">
        <path id="Path_7927" data-name="Path 7927" d="M-157.525-3261.078a1,1,0,0,0,1-1v-2a1,1,0,0,0-1-1,1,1,0,0,0-1,1v2A1,1,0,0,0-157.525-3261.078Z" transform="translate(163.526 3265.076)" fill="#cecece"/>
        <path id="Path_7928" data-name="Path 7928" d="M-157.525-3255.125a1,1,0,0,0,1-1v-2a1,1,0,0,0-1-1,1,1,0,0,0-1,1v2A1,1,0,0,0-157.525-3255.125Z" transform="translate(163.526 3267.124)" fill="#cecece"/>
        <path id="Path_7929" data-name="Path 7929" d="M-161.246-3259.356h2a1,1,0,0,0,1-1,1,1,0,0,0-1-1h-2a1,1,0,0,0-1,1A1,1,0,0,0-161.246-3259.356Z" transform="translate(162.246 3266.356)" fill="#cecece"/>
        <path id="Path_7930" data-name="Path 7930" d="M-155.293-3259.356h2a1,1,0,0,0,1-1,1,1,0,0,0-1-1h-2a1,1,0,0,0-1,1A1,1,0,0,0-155.293-3259.356Z" transform="translate(164.293 3266.356)" fill="#cecece"/>
      </g>
    </g>
    <g id="Group_18675" data-name="Group 18675" transform="translate(1515.727 3372.28)">
      <path id="Path_28530" data-name="Path 28530" d="M134.4-3584.388a15.36,15.36,0,0,0-15.36,15.36,15.36,15.36,0,0,0,15.36,15.359,15.36,15.36,0,0,0,15.36-15.359A15.376,15.376,0,0,0,134.4-3584.388Z" transform="translate(-119.043 3584.388)" fill="#cecece"/>
      <path id="Path_28531" data-name="Path 28531" d="M132.112-3584.388a13.069,13.069,0,0,0-13.069,13.068,13.068,13.068,0,0,0,13.069,13.068,13.068,13.068,0,0,0,13.068-13.068A13.082,13.082,0,0,0,132.112-3584.388Z" transform="translate(-116.751 3586.68)" fill="#fff"/>
      <g id="Слой_2" data-name="Слой 2" transform="translate(8.672 9.296)">
        <g id="Слой_1" data-name="Слой 1" transform="translate(0 -0.01)">
          <path id="Path_28533" data-name="Path 28533" d="M8.035,6.465V9.322a.535.535,0,1,0,1.07,0V6.465a3.26,3.26,0,1,0-1.07,0Z" transform="translate(-1.969 0.01)" fill="#cecece"/>
          <path id="Path_28534" data-name="Path 28534" d="M8.81,11.578h0a.535.535,0,0,0-.126,1.063c2.253.271,3.455.925,3.455,1.259S10.2,15.253,6.607,15.253,1.07,14.258,1.07,13.868s1.2-.963,3.461-1.259A.535.535,0,0,0,4.4,11.578h0C2.026,11.855,0,12.6,0,13.868c0,1.661,3.423,2.416,6.6,2.416s6.614-.755,6.614-2.416C13.215,12.591,11.182,11.842,8.81,11.578Z" transform="translate(0 -4.285)" fill="#cecece"/>
        </g>
      </g>
    </g>
  </g>
</svg>
