<svg xmlns="http://www.w3.org/2000/svg" xmlns:xlink="http://www.w3.org/1999/xlink" width="31.577" height="28.16" viewBox="0 0 31.577 28.16"><defs><style>.a{fill:#ff6d21;}.b{fill:#08ce73;}.c,.d{fill:#fff;}.c{opacity:0.372;}.d{opacity:0.572;}.e{fill:url(#a);}.f{fill:#e71c37;}.g{fill:#2699fb;}.h{fill:#79c1ff;}.i{fill:#d08800;}</style><linearGradient id="a" x1="0.5" x2="0.5" y2="1" gradientUnits="objectBoundingBox"><stop offset="0" stop-color="#faca5d"/><stop offset="1" stop-color="#ff6d21"/></linearGradient></defs><path class="a" d="M2.467,83h24.67A2.474,2.474,0,0,1,29.6,85.467v2.96a2.474,2.474,0,0,1-2.467,2.467H2.467A2.474,2.474,0,0,1,0,88.427v-2.96A2.474,2.474,0,0,1,2.467,83Z" transform="translate(0 -79.51)"/><path class="b" d="M55.863,63.316l15.443-4.1a.991.991,0,0,1,1.209.691l2.566,9.473a.991.991,0,0,1-.691,1.209L54.284,75.947a.991.991,0,0,1-1.209-.691L51.2,68.3Z" transform="translate(-47.993 -57.186)"/><path class="c" d="M97.211,103.311l-3.33.888a.485.485,0,0,1-.247-.937L96.5,102.5l-1.529-5.723-2.862.765a.485.485,0,1,1-.247-.937l3.33-.888a.459.459,0,0,1,.592.345l1.776,6.661A.459.459,0,0,1,97.211,103.311ZM83.4,107.036l-3.33.888a.459.459,0,0,1-.592-.345L77.7,100.918a.459.459,0,0,1,.345-.592l3.33-.888a.485.485,0,1,1,.247.937l-2.862.765,1.529,5.723,2.862-.765a.459.459,0,0,1,.592.345A.478.478,0,0,1,83.4,107.036Z" transform="translate(-72.813 -91.408)"/><path class="b" d="M2.781,36.861c4.391-2.516,16.233-9.449,16.233-9.449a1,1,0,0,1,1.357.345L25.3,36.244a.976.976,0,0,1-.37,1.332L6.876,47.937a1,1,0,0,1-1.357-.345S4.138,44.78,2.756,42.411C2.756,36.861,2.781,38.686,2.781,36.861Z" transform="translate(-2.583 -27.277)"/><path class="d" d="M26.821,73.039l-3.454-5.97A.469.469,0,0,0,22.7,66.9l-2.985,1.727a.487.487,0,1,0,.493.839l2.566-1.48,2.96,5.131-2.566,1.48a.487.487,0,0,0,.493.839l2.985-1.727A.478.478,0,0,0,26.821,73.039ZM13.746,80.021,11.18,81.5,8.22,76.37l2.566-1.48a.487.487,0,0,0-.493-.839L7.307,75.778a.469.469,0,0,0-.173.666l3.454,5.97a.469.469,0,0,0,.666.173l2.985-1.727a.469.469,0,0,0,.173-.666A.478.478,0,0,0,13.746,80.021ZM15,71.313a3.956,3.956,0,1,0,5.4,1.456A3.953,3.953,0,0,0,15,71.313Zm11.817,1.727-3.454-5.97A.469.469,0,0,0,22.7,66.9l-2.985,1.727a.487.487,0,1,0,.493.839l2.566-1.48,2.96,5.131-2.566,1.48a.487.487,0,0,0,.493.839l2.985-1.727A.478.478,0,0,0,26.821,73.039ZM13.746,80.021,11.18,81.5,8.22,76.37l2.566-1.48a.487.487,0,0,0-.493-.839L7.307,75.778a.469.469,0,0,0-.173.666l3.454,5.97a.469.469,0,0,0,.666.173l2.985-1.727a.469.469,0,0,0,.173-.666A.478.478,0,0,0,13.746,80.021ZM15,71.313a3.956,3.956,0,1,0,5.4,1.456A3.953,3.953,0,0,0,15,71.313Z" transform="translate(-6.617 -64.344)"/><path class="e" d="M28.123,144.587H2.467A2.474,2.474,0,0,1,0,142.12V124.358H28.123a2.474,2.474,0,0,1,2.467,2.467v15.3A2.474,2.474,0,0,1,28.123,144.587ZM1.974,124.358H0v-1.974A1.979,1.979,0,0,0,1.974,124.358Z" transform="translate(0 -116.427)"/><path class="f" d="M377.617,275.015H373.67a3.454,3.454,0,0,1,0-6.907h3.947a.99.99,0,0,1,.987.987v4.934A.99.99,0,0,1,377.617,275.015Z" transform="translate(-347.026 -253.023)"/><path class="g" d="M395.82,291.738a1.974,1.974,0,1,1-1.974,1.974A1.979,1.979,0,0,1,395.82,291.738Z" transform="translate(-369.176 -275.173)"/><path class="h" d="M396.313,300.359a1.988,1.988,0,0,1-1.628-3.108,1.922,1.922,0,0,0-.839,1.628,1.979,1.979,0,0,0,1.974,1.974,2.055,2.055,0,0,0,1.628-.839A1.989,1.989,0,0,1,396.313,300.359Z" transform="translate(-369.176 -280.34)"/><path class="i" d="M28.123,424.174H2.467A2.474,2.474,0,0,1,0,421.707v.987a2.474,2.474,0,0,0,2.467,2.467H28.123a2.474,2.474,0,0,0,2.467-2.467v-.987A2.474,2.474,0,0,1,28.123,424.174Z" transform="translate(0 -397.001)"/><path class="i" d="M28.123,124.358H1.974A1.979,1.979,0,0,1,0,122.384v.987a1.979,1.979,0,0,0,1.974,1.974h26.15a2.474,2.474,0,0,1,2.467,2.467v-.987A2.474,2.474,0,0,0,28.123,124.358Z" transform="translate(0 -116.427)"/></svg>