<svg id="Group_27855" data-name="Group 27855" xmlns="http://www.w3.org/2000/svg" width="239.652" height="52.663" viewBox="0 0 239.652 52.663">
  <path id="Path_41463" data-name="Path 41463" d="M104.2,23.451a9.425,9.425,0,0,1,4.377.973A6.951,6.951,0,0,1,111.5,27.2a8.245,8.245,0,0,1,1.029,4.172,8.124,8.124,0,0,1-1.029,4.151,6.992,6.992,0,0,1-2.918,2.748,9.438,9.438,0,0,1-4.377.972H98.683V23.451Zm-.112,13.1a5.2,5.2,0,0,0,3.845-1.357,5.173,5.173,0,0,0,1.357-3.823,5.292,5.292,0,0,0-1.357-3.856,5.127,5.127,0,0,0-3.845-1.39h-2.24V36.548Zm12.416-11.331a1.929,1.929,0,0,1-1.39-.532,1.857,1.857,0,0,1,0-2.646,2.086,2.086,0,0,1,2.782,0,1.857,1.857,0,0,1,0,2.646,1.93,1.93,0,0,1-1.391.532m1.561,14.022H114.9V26.709h3.167Zm2.308-6.311a7.244,7.244,0,0,1,.758-3.369A5.545,5.545,0,0,1,123.19,27.3a5.473,5.473,0,0,1,2.906-.791,5.1,5.1,0,0,1,2.454.565,4.987,4.987,0,0,1,1.685,1.425V26.71h3.189v12.53h-3.189V37.407a4.7,4.7,0,0,1-1.685,1.459,5.153,5.153,0,0,1-2.477.577,5.328,5.328,0,0,1-2.883-.814,5.7,5.7,0,0,1-2.059-2.3,7.374,7.374,0,0,1-.758-3.4m9.861.045A4.073,4.073,0,0,0,129.783,31a3.189,3.189,0,0,0-1.222-1.266,3.258,3.258,0,0,0-1.65-.441,3.183,3.183,0,0,0-2.839,1.685,3.932,3.932,0,0,0-.463,1.956,4.063,4.063,0,0,0,.463,1.98,3.341,3.341,0,0,0,1.221,1.3,3.1,3.1,0,0,0,1.618.453,3.258,3.258,0,0,0,1.65-.441,3.2,3.2,0,0,0,1.222-1.266,4.074,4.074,0,0,0,.452-1.98m11.2-6.468a5.253,5.253,0,0,1,2.465.554A4.527,4.527,0,0,1,145.57,28.5V26.71h3.189V39.33a6.736,6.736,0,0,1-.7,3.111,5.208,5.208,0,0,1-2.1,2.171,6.718,6.718,0,0,1-3.393.8,7.25,7.25,0,0,1-4.376-1.244,4.61,4.61,0,0,1-1.935-3.393H139.4a2.341,2.341,0,0,0,1.075,1.369,3.742,3.742,0,0,0,2,.509,3.1,3.1,0,0,0,2.24-.826,3.315,3.315,0,0,0,.859-2.5V37.384a4.785,4.785,0,0,1-1.685,1.47,5.027,5.027,0,0,1-2.454.588,5.387,5.387,0,0,1-2.9-.814,5.665,5.665,0,0,1-2.069-2.3,7.374,7.374,0,0,1-.758-3.4,7.244,7.244,0,0,1,.758-3.369,5.55,5.55,0,0,1,2.058-2.262,5.48,5.48,0,0,1,2.907-.791m4.139,6.468A4.073,4.073,0,0,0,145.119,31a3.189,3.189,0,0,0-1.222-1.266,3.259,3.259,0,0,0-1.651-.441,3.183,3.183,0,0,0-2.838,1.685,3.931,3.931,0,0,0-.463,1.956,4.062,4.062,0,0,0,.463,1.98,3.341,3.341,0,0,0,1.221,1.3,3.1,3.1,0,0,0,1.617.453,3.259,3.259,0,0,0,1.651-.441,3.2,3.2,0,0,0,1.222-1.266,4.074,4.074,0,0,0,.452-1.98M158.8,26.529a4.829,4.829,0,0,1,3.618,1.413,5.415,5.415,0,0,1,1.38,3.947v7.351h-3.167V32.319a3.245,3.245,0,0,0-.746-2.3,2.643,2.643,0,0,0-2.036-.8,2.708,2.708,0,0,0-2.069.8,3.214,3.214,0,0,0-.758,2.3v6.921h-3.167V26.71h3.167v1.56a4.383,4.383,0,0,1,1.618-1.277,5,5,0,0,1,2.16-.463m13.571,12.914a6.593,6.593,0,0,1-3.257-.8,5.778,5.778,0,0,1-2.273-2.273,6.8,6.8,0,0,1-.826-3.393,6.659,6.659,0,0,1,.848-3.392,5.876,5.876,0,0,1,2.318-2.273,7.1,7.1,0,0,1,6.559,0,5.883,5.883,0,0,1,2.318,2.273,6.659,6.659,0,0,1,.848,3.392,6.524,6.524,0,0,1-.871,3.393,6.032,6.032,0,0,1-2.352,2.273,6.834,6.834,0,0,1-3.313.8m0-2.759a3.293,3.293,0,0,0,1.617-.418,3.04,3.04,0,0,0,1.21-1.256,4.229,4.229,0,0,0,.452-2.036,3.772,3.772,0,0,0-.938-2.747,3.085,3.085,0,0,0-2.3-.961,3.01,3.01,0,0,0-2.273.961,3.825,3.825,0,0,0-.917,2.747,3.887,3.887,0,0,0,.895,2.748,2.938,2.938,0,0,0,2.25.961m13.661,2.759a6.607,6.607,0,0,1-2.76-.554,4.88,4.88,0,0,1-1.934-1.5,3.815,3.815,0,0,1-.78-2.1h3.189a1.736,1.736,0,0,0,.712,1.2,2.478,2.478,0,0,0,1.55.475,2.4,2.4,0,0,0,1.413-.362,1.1,1.1,0,0,0,.509-.927.977.977,0,0,0-.622-.916,11.656,11.656,0,0,0-1.979-.667,16.8,16.8,0,0,1-2.3-.7,3.982,3.982,0,0,1-1.538-1.108,2.973,2.973,0,0,1-.645-2.013,3.257,3.257,0,0,1,.6-1.9A4.036,4.036,0,0,1,183.173,27a6.445,6.445,0,0,1,2.635-.5,5.38,5.38,0,0,1,3.573,1.119,4.145,4.145,0,0,1,1.47,3.02h-3.031a1.64,1.64,0,0,0-.622-1.188,2.306,2.306,0,0,0-1.481-.441,2.334,2.334,0,0,0-1.324.317,1.012,1.012,0,0,0-.463.882,1.037,1.037,0,0,0,.634.961,9.818,9.818,0,0,0,1.967.667,16.693,16.693,0,0,1,2.24.7,3.949,3.949,0,0,1,1.526,1.119,3.075,3.075,0,0,1,.667,2,3.314,3.314,0,0,1-.6,1.944,3.94,3.94,0,0,1-1.719,1.346,6.5,6.5,0,0,1-2.612.486M197.253,29.31v6.062a1.2,1.2,0,0,0,.306.916,1.5,1.5,0,0,0,1.028.282h1.47v2.669h-1.99q-4,0-4-3.89V29.31h-1.493v-2.6h1.493v-3.1h3.189v3.1h2.8v2.6Zm6.7-4.094a1.93,1.93,0,0,1-1.391-.532,1.857,1.857,0,0,1,0-2.646,2.086,2.086,0,0,1,2.782,0,1.854,1.854,0,0,1,0,2.646,1.927,1.927,0,0,1-1.39.532m1.561,14.022h-3.167V26.709h3.167Zm2.308-6.265a7.022,7.022,0,0,1,.791-3.4,5.654,5.654,0,0,1,2.194-2.261,6.341,6.341,0,0,1,3.212-.8,6.176,6.176,0,0,1,3.855,1.164,5.669,5.669,0,0,1,2.048,3.269H216.5a2.5,2.5,0,0,0-.916-1.278,2.66,2.66,0,0,0-1.6-.463,2.61,2.61,0,0,0-2.148.984,4.35,4.35,0,0,0-.792,2.793,4.313,4.313,0,0,0,.792,2.771,2.61,2.61,0,0,0,2.148.984A2.4,2.4,0,0,0,216.5,35.01h3.416a5.786,5.786,0,0,1-2.059,3.235,6.066,6.066,0,0,1-3.845,1.2,6.341,6.341,0,0,1-3.212-.8,5.661,5.661,0,0,1-2.194-2.261,7.027,7.027,0,0,1-.791-3.4m19.225,6.469a6.6,6.6,0,0,1-2.759-.554,4.876,4.876,0,0,1-1.935-1.5,3.806,3.806,0,0,1-.779-2.1h3.189a1.732,1.732,0,0,0,.712,1.2,2.473,2.473,0,0,0,1.549.475,2.406,2.406,0,0,0,1.414-.362,1.1,1.1,0,0,0,.509-.927.979.979,0,0,0-.622-.916,11.727,11.727,0,0,0-1.979-.667,16.773,16.773,0,0,1-2.3-.7,3.99,3.99,0,0,1-1.538-1.108,2.979,2.979,0,0,1-.643-2.013,3.256,3.256,0,0,1,.6-1.9A4.036,4.036,0,0,1,224.18,27a6.445,6.445,0,0,1,2.635-.5,5.385,5.385,0,0,1,3.574,1.119,4.152,4.152,0,0,1,1.47,3.02h-3.031a1.644,1.644,0,0,0-.622-1.188,2.312,2.312,0,0,0-1.482-.441,2.336,2.336,0,0,0-1.324.317,1.012,1.012,0,0,0-.463.882,1.037,1.037,0,0,0,.634.961,9.832,9.832,0,0,0,1.968.667,16.674,16.674,0,0,1,2.239.7,3.953,3.953,0,0,1,1.527,1.119,3.081,3.081,0,0,1,.667,2,3.315,3.315,0,0,1-.6,1.944,3.953,3.953,0,0,1-1.719,1.346,6.513,6.513,0,0,1-2.613.486" transform="translate(7.679 1.674)" fill="#c4161c"/>
  <path id="Path_41464" data-name="Path 41464" d="M176.109,5.62h10.3a2.373,2.373,0,0,1,2.364,2.366v10.3a2.372,2.372,0,0,1-2.364,2.365h-10.3a2.372,2.372,0,0,1-2.364-2.365V7.986a2.372,2.372,0,0,1,2.363-2.366" transform="translate(13.521 0.438)" fill="#fff"/>
  <path id="Path_41465" data-name="Path 41465" d="M179.6,6.694v4.728H174.87v3.3H179.6v4.687h3.36V14.724h4.726v-3.3h-4.726V6.694Z" transform="translate(13.608 0.521)" fill="#33b44b"/>
  <path id="Path_41466" data-name="Path 41466" d="M111.172,20.7h3.112l-.757-15.5H109.32l-1.492,6.034c-.486,1.6-.97,3.448-1.348,5.088H106.4c-.314-1.662-.734-3.426-1.2-5.046l-1.377-6.1H99.55L98.635,20.7H101.6l.274-5.382c.085-1.768.168-3.958.232-5.87h.043c.358,1.87.82,3.87,1.283,5.552l1.514,5.469h2.5l1.725-5.529c.548-1.663,1.136-3.684,1.6-5.491h.042c0,2.081.064,4.122.127,5.826Z" transform="translate(7.676 0.403)" fill="#c4161c"/>
  <path id="Path_41467" data-name="Path 41467" d="M164.8,19.831a7.252,7.252,0,0,0,3.322.74c2.946,0,4.44-1.414,4.44-3.35-.022-1.493-.821-2.5-2.776-3.153-1.263-.442-1.663-.7-1.663-1.2s.442-.821,1.221-.821a5.449,5.449,0,0,1,2.227.567l.55-2.187a6.766,6.766,0,0,0-2.883-.611c-2.544,0-4.185,1.45-4.185,3.387-.02,1.2.8,2.378,2.945,3.074,1.177.4,1.493.651,1.493,1.2,0,.526-.4.839-1.367.839a6.232,6.232,0,0,1-2.755-.756Z" transform="translate(12.824 0.764)" fill="#c4161c"/>
  <path id="Path_41468" data-name="Path 41468" d="M163.667,10.032h-3.2v6.123a1.772,1.772,0,0,1-1.727,1.809c-1.135,0-1.617-.906-1.617-2.4V10.032h-3.2V16.07c0,3.177,1.513,4.485,3.618,4.485a3.67,3.67,0,0,0,3.217-1.688h.064l.147,1.451h2.776c-.043-.861-.083-1.954-.083-3.3Z" transform="translate(11.978 0.781)" fill="#c4161c"/>
  <rect id="Rectangle_9220" data-name="Rectangle 9220" width="3.195" height="14.931" transform="translate(160.187 6.167)" fill="#c4161c"/>
  <path id="Path_41469" data-name="Path 41469" d="M137.417,20.6h3.176v-6.14a5.379,5.379,0,0,0,1.093.084,6.722,6.722,0,0,0,4.628-1.493A4.444,4.444,0,0,0,147.6,9.686a4.054,4.054,0,0,0-1.491-3.259,6.731,6.731,0,0,0-4.354-1.156,26.289,26.289,0,0,0-4.334.293Zm3.176-12.381a5.674,5.674,0,0,1,1.326-.108c1.62,0,2.5.782,2.5,2.086,0,1.429-1.052,2.295-2.754,2.295a4.928,4.928,0,0,1-1.074-.086Z" transform="translate(10.693 0.41)" fill="#c4161c"/>
  <path id="Path_41470" data-name="Path 41470" d="M133.321,16.09h0a3.739,3.739,0,0,1-.065.716,1.891,1.891,0,0,1-1.872,1.535c-1.325,0-2.188-1.092-2.188-2.818,0-1.617.736-2.922,2.208-2.922a1.9,1.9,0,0,1,1.873,1.555,2.721,2.721,0,0,1,.043.591Zm0-10.368V11.3h-.043a3.164,3.164,0,0,0-2.714-1.159c-2.462,0-4.627,2.02-4.606,5.471,0,3.194,1.956,5.283,4.4,5.283a3.589,3.589,0,0,0,3.215-1.73h.065l.124,1.492h2.84c-.042-.692-.083-1.893-.083-3.066V5.722Zm-15.44,8.6h0a2.117,2.117,0,0,1,2-2.083,1.864,1.864,0,0,1,1.787,2.083Zm6.647,2.208a8.28,8.28,0,0,0,.106-1.282c0-2.547-1.262-5.134-4.586-5.134-3.556,0-5.2,2.883-5.2,5.49,0,3.239,2,5.26,5.488,5.26a9.751,9.751,0,0,0,3.725-.655l-.423-2.169a8.412,8.412,0,0,1-2.838.443c-1.494,0-2.8-.629-2.9-1.973Z" transform="translate(8.938 0.446)" fill="#c4161c"/>
  <path id="Path_41471" data-name="Path 41471" d="M7.073,22.916,0,37.162l14.3-.009Z" transform="translate(0 1.784)" fill="#c4161c"/>
  <path id="Path_41472" data-name="Path 41472" d="M9.948,19.6,19.395,38.4l8.951.008c.245-.485.411-.8.66-1.265.819-1.524.736-1.158-.01-2.557L15.085,7s-4.442,8.631-5.192,10.074c-.732,1.39-.559,1.269.055,2.525" transform="translate(0.732 0.545)" fill="#c4161c"/>
  <path id="Path_41473" data-name="Path 41473" d="M26.482,19.622l9.447,18.793,8.951.008c0,.018,5.5-.05,5.5-.05a13.574,13.574,0,0,0,9.191-5.346l-3.122-3.811h5.12a13.531,13.531,0,0,0-12.823-17.77H39l2.713,5.378h7.031a8.136,8.136,0,0,1,1.136,16.19l-5.134.033L31.619,7.022S27.185,15.657,26.427,17.1c-.733,1.39-.641,1.147.055,2.525" transform="translate(2.017 0.547)" fill="#c4161c"/>
  <path id="Path_41474" data-name="Path 41474" d="M62.749,37.175,64.575,39.4,65.7,40.815h4.749L64.1,33.668l7.419-8.9H68.172L62.257,31.65l-2.691-3.176H55.638l2.637,3.219-4.6,5.485h5.272L60.281,35.8l.728-.749.005-.005.483.6,1.227,1.525Z" transform="translate(4.177 1.927)" fill="#c4161c"/>
  <rect id="Rectangle_9221" data-name="Rectangle 9221" width="2.444" height="52.663" transform="translate(89.78)" fill="#c4161c"/>
  <rect id="Rectangle_9222" data-name="Rectangle 9222" width="239.651" height="52.663" transform="translate(0)" fill="none"/>
</svg>
