<svg xmlns="http://www.w3.org/2000/svg" width="44.25" height="44.25" viewBox="0 0 44.25 44.25">
  <g id="medplus-advantage" transform="translate(-3.875 -3.876)">
    <path id="Path_41254" data-name="Path 41254" d="M9.133,43.43V34.567a2.567,2.567,0,1,0-5.133,0V50.7a.725.725,0,0,0,.156.451L10.6,59.387V65a.733.733,0,0,0,.733.733h6.6A.733.733,0,0,0,18.667,65V53.267a.733.733,0,0,0-.215-.519ZM17.2,64.267H12.067V59.133a.725.725,0,0,0-.156-.451L5.467,50.446V34.566a1.1,1.1,0,0,1,2.2,0v9.167a.733.733,0,0,0,.215.519l1.063,1.063a2.808,2.808,0,0,0-1.189,4.678l4.526,4.526,1.037-1.037L8.793,48.955a1.341,1.341,0,0,1,1.893-1.9L17.2,53.57Z" transform="translate(0 -17.733)" fill="#1c3ffd" stroke="#1c3ffd" stroke-width="0.25"/>
    <path id="Path_41255" data-name="Path 41255" d="M96.1,32a2.57,2.57,0,0,0-2.567,2.567V43.43l-9.318,9.318a.733.733,0,0,0-.215.519V65a.733.733,0,0,0,.733.733h6.6A.733.733,0,0,0,92.067,65V59.387l6.444-8.234a.732.732,0,0,0,.156-.453V34.566A2.57,2.57,0,0,0,96.1,32Zm1.1,18.447-6.444,8.234a.732.732,0,0,0-.156.453v5.133H85.467V53.57l6.514-6.514a1.341,1.341,0,0,1,1.893,1.9l-4.526,4.526,1.037,1.037,4.526-4.526a2.808,2.808,0,0,0-1.189-4.678l1.063-1.063A.733.733,0,0,0,95,43.733V34.566a1.1,1.1,0,0,1,2.2,0Z" transform="translate(-50.667 -17.733)" fill="#1c3ffd" stroke="#1c3ffd" stroke-width="0.25"/>
    <path id="Path_41256" data-name="Path 41256" d="M48.874,21.609l-.617,3.31a.734.734,0,0,0,1.041.795l3.306-1.6,3.307,1.6a.738.738,0,0,0,.319.073.727.727,0,0,0,.445-.15.737.737,0,0,0,.276-.718l-.617-3.31,2.627-2.356a.733.733,0,0,0-.392-1.272l-3.682-.493L53.251,14.44a.762.762,0,0,0-1.292,0l-1.636,3.048-3.682.493a.733.733,0,0,0-.392,1.272Zm2.014-2.717a.728.728,0,0,0,.549-.381L52.6,16.337l1.167,2.174a.732.732,0,0,0,.549.381l2.478.331-1.75,1.568a.731.731,0,0,0-.231.68l.427,2.287-2.319-1.121a.735.735,0,0,0-.639,0l-2.319,1.121.427-2.287a.738.738,0,0,0-.231-.68l-1.75-1.568Z" transform="translate(-26.604 -6.385)" fill="#08ce73"/>
    <path id="Path_41257" data-name="Path 41257" d="M55.915,28.54a.732.732,0,0,0-.049-.759L52.523,23a11,11,0,1,0-15.051,0L34.13,27.781a.733.733,0,0,0,.6,1.153h3.948l2,3.995a.729.729,0,0,0,.655.405h.024a.733.733,0,0,0,.652-.45L44.878,26c.042,0,.08.006.12.006s.079-.006.119-.006l2.87,6.888a.729.729,0,0,0,.652.45h.026a.732.732,0,0,0,.656-.405l2-3.995h3.948a.733.733,0,0,0,.65-.394ZM35.465,15A9.533,9.533,0,1,1,45,24.534,9.544,9.544,0,0,1,35.465,15Zm5.807,15.84-1.482-2.968a.739.739,0,0,0-.657-.405H36.139l2.469-3.529a10.931,10.931,0,0,0,4.735,1.925Zm9.593-3.373a.735.735,0,0,0-.656.405L48.726,30.84l-2.074-4.977a10.906,10.906,0,0,0,4.735-1.925l2.469,3.529Z" transform="translate(-18.998)" fill="#1c3ffd" stroke="#1c3ffd" stroke-width="0.25"/>
    <path id="Path_41258" data-name="Path 41258" d="M62,50h1.467v1.467H62Z" transform="translate(-36.733 -29.133)" fill="#08ce73"/>
    <path id="Path_41259" data-name="Path 41259" d="M70,50h1.467v1.467H70Z" transform="translate(-41.8 -29.133)" fill="#08ce73"/>
    <path id="Path_41260" data-name="Path 41260" d="M54,50h1.467v1.467H54Z" transform="translate(-31.667 -29.133)" fill="#08ce73"/>
  </g>
</svg>
