<svg xmlns="http://www.w3.org/2000/svg" xmlns:xlink="http://www.w3.org/1999/xlink" width="105" height="125" viewBox="0 0 105 125"><defs><style>.a{fill:url(#a);}.b{fill:#c59954;opacity:0.24;}.c{fill:#f7e5c1;}.d{fill:#e7b96b;}.e{fill:#e09637;}.f{fill:#f7f7f7;opacity:0.179;}.g{opacity:0.39;}.h{fill:#fff;}.i{fill:url(#b);}.j{fill:url(#c);}.k{fill:url(#d);}.l{fill:url(#e);}.m{fill:url(#g);}.n{fill:url(#j);}.o{fill:url(#k);}</style><linearGradient id="a" x1="1.303" y1="0.126" x2="-0.64" y2="1.033" gradientUnits="objectBoundingBox"><stop offset="0" stop-color="#eebe63"/><stop offset="1" stop-color="#dc3b57"/></linearGradient><linearGradient id="b" y1="0.5" x2="1" y2="0.5" gradientUnits="objectBoundingBox"><stop offset="0" stop-color="#e59148"/><stop offset="1" stop-color="#f1cc52"/></linearGradient><linearGradient id="c" y1="0.5" x2="1" y2="0.5" gradientUnits="objectBoundingBox"><stop offset="0" stop-color="#db843a"/><stop offset="1" stop-color="#e4c04c"/></linearGradient><linearGradient id="d" x1="0" y1="0.5" x2="1" y2="0.5" xlink:href="#b"/><linearGradient id="e" x1="0" y1="0.5" x2="1" y2="0.5" xlink:href="#c"/><linearGradient id="g" x1="0" y1="0.5" x2="1" y2="0.5" xlink:href="#c"/><linearGradient id="j" x1="0" y1="0.5" x2="1" y2="0.5" xlink:href="#c"/><linearGradient id="k" x1="2.826" y1="-37.222" x2="3.828" y2="-37.222" xlink:href="#b"/></defs><path class="a" d="M79.623,26.975,90.378,5.253h0S91.017,0,85.787,0,79.568,5.253,76.6,5.253,74.48,0,69.815,0,64.022,5.253,59.358,5.253,57.661,0,51.866,0a7.674,7.674,0,0,0-7.348,5.253h0L55.273,26.975c-20.491,5.946-35.6,26.545-35.6,51.042,0,29.146,20.237,39.685,46.624,39.685,12.7,0,24.5-2.441,33.334-8.218h0c9.526-6.232,15.6-16.345,15.6-31.467C115.225,53.52,100.112,32.921,79.623,26.975Z" transform="translate(-17.208)"/><path class="b" d="M100.094,109.485c-8.886,5.779-20.759,8.218-33.528,8.218-26.541,0-46.9-10.54-46.9-39.685,0-24.5,15.2-45.1,35.811-51.043L44.663,5.253A7.707,7.707,0,0,1,52.054,0c5.829,0,2.843,5.253,7.535,5.253a30.318,30.318,0,0,1,2.953,6.309,28.268,28.268,0,0,1,1.343,13.851,23.99,23.99,0,0,1-.712,3,57.971,57.971,0,0,0-1.663,10.676C59.458,63.454,62.882,115.059,100.094,109.485Z" transform="translate(-17.208)"/><g transform="translate(36.84 23.775)"><path class="c" d="M309.515,196.861a41.955,41.955,0,0,1-13.125-2.016l.307-1.859c17.861,3.458,26.881-1.436,26.947-1.486l.156,2.173C323.58,193.839,319.21,196.861,309.515,196.861Z" transform="translate(-296.39 -191.5)"/></g><g transform="translate(36.908 20.606)"><path class="c" d="M302.563,172.812c-1.793,0-3.662-.084-5.593-.277l.18-1.984a56.823,56.823,0,0,0,19.756-1.567,66.327,66.327,0,0,0,8.823-2.993l-1.247,2.525a35.954,35.954,0,0,1-7.062,2.386A59.132,59.132,0,0,1,302.563,172.812Z" transform="translate(-296.97 -165.99)"/></g><path class="c" d="M516.309,168.428a1.913,1.913,0,0,0,1.189-2.558S515.807,167.877,516.309,168.428Z" transform="translate(-451.937 -145.105)"/><path class="c" d="M512.264,191.5s1.112.73.157,2.173C512.42,193.673,511.6,193.116,512.264,191.5Z" transform="translate(-448.246 -167.72)"/><path class="c" d="M308.089,202.42a1.22,1.22,0,0,0-.265,1.978S309.513,204.057,308.089,202.42Z" transform="translate(-269.143 -177.283)"/><g transform="translate(0 25.175)"><path class="c" d="M.182,240.273,0,238.477c16.434-1.658,22.967-6.167,25.894-17.873a33.475,33.475,0,0,1,3.753-9.339,20.385,20.385,0,0,1,4.478-5.234,11.3,11.3,0,0,1,5.422-2.65l.314,1.683a10.907,10.907,0,0,0-4.7,2.456c-2.376,1.965-5.608,5.908-7.513,13.523-1.622,6.49-4.43,10.9-8.835,13.87C14.61,237.743,8.865,239.4.182,240.273Z" transform="translate(0 -203.38)"/></g><g transform="translate(7.798 25.193)"><path class="c" d="M64.041,225.29A4.436,4.436,0,0,1,62.29,225l.742-1.644-.016-.008c.013,0,1.278.491,3.712-.407,2.322-.856,6.167-3.16,11.3-9.265,10.758-12.8,17.517-10.328,17.8-10.217l-.662,1.679.012.005a6.754,6.754,0,0,0-4.084.4c-2.484.855-6.527,3.161-11.685,9.3-4.447,5.291-8.6,8.622-12.35,9.9A9.4,9.4,0,0,1,64.041,225.29Z" transform="translate(-62.29 -203.196)"/></g><g transform="translate(67.141 86.72)"><path class="d" d="M488.11,827.447a18.925,18.925,0,1,1,25.157,9.132A18.924,18.924,0,0,1,488.11,827.447Z" transform="translate(-486.325 -800.505)"/><path class="d" d="M597.8,836.077l-16-34.228a18.925,18.925,0,0,1,16,34.228Z" transform="translate(-569.848 -800.511)"/><path class="d" d="M488.12,857.168a18.933,18.933,0,0,1,5.188-22.688l15.545,33.26A18.93,18.93,0,0,1,488.12,857.168Z" transform="translate(-486.334 -830.227)"/><path class="e" d="M523.96,857.262a14.383,14.383,0,1,1,19.12,6.941A14.382,14.382,0,0,1,523.96,857.262Z" transform="translate(-518.062 -832.243)"/><path class="f" d="M621.256,834.372a18.929,18.929,0,0,0-15.626-33.433Z" transform="translate(-590.694 -800.512)"/><path class="f" d="M557.575,847.366l-15.545-33.26a18.948,18.948,0,0,1,3.943-2.469q.515-.242,1.037-.447l16,34.228c-.328.179-.665.348-1.008.508A18.969,18.969,0,0,1,557.575,847.366Z" transform="translate(-535.056 -809.852)"/><g class="g" transform="translate(10.133 8.968)"><path class="h" d="M579.857,873.562l-4.693,2.022a4.639,4.639,0,0,1,2.842,2.216l3.1-1.336.612,1.422-3.072,1.323c.965,3.023-.543,5.865-4.135,7.547,3.211,1.348,6.878,3.208,10.53,5.109l-2.73,1.176c-3.37-1.719-6.512-3.3-10.411-4.991l-.76-1.764,1.565-.674c3.072-1.323,4.17-3.314,3.524-5.362l-6.485,2.793-.612-1.422,6.4-2.757c-1.109-1.479-2.972-1.654-5.446-.588l-2.019.87-.8-1.849,11.976-5.157Z" transform="translate(-567.27 -872.14)"/></g></g><g class="g" transform="translate(36.974 47.913)"><path class="h" d="M332.937,392.384H319.126a12.547,12.547,0,0,1,4.687,8.537h9.123v4.185H323.9c-.837,8.537-7.617,13.977-18.329,14.312,6.529,6.779,13.642,15.316,20.673,23.938h-8.035c-6.529-7.867-12.638-15.149-20.5-23.518v-5.189h4.6c9.039,0,13.894-3.766,14.479-9.541H297.7v-4.185h18.831c-1.172-4.855-5.607-7.281-12.889-7.281H297.7V388.2h35.236v4.184Z" transform="translate(-297.7 -388.2)"/></g><g transform="translate(9.054 82.467)"><rect class="i" width="34.983" height="4.246" transform="translate(0 34.216)"/><rect class="j" width="34.983" height="4.246" transform="translate(1.276 29.969)"/><rect class="k" width="34.983" height="4.248" transform="translate(0.562 25.721)"/><rect class="l" width="34.983" height="4.246" transform="translate(1.276 21.475)"/><rect class="i" width="34.983" height="4.246" transform="translate(1.873 17.227)"/><rect class="m" width="34.983" height="4.248" transform="translate(0.777 12.98)"/><rect class="i" width="34.983" height="4.246" transform="translate(0 8.733)"/><rect class="j" width="34.983" height="4.248" transform="translate(1.428 4.486)"/><rect class="n" width="34.983" height="4.246" transform="translate(2.77 38.287)"/><path class="o" d="M143.913,671.8l-34.973-.838.1-4.245,34.974.836Z" transform="translate(-104.356 -666.72)"/></g></svg>