<svg xmlns="http://www.w3.org/2000/svg" xmlns:xlink="http://www.w3.org/1999/xlink" width="48" height="48" viewBox="0 0 48 48">
  <defs>
    <clipPath id="clip-path">
      <rect id="Rectangle_9233" data-name="Rectangle 9233" width="48" height="48" transform="translate(1888 5982)" fill="#fff"/>
    </clipPath>
  </defs>
  <g id="mri-icn" transform="translate(-1888 -5982)" clip-path="url(#clip-path)">
    <g id="mri-icn-2" data-name="mri-icn" transform="translate(1849.42 5974.62)">
      <path id="Path_41998" data-name="Path 41998" d="M425.623,89.636a.731.731,0,0,0,.587.3.668.668,0,0,0,.434-.148.733.733,0,0,0,.155-1.021c-.08-.118-.177-.243-.271-.36a.737.737,0,1,0-1.147.926Z" transform="translate(-348.793 -71.789)" fill="#6c757d"/>
      <path id="Path_41999" data-name="Path 41999" d="M78.5,40.754v-.1A19.767,19.767,0,0,0,79.63,19.345a.737.737,0,1,0-1.277.735,18.336,18.336,0,0,1-7.607,25.361L69.1,40.488h0a13.232,13.232,0,0,0,6.459-11.362,13.067,13.067,0,0,0-.853-4.622.792.792,0,0,0-.088-.243,12.863,12.863,0,0,0-1.47-2.72.554.554,0,0,0-.111-.146,13.222,13.222,0,0,0-8.819-5.342h-.33l-.419-.044c-.367-.037-.735-.052-1.117-.059h-.088a7.15,7.15,0,0,0-1.117.059l-.419.044H60.4A13.226,13.226,0,0,0,51.579,21.4a.52.52,0,0,0-.109.146A12.735,12.735,0,0,0,50,24.263a.794.794,0,0,0-.089.243,13.078,13.078,0,0,0-.808,4.622A13.232,13.232,0,0,0,55.562,40.49l-1.645,4.952A18.372,18.372,0,1,1,74.662,15.518a.735.735,0,0,0,.985-1.088A19.842,19.842,0,0,0,46.207,40.658v.1L44.3,50.77a2.2,2.2,0,0,0,2.2,2.609H78.2a2.2,2.2,0,0,0,2.167-2.609ZM67.475,39.416H57.187v-2.2a.734.734,0,0,1,.735-.735H66.74a.735.735,0,0,1,.735.735Zm4.586-16.9A11.2,11.2,0,0,1,73.185,24.6a1.424,1.424,0,0,1-1.3.853,1.47,1.47,0,0,1,0-2.94,1.208,1.208,0,0,1,.177,0ZM63.8,18.1a1.47,1.47,0,1,1-2.777-.655,11.675,11.675,0,0,1,2.572,0A1.472,1.472,0,0,1,63.8,18.1ZM52.777,22.513a1.47,1.47,0,1,1,0,2.94,1.426,1.426,0,0,1-1.3-.831A11.173,11.173,0,0,1,52.6,22.513a1.208,1.208,0,0,1,.177,0Zm-2.2,6.614a11.388,11.388,0,0,1,.367-2.852A2.939,2.939,0,1,0,53.674,21.2a11.755,11.755,0,0,1,5.717-3.448,2.9,2.9,0,0,0,0,.353,2.94,2.94,0,0,0,5.879,0,2.9,2.9,0,0,0,0-.353A11.765,11.765,0,0,1,71.018,21.2a2.939,2.939,0,1,0,2.733,5.077,11.377,11.377,0,0,1,.339,2.852,11.758,11.758,0,0,1-5.144,9.716V37.211a2.205,2.205,0,0,0-2.2-2.2H57.922a2.205,2.205,0,0,0-2.2,2.2v1.632a11.758,11.758,0,0,1-5.144-9.716ZM45.9,51.645a.736.736,0,0,1-.162-.61L47.4,42.179a19.684,19.684,0,0,0,6.041,4.674l-.632,1.882a.867.867,0,0,0-.037.235v2.94H46.464a.735.735,0,0,1-.566-.264Zm8.348-2.558,2.734-8.2h10.7l2.734,8.2v2.822H54.247Zm24.516,2.558a.735.735,0,0,1-.566.264H71.885v-2.94a.923.923,0,0,0,0-.235l-.632-1.882a19.675,19.675,0,0,0,6.04-4.674l1.668,8.856h0a.737.737,0,0,1-.2.61Z" transform="translate(0 0)" fill="#6c757d"/>
      <path id="Path_42000" data-name="Path 42000" d="M210.432,448.67H200.144a.735.735,0,0,0,0,1.47h10.289a.735.735,0,1,0,0-1.47Z" transform="translate(-142.957 -400.436)" fill="#6c757d"/>
      <g id="Ellipse_1245" data-name="Ellipse 1245" transform="translate(49.835 21.111)" fill="#fff" stroke="#e71c37" stroke-width="1">
        <circle cx="3.5" cy="3.5" r="3.5" stroke="none"/>
        <circle cx="3.5" cy="3.5" r="3" fill="none"/>
      </g>
      <g id="Ellipse_1246" data-name="Ellipse 1246" transform="translate(67.846 21.111)" fill="#fff" stroke="#e71c37" stroke-width="1">
        <circle cx="3.5" cy="3.5" r="3.5" stroke="none"/>
        <circle cx="3.5" cy="3.5" r="3" fill="none"/>
      </g>
      <g id="Ellipse_1247" data-name="Ellipse 1247" transform="translate(58.84 16.38)" fill="#f8fafc" stroke="#08ce73" stroke-width="1">
        <circle cx="3.5" cy="3.5" r="3.5" stroke="none"/>
        <circle cx="3.5" cy="3.5" r="3" fill="none"/>
      </g>
    </g>
  </g>
</svg>
