<svg xmlns="http://www.w3.org/2000/svg" width="36" height="36" viewBox="0 0 36 36"><defs><style>.a{fill:none;}</style></defs><g transform="translate(-180.179 -105.906)"><rect class="a" width="36" height="36" transform="translate(180.179 105.906)"/><g transform="translate(183.194 110.764)"><path d="M208.7,125.516H198.51a.916.916,0,0,0,.03-.223v-4.816a2.739,2.739,0,0,0-2.734-2.737h-.377v-3.264a5.348,5.348,0,1,0-10.7,0v3.273a2.737,2.737,0,0,0-2.555,2.728v8.61a2.738,2.738,0,0,0,2.734,2.737h2.039a.949.949,0,1,0,0-1.9h-2.039a.84.84,0,0,1-.837-.84v-8.61a.84.84,0,0,1,.837-.84h10.894a.84.84,0,0,1,.837.84v4.816a.994.994,0,0,0,.029.223h-4.25a3.643,3.643,0,0,0-3.638,3.639v2.814a3.642,3.642,0,0,0,3.638,3.638H208.7a3.642,3.642,0,0,0,3.638-3.638v-2.814A3.643,3.643,0,0,0,208.7,125.516Zm-18.621-14.492a3.455,3.455,0,0,1,3.451,3.452v3.264h-6.9v-3.264A3.455,3.455,0,0,1,190.081,111.024Zm20.363,20.946a1.745,1.745,0,0,1-1.742,1.742H192.422a1.744,1.744,0,0,1-1.74-1.742v-2.814a1.744,1.744,0,0,1,1.74-1.742H208.7a1.745,1.745,0,0,1,1.742,1.742Z" transform="translate(-182.178 -109.127)"/><path d="M190.661,122.462a1.326,1.326,0,1,0,1.324,1.326A1.325,1.325,0,0,0,190.661,122.462Z" transform="translate(-178.541 -102.35)"/><circle cx="1.326" cy="1.326" r="1.326" transform="translate(14.81 20.111)"/><circle cx="1.326" cy="1.326" r="1.326" transform="translate(18.825 20.109)"/><path d="M198.65,122.462a1.326,1.326,0,1,0,1.324,1.324A1.323,1.323,0,0,0,198.65,122.462Z" transform="translate(-174.481 -102.35)"/></g></g></svg>