<svg xmlns="http://www.w3.org/2000/svg" width="35.998" height="35.998" viewBox="0 0 35.998 35.998"><defs><style>.a{fill:none;}</style></defs><g transform="translate(-180.178 -178.329)"><rect class="a" width="35.998" height="35.998" transform="translate(180.178 178.329)"/><g transform="translate(183.178 184.914)"><path d="M208.515,182.719H185.847a3.672,3.672,0,0,0-3.669,3.669v15.493a3.671,3.671,0,0,0,3.669,3.667h22.663a3.67,3.67,0,0,0,3.667-3.667V186.394A3.667,3.667,0,0,0,208.515,182.719Zm1.992,19.162a2,2,0,0,1-1.992,1.992H185.847a1.994,1.994,0,0,1-1.992-1.992V186.394a1.993,1.993,0,0,1,1.992-1.992h22.663a1.994,1.994,0,0,1,1.992,1.992v15.487Z" transform="translate(-182.178 -182.719)"/><path d="M199.945,192.883l7.336-6.58a.839.839,0,1,0-1.123-1.246l-10.117,9.081-1.974-1.762c-.006-.006-.014-.014-.014-.02a1.126,1.126,0,0,0-.137-.117l-8.032-7.188a.839.839,0,1,0-1.116,1.252l7.423,6.636-7.393,6.921a.843.843,0,0,0-.037,1.186.858.858,0,0,0,.615.267.843.843,0,0,0,.572-.223l7.5-7.021,2.035,1.819a.841.841,0,0,0,.559.211.832.832,0,0,0,.558-.217l2.092-1.875,7.461,7.089a.839.839,0,0,0,1.155-1.216Z" transform="translate(-181.024 -181.661)"/></g></g></svg>