<svg xmlns="http://www.w3.org/2000/svg" width="221.001" height="220.297" viewBox="0 0 221.001 220.297"><defs><style>.a{opacity:0.4;}.b{fill:#f5f5f5;}.c{fill:#e0e0e0;}.d{fill:#d6d6d6;}.e{fill:#676767;}.f{fill:#ebebeb;}.g{fill:#263238;}.h{fill:#b78876;}.i{fill:#aa6550;}.j{fill:#455a64;}.k{fill:#e8505b;}.l{opacity:0.6;}.m{fill:#fff;}.n{opacity:0.3;}.o{fill:#d0d0d0;}</style></defs><g class="a" transform="translate(0 24)"><g transform="translate(57.393 54.489)"><g transform="translate(0 0)"><path class="b" d="M108.649,223.029h85.3l-13.895,10.026v19.727a4.119,4.119,0,0,1-4.119,4.119H108.649a4.119,4.119,0,0,1-4.119-4.119V227.148A4.119,4.119,0,0,1,108.649,223.029Z" transform="translate(-104.53 -223.029)"/></g><g transform="translate(7.677 13.792)"><path class="c" d="M146.989,247.3c0,.082,12.865.149,28.73.149s28.733-.067,28.733-.149-12.862-.149-28.733-.149S146.989,247.218,146.989,247.3Z" transform="translate(-146.989 -247.151)"/></g><g transform="translate(7.677 21.366)"><path class="c" d="M146.989,260.546c0,.082,12.865.149,28.73.149s28.733-.067,28.733-.149-12.862-.149-28.733-.149S146.989,260.464,146.989,260.546Z" transform="translate(-146.989 -260.397)"/></g></g><g transform="translate(9.973 -24)"><path class="d" d="M81.5,127.729H20.622l9.916,7.156v14.078a2.94,2.94,0,0,0,2.94,2.939H81.5a2.94,2.94,0,0,0,2.939-2.939V130.668A2.939,2.939,0,0,0,81.5,127.729Z" transform="translate(-20.622 -127.729)"/><g transform="translate(17.325 9.843)"><path class="e" d="M71.213,145.05c0,.059-9.181.106-20.5.106S30.2,145.109,30.2,145.05s9.179-.106,20.506-.106S71.213,144.991,71.213,145.05Z" transform="translate(-30.204 -144.944)"/></g><g transform="translate(17.325 15.248)"><path class="e" d="M71.213,154.5c0,.058-9.181.106-20.5.106S30.2,154.562,30.2,154.5s9.179-.106,20.506-.106S71.213,154.444,71.213,154.5Z" transform="translate(-30.204 -154.397)"/></g></g><g transform="translate(16.159 109.284)"><g transform="translate(0 32.452)"><path class="b" d="M314.3,407.942c.407-1.615-.66-3.228-1.851-4.391s-2.615-2.2-3.241-3.747c-1.013-2.5.312-5.754-1.4-7.835-1.01-1.225-2.811-1.626-3.708-2.935a6.729,6.729,0,0,1-.815-2.344,23.858,23.858,0,0,0-6-11.068,20.7,20.7,0,0,0,2.388,10.686,13.6,13.6,0,0,1,1.79,4.054c.385,2.381-.931,4.843-.332,7.179.684,2.671,3.7,4.445,3.858,7.2.134,2.328-1.884,4.383-1.72,6.709a6.284,6.284,0,0,0,1.052,2.755c1.817,2.983,4.473,5.029,8.482,4.939l4.911.144Z" transform="translate(-297.263 -375.623)"/></g><g transform="translate(4.191)"><g transform="translate(14.737 15.372)"><path class="c" d="M268.584,406.618a3.922,3.922,0,0,0,1.352-.037,8.217,8.217,0,0,0,1.593-.411,6.752,6.752,0,0,0,1.965-1.09,2.751,2.751,0,0,0,.8-1.085,5.1,5.1,0,0,0,.223-1.468,14.131,14.131,0,0,1,.105-1.589,4.382,4.382,0,0,1,.591-1.583,11.986,11.986,0,0,0,1.831-3.371,11.119,11.119,0,0,0-.158-4.3,9.136,9.136,0,0,1,.089-4.613c.518-1.539,1.587-2.931,2.115-4.666.526-1.751.265-3.631.368-5.486a7.273,7.273,0,0,1,.624-2.73c.392-.871.939-1.694,1.364-2.612a19.072,19.072,0,0,0,1.23-6.008l.335-3.14a15.35,15.35,0,0,1,.528-3.143,27.647,27.647,0,0,1,1.157-3.045,10.172,10.172,0,0,0,.561-1.591,15.992,15.992,0,0,0,.149-1.69,19.915,19.915,0,0,0-.15-3.4c-.14-1.133-.351-2.254-.479-3.389-.008-.067-.016-.134-.023-.2l-.026-.226-.2.1A7.587,7.587,0,0,0,281.9,348.1a12.033,12.033,0,0,0-1.607,3,36.9,36.9,0,0,0-1.493,6.439,17.465,17.465,0,0,1-1.983,5.95c-.533.877-1.18,1.679-1.744,2.536a6.942,6.942,0,0,0-1.2,2.805c-.278,2.079.876,3.9.648,5.737a6.378,6.378,0,0,1-.882,2.553c-.441.787-.961,1.517-1.454,2.252a14.38,14.38,0,0,0-1.305,2.273,7.177,7.177,0,0,0-.589,2.465c-.11,1.656.134,3.226.021,4.71a10.848,10.848,0,0,1-1.189,4.042c-.587,1.212-1.242,2.308-1.789,3.37a17.189,17.189,0,0,0-.736,1.569,7.686,7.686,0,0,0-.422,1.555,9.8,9.8,0,0,0-.021,2.8,7.065,7.065,0,0,0,1.425,3.566,3.366,3.366,0,0,0,.4.428,1.953,1.953,0,0,0,.324.272c.184.134.282.195.282.195a6.171,6.171,0,0,1-.956-.935,7.107,7.107,0,0,1-1.353-3.542,9.748,9.748,0,0,1,.047-2.762,7.592,7.592,0,0,1,.425-1.519c.206-.508.463-1.023.74-1.548.552-1.053,1.213-2.145,1.813-3.364a11.022,11.022,0,0,0,1.23-4.114c.121-1.515-.116-3.09,0-4.708a6.931,6.931,0,0,1,.579-2.382,14.15,14.15,0,0,1,1.29-2.228c.493-.729,1.018-1.462,1.472-2.266a6.634,6.634,0,0,0,.922-2.658c.225-1.961-.921-3.79-.636-5.723a6.663,6.663,0,0,1,1.162-2.684c.556-.84,1.206-1.643,1.755-2.543a17.738,17.738,0,0,0,2.03-6.049,36.733,36.733,0,0,1,1.483-6.385,11.723,11.723,0,0,1,1.565-2.923,7.28,7.28,0,0,1,2.52-2.153l-.227-.124.023.2c.13,1.149.341,2.273.48,3.392a19.615,19.615,0,0,1,.149,3.346,16.05,16.05,0,0,1-.141,1.639,9.89,9.89,0,0,1-.543,1.533,27.96,27.96,0,0,0-1.166,3.079,15.575,15.575,0,0,0-.535,3.2q-.167,1.587-.33,3.142a18.855,18.855,0,0,1-1.194,5.918c-.409.891-.955,1.717-1.358,2.616a7.548,7.548,0,0,0-.642,2.831c-.1,1.9.161,3.747-.342,5.428s-1.563,3.074-2.095,4.661a9.345,9.345,0,0,0-.078,4.727,10.965,10.965,0,0,1,.183,4.222c-.276,1.321-1.2,2.28-1.79,3.329a4.549,4.549,0,0,0-.6,1.645,14.2,14.2,0,0,0-.094,1.608,4.99,4.99,0,0,1-.2,1.428,2.638,2.638,0,0,1-.756,1.038,6.734,6.734,0,0,1-1.917,1.1,8.44,8.44,0,0,1-1.571.436,6.362,6.362,0,0,1-1,.1C268.7,406.613,268.584,406.618,268.584,406.618Z" transform="translate(-266.063 -345.75)"/><g transform="translate(2.52 2.935)"><path class="c" d="M284.147,350.884a.58.58,0,0,0-.046.149c-.029.118-.063.264-.106.443-.094.387-.206.971-.387,1.7s-.63,1.553-1,2.57c-.391,1.009-.786,2.177-1.148,3.489s-.691,2.768-1.029,4.327a18.211,18.211,0,0,1-1.545,4.8c-.4.8-.846,1.609-1.2,2.495a11.574,11.574,0,0,0-.691,2.822,57.049,57.049,0,0,1-1.025,5.946c-.962,4.029-1.878,7.867-2.711,11.362-.855,3.483-1.626,6.621-2.274,9.266-.632,2.622-1.145,4.751-1.507,6.254l-.395,1.7-.094.445a.582.582,0,0,0-.022.154.532.532,0,0,0,.053-.146c.034-.116.074-.26.125-.437l.452-1.69,1.6-6.229,2.34-9.25,2.738-11.365a56.118,56.118,0,0,0,1.023-5.97,11.335,11.335,0,0,1,.665-2.754c.342-.862.783-1.668,1.182-2.476a18.307,18.307,0,0,0,1.54-4.878c.327-1.564.637-3.015.989-4.324s.724-2.476,1.1-3.485c.356-1.013.782-1.849.959-2.6s.256-1.327.33-1.721c.031-.182.055-.33.075-.449A.6.6,0,0,0,284.147,350.884Z" transform="translate(-268.96 -350.884)"/></g></g><g transform="translate(0)"><path class="c" d="M306.29,395.115c3.2-1.925,4.084-7.716,2.727-11.191s-3.718-6.644-4.1-10.356c-.294-2.853.624-5.788-.057-8.574-.918-3.76-4.611-6.656-4.591-10.526.011-2.172,1.236-4.222,1.125-6.391-.135-2.66-2.19-4.76-3.469-7.1-1.957-3.577-2.108-7.819-2.793-11.838s-2.242-8.319-5.819-10.276c-.507,3.419-1.393,5.763-1.085,10.389.111,1.661,2.059,4.831,2.343,8.472.169,2.176.29,4.356.436,6.533a20.957,20.957,0,0,0,1.062,6.256c.591,1.516,1.535,2.892,1.975,4.459.83,2.947-.22,6.15.453,9.138.571,2.531,2.337,4.7,2.71,7.268.524,3.607-1.791,7.372-.576,10.808.6,1.706,2.017,3.07,2.425,4.831.317,1.368-.012,2.818.276,4.192.464,2.213,4.7,3.91,6.955,3.76" transform="translate(-288.165 -318.865)"/><g transform="translate(2.049 3.385)"><path class="f" d="M294.006,324.786a.822.822,0,0,0,.015.193l.075.561c.077.493.163,1.217.335,2.153s.676,2,1.071,3.275c.417,1.272.832,2.74,1.2,4.385s.692,3.463,1.025,5.421a22.738,22.738,0,0,0,1.679,6.127c.456,1.022.966,2.046,1.351,3.137a14.116,14.116,0,0,1,.7,3.462,69.974,69.974,0,0,0,.983,7.466c1.011,5.055,1.974,9.87,2.85,14.253.923,4.365,1.754,8.3,2.453,11.609l1.68,7.821.473,2.123c.054.229.1.41.13.551a.925.925,0,0,0,.055.185.82.82,0,0,0-.023-.192c-.025-.142-.058-.326-.1-.557-.1-.509-.237-1.224-.415-2.136l-1.582-7.841c-.681-3.314-1.489-7.252-2.387-11.623l-2.824-14.249a70.8,70.8,0,0,1-.986-7.441,14.384,14.384,0,0,0-.72-3.531c-.4-1.114-.914-2.142-1.37-3.156a22.654,22.654,0,0,1-1.687-6.053c-.343-1.955-.674-3.779-1.065-5.426s-.817-3.119-1.251-4.391c-.415-1.281-.921-2.329-1.118-3.246s-.3-1.65-.392-2.136c-.045-.23-.079-.413-.106-.556A.913.913,0,0,0,294.006,324.786Z" transform="translate(-294.004 -324.786)"/></g></g></g></g><g transform="translate(130.42 89.835)"><path class="f" d="M88.372,285.037s5.468,1.114,1.61,13a144.658,144.658,0,0,1-6.877,17.948s-.588,2.71,1.623,2.764,6.821-1.453,8.2,1.023c1.427,2.568-.144,5.456-3.8,8.351s-11.433,9.534-12.134,10.137-1.264,1.9.236,2.18,12.317-.306,12.287,4.843-11.54,11.543-12.785,12.265-1.473,1.336-1.249,2.047,3.841.172,6.925.132,6.666.454,6.4,3.423-6.549,10.12-23.849,14.641l-8.153,1.57-5.563-6.213c-11.1-14.024-11.809-23.515-10.234-26.047s4.732-.77,7.17,1.118,5,4.5,5.609,4.062.794-1.059.235-2.386-5.9-13.36-2.828-17.49,11.362,2.847,12.727,3.527,1.694-.712,1.5-1.6c-.2-.9-2.412-10.885-3.589-15.4s-.694-7.764,1.991-8.956c2.589-1.15,5.364,2.829,7.162,4.117s2.96-1.231,2.96-1.231a144.532,144.532,0,0,1,5.31-18.471c4.073-11.814,9.225-9.327,9.225-9.327" transform="translate(-40.38 -284.849)"/><g transform="translate(16.133 10.839)"><path class="c" d="M55.442,389.476c2.957-8.688,7.954-24.219,12.313-37.53s8.314-25.351,11.227-34.053l3.46-10.3.939-2.8.238-.731c.052-.165.073-.252.073-.252s-.037.081-.1.243l-.262.723-.985,2.786c-.853,2.421-2.061,5.933-3.538,10.277-2.957,8.688-6.942,20.724-11.3,34.031s-9.328,28.849-12.241,37.552" transform="translate(-55.269 -303.806)"/></g><g transform="translate(33.101 37.29)"><path class="c" d="M65.5,350.071a2.7,2.7,0,0,0-.546.25c-.345.174-.835.441-1.438.776-1.2.674-2.844,1.646-4.635,2.75l-4.572,2.846-1.39.854a2.668,2.668,0,0,0-.5.334,2.729,2.729,0,0,0,.548-.246c.344-.176.835-.443,1.434-.784,1.2-.685,2.825-1.678,4.615-2.783l4.591-2.812,1.4-.847A2.644,2.644,0,0,0,65.5,350.071Z" transform="translate(-52.424 -350.069)"/></g><g transform="translate(23.945 29.297)"><path class="c" d="M84.938,351.459c.062-.034-1.792-3.5-4.142-7.747s-4.307-7.658-4.369-7.623,1.792,3.5,4.143,7.749S84.876,351.494,84.938,351.459Z" transform="translate(-76.425 -336.089)"/></g><g transform="translate(16.115 54.015)"><path class="c" d="M97.092,390.713a2.8,2.8,0,0,0-.413-.453L95.5,389.086c-1-.992-2.368-2.368-3.825-3.942s-2.734-3.039-3.647-4.109l-1.082-1.266a2.8,2.8,0,0,0-.42-.447,2.76,2.76,0,0,0,.342.509c.234.317.58.77,1.021,1.32.878,1.1,2.133,2.593,3.6,4.169s2.857,2.938,3.887,3.9c.517.479.941.86,1.241,1.116A2.8,2.8,0,0,0,97.092,390.713Z" transform="translate(-86.521 -379.321)"/></g><g transform="translate(26.691 61.464)"><path class="c" d="M76.12,392.354a2.374,2.374,0,0,0-.558.1l-1.5.362c-1.262.317-3,.771-4.916,1.288s-3.647,1-4.9,1.361l-1.476.441a2.421,2.421,0,0,0-.532.2,2.4,2.4,0,0,0,.559-.1l1.5-.362c1.262-.316,3-.771,4.917-1.288s3.646-1,4.9-1.361l1.476-.441A2.387,2.387,0,0,0,76.12,392.354Z" transform="translate(-62.243 -392.349)"/></g><g transform="translate(19.969 80.422)"><path class="c" d="M84.916,425.509a3.833,3.833,0,0,0-.714.133l-1.921.456c-1.619.4-3.852.962-6.313,1.6s-4.688,1.233-6.3,1.675l-1.9.536a3.922,3.922,0,0,0-.688.23,3.884,3.884,0,0,0,.713-.133l1.921-.457c1.619-.4,3.852-.961,6.314-1.6s4.687-1.232,6.295-1.674l1.9-.536A3.92,3.92,0,0,0,84.916,425.509Z" transform="translate(-67.085 -425.506)"/></g><g transform="translate(7.347 70.009)"><path class="c" d="M110.6,422.111a4.465,4.465,0,0,0-.509-.587l-1.446-1.543c-1.219-1.3-2.9-3.11-4.691-5.157s-3.377-3.938-4.511-5.317L98.1,407.876a4.474,4.474,0,0,0-.516-.581,4.538,4.538,0,0,0,.437.643c.294.4.73.981,1.281,1.684,1.1,1.409,2.658,3.325,4.459,5.373s3.5,3.841,4.752,5.113c.629.635,1.143,1.143,1.506,1.487A4.5,4.5,0,0,0,110.6,422.111Z" transform="translate(-97.579 -407.294)"/></g></g><g transform="translate(0 185.415)"><path class="g" d="M45,452.165c0,.082,40.487.149,90.419.149,49.948,0,90.427-.066,90.427-.149s-40.478-.149-90.427-.149C85.489,452.016,45,452.083,45,452.165Z" transform="translate(-45.002 -452.016)"/></g><g transform="translate(56.567 119.21)"><path class="g" d="M98.963,336.374a1.43,1.43,0,0,0,.241.015l.708.015,2.722.028,10.011.047,33.028.043,33.034-.043,10.01-.047,2.722-.028.708-.015a.121.121,0,1,0,0-.03l-.708-.015-2.722-.028-10.01-.047-33.034-.043-33.028.043-10.011.047-2.722.028-.708.015A1.444,1.444,0,0,0,98.963,336.374Z" transform="translate(-98.963 -336.225)"/></g><g transform="translate(60.046 12.086)"><g transform="translate(33.8 0)"><g transform="translate(0 32.785)"><path class="f" d="M169.794,214.739l-12.613-6.828-12.479-1.7-11.45,43.569L134.3,263.21l32.3,1.738-1.316-31.261Z" transform="translate(-133.252 -206.208)"/></g><g transform="translate(9.944)"><g transform="translate(0)"><g transform="translate(0 6.941)"><g transform="translate(2.838)"><path class="h" d="M139.1,163.874a19.342,19.342,0,0,1,19.583-.4s-.375,12.81-1.024,18.337-6.276,5.807-6.276,5.807l-.23,2.015a7.021,7.021,0,0,1-7.7,6.185h0a7.021,7.021,0,0,1-6.287-7.289l1.05-24.109Z" transform="translate(-137.16 -161.007)"/><g transform="translate(7.244 23.723)"><path class="i" d="M156.9,205.306a12.943,12.943,0,0,1-7-2.808s1.288,4.162,6.862,4.243Z" transform="translate(-149.896 -202.498)"/></g></g><g transform="translate(0 8.893)"><path class="h" d="M176.8,176.884c-.09-.051-3.684-1.524-3.961,2.272s3.592,3.291,3.607,3.182S176.8,176.884,176.8,176.884Z" transform="translate(-172.82 -176.561)"/><g transform="translate(0.969 1.198)"><path class="i" d="M176.877,181.713c-.016-.013-.07.042-.185.085a.663.663,0,0,1-.5-.026,1.641,1.641,0,0,1-.65-1.523,2.2,2.2,0,0,1,.254-.934.768.768,0,0,1,.535-.472.339.339,0,0,1,.377.21c.043.11.013.184.033.192s.086-.058.067-.217a.426.426,0,0,0-.132-.249.5.5,0,0,0-.359-.124.933.933,0,0,0-.734.539,2.245,2.245,0,0,0-.306,1.041,1.72,1.72,0,0,0,.845,1.71.711.711,0,0,0,.612-.056C176.863,181.8,176.89,181.721,176.877,181.713Z" transform="translate(-175.28 -178.656)"/></g></g><g transform="translate(10.771 5.283)"><g transform="translate(0)"><g transform="translate(0.232 3.135)"><g transform="translate(0)"><g transform="translate(8.377 0.719)"><g transform="translate(0.774 1.614)"><path class="g" d="M143.332,180.61a.8.8,0,0,1-.846.717.76.76,0,0,1-.74-.8.794.794,0,0,1,.844-.718A.761.761,0,0,1,143.332,180.61Z" transform="translate(-141.745 -179.81)"/></g><path class="g" d="M143.512,177.992c-.109.093-.662-.413-1.512-.5s-1.519.273-1.6.159c-.041-.051.079-.226.372-.4a2.178,2.178,0,0,1,1.294-.255,2.1,2.1,0,0,1,1.19.527C143.5,177.756,143.564,177.951,143.512,177.992Z" transform="translate(-140.392 -176.987)"/></g><g transform="translate(0.667 1.813)"><path class="g" d="M158.17,179.7a.8.8,0,0,1-.846.718.761.761,0,0,1-.74-.8.8.8,0,0,1,.846-.718A.761.761,0,0,1,158.17,179.7Z" transform="translate(-156.582 -178.901)"/></g><path class="g" d="M158.163,176.735c-.109.093-.662-.413-1.512-.5s-1.519.273-1.6.159c-.041-.051.078-.226.372-.4a2.178,2.178,0,0,1,1.294-.255,2.094,2.094,0,0,1,1.19.527C158.146,176.5,158.216,176.694,158.163,176.735Z" transform="translate(-155.043 -175.73)"/><g transform="translate(5.544 0.509)"><path class="g" d="M146.921,183.748a5.666,5.666,0,0,1,1.408-.1c.22,0,.429-.021.481-.166a1.106,1.106,0,0,0-.077-.659q-.224-.821-.469-1.722a28.585,28.585,0,0,1-.988-4.477,28.6,28.6,0,0,1,1.346,4.387c.154.6.3,1.178.441,1.728a1.264,1.264,0,0,1,.023.864.547.547,0,0,1-.39.28,1.516,1.516,0,0,1-.375.013A5.56,5.56,0,0,1,146.921,183.748Z" transform="translate(-146.921 -176.621)"/></g></g></g><path class="g" d="M157.984,171.077c-.108.222-.946.024-1.957.039-1.011-.005-1.846.2-1.957-.018-.049-.106.114-.308.463-.5a3.4,3.4,0,0,1,2.981-.016C157.866,170.77,158.031,170.971,157.984,171.077Z" transform="translate(-154.062 -170.248)"/><g transform="translate(8.794 1.316)"><path class="g" d="M143.343,173.6c-.17.177-.735-.085-1.439-.168-.7-.108-1.314-.007-1.431-.224-.05-.1.065-.288.345-.443a2.1,2.1,0,0,1,2.312.315C143.358,173.3,143.419,173.51,143.343,173.6Z" transform="translate(-140.462 -172.549)"/></g></g></g></g><g transform="translate(2.122)"><path class="g" d="M157.035,155.064a2.052,2.052,0,0,0-.563-1.9,1.457,1.457,0,0,0-1.893-.057,1.7,1.7,0,0,0-1.238-2.2c-.9-.152-1.738.449-2.635.6a4.131,4.131,0,0,1-2.552-.569c-.784-.416-1.5-.951-2.3-1.341a7.115,7.115,0,0,0-9.488,3.205,3.158,3.158,0,0,0-3.464.911,5.182,5.182,0,0,0-1.171,3.548,11.627,11.627,0,0,0,.372,2.55c-.007.071-.022.14-.028.212-.262,3.05-.293,6.659,1,6.816,2.259.272,2.168-4.048,2.168-4.048,2.89-.782,2.292-5.051,3.053-5.61s2.367-1.872,7.87,1.71a11.326,11.326,0,0,0,6.821,1.471c.049-.005.1-.007.148-.014l.034,0c.018,0,.032-.011.05-.014a5.265,5.265,0,0,0,1.557-.476,2.964,2.964,0,0,0,1.372-1.237,1.622,1.622,0,0,0-.135-1.766A3.568,3.568,0,0,0,157.035,155.064Z" transform="translate(-131.73 -148.868)"/></g></g><g transform="translate(14.33 24.513)"><path class="i" d="M152.486,192.914a3.843,3.843,0,0,1-.595.915,1.293,1.293,0,0,1-.969.435,1.16,1.16,0,0,1-.919-.634,1.851,1.851,0,0,1-.156-1.137c.053-.348.256-.748.608-.753a.886.886,0,0,1,.412.138l1.748.932" transform="translate(-149.822 -191.74)"/></g><g transform="translate(14.079 24.31)"><path class="g" d="M151.289,194.188a2.648,2.648,0,0,1-.961-.222,1.4,1.4,0,0,1-.666-.746,1.476,1.476,0,0,1,.1-1.2,1.336,1.336,0,0,1,.188-.256c.081-.068.067-.066.145-.046s.186.1.28.146l.287.153c.374.2.714.375,1,.517a3.352,3.352,0,0,0,.962.4,3.337,3.337,0,0,0-.85-.606c-.273-.169-.6-.365-.966-.579l-.282-.164a3.354,3.354,0,0,0-.318-.172.43.43,0,0,0-.272-.021.507.507,0,0,0-.218.138,1.556,1.556,0,0,0-.241.325,1.72,1.72,0,0,0-.1,1.467,1.569,1.569,0,0,0,.848.846,1.48,1.48,0,0,0,.787.114C151.2,194.26,151.294,194.207,151.289,194.188Z" transform="translate(-149.261 -191.386)"/></g><g transform="translate(8.528 4.888)"><path class="j" d="M138.226,160.3a3.291,3.291,0,0,1,.067-.67,2.628,2.628,0,0,1,1.028-1.464,3.539,3.539,0,0,1,2.578-.561,10.905,10.905,0,0,1,3.162,1.063,17.414,17.414,0,0,0,1.624.662,8.766,8.766,0,0,0,4.362.294,8.481,8.481,0,0,0,1.782-.544,5.067,5.067,0,0,0,.457-.22.729.729,0,0,0,.152-.09c-.007-.015-.224.1-.632.251a9.456,9.456,0,0,1-1.779.489,9.021,9.021,0,0,1-2.723.037,8.78,8.78,0,0,1-1.567-.369c-.531-.179-1.063-.414-1.609-.659a10.774,10.774,0,0,0-3.211-1.065,3.627,3.627,0,0,0-2.665.619,2.63,2.63,0,0,0-1.021,1.543A1.525,1.525,0,0,0,138.226,160.3Z" transform="translate(-138.193 -157.416)"/></g><g transform="translate(3.275 6.098)"><path class="j" d="M166.135,170.1s.034-.034.085-.109.123-.186.209-.334a7.2,7.2,0,0,0,.585-1.329,7.624,7.624,0,0,0,.367-2.125,19.135,19.135,0,0,0-.224-2.623,5.065,5.065,0,0,1,.262-2.544,2.588,2.588,0,0,1,.631-.909,1.951,1.951,0,0,1,.85-.438,1.825,1.825,0,0,1,1.362.178,2.631,2.631,0,0,1,.394.342,1.059,1.059,0,0,0-.358-.4,1.847,1.847,0,0,0-1.423-.238,2.043,2.043,0,0,0-.915.45,2.684,2.684,0,0,0-.679.949,5.126,5.126,0,0,0-.287,2.621,20.583,20.583,0,0,1,.236,2.6,7.856,7.856,0,0,1-.327,2.093,8.334,8.334,0,0,1-.531,1.334A4.983,4.983,0,0,0,166.135,170.1Z" transform="translate(-166.134 -159.532)"/></g><g transform="translate(8.064 1.801)"><path class="j" d="M136.518,157.48a1.144,1.144,0,0,0,.021-.222l.043-.637a7.409,7.409,0,0,1,.5-2.272,4.086,4.086,0,0,1,.886-1.318,2.872,2.872,0,0,1,1.587-.824,3.77,3.77,0,0,1,1.972.289,9.248,9.248,0,0,1,1.887,1.106,16.449,16.449,0,0,0,1.858,1.217,6.052,6.052,0,0,0,1.981.619,6.448,6.448,0,0,0,1.878-.033,7.209,7.209,0,0,0,1.569-.462,6.186,6.186,0,0,0,1.94-1.333,3.9,3.9,0,0,0,.416-.488,1.132,1.132,0,0,0,.127-.184,1.174,1.174,0,0,0-.153.163,4.8,4.8,0,0,1-.436.464,6.411,6.411,0,0,1-1.941,1.272,7.216,7.216,0,0,1-1.545.434,6.385,6.385,0,0,1-1.836.018,5.943,5.943,0,0,1-1.927-.612,16.7,16.7,0,0,1-1.838-1.208,9.239,9.239,0,0,0-1.921-1.121,3.9,3.9,0,0,0-2.055-.289,3,3,0,0,0-1.659.877,4.168,4.168,0,0,0-.9,1.371,7.068,7.068,0,0,0-.453,2.312c-.013.278-.014.494-.013.64A1.119,1.119,0,0,0,136.518,157.48Z" transform="translate(-136.505 -152.017)"/></g></g></g><g transform="translate(74.119 153.541)"><path class="k" d="M105.714,417.409l1.795,16.067,5.084,12.3a1.656,1.656,0,0,1-1,2.2h0a1.648,1.648,0,0,1-1.5-.229c-2.762-2.016-12.883-9.479-12.948-10.662-.076-1.37-3.018-16.823-3.018-16.823Z" transform="translate(-94.123 -417.409)"/><g class="l" transform="translate(2.872 18.598)"><path class="m" d="M110.693,461.907,96.1,449.936l.091.679a2.494,2.494,0,0,0,.8,1.523c1.179,1.058,4.5,3.909,12.152,9.548a1.657,1.657,0,0,0,1.548.222Z" transform="translate(-96.099 -449.936)"/></g><g class="l" transform="translate(4.101 12.885)"><path class="m" d="M117.534,440.046a1,1,0,0,1,.447,1.26.963.963,0,0,1-1.245.454,1.058,1.058,0,0,1-.467-1.337,1,1,0,0,1,1.348-.329" transform="translate(-116.172 -439.945)"/></g><g transform="translate(12.833 21.885)"><path class="g" d="M98.876,457.863a3.573,3.573,0,0,1,3.034-2.038c.009-.041-.211-.138-.593-.141a2.641,2.641,0,0,0-2.347,1.576C98.827,457.615,98.834,457.855,98.876,457.863Z" transform="translate(-98.85 -455.685)"/></g><g transform="translate(14.276 24.614)"><path class="g" d="M96.657,461.9c.086.059.529-.532,1.326-.881a13.4,13.4,0,0,1,1.537-.413,1.835,1.835,0,0,0-1.683.089C96.931,461.1,96.568,461.867,96.657,461.9Z" transform="translate(-96.644 -460.459)"/></g><g transform="translate(10.356 19.175)"><path class="g" d="M101.083,453.37a16.516,16.516,0,0,1,1.955-1.5,16.607,16.607,0,0,1,2.3-.875,4.528,4.528,0,0,0-4.257,2.372Z" transform="translate(-101.075 -450.946)"/></g><g transform="translate(9.407 15.74)"><path class="g" d="M102.924,445.958c.055.09.891-.4,2.037-.6,1.144-.213,2.1-.043,2.118-.148a4.113,4.113,0,0,0-4.154.743Z" transform="translate(-102.921 -444.938)"/></g><g transform="translate(8.76 11.01)"><path class="g" d="M103.8,437.713a8.1,8.1,0,0,1,2.1-.677,8.117,8.117,0,0,1,2.2.247c.022-.037-.18-.214-.579-.378a3.608,3.608,0,0,0-3.229.322C103.932,437.467,103.769,437.681,103.8,437.713Z" transform="translate(-103.794 -436.665)"/></g><g transform="translate(8.152 7.548)"><path class="g" d="M106.484,433.552a1.4,1.4,0,0,0-.06-.609,4.256,4.256,0,0,0-.7-1.522,1.882,1.882,0,0,0-.921-.783.665.665,0,0,0-.724.247,1.084,1.084,0,0,0-.156.758,2.341,2.341,0,0,0,2.323,1.872,2.717,2.717,0,0,0,2.454-1.764.941.941,0,0,0-.061-.783.654.654,0,0,0-.723-.252,2.315,2.315,0,0,0-.981.691,4.743,4.743,0,0,0-.926,1.392,1.447,1.447,0,0,0-.172.587,7.53,7.53,0,0,1,1.275-1.8,2.157,2.157,0,0,1,.87-.581.349.349,0,0,1,.4.134.649.649,0,0,1,.01.517,2.424,2.424,0,0,1-2.145,1.505,2.032,2.032,0,0,1-1.995-1.561.783.783,0,0,1,.086-.533.361.361,0,0,1,.4-.142,1.7,1.7,0,0,1,.792.649A6.294,6.294,0,0,1,106.484,433.552Z" transform="translate(-103.917 -430.61)"/></g></g><g transform="translate(0 154.035)"><g transform="translate(0.01)"><path class="k" d="M226.349,418.377l.517,12.332s-12.361,4.667-12.488,6.955l23.948-.143-.017-19.248Z" transform="translate(-214.377 -418.273)"/></g><g transform="translate(18.733 11.315)"><path class="c" d="M221.415,438.1a.978.978,0,0,1,.683,1.112.939.939,0,0,1-1.1.687,1.032,1.032,0,0,1-.717-1.181.975.975,0,0,1,1.22-.588" transform="translate(-220.25 -438.063)"/></g><g transform="translate(0 17.308)"><g class="l"><path class="m" d="M238.335,450.485l-.078-1.94-22.931.863s-1.063.47-.939,1.22Z" transform="translate(-214.377 -448.545)"/></g></g><g transform="translate(12.109 12.206)"><path class="g" d="M231.269,439.732c0,.117.59.166,1.167.539.587.357.887.862.994.815.107-.023-.071-.722-.778-1.16S231.243,439.625,231.269,439.732Z" transform="translate(-231.268 -439.621)"/></g><g transform="translate(9.603 13.322)"><path class="g" d="M236.69,441.622c-.026.113.482.309.882.8s.518,1.014.635,1.009c.11.018.187-.668-.323-1.27S236.692,441.51,236.69,441.622Z" transform="translate(-236.689 -441.574)"/></g><g transform="translate(7.248 14.372)"><path class="g" d="M242.652,445.423c.106.025.265-.561-.039-1.2s-.852-.89-.9-.792c-.066.1.292.438.533.966S242.536,445.412,242.652,445.423Z" transform="translate(-241.704 -443.41)"/></g><g transform="translate(12.299 9.066)"><path class="g" d="M230.409,434.556c.05.106.585-.058,1.246-.017s1.178.246,1.238.146c.067-.085-.437-.515-1.217-.552S230.351,434.465,230.409,434.556Z" transform="translate(-230.404 -434.129)"/></g><g transform="translate(12.245 5.056)"><path class="g" d="M228.507,429.063a2.239,2.239,0,0,0,1.2-.013,5.389,5.389,0,0,0,1.252-.393,5.654,5.654,0,0,0,.687-.37,1.463,1.463,0,0,0,.36-.284.509.509,0,0,0,.05-.622.642.642,0,0,0-.514-.264,1.542,1.542,0,0,0-.449.065,4.318,4.318,0,0,0-.744.26,4.229,4.229,0,0,0-1.1.732c-.553.518-.74.956-.7.978.053.038.321-.329.885-.758a4.8,4.8,0,0,1,1.066-.609,4.535,4.535,0,0,1,.687-.217c.253-.068.469-.071.535.041.024.043.027.06-.026.135a1.188,1.188,0,0,1-.265.207,6.229,6.229,0,0,1-.631.367,6.668,6.668,0,0,1-1.157.451A8.388,8.388,0,0,0,228.507,429.063Z" transform="translate(-228.507 -427.116)"/></g><g transform="translate(10.81 3.37)"><path class="g" d="M235.635,427.967a1.908,1.908,0,0,0,.309-1.16,3.9,3.9,0,0,0-.172-1.312,3.957,3.957,0,0,0-.309-.727.993.993,0,0,0-.769-.6.56.56,0,0,0-.5.338,1.623,1.623,0,0,0-.121.44,2.671,2.671,0,0,0,0,.808,2.75,2.75,0,0,0,.52,1.236c.472.618.96.755.97.715.039-.059-.37-.282-.732-.876a2.77,2.77,0,0,1-.386-1.125,2.467,2.467,0,0,1,.018-.694c.036-.254.13-.46.226-.435.119,0,.322.188.422.391a3.993,3.993,0,0,1,.3.648,4.308,4.308,0,0,1,.24,1.195C235.694,427.51,235.571,427.95,235.635,427.967Z" transform="translate(-234.046 -424.167)"/></g></g><g transform="translate(8.333 86.102)"><g transform="translate(36.111 1.552)"><path class="g" d="M144.828,374.294l-3.267-52.634c-.591-8.046-1.908-11.716-8.393-14.9l-2.77-1.923-28.815-2.66L99.81,321.456l22.509,5.038,5.9,50.453Z" transform="translate(-99.81 -302.173)"/></g><path class="g" d="M209.183,320.294l-14.377,5.929-3.116,45.845-18.618-2.279,1.136-49.591a13.034,13.034,0,0,1,4.559-9.606l13.017-11.132,19.173,1.552,1.357,19.984Z" transform="translate(-173.072 -299.459)"/><g transform="translate(57.986 19.372)"><path class="j" d="M138.306,333.34a97.133,97.133,0,0,0,1.1,10.693,97.1,97.1,0,0,0-1.1-10.693Z" transform="translate(-138.287 -333.34)"/></g><g transform="translate(60.792 11.109)"><path class="j" d="M113.624,318.889a.873.873,0,0,0,.155.1l.468.273,1.816,1.024L122.771,324l-.056-.088c.314,6.106.742,14.431,1.213,23.6.489,9.409.975,17.925,1.381,24.086l.512,7.293c.069.844.122,1.508.161,1.981l.049.515a.765.765,0,0,0,.027.174.769.769,0,0,0,0-.177c-.005-.133-.011-.3-.02-.516-.025-.475-.061-1.139-.105-1.985-.1-1.744-.242-4.232-.417-7.3-.332-6.182-.789-14.689-1.294-24.088-.477-9.179-.926-17.511-1.3-23.6l0-.06-.052-.028-6.753-3.631-1.843-.974-.483-.246A.818.818,0,0,0,113.624,318.889Z" transform="translate(-113.624 -318.888)"/></g><g transform="translate(21.599 17.229)"><path class="j" d="M203.278,329.593a80.553,80.553,0,0,0-.775,9.759,80.576,80.576,0,0,0,.775-9.759Z" transform="translate(-202.476 -329.593)"/></g><g transform="translate(21.724 21.17)"><path class="j" d="M200.083,342.079a29.935,29.935,0,0,0,2.059-5.593,29.933,29.933,0,0,0-2.059,5.593Z" transform="translate(-200.073 -336.485)"/></g><g transform="translate(7.926 8.498)"><path class="j" d="M216.728,314.323a1.643,1.643,0,0,0-.257.143l-.731.449-2.76,1.739-9.855,6.293-.055.036,0,.066c-.145,5.451-.319,11.977-.505,18.982-.243,9.691-.439,18.464-.556,24.814-.047,3.161-.085,5.725-.112,7.522,0,.873,0,1.558,0,2.046.006.221.011.4.015.532a.8.8,0,0,0,.015.181.839.839,0,0,0,.015-.182c0-.136.009-.311.014-.531.014-.487.033-1.172.058-2.044.049-1.8.119-4.359.206-7.519.165-6.367.392-15.13.643-24.812.169-7.006.327-13.532.459-18.984l-.057.1,9.8-6.382,2.723-1.8.711-.481A1.747,1.747,0,0,0,216.728,314.323Z" transform="translate(-201.891 -314.322)"/></g><g transform="translate(36.137 18.7)"><path class="j" d="M177.13,332.166a6.051,6.051,0,0,0-.979,1.065,3.778,3.778,0,0,0-.8,1.212c.062.053.531-.4,1.034-1.025S177.233,332.221,177.13,332.166Z" transform="translate(-175.343 -332.166)"/></g><g transform="translate(37.884 10.518)"><path class="j" d="M174.467,326.038a56.488,56.488,0,0,0,.5-8.184,56.5,56.5,0,0,0-.5,8.184Z" transform="translate(-174.426 -317.854)"/></g><g transform="translate(38.261 18.499)"><g transform="translate(19.189 4.679)"><path class="j" d="M139.764,340.071c-.019.08.151.19.381.246s.432.037.452-.043-.152-.19-.381-.246S139.783,339.991,139.764,340.071Z" transform="translate(-139.762 -339.996)"/></g><g transform="translate(15.852 3.894)"><path class="j" d="M144.14,338.669c-.019.08.338.236.8.348s.85.138.87.058-.339-.236-.8-.348S144.16,338.589,144.14,338.669Z" transform="translate(-144.14 -338.623)"/></g><g transform="translate(12.515 3.08)"><path class="j" d="M149.977,337.246c-.02.079.338.236.8.348s.85.139.87.059-.338-.236-.8-.348S150,337.166,149.977,337.246Z" transform="translate(-149.977 -337.2)"/></g><g transform="translate(9.177 2.266)"><path class="j" d="M155.814,335.823c-.019.08.338.236.8.348s.85.139.87.059-.338-.236-.8-.348S155.834,335.743,155.814,335.823Z" transform="translate(-155.814 -335.777)"/></g><g transform="translate(5.84 1.453)"><path class="j" d="M161.651,334.4c-.019.08.338.236.8.348s.85.138.87.059-.339-.236-.8-.348S161.671,334.32,161.651,334.4Z" transform="translate(-161.651 -334.354)"/></g><g transform="translate(2.502 0.639)"><path class="j" d="M167.488,332.976c-.019.08.338.236.8.348s.85.138.87.059-.338-.236-.8-.348S167.508,332.9,167.488,332.976Z" transform="translate(-167.488 -332.93)"/></g><path class="j" d="M173.325,331.888c-.02.08.151.19.381.246s.433.037.452-.043-.152-.19-.381-.246S173.344,331.808,173.325,331.888Z" transform="translate(-173.323 -331.813)"/></g><g transform="translate(22.426 18.491)"><g transform="translate(14.468)"><path class="j" d="M175.723,332.088c.021.079.224.1.452.035s.4-.173.377-.252-.222-.1-.453-.036S175.7,332.01,175.723,332.088Z" transform="translate(-175.721 -331.799)"/></g><g transform="translate(11.297 0.706)"><path class="j" d="M179.96,333.573c.026.078.4.029.834-.109s.768-.313.744-.392-.4-.03-.834.109S179.935,333.495,179.96,333.573Z" transform="translate(-179.959 -333.034)"/></g><g transform="translate(8.186 1.76)"><path class="j" d="M185.455,335.5c.031.076.4.006.827-.157s.748-.357.72-.435-.4-.007-.826.157S185.425,335.424,185.455,335.5Z" transform="translate(-185.453 -334.877)"/></g><g transform="translate(5.147 2.992)"><path class="j" d="M190.834,337.74c.035.074.4-.017.816-.2s.726-.4.694-.476-.4.017-.816.2S190.8,337.666,190.834,337.74Z" transform="translate(-190.831 -337.033)"/></g><g transform="translate(2.189 4.401)"><path class="j" d="M196.079,340.286c.039.073.4-.04.8-.252s.7-.442.664-.515-.4.039-.8.252S196.04,340.214,196.079,340.286Z" transform="translate(-196.076 -339.496)"/></g><g transform="translate(0 5.965)"><path class="j" d="M201.171,342.7c.042.07.241.03.445-.09s.335-.275.294-.346-.241-.031-.445.09S201.128,342.633,201.171,342.7Z" transform="translate(-201.163 -342.233)"/></g></g></g><g transform="translate(12.446 32.051)"><g transform="translate(12.131)"><path class="k" d="M192.622,210.632s3.943,18.262.909,25.848-14.767,23.02-14.767,23.02l-8.938-.524s3.224-47.149,3.982-48.1,18.143-5.953,18.143-5.953Z" transform="translate(-169.826 -204.925)"/></g><g transform="translate(0 5.707)"><path class="k" d="M208.9,273.681s-20.779-7.481-22.477-11.709c-4.087-10.18,10.692-44.8,15.407-46.82s7.418,8.958,6.638,12.137a155.221,155.221,0,0,1-8.842,24.654l13.991,9.05Z" transform="translate(-185.714 -214.907)"/></g><g transform="translate(40.728 4.465)"><path class="k" d="M125.212,226.929c.887-3.657,2.384-14.194,2.384-14.194l10.633,5.561c1.888,1.411,6.215,6.335,6.214,11.942,0,10.117-1.435,33.187-3.29,36.293-2.286,3.826-11.957,9.705-11.957,9.705l-6.827-10.5,2.783-2.2c-1.671-3.3-5.379-10.8-5.818-13.288C118.764,247.031,124.489,229.906,125.212,226.929Z" transform="translate(-119.293 -212.735)"/></g><g transform="translate(13.768 21.053)"><path class="g" d="M194.88,241.746a2.178,2.178,0,0,0-.18.371l-.461,1.086-1.646,4.013L187.269,260.5l-1.509,3.807-.046.117.109.062,9.986,5.76,2.951,1.669.8.437a1.5,1.5,0,0,0,.286.136,1.438,1.438,0,0,0-.26-.182l-.775-.48-2.907-1.744-9.935-5.849.062.18,1.515-3.8,5.244-13.315,1.557-4.048.41-1.106A2.129,2.129,0,0,0,194.88,241.746Z" transform="translate(-185.714 -241.746)"/></g><g transform="translate(8.097 43.41)"><path class="g" d="M209.821,284.544a4.516,4.516,0,0,0,.734-.811,10.238,10.238,0,0,1,1.847-1.807,4.576,4.576,0,0,1,2.366-.865c.656-.032,1.055.118,1.07.068a1.8,1.8,0,0,0-1.071-.278,4.287,4.287,0,0,0-2.536.832,8.124,8.124,0,0,0-1.842,1.921A3.649,3.649,0,0,0,209.821,284.544Z" transform="translate(-209.818 -280.848)"/></g><g transform="translate(16.758 5.764)"><path class="g" d="M193.311,215.011a13.912,13.912,0,0,1,1.7.9,9.548,9.548,0,0,1,2.981,3.463,21.185,21.185,0,0,1,1.582,4.361,14.612,14.612,0,0,0,.533,1.866,1.784,1.784,0,0,0-.055-.521c-.055-.331-.144-.808-.273-1.4a18,18,0,0,0-1.523-4.45,9.05,9.05,0,0,0-3.129-3.5,5.9,5.9,0,0,0-1.3-.612A1.533,1.533,0,0,0,193.311,215.011Z" transform="translate(-193.311 -215.006)"/></g><g transform="translate(51.68 23.634)"><path class="g" d="M131.1,271.8a.927.927,0,0,0,.1-.251l.244-.736.843-2.723c.7-2.3,1.645-5.489,2.672-9.014s1.942-6.723,2.59-9.041l.752-2.75.19-.752a.933.933,0,0,0,.047-.268.954.954,0,0,0-.1.251l-.244.735c-.213.689-.5,1.608-.843,2.723-.7,2.3-1.646,5.491-2.674,9.018s-1.942,6.722-2.59,9.04l-.752,2.75c-.075.3-.138.546-.19.752A.961.961,0,0,0,131.1,271.8Z" transform="translate(-131.096 -246.261)"/></g><g transform="translate(41.362 5.824)"><path class="g" d="M154.47,215.111a2.192,2.192,0,0,0-.066.412c-.034.3-.079.694-.134,1.185-.107,1.064-.255,2.547-.437,4.365-.346,3.717-.82,8.8-1.344,14.408-.1.993-.205,1.969-.3,2.921l.073-.111-3.239,1.865-.159.091.129.129,1.9,1.911-.026-.149c-.351.744-.7,1.459-1.074,2.1a21.165,21.165,0,0,1-1.216,1.752c-.819,1.067-1.61,1.941-2.272,2.654l-1.559,1.639-.411.436a.8.8,0,0,0-.131.16.749.749,0,0,0,.161-.13l.439-.407c.38-.361.933-.893,1.615-1.59a33.456,33.456,0,0,0,2.331-2.628A20.82,20.82,0,0,0,150,244.367c.391-.658.744-1.368,1.1-2.117l.04-.082-.066-.066-1.892-1.923-.03.221,3.245-1.854.065-.037.008-.074c.1-.953.2-1.931.308-2.925.533-5.628.949-10.727,1.258-14.418.143-1.822.259-3.307.342-4.373.033-.493.058-.889.078-1.19A2.133,2.133,0,0,0,154.47,215.111Z" transform="translate(-144.205 -215.111)"/></g><g transform="translate(23.946 48.425)"><g transform="translate(0)"><g transform="translate(11.048)"><path class="j" d="M137.049,296.561l5.221-6.942,12.453,1.859.283.808L141.848,308.24l-11.274-2.177Z" transform="translate(-130.574 -289.62)"/><g transform="translate(0 0.808)"><path class="j" d="M137.332,297.975l5.221-6.942,12.453,1.859-12.875,16.762-10.9-2.249-.655-.736Z" transform="translate(-130.574 -291.033)"/></g><g transform="translate(16.163 3.715)"><path class="f" d="M143.775,297.3a.632.632,0,1,1,.228-.865A.632.632,0,0,1,143.775,297.3Z" transform="translate(-142.824 -296.118)"/></g></g><g transform="translate(0 4.528)"><path class="h" d="M151.033,298.074l4.686,1.292a6.909,6.909,0,0,1,5.7-1.751l1.72.257.977,1.5s8.368,1.624,8.523,2.709l-.043.337-.025.2-7.276-.591s6.131.9,6.5.964c.4.075,1.726.153,1.591.868-.11.588-.879.949-1.962.946-.445,0-5.822-.333-5.822-.333s5.581.779,5.851.818c.655.095.416,1.133.007,1.206-.323.058-8.133,1.125-8.133,1.125a4.592,4.592,0,0,0,2.17,1.112c1.038.08,3-.978,3.27-.3s.145,1.034-.1,1.149a26.566,26.566,0,0,1-3.69,1.1c-.84.1-8.8-2.026-8.8-2.026l-8.47-1.512Z" transform="translate(-147.708 -297.539)"/></g><g transform="translate(22.944 5.353)"><g transform="translate(0.588)"><path class="h" d="M143.082,298.982s1.118.648.205,2.223a14.434,14.434,0,0,1-3.268,3.79,1.551,1.551,0,0,1-.742,1.421s.888.369.079,1.839a1.773,1.773,0,0,1-1.44,2.142s.263,1.4-1.5,1.779a3.978,3.978,0,0,1-3.217-.953Z" transform="translate(-133.196 -298.982)"/></g><g transform="translate(1.743 5.79)"><path class="h" d="M145.67,309.109c-1.231.142-2.569.2-3.726.455-.381.083-.739.037-1.023.3a.831.831,0,0,0-.178,1.053,1.163,1.163,0,0,0,.934.338,17.181,17.181,0,0,0,3.821-.469" transform="translate(-140.622 -309.109)"/></g><g transform="translate(0.976 7.695)"><path class="h" d="M147.012,312.44c-1.231.143-2.569.2-3.726.456-.381.083-.739.037-1.023.3a.831.831,0,0,0-.178,1.053,1.159,1.159,0,0,0,.934.338,17.181,17.181,0,0,0,3.821-.469" transform="translate(-141.964 -312.44)"/></g><g transform="translate(0 9.627)"><path class="h" d="M148.72,315.82c-1.232.142-2.57.2-3.727.455-.381.083-.739.037-1.023.3a.832.832,0,0,0-.178,1.053,1.163,1.163,0,0,0,.934.338,17.221,17.221,0,0,0,3.821-.469" transform="translate(-143.671 -315.82)"/></g><g transform="translate(2.575 7.49)"><path class="i" d="M145.026,312.093c-.012-.053-.891.116-1.983.25s-1.985.191-1.984.245a10.664,10.664,0,0,0,3.967-.5Z" transform="translate(-141.059 -312.083)"/></g><g transform="translate(1.991 9.267)"><path class="i" d="M145.64,315.2c-.011-.053-1.015.122-2.258.292s-2.257.277-2.253.33a15.567,15.567,0,0,0,4.511-.622Z" transform="translate(-141.129 -315.19)"/></g><g transform="translate(1.217 11.382)"><path class="i" d="M147.246,318.909a23.657,23.657,0,0,0-4.173.4,23.506,23.506,0,0,0,4.173-.4Z" transform="translate(-143.073 -318.889)"/></g><g transform="translate(2.843 5.686)"><path class="h" d="M143.807,308.936c-.011-.054-1.113.145-2.482.287s-2.488.182-2.488.236a2.605,2.605,0,0,0,.735.049,18.025,18.025,0,0,0,3.526-.372A2.672,2.672,0,0,0,143.807,308.936Z" transform="translate(-138.837 -308.927)"/></g></g><g transform="translate(13.353 5.963)"><path class="i" d="M164.851,300.972a47.675,47.675,0,0,0-5.907-.914,48,48,0,0,0,5.907.914Z" transform="translate(-158.944 -300.049)"/></g></g><g transform="translate(18.799 0.747)"><path class="g" d="M130.574,296.608s.118-.14.321-.408l.864-1.158,2.953-4.021-.054.023,2.855.424,6.886,1,2.089.289.568.073a1.3,1.3,0,0,0,.2.018,1.154,1.154,0,0,0-.2-.041l-.565-.095-2.083-.326-6.881-1.034-2.856-.419-.034-.005-.02.028L131.7,295l-.837,1.178C130.671,296.453,130.574,296.608,130.574,296.608Z" transform="translate(-130.574 -290.926)"/></g></g><g class="n" transform="translate(13.95 24.403)"><path d="M202.092,272.966a3.7,3.7,0,0,0-2.5-2.735c-1.3-.543-2.746-1.042-3.5-2.232-.947-1.5-.413-3.443.017-5.163.844-3.382,2.949-11.753,2.722-15.231l-7.449,19.263Z" transform="translate(-191.384 -247.605)"/></g><g class="n" transform="translate(26.682 17.104)"><path d="M175.238,263.681a2.664,2.664,0,0,1-.641-1.926,9.353,9.353,0,0,1,.385-2.043,51,51,0,0,0,1.044-7.828c.2-2.129.46-3.908.445-3.766,0,0,1.69-.887,2.739-1.44a6.338,6.338,0,0,1-1.511-1.119s.571-1.859.683-2.422c0,0,1.244-6.276,1.579-8.3l-.146,8.865,2.355,3.673-3.787,1.34L175.9,262.671Z" transform="translate(-174.596 -234.839)"/></g><g transform="translate(27.898 0.529)"><path class="g" d="M174.2,250.378a1.255,1.255,0,0,0,.1-.252c.058-.17.16-.417.254-.751a20.09,20.09,0,0,0,.635-2.919c.2-1.268.31-2.812.541-4.551a24.1,24.1,0,0,1,.523-2.728c.119-.472.27-.947.432-1.429l.476-1.5-.034.058a3.307,3.307,0,0,1,.765-.366c.283-.108.576-.2.871-.3.593-.189,1.2-.366,1.826-.534l.19-.051-.106-.166-2.351-3.675.023.067c-.029-.483-.059-1-.09-1.519-.09-3.321.192-6.488.357-9.372a56.914,56.914,0,0,0,.067-7.682,21.082,21.082,0,0,0-.936-5.093,5.285,5.285,0,0,0-.276-.766l-.231-.55a2.953,2.953,0,0,0-.208-.445,3.068,3.068,0,0,0,.152.468c.058.159.125.344.2.557a5.614,5.614,0,0,1,.248.77,22.307,22.307,0,0,1,.837,5.073,59.785,59.785,0,0,1-.131,7.651c-.18,2.879-.472,6.05-.381,9.4.031.526.062,1.047.091,1.534l0,.035.021.033,2.358,3.67.084-.217c-.627.172-1.239.352-1.836.544-.3.1-.594.2-.884.308a3.231,3.231,0,0,0-.86.433l-.022.017-.013.041-.464,1.493c-.161.491-.31.974-.428,1.454a23.715,23.715,0,0,0-.5,2.76c-.214,1.752-.308,3.294-.479,4.558a23.1,23.1,0,0,1-.556,2.918c-.081.336-.169.587-.212.761A1.263,1.263,0,0,0,174.2,250.378Z" transform="translate(-174.198 -205.851)"/></g><g transform="translate(32.49 41.401)"><path class="g" d="M161.909,277.335a1.974,1.974,0,0,0-.055.59,8.53,8.53,0,0,0,.135,1.61,9.735,9.735,0,0,0,6.744,7.646,8.5,8.5,0,0,0,1.58.335,1.986,1.986,0,0,0,.592.019c.008-.057-.838-.112-2.107-.554a10.062,10.062,0,0,1-6.6-7.487C161.915,278.181,161.966,277.334,161.909,277.335Z" transform="translate(-161.852 -277.335)"/></g></g></g><g transform="translate(158.998 -5.004)"><g transform="translate(2.001 2.003)"><g transform="translate(0 50)"><path class="o" d="M35.754,52H8.252A6.258,6.258,0,0,1,2,45.747V42H42v3.75A6.258,6.258,0,0,1,35.754,52ZM4.5,44.5v1.25a3.754,3.754,0,0,0,3.75,3.75h27.5a3.754,3.754,0,0,0,3.75-3.75V44.5Z" transform="translate(-2.001 -41.997)"/></g><path class="o" d="M42,12H2V8.3a6.26,6.26,0,0,1,6.239-6.25L35.743,2h.012A6.25,6.25,0,0,1,42,8.254ZM4.5,9.5h35V8.254a3.75,3.75,0,0,0-3.75-3.75h-.007l-27.5.049A3.756,3.756,0,0,0,4.5,8.3Z" transform="translate(-2.001 -2.003)"/><g transform="translate(27.498 15)"><path class="o" d="M29.282,43.988a1.27,1.27,0,0,1-.342-.048,1.245,1.245,0,0,1-.907-1.193V36.5h-.284A3.754,3.754,0,0,1,24,32.752v-15A3.754,3.754,0,0,1,27.749,14h25a3.754,3.754,0,0,1,3.75,3.75v15a3.754,3.754,0,0,1-3.75,3.75H35.573c-4.521,5.887-5.141,6.768-5.223,6.9A1.27,1.27,0,0,1,29.282,43.988ZM27.749,16.5a1.251,1.251,0,0,0-1.25,1.25v15A1.251,1.251,0,0,0,27.749,34h1.534a1.25,1.25,0,0,1,1.25,1.25v3.723c.815-1.071,1.923-2.52,3.433-4.485A1.251,1.251,0,0,1,34.957,34H52.751A1.251,1.251,0,0,0,54,32.752v-15a1.251,1.251,0,0,0-1.25-1.25Z" transform="translate(-23.999 -14)"/></g><g transform="translate(0 7.492)"><path class="o" d="M42,53.005H2V8H42V18H33.251A1.251,1.251,0,0,0,32,19.254v15a1.251,1.251,0,0,0,1.25,1.25h2.783v4.974c.815-1.071,1.923-2.52,3.433-4.486l.375-.488H42ZM4.5,50.5h35V40.056c-3.1,4.055-3.582,4.736-3.653,4.85L33.544,48.55l-.01-10.543h-.283a3.755,3.755,0,0,1-3.75-3.751v-15a3.755,3.755,0,0,1,3.75-3.751H39.5V10.5H4.5Z" transform="translate(-2.001 -7.997)"/></g><g transform="translate(35 21.245)"><path class="o" d="M46.25,21.5h-15a1.25,1.25,0,1,1,0-2.5h15a1.25,1.25,0,0,1,0,2.5Z" transform="translate(-29.999 -18.997)"/></g><g transform="translate(35 28.746)"><path class="o" d="M46.25,27.5h-15a1.25,1.25,0,1,1,0-2.5h15a1.25,1.25,0,1,1,0,2.5Z" transform="translate(-29.999 -24.997)"/></g></g></g></g></svg>