<svg xmlns="http://www.w3.org/2000/svg" width="277.806" height="178.714" viewBox="0 0 277.806 178.714"><defs><style>.a{opacity:0.4;}.b{fill:#b9cad2;opacity:0.2;}.c{fill:#ccdce0;}.d{fill:#f7f6f0;}.e{fill:#fff;}.f{fill:#d1d3d4;}.g{fill:#c98a65;}.h{fill:#ad6e49;}.i{fill:#f7b690;}.j{fill:#a6b3bf;}.k{fill:#bccace;}.l{fill:#4266b2;}.m{fill:#f35267;}.n{fill:#222b54;}.o{fill:#c92a3f;}.p{fill:#3e609c;}.q{fill:#4f74b5;}.r{fill:#2c3e50;}.s{fill:#0a3c5f;}.t{fill:#e38536;}.u{fill:#375594;}.v{fill:#f7913b;}.w{fill:#f7a677;}.x{fill:#ccc;}.y{fill:#d5e5fd;}</style></defs><g class="a" transform="translate(-1067.894 -117.34)"><g transform="translate(1067.894 224.498)"><path class="b" d="M1097.422,455.212v-9.555h11.437v-6.963h20.015V418.6h11.658v18.306h18.6V406.72h8.425v8.506h32.692v23.113h18.692V422.2h33.573v6.3h10.31v9.841h18.439v9.195h9.772V433.517h7.115v11.962h34.208v7.337H1345.7v8.01H1067.894v-5.615Z" transform="translate(-1067.894 -405.501)"/><g transform="translate(13.776 0)"><path class="c" d="M1212.937,509.685c-5.654-.632-7.682,3.9-9.742,5.469-1.273.969-3.228,1.379-4.405.3-1.242-1.143-1.274-3.575-2.921-3.944-2.18-.489-11.217,13.305-11.383,13.686h53.039C1237.4,524.817,1220.367,510.515,1212.937,509.685Z" transform="translate(-1154.596 -469.866)"/><path class="c" d="M1508.372,519.962c-5.8,0-8.107,6.182-12.232,6.182-3.262,0-2.507-2.816-7.507-2.816-4.378,0-8.764,8.33-14.218,8.33h58.964C1523.495,531.658,1514.474,519.962,1508.372,519.962Z" transform="translate(-1335.943 -476.332)"/><g transform="translate(13.323)"><path class="c" d="M1142.23,438.152c.423-2.074,1.232-4.108,1.148-6.224-.165-4.181-3.782-7.912-3.022-12.026.77-4.17,5.641-6.444,6.935-10.482.406-1.266.431-2.641.933-3.872s1.749-2.344,3.041-2.03c1.479.36,1.954,2.19,2.156,3.7q.744,5.552,1.488,11.1c.5,3.745,1,7.494,1.268,11.264.2,2.864.264,5.736.327,8.606q.07,3.213.14,6.426a9.245,9.245,0,0,1-.491,3.954c-1.575,3.573-7.839,4.685-10.936,2.513C1141.675,448.6,1141.474,441.859,1142.23,438.152Z" transform="translate(-1140.25 -403.464)"/><g transform="translate(9.027 20.058)"><rect class="d" width="0.375" height="35.268"/></g><g transform="translate(5.053 20.81)"><path class="d" d="M1157.9,463.453l-4.158-4.158.265-.265,3.893,3.893,2.174-2.174.265.265Z" transform="translate(-1153.741 -459.03)"/></g><g transform="translate(6.029 29.95)"><path class="d" d="M1159.347,488.955l-3-3,.265-.265,2.735,2.735,4.991-4.991.265.265Z" transform="translate(-1156.348 -483.434)"/></g><g transform="translate(9.082 38.68)"><rect class="d" width="4.559" height="0.374" transform="translate(0 3.224) rotate(-45)"/></g></g><g transform="translate(0 26.456)"><path class="c" d="M1107.743,483.161a14.207,14.207,0,0,1,1.667-6.166,5.557,5.557,0,0,1,5.369-2.831q1.3,5.566,2.6,11.132a42.219,42.219,0,0,1,1.215,6.9c.332,5.258-2.646,8.751-8.071,8.333-4.534-.349-7.045-3.812-5.282-8.123A30.537,30.537,0,0,0,1107.743,483.161Z" transform="translate(-1104.677 -474.104)"/><g transform="translate(6.785 9.135)"><rect class="d" width="0.375" height="19.735"/></g><g transform="translate(2.381 17.741)"><path class="d" d="M1115.6,526.3l-4.562-4.561.265-.265,4.3,4.3,3.222-3.222.265.265Z" transform="translate(-1111.034 -521.474)"/></g><g transform="translate(4.961 11.77)"><path class="d" d="M1120.028,509.748l-2.106-2.106.265-.265,1.841,1.841,3.688-3.688.265.265Z" transform="translate(-1117.922 -505.531)"/></g></g><g transform="translate(190.526 20.194)"><path class="c" d="M1614.482,481.043c-.229-2.089,1.525-4.049,1.185-6.122-.509-3.106-4.661-3.973-.263-9.184,2.138-2.534,3.1-8.351,6.416-8.351,6.228,0,4.313,11.283,4.359,11.658.423,3.412,3.337,6.113,3.8,9.52C1631.394,489.054,1615.159,487.225,1614.482,481.043Z" transform="translate(-1613.404 -457.386)"/><g transform="translate(8.143 10.67)"><rect class="d" width="0.375" height="24.461"/></g><g transform="translate(3.732 11.369)"><path class="d" d="M1627.861,492.5l-4.492-4.492.265-.265,4.227,4.228,1.972-1.972.265.265Z" transform="translate(-1623.369 -487.744)"/></g><g transform="translate(5.462 18.161)"><path class="d" d="M1630.906,510.347l-2.919-2.919.265-.265,2.654,2.654,3.939-3.939.265.265Z" transform="translate(-1627.987 -505.878)"/></g></g><g transform="translate(229.947 33.78)"><path class="c" d="M1719.5,501.338a7.421,7.421,0,0,0,.8-2.678,15.943,15.943,0,0,0-.62-2.657c-.162-.9.12-2.029.994-2.289,1.055-.314,1.933.83,2.407,1.823a41.077,41.077,0,0,1,3.406,10.693c.289,1.675.345,3.8-1.449,4.63a5.2,5.2,0,0,1-4.449-.479C1717.914,508.593,1718.512,503.84,1719.5,501.338Z" transform="translate(-1718.664 -493.661)"/><g transform="translate(3.799 6.531)"><rect class="d" width="0.375" height="15.015"/></g><g transform="translate(1.954 9.672)"><path class="d" d="M1725.98,521.848l-2.1-2.1.265-.265,1.833,1.834,1.056-1.056.265.265Z" transform="translate(-1723.882 -519.485)"/></g></g></g></g><g transform="translate(1095.927 117.34)"><path class="b" d="M1376.244,584.971h-202.23a2.861,2.861,0,1,1,0-5.723h202.23a2.861,2.861,0,0,1,0,5.723Z" transform="translate(-1160.513 -406.257)"/><g transform="translate(206.528 60.541)"><g transform="translate(12.688 22.941)"><path class="e" d="M1728.456,343.43a.374.374,0,0,1-.374-.374v-2.435a.375.375,0,0,1,.749,0v2.435A.375.375,0,0,1,1728.456,343.43Z" transform="translate(-1728.081 -340.246)"/></g><g transform="translate(15.342 22.592)"><path class="e" d="M1736.171,342.415a.375.375,0,0,1-.362-.277l-.63-2.352a.375.375,0,0,1,.724-.194l.63,2.352a.374.374,0,0,1-.362.472Z" transform="translate(-1735.166 -339.314)"/></g><g transform="translate(17.814 21.567)"><path class="e" d="M1743.361,339.436a.375.375,0,0,1-.325-.187l-1.218-2.109a.375.375,0,0,1,.649-.374l1.218,2.109a.374.374,0,0,1-.324.562Z" transform="translate(-1741.768 -336.578)"/></g><g transform="translate(19.938 19.938)"><path class="e" d="M1749.535,334.7a.373.373,0,0,1-.265-.11l-1.721-1.722a.375.375,0,0,1,.53-.53l1.721,1.722a.375.375,0,0,1-.265.639Z" transform="translate(-1747.438 -332.228)"/></g><g transform="translate(21.567 17.815)"><path class="e" d="M1754.272,328.524a.371.371,0,0,1-.187-.05l-2.109-1.218a.375.375,0,1,1,.375-.649l2.109,1.218a.374.374,0,0,1-.187.7Z" transform="translate(-1751.789 -326.558)"/></g><g transform="translate(22.592 15.342)"><path class="e" d="M1757.252,321.335a.38.38,0,0,1-.1-.013l-2.352-.63a.374.374,0,0,1,.194-.723l2.353.63a.375.375,0,0,1-.1.737Z" transform="translate(-1754.525 -319.955)"/></g><g transform="translate(22.941 12.688)"><path class="e" d="M1758.267,313.619h-2.435a.375.375,0,0,1,0-.749h2.435a.375.375,0,1,1,0,.749Z" transform="translate(-1755.457 -312.87)"/></g><g transform="translate(22.592 9.404)"><path class="e" d="M1754.9,305.481a.375.375,0,0,1-.1-.737l2.352-.63a.374.374,0,1,1,.194.723l-2.353.63A.377.377,0,0,1,1754.9,305.481Z" transform="translate(-1754.525 -304.102)"/></g><g transform="translate(21.567 6.344)"><path class="e" d="M1752.164,297.9a.375.375,0,0,1-.188-.7l2.109-1.217a.374.374,0,1,1,.374.649l-2.109,1.218A.373.373,0,0,1,1752.164,297.9Z" transform="translate(-1751.789 -295.93)"/></g><g transform="translate(19.938 3.716)"><path class="e" d="M1747.813,291.385a.375.375,0,0,1-.265-.639l1.721-1.722a.374.374,0,0,1,.53.53l-1.721,1.722A.375.375,0,0,1,1747.813,291.385Z" transform="translate(-1747.438 -288.914)"/></g><g transform="translate(17.814 1.7)"><path class="e" d="M1742.142,286.388a.375.375,0,0,1-.324-.562l1.218-2.109a.375.375,0,0,1,.649.374l-1.218,2.109A.375.375,0,0,1,1742.142,286.388Z" transform="translate(-1741.768 -283.53)"/></g><g transform="translate(15.342 0.433)"><path class="e" d="M1735.541,283.248a.367.367,0,0,1-.1-.013.375.375,0,0,1-.265-.459l.63-2.352a.374.374,0,0,1,.724.194l-.63,2.352A.374.374,0,0,1,1735.541,283.248Z" transform="translate(-1735.166 -280.146)"/></g><g transform="translate(12.688)"><path class="e" d="M1728.456,282.175a.374.374,0,0,1-.374-.375v-2.435a.375.375,0,1,1,.749,0V281.8A.375.375,0,0,1,1728.456,282.175Z" transform="translate(-1728.081 -278.991)"/></g><g transform="translate(9.404 0.433)"><path class="e" d="M1720.317,283.247a.375.375,0,0,1-.361-.278l-.63-2.352a.374.374,0,0,1,.723-.194l.63,2.352a.375.375,0,0,1-.362.472Z" transform="translate(-1719.313 -280.146)"/></g><g transform="translate(6.344 1.7)"><path class="e" d="M1712.734,286.388a.375.375,0,0,1-.325-.187l-1.217-2.109a.375.375,0,0,1,.649-.374l1.218,2.109a.375.375,0,0,1-.324.562Z" transform="translate(-1711.141 -283.53)"/></g><g transform="translate(3.716 3.716)"><path class="e" d="M1706.221,291.385a.374.374,0,0,1-.265-.11l-1.722-1.722a.374.374,0,0,1,.53-.53l1.722,1.722a.375.375,0,0,1-.265.639Z" transform="translate(-1704.125 -288.914)"/></g><g transform="translate(1.7 6.344)"><path class="e" d="M1701.224,297.9a.372.372,0,0,1-.187-.05l-2.109-1.218a.374.374,0,1,1,.374-.649l2.109,1.217a.375.375,0,0,1-.187.7Z" transform="translate(-1698.741 -295.93)"/></g><g transform="translate(0.432 9.404)"><path class="e" d="M1698.084,305.481a.383.383,0,0,1-.1-.013l-2.352-.63a.374.374,0,0,1,.194-.723l2.352.63a.375.375,0,0,1-.1.737Z" transform="translate(-1695.357 -304.102)"/></g><g transform="translate(0 12.688)"><path class="e" d="M1697.012,313.619h-2.435a.375.375,0,0,1,0-.749h2.435a.375.375,0,0,1,0,.749Z" transform="translate(-1694.202 -312.87)"/></g><g transform="translate(0.432 15.342)"><path class="e" d="M1695.731,321.335a.375.375,0,0,1-.1-.737l2.352-.63a.375.375,0,1,1,.194.723l-2.352.63A.376.376,0,0,1,1695.731,321.335Z" transform="translate(-1695.357 -319.955)"/></g><g transform="translate(1.7 17.815)"><path class="e" d="M1699.116,328.524a.374.374,0,0,1-.188-.7l2.109-1.218a.374.374,0,1,1,.374.649l-2.109,1.218A.37.37,0,0,1,1699.116,328.524Z" transform="translate(-1698.741 -326.558)"/></g><g transform="translate(3.716 19.938)"><path class="e" d="M1704.5,334.7a.375.375,0,0,1-.265-.639l1.722-1.722a.375.375,0,0,1,.53.53l-1.722,1.722A.372.372,0,0,1,1704.5,334.7Z" transform="translate(-1704.125 -332.228)"/></g><g transform="translate(6.344 21.567)"><path class="e" d="M1711.515,339.436a.374.374,0,0,1-.324-.562l1.217-2.109a.375.375,0,1,1,.649.374l-1.218,2.109A.375.375,0,0,1,1711.515,339.436Z" transform="translate(-1711.141 -336.578)"/></g><g transform="translate(9.404 22.592)"><path class="e" d="M1719.688,342.415a.383.383,0,0,1-.1-.013.375.375,0,0,1-.265-.459l.63-2.352a.375.375,0,0,1,.724.194l-.63,2.352A.374.374,0,0,1,1719.688,342.415Z" transform="translate(-1719.313 -339.314)"/></g></g><g transform="translate(76.072 105.748)"><g transform="translate(0 9.747)"><g transform="translate(0 0)"><rect class="f" width="59.47" height="1.498" transform="matrix(0.126, -0.992, 0.992, 0.126, 0, 58.996)"/></g><g transform="translate(89.76 0)"><rect class="f" width="1.498" height="59.47" transform="translate(0 0.189) rotate(-7.236)"/></g></g><rect class="g" width="91.603" height="7.934" transform="translate(3.567 1.908)"/><g transform="translate(5.627 3.967)"><path class="h" d="M1448.375,414.106h-87.483v-3.814h87.483Zm-87.109-.375H1448v-3.065h-86.734Z" transform="translate(-1360.892 -410.292)"/></g><path class="i" d="M1444.108,401.607h-95.466a.954.954,0,0,1,0-1.908h95.466a.954.954,0,0,1,0,1.908Z" transform="translate(-1347.006 -399.699)"/><g transform="translate(49.181 4.013)"><rect class="h" width="0.375" height="3.581"/></g><g transform="translate(25.504 5.081)"><circle class="i" cx="0.793" cy="0.793" r="0.793"/><g transform="translate(46.143)"><path class="i" d="M1538.759,414.06a.793.793,0,1,1-.793-.793A.793.793,0,0,1,1538.759,414.06Z" transform="translate(-1537.173 -413.267)"/></g></g></g><g transform="translate(91.664 54.042)"><rect class="j" width="40.995" height="58.956" rx="5.227" transform="translate(58.956 0) rotate(90)"/><path class="k" d="M1462.859,377.6V366.221h-9.676v11.946a.562.562,0,0,0,.562.562h19.937a.562.562,0,0,0,0-1.124Z" transform="translate(-1428.584 -327.053)"/><path class="j" d="M1452.32,377.6V366.221H1451.2v11.946a.562.562,0,0,0,.562.562h11.384a.562.562,0,0,0,0-1.124Z" transform="translate(-1427.342 -327.053)"/><rect class="k" width="40.995" height="58.956" rx="5.227" transform="translate(60.08 0) rotate(90)"/><rect class="l" width="54.462" height="34.628" transform="translate(3.371 2.247)"/><path class="d" d="M1468.715,364.241a.74.74,0,1,1-.74-.74A.74.74,0,0,1,1468.715,364.241Z" transform="translate(-1437.374 -325.352)"/><path class="j" d="M1463.493,372.072l-9.3.749V371.1h9.3Z" transform="translate(-1429.218 -330.106)"/><g transform="translate(9.008 10.282)"><path class="d" d="M1454.366,289.841h-42.438a.375.375,0,0,1,0-.749h42.438a.375.375,0,1,1,0,.749Z" transform="translate(-1411.553 -289.092)"/><g transform="translate(0 4.453)"><path class="d" d="M1454.366,301.73h-42.438a.375.375,0,0,1,0-.749h42.438a.375.375,0,1,1,0,.749Z" transform="translate(-1411.553 -300.981)"/></g><g transform="translate(0 8.905)"><path class="d" d="M1454.366,313.619h-42.438a.375.375,0,0,1,0-.749h42.438a.375.375,0,1,1,0,.749Z" transform="translate(-1411.553 -312.87)"/></g><g transform="translate(0 13.358)"><path class="d" d="M1454.366,325.508h-42.438a.374.374,0,0,1,0-.749h42.438a.374.374,0,1,1,0,.749Z" transform="translate(-1411.553 -324.759)"/></g><g transform="translate(0 17.81)"><path class="d" d="M1434.559,337.4h-22.632a.375.375,0,0,1,0-.749h22.632a.375.375,0,0,1,0,.749Z" transform="translate(-1411.553 -336.647)"/></g></g></g><g transform="translate(98.495 25.134)"><path class="m" d="M1428.949,184.451,1405.74,190.9l2.215,27.452a25.436,25.436,0,0,0,11.561,19.326l9.433,6.088,9.433-6.088a25.435,25.435,0,0,0,11.561-19.326l2.215-27.452Z" transform="translate(-1405.74 -184.451)"/><g transform="translate(1.195 1.166)"><path class="d" d="M1430.944,244.377l-8.824-5.7a24.456,24.456,0,0,1-11.05-18.473l-2.14-26.528,22.014-6.117.1.028,21.914,6.089-2.14,26.528a24.46,24.46,0,0,1-11.05,18.473Zm-8.419-6.324,8.419,5.433,8.418-5.433a23.7,23.7,0,0,0,10.709-17.9l2.09-25.911-21.218-5.9-21.218,5.9,2.09,25.911a23.705,23.705,0,0,0,10.709,17.9Z" transform="translate(-1408.93 -187.565)"/></g><circle class="d" cx="11.551" cy="11.551" r="11.551" transform="translate(9.34 36.195) rotate(-76.894)"/><g transform="translate(15.305 22.715)"><path class="l" d="M1453.386,255.372a.373.373,0,0,1-.265-.11l-6.406-6.406a.374.374,0,0,1,.529-.53l6.141,6.141,9.255-9.255a.375.375,0,1,1,.53.53l-9.52,9.519A.373.373,0,0,1,1453.386,255.372Z" transform="translate(-1446.606 -245.104)"/></g></g><g transform="translate(119.305 101.78)"><path class="f" d="M1504.485,390.96l-13.828-1.844a1.126,1.126,0,0,0-.127,0c0-.006-26.676-.006-26.676-.006v3.967h40.491a1.061,1.061,0,0,0,.14-2.113Z" transform="translate(-1462.9 -389.106)"/><path class="j" d="M1476.336,390.96l-13.828-1.844a1.062,1.062,0,0,0-1.2,1.052v1.844a1.062,1.062,0,0,0,1.062,1.061H1476.2a1.061,1.061,0,0,0,.141-2.113Z" transform="translate(-1461.306 -389.106)"/></g><g transform="translate(126.77 54.803)"><rect class="i" width="3.665" height="6.49" transform="translate(17.909 110.304)"/><rect class="i" width="3.665" height="6.49" transform="matrix(0.923, -0.385, 0.385, 0.923, 40.623, 109.092)"/><path class="n" d="M1586.687,560.395a.506.506,0,0,0-.833-.023l-.432.588a.506.506,0,0,1-.524.193l-1.45-.341a1.326,1.326,0,0,0-1.3.42c-.526.6.054,2.44-1.212,3.95a11.287,11.287,0,0,1-3.2,2.592l-1.06.587a.506.506,0,0,0,.233.949l.8.019a7.409,7.409,0,0,0,3.028-.569l4.458-1.86.677-2.867,1.234,2.07,1.026-.428a.506.506,0,0,0,.229-.743Z" transform="translate(-1540.767 -449.123)"/><path class="o" d="M1569.493,425.977l-27.572,9.036,17.729,39.778,4.46-1.36c-3.113-11.538-4.948-20.528-7.116-28.124,4.574-.273,9.486-.727,14.424-1.281,6.455,0,11.687-6.668,11.687-14.893v-1.049Z" transform="translate(-1519.194 -365.191)"/><path class="m" d="M1549.057,425.977c-11.367,2.382-23.1,5.427-35.136,9.036l5.355,41.871h4.663c.45-12.5,1.546-22.575,1.406-31.322,7.822-.131,19.352-.727,28.559-1.537,8.225,0,12.5-5.737,12.5-14.893v-1.049Z" transform="translate(-1501.681 -365.191)"/><rect class="i" width="5.175" height="10.713" transform="translate(54.252 22.848) rotate(180)"/><path class="i" d="M1611.191,280.961l-1.326,2.795a3.91,3.91,0,0,1-2.629,2.128l-.5.12a3.91,3.91,0,0,1-4.814-3.8v-5.644a3.91,3.91,0,0,1,3.91-3.91h1.735a3.91,3.91,0,0,1,3.9,3.61l.1,2.729A3.911,3.911,0,0,1,1611.191,280.961Z" transform="translate(-1556.722 -269.284)"/><path class="p" d="M1605.818,382.717l-.407,2.545a60.046,60.046,0,0,0,21.2,4.92l-3.143-6.55Z" transform="translate(-1558.906 -338.132)"/><path class="p" d="M1622.537,330.4a171.183,171.183,0,0,0,7.866,22.949l6.9,2.273c-.4-8.225-2.623-21.781-7.769-28.072Z" transform="translate(-1569.618 -303.627)"/><path class="q" d="M1612.864,362.212h-23.877a2.23,2.23,0,0,1-.971-.222,1.621,1.621,0,0,1-.775-2.328l5.023-10.343c-.379-7.194-4.577-14.515-2.871-26.075,5.975-3.05,12.741-3.808,17.914,0C1616.307,335.188,1606.31,350.048,1612.864,362.212Z" transform="translate(-1547.393 -299.319)"/><path class="p" d="M1596.735,362.519l4.61-6.758L1598,368.249Z" transform="translate(-1553.48 -321.272)"/><path class="r" d="M1608.27,274.361a11.449,11.449,0,0,0,.755-3.134c.424-2.955-.259-4.449-3.4-4.158-2.732.254-2.852-.173-4.178-1.545a5.83,5.83,0,0,0-3.479-1.827c-3.477-.376-5.264,3.159-3.517,5.124,1.407,1.582,3.993,1.023,5.794,1.368,2.64.5,2.62,2.3,2.866,3.067.576,1.8,1.86,4.512,2.767,4.512C1606.354,277.767,1607.977,275.009,1608.27,274.361Z" transform="translate(-1551.628 -263.67)"/><path class="s" d="M1518.559,567.153a.506.506,0,0,0-.759-.343l-.624.377a.507.507,0,0,1-.559-.023l-1.207-.874a1.326,1.326,0,0,0-1.365-.114c-.718.356-.889,2.273-2.639,3.179a11.29,11.29,0,0,1-3.954,1.159l-1.2.134a.506.506,0,0,0-.15.966l.728.325a7.41,7.41,0,0,0,3.013.641h4.831l1.729-2.386.342,2.386h1.111a.506.506,0,0,0,.5-.6Z" transform="translate(-1496.599 -452.797)"/><path class="i" d="M1494.721,382.547l-6.062-2.038a2.18,2.18,0,0,0-1.25-.042l-5,1.32a.514.514,0,0,0-.326.263l-.788,1.547a.513.513,0,0,0,.909.476l.566-1.05a.513.513,0,0,1,.325-.254l1.542-.392a.513.513,0,0,1,.4.061l2.286,1.418a6.121,6.121,0,0,0,3.248.918l3.9-.015Z" transform="translate(-1481.238 -336.68)"/><path class="r" d="M1607.447,277.576a5.286,5.286,0,0,1,2.51,5.525,5.147,5.147,0,0,0-.278,2c.195.987,1.189,1.6,1.642,2.5a3.9,3.9,0,0,1-.108,3.147c-.4,1.006-.984,1.939-1.281,2.979a3.179,3.179,0,0,0,.5,3.058c.513.535,1.27.774,1.807,1.285a3.95,3.95,0,0,1,.972,2.8,12.7,12.7,0,0,0,.194,3.028,5.158,5.158,0,0,0,2.758,3.106,10.413,10.413,0,0,0,4.147.919,21.652,21.652,0,0,0,8.343-1.252,8.785,8.785,0,0,0,3.167-1.784,4.06,4.06,0,0,0,1.345-3.268,4.712,4.712,0,0,0-2.564-3.328c-1.263-.721-2.685-1.118-3.982-1.774a5.259,5.259,0,0,1-2.9-3.079,9.186,9.186,0,0,1,.1-3.353,3.883,3.883,0,0,0-.732-3.182c-.969-.99-2.627-.9-3.734-1.737a4.6,4.6,0,0,1-1.474-3.16,11.248,11.248,0,0,0-.716-3.491,5.566,5.566,0,0,0-4.446-2.777,16.434,16.434,0,0,0-5.411.591Z" transform="translate(-1560.091 -271.186)"/><path class="i" d="M1609.443,291.416c-.3.9.036,1.638.76,1.638a2.308,2.308,0,0,0,1.861-1.638c.3-.905-.037-1.639-.761-1.639A2.305,2.305,0,0,0,1609.443,291.416Z" transform="translate(-1561.359 -279.999)"/><path class="q" d="M1515.312,385.2l-.289,2.561a60.05,60.05,0,0,0,21.4,3.943l-3.143-6.549C1527.795,385.119,1521.5,385.234,1515.312,385.2Z" transform="translate(-1502.37 -339.651)"/><path class="q" d="M1574.86,327.552a171.154,171.154,0,0,0-11.093,21.575l3.143,6.55a106.51,106.51,0,0,0,14.168-18.148Z" transform="translate(-1532.859 -303.627)"/><g transform="translate(22.537 44.585)"><g transform="translate(0 34.88)"><rect class="f" width="40.546" height="1.498" transform="translate(0 40.223) rotate(-82.764)"/></g><g transform="translate(34.981 34.88)"><rect class="f" width="1.498" height="40.546" transform="matrix(0.992, -0.126, 0.126, 0.992, 0, 0.189)"/></g><rect class="i" width="26.888" height="12.896" rx="3.972" transform="translate(24.008)"/><g transform="translate(21.185 10.824)"><path class="f" d="M1598.732,436.377a.75.75,0,0,1-.718-.963l6.925-23.26a.749.749,0,0,1,1.436.427l-6.925,23.259A.75.75,0,0,1,1598.732,436.377Z" transform="translate(-1597.982 -411.619)"/></g><g transform="translate(38.887 10.824)"><path class="f" d="M1646,436.377a.741.741,0,0,1-.214-.031.749.749,0,0,1-.5-.931l6.925-23.26a.749.749,0,1,1,1.436.427l-6.924,23.259A.75.75,0,0,1,1646,436.377Z" transform="translate(-1645.249 -411.619)"/></g><path class="i" d="M1582.163,475.086h-39.288a.954.954,0,1,1,0-1.908h39.288a.954.954,0,0,1,0,1.908Z" transform="translate(-1541.732 -439.299)"/></g></g><g transform="translate(20.038 23.718)"><path class="t" d="M1310.758,248.429c6.859,7.438,12.5,13.849,16.725,22.937,6.58-.436,14.929.33,22.342-.375l.645,4.431a131.507,131.507,0,0,1-25.483,5.513,50.526,50.526,0,0,1-16.018-16.018Z" transform="translate(-1266.754 -223.052)"/><path class="u" d="M1287.073,348.96l-17.515,5c4.34,12.866,8.631,27.711,12.842,35.993l10.247,2.271Z" transform="translate(-1242.103 -285.933)"/><path class="v" d="M1272.04,282.42a17.1,17.1,0,0,1-2.556-7.631,293,293,0,0,1-.576-32.111c-5.354-3.518-13.244-4.724-20.983-1.793-2.375,9.647-2.995,20.243-3.434,31.527-.151,4.086-.338,7.425-2.08,10.007a1.794,1.794,0,0,0,1.43,2.908h26.738a1.81,1.81,0,0,0,1.462-2.908Z" transform="translate(-1224.904 -217.302)"/><path class="t" d="M1249.429,281.621l6.593-5.422-7.3,17.712Z" transform="translate(-1229.07 -240.422)"/><rect class="i" width="6.49" height="3.665" transform="translate(31.417 145.404) rotate(-74.246)"/><path class="n" d="M1286.826,570.949l-1.188-.24a11.876,11.876,0,0,1-2.866-.976l-1.545-2.178a1.324,1.324,0,0,0-1.256-.546l-1.477.2a.506.506,0,0,1-.5-.244l-.371-.628a.506.506,0,0,0-.831-.058l-1.878,2.347a.506.506,0,0,0,.155.762l1.638.882.545-.29a8.647,8.647,0,0,0,8.886,2.207l.755-.259a.506.506,0,0,0-.064-.975Z" transform="translate(-1245.383 -421.741)"/><path class="u" d="M1290.588,458.415c-3.557,9.893-4.878,19.8-7.94,36.625l4.552,1.009,13.634-35.363Z" transform="translate(-1250.291 -354.395)"/><rect class="i" width="3.665" height="6.49" transform="translate(24.183 141.389)"/><g transform="translate(19.086 68.027)"><path class="l" d="M1265.429,362.309h-18.215c.642,13.563,1.721,26.913,3.5,36.032h10.5Z" transform="translate(-1247.214 -362.309)"/><path class="l" d="M1255.711,458.52c-1.331,10.428.334,22.545.917,38.719h4.663l4.916-38.719Z" transform="translate(-1252.214 -422.487)"/></g><path class="v" d="M1225.015,254.888l-5.744-11.247c-8.638,3.527-18.9,13.442-23.021,19.736l9.611,2.913C1215.063,262.312,1217.392,261.54,1225.015,254.888Z" transform="translate(-1196.251 -220.057)"/><path class="v" d="M1214.565,318.6c-3.683-6.472-5.606-13.53-8.7-19.352l-9.611-2.913c1.622,10.508,9.6,19.292,15.34,25.541Z" transform="translate(-1196.251 -253.019)"/><path class="i" d="M1240.564,353.526l1.9-.842a5.988,5.988,0,0,1,3.431-.427l2.924.5a.388.388,0,0,1,.293.532.75.75,0,0,1-.778.457l-3.1-.352a.388.388,0,0,0-.1.77l6.768.948a.388.388,0,0,1,.308.524,5.053,5.053,0,0,1-5.069,3.227l-3.044-.213a10.725,10.725,0,0,1-3.632-.909l-2.656-1.186Z" transform="translate(-1222.249 -287.941)"/><rect class="v" width="9.772" height="3.594" transform="translate(27.928 19.989)"/><rect class="i" width="5.175" height="7.854" transform="translate(29.428 12.136)"/><path class="i" d="M1273.615,197.961l1.326,2.795a3.911,3.911,0,0,0,2.629,2.128l.5.12a3.91,3.91,0,0,0,4.814-3.8v-5.644a3.91,3.91,0,0,0-3.911-3.91h-1.735a3.91,3.91,0,0,0-3.9,3.61l-.1,2.729A3.912,3.912,0,0,0,1273.615,197.961Z" transform="translate(-1244.405 -186.284)"/><path class="r" d="M1266.992,191.361a11.482,11.482,0,0,1-.756-3.134c-.424-2.955.26-4.449,3.4-4.158,2.732.254,2.852-.173,4.178-1.545a5.831,5.831,0,0,1,3.479-1.827c3.477-.376,5.264,3.159,3.517,5.124-1.407,1.582-3.993,1.024-5.794,1.368-2.64.5-2.619,2.3-2.866,3.067-.576,1.8-1.861,4.512-2.767,4.512C1268.907,194.767,1267.285,192.009,1266.992,191.361Z" transform="translate(-1239.955 -180.67)"/><path class="i" d="M1277.539,208.415c.3.9-.037,1.639-.761,1.639a2.307,2.307,0,0,1-1.861-1.639c-.3-.905.037-1.639.761-1.639A2.307,2.307,0,0,1,1277.539,208.415Z" transform="translate(-1245.386 -196.999)"/><path class="i" d="M1418.059,303.134l1.646-1.09a8.308,8.308,0,0,1,3.222-1.268l5.709-.952a.5.5,0,0,1,.226.982l-3.45,1.017a.5.5,0,0,0-.361.451l-.115,1.728c.191,3.213-3.587,1.87-6.333,2.867Z" transform="translate(-1334.989 -255.195)"/><g transform="translate(85.202 48.36)"><path class="w" d="M1423.8,312.824l-.046-.372,3.795-.473a.4.4,0,0,0-.071-.786h-.285a3.082,3.082,0,0,1-2.419-1.163l.293-.234a2.708,2.708,0,0,0,2.126,1.022h.285a.771.771,0,0,1,.124,1.531Z" transform="translate(-1423.75 -309.797)"/></g><path class="s" d="M1271.865,573.775l-1.2-.134a11.867,11.867,0,0,1-3.954-1.159l-2.639-1.307a1.327,1.327,0,0,0-1.365.114l-1.207.874a.506.506,0,0,1-.558.023l-.624-.377a.506.506,0,0,0-.759.343l-.541,2.956a.506.506,0,0,0,.5.6h1.86l.342-.513,1.729.513h4.831a7.406,7.406,0,0,0,3.013-.641l.729-.325a.506.506,0,0,0-.15-.966Z" transform="translate(-1235.502 -424.84)"/></g><g transform="translate(66.491)"><path class="e" d="M1377.8,131.822h-49.778a6.741,6.741,0,0,1,0-13.482H1377.8a6.741,6.741,0,1,1,0,13.482Z" transform="translate(-1320.91 -117.965)"/><path class="k" d="M1377.177,131.571H1327.4a7.115,7.115,0,0,1,0-14.231h49.778a7.115,7.115,0,1,1,0,14.231ZM1327.4,118.089a6.366,6.366,0,0,0,0,12.733h49.778a6.366,6.366,0,1,0,0-12.733Z" transform="translate(-1320.284 -117.34)"/><g transform="translate(6.87 3.304)"><g transform="translate(1.984)"><path class="l" d="M1348.269,133.785a.374.374,0,0,1-.325-.187l-3.969-6.875a.375.375,0,0,1,.649-.375l3.969,6.875a.374.374,0,0,1-.324.562Z" transform="translate(-1343.925 -126.161)"/></g><g transform="translate(1.984)"><path class="l" d="M1344.3,133.785a.375.375,0,0,1-.324-.562l3.969-6.875a.375.375,0,1,1,.649.375l-3.969,6.875A.375.375,0,0,1,1344.3,133.785Z" transform="translate(-1343.925 -126.161)"/></g><g transform="translate(0 3.437)"><path class="l" d="M1346.785,136.088H1339a.375.375,0,0,1,0-.749h7.783a.375.375,0,0,1,0,.749Z" transform="translate(-1338.627 -135.339)"/></g></g><g transform="translate(18.835 3.304)"><g transform="translate(1.985)"><path class="l" d="M1380.218,133.785a.375.375,0,0,1-.325-.187l-3.969-6.875a.374.374,0,1,1,.648-.375l3.969,6.875a.375.375,0,0,1-.324.562Z" transform="translate(-1375.874 -126.161)"/></g><g transform="translate(1.985)"><path class="l" d="M1376.248,133.785a.374.374,0,0,1-.324-.562l3.969-6.875a.375.375,0,0,1,.649.375l-3.969,6.875A.374.374,0,0,1,1376.248,133.785Z" transform="translate(-1375.874 -126.161)"/></g><g transform="translate(0 3.437)"><path class="l" d="M1378.733,136.088h-7.784a.375.375,0,0,1,0-.749h7.784a.375.375,0,0,1,0,.749Z" transform="translate(-1370.575 -135.339)"/></g></g><g transform="translate(30.8 3.304)"><g transform="translate(1.985)"><path class="l" d="M1412.167,133.785a.375.375,0,0,1-.325-.187l-3.969-6.875a.375.375,0,0,1,.649-.375l3.969,6.875a.375.375,0,0,1-.324.562Z" transform="translate(-1407.822 -126.161)"/></g><g transform="translate(1.985)"><path class="l" d="M1408.2,133.785a.375.375,0,0,1-.324-.562l3.969-6.875a.375.375,0,0,1,.649.375l-3.969,6.875A.375.375,0,0,1,1408.2,133.785Z" transform="translate(-1407.822 -126.161)"/></g><g transform="translate(0 3.437)"><path class="l" d="M1410.681,136.088H1402.9a.375.375,0,0,1,0-.749h7.784a.375.375,0,0,1,0,.749Z" transform="translate(-1402.523 -135.339)"/></g></g><g transform="translate(44.786 10.179)"><path class="l" d="M1448.194,145.267h-7.951a.375.375,0,1,1,0-.749h7.951a.375.375,0,0,1,0,.749Z" transform="translate(-1439.869 -144.518)"/></g></g><g transform="translate(0 31.125)"><circle class="x" cx="10.022" cy="10.022" r="10.022"/><path class="e" d="M1157.646,241.477a9.991,9.991,0,0,0,7.1-2.95,7.832,7.832,0,0,0-14.2,0A9.991,9.991,0,0,0,1157.646,241.477Z" transform="translate(-1147.624 -221.433)"/><path class="e" d="M1167.513,212.8c0,1.643-1.332,4.048-2.975,4.048s-2.975-2.4-2.975-4.048a2.975,2.975,0,1,1,5.95,0Z" transform="translate(-1154.516 -206.313)"/></g><g transform="translate(158.356 10.714)"><g transform="translate(2.403)"><path class="l" d="M1582.767,157.1a.374.374,0,0,1-.375-.374v-5.2a4.827,4.827,0,0,0-9.654,0v5.2a.375.375,0,0,1-.749,0v-5.2a5.576,5.576,0,0,1,11.152,0v5.2A.375.375,0,0,1,1582.767,157.1Z" transform="translate(-1571.99 -145.949)"/></g><rect class="l" width="15.957" height="15.957" rx="4.185" transform="translate(0 10.777)"/><path class="y" d="M1585.466,190.357a2.107,2.107,0,1,0-2.692,2.023v1.856h1.17V192.38A2.107,2.107,0,0,0,1585.466,190.357Z" transform="translate(-1575.381 -172.408)"/></g><g transform="translate(9.787 92.96)"><g transform="translate(0 6.963)"><path class="e" d="M1183.178,384.894h-13.925a.374.374,0,1,1,0-.749h13.925a.374.374,0,0,1,0,.749Z" transform="translate(-1168.878 -384.145)"/></g><g transform="translate(6.963 0)"><path class="e" d="M1187.843,380.228a.375.375,0,0,1-.375-.375V365.928a.375.375,0,0,1,.749,0v13.925A.374.374,0,0,1,1187.843,380.228Z" transform="translate(-1187.469 -365.554)"/></g></g></g></g></svg>