<svg xmlns="http://www.w3.org/2000/svg" width="35.998" height="35.998" viewBox="0 0 35.998 35.998"><defs><style>.a{fill:none;}</style></defs><g transform="translate(-180.178 -213.573)"><rect class="a" width="35.998" height="35.998" transform="translate(180.178 213.573)"/><g transform="translate(183.178 216.849)"><g transform="translate(0 2.121)"><path d="M186.951,217.171a3.032,3.032,0,0,0-1.047.185,5.746,5.746,0,0,0-1.08.535l-.547.385a4.492,4.492,0,0,0-.391.351,5.671,5.671,0,0,0-1.453,2.586c-1.144,4.287,1.659,10.74,6.976,16.057,4.456,4.456,9.826,7.227,14.012,7.227a7.939,7.939,0,0,0,2.043-.254,5.632,5.632,0,0,0,2.58-1.447,4.21,4.21,0,0,0,.393-.447l.388-.555a5.791,5.791,0,0,0,.495-1.023,3.217,3.217,0,0,0-1.218-3.736l-3.9-2.721a3.355,3.355,0,0,0-4.546.81l-.756,1.084-.187-.132a36.675,36.675,0,0,1-8.118-8.115l-.132-.189,1.086-.757a3.265,3.265,0,0,0,.808-4.546l-2.719-3.894A3.309,3.309,0,0,0,186.951,217.171Zm16.469,25.6c-3.745,0-8.649-2.575-12.8-6.723-4.818-4.819-7.5-10.74-6.529-14.395a3.96,3.96,0,0,1,1.006-1.81,2.679,2.679,0,0,1,.2-.187l.473-.335a3.762,3.762,0,0,1,.732-.355,1.529,1.529,0,0,1,1.725.592l2.718,3.891a1.547,1.547,0,0,1-.381,2.151l-1.77,1.236A.855.855,0,0,0,188.56,228a36.818,36.818,0,0,0,10.111,10.114.868.868,0,0,0,1.165-.237l1.236-1.773a1.59,1.59,0,0,1,2.148-.381l3.894,2.721a1.493,1.493,0,0,1,.591,1.726l-.01.026a3.618,3.618,0,0,1-.306.645l-.331.477a2.283,2.283,0,0,1-.231.257,3.931,3.931,0,0,1-1.809,1A6.183,6.183,0,0,1,203.42,242.775Z" transform="translate(-182.178 -217.171)"/></g><g transform="translate(14.786)"><path d="M192.9,215.757a.86.86,0,0,0-.051,1.719,13.566,13.566,0,0,1,12.685,12.683.873.873,0,0,0,.921.805.859.859,0,0,0,.8-.912A15.262,15.262,0,0,0,202.8,220.2h0a15.256,15.256,0,0,0-9.846-4.446Z" transform="translate(-192.036 -215.757)"/></g><g transform="translate(12.965 4.644)"><path d="M191.72,218.853a.907.907,0,0,0-.9.807.861.861,0,0,0,.215.622.848.848,0,0,0,.591.289h0a9.956,9.956,0,0,1,9.312,9.313.874.874,0,0,0,.921.8h0a.858.858,0,0,0,.795-.91,11.677,11.677,0,0,0-10.926-10.923Z" transform="translate(-190.822 -218.853)"/></g></g></g></svg>