<svg xmlns="http://www.w3.org/2000/svg" width="36" height="36" viewBox="0 0 36 36"><defs><style>.a{fill:none;}</style></defs><g transform="translate(-49.025 -143.086)"><rect class="a" width="36" height="36" transform="translate(49.025 143.086)"/><g transform="translate(56.231 146.106)"><path d="M62.765,148.6a5.154,5.154,0,1,0,5.155,5.153A5.153,5.153,0,0,0,62.765,148.6Zm0,8.345a3.191,3.191,0,1,1,3.192-3.192A3.2,3.2,0,0,1,62.765,156.948Z" transform="translate(-51.853 -143.293)"/><path d="M72.667,148.223a10.588,10.588,0,0,0-7.771-3.137h-.3a10.624,10.624,0,0,0-7.838,3.137,10.827,10.827,0,0,0-1.714,12.494c3.207,6.1,9.642,14.566,9.642,14.566s6.491-8.463,9.7-14.566A10.827,10.827,0,0,0,72.667,148.223ZM72.643,159.8a112.4,112.4,0,0,1-7.954,12.186,115.206,115.206,0,0,1-7.91-12.186,8.86,8.86,0,0,1,1.4-10.226,8.483,8.483,0,0,1,6.415-2.529h.3a8.509,8.509,0,0,1,6.349,2.529A8.86,8.86,0,0,1,72.643,159.8Z" transform="translate(-53.798 -145.086)"/></g></g></svg>