<svg xmlns="http://www.w3.org/2000/svg" xmlns:xlink="http://www.w3.org/1999/xlink" width="36" height="36" viewBox="0 0 36 36"><defs><style>.a{fill:#fff;}.b{fill:#08ce73;}.c{fill:url(#a);}</style><linearGradient id="a" x1="0.462" y1="0.03" x2="0.5" y2="1.077" gradientUnits="objectBoundingBox"><stop offset="0" stop-color="#faca5d"/><stop offset="1" stop-color="#ff6d21"/></linearGradient></defs><g transform="translate(-521 -1446)"><rect class="a" width="36" height="36" transform="translate(521 1446)"/><g transform="translate(521 1447.8)"><path class="b" d="M344.014,136.369l-1.644-4.934a1.093,1.093,0,0,1,.072-.848,12.865,12.865,0,0,0-7.315-18.073,15.343,15.343,0,0,1,.9,8.717,15.085,15.085,0,0,1-12.111,11.993,15.78,15.78,0,0,1-2.382.231,12.856,12.856,0,0,0,15.276,2.736,1.091,1.091,0,0,1,.843-.069l4.953,1.65A1.109,1.109,0,0,0,344.014,136.369Z" transform="translate(-308.073 -105.449)"/><path class="c" d="M317.412,105.012a12.862,12.862,0,0,0-8.978,18.512,1.093,1.093,0,0,1,.072.848l-1.644,4.934a1.109,1.109,0,0,0,1.4,1.4l4.953-1.65a1.091,1.091,0,0,1,.843.069,12.875,12.875,0,1,0,3.351-24.116Zm3.275,16.644h-6.4a1.142,1.142,0,0,1,0-2.285h6.4a1.142,1.142,0,1,1,0,2.285Zm4.569-4.569H314.29a1.142,1.142,0,0,1,0-2.285h10.966a1.142,1.142,0,0,1,0,2.285Z" transform="translate(-306.803 -104.783)"/></g></g></svg>