<svg xmlns="http://www.w3.org/2000/svg" xmlns:xlink="http://www.w3.org/1999/xlink" width="36.5" height="36.499" viewBox="0 0 36.5 36.499"><defs><style>.a{fill:none;}.b{fill:#2699fb;}.c{fill:#e71c37;}.d{fill:url(#a);}.e,.f{fill:#08ce73;}.e{stroke:rgba(0,0,0,0);}.g{fill:#fff;}.h{fill:url(#b);}.i{fill:#666;}</style><linearGradient id="a" x1="0.462" y1="0.03" x2="0.5" y2="1.077" gradientUnits="objectBoundingBox"><stop offset="0" stop-color="#faca5d"/><stop offset="1" stop-color="#ff6d21"/></linearGradient><linearGradient id="b" x1="0" y1="0.5" x2="1" y2="0.5" xlink:href="#a"/></defs><g transform="translate(-1583.5 -1292)"><rect class="a" width="36" height="36" transform="translate(1584 1292)"/><g transform="translate(1584 1292)"><path class="b" d="M56.417,70.521H49.272a.85.85,0,0,0,0,1.7h7.145a.85.85,0,0,0,0-1.7Z" transform="translate(-35.814 -50.429)"/><path class="c" d="M27.572,45.829a1.143,1.143,0,0,0,1.615,0l1.8-1.8a.85.85,0,0,0-1.2-1.2l0,0-1.406,1.406-.4-.4a.87.87,0,0,0-1.2,0,.851.851,0,0,0,0,1.2Z" transform="translate(-20.273 -30.599)"/><path class="b" d="M49.269,45.828a.85.85,0,0,0,0,1.7h7.145a.85.85,0,0,0,0-1.7Z" transform="translate(-35.809 -32.909)"/><path class="c" d="M27.571,70.524a1.142,1.142,0,0,0,1.615,0h0l1.8-1.8a.85.85,0,1,0-1.2-1.2h0l-1.406,1.406-.4-.4a.871.871,0,0,0-1.2,0,.851.851,0,0,0,0,1.2Z" transform="translate(-20.273 -48.124)"/><path class="d" d="M31.063,11.608H41.215a1.861,1.861,0,0,0,1.73-1.347,1.451,1.451,0,0,0,.064-.334V7.753a1.623,1.623,0,0,0-.064-.337,1.906,1.906,0,0,0-.258-.537,1.861,1.861,0,0,0-1.53-.8H40.063V5.926A3.883,3.883,0,0,0,36.19,2.1h-.058a3.922,3.922,0,0,0-2.749,1.121,3.854,3.854,0,0,0-1.156,2.706v.157H31.132a1.861,1.861,0,0,0-1.53.8,1.909,1.909,0,0,0-.258.537,1.5,1.5,0,0,0-.064.348V9.913a1.414,1.414,0,0,0,.064.348A1.856,1.856,0,0,0,31.063,11.608Zm3-5.69A2.049,2.049,0,0,1,36.1,3.941h.09a2.049,2.049,0,0,1,2.035,1.977v.165h-4.16Z" transform="translate(-22.311 -2.1)"/><g transform="translate(0 5.515)"><path class="e" d="M26.161,48.255H10.168A2.678,2.678,0,0,1,7.675,46.7a4.231,4.231,0,0,1-.32-2V28.9c0-1.15-.006-2.449.061-3.693a2.7,2.7,0,0,1,2.5-2.463c.254-.02.534-.026.877-.031h.118V20.243h-.534a5.108,5.108,0,0,0-2.45.527A5.4,5.4,0,0,0,5,25.877c.006,3.143.006,6.334.006,9.425v1.024C5,38.322,5,36.67,5,38.663c.006.849,0,1.712,0,2.549l-.006.358c0,2.4-.008,1.7.041,4.158a5.166,5.166,0,0,0,5.116,5h.023c2.836-.012,5.609-.023,8.434-.023h.6c1.74,0,8.812,0,12.208.009C31.387,50.69,27.119,49.162,26.161,48.255Z" transform="translate(-4.993 -20.24)"/><path class="f" d="M81.475,22.714a2.679,2.679,0,0,1,2.5,2.437c.066,1.231.063,2.517.063,3.654v7.45a8.788,8.788,0,0,1,1.172.534,9.3,9.3,0,0,1,1.174-.536c0-4.094,0-8.795.005-10.434a5.341,5.341,0,0,0-2.925-5.053,5.15,5.15,0,0,0-2.45-.522h-.531v2.44H80.6C80.941,22.688,81.221,22.694,81.475,22.714Z" transform="translate(-58.565 -20.24)"/></g><g transform="translate(18.29 19.74)"><rect class="g" width="16.258" height="16.258" rx="3" transform="translate(0 0)"/><g transform="translate(1.586 1.586)"><g transform="translate(0 0)"><g transform="translate(0 0.312)"><path class="c" d="M1137.359,815.626H1126.32a1.007,1.007,0,0,0-1.023.99V818.4h13.086v-1.785A1,1,0,0,0,1137.359,815.626Zm-10.426,1.982a.6.6,0,1,1,.613-.6.6.6,0,0,1-.613.6Zm9.817,0a.6.6,0,1,1,.617-.6.607.607,0,0,1-.617.6Z" transform="translate(-1125.297 -815.626)"/></g><g transform="translate(1.349)"><path class="g" d="M1129.291,816.558a.289.289,0,0,1-.309-.268v-1.25a.29.29,0,0,1,.309-.268.294.294,0,0,1,.313.268v1.25A.293.293,0,0,1,1129.291,816.558Z" transform="translate(-1128.982 -814.772)"/><path class="g" d="M1156.506,816.558a.289.289,0,0,1-.309-.268v-1.25a.312.312,0,0,1,.617,0v1.25A.289.289,0,0,1,1156.506,816.558Z" transform="translate(-1146.401 -814.772)"/></g></g><g transform="translate(0 3.173)"><path class="h" d="M1125.3,823.562V832.4a1.049,1.049,0,0,0,1.023,1.076h11.039a1.051,1.051,0,0,0,1.024-1.076v-8.838Z" transform="translate(-1125.297 -823.562)"/><g transform="translate(1.661 2.005)"><path class="g" d="M8.3,4.982a.83.83,0,1,1,.83.83A.831.831,0,0,1,8.3,4.982Zm-2.075,0a.83.83,0,1,1,.83.83A.83.83,0,0,1,6.227,4.982Zm-2.076,0a.83.83,0,1,1,.83.83A.831.831,0,0,1,4.151,4.982Zm-2.076,0a.83.83,0,1,1,.83.83A.83.83,0,0,1,2.075,4.982ZM0,4.982a.83.83,0,1,1,.831.83A.831.831,0,0,1,0,4.982ZM8.3,2.906a.83.83,0,1,1,.83.83A.831.831,0,0,1,8.3,2.906Zm-3.321.83a.83.83,0,1,1,.83-.83.831.831,0,0,1-.83.83Zm-2.076,0a.83.83,0,1,1,.83-.83.831.831,0,0,1-.83.83ZM0,2.906a.83.83,0,1,1,.83.83A.83.83,0,0,1,0,2.906ZM8.3.83a.83.83,0,1,1,.83.831A.83.83,0,0,1,8.3.83ZM6.226.83a.831.831,0,1,1,.83.831A.831.831,0,0,1,6.226.83ZM4.15.83a.83.83,0,1,1,.83.831A.831.831,0,0,1,4.15.83ZM2.074.83a.83.83,0,1,1,.83.831A.83.83,0,0,1,2.074.83ZM0,.83a.83.83,0,1,1,.83.831A.83.83,0,0,1,0,.83Z" transform="translate(0)"/><path class="i" d="M1147.67,834.335a.83.83,0,1,0,.828.832A.829.829,0,0,0,1147.67,834.335Z" transform="translate(-1140.615 -832.384)"/></g></g></g></g></g></g></svg>