<svg xmlns="http://www.w3.org/2000/svg" xmlns:xlink="http://www.w3.org/1999/xlink" width="36" height="36" viewBox="0 0 36 36"><defs><style>.a{fill:none;}.b{fill:#e71c37;}.c{fill:url(#a);}.d{fill:#08ce73;}.e{fill:#efefef;}.f{fill:#fff;}</style><linearGradient id="a" x1="0.5" x2="0.5" y2="1" gradientUnits="objectBoundingBox"><stop offset="0" stop-color="#faca5d"/><stop offset="1" stop-color="#ff6d21"/></linearGradient></defs><g transform="translate(-8587 5722)"><rect class="a" width="36" height="36" transform="translate(8587 -5722)"/><g transform="translate(8587 -5717.909)"><path class="b" d="M77.655,213.471v12.653a.647.647,0,0,1-.647.647H48.186a.647.647,0,0,1-.647-.647V213.471a.647.647,0,0,1,.647-.647H77.008A.647.647,0,0,1,77.655,213.471Z" transform="translate(-44.196 -201.663)"/><path class="c" d="M30.116,260.193v12.653a.647.647,0,0,1-.647.647H.647A.647.647,0,0,1,0,272.846V260.193a.647.647,0,0,1,.647-.647H29.469A.647.647,0,0,1,30.116,260.193Z" transform="translate(0 -244.637)"/><path class="d" d="M252.214,54.649l2.117-.538a.554.554,0,0,1,.523.14l1.563,1.523a.554.554,0,0,0,.237.136l2.1.59a.553.553,0,0,1,.383.383l.591,2.1a.554.554,0,0,0,.137.237l1.524,1.56a.554.554,0,0,1,.14.524l-.539,2.112a.555.555,0,0,0,0,.274l.539,2.112a.554.554,0,0,1-.14.524l-1.524,1.56a.555.555,0,0,0-.137.237l-.591,2.1a.554.554,0,0,1-.383.383l-2.1.59a.553.553,0,0,0-.237.136l-1.563,1.523a.553.553,0,0,1-.523.14l-2.117-.538a.554.554,0,0,0-.273,0l-2.117.538a.554.554,0,0,1-.523-.14l-1.563-1.523a.553.553,0,0,0-.237-.136l-2.1-.59a.553.553,0,0,1-.383-.383l-.591-2.1a.554.554,0,0,0-.137-.237l-1.524-1.56a.554.554,0,0,1-.14-.524l.539-2.112a.553.553,0,0,0,0-.274l-.539-2.112a.554.554,0,0,1,.14-.524l1.524-1.56a.555.555,0,0,0,.137-.237l.591-2.1a.554.554,0,0,1,.383-.383l2.1-.59a.553.553,0,0,0,.237-.136l1.563-1.523a.553.553,0,0,1,.523-.14l2.117.538A.556.556,0,0,0,252.214,54.649Z" transform="translate(-225.548 -54.094)"/><g transform="translate(22.031 5.051)"><path class="e" d="M317.058,127.794a1.861,1.861,0,1,0-1.861,1.861A1.863,1.863,0,0,0,317.058,127.794Zm-2.508,0a.647.647,0,1,1,.647.647A.648.648,0,0,1,314.55,127.794Z" transform="translate(-313.337 -125.933)"/><path class="e" d="M384.232,206.472a1.861,1.861,0,1,0,1.861,1.861A1.863,1.863,0,0,0,384.232,206.472Zm0,2.508a.647.647,0,1,1,.647-.647A.648.648,0,0,1,384.232,208.98Z" transform="translate(-377.517 -200.809)"/><path class="e" d="M330.618,142.2a.607.607,0,0,0-.858,0l-5.908,5.908a.607.607,0,0,0,.858.858l5.908-5.908A.607.607,0,0,0,330.618,142.2Z" transform="translate(-322.948 -140.892)"/></g><path class="f" d="M3.192-1.3a.147.147,0,0,1,.107.047l.291.316A1.6,1.6,0,0,1,3-.483a2.051,2.051,0,0,1-.848.159,2,2,0,0,1-.8-.151,1.754,1.754,0,0,1-.6-.421,1.841,1.841,0,0,1-.383-.643,2.415,2.415,0,0,1-.133-.816,2.273,2.273,0,0,1,.143-.821,1.886,1.886,0,0,1,.4-.642,1.823,1.823,0,0,1,.62-.419,2.056,2.056,0,0,1,.8-.15,1.958,1.958,0,0,1,.771.143,1.837,1.837,0,0,1,.573.374l-.247.344a.224.224,0,0,1-.056.058.16.16,0,0,1-.095.025.181.181,0,0,1-.085-.023q-.044-.023-.1-.058T2.837-3.6a1,1,0,0,0-.159-.076,1.3,1.3,0,0,0-.21-.058,1.453,1.453,0,0,0-.276-.023,1.226,1.226,0,0,0-.488.095,1.06,1.06,0,0,0-.381.275,1.267,1.267,0,0,0-.247.44,1.843,1.843,0,0,0-.088.592,1.741,1.741,0,0,0,.095.6,1.311,1.311,0,0,0,.257.44,1.1,1.1,0,0,0,.382.274,1.181,1.181,0,0,0,.473.095,2.06,2.06,0,0,0,.274-.016,1.161,1.161,0,0,0,.225-.052,1,1,0,0,0,.2-.092,1.219,1.219,0,0,0,.183-.139.261.261,0,0,1,.058-.04A.14.14,0,0,1,3.192-1.3ZM7.8-2.355a2.222,2.222,0,0,1-.144.81A1.9,1.9,0,0,1,7.252-.9a1.855,1.855,0,0,1-.635.425,2.15,2.15,0,0,1-.825.153A2.142,2.142,0,0,1,4.97-.476,1.869,1.869,0,0,1,4.334-.9a1.907,1.907,0,0,1-.411-.645,2.2,2.2,0,0,1-.146-.81,2.2,2.2,0,0,1,.146-.81,1.907,1.907,0,0,1,.411-.645,1.869,1.869,0,0,1,.636-.425,2.142,2.142,0,0,1,.822-.153,2.231,2.231,0,0,1,.569.07,2,2,0,0,1,.489.2,1.809,1.809,0,0,1,.4.311,1.888,1.888,0,0,1,.3.408,2,2,0,0,1,.188.489A2.328,2.328,0,0,1,7.8-2.355Zm-.756,0a1.824,1.824,0,0,0-.088-.587,1.258,1.258,0,0,0-.25-.441,1.071,1.071,0,0,0-.394-.278,1.357,1.357,0,0,0-.524-.1,1.357,1.357,0,0,0-.524.1,1.084,1.084,0,0,0-.4.278,1.246,1.246,0,0,0-.252.441,1.824,1.824,0,0,0-.088.587,1.824,1.824,0,0,0,.088.587,1.232,1.232,0,0,0,.252.44,1.091,1.091,0,0,0,.4.276,1.357,1.357,0,0,0,.524.1,1.357,1.357,0,0,0,.524-.1,1.079,1.079,0,0,0,.394-.276,1.243,1.243,0,0,0,.25-.44A1.824,1.824,0,0,0,7.048-2.355ZM10.056-.964a.977.977,0,0,0,.383-.071.786.786,0,0,0,.285-.2.888.888,0,0,0,.177-.313,1.29,1.29,0,0,0,.062-.412V-4.342H11.7v2.381a1.835,1.835,0,0,1-.114.656,1.492,1.492,0,0,1-.327.52,1.484,1.484,0,0,1-.518.341,1.833,1.833,0,0,1-.687.122,1.841,1.841,0,0,1-.69-.122,1.484,1.484,0,0,1-.518-.341,1.492,1.492,0,0,1-.327-.52,1.835,1.835,0,0,1-.114-.656V-4.342h.739v2.378a1.29,1.29,0,0,0,.062.412.89.89,0,0,0,.179.315.791.791,0,0,0,.286.2A.977.977,0,0,0,10.056-.964Zm3.774-1.38a1.114,1.114,0,0,0,.355-.051.672.672,0,0,0,.252-.146.59.59,0,0,0,.15-.231.884.884,0,0,0,.049-.3.8.8,0,0,0-.049-.289.571.571,0,0,0-.148-.22.66.66,0,0,0-.25-.139,1.183,1.183,0,0,0-.357-.048h-.553v1.427Zm0-2a2.268,2.268,0,0,1,.69.093A1.328,1.328,0,0,1,15-3.987a1.036,1.036,0,0,1,.282.4,1.382,1.382,0,0,1,.092.511,1.412,1.412,0,0,1-.1.529,1.1,1.1,0,0,1-.289.414,1.342,1.342,0,0,1-.482.269,2.155,2.155,0,0,1-.678.1h-.553v1.4h-.739V-4.342Zm5.9,1.987a2.222,2.222,0,0,1-.144.81,1.9,1.9,0,0,1-.408.645,1.855,1.855,0,0,1-.635.425,2.15,2.15,0,0,1-.825.153A2.142,2.142,0,0,1,16.9-.476,1.869,1.869,0,0,1,16.261-.9a1.907,1.907,0,0,1-.411-.645,2.2,2.2,0,0,1-.146-.81,2.2,2.2,0,0,1,.146-.81,1.907,1.907,0,0,1,.411-.645,1.869,1.869,0,0,1,.636-.425,2.142,2.142,0,0,1,.822-.153,2.231,2.231,0,0,1,.569.07,2,2,0,0,1,.489.2,1.809,1.809,0,0,1,.4.311,1.888,1.888,0,0,1,.3.408,2,2,0,0,1,.188.489A2.328,2.328,0,0,1,19.732-2.355Zm-.756,0a1.824,1.824,0,0,0-.088-.587,1.258,1.258,0,0,0-.25-.441,1.071,1.071,0,0,0-.394-.278,1.357,1.357,0,0,0-.524-.1,1.357,1.357,0,0,0-.524.1,1.084,1.084,0,0,0-.4.278,1.246,1.246,0,0,0-.252.441,1.824,1.824,0,0,0-.088.587,1.824,1.824,0,0,0,.088.587,1.232,1.232,0,0,0,.252.44,1.091,1.091,0,0,0,.4.276,1.357,1.357,0,0,0,.524.1,1.357,1.357,0,0,0,.524-.1,1.079,1.079,0,0,0,.394-.276,1.243,1.243,0,0,0,.25-.44A1.824,1.824,0,0,0,18.976-2.355Zm4.758-1.987V-.367h-.379A.334.334,0,0,1,23.208-.4a.344.344,0,0,1-.114-.1l-2.075-2.65q.016.181.016.335V-.367h-.651V-4.342h.388a.691.691,0,0,1,.081,0,.2.2,0,0,1,.06.016.2.2,0,0,1,.051.036.573.573,0,0,1,.055.062L23.1-1.563q-.008-.1-.014-.19t-.005-.173V-4.342Z" transform="translate(1.915 24.666)"/></g></g></svg>