<svg xmlns="http://www.w3.org/2000/svg" xmlns:xlink="http://www.w3.org/1999/xlink" width="18.004" height="18" viewBox="0 0 18.004 18"><defs><style>.a{fill:none;}.b{fill:#e71c37;}.c{fill:url(#a);}.d{fill:#08ce73;}.e{fill:#efefef;}.f{fill:#fff;}</style><linearGradient id="a" x1="0.5" x2="0.5" y2="1" gradientUnits="objectBoundingBox"><stop offset="0" stop-color="#faca5d"/><stop offset="1" stop-color="#ff6d21"/></linearGradient></defs><g transform="translate(-0.683 0.418)"><rect class="a" width="18" height="18" transform="translate(0.683 -0.418)"/><g transform="translate(0.683 1.582)"><path class="b" d="M62.495,213.159v6.555a.329.329,0,0,1-.321.335H47.86a.329.329,0,0,1-.321-.335v-6.555a.329.329,0,0,1,.321-.335H62.173A.329.329,0,0,1,62.495,213.159Z" transform="translate(-45.807 -207.555)"/><path class="c" d="M15.6,259.881v6.555a.335.335,0,0,1-.335.335H.335A.335.335,0,0,1,0,266.436v-6.555a.335.335,0,0,1,.335-.335H15.267A.335.335,0,0,1,15.6,259.881Z" transform="translate(0 -252.468)"/><path class="d" d="M247.584,54.381l1.1-.279a.287.287,0,0,1,.271.072l.81.789a.287.287,0,0,0,.123.071l1.089.306a.287.287,0,0,1,.2.2l.306,1.087a.287.287,0,0,0,.071.123l.79.808a.287.287,0,0,1,.073.271l-.279,1.094a.287.287,0,0,0,0,.142l.279,1.094a.287.287,0,0,1-.073.271l-.79.808a.288.288,0,0,0-.071.123l-.306,1.087a.287.287,0,0,1-.2.2l-1.089.306a.287.287,0,0,0-.123.071l-.81.789a.287.287,0,0,1-.271.072l-1.1-.279a.287.287,0,0,0-.141,0l-1.1.279a.287.287,0,0,1-.271-.072l-.81-.789a.287.287,0,0,0-.123-.071l-1.089-.306a.287.287,0,0,1-.2-.2l-.306-1.087a.287.287,0,0,0-.071-.123l-.79-.808a.287.287,0,0,1-.073-.271l.279-1.094a.287.287,0,0,0,0-.142l-.279-1.094a.287.287,0,0,1,.073-.271l.79-.808a.288.288,0,0,0,.071-.123l.306-1.087a.287.287,0,0,1,.2-.2l1.089-.306a.287.287,0,0,0,.123-.071l.81-.789a.287.287,0,0,1,.271-.072l1.1.279A.288.288,0,0,0,247.584,54.381Z" transform="translate(-234.415 -54.094)"/><g transform="translate(10.768 2.482)"><path class="e" d="M315.265,126.9a.964.964,0,1,0-.964.964A.965.965,0,0,0,315.265,126.9Zm-1.3,0a.335.335,0,1,1,.335.335A.336.336,0,0,1,313.966,126.9Z" transform="translate(-313.337 -125.933)"/><path class="e" d="M383.335,206.472a.964.964,0,1,0,.964.964A.965.965,0,0,0,383.335,206.472Zm0,1.3a.335.335,0,1,1,.335-.335A.336.336,0,0,1,383.335,207.771Z" transform="translate(-379.856 -203.538)"/><path class="e" d="M327.272,142.115a.314.314,0,0,0-.445,0l-3.061,3.061a.314.314,0,0,0,.445.445l3.061-3.061A.314.314,0,0,0,327.272,142.115Z" transform="translate(-323.298 -141.437)"/></g><path class="f" d="M1.733-2.822a.075.075,0,0,1,.054.024l.148.16a.812.812,0,0,1-.3.233,1.041,1.041,0,0,1-.43.081A1.017,1.017,0,0,1,.8-2.4a.89.89,0,0,1-.306-.213A.934.934,0,0,1,.3-2.941a1.225,1.225,0,0,1-.068-.414A1.153,1.153,0,0,1,.3-3.772a.957.957,0,0,1,.2-.326A.925.925,0,0,1,.822-4.31a1.043,1.043,0,0,1,.4-.076.994.994,0,0,1,.391.073.932.932,0,0,1,.291.19l-.126.174a.114.114,0,0,1-.029.029.081.081,0,0,1-.048.013.092.092,0,0,1-.043-.012q-.022-.012-.049-.029l-.061-.038a.505.505,0,0,0-.081-.038.66.66,0,0,0-.107-.029.737.737,0,0,0-.14-.012.622.622,0,0,0-.248.048.538.538,0,0,0-.193.139.643.643,0,0,0-.126.223.935.935,0,0,0-.045.3.884.884,0,0,0,.048.3.666.666,0,0,0,.13.223.557.557,0,0,0,.194.139.6.6,0,0,0,.24.048,1.045,1.045,0,0,0,.139-.008.589.589,0,0,0,.114-.027.508.508,0,0,0,.1-.047.619.619,0,0,0,.093-.07.132.132,0,0,1,.029-.02A.071.071,0,0,1,1.733-2.822Zm2.341-.533A1.127,1.127,0,0,1,4-2.944a.964.964,0,0,1-.207.327.941.941,0,0,1-.322.216,1.091,1.091,0,0,1-.418.077A1.087,1.087,0,0,1,2.636-2.4a.949.949,0,0,1-.323-.216A.968.968,0,0,1,2.1-2.944a1.118,1.118,0,0,1-.074-.411A1.118,1.118,0,0,1,2.1-3.766a.968.968,0,0,1,.209-.327.949.949,0,0,1,.323-.216,1.087,1.087,0,0,1,.417-.077,1.132,1.132,0,0,1,.289.036,1.014,1.014,0,0,1,.248.1.918.918,0,0,1,.2.158.958.958,0,0,1,.153.207,1.015,1.015,0,0,1,.1.248A1.181,1.181,0,0,1,4.074-3.355Zm-.384,0a.926.926,0,0,0-.045-.3.638.638,0,0,0-.127-.224.544.544,0,0,0-.2-.141.689.689,0,0,0-.266-.049.689.689,0,0,0-.266.049.55.55,0,0,0-.2.141.632.632,0,0,0-.128.224.926.926,0,0,0-.045.3.926.926,0,0,0,.045.3.625.625,0,0,0,.128.223.554.554,0,0,0,.2.14.689.689,0,0,0,.266.049.689.689,0,0,0,.266-.049.547.547,0,0,0,.2-.14.631.631,0,0,0,.127-.223A.926.926,0,0,0,3.69-3.355Zm1.526.706a.5.5,0,0,0,.195-.036.4.4,0,0,0,.144-.1.45.45,0,0,0,.09-.159.655.655,0,0,0,.031-.209V-4.364h.375v1.208a.931.931,0,0,1-.058.333.757.757,0,0,1-.166.264.753.753,0,0,1-.263.173.93.93,0,0,1-.349.062.934.934,0,0,1-.35-.062A.753.753,0,0,1,4.6-2.559a.757.757,0,0,1-.166-.264.931.931,0,0,1-.058-.333V-4.364h.375v1.207a.655.655,0,0,0,.031.209.452.452,0,0,0,.091.16.4.4,0,0,0,.145.1A.5.5,0,0,0,5.217-2.649Zm1.915-.7a.565.565,0,0,0,.18-.026.341.341,0,0,0,.128-.074.3.3,0,0,0,.076-.117.449.449,0,0,0,.025-.154.407.407,0,0,0-.025-.146.29.29,0,0,0-.075-.112.335.335,0,0,0-.127-.07.6.6,0,0,0-.181-.024h-.28v.724Zm0-1.014a1.151,1.151,0,0,1,.35.047.674.674,0,0,1,.244.133.525.525,0,0,1,.143.2.7.7,0,0,1,.047.259.717.717,0,0,1-.049.269.557.557,0,0,1-.146.21.681.681,0,0,1-.245.137,1.094,1.094,0,0,1-.344.049h-.28v.71H6.476V-4.364Zm2.995,1.009a1.127,1.127,0,0,1-.073.411.964.964,0,0,1-.207.327.941.941,0,0,1-.322.216,1.091,1.091,0,0,1-.418.077A1.087,1.087,0,0,1,8.689-2.4a.949.949,0,0,1-.323-.216.968.968,0,0,1-.209-.327,1.118,1.118,0,0,1-.074-.411,1.118,1.118,0,0,1,.074-.411.968.968,0,0,1,.209-.327.949.949,0,0,1,.323-.216,1.087,1.087,0,0,1,.417-.077,1.132,1.132,0,0,1,.289.036,1.014,1.014,0,0,1,.248.1.918.918,0,0,1,.2.158A.958.958,0,0,1,10-3.885a1.015,1.015,0,0,1,.1.248A1.181,1.181,0,0,1,10.127-3.355Zm-.384,0a.926.926,0,0,0-.045-.3.638.638,0,0,0-.127-.224.543.543,0,0,0-.2-.141.689.689,0,0,0-.266-.049.689.689,0,0,0-.266.049.55.55,0,0,0-.2.141.632.632,0,0,0-.128.224.926.926,0,0,0-.045.3.926.926,0,0,0,.045.3.625.625,0,0,0,.128.223.554.554,0,0,0,.2.14.689.689,0,0,0,.266.049.689.689,0,0,0,.266-.049.547.547,0,0,0,.2-.14A.631.631,0,0,0,9.7-3.057.926.926,0,0,0,9.743-3.355Zm2.415-1.009v2.017h-.193a.169.169,0,0,1-.075-.015.175.175,0,0,1-.058-.05L10.78-3.755q.008.092.008.17v1.239h-.331V-4.364h.2l.041,0a.1.1,0,0,1,.031.008.1.1,0,0,1,.026.018.291.291,0,0,1,.028.031l1.057,1.35q0-.049-.007-.1t0-.088V-4.364Z" transform="translate(0.602 14.453)"/></g></g></svg>