<svg xmlns="http://www.w3.org/2000/svg" xmlns:xlink="http://www.w3.org/1999/xlink" width="36" height="36" viewBox="0 0 36 36"><defs><style>.a{fill:none;}.b{fill:url(#a);}.c{fill:#fff;}.d{fill:#0ce277;}.e{fill:#2699fb;}.f{fill:#00aa63;}.g{fill:#e71c37;}</style><linearGradient id="a" x1="0.462" y1="0.03" x2="0.5" y2="1.077" gradientUnits="objectBoundingBox"><stop offset="0" stop-color="#faca5d"/><stop offset="1" stop-color="#ff6d21"/></linearGradient></defs><g transform="translate(-958.369 -816.893)"><rect class="a" width="36" height="36" transform="translate(958.369 816.893)"/><g transform="translate(960.201 817.235)"><path class="b" d="M986.068,852.532H963.011a2.305,2.305,0,0,1-2.315-2.316v-30.7a2.305,2.305,0,0,1,2.315-2.316h23.057a2.305,2.305,0,0,1,2.315,2.316v30.7A2.422,2.422,0,0,1,986.068,852.532Z" transform="translate(-960.696 -817.2)"/><g transform="translate(5.048 17.98)"><path class="c" d="M986.328,841.666H975.247a.677.677,0,0,0-.687.687v.172a.677.677,0,0,0,.687.687h11.081a.728.728,0,0,0,.687-.6v-.258A.678.678,0,0,0,986.328,841.666Z" transform="translate(-969.406 -841.666)"/><path class="c" d="M968.257,848.424h11.081c.344,0,.6-.344.687-.687v-.258a.678.678,0,0,0-.687-.687H968.257a.677.677,0,0,0-.687.687v.258A.678.678,0,0,0,968.257,848.424Z" transform="translate(-967.57 -843.013)"/><path class="c" d="M986.328,852.151H975.247a.677.677,0,0,0-.687.687v.258a.677.677,0,0,0,.687.687h11.081c.344,0,.6-.344.687-.687v-.258A.678.678,0,0,0,986.328,852.151Z" transform="translate(-969.406 -844.42)"/><path class="c" d="M986.328,857.278H975.247a.677.677,0,0,0-.687.687v.257a.677.677,0,0,0,.687.687h11.081c.344,0,.6-.257.687-.687v-.257A.677.677,0,0,0,986.328,857.278Z" transform="translate(-969.406 -845.767)"/><path class="c" d="M968.257,843.212h2.491a.728.728,0,0,0,.687-.6v-.258a.678.678,0,0,0-.687-.687h-2.491a.677.677,0,0,0-.687.687v.172A.677.677,0,0,0,968.257,843.212Z" transform="translate(-967.57 -841.666)"/><path class="c" d="M989.389,846.792H986.9a.678.678,0,0,0-.687.687v.258a.678.678,0,0,0,.687.687h2.491c.344,0,.6-.344.687-.687v-.258A.678.678,0,0,0,989.389,846.792Z" transform="translate(-972.466 -843.013)"/><path class="c" d="M970.748,852.151h-2.491a.677.677,0,0,0-.687.687v.258a.677.677,0,0,0,.687.687h2.491c.344,0,.6-.344.687-.687v-.258A.678.678,0,0,0,970.748,852.151Z" transform="translate(-967.57 -844.42)"/><path class="c" d="M970.748,857.278h-2.491a.677.677,0,0,0-.687.687v.257a.677.677,0,0,0,.687.687h2.491c.344,0,.6-.257.687-.687v-.257A.677.677,0,0,0,970.748,857.278Z" transform="translate(-967.57 -845.767)"/></g><g transform="translate(24.171 11.071)"><path class="d" d="M999.122,833.346l.24-.417a1.348,1.348,0,0,1,1.84-.493h0a1.347,1.347,0,0,1,.493,1.84l-5.3,9.177-2.333-1.347,2.285-3.959Z" transform="translate(-993.692 -832.255)"/><path class="e" d="M1002.867,832.436h0a1.348,1.348,0,0,0-1.84.493l-.625,1.083,2.334,1.347.625-1.083A1.347,1.347,0,0,0,1002.867,832.436Z" transform="translate(-995.357 -832.255)"/><path class="f" d="M996.266,846.962l-2.706,1.993.373-3.34Z" transform="translate(-993.559 -835.764)"/></g><path class="g" d="M983.024,826.964a5.456,5.456,0,1,0-9.2,3.966.655.655,0,0,0,.063.059,5.445,5.445,0,0,0,7.358,0,.693.693,0,0,0,.064-.059A5.443,5.443,0,0,0,983.024,826.964Zm-5.456-4.269a4.267,4.267,0,0,1,3.436,6.8,4.116,4.116,0,0,0-1.747-1.464,2.123,2.123,0,0,0,.446-1.3v-.386a2.135,2.135,0,0,0-4.27,0v.386a2.123,2.123,0,0,0,.446,1.3,4.123,4.123,0,0,0-1.748,1.464,4.267,4.267,0,0,1,3.436-6.8Zm-.948,4.032v-.386a.949.949,0,1,1,1.9,0v.386a.949.949,0,1,1-1.9,0Zm-1.63,3.637a2.964,2.964,0,0,1,5.158,0,4.26,4.26,0,0,1-5.158,0Z" transform="translate(-963.718 -818.332)"/></g></g></svg>