<svg xmlns="http://www.w3.org/2000/svg" xmlns:xlink="http://www.w3.org/1999/xlink" width="18" height="18" viewBox="0 0 18 18"><defs><style>.a{fill:none;}.b{fill:#e71c37;}.c{fill:#fc8019;}.d{fill:#08ce73;}.e{fill:#2699fb;}.f{fill:url(#a);}.g,.h{fill:#fff;}.g{opacity:0.2;}</style><linearGradient id="a" x1="0.5" x2="0.5" y2="1" gradientUnits="objectBoundingBox"><stop offset="0" stop-color="#faca5d"/><stop offset="1" stop-color="#ff6d21"/></linearGradient></defs><g transform="translate(0.316 0.368)"><rect class="a" width="18" height="18" transform="translate(-0.316 -0.367)"/><g transform="translate(1.683 -0.368)"><path class="b" d="M76.626,4.638H71.988a.309.309,0,0,1-.309-.309v-1.7a2.628,2.628,0,0,1,5.256,0v1.7A.309.309,0,0,1,76.626,4.638ZM72.3,4.019h4.019V2.628a2.01,2.01,0,1,0-4.019,0Z" transform="translate(-67.069)"/><rect class="c" width="4.328" height="4.637" rx="2.164" transform="translate(10.768 8.236) rotate(-153.838)"/><rect class="d" width="5.207" height="5.579" rx="2.604" transform="translate(8.268 7.121) rotate(164.258)"/><rect class="e" width="5.123" height="5.392" rx="2" transform="translate(8.708 9.857) rotate(-162.521)"/><path class="f" d="M33.525,76.977H18.772l.615-12.124H32.911Z" transform="translate(-18.772 -58.978)"/><path class="g" d="M29.125,73.843C25.591,76.857,18.772,76.8,18.772,76.8l.613-12.132,13.521.009S32.659,70.828,29.125,73.843Z" transform="translate(-18.772 -58.806)"/><path class="h" d="M205.785,0a1.58,1.58,0,0,0-1.658,1.543s0,0,0,0A1.58,1.58,0,0,0,202.467,0,1.646,1.646,0,0,0,201,1.984c.291,1.632,2.3,2.756,2.933,3.073a.426.426,0,0,0,.382,0c.633-.317,2.642-1.441,2.933-3.073A1.646,1.646,0,0,0,205.785,0Z" transform="translate(-196.965 9.644)"/></g></g></svg>