<svg xmlns="http://www.w3.org/2000/svg" xmlns:xlink="http://www.w3.org/1999/xlink" width="36" height="36" viewBox="0 0 36 36"><defs><style>.a{fill:none;}.b{fill:#e71c37;}.c{fill:#fc8019;}.d{fill:#08ce73;}.e{fill:#2699fb;}.f{fill:url(#a);}.g,.h{fill:#fff;}.g{opacity:0.2;}</style><linearGradient id="a" x1="0.5" x2="0.5" y2="1" gradientUnits="objectBoundingBox"><stop offset="0" stop-color="#faca5d"/><stop offset="1" stop-color="#ff6d21"/></linearGradient></defs><g transform="translate(-8570.055 5667)"><rect class="a" width="36" height="35.945" transform="translate(8570.055 -5667)"/><g transform="translate(8573.278 -5667)"><path class="b" d="M81.589,9.29H72.3a.62.62,0,0,1-.619-.619V5.264a5.264,5.264,0,0,1,10.529,0V8.671A.62.62,0,0,1,81.589,9.29ZM72.918,8.052h8.052V5.264a4.026,4.026,0,1,0-8.052,0Z" transform="translate(-62.471)"/><rect class="c" width="8.67" height="9.29" rx="3" transform="translate(21.517 16.497) rotate(-153.838)"/><rect class="d" width="10.431" height="11.177" rx="3" transform="translate(16.563 14.265) rotate(164.258)"/><rect class="e" width="10.263" height="10.801" rx="2" transform="translate(17.418 19.73) rotate(-162.521)"/><path class="f" d="M48.271,89.085h-29.5L20,64.853H47.042Z" transform="translate(-18.772 -53.085)"/><path class="g" d="M39.471,83.043c-7.065,6.039-20.7,5.932-20.7,5.932L20,64.672l27.034.018S46.536,77,39.471,83.043Z" transform="translate(-18.772 -52.975)"/><path class="h" d="M210.61,0a3.164,3.164,0,0,0-3.322,3.091s0,0,0,0A3.164,3.164,0,0,0,203.965,0a3.3,3.3,0,0,0-2.935,3.97c.583,3.27,4.607,5.521,5.876,6.156a.853.853,0,0,0,.764,0c1.269-.635,5.293-2.886,5.876-6.156A3.3,3.3,0,0,0,210.61,0Z" transform="translate(-192.968 19.279)"/></g></g></svg>