<svg xmlns="http://www.w3.org/2000/svg" width="315" height="241.715" viewBox="0 0 315 241.715">
  <g id="No_data-pana" data-name="No data-pana" transform="translate(-86.33)">
    <g id="freepik--Lamp--inject-137" transform="translate(222.131)">
      <path id="Path_45834" data-name="Path 45834" d="M335.23,73.021h65.724S394.887,44,367.6,44C343.321,44,335.23,73.021,335.23,73.021Z" transform="translate(-335.23 -19.993)" fill="#ff725e"/>
      <rect id="Rectangle_9903" data-name="Rectangle 9903" width="1.408" height="23.996" transform="translate(32.158)" fill="#ff725e"/>
    </g>
    <g id="freepik--Floor--inject-137" transform="translate(86.33 239.832)">
      <path id="Path_45835" data-name="Path 45835" d="M401.33,439.712c0,.076-70.52.142-157.495.142S86.33,439.8,86.33,439.712s70.509-.142,157.505-.142S401.33,439.63,401.33,439.712Z" transform="translate(-86.33 -439.57)" fill="#263238"/>
    </g>
    <g id="freepik--Plant--inject-137" transform="translate(97.978 205.797)">
      <path id="Path_45836" data-name="Path 45836" d="M116.6,377.2a6.885,6.885,0,0,1,4.79,2.455,12.085,12.085,0,0,1,2.439,4.91c.922,3.448.355,7.524-.627,10.956-3.732-1.337-6.04-5.32-7.093-7.415-1.637-3.306-2.613-10.29.475-10.912" transform="translate(-110.809 -377.19)" fill="#ff725e"/>
      <path id="Path_45837" data-name="Path 45837" d="M139.461,410.212a5.86,5.86,0,0,1-.273-5.882,7.78,7.78,0,0,1,4.692-3.77,3.266,3.266,0,0,1,2.761.131,2.5,2.5,0,0,1,.966,2.352,5.058,5.058,0,0,1-1.091,2.412c-1.817,2.461-4.021,4.507-7.093,4.758" transform="translate(-121.695 -387.701)" fill="#ff725e"/>
      <path id="Path_45838" data-name="Path 45838" d="M140.114,425.212a3.545,3.545,0,0,1-.169-.715c-.1-.513-.229-1.173-.387-1.964a20.607,20.607,0,0,1-.4-6.607,12.549,12.549,0,0,1,2.45-6.116,8.357,8.357,0,0,1,1.413-1.435,5,5,0,0,1,.447-.316.626.626,0,0,1,.164-.1,13.842,13.842,0,0,0-1.882,1.959,13.013,13.013,0,0,0-2.335,6.045,22.184,22.184,0,0,0,.333,6.547c.131.835.24,1.511.3,1.981A4.489,4.489,0,0,1,140.114,425.212Z" transform="translate(-121.934 -391.172)" fill="#263238"/>
      <path id="Path_45839" data-name="Path 45839" d="M120.49,386.83a1.277,1.277,0,0,1,.153.278c.1.218.229.491.382.835.333.726.8,1.779,1.359,3.083,1.124,2.613,2.63,6.247,4.2,10.3s2.908,7.742,3.819,10.432c.469,1.342.835,2.433,1.091,3.192.115.36.2.649.273.873a1.426,1.426,0,0,1,.082.311,1.341,1.341,0,0,1-.131-.295c-.082-.218-.186-.5-.322-.857l-1.151-3.165c-.977-2.668-2.341-6.356-3.907-10.4s-3.05-7.688-4.13-10.317c-.546-1.293-.966-2.346-1.277-3.115-.142-.349-.256-.627-.344-.851A1.9,1.9,0,0,1,120.49,386.83Z" transform="translate(-113.5 -381.57)" fill="#263238"/>
      <path id="Path_45840" data-name="Path 45840" d="M121.423,420.075a13.738,13.738,0,0,0-10.65-6.618c-1.091-.076-2.433.109-2.924,1.091s.164,2.182.917,2.979a11.725,11.725,0,0,0,12.7,2.837" transform="translate(-107.678 -393.663)" fill="#ff725e"/>
      <path id="Path_45841" data-name="Path 45841" d="M116.43,418.886a3.9,3.9,0,0,1,.693.027,6.6,6.6,0,0,1,.8.093c.311.06.677.093,1.058.2a10.588,10.588,0,0,1,1.26.349,12.5,12.5,0,0,1,1.4.546,15.17,15.17,0,0,1,2.957,1.751,14.9,14.9,0,0,1,2.444,2.422,12.273,12.273,0,0,1,.857,1.228,11.963,11.963,0,0,1,.644,1.14,9.494,9.494,0,0,1,.436.982,6.193,6.193,0,0,1,.278.764,3.722,3.722,0,0,1,.18.671c-.06,0-.322-.938-1.058-2.335a12,12,0,0,0-.66-1.091,13.818,13.818,0,0,0-.862-1.195,14.541,14.541,0,0,0-5.314-4.1c-.475-.207-.928-.4-1.369-.546a11.922,11.922,0,0,0-1.239-.376C117.412,419,116.425,418.946,116.43,418.886Z" transform="translate(-111.655 -396.134)" fill="#263238"/>
    </g>
    <g id="freepik--Character--inject-137" transform="translate(306.733 37.101)">
      <path id="Path_45842" data-name="Path 45842" d="M563.552,104.535c-1.6.366-2.384,2.215-2.537,3.852s.055,3.372-.633,4.867c-.775,1.68-2.624,2.924-2.684,4.774-.038,1.129.633,2.182.6,3.323-.055,1.855-1.942,3.274-2.046,5.107-.071,1.337.818,2.613.606,3.934-.164,1.026-.966,1.833-1.3,2.815-.671,1.964.677,4.119,2.428,5.221a7.96,7.96,0,0,0,11.594-3.7c.971-2.357.758-5.014.546-7.551q-.982-11.872-1.462-23.777" transform="translate(-519.866 -84.086)" fill="#263238"/>
      <path id="Path_45843" data-name="Path 45843" d="M561.82,133.9a1.86,1.86,0,0,0,.737-.867,3.159,3.159,0,0,0,.186-1.337,7.35,7.35,0,0,0-.4-1.762,5.079,5.079,0,0,1-.284-2.237,5.14,5.14,0,0,1,1.3-2.237,4.787,4.787,0,0,0,.737-1.118,1.806,1.806,0,0,0,.087-1.309c-.284-.889-1.157-1.544-1.555-2.575a2.728,2.728,0,0,1-.087-1.593,6.325,6.325,0,0,1,.546-1.424,12.224,12.224,0,0,0,1.091-2.57c.382-1.73.2-3.383.464-4.741a5.249,5.249,0,0,1,1.38-2.9,3.172,3.172,0,0,1,.72-.546,1.13,1.13,0,0,1,.289-.1,4.2,4.2,0,0,0-.933.7,5.336,5.336,0,0,0-1.26,2.864,17.755,17.755,0,0,0-.153,2.182,13.443,13.443,0,0,1-.251,2.559,12.259,12.259,0,0,1-1.091,2.63,3.6,3.6,0,0,0-.426,2.8c.36.938,1.228,1.588,1.56,2.592a2.117,2.117,0,0,1-.1,1.5,5.164,5.164,0,0,1-.818,1.228,5.177,5.177,0,0,0-1.271,2.106,4.91,4.91,0,0,0,.251,2.144,7.429,7.429,0,0,1,.36,1.811,3.06,3.06,0,0,1-.245,1.386,1.669,1.669,0,0,1-.546.687A.861.861,0,0,1,561.82,133.9Z" transform="translate(-522.793 -85.531)" fill="#455a64"/>
      <path id="Path_45844" data-name="Path 45844" d="M529.953,180.37l-4.91,14.186-20.537,1.091-3.426,7.638,21.442,2.182a8.1,8.1,0,0,0,10.7-4.763l5.723-15.975Z" transform="translate(-495.193 -119.06)" fill="#b78876"/>
      <path id="Path_45845" data-name="Path 45845" d="M600.03,347.335s-15.048-47.806-15.37-49.355c-.289-1.408,5.456-35.808,6.187-44.74L570.512,254v.2l-8.642.48,7.737,97.729h9.357l-.928-32.436a316.35,316.35,0,0,0,14.044,31.28Z" transform="translate(-522.816 -152.172)" fill="#b78876"/>
      <path id="Path_45846" data-name="Path 45846" d="M589.186,379.687c0-.295-.115-10.868-.115-10.868-.115.633-3.585-9.177-3.5-9.772C585.612,358.736,589.186,379.687,589.186,379.687Z" transform="translate(-533.584 -200.249)" fill="#a36957"/>
      <path id="Path_45847" data-name="Path 45847" d="M584.781,350.53a2.118,2.118,0,0,0-.06.595,14.821,14.821,0,0,0,0,1.637,10.9,10.9,0,0,0,.093,1.118c.044.4.1.829.2,1.271A22.581,22.581,0,0,0,585.78,358c.677,1.981,1.43,3.71,1.959,4.965.251.546.469,1.064.655,1.479a2.353,2.353,0,0,0,.273.546,2.068,2.068,0,0,0-.164-.546c-.125-.36-.316-.878-.546-1.517-.48-1.277-1.2-3.023-1.871-4.981a23.648,23.648,0,0,1-.78-2.8c-.1-.437-.164-.857-.224-1.249s-.1-.764-.131-1.091c-.065-.677-.093-1.222-.109-1.6a2.467,2.467,0,0,0-.06-.666Z" transform="translate(-533.189 -196.38)" fill="#a36957"/>
      <path id="Path_45848" data-name="Path 45848" d="M570.37,434.829v-.878l9.586-.42.027,3.628-.589.038c-2.635.153-13.395.6-15.151.071C562.273,436.678,570.37,434.829,570.37,434.829Z" transform="translate(-523.753 -234.095)" fill="#455a64"/>
      <path id="Path_45849" data-name="Path 45849" d="M580.1,439.78a1.251,1.251,0,0,1-.164,0l-.469.033-1.735.076c-1.462.06-3.486.115-5.718.126s-4.261-.027-5.729-.071l-1.73-.071h-.638a1.017,1.017,0,0,1,.164,0h.475l1.735.033c1.462,0,3.486.044,5.718.033s4.261-.049,5.723-.087l1.735-.044h.633Z" transform="translate(-523.747 -236.935)" fill="#263238"/>
      <path id="Path_45850" data-name="Path 45850" d="M569.232,439.1a4.188,4.188,0,0,0-.327-.824,3.934,3.934,0,0,0-.595-.66,1.266,1.266,0,0,1,.693.6A1.3,1.3,0,0,1,569.232,439.1Z" transform="translate(-525.742 -235.953)" fill="#263238"/>
      <path id="Path_45851" data-name="Path 45851" d="M574.758,437.05a2.158,2.158,0,0,1-.3-.366c-.142-.218-.229-.409-.2-.426s.158.142.3.36S574.785,437.034,574.758,437.05Z" transform="translate(-528.441 -235.334)" fill="#263238"/>
      <path id="Path_45852" data-name="Path 45852" d="M576.1,436.557c0,.027-.175-.076-.338-.224s-.284-.284-.262-.306.175.076.338.224S576.12,436.508,576.1,436.557Z" transform="translate(-529.007 -235.228)" fill="#263238"/>
      <path id="Path_45853" data-name="Path 45853" d="M576.658,435.251a1.151,1.151,0,0,1-.5.065,1.091,1.091,0,0,1-.5-.049,1.135,1.135,0,0,1,.5-.065A1.091,1.091,0,0,1,576.658,435.251Z" transform="translate(-529.082 -234.85)" fill="#263238"/>
      <path id="Path_45854" data-name="Path 45854" d="M576.881,434.14a1.014,1.014,0,0,1-.546.164,1.031,1.031,0,0,1-.546-.076,3.146,3.146,0,0,1,.546-.044,2.831,2.831,0,0,1,.546-.044Z" transform="translate(-529.141 -234.372)" fill="#263238"/>
      <path id="Path_45855" data-name="Path 45855" d="M573.09,435.477a1.674,1.674,0,0,1-.617,0,3.528,3.528,0,0,1-.649-.142,1.762,1.762,0,0,1-.376-.153.343.343,0,0,1-.153-.191.24.24,0,0,1,.093-.246,1.135,1.135,0,0,1,1.593.737.414.414,0,0,1,0,.164,1.758,1.758,0,0,0-.284-.546,1.124,1.124,0,0,0-.546-.338.971.971,0,0,0-.731.055c-.093.071-.054.186.049.251a1.969,1.969,0,0,0,.349.147,4.59,4.59,0,0,0,.628.158C572.856,435.46,573.09,435.46,573.09,435.477Z" transform="translate(-527.096 -234.595)" fill="#263238"/>
      <path id="Path_45856" data-name="Path 45856" d="M574.226,435.249a.579.579,0,0,1-.076-.426,1.016,1.016,0,0,1,.169-.447.622.622,0,0,1,.507-.316.251.251,0,0,1,.191.284.649.649,0,0,1-.1.273,2.254,2.254,0,0,1-.289.376.9.9,0,0,1-.349.246,3.837,3.837,0,0,0,.289-.306,2.115,2.115,0,0,0,.256-.366c.082-.131.142-.366,0-.393s-.306.142-.4.262a1,1,0,0,0-.175.4,1.917,1.917,0,0,0-.022.415Z" transform="translate(-528.39 -234.336)" fill="#263238"/>
      <path id="Path_45857" data-name="Path 45857" d="M590.394,434.945s-.273,0-.7.027a3.023,3.023,0,0,0-2.493,2c-.142.409-.153.688-.175.682s0-.071,0-.191a2.443,2.443,0,0,1,.1-.518,2.984,2.984,0,0,1,.96-1.424,2.941,2.941,0,0,1,1.6-.627,2.286,2.286,0,0,1,.546,0A.689.689,0,0,1,590.394,434.945Z" transform="translate(-534.24 -234.708)" fill="#263238"/>
      <path id="Path_45858" data-name="Path 45858" d="M582.478,438.371a5.351,5.351,0,0,1-1.4.136,5.144,5.144,0,0,1-1.391-.12c0-.033.622,0,1.391,0S582.473,438.338,582.478,438.371Z" transform="translate(-530.913 -236.289)" fill="#263238"/>
      <path id="Path_45859" data-name="Path 45859" d="M587.993,438.346s-.049.131-.115.273-.1.273-.131.267-.049-.147.027-.316S587.971,438.318,587.993,438.346Z" transform="translate(-534.561 -236.281)" fill="#263238"/>
      <path id="Path_45860" data-name="Path 45860" d="M589.2,436.734a.6.6,0,0,1-.136.218c-.1.1-.2.164-.224.142s.038-.12.136-.224S589.178,436.707,589.2,436.734Z" transform="translate(-535.07 -235.548)" fill="#263238"/>
      <path id="Path_45861" data-name="Path 45861" d="M590.9,435.955c0,.033-.131.033-.273.082s-.24.126-.267.1.055-.153.229-.213S590.907,435.922,590.9,435.955Z" transform="translate(-535.757 -235.172)" fill="#263238"/>
      <path id="Path_45862" data-name="Path 45862" d="M592.423,435.623c0,.033-.038.082-.12.109s-.153.033-.164,0,.044-.082.12-.109S592.412,435.6,592.423,435.623Z" transform="translate(-536.569 -235.036)" fill="#263238"/>
      <path id="Path_45863" data-name="Path 45863" d="M612.729,430.107l-.36-.8,8.571-4.3,1.511,3.274-.546.278c-2.341,1.217-11.971,6.029-13.793,6.269C606.1,435.11,612.729,430.107,612.729,430.107Z" transform="translate(-543.655 -230.219)" fill="#455a64"/>
      <path id="Path_45864" data-name="Path 45864" d="M622.5,430.57l-.142.087-.42.218-1.55.786c-1.309.649-3.132,1.528-5.167,2.455s-3.9,1.719-5.254,2.281l-1.61.649-.436.169a.62.62,0,0,1-.158.049l.147-.071.431-.191,1.593-.682c1.348-.578,3.2-1.386,5.238-2.313s3.863-1.79,5.183-2.422l1.56-.747.431-.2Z" transform="translate(-543.668 -232.75)" fill="#263238"/>
      <path id="Path_45865" data-name="Path 45865" d="M612.311,439.922a4.026,4.026,0,0,0-.638-.622,3.785,3.785,0,0,0-.813-.36,1.533,1.533,0,0,1,1.451.982Z" transform="translate(-545.076 -236.553)" fill="#263238"/>
      <path id="Path_45866" data-name="Path 45866" d="M616.475,435.789a1.954,1.954,0,0,1-.426-.207c-.218-.142-.376-.278-.36-.306s.207.065.426.207S616.491,435.762,616.475,435.789Z" transform="translate(-547.27 -234.886)" fill="#263238"/>
      <path id="Path_45867" data-name="Path 45867" d="M617.474,434.793c0,.027-.186,0-.4-.065s-.371-.147-.366-.18a.813.813,0,0,1,.4.065C617.321,434.662,617.485,434.738,617.474,434.793Z" transform="translate(-547.734 -234.555)" fill="#263238"/>
      <path id="Path_45868" data-name="Path 45868" d="M617.5,433.08a1.273,1.273,0,0,1-.431.267,1.151,1.151,0,0,1-.475.158,1.286,1.286,0,0,1,.426-.267A1.189,1.189,0,0,1,617.5,433.08Z" transform="translate(-547.68 -233.89)" fill="#263238"/>
      <path id="Path_45869" data-name="Path 45869" d="M617.228,431.9a1.485,1.485,0,0,1-.442.376.949.949,0,0,1-.546.164,2.882,2.882,0,0,1,.5-.267C617,432.023,617.2,431.87,617.228,431.9Z" transform="translate(-547.521 -233.351)" fill="#263238"/>
      <path id="Path_45870" data-name="Path 45870" d="M614.45,434.753a1.768,1.768,0,0,1-.546.251,4.284,4.284,0,0,1-.655.136,1.634,1.634,0,0,1-.4,0,.322.322,0,0,1-.218-.109.24.24,0,0,1,0-.262,1.124,1.124,0,0,1,1.4-.273,1.092,1.092,0,0,1,.349.289c.065.087.093.142.087.147a1.637,1.637,0,0,0-.475-.366,1.091,1.091,0,0,0-.617-.093.955.955,0,0,0-.644.349c-.06.1,0,.191.147.207a2.178,2.178,0,0,0,.376,0,4.3,4.3,0,0,0,.644-.115C614.21,434.83,614.45,434.737,614.45,434.753Z" transform="translate(-545.862 -234.472)" fill="#263238"/>
      <path id="Path_45871" data-name="Path 45871" d="M615.481,434.137a.606.606,0,0,1-.24-.36,1.026,1.026,0,0,1-.033-.475.617.617,0,0,1,.338-.5c.136-.044.453.235.475.338s-.158.049-.169.136a1.9,1.9,0,0,1-.109.453.851.851,0,0,1-.218.371,4,4,0,0,0,.142-.393,2.8,2.8,0,0,0,.082-.442c0-.153,0-.387-.175-.349s-.224.251-.262.4a.943.943,0,0,0,0,.431A2.384,2.384,0,0,0,615.481,434.137Z" transform="translate(-547.046 -233.764)" fill="#263238"/>
      <path id="Path_45872" data-name="Path 45872" d="M630.644,426.36a3.873,3.873,0,0,0-.633.316,2.973,2.973,0,0,0-1.451,2.848c.033.436.136.688.115.7a.69.69,0,0,1-.082-.175,2.831,2.831,0,0,1-.115-.513,2.886,2.886,0,0,1,1.49-2.924,2.6,2.6,0,0,1,.486-.207.671.671,0,0,1,.191-.044Z" transform="translate(-553.07 -230.837)" fill="#263238"/>
      <path id="Path_45873" data-name="Path 45873" d="M624.067,432.9a7.792,7.792,0,0,1-2.537,1.157c0-.033.573-.251,1.271-.546S624.051,432.871,624.067,432.9Z" transform="translate(-549.925 -233.807)" fill="#263238"/>
      <path id="Path_45874" data-name="Path 45874" d="M629.2,431.469c.027,0,0,.136,0,.295v.3a.445.445,0,0,1-.109-.3C629.09,431.583,629.172,431.452,629.2,431.469Z" transform="translate(-553.36 -233.158)" fill="#263238"/>
      <path id="Path_45875" data-name="Path 45875" d="M629.645,429.469c.027,0,0,.125-.033.256s-.115.229-.142.218,0-.125.033-.256S629.613,429.458,629.645,429.469Z" transform="translate(-553.528 -232.249)" fill="#263238"/>
      <path id="Path_45876" data-name="Path 45876" d="M630.827,428c0,.033-.109.082-.218.186s-.169.213-.2.2,0-.164.12-.289A.358.358,0,0,1,630.827,428Z" transform="translate(-553.956 -231.58)" fill="#263238"/>
      <path id="Path_45877" data-name="Path 45877" d="M632.046,427.174a.218.218,0,0,1-.065.147c-.065.06-.125.093-.147.071s0-.087.065-.147S632.024,427.153,632.046,427.174Z" transform="translate(-554.603 -231.204)" fill="#263238"/>
      <path id="Path_45878" data-name="Path 45878" d="M581.825,191.81l-1.593-19.478,8.184.147s.376-2.875-.829-9.172a10.628,10.628,0,0,0-6.2-7.638v-.055l-.251-.065a23.368,23.368,0,0,0-7.508-1.959l-10.066.115s-7.688-.982-11.927,4.523c-1.637,2.111-6.716,16.565-6.716,16.565l12.085,5.816-1.129-8.015s.229,5.811.971,7.638c.409,1.026,1.637,4.212,1.637,4.212l-.158,9.614Z" transform="translate(-515.114 -106.892)" fill="#ff725e"/>
      <path id="Path_45879" data-name="Path 45879" d="M601.145,179.17l-1.495,6.362h14.093l-.927-10.672Z" transform="translate(-539.983 -116.557)" fill="#ff725e"/>
      <path id="Path_45880" data-name="Path 45880" d="M614.847,194.169a11.3,11.3,0,0,0-1.866-.186c-1.157-.065-2.728-.126-4.518-.115s-3.366.087-4.523.175a10.694,10.694,0,0,0-1.861.229,11.82,11.82,0,0,0,1.877,0c1.151-.038,2.728-.082,4.507-.087s3.355,0,4.512.027A11.81,11.81,0,0,0,614.847,194.169Z" transform="translate(-541.087 -125.194)" fill="#263238"/>
      <path id="Path_45881" data-name="Path 45881" d="M601.216,174.77a8.5,8.5,0,0,0-.044,1.637c0,1,.044,2.373.1,3.9s.131,2.9.2,3.9a8.133,8.133,0,0,0,.175,1.637,8.53,8.53,0,0,0,.044-1.637c0-1-.044-2.379-.1-3.9s-.131-2.9-.2-3.9A8.026,8.026,0,0,0,601.216,174.77Z" transform="translate(-540.665 -116.516)" fill="#263238"/>
      <g id="Group_28380" data-name="Group 28380" transform="translate(47.73 63.765)" opacity="0.3">
        <path id="Path_45882" data-name="Path 45882" d="M577.77,184.87s3.132,23.226,11.938,22.61c0,0,3.967-.044,5.238-2.679v-1.037Z" transform="translate(-577.77 -184.87)"/>
      </g>
      <g id="Group_28381" data-name="Group 28381" transform="translate(58.865 59.624)" opacity="0.3">
        <path id="Path_45883" data-name="Path 45883" d="M599.866,177.28l-1.686,11.387,1.091,2,1.8-3.907-.764-.022Z" transform="translate(-598.18 -177.28)"/>
      </g>
      <path id="Path_45884" data-name="Path 45884" d="M567.327,197.887a2.182,2.182,0,0,1-.24-.546c-.136-.355-.316-.873-.546-1.522a47,47,0,0,1-1.348-5.156,36.56,36.56,0,0,1-.666-5.287c-.033-.682-.044-1.233-.033-1.637a2.179,2.179,0,0,1,.038-.589c.044,0,.076.84.191,2.182a48.551,48.551,0,0,0,.747,5.243c.4,2.03.889,3.847,1.26,5.151.175.606.322,1.124.442,1.549a2.667,2.667,0,0,1,.153.611Z" transform="translate(-524.006 -120.324)" fill="#263238"/>
      <path id="Path_45885" data-name="Path 45885" d="M575.625,220.482a2.818,2.818,0,0,1-.486-1.091,2.62,2.62,0,0,1-.213-1.2,2.848,2.848,0,0,1,.486,1.118A2.727,2.727,0,0,1,575.625,220.482Z" transform="translate(-528.746 -136.245)" fill="#263238"/>
      <path id="Path_45886" data-name="Path 45886" d="M578.171,219.395a5.019,5.019,0,0,1-.049-3.4,11.352,11.352,0,0,1,0,1.7A11.213,11.213,0,0,1,578.171,219.395Z" transform="translate(-530.076 -135.246)" fill="#263238"/>
      <path id="Path_45887" data-name="Path 45887" d="M557.164,198.422c-.038.065-2.848-1.266-6.28-2.979s-6.187-3.165-6.154-3.235,2.848,1.266,6.28,2.979S557.2,198.351,557.164,198.422Z" transform="translate(-515.027 -124.438)" fill="#263238"/>
      <path id="Path_45888" data-name="Path 45888" d="M573.1,135.042c.06-2.761.076-5.663.076-5.663s-3.541-.682-4.158-5.341c-.589-4.441,1.058-14.868,1.058-14.868h0c5.172-1.953,10.547-.18,14.088,4.01h0l-.878,22.408a4.813,4.813,0,0,1-5.205,4.458h0A5.086,5.086,0,0,1,573.1,135.042Z" transform="translate(-526.004 -86.347)" fill="#b78876"/>
      <path id="Path_45889" data-name="Path 45889" d="M570.56,124.645a.6.6,0,0,0,.546.617.573.573,0,0,0,.627-.546.6.6,0,0,0-.546-.611.546.546,0,0,0-.627.54Z" transform="translate(-526.764 -93.491)" fill="#263238"/>
      <path id="Path_45890" data-name="Path 45890" d="M570.152,123.174c.071.076.546-.246,1.173-.224s1.091.349,1.168.273-.033-.175-.235-.333a1.637,1.637,0,0,0-.938-.311,1.533,1.533,0,0,0-.933.273C570.184,123,570.114,123.136,570.152,123.174Z" transform="translate(-526.574 -92.8)" fill="#263238"/>
      <path id="Path_45891" data-name="Path 45891" d="M582.47,125.385a.6.6,0,0,0,.546.617.546.546,0,0,0,.627-.546.589.589,0,0,0-.546-.611.546.546,0,0,0-.628.54Z" transform="translate(-532.176 -93.827)" fill="#263238"/>
      <path id="Path_45892" data-name="Path 45892" d="M582.384,123.914c.071.082.546-.24,1.173-.224s1.091.349,1.173.273-.038-.175-.24-.327a1.566,1.566,0,0,0-.933-.316,1.588,1.588,0,0,0-.938.273C582.422,123.74,582.351,123.876,582.384,123.914Z" transform="translate(-532.133 -93.136)" fill="#263238"/>
      <path id="Path_45893" data-name="Path 45893" d="M576.568,128.565a4.125,4.125,0,0,0-1.037-.213c-.164,0-.316-.06-.338-.169a.8.8,0,0,1,.12-.486l.513-1.228A21.341,21.341,0,0,0,577,123.24a21.62,21.62,0,0,0-1.429,3.126c-.169.431-.338.846-.5,1.239a.955.955,0,0,0-.1.638.409.409,0,0,0,.262.251,1.12,1.12,0,0,0,.278.044A4.163,4.163,0,0,0,576.568,128.565Z" transform="translate(-528.763 -93.101)" fill="#263238"/>
      <path id="Path_45894" data-name="Path 45894" d="M576.74,145.62a11.818,11.818,0,0,0,6.253-1.5s-1.588,3.148-6.22,2.6Z" transform="translate(-529.572 -102.588)" fill="#a36957"/>
      <path id="Path_45895" data-name="Path 45895" d="M584.265,120.268c-.131.2-.622.115-1.168,0s-1.026-.207-1.091-.442.507-.546,1.239-.4S584.4,120.094,584.265,120.268Z" transform="translate(-531.963 -91.351)" fill="#263238"/>
      <path id="Path_45896" data-name="Path 45896" d="M572.5,118.88c-.049.235-.573.322-1.173.349s-1.129,0-1.2-.24.436-.578,1.162-.611S572.547,118.656,572.5,118.88Z" transform="translate(-526.563 -90.89)" fill="#263238"/>
      <path id="Path_45897" data-name="Path 45897" d="M577.6,135.785a.316.316,0,0,0-.355.164.359.359,0,1,0,.218-.18" transform="translate(-529.779 -98.788)" fill="#a36957"/>
      <path id="Path_45898" data-name="Path 45898" d="M577.574,135.814c0-.027-.1-.186-.382-.125a.491.491,0,0,0-.349.344.523.523,0,0,0,.807.578.458.458,0,0,0,.2-.453c-.055-.289-.267-.333-.278-.295s.076.136.06.306a.256.256,0,0,1-.131.2.278.278,0,0,1-.278,0,.289.289,0,0,1-.1-.267.267.267,0,0,1,.147-.2C577.421,135.809,577.558,135.852,577.574,135.814Z" transform="translate(-529.61 -98.751)" fill="#263238"/>
      <path id="Path_45899" data-name="Path 45899" d="M582.83,115.637c-.546,1.277-1.9,2.264-1.713,3.645.12.889.693,1.719.584,2.613-.142,1.091-1.3,1.9-1.473,3.017-.2,1.369,1.135,2.433,1.664,3.71.78,1.866-.213,3.961-.24,6a6.406,6.406,0,0,0,5.674,6.231,3.408,3.408,0,0,0,3.274-1.342c.546-.884.426-2.008.742-2.984.48-1.462,1.871-2.532,2.182-4.037.546-2.728-2.783-5.02-2.564-7.813.093-1.195.829-2.232,1.14-3.388a4.976,4.976,0,0,0-.971-4.414c-.824-.977-2.013-1.637-2.728-2.684-.791-1.206-.818-2.728-1.091-4.152a10.465,10.465,0,0,0-16.619-6.127,3.4,3.4,0,0,0,2.9,4.2c3.694.606,5.4-.093,5.816,1.386a3.907,3.907,0,0,0,1.091,3.377C582.007,114.5,583.442,114.153,582.83,115.637Z" transform="translate(-526.791 -83.332)" fill="#263238"/>
      <path id="Path_45900" data-name="Path 45900" d="M598.656,148.937a1.3,1.3,0,0,1-.338-.033,5.335,5.335,0,0,1-.938-.256,6.661,6.661,0,0,1-2.859-2.111,7.561,7.561,0,0,1-1.211-2.182,8.648,8.648,0,0,1-.5-2.8,11.563,11.563,0,0,1,.393-3.115,13.342,13.342,0,0,1,.546-1.577,16.141,16.141,0,0,0,.595-1.566,2.915,2.915,0,0,0,0-1.6,8.893,8.893,0,0,0-.617-1.495,9.824,9.824,0,0,1-.638-1.479,3.192,3.192,0,0,1-.115-1.566,11.1,11.1,0,0,1,1.211-2.57,4.861,4.861,0,0,0,.491-2.324,5.483,5.483,0,0,0-1.217-3.219,9.588,9.588,0,0,0-.922-.9,3.73,3.73,0,0,1,1.009.829,5.456,5.456,0,0,1,1.331,3.274,5.042,5.042,0,0,1-.48,2.433,11.269,11.269,0,0,0-1.168,2.515,4.655,4.655,0,0,0,.742,2.875,8.494,8.494,0,0,1,.644,1.544,3.213,3.213,0,0,1,0,1.746,17.1,17.1,0,0,1-.627,1.62,12.844,12.844,0,0,0-.546,1.544,11.245,11.245,0,0,0-.4,3.039,7.889,7.889,0,0,0,1.6,4.845,6.7,6.7,0,0,0,2.728,2.133C598.193,148.855,598.662,148.9,598.656,148.937Z" transform="translate(-536.752 -91.692)" fill="#455a64"/>
      <path id="Path_45901" data-name="Path 45901" d="M589.227,114.413a3.856,3.856,0,0,1-.813.12,8.461,8.461,0,0,1-2.248-.06,4.283,4.283,0,0,1-2.837-1.719,9.275,9.275,0,0,1-.742-1.833,3.044,3.044,0,0,0-1.244-1.533,8.792,8.792,0,0,0-3.819-1,6.662,6.662,0,0,1-3.181-.993,3.148,3.148,0,0,1-1.3-1.817,1.828,1.828,0,0,1-.038-.617c0-.142.033-.213.044-.213a3.865,3.865,0,0,0,.1.8,3.121,3.121,0,0,0,1.309,1.68,6.6,6.6,0,0,0,3.094.895,8.9,8.9,0,0,1,3.95,1.02,3.317,3.317,0,0,1,1.353,1.675,9.127,9.127,0,0,0,.7,1.79,4.119,4.119,0,0,0,2.652,1.637,9.416,9.416,0,0,0,2.182.147A5.519,5.519,0,0,1,589.227,114.413Z" transform="translate(-527.869 -84.699)" fill="#455a64"/>
      <path id="Path_45902" data-name="Path 45902" d="M588.695,109.408a1.817,1.817,0,0,1-.638.093,3.89,3.89,0,0,1-2.728-1.091,5.011,5.011,0,0,1-.846-1.129A4.7,4.7,0,0,0,582.5,105a6.547,6.547,0,0,0-3.055-.267,9.373,9.373,0,0,1-2.608,0,3.274,3.274,0,0,1-1.637-.72,1.815,1.815,0,0,1-.316-.36q-.1-.142-.082-.147a3.641,3.641,0,0,0,.469.42,3.437,3.437,0,0,0,1.577.611,9.9,9.9,0,0,0,2.553-.044,6.547,6.547,0,0,1,3.192.273,3.137,3.137,0,0,1,1.3,1.091,14.045,14.045,0,0,1,.791,1.32,5.2,5.2,0,0,0,.791,1.091,3.819,3.819,0,0,0,.933.693,4.049,4.049,0,0,0,1.637.453A4.208,4.208,0,0,1,588.695,109.408Z" transform="translate(-528.689 -84.136)" fill="#455a64"/>
      <path id="Path_45903" data-name="Path 45903" d="M603.522,149.04c-.027,0,.147-.36.349-1.037a9.386,9.386,0,0,0,.36-2.924,8.9,8.9,0,0,0-1.162-4.163c-.4-.715-1-1.353-1.5-2.139a3.821,3.821,0,0,1-.546-1.315,2.94,2.94,0,0,1,.12-1.473,17.484,17.484,0,0,0,.971-2.6,3.771,3.771,0,0,0-.709-2.362,11.609,11.609,0,0,1-.584-1.091,3.993,3.993,0,0,1-.311-1.14,9.886,9.886,0,0,1,.066-2.079,5.517,5.517,0,0,0-.262-2.9,2.641,2.641,0,0,0-.644-.851.114.114,0,0,1,.065.033.666.666,0,0,1,.175.125,1.948,1.948,0,0,1,.507.649,5.39,5.39,0,0,1,.355,2.963,10.459,10.459,0,0,0-.027,2.035,5.237,5.237,0,0,0,.884,2.117,7.258,7.258,0,0,1,.595,1.162,2.728,2.728,0,0,1,.164,1.375,16.066,16.066,0,0,1-.977,2.652,2.728,2.728,0,0,0-.115,1.337,3.634,3.634,0,0,0,.513,1.217c.464.758,1.091,1.408,1.49,2.155a9,9,0,0,1,1.135,4.294,8.828,8.828,0,0,1-.458,2.963,5.69,5.69,0,0,1-.316.753,1,1,0,0,1-.136.251Z" transform="translate(-539.992 -92.974)" fill="#455a64"/>
      <path id="Path_45904" data-name="Path 45904" d="M562.756,295.251s-3.677-34.831-3.89-47.7,5.789-25.573,5.789-25.573l23.5-.977s4.649,13.056,4.73,18.551c.164,10.661-2.832,21.186-2.488,29.643l.786,26.08" transform="translate(-521.448 -137.522)" fill="#263238"/>
      <path id="Path_45905" data-name="Path 45905" d="M594.546,278.6a3.75,3.75,0,0,1-.387.295l-.213.147-.229.224a3.773,3.773,0,0,0-.546.584,13.077,13.077,0,0,0-1.839,4.659,15.66,15.66,0,0,1-1.189,3.317,5.8,5.8,0,0,1-.546.824c-.1.131-.191.273-.306.4l-.36.36a5.844,5.844,0,0,1-1.768,1.135c-1.315.578-2.8.851-4.157,1.533a6.547,6.547,0,0,0-3.017,3.437c-.666,1.479-1.091,3.028-1.637,4.479a8.075,8.075,0,0,1-2.455,3.721,6.743,6.743,0,0,1-3.819,1.206c-1.266.076-2.439.038-3.492.2a5.516,5.516,0,0,0-2.63.993,3.688,3.688,0,0,0-1.222,1.724,2.618,2.618,0,0,0-.093,1.337c.065.306.147.453.131.458a1.373,1.373,0,0,1-.186-.447,2.5,2.5,0,0,1,.044-1.38,3.71,3.71,0,0,1,1.228-1.817,5.592,5.592,0,0,1,2.728-1.091c1.091-.175,2.253-.153,3.5-.235a6.547,6.547,0,0,0,3.7-1.178,7.922,7.922,0,0,0,2.352-3.612c.546-1.435.944-2.99,1.637-4.5a6.82,6.82,0,0,1,3.154-3.574c1.408-.7,2.9-.966,4.179-1.522a5.723,5.723,0,0,0,1.7-1.091l.344-.344c.109-.12.2-.256.3-.382a5.264,5.264,0,0,0,.507-.791,15.646,15.646,0,0,0,1.206-3.274,12.667,12.667,0,0,1,1.942-4.681,3.554,3.554,0,0,1,.546-.578c.087-.076.164-.153.24-.213l.224-.142A3.777,3.777,0,0,1,594.546,278.6Z" transform="translate(-524.015 -163.695)" fill="#fafafa"/>
      <path id="Path_45906" data-name="Path 45906" d="M592.843,249.06a2.549,2.549,0,0,1,.033.464,5.716,5.716,0,0,1-.164,1.337,8.593,8.593,0,0,1-2.657,4.1,15.786,15.786,0,0,1-2.728,2.013c-1.053.622-2.215,1.217-3.41,1.893a17.618,17.618,0,0,0-3.481,2.45,13.443,13.443,0,0,0-2.641,3.7,33.9,33.9,0,0,1-2.286,4.032,9.634,9.634,0,0,1-1.495,1.637,9.021,9.021,0,0,1-1.806,1.195,21.772,21.772,0,0,1-3.65,1.4,32.738,32.738,0,0,0-3.208,1.091,12.28,12.28,0,0,0-2.444,1.309,7.567,7.567,0,0,0-1.533,1.413,7.01,7.01,0,0,0-.922,1.528,2.882,2.882,0,0,1,.153-.442,5.457,5.457,0,0,1,.682-1.157,7.349,7.349,0,0,1,1.528-1.473,12.453,12.453,0,0,1,2.461-1.364,32.738,32.738,0,0,1,3.214-1.118,22.575,22.575,0,0,0,3.6-1.408,9.3,9.3,0,0,0,1.719-1.157,9.679,9.679,0,0,0,1.44-1.6,35.089,35.089,0,0,0,2.264-4,13.547,13.547,0,0,1,2.728-3.776,17.583,17.583,0,0,1,3.546-2.477c1.2-.671,2.362-1.255,3.415-1.871a15.753,15.753,0,0,0,2.728-1.953,8.654,8.654,0,0,0,2.684-3.988,8.34,8.34,0,0,0,.229-1.779Z" transform="translate(-522.17 -150.273)" fill="#fafafa"/>
      <path id="Path_45907" data-name="Path 45907" d="M558.914,249.2a.411.411,0,0,1-.049-.109,2.847,2.847,0,0,1-.1-.322,2.608,2.608,0,0,1,.055-1.309,5.405,5.405,0,0,1,3.454-3.186c.971-.333,2.068-.546,3.214-.829a6.051,6.051,0,0,0,4.447-3.312,17.534,17.534,0,0,0,.813-1.959,21.349,21.349,0,0,1,1.73-4.185,6.667,6.667,0,0,1,3.557-2.766,32.307,32.307,0,0,1,4.087-1.037,13.546,13.546,0,0,0,3.552-1.211,7.475,7.475,0,0,0,2.4-2.182,8.118,8.118,0,0,0,1.528-4.419,12.54,12.54,0,0,0-.115-1.746,5.682,5.682,0,0,1,.224,1.746,8.037,8.037,0,0,1-1.473,4.534,7.55,7.55,0,0,1-2.45,2.253,13.6,13.6,0,0,1-3.606,1.26,32.509,32.509,0,0,0-4.048,1.042,6.406,6.406,0,0,0-3.416,2.657A21.387,21.387,0,0,0,571,238.248a16.987,16.987,0,0,1-.835,1.991,7.207,7.207,0,0,1-1.222,1.691,7.093,7.093,0,0,1-3.41,1.719c-1.157.295-2.248.48-3.2.8a5.286,5.286,0,0,0-3.416,3.028,2.765,2.765,0,0,0-.1,1.266,2.734,2.734,0,0,1,.1.464Z" transform="translate(-521.376 -137.354)" fill="#fafafa"/>
      <path id="Path_45908" data-name="Path 45908" d="M593.35,327a2.085,2.085,0,0,1,.038.344,3.62,3.62,0,0,1-.1.982,5.57,5.57,0,0,1-2.062,2.946,9.1,9.1,0,0,1-2.182,1.288c-.835.355-1.757.638-2.728.938a22.546,22.546,0,0,0-2.952,1.091,8.431,8.431,0,0,0-2.624,1.959c-.8.829-1.484,1.74-2.248,2.548a10.24,10.24,0,0,1-2.515,1.964,11.081,11.081,0,0,1-5.189,1.353,10.333,10.333,0,0,1-3.568-.595,6.811,6.811,0,0,1-.906-.387,1.434,1.434,0,0,1-.3-.169,2.317,2.317,0,0,1,.322.115,9.668,9.668,0,0,0,.917.338,10.912,10.912,0,0,0,3.536.5,11.027,11.027,0,0,0,5.063-1.38,10.192,10.192,0,0,0,2.439-1.926c.748-.8,1.43-1.7,2.242-2.553a8.763,8.763,0,0,1,2.772-2.019,22.585,22.585,0,0,1,3-1.091,28.55,28.55,0,0,0,2.728-.906,9.149,9.149,0,0,0,2.128-1.228,5.565,5.565,0,0,0,2.079-2.815,6.937,6.937,0,0,0,.12-1.293Z" transform="translate(-524.697 -185.688)" fill="#fafafa"/>
      <path id="Path_45909" data-name="Path 45909" d="M591.68,171.672l-4.55.109a7.36,7.36,0,0,1-1.026,2.581,77.776,77.776,0,0,1-7.48-18.993c.109-.355.235-.747.393-1.184a5.043,5.043,0,0,0-.06-2c-.131-.791-.349-1.855-.415-2.346-.2-1.506-.447-1.74-.971-1.571-.709.235.295,4.218-.289,4.3-.317.044-.7-1.32-.807-2.439s-.622-4.567-.988-4.8c-.546-.338-1.02.2-.878,1.309s.311,4.5-.278,4.545-1.091-5.669-1.091-5.669.093-1.244-.595-1.217c-1.233.055-.267,6.078-.164,6.651.076.393-.546.469-.622.038s-.36-5.712-1.637-5.669c-.971,0,.747,4.96.2,6.105s-.917-3.885-1.839-3.819c-.344.027-.6.093.033,2.935a64.5,64.5,0,0,0,2.182,6.662c1.462,7.884,7.879,33.107,17.934,28.492,5.631-2.586,7.911-14.033,7.911-14.033Z" transform="translate(-525.706 -102.674)" fill="#b78876"/>
      <path id="Path_45910" data-name="Path 45910" d="M575.551,151.32a.267.267,0,0,0,.131,0,.289.289,0,0,0,.2-.316c0-.338-.065-.829-.142-1.468a20.482,20.482,0,0,1-.251-2.324c0-.458,0-.949.027-1.468a5.4,5.4,0,0,1,.082-.786c.044-.246.207-.546.4-.5h.033a.436.436,0,0,1,.4.371,2.14,2.14,0,0,1,.076.731h0a42.561,42.561,0,0,0,.584,4.556c.044.2.087.409.153.617a2.335,2.335,0,0,0,.109.311,1.734,1.734,0,0,0,.093.164.3.3,0,0,0,.229.142.4.4,0,0,0,.344-.289,1.565,1.565,0,0,0,.1-.333,5.551,5.551,0,0,0,.087-.666,19.881,19.881,0,0,0-.038-2.728,6.168,6.168,0,0,1-.055-1.369.764.764,0,0,1,.267-.507.289.289,0,0,1,.235-.027.448.448,0,0,1,.131.055.175.175,0,0,1,.06.082,6.956,6.956,0,0,1,.377,1.369c.1.48.18.977.256,1.473s.147,1,.207,1.506a11.123,11.123,0,0,0,.251,1.555,6.011,6.011,0,0,0,.246.769,1.446,1.446,0,0,0,.229.387.322.322,0,0,0,.322.12.338.338,0,0,0,.224-.246,2.73,2.73,0,0,0,.06-.851,7.823,7.823,0,0,0-.06-.807c-.038-.458-.082-.911-.1-1.359a5.271,5.271,0,0,1,0-.66,1.092,1.092,0,0,1,.071-.284.266.266,0,0,1,.049-.082h.071c.36-.147.48.355.578.758s.136.862.224,1.293c.142.857.327,1.713.42,2.532a3.017,3.017,0,0,1-.044,1.179c-.131.393-.262.78-.387,1.168v.071a62.831,62.831,0,0,0,2.439,7.889c.862,2.33,1.729,4.365,2.488,6s1.446,2.919,1.915,3.781l.546.977a1.833,1.833,0,0,0,.213.327,2.186,2.186,0,0,0-.169-.349l-.546-1c-.447-.878-1.091-2.182-1.833-3.819s-1.582-3.672-2.422-6a65.153,65.153,0,0,1-2.39-7.868v.076c.125-.382.251-.769.382-1.157a3.123,3.123,0,0,0,.065-1.3c-.1-.857-.278-1.686-.42-2.548-.082-.426-.136-.862-.224-1.309a2.4,2.4,0,0,0-.115-.677.644.644,0,0,0-.3-.306.693.693,0,0,0-.431,0h-.087a.354.354,0,0,0-.125.071.481.481,0,0,0-.136.191,1.233,1.233,0,0,0-.093.371,5.142,5.142,0,0,0,0,.709c0,.458.065.917.1,1.375,0,.267.044.546.055.791a2.653,2.653,0,0,1-.038.737c0,.055-.044.044,0,.071h0l-.033-.033a1.091,1.091,0,0,1-.164-.295,5.364,5.364,0,0,1-.235-.726,10.149,10.149,0,0,1-.246-1.511q-.087-.769-.213-1.522c-.076-.5-.164-.993-.262-1.484a6.643,6.643,0,0,0-.415-1.457.464.464,0,0,0-.169-.191.944.944,0,0,0-.2-.087.605.605,0,0,0-.464.065,1.02,1.02,0,0,0-.4.709,2.648,2.648,0,0,0,0,.747c0,.235.055.464.071.693a20.186,20.186,0,0,1,.049,2.684,4.659,4.659,0,0,1-.082.633,1.215,1.215,0,0,1-.082.284.333.333,0,0,1-.06.1c0,.049-.038,0-.033.065V151.1a1.09,1.09,0,0,1-.065-.115c-.038-.087-.071-.186-.1-.278-.06-.2-.1-.4-.147-.595a43.346,43.346,0,0,1-.617-4.518h0a2.375,2.375,0,0,0-.093-.813.764.764,0,0,0-.213-.36.546.546,0,0,0-.4-.153h.033a.475.475,0,0,0-.475.224,1.207,1.207,0,0,0-.164.426,5.507,5.507,0,0,0-.076.818v1.484a19.022,19.022,0,0,0,.3,2.335c.093.633.164,1.124.2,1.457a.256.256,0,0,1-.158.284A.825.825,0,0,0,575.551,151.32Z" transform="translate(-528.973 -102.652)" fill="#a36957"/>
      <path id="Path_45911" data-name="Path 45911" d="M501.333,208.228a11.682,11.682,0,0,0-3.159.366c-2.821.742-7.682,3.688-7.884,7.327h3.536s-1.981,4.212-1.4,3.819a45.42,45.42,0,0,0,4.512-4.065Z" transform="translate(-490.29 -131.717)" fill="#b78876"/>
      <path id="Path_45912" data-name="Path 45912" d="M597.887,81.095c-.082,0-.4-2.914-.715-6.547S596.66,68,596.736,68s.4,2.914.715,6.547S597.964,81.095,597.887,81.095Z" transform="translate(-538.651 -68)" fill="#263238"/>
      <path id="Path_45913" data-name="Path 45913" d="M618.195,68.41c.06.044-2.324,3.508-5.331,7.737s-5.5,7.638-5.565,7.573,2.324-3.508,5.331-7.737S618.129,68.366,618.195,68.41Z" transform="translate(-543.458 -68.186)" fill="#263238"/>
      <path id="Path_45914" data-name="Path 45914" d="M628.66,97.184c0,.076-2.772.715-6.22,1.424s-6.264,1.222-6.28,1.146,2.766-.715,6.22-1.424S628.622,97.107,628.66,97.184Z" transform="translate(-547.484 -81.257)" fill="#263238"/>
    </g>
    <g id="freepik--Folder--inject-137" transform="translate(133.412 102.688)">
      <path id="Path_45915" data-name="Path 45915" d="M280.824,228.974,261.51,328.165,259,341.15l128.763-.622c5.783-.027,10.912-5.161,12.762-12.789L423.364,234.1c1.413-5.789-1.686-11.812-6.073-11.807l-130.356.136C284.1,222.421,281.555,225.105,280.824,228.974Z" transform="translate(-211.872 -203.696)" fill="#ff725e"/>
      <g id="Group_28382" data-name="Group 28382" transform="translate(47.128 18.594)" opacity="0.5">
        <path id="Path_45916" data-name="Path 45916" d="M280.824,228.974,261.51,328.165,259,341.15l128.763-.622c5.783-.027,10.912-5.161,12.762-12.789L423.364,234.1c1.413-5.789-1.686-11.812-6.073-11.807l-130.356.136C284.1,222.421,281.555,225.105,280.824,228.974Z" transform="translate(-259 -222.29)"/>
      </g>
      <path id="Path_45917" data-name="Path 45917" d="M336.177,305.946l-13.64-109.89a8.633,8.633,0,0,0-8.38-7.846l-29.9.093a8.184,8.184,0,0,0-5.909,2.619l-14.186,15.1-83.15.447c-5.08.027-8.986,4.84-8.315,10.241l12.664,101.564a8.644,8.644,0,0,0,8.37,7.846l144.94-.289c16.139.333,17.683-4.43,17.683-4.43C337.825,325.5,336.177,305.973,336.177,305.946Z" transform="translate(-172.622 -188.21)" fill="#ff725e"/>
      <g id="Group_28383" data-name="Group 28383" transform="translate(58.52 60.726)" opacity="0.5">
        <path id="Path_45918" data-name="Path 45918" d="M322.415,335.511l-4.889,5.249L279.88,306.889l4.889-5.249Z" transform="translate(-279.88 -300.478)" fill="#fff"/>
        <path id="Path_45919" data-name="Path 45919" d="M316.758,299.51l5.4,4.861L288.1,340.954l-5.407-4.861Z" transform="translate(-281.157 -299.51)" fill="#fff"/>
      </g>
    </g>
    <g id="freepik--speech-bubble--inject-137" transform="translate(300.055 31.726)">
      <path id="Path_45920" data-name="Path 45920" d="M506.595,91.38a1.009,1.009,0,0,1-.617-.889l-.218-5.063a1.015,1.015,0,0,1,1.249-1.037,3.175,3.175,0,0,0,2.466-.486,2.843,2.843,0,0,0,1.271-1.866,2.908,2.908,0,0,0-.611-2.182,3.274,3.274,0,0,0-2.15-1.293,3.819,3.819,0,0,0-3.874,2.728,1.02,1.02,0,0,1-1.964-.546,5.871,5.871,0,0,1,6.073-4.239,5.27,5.27,0,0,1,3.541,2.09,4.981,4.981,0,0,1,1,3.748,4.91,4.91,0,0,1-2.182,3.23,5.3,5.3,0,0,1-2.761.9l.169,3.907a1.02,1.02,0,0,1-1.419.977Z" transform="translate(-488.988 -66.483)" fill="#ff725e"/>
      <path id="Path_45921" data-name="Path 45921" d="M511.671,106.933a.829.829,0,1,1-.283-.573A.835.835,0,0,1,511.671,106.933Z" transform="translate(-492.569 -79.962)" fill="#ff725e"/>
      <path id="Path_45922" data-name="Path 45922" d="M478.126,75.9a2.564,2.564,0,0,0,.049-.327c0-.24.06-.546.1-.977a11.825,11.825,0,0,1,.267-1.571c.071-.306.109-.644.218-.988s.218-.715.338-1.091a18.818,18.818,0,0,1,2.728-5.2,18.278,18.278,0,0,1,5.734-4.987,18.005,18.005,0,0,1,4.043-1.67,18.306,18.306,0,0,1,4.665-.611,18.091,18.091,0,0,1,2.482.131c.42.044.835.153,1.255.224a9.343,9.343,0,0,1,1.255.306,17.46,17.46,0,0,1,4.85,2.2,18.245,18.245,0,0,1,7.213,9.057,17.862,17.862,0,0,1,1.091,6.225,17.547,17.547,0,0,1-1.14,6.405l-.246.622-.033.082.033.082c1.37,3.148,2.728,6.242,4.01,9.237l.229-.262-8.184-3.137-.1-.038-.082.076a17.99,17.99,0,0,1-22.446,2.166,18.644,18.644,0,0,1-4.6-4.283,18.119,18.119,0,0,1-3.492-8.37c-.065-.546-.12-1-.169-1.419s0-.753-.027-1.042a4.866,4.866,0,0,1,0-.638.109.109,0,1,0-.033,0V77.8c0,.415.093.889.147,1.429a19.517,19.517,0,0,0,.933,3.852,19.975,19.975,0,0,0,2.5,4.638,18.807,18.807,0,0,0,4.632,4.365,18.169,18.169,0,0,0,22.768-2.106l-.18.038,8.184,3.154.409.158-.18-.42c-1.3-3-2.641-6.084-4-9.237v.158l.251-.638a17.841,17.841,0,0,0,1.168-6.547,18.251,18.251,0,0,0-1.091-6.362,18.551,18.551,0,0,0-7.371-9.226,17.622,17.622,0,0,0-4.976-2.237,8.671,8.671,0,0,0-1.277-.3c-.426-.076-.846-.186-1.271-.224a18.764,18.764,0,0,0-2.515-.142,18.31,18.31,0,0,0-4.736.644,18.654,18.654,0,0,0-4.1,1.713,18.315,18.315,0,0,0-5.767,5.1,18.66,18.66,0,0,0-2.69,5.281c-.115.393-.224.769-.322,1.091a9.6,9.6,0,0,0-.207,1,10.364,10.364,0,0,0-.229,1.582c-.033.42-.055.742-.071.982A1.383,1.383,0,0,0,478.126,75.9Z" transform="translate(-478.05 -58.148)" fill="#263238"/>
    </g>
  </g>
</svg>
