<svg xmlns="http://www.w3.org/2000/svg" width="63.625" height="69.22" viewBox="0 0 63.625 69.22"><defs><style>.a{fill:#cecece;}</style></defs><g transform="translate(-373.099 3600.564)"><path class="a" d="M-470.23-4282.344H-524.9v-2.242h7.552v-18.206h-6.473l6.473-6.473h47.12l6.474,6.473h-6.474v18.206h8.953v2.242Zm-34.171-2.242h31.929v-18.206h-27.972l-3.957-3.957Zm-10.706,0h8.19v-22.163l-3.957,3.957h-4.233Zm44.876-20.447h1.062l-1.062-1.062Zm-29.286,0h27.044v-1.991h-29.035Zm-15.591,0h3.3l1.991-1.991h-5.3Zm-3.3,0h1.062v-1.062Zm24.243-9.8v-12.948h2.158v12.948Zm-4.217,0v-6.475a2.158,2.158,0,0,0-2.158-2.158v-2.159a4.317,4.317,0,0,1,4.316,4.317v6.475Zm8.433,0v-4.318a4.315,4.315,0,0,1,4.315-4.315v2.157a2.157,2.157,0,0,0-2.157,2.158v4.318Zm8.173-11.846a9.711,9.711,0,0,1,9.712-9.711,9.711,9.711,0,0,1,9.711,9.711,9.712,9.712,0,0,1-9.711,9.713A9.712,9.712,0,0,1-481.778-4326.688Zm2.242,0a7.478,7.478,0,0,0,7.47,7.471,7.478,7.478,0,0,0,7.47-7.471,7.478,7.478,0,0,0-7.47-7.469A7.478,7.478,0,0,0-479.536-4326.688Zm-43.208,0a9.712,9.712,0,0,1,9.712-9.711,9.711,9.711,0,0,1,9.711,9.711,9.712,9.712,0,0,1-9.711,9.713A9.713,9.713,0,0,1-522.744-4326.688Zm2.241,0a7.479,7.479,0,0,0,7.471,7.471,7.479,7.479,0,0,0,7.47-7.471,7.478,7.478,0,0,0-7.47-7.469A7.479,7.479,0,0,0-520.5-4326.688Zm9.832,3.581a2.445,2.445,0,0,1-2.888-.433l-.087-.087,1.229-1.227.087.086,0,.007a.738.738,0,0,0,1.043-.007l.179-.179a.736.736,0,0,0,.187-.786.739.739,0,0,0-.945-.442l-1.794.6a2.47,2.47,0,0,1-1.935-.156,2.464,2.464,0,0,1-1.031-3.329l-.7-.7,1.228-1.221.7.7a2.464,2.464,0,0,1,2.885.434l.087.087-1.226,1.228-.087-.087-.007,0a.736.736,0,0,0-1.042,0l-.179.179a.734.734,0,0,0-.186.786.737.737,0,0,0,.944.442l1.793-.6a2.462,2.462,0,0,1,2.533.6h0a2.471,2.471,0,0,1,.436,2.882l.7.7-1.228,1.226Zm34.308-.526.7-.7a2.467,2.467,0,0,1,.432-2.884l.088-.088,1.226,1.228-.087.087-.005.005a.735.735,0,0,0,.005,1.041l.179.179a.739.739,0,0,0,.786.187.736.736,0,0,0,.44-.944l-.6-1.792a2.456,2.456,0,0,1,.154-1.934,2.462,2.462,0,0,1,3.328-1.029l.7-.7,1.226,1.226-.707.7a2.467,2.467,0,0,1-.434,2.884l-.086.087-1.228-1.228.086-.086.007-.007a.734.734,0,0,0-.007-1.041l-.178-.179a.736.736,0,0,0-.786-.186.734.734,0,0,0-.44.942l.6,1.792a2.47,2.47,0,0,1-.156,1.934,2.464,2.464,0,0,1-3.328,1.031l-.7.7Zm-25.387-17.031a9.713,9.713,0,0,1,9.713-9.712,9.712,9.712,0,0,1,9.711,9.712,9.712,9.712,0,0,1-9.711,9.712A9.713,9.713,0,0,1-501.749-4340.665Zm2.243,0a7.477,7.477,0,0,0,7.47,7.47,7.477,7.477,0,0,0,7.47-7.47,7.48,7.48,0,0,0-7.47-7.471A7.48,7.48,0,0,0-499.506-4340.665Zm6.648,5.09v-.972a2.416,2.416,0,0,1-1.7-2.3v-.12h1.7v.12a.721.721,0,0,0,.72.721h.248a.725.725,0,0,0,.669-.415.72.72,0,0,0-.347-.958l-1.652-.827a2.415,2.415,0,0,1-1.228-1.444,2.41,2.41,0,0,1,1.588-3.017v-.971h1.7v.971a2.416,2.416,0,0,1,1.695,2.3v.12h-1.7v-.12a.721.721,0,0,0-.721-.721h-.248a.722.722,0,0,0-.668.415.723.723,0,0,0,.345.959l1.653.827a2.4,2.4,0,0,1,1.228,1.443,2.41,2.41,0,0,1-1.588,3.017v.972Zm-14.049-5.091a14.978,14.978,0,0,1,4.649-10.9l1.493,1.558a12.836,12.836,0,0,0-3.983,9.341c0,.335.011.666.036,1l-2.15.165C-506.893-4339.889-506.907-4340.275-506.907-4340.666Zm39.156,0v-2.157h2.159v2.157Zm-47.439-1.078v-2.158h2.157v2.158Zm-7.554-5.4v-2.157h2.158v2.157Zm44.474-1.079v-2.158h2.158v2.158Z" transform="translate(898.001 751)"/></g></svg>