<svg xmlns="http://www.w3.org/2000/svg" width="82.002" height="89.767" viewBox="0 0 82.002 89.767"><defs><style>.a{fill:#cecece;}</style></defs><g transform="translate(-1202 -207)"><path class="a" d="M153.694-3826.873l-11.313-11.317a16.971,16.971,0,0,1-16.936.639H96.453a.984.984,0,0,1-.985-.984h0v-6.359h-7.4a.986.986,0,0,1-.985-.985v-6.13H79.314a.987.987,0,0,1-.985-.988v-61.516a.988.988,0,0,1,.985-.989H123.7a.986.986,0,0,1,.985.988h0v6.129h7.768a.987.987,0,0,1,.989.984h0v10.8a1.028,1.028,0,0,1-.044.207l8.031,8.114a.989.989,0,0,1,.413.8c0,.034-.017.064-.02.1v19.807a17.047,17.047,0,0,1,6.457,23.228c-.124.221-.254.438-.388.652l11.314,11.314a3.823,3.823,0,0,1,.144,5.274.785.785,0,0,1-.064.1l-.144.141a3.851,3.851,0,0,1-5.446,0h0Zm-9.675-12.465,11.07,11.069a1.933,1.933,0,0,0,2.66,0l.06-.063a1.876,1.876,0,0,0,.006-2.654l-.006-.006-11.07-11.071a17.14,17.14,0,0,1-2.719,2.725Zm-25.8-13.374a15.147,15.147,0,0,0,15.146,15.147,15.147,15.147,0,0,0,15.147-15.146,15.147,15.147,0,0,0-15.145-15.148,15.162,15.162,0,0,0-15.151,15.147Zm-20.775,13.19h25.024a17.109,17.109,0,0,1-2.327-24.081,17.108,17.108,0,0,1,19.711-4.943v-17.948H128.388a.984.984,0,0,1-.986-.981v-11.594H97.445ZM89.062-3853v6.133h6.409v-53.186a.986.986,0,0,1,.989-.985h31.928c.023,0,.04.01.059.01a.993.993,0,0,1,.264.053c.029.013.063.02.093.033a.987.987,0,0,1,.273.187.011.011,0,0,1,.01.007h0l2.381,2.406v-8.07H89.059Zm-8.757-.982h6.783V-3907.4a.987.987,0,0,1,.985-.986h34.645v-5.14H80.305Zm49.068-34.482h9.1l-9.1-9.191Zm-8.562,35.754a12.556,12.556,0,0,1,12.558-12.555,12.556,12.556,0,0,1,12.555,12.558,12.557,12.557,0,0,1-12.555,12.555,12.572,12.572,0,0,1-12.562-12.558Zm1.974,0a10.583,10.583,0,0,0,10.584,10.584,10.583,10.583,0,0,0,10.584-10.584,10.583,10.583,0,0,0-10.584-10.584h0a10.6,10.6,0,0,0-10.588,10.584Zm1.465,1.288a.988.988,0,0,1,.839-1.116.988.988,0,0,1,1.116.84,7.261,7.261,0,0,0,7.164,6.209.987.987,0,0,1,.987.987.987.987,0,0,1-.987.987,9.248,9.248,0,0,1-9.123-7.906Zm-22.738,3a.987.987,0,0,1-.968-1.006.987.987,0,0,1,.968-.968h10.419a.987.987,0,0,1,1.006.968.987.987,0,0,1-.967,1.006H101.512Zm24.11-7.251a.981.981,0,0,1-.417-1.324l0-.008a9.256,9.256,0,0,1,5.606-4.577.989.989,0,0,1,1.224.677.989.989,0,0,1-.678,1.223h0a7.267,7.267,0,0,0-4.407,3.6.988.988,0,0,1-1.332.413Zm-24.11-3.822a.987.987,0,0,1-.986-.986.986.986,0,0,1,.986-.985h14.622a.985.985,0,0,1,.985.985.986.986,0,0,1-.985.986Zm0-10.973a.986.986,0,0,1-1-.968.986.986,0,0,1,.968-1h27.536a.985.985,0,0,1,.967,1,.984.984,0,0,1-.967.968Zm0-7.4a.987.987,0,0,1-.987-.986v-14.915a.99.99,0,0,1,.987-.989h12.254a.988.988,0,0,1,.986.989v14.919a.984.984,0,0,1-.986.982Zm.988-1.971h10.281v-12.944H102.5Z" transform="translate(1123.671 4122.503)"/></g></svg>