<svg
                  xmlns="http://www.w3.org/2000/svg" width="150" height="147" viewBox="0 0 150 147">
                  <defs>
                     <style>.a,.c{fill:#fff;}.a{stroke:#ebebeb;}.b{fill:#ced4da;}.d{fill:#ceffe8;}.e{fill:#cee8ff;}.f{stroke:none;}.g{fill:none;}</style>
                  </defs>
                  <g transform="translate(-108 -203)">
                     <g class="a" transform="translate(108 203)">
                        <circle class="f" cx="73.5" cy="73.5" r="73.5"/>
                        <circle class="g" cx="73.5" cy="73.5" r="73"/>
                     </g>
                     <circle class="b" cx="42" cy="42" r="42" transform="translate(140 235)"/>
                     <path class="c" d="M8334.548,6293.964h9.027a4.524,4.524,0,0,1-9.027,0Zm-12.264-2.79a.286.286,0,0,1-.285-.288v-3.158a.441.441,0,0,1,.184-.36l3.336-2.4a.6.6,0,0,0,.25-.487v-13.936c0-9.165,5.952-14.039,13.294-14.039s13.294,4.875,13.294,14.039v13.936a.6.6,0,0,0,.248.487l3.337,2.4a.443.443,0,0,1,.184.36v3.158a.287.287,0,0,1-.286.288Zm15.212-30.387c-4.411.582-7.88,3.664-8.443,8.991a1.42,1.42,0,0,0,.339,1.093,1.366,1.366,0,0,0,2.39-.746c.382-3.781,2.583-6.158,6.1-6.583a1.37,1.37,0,0,0,1.181-1.375,1.418,1.418,0,0,0-.476-1.05,1.365,1.365,0,0,0-.9-.342A1.423,1.423,0,0,0,8337.5,6260.788Zm-1.408-6.833v-2.937a2.975,2.975,0,1,1,5.949,0v2.938A19.082,19.082,0,0,0,8336.088,6253.955Z" transform="translate(-8157.242 -5997.927)"/>
                     <g transform="translate(117.644 -103)">
                        <g transform="translate(98 309)">
                           <circle class="d" cx="21" cy="21" r="21" transform="translate(0.356)"/>
                           <g transform="translate(9.626 11.552)">
                              <path class="c" d="M3.9,12.556V24.48a2.556,2.556,0,0,0,2.557,2.557H20.508l4.414,4.414a.375.375,0,0,0,.646-.269V27.037h.565a2.556,2.556,0,0,0,2.557-2.557V12.556A2.556,2.556,0,0,0,26.134,10H6.484A2.545,2.545,0,0,0,3.9,12.556ZM8.934,14.2a.311.311,0,0,1,.323-.323h14.1a.311.311,0,0,1,.323.323V15.49a.311.311,0,0,1-.323.323H9.257a.311.311,0,0,1-.323-.323V14.2Zm0,3.661a.311.311,0,0,1,.323-.323h14.1a.311.311,0,0,1,.323.323v1.292a.311.311,0,0,1-.323.323H9.257a.311.311,0,0,1-.323-.323V17.859Zm0,3.661a.311.311,0,0,1,.323-.323h7.887a.311.311,0,0,1,.323.323v1.292a.311.311,0,0,1-.323.323H9.257a.311.311,0,0,1-.323-.323V21.519Z" transform="translate(-3.9 -9.998)"/>
                           </g>
                        </g>
                     </g>
                     <g transform="translate(10.364 -49.636)">
                        <g transform="translate(98 353)">
                           <circle class="e" cx="15.5" cy="15.5" r="15.5" transform="translate(-0.364 -0.364)"/>
                           <path class="c" d="M34.958,25.572l-.349-7.639a.95.95,0,0,0-.96-.938H31.706V15.423A2.431,2.431,0,0,0,29.284,13H29.24a2.431,2.431,0,0,0-2.423,2.423v1.571H24.875a.95.95,0,0,0-.96.938l-.349,7.639-.065,2.6a.96.96,0,0,0,.96.982h9.625a.96.96,0,0,0,.96-.982Zm-7.6-10.149a1.877,1.877,0,0,1,1.877-1.877h.044a1.877,1.877,0,0,1,1.877,1.877v1.571h-3.8Zm-.306,3.339a.458.458,0,1,1,.458-.458A.448.448,0,0,1,27.058,18.762Zm4.431,0a.458.458,0,1,1,.458-.458A.461.461,0,0,1,31.488,18.762Z" transform="translate(-14.309 -6.107)"/>
                        </g>
                     </g>
                  </g>
               </svg>