<svg xmlns="http://www.w3.org/2000/svg" width="283.465" height="238.933" viewBox="0 0 283.465 238.933"><defs><style>.a,.o{opacity:0.5;}.b{fill:#d7eff9;}.c,.z{fill:#fff;}.d{fill:#171e26;}.e{fill:#4d355d;}.f{fill:#2481d3;}.g{fill:#0e4c7a;}.h{fill:#eeb399;}.i{fill:#cc957f;}.j{fill:#f97f40;}.k{fill:#8edaf6;}.l{fill:#bbeafd;}.m{fill:#dcf7ff;}.n{fill:#faaf41;}.o,.q{mix-blend-mode:multiply;isolation:isolate;}.p{fill:#d89235;}.q{fill:#bcbec0;}.r{fill:#1f74c2;}.s{fill:#0d4772;}.t{fill:#af374e;}.u{fill:#0a3759;}.v{fill:#06263a;}.w{fill:#e54c64;}.x{fill:#8e263a;}.y{fill:#441f04;}.z{opacity:0.6;}.aa{fill:#3d2b4f;}</style></defs><g class="a" transform="translate(-2850.828 -1519.274)"><g transform="translate(2850.828 1519.274)"><path class="b" d="M3116.758,1594.95c-6.658-18.064-20.013-33.105-38.937-38.428-9.067-2.55-18.533-3.249-27.9-4.216-14.731-1.52-29.934-3.93-42.285-12.1-4.6-3.044-5.972-7.282-11.626-10.355a99.662,99.662,0,0,0-14.918-6.895c-17.142-5.931-36.334-4.32-53.265,2.19s-31.769,17.645-44.655,30.411c-11.125,11.022-21.107,23.609-26.615,38.268a95.447,95.447,0,0,0-5.556,28.647A124.751,124.751,0,0,0,2867.683,1692c12.3,20.816,31.3,37.733,53.682,46.87,11.989,4.894,24.771,7.559,37.572,9.51a211.468,211.468,0,0,0,38.117,2.8,157.837,157.837,0,0,0,44.346-7.883,134.855,134.855,0,0,0,27.435-12.3,113.05,113.05,0,0,0,47.923-136.047Z" transform="translate(-2850.829 -1519.274)"/><path class="b" d="M3222.534,1552.228a8.614,8.614,0,0,0,3.506-.541c2.235-1.03,3.144-3.7,3.543-6.129.508-3.092.526-6.423-.975-9.174a9.092,9.092,0,0,0-16.919,6.027,5.968,5.968,0,0,0-11.172,1.736c-3-.457-6.2-3.278-8.59-1.408-1.439,1.127-1.5,3.409-2.9,4.586-3.047,2.562-7.28-1.989-10.313.017-5.392,3.565.943,5.583,3.89,5.7C3195.777,1553.548,3209.327,1552.412,3222.534,1552.228Z" transform="translate(-2948.973 -1523.015)"/><path class="c" d="M2950.653,1573.969c3.1.307,6.458.614,9.132-.991s3.787-5.983,1.244-7.788a4.81,4.81,0,0,0-5.025.058,14.141,14.141,0,0,0-3.81,3.645c-1.007-2.115-2.388-4.243-4.553-5.139s-5.2.089-5.669,2.384c-.665-3.044-1.357-6.157-3.008-8.8s-4.475-4.772-7.59-4.722-6.16,2.912-5.663,5.989c-1.77-2.371-5.376-2.8-8.051-1.537s-4.512,3.849-5.675,6.57c-4.065,9.517,4.446,8.995,10.665,8.917A252.491,252.491,0,0,1,2950.653,1573.969Z" transform="translate(-2868.932 -1529.318)"/></g><g transform="translate(2861.783 1606.193)"><path class="d" d="M2921.3,1734.194a288.462,288.462,0,0,0-5.9,29.073c-2.3,15.635,5.47,40.525,5.47,40.525s9.478,2.567,14.922-.673c0,0-10.7-42.008,0-63.746,0,0,13.568,19.424,17.571,23.894,6.741,7.53,31.054,18.975,31.054,18.975s5.132-6.907,4.025-14.363c0,0-25.936-7.6-35.079-34.918,0,0-3.308-15.777-11.412-18.469Z" transform="translate(-2881.106 -1665.003)"/><path class="d" d="M2921.149,1842l-5.238,4.259s12.487,2.553,21.8-.481l-1.638-4.451Z" transform="translate(-2881.389 -1703.213)"/><path class="d" d="M3014.351,1805.259l3.313,6.7s5.568-10.864,5.465-20.529l-4.753-.538Z" transform="translate(-2911.044 -1688.02)"/><path class="e" d="M2870.768,1669a11.841,11.841,0,0,1-.359,7.212c-1.045,2.291-3.268,4.017-3.786,6.482-.632,3,1.492,5.961,1.371,9.029a4.891,4.891,0,0,0,.144,2.358,3.5,3.5,0,0,0,1.135,1.168c2.228,1.67,4.806,3.432,7.55,2.961,1.655-.284,3.255-1.374,4.879-.95a8.208,8.208,0,0,1,1.673.8c2.615,1.37,6.279,1.052,8.01-1.339.873-1.207,1.157-2.744,1.909-4.03.882-1.509,2.357-2.59,3.295-4.065a11.844,11.844,0,0,0,1.458-5.887,13.472,13.472,0,0,0-.722-5.758c-1.326-3.2-4.562-5.231-6.227-8.271-2.245-4.1-1.408-9.6-4.431-13.165-3.445-4.061-10.144-3.5-14.343-.978C2867.438,1657.5,2869.893,1664.636,2870.768,1669Z" transform="translate(-2866.505 -1646.352)"/><path class="f" d="M2933.368,1669.769l-16.83-2.624a5.531,5.531,0,1,0-1.7,10.931l21.6,3.368a5.533,5.533,0,0,0,6.151-3.877l5.491-18.327-10.6-3.177Z" transform="translate(-2879.655 -1647.401)"/><path class="g" d="M2918.085,1672.135l-1.548-.241a5.531,5.531,0,1,0-1.7,10.931l14.851,2.316A100.689,100.689,0,0,1,2918.085,1672.135Z" transform="translate(-2879.655 -1652.15)"/><path class="f" d="M2913.847,1674.526a11.411,11.411,0,0,1,1.848,3,54.175,54.175,0,0,0,8.14,13.017,40.988,40.988,0,0,0,8.428,7.315c1.928,1.281,3.675,2.413,3.458,4.983-.43,5.109-6.357,10.708-10.033,13.67-2.346,1.891-10.456,7.82-14.021,5.239-1.156-.837-1.821-4.223-2.494-5.544a39.481,39.481,0,0,0-3.179-5.2,38.977,38.977,0,0,0-8.231-8.379c-4.438-3.315-9.838-5.366-10.864-11.268-1.044-6.006,3.1-11.081,7.591-14.51s10.8-6.68,16.5-4.279A7.8,7.8,0,0,1,2913.847,1674.526Z" transform="translate(-2872.6 -1652.125)"/><path class="g" d="M2921.438,1711.375l-1.969-1.378-3.352,2.581c-12.108-5.926-16.094-16.008-16.094-16.008l-5.06,9.954c1.7,1.2,3.559,2.3,5.278,3.582a38.983,38.983,0,0,1,8.231,8.379,39.563,39.563,0,0,1,2.681,4.266C2914.781,1717.392,2921.438,1711.375,2921.438,1711.375Z" transform="translate(-2875.078 -1659.604)"/><path class="g" d="M2896.585,1696.443l-7.625,3.807-.509,1.553c2,3.677,6.122,5.535,9.677,8.155A50.264,50.264,0,0,1,2896.585,1696.443Z" transform="translate(-2873.117 -1659.566)"/><g transform="translate(1.777)"><path class="h" d="M2893.621,1671.787l4.043,4.185s1.914,2.037-1.281,4.907a4.341,4.341,0,0,1-6.027.178l-6.723-6.959Z" transform="translate(-2873.442 -1652.138)"/><path class="i" d="M2889.727,1677.424l7.2-3.462,2.152,2.228C2895.642,1678.723,2889.727,1677.424,2889.727,1677.424Z" transform="translate(-2875.278 -1652.793)"/><rect class="h" width="16.426" height="23.486" rx="8.213" transform="translate(28.132 16.891) rotate(135.987)"/></g><path class="e" d="M2888.932,1651.405a8.673,8.673,0,0,1-6.578-1.672,17.762,17.762,0,0,1-3.649,15.347s-12.077-6.26-3.209-15.143C2875.5,1649.938,2882.034,1642.419,2888.932,1651.405Z" transform="translate(-2868.234 -1644.668)"/><path class="h" d="M2880.309,1674.381a2.013,2.013,0,1,0,.049-2.847A2.013,2.013,0,0,0,2880.309,1674.381Z" transform="translate(-2870.494 -1651.891)"/><path class="f" d="M2941.782,1743.979a.182.182,0,0,1-.11-.036c-4.466-3.362-5.729-10.012-5.741-10.079a.183.183,0,0,1,.148-.213.179.179,0,0,1,.214.147c.012.062,1.168,6.137,5.164,9.5-.468-1.793-1.778-7.516-.508-11.183a.184.184,0,1,1,.347.12c-1.45,4.19.642,11.433.663,11.5a.183.183,0,0,1-.176.235Z" transform="translate(-2887.419 -1670.276)"/><path class="f" d="M2934.693,1751.207a.184.184,0,0,1-.089-.344c.24-.133,5.9-3.219,9.624-1.829a.184.184,0,0,1-.129.344c-3.566-1.333-9.26,1.774-9.317,1.806A.178.178,0,0,1,2934.693,1751.207Z" transform="translate(-2886.992 -1675.301)"/></g><g transform="translate(2851.613 1554.285)"><g transform="translate(24.305 57.929)"><g transform="translate(26.903)"><path class="j" d="M3076.607,1782.595l-11.691-114.16a10.137,10.137,0,0,0-10.084-9.1h-16.746l-1.312-7.047h-22.707l-3.277,7.047h-76.515a9.037,9.037,0,0,0-9,9.824l9.916,113.532a7.255,7.255,0,0,0,7.227,6.623h128.13A6.094,6.094,0,0,0,3076.607,1782.595Z" transform="translate(-2925.237 -1652.284)"/><path class="k" d="M2945.076,1780.589l-12.225-110.632,146.082-7.335-8.039,117.967Z" transform="translate(-2927.531 -1655.399)"/><path class="l" d="M2948.034,1791.086l-5.364-113.077,144.112-4.89-2.445,110.021Z" transform="translate(-2930.489 -1658.561)"/><path class="m" d="M2952.971,1777.816c.294-.778,0-83.7,0-83.7h150.972l-21.393,95.351Z" transform="translate(-2933.592 -1664.886)"/><path class="n" d="M3121.879,1696.124l-35.726,96.661a13.312,13.312,0,0,1-12.487,8.7H2948.128a5.453,5.453,0,0,1-5.1-7.382l36.824-97.356a13.312,13.312,0,0,1,12.451-8.6H3116.32A5.926,5.926,0,0,1,3121.879,1696.124Z" transform="translate(-2930.489 -1663.087)"/><g class="o" transform="translate(40.094 78.545)"><path class="p" d="M2993.211,1771.932l-6.893,18.827-3.7-.071,9.518-25.995,5.159.1-1.472,15.641,5.7-15.56,3.663.071-9.517,25.994-4.225-.082Z" transform="translate(-2982.617 -1764.693)"/><path class="p" d="M3015.129,1771.33c1.523-4.16,4.6-6.494,8.637-6.416s5.373,2.5,3.849,6.657l-4.948,13.517c-1.523,4.159-4.6,6.494-8.636,6.415s-5.374-2.5-3.852-6.657Zm-.932,13.857c-.679,1.856-.115,2.577,1.193,2.6s2.389-.664,3.069-2.52l5.139-14.038c.68-1.856.116-2.578-1.193-2.6s-2.389.665-3.069,2.521Z" transform="translate(-2990.736 -1764.759)"/><path class="p" d="M3050.82,1777.459l5.308.1-1.36,3.714-5.308-.1-3.929,10.731-4.113-.08,9.518-25.994,10.878.21-1.359,3.713-6.766-.131Z" transform="translate(-3000.331 -1765.036)"/><path class="p" d="M3071.481,1766.229l4.112.08-9.517,25.994-4.113-.08Z" transform="translate(-3006.52 -1765.156)"/><path class="p" d="M3083.786,1766.467l4.112.08-8.156,22.281,6.767.13-1.36,3.714-10.879-.21Z" transform="translate(-3010.228 -1765.228)"/><path class="p" d="M3104.166,1777.893l5.645.11-1.36,3.713-5.645-.109-2.787,7.612,7.1.138-1.36,3.713-11.216-.217,9.517-25.995,11.215.217-1.359,3.713-7.1-.138Z" transform="translate(-3016.336 -1765.345)"/><path class="p" d="M3131.972,1767.008c4,.077,5.186,2.494,3.664,6.653l-.3.817-3.889-.075.4-1.077c.679-1.856.19-2.576-1.119-2.6s-2.314.666-2.994,2.522c-1.958,5.348,5.713,6.505,2.994,13.933-1.522,4.159-4.487,6.5-8.524,6.417s-5.261-2.5-3.739-6.655l.584-1.6,3.889.075-.68,1.857c-.68,1.856-.1,2.54,1.207,2.565s2.375-.627,3.055-2.483c1.958-5.348-5.712-6.505-2.993-13.932C3125.046,1769.268,3127.972,1766.931,3131.972,1767.008Z" transform="translate(-3023.35 -1765.39)"/></g><path class="q" d="M3053.044,1728.489a52.474,52.474,0,0,0,46.021-19.786s15.539,13.649,30.857,13.088l12.886,10.708,5.011-14.24-55.469-20.036S3082.491,1721.771,3053.044,1728.489Z" transform="translate(-2963.74 -1666.123)"/></g><g transform="translate(0 0.391)"><path class="f" d="M2909.917,1700.905l-8.54,7.141-3.833-13.19a5.513,5.513,0,0,0-10.589,3.077l6.189,21.3a5.514,5.514,0,0,0,8.831,2.691l15.015-12.556C2915.555,1704.715,2909.917,1700.905,2909.917,1700.905Z" transform="translate(-2886.735 -1664.302)"/><path class="h" d="M2928.8,1710.987a4.209,4.209,0,0,0,1.069-1.713,1.469,1.469,0,0,0-.732-1.718c-.33-.126-.737-.1-.985-.351-.311-.318-.162-.84-.213-1.281a1.7,1.7,0,0,0-1.777-1.341,1.353,1.353,0,0,1-.79-.084c-.5-.323-.2-1.267-.705-1.582-.389-.241-.945.105-1.34-.125-.214-.125-.311-.382-.489-.555a1.06,1.06,0,0,0-1.169-.108,3.1,3.1,0,0,0-.937.812l-1.3,1.474a3.044,3.044,0,0,0-.646.952,2.938,2.938,0,0,0,.53,2.355,13.247,13.247,0,0,0,2.957,3.719,6.607,6.607,0,0,0,3.61,1.57C2927.089,1713.087,2928.071,1711.817,2928.8,1710.987Z" transform="translate(-2896.363 -1667.653)"/><path class="h" d="M2953.782,1653.054c-2-.379-3.437-.361-5.039,1.017a7.138,7.138,0,0,0-2.312,3.971,3.421,3.421,0,0,0,.064,1.91,1.569,1.569,0,0,0,1.475,1.05c.836-.064,1.341-.93,1.7-1.689a1.617,1.617,0,0,0,1.7,1.678,2.533,2.533,0,0,0,2.057-1.583,1.067,1.067,0,0,0,1.041,1.353,1.587,1.587,0,0,0,1.388-1.276c-.162.769.716,1.458,1.492,1.341a2.408,2.408,0,0,0,1.689-1.5,3.9,3.9,0,0,0,.233-2.651,4.493,4.493,0,0,0-2.2-2.569A10.775,10.775,0,0,0,2953.782,1653.054Z" transform="translate(-2904.687 -1652.843)"/></g></g><g transform="translate(128.229)"><g transform="translate(63.513 9.848)"><path class="r" d="M3166.615,1583.473l-40.255,11.71,9.393,2.943Z" transform="translate(-3126.36 -1583.473)"/><path class="s" d="M3139.8,1598.126l2.645,7.19,28.218-21.843Z" transform="translate(-3130.409 -1583.473)"/><path class="r" d="M3140.831,1598.515l30.144-15.041-14.571,17.449Z" transform="translate(-3130.719 -1583.473)"/></g><path class="r" d="M3040.534,1645.474a.273.273,0,0,1-.214-.1.074.074,0,0,1-.02-.026c-.006,0-.006-.006-.013-.006a.286.286,0,0,1-.058-.175.274.274,0,0,1,.1-.215.285.285,0,0,1,.389.045l.006.007.02.019a.283.283,0,0,1-.045.389A.272.272,0,0,1,3040.534,1645.474Zm-1.109-1.518a.273.273,0,0,1-.233-.123c-.337-.512-.661-1.05-.953-1.594a.273.273,0,0,1-.039-.136.289.289,0,0,1,.143-.24.282.282,0,0,1,.376.11c.285.518.59,1.037.92,1.543.007,0,.007.006.013.012v.006a.253.253,0,0,1,.045.15.273.273,0,0,1-.123.227A.311.311,0,0,1,3039.425,1643.957Zm-1.75-3.228a.279.279,0,0,1-.253-.162c-.246-.577-.473-1.154-.667-1.731a.007.007,0,0,0-.007-.006.343.343,0,0,1-.012-.084.288.288,0,0,1,.188-.266.275.275,0,0,1,.35.175c.194.57.409,1.135.643,1.673.006,0,.006.013.012.02v.006a.244.244,0,0,1,.02.1.289.289,0,0,1-.163.259A.32.32,0,0,1,3037.675,1640.728Zm-1.179-3.475a.278.278,0,0,1-.272-.208c-.15-.609-.286-1.219-.383-1.815a.185.185,0,0,1-.006-.059.275.275,0,0,1,.544-.038c.1.59.233,1.187.383,1.776a.271.271,0,0,1,.006.071.277.277,0,0,1-.208.266A.243.243,0,0,1,3036.5,1637.253Zm-.636-3.618a.27.27,0,0,1-.273-.246c-.064-.6-.1-1.226-.123-1.854v-.013a.282.282,0,0,1,.266-.273h.013a.274.274,0,0,1,.272.273c.02.6.058,1.212.117,1.808v.033a.269.269,0,0,1-.246.272Zm-.11-3.669h-.013a.272.272,0,0,1-.266-.272v-.013c.019-.6.064-1.225.129-1.854a.276.276,0,0,1,.3-.247.281.281,0,0,1,.247.28v.025c-.059.6-.1,1.212-.124,1.815A.276.276,0,0,1,3035.75,1629.966Zm.369-3.656h-.045a.285.285,0,0,1-.233-.279.074.074,0,0,1,.007-.039c.1-.609.22-1.219.356-1.822l.006-.006a.28.28,0,0,1,.331-.2.277.277,0,0,1,.208.279.145.145,0,0,1-.006.052c-.136.59-.253,1.193-.356,1.79A.272.272,0,0,1,3036.119,1626.31Zm.824-3.579a.172.172,0,0,1-.079-.013.265.265,0,0,1-.194-.259.4.4,0,0,1,.006-.084c.182-.6.376-1.187.591-1.757a.274.274,0,0,1,.531.1.386.386,0,0,1-.013.09c-.213.571-.4,1.154-.577,1.731A.271.271,0,0,1,3036.943,1622.731Zm1.264-3.449a.328.328,0,0,1-.11-.02.289.289,0,0,1-.162-.259.273.273,0,0,1,.02-.1v-.006c.006-.013.006-.02.013-.027.246-.557.513-1.108.791-1.646a.28.28,0,0,1,.37-.124.277.277,0,0,1,.148.24.26.26,0,0,1-.033.136c-.278.544-.544,1.1-.784,1.64A.272.272,0,0,1,3038.207,1619.282Zm1.692-3.261a.28.28,0,0,1-.143-.039.272.272,0,0,1-.135-.233.222.222,0,0,1,.044-.143l.065-.11c.306-.505.623-.991.934-1.452a.278.278,0,0,1,.506.162.263.263,0,0,1-.052.15c-.331.493-.635.959-.914,1.426l-.039.058-.032.052A.259.259,0,0,1,3039.9,1616.021Zm2.068-3.034a.283.283,0,0,1-.162-.052.278.278,0,0,1-.11-.227.262.262,0,0,1,.058-.162c.356-.467.746-.953,1.161-1.439a.29.29,0,0,1,.389-.032.269.269,0,0,1,.1.214.276.276,0,0,1-.065.175c-.39.461-.771.934-1.135,1.4,0,.007-.006.013-.013.02l-.006.006A.268.268,0,0,1,3041.967,1612.987Zm2.386-2.794a.26.26,0,0,1-.188-.078.267.267,0,0,1-.091-.2.288.288,0,0,1,.078-.188c.415-.435.85-.882,1.3-1.31a.277.277,0,0,1,.39.007.274.274,0,0,1,.077.194.307.307,0,0,1-.084.194c-.428.409-.855.843-1.284,1.3A.285.285,0,0,1,3044.353,1610.192Zm43.846-1.316c-.331,0-.628-.006-.927-.013h-.006a.282.282,0,0,1-.266-.273v-.013a.284.284,0,0,1,.285-.266c.6.013,1.212.013,1.822,0h.013a.275.275,0,0,1,.271.266.279.279,0,0,1-.265.286h-.007C3088.828,1608.87,3088.517,1608.876,3088.2,1608.876Zm2.75-.117a.275.275,0,0,1-.272-.253v-.026a.264.264,0,0,1,.253-.266c.615-.052,1.226-.123,1.808-.2a.273.273,0,0,1,.312.233c0,.013.006.026.006.045a.278.278,0,0,1-.24.266c-.616.084-1.239.155-1.841.2Zm-5.5,0h-.019c-.636-.052-1.252-.117-1.849-.2a.278.278,0,0,1-.232-.272v-.039a.28.28,0,0,1,.31-.24c.6.084,1.213.155,1.809.2a.275.275,0,0,1,.253.272v.026A.275.275,0,0,1,3085.443,1608.759Zm9.148-.5a.271.271,0,0,1-.271-.221.156.156,0,0,1-.007-.058.276.276,0,0,1,.227-.266c.59-.116,1.187-.246,1.776-.4a.28.28,0,0,1,.337.2c0,.02.007.045.007.065a.272.272,0,0,1-.208.266c-.6.156-1.212.292-1.809.409Zm-12.785-.006a.159.159,0,0,1-.058-.007q-.9-.175-1.809-.408a.281.281,0,0,1-.2-.273.243.243,0,0,1,.006-.065.278.278,0,0,1,.338-.2c.6.156,1.2.292,1.777.409a.271.271,0,0,1,.22.266.185.185,0,0,1-.006.059A.272.272,0,0,1,3081.806,1608.254Zm-34.809-.61a.255.255,0,0,1-.208-.1.28.28,0,0,1-.07-.182.285.285,0,0,1,.1-.207c.454-.4.928-.8,1.414-1.187a.283.283,0,0,1,.389.039.3.3,0,0,1,.058.175.273.273,0,0,1-.1.214c-.486.4-.959.791-1.394,1.173A.276.276,0,0,1,3047,1607.644Zm51.153-.279a.278.278,0,0,1-.266-.194.332.332,0,0,1-.013-.084.27.27,0,0,1,.195-.26c.6-.188,1.173-.382,1.717-.59l.006-.006a.287.287,0,0,1,.357.161.268.268,0,0,1,.019.1.282.282,0,0,1-.181.259c-.577.214-1.168.421-1.75.6A.388.388,0,0,1,3098.151,1607.365Zm-19.9-.032a.346.346,0,0,1-.084-.013c-.584-.188-1.174-.4-1.744-.622a.281.281,0,0,1-.175-.253.305.305,0,0,1,.02-.1.279.279,0,0,1,.357-.162c.577.227,1.154.435,1.711.616a.278.278,0,0,1,.194.266.319.319,0,0,1-.013.078A.278.278,0,0,1,3078.247,1607.333Zm23.346-1.264a.261.261,0,0,1-.278-.266.272.272,0,0,1,.156-.253l.006-.006c.006,0,.013-.006.02-.006.544-.247,1.1-.506,1.621-.778a.286.286,0,0,1,.375.117.218.218,0,0,1,.026.129.273.273,0,0,1-.143.24c-.544.279-1.108.551-1.673.8A.347.347,0,0,1,3101.593,1606.069Zm-26.77-.078a.216.216,0,0,1-.11-.027c-.564-.259-1.121-.538-1.659-.829a.278.278,0,0,1-.144-.247.3.3,0,0,1,.033-.13.282.282,0,0,1,.376-.11c.537.291,1.089.57,1.621.817a.278.278,0,0,1,.163.246.3.3,0,0,1-.026.124A.276.276,0,0,1,3074.824,1605.992Zm-24.967-.648a.28.28,0,0,1-.22-.117.286.286,0,0,1-.052-.162.265.265,0,0,1,.11-.221c.506-.376,1.018-.733,1.511-1.07a.292.292,0,0,1,.383.071.283.283,0,0,1-.072.383c-.505.343-1,.7-1.491,1.057A.265.265,0,0,1,3049.857,1605.343Zm55-.96a.276.276,0,0,1-.24-.129.291.291,0,0,1-.039-.143.28.28,0,0,1,.136-.239c.512-.3,1.024-.63,1.536-.973a.28.28,0,0,1,.383.071.248.248,0,0,1,.045.149.277.277,0,0,1-.11.227.006.006,0,0,0-.006.006l-.02.013c-.5.337-1.011.667-1.53.972l-.007.007a.02.02,0,0,0-.013.006h0A.321.321,0,0,1,3104.854,1604.383Zm-33.252-.149a.307.307,0,0,1-.15-.039l-.012-.013v.006a.006.006,0,0,0-.006-.006c-.525-.331-1.038-.674-1.517-1.024a.271.271,0,0,1-.117-.221.25.25,0,0,1,.059-.162.277.277,0,0,1,.383-.064c.473.343.979.681,1.491,1h0a.022.022,0,0,0,.013.006.284.284,0,0,1,.13.247.269.269,0,0,1-.039.142A.282.282,0,0,1,3071.6,1604.234Zm-18.7-.959a.274.274,0,0,1-.233-.13.261.261,0,0,1-.039-.143.267.267,0,0,1,.129-.233c.526-.33,1.064-.655,1.583-.953a.282.282,0,0,1,.376.1.265.265,0,0,1,.038.143.273.273,0,0,1-.136.233c-.558.317-1.069.628-1.568.94A.3.3,0,0,1,3052.9,1603.275Zm54.991-.96a.284.284,0,0,1-.22-.1.307.307,0,0,1-.059-.168.274.274,0,0,1,.11-.221c.48-.376.953-.771,1.394-1.167a.282.282,0,0,1,.388.026.251.251,0,0,1,.072.188.265.265,0,0,1-.091.2c-.453.4-.933.8-1.426,1.186A.275.275,0,0,1,3107.889,1602.315Zm-39.269-.227a.242.242,0,0,1-.169-.065c-.486-.4-.953-.8-1.394-1.219a.307.307,0,0,1-.091-.214.256.256,0,0,1,.078-.182.288.288,0,0,1,.389-.013c.441.421.9.823,1.361,1.2a.006.006,0,0,1,.006.006.287.287,0,0,1,.1.214.3.3,0,0,1-.065.175A.288.288,0,0,1,3068.62,1602.088Zm-12.539-.648a.276.276,0,0,1-.24-.149.309.309,0,0,1-.032-.13.265.265,0,0,1,.148-.24c.506-.273,1.044-.545,1.641-.843a.278.278,0,0,1,.369.129.264.264,0,0,1,.033.117.285.285,0,0,1-.155.253c-.539.259-1.09.544-1.628.829A.332.332,0,0,1,3056.081,1601.44Zm3.3-1.62a.278.278,0,0,1-.248-.162.263.263,0,0,1-.026-.117.27.27,0,0,1,.162-.246c.551-.247,1.122-.5,1.692-.739h.006a.276.276,0,0,1,.35.156.187.187,0,0,1,.025.1.278.278,0,0,1-.162.253h-.006c-.013.006-.02.006-.026.013-.532.22-1.089.46-1.653.713A.253.253,0,0,1,3059.382,1599.819Zm6.567-.247a.269.269,0,0,1-.2-.091c-.428-.46-.836-.934-1.212-1.407a.306.306,0,0,1-.039-.285c-.518.182-1.062.383-1.621.6a.281.281,0,0,1-.356-.156.255.255,0,0,1-.02-.1.276.276,0,0,1,.174-.259c.617-.234,1.187-.448,1.732-.642a.292.292,0,0,1,.356.169.436.436,0,0,1,.014.1.294.294,0,0,1-.033.129.232.232,0,0,1,.221.1c.37.46.771.927,1.187,1.374a.325.325,0,0,1,.078.188.27.27,0,0,1-.09.2A.266.266,0,0,1,3065.949,1599.573Zm.291-2.392a.281.281,0,0,1-.265-.188.362.362,0,0,1-.013-.085.277.277,0,0,1,.194-.266c.59-.194,1.187-.389,1.75-.571a.284.284,0,0,1,.344.182.334.334,0,0,1,.013.085.286.286,0,0,1-.188.266c-.583.182-1.173.37-1.75.564A.356.356,0,0,1,3066.24,1597.18Zm-2.58-.479a.271.271,0,0,1-.226-.124c-.344-.5-.674-1.031-.986-1.575a.273.273,0,0,1-.039-.136.269.269,0,0,1,.142-.24.276.276,0,0,1,.376.1c.3.518.615,1.038.958,1.543a.251.251,0,0,1,.046.149.3.3,0,0,1-.117.233A.337.337,0,0,1,3063.66,1596.7Zm6.082-.648a.282.282,0,0,1-.266-.188.464.464,0,0,1-.013-.085.277.277,0,0,1,.195-.266c.479-.156,1.108-.357,1.744-.571a.286.286,0,0,1,.35.175.307.307,0,0,1,.013.084.286.286,0,0,1-.188.265c-.519.175-1.076.357-1.75.571A.4.4,0,0,1,3069.741,1596.053Zm3.482-1.168a.28.28,0,0,1-.26-.188.215.215,0,0,1-.012-.09.273.273,0,0,1,.182-.26c.641-.233,1.205-.44,1.711-.641a.274.274,0,0,1,.356.149.255.255,0,0,1,.02.1.282.282,0,0,1-.175.266c-.544.214-1.127.434-1.724.648A.271.271,0,0,1,3073.223,1594.885Zm3.416-1.361a.28.28,0,0,1-.253-.162.31.31,0,0,1-.026-.1.281.281,0,0,1,.162-.259c.584-.26,1.122-.519,1.647-.792a.282.282,0,0,1,.37.124.3.3,0,0,1,.032.129.282.282,0,0,1-.143.233c-.007,0-.007.007-.013.007s-.013.006-.02.006c-.512.272-1.057.525-1.646.791A.213.213,0,0,1,3076.639,1593.524Zm-14.788-.02h0a.279.279,0,0,1-.252-.162c-.2-.434-.383-.875-.551-1.323l-.033-.084c-.039-.1-.078-.208-.116-.318a.2.2,0,0,1-.013-.091.273.273,0,0,1,.532-.091c.058.156.1.273.143.389.168.441.35.876.544,1.29a.364.364,0,0,1,.02.117.268.268,0,0,1-.156.246A.252.252,0,0,1,3061.851,1593.5Zm18.043-1.673a.29.29,0,0,1-.233-.129.3.3,0,0,1-.039-.143.286.286,0,0,1,.136-.24c.524-.317,1.037-.655,1.511-1l.006-.006a.277.277,0,0,1,.429.233.272.272,0,0,1-.1.214c-.006,0-.006.006-.006.006s-.014.007-.02.013q-.729.525-1.536,1.012A.262.262,0,0,1,3079.894,1591.831Zm-19.262-1.789a.268.268,0,0,1-.266-.2c0-.006-.006-.006-.006-.013a.04.04,0,0,0-.006-.026c-.143-.576-.259-1.186-.357-1.8v-.039a.273.273,0,0,1,.234-.272.276.276,0,0,1,.311.227c.091.59.208,1.187.357,1.783a.226.226,0,0,1,.006.065.276.276,0,0,1-.208.266A.22.22,0,0,1,3060.632,1590.043Zm22.231-.363a.289.289,0,0,1-.208-.1.276.276,0,0,1-.064-.188.269.269,0,0,1,.1-.2c.344-.3.688-.623,1.005-.946.1-.1.2-.208.291-.305a.284.284,0,0,1,.39-.019.279.279,0,0,1,.09.207.3.3,0,0,1-.071.175.006.006,0,0,1-.006.006c0,.006-.006.013-.013.02-.084.091-.188.194-.286.3-.331.337-.681.668-1.043.979A.257.257,0,0,1,3082.864,1589.679Zm2.476-2.71a.26.26,0,0,1-.155-.045.271.271,0,0,1-.117-.233.223.223,0,0,1,.045-.143v-.012l.02-.02a13.66,13.66,0,0,0,.915-1.517.006.006,0,0,1,.006-.006.278.278,0,0,1,.363-.11.258.258,0,0,1,.149.253.2.2,0,0,1-.026.1v.013l-.013.019a13.649,13.649,0,0,1-.946,1.563c0,.006-.006.013-.013.02a.006.006,0,0,1-.006.006A.273.273,0,0,1,3085.339,1586.969Zm-25.251-.557a.273.273,0,0,1-.279-.259c-.013-.344-.026-.681-.026-1.005q0-.4.02-.855a.277.277,0,0,1,.272-.266h.02a.277.277,0,0,1,.259.272v.013c-.013.279-.02.565-.02.836,0,.35.013.668.026.973v.02a.268.268,0,0,1-.259.273Zm26.912-2.7a.456.456,0,0,1-.084-.013.28.28,0,0,1-.188-.265.382.382,0,0,1,.013-.085,9.543,9.543,0,0,0,.4-1.738.281.281,0,0,1,.3-.24.277.277,0,0,1,.239.272c.007.013,0,.026,0,.039a10.15,10.15,0,0,1-.42,1.841A.282.282,0,0,1,3087,1583.708Zm-26.743-.96h-.039a.289.289,0,0,1-.24-.272c0-.013.006-.033.006-.045.091-.616.221-1.232.37-1.829a.281.281,0,0,1,.337-.194.276.276,0,0,1,.208.266.252.252,0,0,1-.007.071,17.939,17.939,0,0,0-.363,1.77A.278.278,0,0,1,3060.256,1582.748Zm27.2-2.664a.269.269,0,0,1-.272-.247,7.373,7.373,0,0,0-.383-1.724.215.215,0,0,1-.019-.091.273.273,0,0,1,.181-.259.282.282,0,0,1,.35.156c0,.006,0,.006.007.006s.006.02.006.026a7.515,7.515,0,0,1,.4,1.834v.026a.27.27,0,0,1-.246.272Zm-26.271-.882a.251.251,0,0,1-.1-.02.282.282,0,0,1-.175-.259.233.233,0,0,1,.02-.1,16.782,16.782,0,0,1,.771-1.7.281.281,0,0,1,.377-.117.267.267,0,0,1,.143.24.186.186,0,0,1-.033.13,17.235,17.235,0,0,0-.745,1.64A.273.273,0,0,1,3061.183,1579.2Zm25.045-2.541a.276.276,0,0,1-.233-.123,10.628,10.628,0,0,0-1.108-1.4.277.277,0,0,1-.072-.188.309.309,0,0,1,.084-.207.282.282,0,0,1,.389.019,10.78,10.78,0,0,1,1.167,1.472.29.29,0,0,1,.045.156.273.273,0,0,1-.272.272Zm-23.32-.694a.265.265,0,0,1-.156-.052.271.271,0,0,1-.117-.221.263.263,0,0,1,.045-.168,15.6,15.6,0,0,1,1.179-1.452.282.282,0,0,1,.389-.013.263.263,0,0,1,.091.2.282.282,0,0,1-.071.188,12.924,12.924,0,0,0-1.135,1.394A.271.271,0,0,1,3062.908,1575.967Zm20.856-2.017a.28.28,0,0,1-.182-.071c-.46-.4-.94-.784-1.419-1.128a.262.262,0,0,1-.111-.221.241.241,0,0,1,.052-.161.278.278,0,0,1,.382-.065c.5.363.992.752,1.459,1.161a.266.266,0,0,1,.091.2.248.248,0,0,1-.065.188A.284.284,0,0,1,3083.764,1573.951Zm-18.374-.681a.285.285,0,0,1-.208-.1.279.279,0,0,1,.033-.389,14.177,14.177,0,0,1,1.5-1.115.287.287,0,0,1,.382.084.308.308,0,0,1,.046.156.272.272,0,0,1-.13.22,15.147,15.147,0,0,0-1.446,1.076A.308.308,0,0,1,3065.391,1573.27Zm15.392-1.465a.288.288,0,0,1-.129-.032.006.006,0,0,1-.006-.006c-.007,0-.007,0-.013-.007a15.506,15.506,0,0,0-1.6-.8.268.268,0,0,1-.162-.253.294.294,0,0,1,.02-.11.281.281,0,0,1,.362-.143,14.7,14.7,0,0,1,1.673.836.275.275,0,0,1,.137.246.278.278,0,0,1-.279.266Zm-12.312-.531a.271.271,0,0,1-.246-.156.242.242,0,0,1-.032-.117.276.276,0,0,1,.162-.247,14.441,14.441,0,0,1,1.731-.706.281.281,0,0,1,.35.175.39.39,0,0,1,.013.084.286.286,0,0,1-.188.266,14.92,14.92,0,0,0-1.673.674A.236.236,0,0,1,3068.47,1571.274Zm8.94-.9a.126.126,0,0,1-.071-.013c-.421-.117-.855-.208-1.3-.285-.143-.02-.3-.046-.466-.064a.271.271,0,0,1-.241-.28v-.026a.277.277,0,0,1,.312-.24c.155.02.317.039.486.065a13.108,13.108,0,0,1,1.329.3h.02c.006.007.006.007.013.007a.272.272,0,0,1,.194.266c-.006.026-.006.052-.013.071A.278.278,0,0,1,3077.411,1570.372Zm-5.458-.24a.28.28,0,0,1-.273-.227c0-.02-.006-.039-.006-.058a.282.282,0,0,1,.227-.266,14.1,14.1,0,0,1,1.867-.2h.014a.278.278,0,0,1,.272.266v.013a.273.273,0,0,1-.266.272,12.2,12.2,0,0,0-1.783.194h0A.134.134,0,0,1,3071.952,1570.133Z" transform="translate(-3035.464 -1569.38)"/></g><g transform="translate(0 114.79)"><g transform="translate(0 17.918)"><path class="r" d="M2851.951,1761.274l28.359-1.972-5.288,4.072Z" transform="translate(-2851.951 -1759.302)"/><path class="s" d="M2875.021,1764.224v5.195l-23.071-7.294Z" transform="translate(-2851.951 -1760.153)"/><path class="r" d="M2874.655,1764.64l-22.7-2.515,13.357,7.693Z" transform="translate(-2851.951 -1760.153)"/></g><path class="r" d="M2901.987,1762.8c-.324,0-.623-.006-.908-.012h-.007a.276.276,0,0,1,.013-.552c.564.013,1.271.013,1.828,0h0a.275.275,0,0,1,.279.272.27.27,0,0,1-.266.28C2902.648,1762.8,2902.337,1762.8,2901.987,1762.8Zm-2.756-.091h-.032c-.59-.039-1.2-.084-1.815-.149a.279.279,0,0,1-.246-.272v-.033a.27.27,0,0,1,.3-.24.006.006,0,0,1,.006-.006.053.053,0,0,0,.033.006c.59.058,1.187.111,1.764.143h.026c.006,0,.006.007.013.007a.274.274,0,0,1,.247.272v.02a.288.288,0,0,1-.285.253Zm5.524-.006a.27.27,0,0,1-.273-.253.073.073,0,0,1-.006-.02.282.282,0,0,1,.259-.279c.641-.045,1.238-.1,1.815-.175a.291.291,0,0,1,.311.246v.026a.28.28,0,0,1-.246.279c-.59.071-1.206.13-1.835.175h-.026Zm-9.168-.357h-.032c-.013,0-.02-.006-.033-.006-.6-.084-1.212-.175-1.8-.279a.261.261,0,0,1-.226-.272v-.046a.269.269,0,0,1,.317-.22c.609.1,1.219.194,1.809.272a.284.284,0,0,1,.24.272.084.084,0,0,1-.006.039A.278.278,0,0,1,2895.588,1762.351Zm12.817-.084a.277.277,0,0,1-.272-.227.1.1,0,0,1-.007-.045.273.273,0,0,1,.227-.272c.616-.11,1.219-.233,1.79-.37a.279.279,0,0,1,.33.208c0,.02.007.039.007.059a.277.277,0,0,1-.214.272c-.584.136-1.193.26-1.815.37A.111.111,0,0,1,2908.405,1762.266Zm-16.442-.531a.148.148,0,0,1-.052-.007c-.577-.116-1.167-.246-1.8-.389h-.006a.276.276,0,0,1-.214-.266.218.218,0,0,1,.006-.064.274.274,0,0,1,.331-.208c.6.136,1.206.272,1.79.388a.27.27,0,0,1,.22.266.186.186,0,0,1-.006.058A.273.273,0,0,1,2891.964,1761.735Zm20.014-.312a.279.279,0,0,1-.267-.194.386.386,0,0,1-.006-.084.264.264,0,0,1,.2-.26c.583-.175,1.166-.37,1.724-.576a.284.284,0,0,1,.357.162.261.261,0,0,1,.019.1.292.292,0,0,1-.181.26c-.577.214-1.174.408-1.764.583A.155.155,0,0,1,2911.978,1761.423Zm3.442-1.277a.274.274,0,0,1-.252-.162.336.336,0,0,1-.02-.117.27.27,0,0,1,.162-.246c.538-.247,1.083-.512,1.627-.811a.276.276,0,0,1,.37.11.234.234,0,0,1,.039.129.284.284,0,0,1-.149.247c-.551.305-1.115.583-1.66.83A.364.364,0,0,1,2915.42,1760.147Zm3.229-1.75a.282.282,0,0,1-.234-.13.315.315,0,0,1-.045-.156.3.3,0,0,1,.124-.22.006.006,0,0,0,.006-.007c.006,0,.006-.006.013-.006.512-.331,1.012-.674,1.479-1.031a.292.292,0,0,1,.389.059.282.282,0,0,1,.052.162.276.276,0,0,1-.11.226c-.493.37-1,.726-1.524,1.057-.006,0-.006.007-.006.007A.3.3,0,0,1,2918.649,1758.4Zm2.937-2.2a.263.263,0,0,1-.207-.1.245.245,0,0,1-.065-.188.279.279,0,0,1,.084-.194c.006,0,.006-.007.006-.007l.014-.006c.466-.409.907-.823,1.309-1.239a.291.291,0,0,1,.4,0,.283.283,0,0,1,0,.389c-.441.447-.895.875-1.355,1.271A.281.281,0,0,1,2921.585,1756.192Zm2.581-2.62a.242.242,0,0,1-.175-.064.275.275,0,0,1-.1-.214.286.286,0,0,1,.071-.168c.4-.48.771-.966,1.109-1.439a.291.291,0,0,1,.389-.066.28.28,0,0,1,.11.234.259.259,0,0,1-.045.156c-.356.5-.739.991-1.147,1.465A.254.254,0,0,1,2924.166,1753.572Zm2.126-2.989a.259.259,0,0,1-.136-.039.264.264,0,0,1-.136-.233.278.278,0,0,1,.039-.143q.263-.448.506-.914l-.3-.039a.284.284,0,0,1-.233-.272.123.123,0,0,1,.007-.046.277.277,0,0,1,.311-.227c.162.02.324.045.479.064a1.32,1.32,0,0,0,.072-.155c.007,0,.007-.007.007-.013s.006,0,.006-.006a.29.29,0,0,1,.363-.123.271.271,0,0,1,.155.246.367.367,0,0,1-.02.117c-.006,0-.006,0-.006.006v.006c.272.032.519.065.752.084a.28.28,0,0,1,.246.279v.026a.278.278,0,0,1-.3.247c-.317-.033-.635-.072-.953-.11-.194.369-.4.745-.609,1.1a.006.006,0,0,1-.006.006A.267.267,0,0,1,2926.292,1750.584Zm7.352-.888h-.006a.284.284,0,0,1-.279-.272.293.293,0,0,1,.078-.2.274.274,0,0,1,.195-.077c.577-.013,1.167-.033,1.8-.072h.045a.276.276,0,0,1,.272.259l-.033.013h.033a.287.287,0,0,1-.26.279c-.616.032-1.238.058-1.848.071Zm-1.848-.006h-.007c-.583-.013-1.206-.039-1.848-.084a.268.268,0,0,1-.253-.279v-.012a.279.279,0,0,1,.292-.254c.6.039,1.212.066,1.822.078a.271.271,0,0,1,.195.084.274.274,0,0,1,.078.195A.285.285,0,0,1,2931.8,1749.689Zm5.53-.214h-.019a.281.281,0,0,1-.279-.247v-.033a.28.28,0,0,1,.247-.272c.6-.058,1.218-.135,1.815-.22a.277.277,0,0,1,.311.233v.046a.265.265,0,0,1-.233.265c-.609.092-1.225.162-1.834.228Zm3.619-.519a.279.279,0,0,1-.273-.228.181.181,0,0,1-.006-.058.272.272,0,0,1,.227-.26c.584-.11,1.187-.239,1.79-.376a.288.288,0,0,1,.331.208c0,.02.007.04.007.059a.278.278,0,0,1-.208.272h-.006l-.02-.026.007.026c-.635.149-1.226.272-1.8.376C2940.977,1748.95,2940.964,1748.957,2940.945,1748.957Zm-16.449-.052h-.052c-.208-.046-.409-.084-.616-.129-.421-.084-.824-.182-1.192-.279-.007,0-.007,0-.014-.007a.27.27,0,0,1-.195-.259.252.252,0,0,1,.013-.071.264.264,0,0,1,.324-.194h.013c.007,0,.02.006.026.006.376.1.758.188,1.134.265.208.046.409.084.609.123a.277.277,0,0,1,.227.266.179.179,0,0,1-.006.058A.273.273,0,0,1,2924.5,1748.9Zm20.027-.771a.26.26,0,0,1-.272-.272.262.262,0,0,1,.2-.266c.577-.162,1.167-.337,1.75-.519a.27.27,0,0,1,.344.176.175.175,0,0,1,.013.084.27.27,0,0,1-.188.266c-.629.195-1.213.37-1.777.525A.271.271,0,0,1,2944.523,1748.133Zm-23.56-.208a.28.28,0,0,1-.1-.02,9.211,9.211,0,0,1-1.673-.888.273.273,0,0,1-.123-.227.264.264,0,0,1,.051-.155.28.28,0,0,1,.383-.072,8.567,8.567,0,0,0,1.569.836.261.261,0,0,1,.168.247.311.311,0,0,1-.019.11A.277.277,0,0,1,2920.964,1747.926Zm6.9-.655a.2.2,0,0,1-.091-.02.272.272,0,0,1-.182-.259.208.208,0,0,1,.013-.092,18.028,18.028,0,0,0,.532-1.731.287.287,0,0,1,.337-.2.277.277,0,0,1,.208.266c0,.026-.006.045-.006.071-.149.59-.337,1.187-.551,1.777A.28.28,0,0,1,2927.868,1747.271Zm-9.861-1.453a.263.263,0,0,1-.221-.111,5.2,5.2,0,0,1-.376-.551,5.448,5.448,0,0,1-.506-1.154V1744a.282.282,0,0,1-.013-.077.273.273,0,0,1,.194-.266.278.278,0,0,1,.344.182,4.965,4.965,0,0,0,.453,1.037c.1.176.221.344.338.506a.25.25,0,0,1,.058.162.287.287,0,0,1-.1.221A.279.279,0,0,1,2918.007,1745.818Zm10.762-2.107h-.04a.279.279,0,0,1-.239-.273v-.038c.058-.4.1-.8.13-1.206.019-.208.026-.4.032-.59a.275.275,0,0,1,.55.007c-.006.207-.02.415-.032.623q-.04.6-.137,1.245A.261.261,0,0,1,2928.77,1743.712Zm-11.871-1.329h-.006a.277.277,0,0,1-.279-.259v-.169a9.385,9.385,0,0,1,.168-1.724.271.271,0,0,1,.324-.221.277.277,0,0,1,.221.266v.059a8.174,8.174,0,0,0-.162,1.62v.156a.273.273,0,0,1-.266.272Zm11.917-2.334a.273.273,0,0,1-.272-.233,9.548,9.548,0,0,0-.4-1.738.474.474,0,0,1-.02-.084.277.277,0,0,1,.538-.1v.006c.006.007.006.007.006.013a10.6,10.6,0,0,1,.421,1.822c0,.013.007.026.007.039a.286.286,0,0,1-.241.273Zm-11.223-1.245a.244.244,0,0,1-.11-.026.279.279,0,0,1-.162-.253.22.22,0,0,1,.026-.11,9.033,9.033,0,0,1,.934-1.64c0-.007,0-.007.007-.007a.276.276,0,0,1,.376-.058.268.268,0,0,1,.117.214.283.283,0,0,1-.052.168,8.475,8.475,0,0,0-.881,1.551A.274.274,0,0,1,2917.592,1738.8Zm10.03-2.2a.277.277,0,0,1-.234-.122,5.354,5.354,0,0,0-1.147-1.3.274.274,0,0,1-.1-.214.255.255,0,0,1,.058-.175.285.285,0,0,1,.389-.046,5.917,5.917,0,0,1,1.264,1.433.007.007,0,0,0,.007.007.292.292,0,0,1-.084.382A.3.3,0,0,1,2927.622,1736.6Zm-7.9-.764a.276.276,0,0,1-.207-.091.271.271,0,0,1-.072-.181.283.283,0,0,1,.09-.208,7.284,7.284,0,0,1,1.57-1.082.281.281,0,0,1,.37.123.247.247,0,0,1,.025.117.269.269,0,0,1-.149.253,6.7,6.7,0,0,0-1.446,1A.27.27,0,0,1,2919.725,1735.834Zm5.064-1.446a.226.226,0,0,1-.065-.006h-.006l-.026-.012a4.11,4.11,0,0,0-1.686-.123.276.276,0,0,1-.3-.24.1.1,0,0,1-.006-.046.289.289,0,0,1,.246-.265,4.856,4.856,0,0,1,1.926.155c.006,0,.006,0,.013.007a.264.264,0,0,1,.188.253.332.332,0,0,1-.013.084A.272.272,0,0,1,2924.789,1734.388Z" transform="translate(-2863.382 -1733.66)"/></g></g><g transform="translate(2946.104 1582.541)"><path class="d" d="M3174.948,1855.632l-3.144,2.666s9.049,1.906,17.05.476l-.857-3.905Z" transform="translate(-3042.8 -1683.64)"/><path class="d" d="M3219.794,1854.951l-3.144,2.667s9.049,1.905,17.05.476l-.857-3.9Z" transform="translate(-3056.31 -1683.435)"/><path class="h" d="M3179.781,1685.692a5.2,5.2,0,0,0-6.6,3.256l-5.962,17.581-19.658-4.877c-.2,6.468-2.506,10.1-2.506,10.1l24.3,6.029a5.2,5.2,0,0,0,6.18-3.379l7.5-22.111A5.2,5.2,0,0,0,3179.781,1685.692Z" transform="translate(-3034.742 -1632.591)"/><path class="t" d="M3189.669,1685.692a5.2,5.2,0,0,0-6.6,3.256l-5.19,15.3,9.6,4.075,5.439-16.039A5.2,5.2,0,0,0,3189.669,1685.692Z" transform="translate(-3044.631 -1632.591)"/><path class="u" d="M3182.792,1741.616s-11.733,53.115-8.348,79.8c0,0,8.273,3.139,14.666,0,0,0,1.573-52.085,9.847-68.522l7.451,67.737s4.385,3.923,13.785-.786L3213.3,1738.6Z" transform="translate(-3043.41 -1648.613)"/><path class="v" d="M3208.558,1755.432h-.027l-.866-.136a.175.175,0,0,1-.131-.1,25.82,25.82,0,0,1-1.833-8.564.173.173,0,0,1,.167-.178.171.171,0,0,1,.179.168,25.639,25.639,0,0,0,1.762,8.344l.552.087a44.96,44.96,0,0,1-.194-8.452.181.181,0,0,1,.2-.145.173.173,0,0,1,.145.2c-.414,2.656.214,8.527.22,8.586a.173.173,0,0,1-.172.192Z" transform="translate(-3053.011 -1650.98)"/><path class="w" d="M3183.025,1690.911l2.534,32.8a32.46,32.46,0,0,0,17.862,2.818c10.455-1.216,12.745-5.836,12.745-5.836s-1.806-32.184-2.11-32.5-1.541-10.894-16.668-8.734S3183.025,1690.911,3183.025,1690.911Z" transform="translate(-3046.178 -1630.709)"/><path class="q" d="M3186.224,1737.338l32.32,18.7-.412-4.851Z" transform="translate(-3047.144 -1648.233)"/><path class="t" d="M3212.954,1695.593s5.537,18.827,1.677,30.531l6.208,1.023,4.345-21.486-8.328-11.9Z" transform="translate(-3055.197 -1635.106)"/><path class="x" d="M3190.507,1707.47a6.662,6.662,0,0,1-2.966-.681.183.183,0,0,1-.093-.148l-.427-6.589a.183.183,0,0,1,.171-.195.174.174,0,0,1,.2.171l.42,6.484a6.318,6.318,0,0,0,5.856-.281l-.571-6.858a.183.183,0,0,1,.168-.2.186.186,0,0,1,.2.168l.58,6.971a.185.185,0,0,1-.087.173A6.537,6.537,0,0,1,3190.507,1707.47Z" transform="translate(-3047.383 -1636.737)"/><g transform="translate(146.44 39.539)"><path class="h" d="M3205.023,1666.4v9.1l-4.193,3.818-4.073-2.482v-5.473Z" transform="translate(-3196.757 -1666.402)"/></g><path class="i" d="M3203.887,1672.97l-7.13,2.362v2.913C3200.736,1677.714,3203.887,1672.97,3203.887,1672.97Z" transform="translate(-3050.317 -1628.842)"/><path class="x" d="M3198.054,1687.222a.173.173,0,0,1-.136-.066l-3.57-4.565a.171.171,0,0,1-.024-.17,5.008,5.008,0,0,1,1.6-2.133.173.173,0,1,1,.184.293,4.544,4.544,0,0,0-1.427,1.877l3.34,4.27,1.915-3.717a.176.176,0,0,1,.126-.091.168.168,0,0,1,.148.045l3.44,3.273,2.246-5.411a3.059,3.059,0,0,0-1.669-1.573.173.173,0,1,1,.115-.327,3.372,3.372,0,0,1,1.9,1.837.168.168,0,0,1,0,.129l-2.372,5.711a.172.172,0,0,1-.124.1.18.18,0,0,1-.156-.044l-3.455-3.288-1.933,3.752a.173.173,0,0,1-.138.094Z" transform="translate(-3049.58 -1630.634)"/><path class="x" d="M3187.422,1699.677a.157.157,0,0,1-.14-.16.166.166,0,0,1,.129-.186l5.353-.493c.083-.022.144.064.15.159a.164.164,0,0,1-.129.186l-5.353.494Z" transform="translate(-3047.462 -1636.634)"/><rect class="h" width="15.449" height="22.089" rx="7.724" transform="translate(139.258 25.746)"/><path class="v" d="M3211.081,1760.358a.173.173,0,0,1-.1-.031c-2.891-2.046-8.989-1.546-9.049-1.541a.169.169,0,0,1-.188-.158.173.173,0,0,1,.158-.187c.254-.023,6.285-.518,9.28,1.6a.173.173,0,0,1-.1.314Z" transform="translate(-3051.819 -1654.571)"/><path class="y" d="M3183.382,1647.524a2.251,2.251,0,0,0,.469,2.657,4.473,4.473,0,0,0,2.628,1.12,15.335,15.335,0,0,0,7.877-1.557,1.47,1.47,0,0,0,.043,2.021,2.349,2.349,0,0,0,2.087.569c.105.291-.261.526-.368.816-.178.488.423.91.94.968s1.106-.015,1.488.338a1.4,1.4,0,0,1,.261,1.335,5.225,5.225,0,0,0-.267,1.394c.027.474.384.983.858.949.507-.037.91-.659,1.394-.505a.723.723,0,0,1,.432.63c.13,1.072-1.041,2.031-.785,3.08.208.853,1.233,1.21,2.109,1.244a2.467,2.467,0,0,0,1.759-.474.983.983,0,0,0,.321-.5,1.644,1.644,0,0,0-.38-1.145c-1.223-2.016-1.35-4.5-1.309-6.853s.207-4.776-.531-7.015a3.53,3.53,0,0,0-1.239-1.891,1.626,1.626,0,0,0-2.1.15,6.685,6.685,0,0,0-3.593-1.245,25.655,25.655,0,0,0-3.5-.329,12.871,12.871,0,0,0-6.141,1.55,5.871,5.871,0,0,0-1.724,1.31,2.834,2.834,0,0,0-.72,2" transform="translate(-3046.21 -1619.898)"/><path class="h" d="M3209.531,1664.086a1.894,1.894,0,1,1-1.894-1.893A1.893,1.893,0,0,1,3209.531,1664.086Z" transform="translate(-3053.024 -1625.596)"/><path class="x" d="M3204.835,1693.323h-2.278a.183.183,0,0,1-.183-.17l-.523-6.868a.183.183,0,0,1,.169-.2.186.186,0,0,1,.2.169l.511,6.7h2.107a.184.184,0,0,1,0,.367Z" transform="translate(-3051.851 -1632.794)"/><g transform="translate(0)"><circle class="z" cx="42.344" cy="42.344" r="42.344" transform="translate(3.677 3.677)"/><path class="z" d="M3055.123,1618.494a42.528,42.528,0,0,0-7.233-2.167l-40.229,69.53a42.151,42.151,0,0,0,15.96,11.248c.48.192.963.363,1.445.536l40.528-73.092A42.317,42.317,0,0,0,3055.123,1618.494Z" transform="translate(-2993.351 -1611.778)"/><path class="z" d="M3081.622,1634.582l-37.042,70.647a42.075,42.075,0,0,0,5.8.414l35.37-65.793A42.321,42.321,0,0,0,3081.622,1634.582Z" transform="translate(-3004.473 -1617.278)"/><path class="aa" d="M3075.92,1672.957a46.02,46.02,0,1,1-25.6-59.836A46.071,46.071,0,0,1,3075.92,1672.957Zm-78.612-31.5a38.669,38.669,0,1,0,50.279-21.51A38.713,38.713,0,0,0,2997.308,1641.454Z" transform="translate(-2987.181 -1609.817)"/><path class="aa" d="M3109.119,1693.243l97.17,35.785a6.607,6.607,0,0,1-4.566,12.4c-.111-.041-.24-.093-.347-.139l-94.991-41.222a3.677,3.677,0,0,1,2.734-6.823Z" transform="translate(-3022.425 -1634.882)"/></g><g transform="translate(155.785 50.049)"><path class="h" d="M3227.87,1748.762a3.956,3.956,0,0,1-.7,1.765,1.381,1.381,0,0,1-1.709.407c-.28-.179-.487-.5-.815-.549-.415-.058-.726.347-1.089.555a1.6,1.6,0,0,1-2.008-.595c-.144-.209-.268-.461-.505-.551-.526-.2-1.068.56-1.59.351-.4-.159-.448-.773-.844-.943a2.952,2.952,0,0,0-.693-.06,1,1,0,0,1-.735-.824,2.925,2.925,0,0,1,.09-1.163q.2-.9.389-1.806a2.86,2.86,0,0,1,.36-1.021,2.763,2.763,0,0,1,2.077-.915,12.451,12.451,0,0,1,4.465.159,6.2,6.2,0,0,1,3.205,1.853C3228.5,1746.29,3228.089,1747.743,3227.87,1748.762Z" transform="translate(-3212.246 -1700.074)"/><path class="h" d="M3226.106,1728.278l4.53-21.774a5.205,5.205,0,0,0-.505-3.512l-9.759-18.258a5.2,5.2,0,1,0-9.177,4.905l8.869,16.593-4.146,19.927A27.761,27.761,0,0,1,3226.106,1728.278Z" transform="translate(-3210.266 -1681.606)"/><path class="w" d="M3212.985,1682.081a5.4,5.4,0,0,0-2.216,7.3l6.914,12.935a43.548,43.548,0,0,0,9.881-4.413l-7.275-13.612A5.4,5.4,0,0,0,3212.985,1682.081Z" transform="translate(-3210.131 -1681.444)"/><path class="x" d="M3217.879,1703.656a.184.184,0,0,1-.162-.1l-6.914-12.936a.184.184,0,1,1,.324-.173l6.842,12.8a43.322,43.322,0,0,0,9.55-4.255l-7.2-13.461a.184.184,0,1,1,.324-.173l7.275,13.612a.184.184,0,0,1-.063.241,43.545,43.545,0,0,1-9.926,4.433A.162.162,0,0,1,3217.879,1703.656Z" transform="translate(-3210.326 -1682.594)"/></g><path class="h" d="M3140.219,1718.864a6.744,6.744,0,0,1-1.076-.547,4.056,4.056,0,0,1-1.615-3.748,3.052,3.052,0,0,1,.329-1.167,1.757,1.757,0,0,1,.879-.81.706.706,0,0,1,.708.056.746.746,0,0,1,.2.37,3.915,3.915,0,0,1-.022,1.65,2.922,2.922,0,0,1,1.468-1.617.879.879,0,0,1,.731.048.842.842,0,0,1,.351.632,2.491,2.491,0,0,1-.07.742q-.059.3-.119.607a2.727,2.727,0,0,1,.6-.785,1.1,1.1,0,0,1,.924-.262,1.356,1.356,0,0,1,.869,1.149,3.182,3.182,0,0,1,.006,1.133c-.057.326-.164.644-.2.974a1.7,1.7,0,0,0,.157.8,1.376,1.376,0,0,1-.619,1.463,2.249,2.249,0,0,1-.492.283,2.022,2.022,0,0,1-1.5-.31Z" transform="translate(-3032.467 -1640.758)"/></g></g></svg>