<svg xmlns="http://www.w3.org/2000/svg" width="87.26" height="83.18" viewBox="0 0 87.26 83.18"><defs><style>.a{fill:#b1b1b1;}</style></defs><g transform="translate(-70.704 3611.863)"><path class="a" d="M138.5-3584.388a19.461,19.461,0,0,0-19.461,19.461,19.46,19.46,0,0,0,19.461,19.46,19.46,19.46,0,0,0,19.46-19.46A19.481,19.481,0,0,0,138.5-3584.388Zm0,36.632a17.172,17.172,0,0,1-17.172-17.171A17.172,17.172,0,0,1,138.5-3582.1a17.172,17.172,0,0,1,17.171,17.172A17.191,17.191,0,0,1,138.5-3547.756Z"/><path class="a" d="M139.648-3568.151v-7.079h-2.289v7.079a3.43,3.43,0,0,0-2.079,2.079h-4.79v2.29h4.79a3.426,3.426,0,0,0,3.618,2.268,3.427,3.427,0,0,0,3.019-3.019A3.425,3.425,0,0,0,139.648-3568.151Zm-1.144,4.369a1.145,1.145,0,0,1-1.145-1.145,1.144,1.144,0,0,1,1.145-1.145,1.144,1.144,0,0,1,1.144,1.145A1.145,1.145,0,0,1,138.5-3563.782Z"/><rect class="a" width="2.29" height="2.29" transform="translate(123.622 -3566.072)"/><rect class="a" width="2.29" height="2.29" transform="translate(137.359 -3552.335)"/><rect class="a" width="2.29" height="2.29" transform="translate(151.096 -3566.072)"/><rect class="a" width="2.29" height="2.29" transform="translate(137.359 -3579.809)"/><path class="a" d="M105.305-3586.678a2.29,2.29,0,0,0-2.289-2.29H98.437a2.291,2.291,0,0,0-2.29,2.29v4.579a2.29,2.29,0,0,0,2.29,2.29h4.579a2.289,2.289,0,0,0,2.289-2.29Zm-2.289,4.579H98.437v-4.579h4.579Z"/><path class="a" d="M116.753-3586.678a2.29,2.29,0,0,0-2.289-2.29h-4.579a2.29,2.29,0,0,0-2.29,2.29v4.579a2.29,2.29,0,0,0,2.29,2.29h4.579a2.289,2.289,0,0,0,2.289-2.29Zm-2.289,4.579h-4.579v-4.579h4.579Z"/><path class="a" d="M128.2-3583.243v-3.435a2.29,2.29,0,0,0-2.29-2.29h-4.579a2.29,2.29,0,0,0-2.289,2.29v4.579a2.289,2.289,0,0,0,2.289,2.29h2.29v-2.29h-2.29v-4.579h4.579v3.435Z"/><path class="a" d="M103.016-3575.23H98.437a2.29,2.29,0,0,0-2.29,2.289v4.579a2.29,2.29,0,0,0,2.29,2.29h4.579a2.289,2.289,0,0,0,2.289-2.29v-4.579A2.289,2.289,0,0,0,103.016-3575.23Zm0,6.868H98.437v-4.579h4.579Z"/><path class="a" d="M114.464-3575.23h-4.579a2.289,2.289,0,0,0-2.29,2.289v4.579a2.29,2.29,0,0,0,2.29,2.29h4.579a2.289,2.289,0,0,0,2.289-2.29v-4.579A2.289,2.289,0,0,0,114.464-3575.23Zm0,6.868h-4.579v-4.579h4.579Z"/><path class="a" d="M139.648-3585.533v-1.145a2.29,2.29,0,0,0-2.289-2.29H132.78a2.29,2.29,0,0,0-2.29,2.29v1.145h2.29v-1.145h4.579v1.145Z"/><rect class="a" width="19.784" height="2.289" transform="translate(98.114 -3559.203)"/><path class="a" d="M91.568-3595.836h52.659v10.3h2.29v-16.027a5.73,5.73,0,0,0-5.724-5.723H132.78v-1.145a3.435,3.435,0,0,0-3.435-3.435,3.435,3.435,0,0,0-3.434,3.435v1.145H109.885v-1.145a3.435,3.435,0,0,0-3.435-3.435,3.435,3.435,0,0,0-3.434,3.435v1.145H95a5.73,5.73,0,0,0-5.724,5.723v25.225h2.289Zm36.633-12.592a1.145,1.145,0,0,1,1.144-1.145,1.145,1.145,0,0,1,1.145,1.145v4.579a1.145,1.145,0,0,1-1.145,1.145,1.145,1.145,0,0,1-1.144-1.145Zm-22.9,0a1.145,1.145,0,0,1,1.145-1.145,1.145,1.145,0,0,1,1.145,1.145v4.579a1.145,1.145,0,0,1-1.145,1.145,1.145,1.145,0,0,1-1.145-1.145Zm-13.737,6.868A3.435,3.435,0,0,1,95-3604.994h8.013v1.145a3.435,3.435,0,0,0,3.434,3.434,3.435,3.435,0,0,0,3.435-3.434v-1.145h16.026v1.145a3.435,3.435,0,0,0,3.434,3.434,3.435,3.435,0,0,0,3.435-3.434v-1.145h8.013a3.434,3.434,0,0,1,3.434,3.434v3.435H91.568Z"/><circle class="a" cx="0.834" cy="0.834" r="0.834" transform="translate(79.049 -3560.894)"/><path class="a" d="M87.393-3545.29h-2.5v-2.5a.834.834,0,0,0-.835-.834.834.834,0,0,0-.834.834v2.5h-2.5a.834.834,0,0,0-.835.834.835.835,0,0,0,.835.835h2.5v2.5a.834.834,0,0,0,.834.834.834.834,0,0,0,.835-.834v-2.5h2.5a.835.835,0,0,0,.835-.835A.834.834,0,0,0,87.393-3545.29Z"/><path class="a" d="M100.8-3546.983l-3.39,1.957v-7.246a4.2,4.2,0,0,0-.834-2.5l-4.172-5.563v-2.369a2.507,2.507,0,0,0,1.669-2.36v-3.838a2.506,2.506,0,0,0-2.5-2.5H76.545a2.506,2.506,0,0,0-2.5,2.5v3.838a2.507,2.507,0,0,0,1.669,2.36v2.369l-4.172,5.563a4.2,4.2,0,0,0-.835,2.5v16.16a4.178,4.178,0,0,0,4.173,4.173h13.41a6.67,6.67,0,0,0,9.068,2.36l10.116-5.842a6.679,6.679,0,0,0,2.444-9.118A6.673,6.673,0,0,0,100.8-3546.983ZM76.545-3569.74h15.02a.836.836,0,0,1,.835.835v3.838a.836.836,0,0,1-.835.835H76.545a.836.836,0,0,1-.834-.835v-3.838h0A.836.836,0,0,1,76.545-3569.74Zm-3.671,15.966,4.339-5.785a.835.835,0,0,0,.167-.5v-2.5H90.731v1.669h-7.51a.834.834,0,0,0-.834.834.834.834,0,0,0,.834.835h7.927l4.089,5.451a2.52,2.52,0,0,1,.483,1.224H72.391A2.52,2.52,0,0,1,72.874-3553.774Zm2,20.166a2.507,2.507,0,0,1-2.5-2.5v-.842H87.534a6.682,6.682,0,0,0,.04,3.346Zm13.311-5.007H72.373v-12.266H95.738v6.819l-5.059,2.921A6.626,6.626,0,0,0,88.188-3538.615Zm8.332,7.59a5,5,0,0,1-6.838-1.831,5.006,5.006,0,0,1,1.832-6.841l4.529-2.614,5.007,8.671Zm10.117-5.841-4.142,2.392-5.007-8.672,4.142-2.391a5,5,0,0,1,6.839,1.832A5.01,5.01,0,0,1,106.637-3536.866Z"/></g></svg>