<svg xmlns="http://www.w3.org/2000/svg" width="67.825" height="84.902" viewBox="0 0 67.825 84.902"><defs><style>.a{fill:#cecece;}</style></defs><g transform="translate(230.279 3610.73)"><path class="a" d="M-1054.9-4037.841h-21.748a7.449,7.449,0,0,1-7.441-7.441v-2.083h-15.275c-.191.016-.391.027-.592.027h0a6.934,6.934,0,0,1-6.927-6.927v-39.8a1.111,1.111,0,0,1,1.111-1.1,4.041,4.041,0,0,1,2.5.822,2,2,0,0,0,2.517,0,4.209,4.209,0,0,1,5,0,2.006,2.006,0,0,0,2.518,0,4.041,4.041,0,0,1,2.5-.823,4.335,4.335,0,0,1,1.02.116l2.1,1.047a1.892,1.892,0,0,0,.644.1,1.888,1.888,0,0,0,1.258-.445,4.214,4.214,0,0,1,5,0,2.008,2.008,0,0,0,2.518,0,4.049,4.049,0,0,1,2.5-.823,1.11,1.11,0,0,1,1.11,1.11v30.262h9.635l2.209.18a7.456,7.456,0,0,1,5.784,6.47l.048,2.22v12.54a2.346,2.346,0,0,0,2.107,2.332h.236a1.116,1.116,0,0,1,1.115,1.116,1.116,1.116,0,0,1-1.115,1.116C-1054.681-4037.828-1054.79-4037.833-1054.9-4037.841Zm-26.977-19.273v11.832a5.226,5.226,0,0,0,5.221,5.22l18.163,0a4.534,4.534,0,0,1-.641-2.332v-13.973a5.226,5.226,0,0,0-5.221-5.217h-19.226A6.661,6.661,0,0,1-1081.876-4057.114Zm-22.786,2.847a4.706,4.706,0,0,0,4.706,4.707,4.707,4.707,0,0,0,4.708-4.707v-2.849a6.7,6.7,0,0,1,6.689-6.691h11.751v-28.8l-.149.1a4.208,4.208,0,0,1-5,0,2.008,2.008,0,0,0-2.518,0,4.2,4.2,0,0,1-5,0,2.007,2.007,0,0,0-2.517,0,4.2,4.2,0,0,1-5,0,2.008,2.008,0,0,0-2.518,0,4.2,4.2,0,0,1-5,0l-.148-.1Zm11.634-2.848v2.848a6.9,6.9,0,0,1-1.827,4.68h10.767v-7.528a4.47,4.47,0,0,0-4.47-4.471A4.47,4.47,0,0,0-1093.027-4057.115Zm16.641,12.214v-.524a3.56,3.56,0,0,1-2.446-3.377,1.11,1.11,0,0,1,1.109-1.11,1.11,1.11,0,0,1,1.111,1.11,1.336,1.336,0,0,0,1.318,1.335h.037a1.333,1.333,0,0,0,1.325-1.346,1.335,1.335,0,0,0-1.345-1.325,3.553,3.553,0,0,1-3.383-2.45,3.556,3.556,0,0,1,2.273-4.484v-.414a1.11,1.11,0,0,1,1.11-1.11,1.11,1.11,0,0,1,1.111,1.11v.414a3.562,3.562,0,0,1,2.446,3.377,1.111,1.111,0,0,1-1.111,1.111,1.11,1.11,0,0,1-1.109-1.111,1.337,1.337,0,0,0-1.337-1.335h0a1.336,1.336,0,0,0-1.334,1.338,1.336,1.336,0,0,0,1.338,1.334,3.555,3.555,0,0,1,3.38,2.448,3.554,3.554,0,0,1-2.27,4.485v.524a1.11,1.11,0,0,1-1.111,1.111A1.111,1.111,0,0,1-1076.387-4044.9Zm8.521-.289a1.111,1.111,0,0,1-1.111-1.11,1.112,1.112,0,0,1,1.111-1.11h4.051a1.111,1.111,0,0,1,1.111,1.11,1.11,1.11,0,0,1-1.111,1.11Zm0-4.893a1.112,1.112,0,0,1-1.111-1.112,1.112,1.112,0,0,1,1.111-1.11h4.051a1.111,1.111,0,0,1,1.111,1.11,1.112,1.112,0,0,1-1.111,1.112Zm0-4.9a1.111,1.111,0,0,1-1.111-1.11,1.112,1.112,0,0,1,1.111-1.11h4.051a1.111,1.111,0,0,1,1.111,1.11,1.11,1.11,0,0,1-1.111,1.11Zm-33.757-14.079a1.111,1.111,0,0,1,1.11-1.111h2.3a1.11,1.11,0,0,1,1.11,1.11,1.111,1.111,0,0,1-1.11,1.11h-2.3A1.11,1.11,0,0,1-1101.622-4069.057Zm6.451,1.109a1.11,1.11,0,0,1-1.11-1.11,1.11,1.11,0,0,1,1.11-1.111h14.214a1.109,1.109,0,0,1,1.109,1.11,1.11,1.11,0,0,1-1.109,1.11Zm22.993-5.658h-.4v-2.485h8.667a1.273,1.273,0,0,0,1.26-1.282v-20.139h-12.3a5.934,5.934,0,0,1-5.923-5.923,5.934,5.934,0,0,1,5.923-5.931h12.3v-5.328a1.277,1.277,0,0,0-1.263-1.285h-53.645a1.276,1.276,0,0,0-1.261,1.282v37.318a1.276,1.276,0,0,0,1.264,1.284h8.811v2.488h-8.816a3.751,3.751,0,0,1-3.72-3.771v-37.314a3.752,3.752,0,0,1,3.717-3.768h.745v-2.187a2.077,2.077,0,0,1,2.057-2.083h47.634a2.079,2.079,0,0,1,2.054,2.1v2.176h1.166a3.758,3.758,0,0,1,3.717,3.768v37.318a3.751,3.751,0,0,1-3.719,3.768Zm-6.143-29.895a3.449,3.449,0,0,0,3.381,3.5h12.29v-6.885h-12.3A3.429,3.429,0,0,0-1078.321-4103.5Zm-36.036-14.959h46.829v-1.78h-46.829Zm19.186,44.455a1.11,1.11,0,0,1-1.11-1.11,1.11,1.11,0,0,1,1.11-1.111h14.214a1.11,1.11,0,0,1,1.11,1.111,1.111,1.111,0,0,1-1.11,1.11Zm-5.341,0a1.11,1.11,0,0,1-1.11-1.11,1.11,1.11,0,0,1,1.11-1.111h2.3a1.11,1.11,0,0,1,1.11,1.111,1.111,1.111,0,0,1-1.11,1.11Zm0-6.058a1.11,1.11,0,0,1-1.11-1.11,1.11,1.11,0,0,1,1.11-1.11h2.3a1.11,1.11,0,0,1,1.11,1.11,1.111,1.111,0,0,1-1.11,1.11Zm5.342,0a1.11,1.11,0,0,1-1.11-1.11,1.109,1.109,0,0,1,1.109-1.11h14.214a1.11,1.11,0,0,1,1.11,1.11,1.111,1.111,0,0,1-1.11,1.11Zm-5.342-6.055a1.111,1.111,0,0,1-1.11-1.112,1.11,1.11,0,0,1,1.11-1.11h10.171a1.11,1.11,0,0,1,1.11,1.11,1.111,1.111,0,0,1-1.11,1.112Z" transform="translate(891 512)"/></g></svg>