<svg xmlns="http://www.w3.org/2000/svg" width="86.659" height="77.096" viewBox="0 0 86.659 77.096"><defs><style>.a{fill:#cecece;}</style></defs><g transform="translate(619.291 3611.673)"><path class="a" d="M-1079.048-4050.667l-19.407-8.865L-1116-4053.8a1,1,0,0,1-.636,0l-18.064-6.214-20.62,9.351a1.006,1.006,0,0,1-1.082-.167,1,1,0,0,1-.282-1.058l13.664-41.476a1,1,0,0,1,.664-.646l3.7-1.1a5.978,5.978,0,0,0-1-.193,1,1,0,0,1-.886-1.1,1,1,0,0,1,1.1-.885,4.462,4.462,0,0,1,3.245,1.444l6.107-1.821a1.011,1.011,0,0,1,.561,0l3.942,1.134a27.963,27.963,0,0,1-4.161-13.919h-3.281a1,1,0,0,1-1-1,1,1,0,0,1,1-1h3.3a16.218,16.218,0,0,1,16.161-15.212,16.183,16.183,0,0,1,16.115,16.213,27.962,27.962,0,0,1-3.751,14.175l9.424,2.784a1,1,0,0,1,.669.656l13.419,41.964a1,1,0,0,1-.289,1.052.994.994,0,0,1-.663.253A1.009,1.009,0,0,1-1079.048-4050.667Zm-18.931-10.847,17.706,8.087-12.569-39.306-9.437-2.788a34.935,34.935,0,0,1-2.751,3.58l1.71,8.771.294-.153a1.011,1.011,0,0,1,.595-.106l5.88.78a1,1,0,0,1,.86,1.123,1,1,0,0,1-.99.868.926.926,0,0,1-.132-.008l-5.567-.739-.541.282,3.205,16.431a1,1,0,0,1-.789,1.173,1.029,1.029,0,0,1-.193.02,1,1,0,0,1-.98-.809l-5.037-25.823a50.968,50.968,0,0,1-6.289,5.377.827.827,0,0,1-.585.23h-.053a.967.967,0,0,1-.62-.28,44.762,44.762,0,0,1-9.566-9.153l-5.96-1.712-11.493,3.427-8.809,26.745,5.85-2.469a1,1,0,0,1,1.309.532,1,1,0,0,1-.531,1.31l-6.45,2.721a.994.994,0,0,1-.388.08,1.014,1.014,0,0,1-.465-.125l-3.3,10.021,18.906-8.574a1,1,0,0,1,.739-.035l18.122,6.235,17.595-5.752a1,1,0,0,1,.309-.049A1.006,1.006,0,0,1-1097.979-4061.514Zm-29.548-49.946c0,9.553,4.436,17.314,13.958,24.428l.016.011.016-.011c9.454-7.148,13.856-14.911,13.856-24.428a13.938,13.938,0,0,0-13.873-13.973A13.824,13.824,0,0,0-1127.527-4111.46Zm-6.17,47.169a1,1,0,0,1-.643-1.23c.07-.293.4-2.154.867-4.821l-5.384,2.272a1.01,1.01,0,0,1-.387.079,1,1,0,0,1-.922-.611,1,1,0,0,1,.532-1.311l5.992-2.529a.981.981,0,0,1,.541-.048c.832-4.813,1.921-11.2,2.76-16.157a1,1,0,0,1,1.153-.818,1,1,0,0,1,.819,1.153c-1.159,6.844-3.876,22.825-4.063,23.388a1,1,0,0,1-.95.684A.984.984,0,0,1-1133.7-4064.291Zm8.437-2.713-3.336-1.429a1,1,0,0,1-.524-1.314,1,1,0,0,1,1.313-.525l2.132.915.285-2.041a1,1,0,0,1,1.128-.853,1,1,0,0,1,.853,1.129l-.465,3.338a1,1,0,0,1-.5.732,1,1,0,0,1-.492.128A.987.987,0,0,1-1125.261-4067Zm1.413-8.218a1,1,0,0,1-.852-1.129l.307-2.2a1,1,0,0,1,.455-.707,1,1,0,0,1,.832-.11l4.561,1.419a1,1,0,0,1,.658,1.251,1,1,0,0,1-1.251.658l-3.436-1.069-.145,1.037a1,1,0,0,1-.988.862A1.077,1.077,0,0,1-1123.848-4075.222Zm8.815-.7a1,1,0,0,1,.424-1.349l6.205-3.24a1,1,0,0,1,1.349.424,1,1,0,0,1-.423,1.35l-6.205,3.24a1,1,0,0,1-.462.114A1,1,0,0,1-1115.033-4075.925Zm19.726-8.024v-2.76a1,1,0,0,1,1-1,1,1,0,0,1,1,1v2.76a1,1,0,0,1-1,1A1,1,0,0,1-1095.307-4083.949Zm-55.859-11.368a1,1,0,0,1-1-1,1,1,0,0,1,1-1h6.772a1,1,0,0,1,1,1,1,1,0,0,1-1,1Zm-4.959,0a9.582,9.582,0,0,1-6.6-3.256,1,1,0,0,1,.173-1.4,1,1,0,0,1,1.4.173c1.759,2.256,5.051,2.484,5.084,2.487l.062,0a1,1,0,0,1,1,1,1,1,0,0,1-1,1Zm-7.184-7.4a1,1,0,0,1-.981-1.018,8.431,8.431,0,0,1,2.968-6.758,1,1,0,0,1,1.406.15,1,1,0,0,1-.148,1.406,6.525,6.525,0,0,0-2.225,5.239,1,1,0,0,1-1,.981Zm42.31-9.736a7.454,7.454,0,0,1,7.445-7.446,7.546,7.546,0,0,1,7.446,7.446,7.455,7.455,0,0,1-7.446,7.446A7.366,7.366,0,0,1-1121-4112.457Zm2.14,0a5.312,5.312,0,0,0,5.3,5.306,5.328,5.328,0,0,0,5.207-5.306,5.277,5.277,0,0,0-5.207-5.207A5.327,5.327,0,0,0-1118.86-4112.457Zm-38.373,1.113a1,1,0,0,1,.906-1.086c.335-.03.551-.031.6-.031h6.268a1,1,0,0,1,1,1,1,1,0,0,1-1,1h-6.268c-.032,0-.182,0-.417.023l-.091,0A1,1,0,0,1-1157.233-4111.344Zm12.608.883a1,1,0,0,1-1-1,1,1,0,0,1,1-1h6.772a1,1,0,0,1,1,1,1,1,0,0,1-1,1Z" transform="translate(545 516)"/></g></svg>