<svg xmlns="http://www.w3.org/2000/svg" xmlns:xlink="http://www.w3.org/1999/xlink" width="270" height="250" viewBox="0 0 270 250">
  <defs>
    <clipPath id="clip-path">
      <rect id="Rectangle_9210" data-name="Rectangle 9210" width="270" height="250" transform="translate(1323 2852)" fill="#fff" stroke="#707070" stroke-width="1"/>
    </clipPath>
  </defs>
  <g id="Mask_Group_100" data-name="Mask Group 100" transform="translate(-1323 -2852)" clip-path="url(#clip-path)">
    <g id="Group_18894" data-name="Group 18894" transform="translate(1269.993 2833)">
      <g id="Online_Doctor-rafiki" data-name="Online Doctor-rafiki" transform="translate(-31.286 -47.24)">
        <g id="freepik--background-simple--inject-1" transform="translate(84.293 85.997)">
          <path id="Path_32383" data-name="Path 32383" d="M228.373,166.58C204.537,132.065,170.52,57.5,115.855,104.956,61.6,152.113,102.284,235.67,136.817,263.92c34.9,28.487,147.321,54.318,162.981-17.681C310.6,196.716,254.712,204.706,228.373,166.58Z" transform="translate(-89.441 -89.606)" fill="#407bff"/>
          <path id="Path_32384" data-name="Path 32384" d="M228.373,166.58C204.537,132.065,170.52,57.5,115.855,104.956,61.6,152.113,102.284,235.67,136.817,263.92c34.9,28.487,147.321,54.318,162.981-17.681C310.6,196.716,254.712,204.706,228.373,166.58Z" transform="translate(-89.441 -89.606)" fill="#fff" opacity="0.9"/>
        </g>
        <g id="freepik--cross-icon--inject-1" transform="translate(269.629 249.074)">
          <circle id="Ellipse_1234" data-name="Ellipse 1234" cx="26.787" cy="26.787" r="26.787" transform="translate(0.338 0.33)" fill="#fff"/>
          <path id="Path_32385" data-name="Path 32385" d="M335.755,336.7a27.117,27.117,0,1,1,27.108-27.114A27.117,27.117,0,0,1,335.755,336.7Zm0-53.566a26.457,26.457,0,1,0,26.457,26.455,26.457,26.457,0,0,0-26.457-26.455Z" transform="translate(-308.63 -282.47)" fill="#407bff"/>
          <rect id="Rectangle_6932" data-name="Rectangle 6932" width="8.625" height="30.372" transform="translate(22.813 11.931)" fill="#407bff"/>
          <rect id="Rectangle_6933" data-name="Rectangle 6933" width="8.625" height="30.372" transform="translate(42.312 22.813) rotate(90)" fill="#407bff"/>
        </g>
        <g id="freepik--pulse-icon--inject-1" transform="translate(108.255 66.24)">
          <path id="Path_32386" data-name="Path 32386" d="M126,73.706l-.575-.617a26,26,0,0,1,14.214-6.849l.118.846A25.147,25.147,0,0,0,126,73.706Z" transform="translate(-118.962 -66.24)" fill="#407bff"/>
          <path id="Path_32387" data-name="Path 32387" d="M118.566,84.842l-.786-.3a26.017,26.017,0,0,1,3.382-6.037l.676.507A25.57,25.57,0,0,0,118.566,84.842Z" transform="translate(-117.78 -68.133)" fill="#407bff"/>
          <circle id="Ellipse_1235" data-name="Ellipse 1235" cx="23.202" cy="23.202" r="23.202" transform="translate(1.175 2.697)" fill="#407bff"/>
          <path id="Path_32388" data-name="Path 32388" d="M157.468,83.968a9.69,9.69,0,0,0-13.833-.127,9.682,9.682,0,0,0-13.825.127,9.9,9.9,0,0,0,.347,13.8l10.992,10.992a3.551,3.551,0,0,0,5.023,0l10.992-10.992A9.9,9.9,0,0,0,157.468,83.968Z" transform="translate(-119.232 -68.52)" fill="#fff"/>
          <path id="Path_32389" data-name="Path 32389" d="M143.4,105.51h0a.846.846,0,0,1-.769-.567l-4.9-14.315-2.046,5.987a.846.846,0,0,1-.8.567H126.7a.846.846,0,1,1,0-1.691h7.61l2.655-7.754a.846.846,0,0,1,1.6,0l4.98,14.569,4.837-11.39a.843.843,0,0,1,1.514-.085l2.554,4.651h7.7a.846.846,0,0,1,0,1.691h-8.193a.846.846,0,0,1-.744-.431l-2-3.585-5.023,11.838A.846.846,0,0,1,143.4,105.51Z" transform="translate(-119.026 -69.472)" fill="#407bff"/>
        </g>
        <g id="freepik--Character--inject-1" transform="translate(126.619 75.595)">
          <path id="Path_32390" data-name="Path 32390" d="M280.826,338.5H192.575a10.367,10.367,0,0,1-10.451-11.161l14.264-211.389a12.21,12.21,0,0,1,11.965-11.2h88.267a10.367,10.367,0,0,1,10.451,11.2l-14.29,211.389A12.2,12.2,0,0,1,280.826,338.5Z" transform="translate(-146.077 -81.543)" fill="#263238"/>
          <path id="Path_32391" data-name="Path 32391" d="M321.059,198.036h-2.224a2.892,2.892,0,0,1-2.917-3.129l2.731-40.409a3.382,3.382,0,0,1,3.34-3.129h2.224a2.892,2.892,0,0,1,2.917,3.129L324.4,194.908A3.382,3.382,0,0,1,321.059,198.036Z" transform="translate(-166.744 -88.743)" fill="#263238"/>
          <path id="Path_32392" data-name="Path 32392" d="M196.637,171.088h-2.215a2.368,2.368,0,0,1-2.393-2.537l.989-14.594a2.79,2.79,0,0,1,2.731-2.537h2.224a2.376,2.376,0,0,1,2.384,2.537l-.989,14.594a2.782,2.782,0,0,1-2.731,2.537Z" transform="translate(-147.61 -88.751)" fill="#407bff"/>
          <path id="Path_32393" data-name="Path 32393" d="M194.557,201.908h-2.224a2.368,2.368,0,0,1-2.384-2.537l.989-14.594a2.79,2.79,0,0,1,2.731-2.537h2.241a2.376,2.376,0,0,1,2.384,2.537l-.989,14.594a2.782,2.782,0,0,1-2.748,2.537Z" transform="translate(-147.289 -93.511)" fill="#407bff"/>
          <path id="Path_32394" data-name="Path 32394" d="M278.616,338.51H190.365a10.367,10.367,0,0,1-10.451-11.161L194.187,115.96a12.21,12.21,0,0,1,12.007-11.17h88.217a10.366,10.366,0,0,1,10.451,11.17L290.581,327.348a12.2,12.2,0,0,1-11.965,11.161Z" transform="translate(-145.735 -81.549)" fill="#407bff"/>
          <path id="Path_32395" data-name="Path 32395" d="M181.02,327.522,194.955,121.24H304.082L290.147,327.522Z" transform="translate(-145.911 -84.089)" fill="#fff" opacity="0.3"/>
          <path id="Path_32396" data-name="Path 32396" d="M231.97,327.522,270.916,121.24h24.445L256.415,327.522Z" transform="translate(-153.78 -84.089)" fill="#fff" opacity="0.1"/>
          <path id="Path_32397" data-name="Path 32397" d="M210.13,327.522,249.076,121.24h12.387L222.517,327.522Z" transform="translate(-150.407 -84.089)" fill="#fff" opacity="0.1"/>
          <path id="Path_32398" data-name="Path 32398" d="M249.87,110.92h21.283a1.268,1.268,0,0,1,1.285,1.378h0a1.505,1.505,0,0,1-1.471,1.387H249.684A1.277,1.277,0,0,1,248.4,112.3h0a1.5,1.5,0,0,1,1.471-1.378Z" transform="translate(-156.316 -82.496)" fill="#fff"/>
          <path id="Path_32399" data-name="Path 32399" d="M243.047,402.105l-7.458.71L232.9,385.609l7.458-.719Z" transform="translate(-153.923 -124.809)" fill="#ffb573"/>
          <path id="Path_32400" data-name="Path 32400" d="M232.925,401.331l7.813-2.427a.55.55,0,0,1,.693.321l2.537,6.2a1.285,1.285,0,0,1-.846,1.691c-2.824.846-5.513,1.04-8.921,2.537-3.983,1.691-5.648,3.957-9.935,3.957-3.069,0-3.763-2.816-2.461-3.2,5.919-1.793,5.141-3.264,9.436-7.889A3.957,3.957,0,0,1,232.925,401.331Z" transform="translate(-152.114 -126.969)" fill="#263238"/>
          <path id="Path_32401" data-name="Path 32401" d="M232.9,385.609l1.387,8.878,7.466-.719-1.387-8.878Z" transform="translate(-153.923 -124.809)" opacity="0.2"/>
          <path id="Path_32402" data-name="Path 32402" d="M232.611,128.5a94.809,94.809,0,0,0-29.282,1.514,7.8,7.8,0,0,0-6.266,6.764c-1.057,9.352-2.266,30.313,2.452,61.582l39.978-3.382c.076-5.674-3.957-31.522-.626-58.343a7.162,7.162,0,0,0-6.257-8.134Z" transform="translate(-148.24 -85.127)" fill="#fff"/>
          <path id="Path_32403" data-name="Path 32403" d="M211.75,137.864l1.429,2.858a.846.846,0,0,0,.753.49l1.547.085a1.2,1.2,0,0,0,.769-.237l2.663-1.987-3.289-2.393Z" transform="translate(-150.657 -86.474)" fill="#263238"/>
          <path id="Path_32404" data-name="Path 32404" d="M215.383,141.126a2.6,2.6,0,0,0-1.8-.144c-1.26,4.439-2.638,17.182-2.782,22.83,3.822,11.136,5.073,12.261,5.073,12.261l1.936-13.4S215.637,148.964,215.383,141.126Z" transform="translate(-150.51 -87.123)" fill="#263238"/>
          <path id="Path_32405" data-name="Path 32405" d="M226.342,105.8c-.913,5.513-1.691,15.584,2.266,19.143-2.9,3.044-6.7,6.57-13.208,6.967s-5.5-4.109-3.856-6.519c6.08-1.623,5.784-6.156,4.591-10.392Z" transform="translate(-150.435 -81.705)" fill="#ffb573"/>
          <path id="Path_32406" data-name="Path 32406" d="M231.195,127.782a8.117,8.117,0,0,0-1.429-.465.567.567,0,0,0-.634.262c-.626,1.065-2.537,5.826-12.8,7.652,1.691,1,3.932,4.092,4.9,5.581,3.078-1.6,11.085-6.375,10.324-12.556A.626.626,0,0,0,231.195,127.782Z" transform="translate(-151.364 -85.025)" fill="#f5f5f5"/>
          <path id="Path_32407" data-name="Path 32407" d="M210.979,129.138a.592.592,0,0,0-.693-.71,7.941,7.941,0,0,0-1.049.279.846.846,0,0,0-.22.127c-.786.727-5.073,6.917-1.057,11.922.846-1.361,3.763-4.448,6.815-5.352C211.884,134.1,210.464,131.675,210.979,129.138Z" transform="translate(-149.81 -85.198)" fill="#f5f5f5"/>
          <path id="Path_32408" data-name="Path 32408" d="M223.247,110.24l-6.037,5.445a17.432,17.432,0,0,1,.609,3.01c2.334-.4,5.471-3.044,5.64-5.5A8.016,8.016,0,0,0,223.247,110.24Z" transform="translate(-151.5 -82.391)" opacity="0.2"/>
          <path id="Path_32409" data-name="Path 32409" d="M213.855,86c-5.209,2.038-5.547,6.316-5.073,10.992s5.564,1.581,6.7-1.344S221.068,83.172,213.855,86Z" transform="translate(-150.175 -78.566)" fill="#263238"/>
          <path id="Path_32410" data-name="Path 32410" d="M230.449,94.916c-1.446,7.365-1.928,11.736-6.139,15.127-6.35,5.073-14.949.693-15.71-6.9-.685-6.841,1.793-17.757,9.377-19.887a9.91,9.91,0,0,1,12.472,11.66Z" transform="translate(-150.154 -78.161)" fill="#ffb573"/>
          <path id="Path_32411" data-name="Path 32411" d="M229.826,100.156c-6.2.33-4.887-3.188-3.763-5.209s-1.167-5.361.33-7.094c-2.672,1.065-5.488.186-9.064-2.3-2.773-1.936-6.249,5.8-9.631,1.919-3.2-3.661-.228-9.183,7.449-10.071s9.073,4.541,14.112,4.059,3.289,3.67,2.3,4.515C235.787,86.255,238.1,90.3,229.826,100.156Z" transform="translate(-149.835 -77.304)" fill="#263238"/>
          <path id="Path_32412" data-name="Path 32412" d="M235,87.183a6.206,6.206,0,0,0,3.222-5.4C239.9,84.714,239.718,88.046,235,87.183Z" transform="translate(-154.248 -77.995)" fill="#263238"/>
          <path id="Path_32413" data-name="Path 32413" d="M215.833,106.2a5.073,5.073,0,0,0,3.873-.913.169.169,0,0,0,0-.245.178.178,0,0,0-.245,0,4.879,4.879,0,0,1-4.3.668.194.194,0,0,0-.228.118.178.178,0,0,0,.118.22,4.474,4.474,0,0,0,.786.152Z" transform="translate(-151.147 -81.58)" fill="#263238"/>
          <path id="Path_32414" data-name="Path 32414" d="M234.876,106.042a7.2,7.2,0,0,1-4.727,2.723c-2.461.321-3.281-1.97-2.249-4.109.939-1.928,3.382-4.414,5.648-3.746S236.3,104.182,234.876,106.042Z" transform="translate(-153.084 -80.932)" fill="#ffb573"/>
          <path id="Path_32415" data-name="Path 32415" d="M228.217,282.732c.3-22.077,3.12-74.662,3.12-74.662L200.17,210.7s6.2,54.192,9.935,76.717c3.89,23.413,15.82,78.265,15.82,78.265l12.683-1.082S233.975,299.8,228.217,282.732Z" transform="translate(-148.868 -97.5)" fill="#263238"/>
          <path id="Path_32416" data-name="Path 32416" d="M229.506,393.76l15.042-1.277-.592-4.853-15.677,1.048Z" transform="translate(-153.21 -125.232)" fill="#407bff"/>
          <path id="Path_32417" data-name="Path 32417" d="M221.061,97.425c-.076.6-.465,1.057-.846,1.015s-.643-.567-.558-1.175.465-1.057.846-1.015S221.145,96.824,221.061,97.425Z" transform="translate(-151.876 -80.229)" fill="#263238"/>
          <path id="Path_32418" data-name="Path 32418" d="M212.9,96.786c-.076.609-.465,1.057-.846,1.015s-.643-.567-.558-1.167.465-1.057.846-1.015S212.985,96.152,212.9,96.786Z" transform="translate(-150.615 -80.132)" fill="#263238"/>
          <path id="Path_32419" data-name="Path 32419" d="M214.8,97.84a20.988,20.988,0,0,1-3.636,4.228,3.681,3.681,0,0,0,2.748.685Z" transform="translate(-150.566 -80.475)" fill="#ed893e"/>
          <path id="Path_32420" data-name="Path 32420" d="M208,97.18c-.127.964.846,1.767,2.19,1.936s2.587-.567,2.706-1.53" transform="translate(-150.076 -80.373)" fill="#407bff" opacity="0.4"/>
          <path id="Path_32421" data-name="Path 32421" d="M217.446,98.24c-.186.955.753,1.818,2.072,2.072s2.613-.423,2.79-1.37" transform="translate(-151.533 -80.537)" fill="#407bff" opacity="0.4"/>
          <path id="Path_32422" data-name="Path 32422" d="M218.547,100.391a4.13,4.13,0,0,1-.457,0,3.213,3.213,0,0,1-1.75-.786,1.759,1.759,0,0,1-.609-1.5,4.228,4.228,0,0,0-1.353-.338,2.951,2.951,0,0,0-1.429,0c-.118,1.032-1.4,1.742-2.841,1.564a3.145,3.145,0,0,1-1.75-.778,1.776,1.776,0,0,1-.609-1.5l.406.051a1.361,1.361,0,0,0,.482,1.15,2.74,2.74,0,0,0,1.522.668c1.218.161,2.3-.406,2.41-1.251.059-.474,1.04-.44,1.852-.338s1.776.33,1.691.795a1.353,1.353,0,0,0,.482,1.15,2.909,2.909,0,0,0,3.171.406,1.353,1.353,0,0,0,.761-.989v-.2l10.434,1.344-.051.406-10.045-1.294a1.818,1.818,0,0,1-.93,1.091A2.985,2.985,0,0,1,218.547,100.391Z" transform="translate(-150.038 -80.355)" fill="#263238"/>
          <path id="Path_32423" data-name="Path 32423" d="M223.961,94.077a.3.3,0,0,0,.169-.051.364.364,0,0,0,.135-.49,3.382,3.382,0,0,0-2.655-1.776.364.364,0,0,0-.381.338.355.355,0,0,0,.33.372h0a2.714,2.714,0,0,1,2.089,1.437.347.347,0,0,0,.313.169Z" transform="translate(-152.121 -79.536)" fill="#263238"/>
          <path id="Path_32424" data-name="Path 32424" d="M210.463,93.01a.364.364,0,0,0,.313-.127,2.883,2.883,0,0,1,2.334-1.133.355.355,0,0,0,.389-.321.347.347,0,0,0-.3-.389,3.636,3.636,0,0,0-2.959,1.4.355.355,0,0,0,.042.5A.431.431,0,0,0,210.463,93.01Z" transform="translate(-150.41 -79.425)" fill="#263238"/>
          <path id="Path_32425" data-name="Path 32425" d="M255.966,279.032c-6.468-33.247-7.923-59.248-14.062-71.872l-30.195,3.382s17.985,49.541,26.77,70.688c9.124,21.984,27.134,59.544,27.134,59.544H280.7S266.62,294.176,255.966,279.032Z" transform="translate(-150.651 -97.359)" fill="#263238"/>
          <path id="Path_32426" data-name="Path 32426" d="M149.105,142.854l-3.264-2.063a2.723,2.723,0,0,0-3.433.4l-2.215,2.334a2.537,2.537,0,0,0,.22,3.7l1.581,1.353a12.894,12.894,0,0,0,4.71,2.537l4.777,1.412,3.137-3.382C155.574,145.61,149.105,142.854,149.105,142.854Z" transform="translate(-139.498 -87.042)" fill="#ffb573"/>
          <path id="Path_32427" data-name="Path 32427" d="M198.659,140.665c-1.184,2.892-2.342,5.581-3.6,8.329s-2.537,5.462-3.949,8.16-2.917,5.378-4.625,8.067a46.364,46.364,0,0,1-2.85,4.016,25.655,25.655,0,0,1-3.89,4.033,13.959,13.959,0,0,1-3.12,1.928c-.355.135-.685.271-1.074.389l-.592.161a7.058,7.058,0,0,1-.9.161,8.455,8.455,0,0,1-3.078-.22,12.532,12.532,0,0,1-3.534-1.615,20.3,20.3,0,0,1-2.325-1.691,55.567,55.567,0,0,1-6.722-6.993c-1.97-2.368-3.83-4.744-5.614-7.17s-3.5-4.811-5.259-7.356l9.352-6.037a126.131,126.131,0,0,0,9.775,13.656,46.03,46.03,0,0,0,5.386,5.572,10.621,10.621,0,0,0,1.192.846c.313.211.626.3.406.22a2.165,2.165,0,0,0-.913-.051,2.012,2.012,0,0,0-.364.068h-.118a5.123,5.123,0,0,0,.55-.414,15.6,15.6,0,0,0,2.089-2.317c.719-.964,1.437-2.046,2.122-3.171a77.548,77.548,0,0,0,3.822-7.221c1.184-2.537,2.325-5.073,3.382-7.711s2.063-5.319,2.917-7.881Z" transform="translate(-140.737 -86.434)" fill="#407bff"/>
          <g id="Group_23950" data-name="Group 23950" transform="translate(6.783 49.986)" opacity="0.6">
            <path id="Path_32428" data-name="Path 32428" d="M198.659,140.665c-1.184,2.892-2.342,5.581-3.6,8.329s-2.537,5.462-3.949,8.16-2.917,5.378-4.625,8.067a46.364,46.364,0,0,1-2.85,4.016,25.655,25.655,0,0,1-3.89,4.033,13.959,13.959,0,0,1-3.12,1.928c-.355.135-.685.271-1.074.389l-.592.161a7.058,7.058,0,0,1-.9.161,8.455,8.455,0,0,1-3.078-.22,12.532,12.532,0,0,1-3.534-1.615,20.3,20.3,0,0,1-2.325-1.691,55.567,55.567,0,0,1-6.722-6.993c-1.97-2.368-3.83-4.744-5.614-7.17s-3.5-4.811-5.259-7.356l9.352-6.037a126.131,126.131,0,0,0,9.775,13.656,46.03,46.03,0,0,0,5.386,5.572,10.621,10.621,0,0,0,1.192.846c.313.211.626.3.406.22a2.165,2.165,0,0,0-.913-.051,2.012,2.012,0,0,0-.364.068h-.118a5.123,5.123,0,0,0,.55-.414,15.6,15.6,0,0,0,2.089-2.317c.719-.964,1.437-2.046,2.122-3.171a77.548,77.548,0,0,0,3.822-7.221c1.184-2.537,2.325-5.073,3.382-7.711s2.063-5.319,2.917-7.881Z" transform="translate(-147.52 -136.42)" fill="#fff"/>
          </g>
          <path id="Path_32429" data-name="Path 32429" d="M227.884,126.07c-3.171,5.919-14.459,28.47-15.829,42.388-5-12.683-3.906-40.739-3.906-40.739a37.568,37.568,0,0,0-10.375,2.537,6.265,6.265,0,0,0-3.864,5.293,221.592,221.592,0,0,0,1.37,43.521c3.509,27.311,6.764,69.784,6.764,69.784s27.946-1.167,49.507-5.716c-2.63-20.877-11.626-55.866-11.711-65.235-.1-12.058.178-35.632.558-45.474a5.826,5.826,0,0,0-4.667-5.978A29.232,29.232,0,0,0,227.884,126.07Z" transform="translate(-147.825 -84.819)" fill="#407bff"/>
          <path id="Path_32430" data-name="Path 32430" d="M227.884,126.07c-3.171,5.919-14.459,28.47-15.829,42.388-5-12.683-3.906-40.739-3.906-40.739a37.568,37.568,0,0,0-10.375,2.537,6.265,6.265,0,0,0-3.864,5.293,221.592,221.592,0,0,0,1.37,43.521c3.509,27.311,6.764,69.784,6.764,69.784s27.946-1.167,49.507-5.716c-2.63-20.877-11.626-55.866-11.711-65.235-.1-12.058.178-35.64.558-45.482a5.733,5.733,0,0,0-4.405-5.919,29.011,29.011,0,0,0-8.109-.431Z" transform="translate(-147.825 -84.818)" fill="#fff" opacity="0.7"/>
          <path id="Path_32431" data-name="Path 32431" d="M224.744,253.008c-4.854-26.779-8.7-66.072-9.014-70.8h.431c.313,4.727,4.169,43.969,9.014,70.748Z" transform="translate(-151.272 -93.506)" fill="#fff"/>
          <path id="Path_32432" data-name="Path 32432" d="M216.831,201.613H191.058a2.41,2.41,0,0,1-2.232-1.835l-8.616-40.054a1.437,1.437,0,0,1,1.437-1.835h25.764a2.41,2.41,0,0,1,2.241,1.835l8.616,40.054a1.437,1.437,0,0,1-1.437,1.835Z" transform="translate(-145.777 -89.75)" fill="#fff"/>
          <path id="Path_32433" data-name="Path 32433" d="M215.765,201.878H189.553a2.461,2.461,0,0,1-2.275-1.869l-8.768-40.73a1.471,1.471,0,0,1,1.471-1.869h26.212a2.461,2.461,0,0,1,2.275,1.869l8.76,40.73a1.463,1.463,0,0,1-1.463,1.869Z" transform="translate(-145.515 -89.676)" fill="#407bff"/>
          <path id="Path_32434" data-name="Path 32434" d="M223.61,182.775l-6.519-.245a5.589,5.589,0,0,0-2.291.406l-3.382,1.353a2.537,2.537,0,0,0-1.387,3.382l1.353,2.926a2.74,2.74,0,0,0,3.129,1.471l3.729-.93s7-.558,7.255-4.228Z" transform="translate(-150.358 -93.555)" fill="#ffb573"/>
          <path id="Path_32435" data-name="Path 32435" d="M243.594,130.38c1.615,2.537,3.095,4.853,4.549,7.339s2.883,4.947,4.228,7.517,2.621,5.226,3.78,8.067a41.075,41.075,0,0,1,1.539,4.558,19.1,19.1,0,0,1,.744,5.809V164a1.612,1.612,0,0,1,0,.169,4.882,4.882,0,0,1-.144.913c-.059.3-.135.541-.22.846a5.833,5.833,0,0,1-.271.7,9.445,9.445,0,0,1-1.235,2.046,14.755,14.755,0,0,1-2.342,2.334,30.789,30.789,0,0,1-4.228,2.8,80.557,80.557,0,0,1-8.05,3.839c-2.663,1.133-5.319,2.165-7.99,3.137s-5.3,1.911-8.083,2.841l-3.222-10.654c2.537-.693,5.124-1.547,7.652-2.41s5.073-1.826,7.475-2.833a65.882,65.882,0,0,0,6.883-3.323,19.86,19.86,0,0,0,2.68-1.784,3.22,3.22,0,0,0,.592-.583.9.9,0,0,0-.169.279.555.555,0,0,1-.085.22,2,2,0,0,0-.076.3,2.055,2.055,0,0,0-.068.4c0,.051,0,.059,0,.042v-.059a9.943,9.943,0,0,0-.465-2.359,30.5,30.5,0,0,0-1.2-3.255,66.03,66.03,0,0,0-3.5-6.824c-1.319-2.266-2.723-4.532-4.228-6.764s-3.044-4.456-4.591-6.485Z" transform="translate(-152.34 -85.501)" fill="#407bff"/>
          <g id="Group_23951" data-name="Group 23951" transform="translate(70.31 44.879)" opacity="0.7">
            <path id="Path_32436" data-name="Path 32436" d="M243.594,130.38c1.615,2.537,3.095,4.853,4.549,7.339s2.883,4.947,4.228,7.517,2.621,5.226,3.78,8.067a41.075,41.075,0,0,1,1.539,4.558,19.1,19.1,0,0,1,.744,5.809V164a1.612,1.612,0,0,1,0,.169,4.882,4.882,0,0,1-.144.913c-.059.3-.135.541-.22.846a5.833,5.833,0,0,1-.271.7,9.445,9.445,0,0,1-1.235,2.046,14.755,14.755,0,0,1-2.342,2.334,30.789,30.789,0,0,1-4.228,2.8,80.557,80.557,0,0,1-8.05,3.839c-2.663,1.133-5.319,2.165-7.99,3.137s-5.3,1.911-8.083,2.841l-3.222-10.654c2.537-.693,5.124-1.547,7.652-2.41s5.073-1.826,7.475-2.833a65.882,65.882,0,0,0,6.883-3.323,19.86,19.86,0,0,0,2.68-1.784,3.22,3.22,0,0,0,.592-.583.9.9,0,0,0-.169.279.555.555,0,0,1-.085.22,2,2,0,0,0-.076.3,2.055,2.055,0,0,0-.068.4c0,.051,0,.059,0,.042v-.059a9.943,9.943,0,0,0-.465-2.359,30.5,30.5,0,0,0-1.2-3.255,66.03,66.03,0,0,0-3.5-6.824c-1.319-2.266-2.723-4.532-4.228-6.764s-3.044-4.456-4.591-6.485Z" transform="translate(-222.65 -130.38)" fill="#fff"/>
          </g>
          <path id="Path_32437" data-name="Path 32437" d="M235.138,160.195a.339.339,0,0,1-.178-.626l1.319-.846a7.187,7.187,0,0,0,3.213-7.492l-2.655-13.444a4.549,4.549,0,0,0-8.845-.372L224.23,150.6a7.162,7.162,0,0,0,2.537,7.728l1.251.947a.338.338,0,0,1,.059.474.33.33,0,0,1-.465.059l-1.184-.939a7.847,7.847,0,0,1-2.816-8.456l3.771-13.182a5.226,5.226,0,0,1,10.147.423l2.655,13.453a7.847,7.847,0,0,1-3.509,8.185l-1.328.846A.279.279,0,0,1,235.138,160.195Z" transform="translate(-152.441 -85.975)" fill="#263238"/>
          <path id="Path_32438" data-name="Path 32438" d="M237.907,138.714h0l-9.5-.4a.338.338,0,0,1-.321-.355.355.355,0,0,1,.355-.321l9.487.4a.338.338,0,0,1,.321.355.33.33,0,0,1-.347.321Z" transform="translate(-153.18 -86.622)" fill="#263238"/>
          <path id="Path_32439" data-name="Path 32439" d="M233.752,133.107a.347.347,0,0,1-.338-.33c0-1.691-.524-4.625-2.105-5.268a.338.338,0,1,1,.254-.626c2.342.964,2.537,5.378,2.537,5.919a.347.347,0,0,1-.33.347Z" transform="translate(-153.642 -84.956)" fill="#263238"/>
          <path id="Path_32440" data-name="Path 32440" d="M199.829,144.669h-.068a.338.338,0,0,1-.262-.4c1.116-5.555,5.733-14.324,9.8-16.911a.33.33,0,0,1,.457.11.321.321,0,0,1-.1.457c-3.932,2.486-8.413,10.992-9.5,16.463A.338.338,0,0,1,199.829,144.669Z" transform="translate(-148.764 -85.027)" fill="#263238"/>
          <path id="Path_32441" data-name="Path 32441" d="M202.542,148.3c-.524,1.344-1.691,2.156-2.537,1.809s-1.175-1.691-.651-3.069,1.691-2.156,2.537-1.8S203.074,146.951,202.542,148.3Z" transform="translate(-148.703 -87.782)" fill="#fff"/>
          <path id="Path_32442" data-name="Path 32442" d="M229.293,164.145c0,.626-.389,1.125-.8,1.108s-.736-.541-.71-1.175.389-1.133.8-1.108S229.319,163.511,229.293,164.145Z" transform="translate(-153.132 -90.534)" fill="#fff"/>
          <path id="Path_32443" data-name="Path 32443" d="M237.915,164.505c0,.626-.381,1.125-.8,1.108s-.727-.541-.7-1.175.38-1.125.846-1.108S237.94,163.9,237.915,164.505Z" transform="translate(-154.465 -90.59)" fill="#fff"/>
        </g>
        <g id="freepik--Chat--inject-1" transform="translate(237.042 122.841)">
          <path id="Path_32444" data-name="Path 32444" d="M405.223,148.121l-.846-.051a13.03,13.03,0,0,0-13.1-14.045v-.846a13.867,13.867,0,0,1,13.943,14.941Z" transform="translate(-288.807 -133.179)" fill="#407bff"/>
          <rect id="Rectangle_6934" data-name="Rectangle 6934" width="7.018" height="0.848" transform="translate(116.372 25.488) rotate(-85.996)" fill="#407bff"/>
          <path id="Path_32445" data-name="Path 32445" d="M378.221,136.68H319.878A12.835,12.835,0,0,0,307.3,148.467l-.533,7.855a10.916,10.916,0,0,0,10.992,11.787H376.1l11.314,6.976,1.793-26.618a10.908,10.908,0,0,0-10.984-11.787Z" transform="translate(-275.749 -133.72)" fill="#407bff"/>
          <rect id="Rectangle_6935" data-name="Rectangle 6935" width="54.039" height="1.962" transform="translate(45.474 14.214)" fill="#fff"/>
          <rect id="Rectangle_6936" data-name="Rectangle 6936" width="40.122" height="1.962" transform="translate(58.918 21.173)" fill="#fff"/>
          <path id="Path_32446" data-name="Path 32446" d="M284.794,186.38h59.628a11.153,11.153,0,0,1,11.237,12.049l-.541,8.033a13.131,13.131,0,0,1-12.861,12.049H282.621l-12.531,7.145,1.843-27.227a13.123,13.123,0,0,1,12.861-12.049Z" transform="translate(-270.09 -141.396)" fill="#fff"/>
          <path id="Path_32447" data-name="Path 32447" d="M284.794,186.38h59.628a11.153,11.153,0,0,1,11.237,12.049l-.541,8.033a13.131,13.131,0,0,1-12.861,12.049H282.621l-12.531,7.145,1.843-27.227a13.123,13.123,0,0,1,12.861-12.049Z" transform="translate(-270.09 -141.396)" fill="#407bff" opacity="0.15"/>
          <rect id="Rectangle_6937" data-name="Rectangle 6937" width="55.265" height="2.012" transform="translate(16.04 56.492)" fill="#407bff" opacity="0.5"/>
          <rect id="Rectangle_6938" data-name="Rectangle 6938" width="21.841" height="2.012" transform="translate(15.558 63.603)" fill="#407bff" opacity="0.5"/>
          <rect id="Rectangle_6939" data-name="Rectangle 6939" width="13.952" height="2.012" transform="translate(42.751 63.603)" fill="#407bff" opacity="0.5"/>
        </g>
      </g>
    </g>
  </g>
</svg>
