<svg xmlns="http://www.w3.org/2000/svg" xmlns:xlink="http://www.w3.org/1999/xlink" width="522.758" height="240.963" viewBox="0 0 522.758 240.963"><defs><style>.a,.w{fill:none;}.b{fill:#5a5bae;}.c{fill:#999;}.d{fill:#ccc;}.d,.f,.z{mix-blend-mode:multiply;isolation:isolate;}.e{fill:url(#a);}.f{fill:gray;}.g{fill:#bbbdbf;}.h{fill:#1aa55b;}.i{fill:#fff;}.j{fill:#23ce73;}.k{fill:#efefef;}.l{fill:#374091;}.m{fill:#ffd5d0;}.n{fill:#ededed;}.o{fill:#000d20;}.p{fill:#fac2bc;}.q{fill:url(#b);}.r{fill:url(#c);}.s{fill:url(#d);}.t{fill:#3c4594;}.u{fill:#282f70;}.v{clip-path:url(#e);}.w{stroke:#274d79;stroke-miterlimit:10;stroke-width:0.782px;}.x{fill:#e95f5c;}.y{fill:url(#f);}.z{fill:#e6e7e8;}.aa{fill:#c6c6c6;}.ab{fill:#e71c37;}</style><linearGradient id="a" x1="-50.616" y1="8.757" x2="-49.616" y2="8.757" gradientUnits="objectBoundingBox"><stop offset="0.198" stop-color="#666"/><stop offset="0.57" stop-color="#ccc"/></linearGradient><linearGradient id="b" x1="0.553" y1="0.938" x2="0.511" y2="0.402" gradientUnits="objectBoundingBox"><stop offset="0" stop-color="#1c8ef4"/><stop offset="1" stop-color="#00cfdd"/></linearGradient><linearGradient id="c" x1="0.553" y1="0.938" x2="0.682" y2="0.454" xlink:href="#b"/><linearGradient id="d" x1="1.479" y1="0.874" x2="0.14" y2="0.117" xlink:href="#b"/><clipPath id="e"><path class="a" d="M1955.488,3465.875s-49.872-17.2-68.36-23.976-45.589-20.326-56.293-8.944-1.761,28.334,23.984,37.548,98.46,12.046,98.46,12.046A32.218,32.218,0,0,0,1955.488,3465.875Z" transform="translate(-1826.4 -3428.562)"/></clipPath><linearGradient id="f" y1="0.5" x2="1" y2="0.5" gradientUnits="objectBoundingBox"><stop offset="0.307" stop-color="#ccc"/><stop offset="0.885" stop-color="#666"/></linearGradient></defs><g transform="translate(-1671.988 -3289.022)"><g transform="translate(2000.209 3289.022)"><path class="b" d="M2121.262,3355.536a100.013,100.013,0,0,1-13.866,3.751c-15.12,2.8-24.8-.535-30.452-10.5-10.428-18.375-22.357-30.783-35.455-36.877-12.291-5.718-22.566-4.331-27.6-2.994-.787.209-1.655.468-2.575.744-7.411,2.217-18.608,5.567-28.227-4.327-7.166-8.4-14.223-12.831-20.978-13.172a13.008,13.008,0,0,0-8.561,2.332l2.157,2.626c.093-.078,9.544-7.486,24.83,10.46l.073.081c11.064,11.422,23.969,7.562,31.68,5.255.893-.267,1.736-.52,2.472-.714,4.586-1.219,13.971-2.477,25.291,2.79,12.444,5.791,23.862,17.726,33.935,35.475,6.381,11.244,17.511,15.223,34.025,12.162a103.588,103.588,0,0,0,14.051-3.776A8.9,8.9,0,0,0,2121.262,3355.536Z" transform="translate(-1927.602 -3288.218)"/><path class="c" d="M1955.394,3298.568l5.8-2.882c.6-.3.784-1.332.451-2.321h0c-.333-.987-1.1-1.7-1.763-1.573l-6.365,1.219a2.742,2.742,0,0,0-1.842,3.714h0A2.742,2.742,0,0,0,1955.394,3298.568Z" transform="translate(-1928.13 -3288.311)"/><path class="d" d="M1954.814,3292.561l-1.293.248a2.932,2.932,0,0,0,1.873,5.557l1.179-.586Z" transform="translate(-1928.13 -3288.109)"/><path class="e" d="M6.428,0H12.39a6.429,6.429,0,0,1,6.429,6.429V9.744a6.429,6.429,0,0,1-6.429,6.429H6.428A6.428,6.428,0,0,1,0,9.744V6.428A6.428,6.428,0,0,1,6.428,0Z" transform="matrix(-0.948, 0.319, -0.319, -0.948, 28.36, 15.326)"/><rect class="c" width="11.86" height="19.505" rx="4.714" transform="translate(17.467 20.755) rotate(161.378)"/><path class="f" d="M1940.835,3291.32l-1.859.626,6.229,18.483,1.858-.626a1.867,1.867,0,0,0,1.171-2.358l-5.04-14.955A1.867,1.867,0,0,0,1940.835,3291.32Z" transform="translate(-1931.36 -3288.454)"/><rect class="g" width="3.529" height="22.936" rx="1.403" transform="matrix(-0.948, 0.319, -0.319, -0.948, 19.223, 21.973)"/><g transform="translate(15.104 4.272)"><path class="c" d="M1951.048,3293.086l-5.665,1.91a.345.345,0,0,1-.435-.215h0a.344.344,0,0,1,.215-.435l5.667-1.91a.343.343,0,0,1,.434.216h0A.343.343,0,0,1,1951.048,3293.086Z" transform="translate(-1944.93 -3292.418)"/><path class="c" d="M1951.493,3294.4l-5.667,1.909a.343.343,0,0,1-.434-.215h0a.344.344,0,0,1,.215-.435l5.665-1.91a.346.346,0,0,1,.435.216h0A.343.343,0,0,1,1951.493,3294.4Z" transform="translate(-1944.815 -3292.077)"/><path class="c" d="M1951.937,3295.725l-5.666,1.908a.345.345,0,0,1-.435-.215h0a.343.343,0,0,1,.216-.434l5.666-1.909a.344.344,0,0,1,.435.215h0A.346.346,0,0,1,1951.937,3295.725Z" transform="translate(-1944.7 -3291.737)"/><path class="c" d="M1952.382,3297.044l-5.667,1.91a.343.343,0,0,1-.434-.216h0a.343.343,0,0,1,.215-.434l5.667-1.91a.343.343,0,0,1,.434.215h0A.344.344,0,0,1,1952.382,3297.044Z" transform="translate(-1944.586 -3291.397)"/><path class="c" d="M1952.826,3298.363l-5.666,1.909a.344.344,0,0,1-.435-.215h0a.345.345,0,0,1,.216-.435l5.665-1.91a.345.345,0,0,1,.435.217h0A.344.344,0,0,1,1952.826,3298.363Z" transform="translate(-1944.471 -3291.057)"/><path class="c" d="M1953.271,3299.683l-5.667,1.909a.344.344,0,0,1-.434-.215h0a.345.345,0,0,1,.215-.436l5.667-1.908a.343.343,0,0,1,.434.215h0A.344.344,0,0,1,1953.271,3299.683Z" transform="translate(-1944.356 -3290.717)"/></g></g><g transform="translate(2095.291 3433.523)"><path class="h" d="M2021.371,3494.009a21.644,21.644,0,0,1-10.736-7.733c-4.238-5.943-1.977-20.143,5.367-24.2s13-8.863,11.867-19.882,2.542-19.776,11.865-20.906,13-1.269,22.32-9.675,16.951-9.736,20.624-4.975.848,11.2-1.131,16.879,5.085,11.481,6.5,17.2.283,13.094-7.063,17.175-12.43,7.35-11.584,14.756-3.39,18.658-19.211,21.366Z" transform="translate(-2008.511 -3403.899)"/><path class="i" d="M2026.035,3492.2c-.043,0-.083,0-.126-.006a.993.993,0,0,1-.859-1.107c6.081-48.322,40.54-75.866,40.887-76.138a.991.991,0,0,1,1.224,1.559c-.342.268-34.169,27.339-40.145,74.827A.991.991,0,0,1,2026.035,3492.2Z" transform="translate(-2004.248 -3401.104)"/></g><g transform="translate(2062.835 3426.324)"><path class="j" d="M1995.817,3399.86c-5.422,3.408-5.086,9.316-4.8,16.814s-1.868,10.225-6.161,15.219-1.977,12.622,5.482,16.011,13.958,8.63,10,17.453-2.543,24.877,16.951,30.127l25.067.058s17.594-10.245,19.854-28.941-12.713-20.347-16.951-26.585-2.98-14.737-2.9-23.342-6.42-12.961-15.179-12.479-12.177-.01-16.7-3.1S2000.338,3397.02,1995.817,3399.86Z" transform="translate(-1982.709 -3398.176)"/><path class="i" d="M2029.258,3493.962h-.024a.99.99,0,0,1-.966-1.013c1.3-55.32-21.383-77.833-28.366-83.417-.342-.274-.532-.425-.609-.785a.991.991,0,0,1,1.678-.9l.167.137c7.164,5.725,30.432,28.78,29.109,85.009A.989.989,0,0,1,2029.258,3493.962Z" transform="translate(-1978.438 -3395.759)"/></g><path class="k" d="M2162.765,3479.268h-518.8a1.981,1.981,0,0,1-1.981-1.981h0a1.981,1.981,0,0,1,1.981-1.981h518.8a1.981,1.981,0,0,1,1.981,1.981h0A1.981,1.981,0,0,1,2162.765,3479.268Z" transform="translate(30 48.037)"/><g transform="translate(1866.219 3303.061)"><path class="l" d="M1848.992,3466.668c4.237,3.413,16.335,17.111,62.549,17.111,12.889,0,26.813.538,38.121-2.532,29.237-7.937,48.375-18.57,48.375-18.57l-56.544-19.242-50.691.289Z" transform="translate(-1820.575 -3263.242)"/><g transform="translate(23.66 165.103)"><path class="m" d="M1884.451,3455.487l-22.112,4.21.8,12.041,24.783-.61Z" transform="translate(-1840.793 -3425.238)"/><path class="l" d="M1879.918,3461.688s53.6-15.16,70.266-19.4c19.083-4.849,48.033-18.014,57.793-5.812s-2.146,28.455-28.546,35.579-98.642,6.425-98.642,6.425Z" transform="translate(-1836.26 -3431.439)"/><g transform="translate(0 26.584)"><path class="n" d="M1845.955,3452.98s-.867,2.767-.729,8.631,3.108,10.311,3.41,18.865c0,0,3.322-5.463,3.161-14.328A17.362,17.362,0,0,0,1845.955,3452.98Z" transform="translate(-1845.21 -3452.469)"/><path class="o" d="M1876.83,3472.566c-3.463.37-9.253,3.073-12.8,4.953s-5.448,3.848-11.784,3.8c0,0-.026-16.751-.7-21.932s-1.725-6.071-1.725-6.071,5.871.375,8.789,1.94,3.245,2.279,8.4,2.48,7.257.478,9.5.435C1879.917,3463.516,1878.558,3470,1876.83,3472.566Z" transform="translate(-1844.023 -3452.381)"/><path class="i" d="M1853.286,3481.514c-2-.037-4.455-.094-4.795-.933s2.005-5.839,1.073-15.746c-.5-5.323-4.235-11.574-3.753-11.75s3.414-1.275,5.046.426S1860.769,3466.08,1853.286,3481.514Z" transform="translate(-1845.067 -3452.573)"/></g></g><path class="m" d="M1957.349,3384.792c6.971-4.931,21.994-16.4,29.9-41.04a49.442,49.442,0,0,0,2.665-16.77c-4.075-3.434-3.648-9.92-7.367-13.948-5.228-5.665-9.911-12.852.314-12.852,5.7,0,10.948.231,13.753,2.944,2.225,2.152,6.429,8.519,7.2,10.735,1.742,5.011-.281,11.322-.5,18.947s-5.228,55.33-42.043,75.371Z" transform="translate(-1792.633 -3300.183)"/><path class="m" d="M1895.641,3353.354a72.882,72.882,0,0,1-.7,8.626c-.531,2.521,0,3.848-7.7,5.175,0,0,3.126,10.087,16.464,11.811s18.78-8.758,18.382-8.758a27.951,27.951,0,0,1-5.309-2.3c-1.194-.773-.312-15.481-.312-15.481Z" transform="translate(-1810.71 -3286.711)"/><path class="p" d="M1914.611,3356.147s-1.63,5.168-9.726,5.7-11.112-4.573-11.112-4.573l.185-3.919,20.832-.93Z" transform="translate(-1809.027 -3286.711)"/><g transform="translate(63.823 4.301)"><g transform="translate(1.715 10.98)"><g transform="translate(0 29.139)"><path class="m" d="M1885.163,3335.555s-4.182-.655-6.021,2.421.459,8.831,4.815,9.789c4.174.918,5.545-1.421,5.545-1.421Z" transform="translate(-1878.503 -3335.496)"/><path class="p" d="M1.609,4.943a4.116,4.116,0,0,1,.111-3.775A2.569,2.569,0,0,0,.111,3C.082,3.118-.006,3.014,0,2.94A2.817,2.817,0,0,1,1.605.445,3.851,3.851,0,0,1,5.027.367c.348.214-.123.806-.439.736A6.554,6.554,0,0,0,3.078.932h0a2.311,2.311,0,0,0-.824.945,3.072,3.072,0,0,0-.143,1.99,3.475,3.475,0,0,0,3.2,2.943c.035,0,.1.083.047.1a1.942,1.942,0,0,1-.721.132A3.654,3.654,0,0,1,1.609,4.943Z" transform="translate(1.397 2.687)"/></g><g transform="translate(47.106 20.47)"><path class="m" d="M1915.98,3329.559s3.648-2.16,6.5.018,2.843,8.371-.848,10.875c-3.536,2.4-5.677.735-5.677.735Z" transform="translate(-1915.952 -3328.605)"/><path class="p" d="M2.176,7.3A3.487,3.487,0,0,0,4.061,3.381a3.105,3.105,0,0,0-.875-1.793,2.315,2.315,0,0,0-1.113-.574,6.421,6.421,0,0,0-1.338.718c-.271.183-.928-.191-.68-.518A3.855,3.855,0,0,1,3.26.016,2.814,2.814,0,0,1,5.676,1.74c.035.065-.014.191-.084.1A2.575,2.575,0,0,0,3.416.731,4.13,4.13,0,0,1,4.924,4.2c-.01,1.35-1.246,3.218-2.754,3.218C2.119,7.414,2.145,7.317,2.176,7.3Z" transform="translate(1.31 2.438)"/></g><path class="m" d="M1909.516,3313.477a19.615,19.615,0,0,0-10.044-.828,20.066,20.066,0,0,0-9.219,4.361c-6.078,5.224-8.424,13.485-6.945,21.23l.006.034a57.618,57.618,0,0,0,1.658,6.555l.95,3.006a47.21,47.21,0,0,0,5.108,10.965,18.052,18.052,0,0,0,33.379-6.41,47.165,47.165,0,0,0,.682-12.077l-.23-3.145a57.737,57.737,0,0,0-.888-6.7l-.008-.034A22.256,22.256,0,0,0,1909.516,3313.477Z" transform="translate(-1877.375 -3312.331)"/><g transform="translate(10.477 13.663)"><path d="M1906.442,3332.191a2.168,2.168,0,1,1,2.539,1.719A2.17,2.17,0,0,1,1906.442,3332.191Z" transform="translate(-1881.786 -3321.538)"/><path d="M1906.852,3325.988l10.208,1.935a7.073,7.073,0,0,0-4.356-4.271,5.523,5.523,0,0,0-4.454.018A2.458,2.458,0,0,0,1906.852,3325.988Z" transform="translate(-1881.671 -3323.194)"/><path d="M1894.491,3328.133l-7.464,7.225a7.072,7.072,0,0,1,1.292-5.962,5.516,5.516,0,0,1,3.729-2.433A2.459,2.459,0,0,1,1894.491,3328.133Z" transform="translate(-1886.832 -3322.225)"/><g transform="translate(6.748 11.809)"><path d="M1896.493,3334.34a2.167,2.167,0,1,0-1.719,2.538A2.168,2.168,0,0,0,1896.493,3334.34Z" transform="translate(-1892.197 -3332.582)"/></g></g></g><path class="p" d="M1901.824,3332.288c-.984.262-1.7,10.33-.337,11.762a3.149,3.149,0,0,0,5.008-.962C1907.232,3341.253,1902.837,3332.167,1901.824,3332.288Z" transform="translate(-1871.055 -3296.205)"/><path d="M1887.964,3324.055s5.417,8.156,14.323,10.566,13.938-7.9,13.037-12.587c0,0,8.706,14.015,10.664,13.974a29.064,29.064,0,0,0,1.429-11.967,15.421,15.421,0,0,0-6.908-11.789,6.306,6.306,0,0,0-7.3-.079,15.517,15.517,0,0,0-15.788-8.454c-10.509,1.177-14.6,8.435-13.064,19.511,0,0-3.946-1.113-6.308,3.468s.267,13.478,3.41,17.7a12.021,12.021,0,0,1,4.055-.613s-1.844-7.327-.112-13.752C1886.812,3324.8,1887.964,3324.055,1887.964,3324.055Z" transform="translate(-1877.14 -3303.603)"/></g><path class="q" d="M1896.322,3363.581c.942,3.8,6.315,9.824,14.125,10.188s14.259-4.879,15.325-7.188c6.521.6,14.8,2.374,17.583,2.879,3.94.716,7.757,4.229,6.35,15.314-1.367,10.765-9.908,78.812-9.908,78.812s-22.576,8.762-53.091.729c0,0-18.467-73.858-20.109-80.249s-3.65-13.143,2.191-15.152S1896.322,3363.581,1896.322,3363.581Z" transform="translate(-1816.477 -3283.835)"/><path class="m" d="M1868.255,3376.7s-25.25,45.638-29.84,53.334-3.647,16.338-2.7,18.5,14.042,3.646,26.059-.945,42.959-20.312,45.255-21.527a56.219,56.219,0,0,0,5.893,3.337c4.128,1.956,7.473,2.035,10.147,4.061s5.611,5.885,10.782,3.39c3.078-1.486-3.75-11.063-6.806-16.348-2.987-2.559-13.66-6.976-19.011-6.214-7.566,1.077-45.566,14.011-45.566,14.011l13.769-23.76Z" transform="translate(-1824.2 -3280.451)"/><path class="r" d="M1874.917,3367.488c-6.2,1.949-8.589,4.986-14.654,16.014s-14.086,24.447-14.086,24.447a33.687,33.687,0,0,0,20.887,13.05l9.752-16.475Z" transform="translate(-1821.301 -3282.827)"/><path class="s" d="M1927.267,3368.463c7.417,1.21,26.294,6.746,37.839-1.016a38.282,38.282,0,0,1,2.452,4.69,43.948,43.948,0,0,1,3.865,21.53s-15.649,13.951-40.106,8.354Z" transform="translate(-1800.39 -3282.838)"/><g transform="translate(0 161.484)"><path class="m" d="M1929.99,3458.226l21.7,5.966-1.761,11.938-24.654-2.591Z" transform="translate(-1800.903 -3420.913)"/><path class="t" d="M1955.488,3465.875s-49.872-17.2-68.36-23.976-45.589-20.326-56.293-8.944-1.761,28.334,23.984,37.548,98.46,12.046,98.46,12.046A32.218,32.218,0,0,0,1955.488,3465.875Z" transform="translate(-1826.4 -3428.562)"/><g transform="translate(137.308 36.873)"><path class="n" d="M1964.675,3458.457s.643,2.827.036,8.662-3.923,10.029-4.908,18.531c0,0-2.874-5.711-2-14.534A17.363,17.363,0,0,1,1964.675,3458.457Z" transform="translate(-1929.867 -3457.725)"/><path class="o" d="M1936.833,3475.5c3.422.645,8.977,3.8,12.367,5.962s5.122,4.271,11.442,4.733c0,0,1.366-16.7,2.457-21.806s2.2-5.912,2.2-5.912-5.881-.1-8.915,1.229-3.418,2.014-8.567,1.8-7.272-.1-9.508-.326C1934.481,3466.23,1935.316,3472.806,1936.833,3475.5Z" transform="translate(-1935.56 -3457.721)"/><path class="i" d="M1955.94,3486.346c2,.125,4.448.263,4.854-.547s-1.532-5.981.191-15.781c.924-5.267,5.147-11.2,4.68-11.412s-3.3-1.544-5.065.021S1949.715,3470.364,1955.94,3486.346Z" transform="translate(-1930.858 -3457.875)"/></g></g><path class="u" d="M1955.421,3472.2H1954.3s-32.507-2.112-67.32-7.852c-34.2-5.639-57.315-17.138-60.418-25.6-1.521,10.231,8.33,22,28.254,29.126,25.746,9.214,98.46,12.046,98.46,12.046A32.9,32.9,0,0,0,1955.421,3472.2Z" transform="translate(-1826.398 -3264.451)"/><g transform="translate(0 161.484)"><g class="v"><path class="w" d="M1924.495,3455.9c-.042,4.5-.965,14.611-2.95,20.826" transform="translate(-1801.866 -3421.512)"/></g></g></g><g transform="translate(1818.94 3417.282)"><path class="b" d="M1936.454,3407.934c-1.469,6.288-3.136,13.416-7.092,17.365-10.618,10.6-24.938,10.764-49.315,7.262-14.922-2.143-27.1-.188-37.226,5.973-8.558,5.208-15.579,13.458-21.46,25.223-6.38,12.76-18.541,20.151-32.547,24.228v2.992c15.028-4.224,28.205-12.083,35.128-25.93,12.14-24.279,29.317-33.417,55.695-29.629,10.3,1.479,21.084,2.707,30.222,1.684,9.042-1.011,15.887-4.113,21.543-9.76,4.539-4.533,6.3-12.087,7.862-18.751,2.118-9.063,11.469-7.77,11.867-7.711l.218-1.426.221-1.426C1947.3,3397.365,1938.64,3398.582,1936.454,3407.934Z" transform="translate(-1788.814 -3389.212)"/><g transform="translate(159.38)"><g transform="translate(24.17 4.038)"><path class="x" d="M1944.6,3395.779h-9.074a.793.793,0,0,1-.791-.79h0a.793.793,0,0,1,.791-.792h9.074a.793.793,0,0,1,.79.792h0A.793.793,0,0,1,1944.6,3395.779Z" transform="translate(-1934.735 -3394.198)"/><path class="x" d="M1944.6,3403.589h-9.074a.793.793,0,0,1-.791-.791h0a.793.793,0,0,1,.791-.791h9.074a.793.793,0,0,1,.79.791h0A.793.793,0,0,1,1944.6,3403.589Z" transform="translate(-1934.735 -3392.184)"/></g><path class="c" d="M1921.965,3401.893l-5.453-.745c-.565-.078-.992-.86-.992-1.746h0c0-.884.427-1.667.992-1.745l5.453-.745a2.329,2.329,0,0,1,2.49,2.489h0A2.329,2.329,0,0,1,1921.965,3401.893Z" transform="translate(-1915.52 -3389.465)"/><rect class="y" width="15.984" height="13.736" rx="4.991" transform="translate(6.938 2.872)"/><rect class="c" width="10.073" height="16.566" rx="3.66" transform="translate(17.177 1.457)"/><rect class="g" width="2.997" height="19.48" rx="1.089" transform="translate(16.095)"/></g><rect class="z" width="1.577" height="13.736" transform="translate(173.892 2.857)"/><path class="d" d="M1921.388,3396.906a1.94,1.94,0,0,0-.467.006l-1.355.185v4.61l1.355.185a1.991,1.991,0,0,0,.467.006Z" transform="translate(-1755.097 -3389.465)"/><rect class="f" width="0.87" height="16.566" transform="translate(178.46 1.487)"/></g><path class="m" d="M1916.689,3412.813c-2.987-2.559-13.66-6.976-19.011-6.214-3.419.486-13.054,3.4-22.589,6.438v16.1c10.569-5.129,20.332-10.1,21.584-10.765a56.219,56.219,0,0,0,5.893,3.337c4.128,1.956,7.473,2.035,10.147,4.061s5.611,5.885,10.782,3.39C1926.574,3427.675,1919.746,3418.1,1916.689,3412.813Z" transform="translate(52.374 30.298)"/><g transform="translate(1698.209 3390.238)"><path class="k" d="M0,0H72.189a0,0,0,0,1,0,0V131.524a2,2,0,0,1-2,2H2a2,2,0,0,1-2-2V0A0,0,0,0,1,0,0Z" transform="translate(121.554 133.523) rotate(180)"/><g transform="translate(52.801 10.269)"><path class="aa" d="M52.855,8.964H0V0H52.855a1.032,1.032,0,0,1,1.031,1.03v6.9A1.032,1.032,0,0,1,52.855,8.964Zm-3.527-5.9a1.305,1.305,0,1,0,1.3,1.305A1.305,1.305,0,0,0,49.328,3.061Zm-3.951,0a1.305,1.305,0,1,0,1.3,1.305A1.306,1.306,0,0,0,45.377,3.061Zm-3.951,0a1.305,1.305,0,1,0,1.309,1.305A1.3,1.3,0,0,0,41.426,3.061Z" transform="translate(11.431)"/><g transform="translate(0 0.001)"><path class="aa" d="M1735.838,3377.652h8.249v8.962h-8.249a1.028,1.028,0,0,1-1.028-1.029v-6.9A1.028,1.028,0,0,1,1735.838,3377.652Z" transform="translate(-1734.81 -3377.652)"/></g><g transform="translate(0 14.947)"><path class="aa" d="M52.855,8.964H0V0H52.855a1.032,1.032,0,0,1,1.031,1.03v6.9A1.032,1.032,0,0,1,52.855,8.964Zm-3.527-5.9a1.305,1.305,0,1,0,1.3,1.305A1.305,1.305,0,0,0,49.328,3.061Zm-3.951,0a1.305,1.305,0,1,0,1.3,1.305A1.306,1.306,0,0,0,45.377,3.061Zm-3.951,0a1.305,1.305,0,1,0,1.309,1.305A1.3,1.3,0,0,0,41.426,3.061Z" transform="translate(11.431)"/><g transform="translate(0 0.001)"><path class="aa" d="M1735.838,3389.535h8.249v8.962h-8.249a1.028,1.028,0,0,1-1.028-1.029v-6.9A1.028,1.028,0,0,1,1735.838,3389.535Z" transform="translate(-1734.81 -3389.535)"/></g></g><g transform="translate(0 29.894)"><path class="aa" d="M52.855,8.964H0V0H52.855a1.032,1.032,0,0,1,1.031,1.03v6.9A1.032,1.032,0,0,1,52.855,8.964Zm-3.527-5.9a1.3,1.3,0,1,0,1.3,1.305A1.305,1.305,0,0,0,49.328,3.061Zm-3.951,0a1.3,1.3,0,1,0,1.3,1.305A1.306,1.306,0,0,0,45.377,3.061Zm-3.951,0a1.3,1.3,0,1,0,1.309,1.305A1.3,1.3,0,0,0,41.426,3.061Z" transform="translate(11.431 0)"/><g transform="translate(0 0.001)"><path class="aa" d="M1735.838,3401.418h8.249v8.961h-8.249a1.028,1.028,0,0,1-1.028-1.027v-6.906A1.028,1.028,0,0,1,1735.838,3401.418Z" transform="translate(-1734.81 -3401.418)"/></g></g></g><circle class="aa" cx="4.844" cy="4.844" r="4.844" transform="translate(80.616 118.391)"/><g transform="translate(63.324 58.062)"><path class="aa" d="M1743.176,3423.644s3.517,24.824,8.274,30.989,13.86,9.83,13.86,9.83,9.1-3.666,13.861-9.83,8.274-30.989,8.274-30.989l-22.135-8-22.135,8" transform="translate(-1743.176 -3415.647)"/><path class="i" d="M1764.666,3418.4l-18.991,6.861s3.018,21.3,7.1,26.588,11.892,8.434,11.892,8.434,7.81-3.145,11.892-8.434,7.1-26.588,7.1-26.588Z" transform="translate(-1742.532 -3414.936)"/><g transform="translate(10.894 10.799)"><circle class="ab" cx="9.34" cy="9.34" r="9.34" transform="translate(0 18.176) rotate(-76.674)"/><g transform="translate(4.295 6.06)"><path class="i" d="M1759.885,3438.857a.393.393,0,0,1-.546-.01l-4.088-4.087,1.267-1.267,2.865,2.864a.393.393,0,0,0,.546.01l7.861-7.318,1.221,1.312Z" transform="translate(-1755.251 -3429.05)"/></g></g></g><g transform="translate(0 47.066)"><path class="k" d="M0,0H46.742a0,0,0,0,1,0,0V84.457a2,2,0,0,1-2,2H2a2,2,0,0,1-2-2V0A0,0,0,0,1,0,0Z" transform="translate(46.743 86.457) rotate(180)"/><g transform="translate(2.225 6.65)"><path class="aa" d="M34.227,5.8H0V0H34.227a.664.664,0,0,1,.664.663V5.138A.664.664,0,0,1,34.227,5.8ZM31.938,1.98a.844.844,0,1,0,.846.842A.84.84,0,0,0,31.938,1.98Zm-2.555,0a.844.844,0,1,0,.846.842A.846.846,0,0,0,29.383,1.98Zm-2.561,0a.844.844,0,1,0,.846.842A.844.844,0,0,0,26.822,1.98Z" transform="translate(7.402 0.001)"/><path class="aa" d="M1695.267,3412.192h5.342v5.8h-5.342a.665.665,0,0,1-.665-.666v-4.472A.666.666,0,0,1,1695.267,3412.192Z" transform="translate(-1694.602 -3412.192)"/><g transform="translate(0 9.678)"><path class="aa" d="M34.227,5.8H0V0H34.227a.664.664,0,0,1,.664.663V5.138A.664.664,0,0,1,34.227,5.8ZM31.938,1.984a.842.842,0,0,0,0,1.683.842.842,0,1,0,0-1.683Zm-2.555,0a.842.842,0,1,0,.846.837A.844.844,0,0,0,29.383,1.984Zm-2.561,0a.842.842,0,1,0,.846.837A.842.842,0,0,0,26.822,1.984Z" transform="translate(7.402 0.001)"/><path class="aa" d="M1695.267,3419.886h5.342v5.8h-5.342a.665.665,0,0,1-.665-.665v-4.472A.665.665,0,0,1,1695.267,3419.886Z" transform="translate(-1694.602 -3419.886)"/></g><g transform="translate(0 19.356)"><path class="aa" d="M34.227,5.8H0V0H34.227a.664.664,0,0,1,.664.663V5.138A.664.664,0,0,1,34.227,5.8ZM31.938,1.984a.842.842,0,0,0,0,1.683.844.844,0,0,0,.846-.841A.834.834,0,0,0,31.938,1.984Zm-2.555,0a.842.842,0,1,0,.846.842A.846.846,0,0,0,29.383,1.984Zm-2.561,0a.842.842,0,1,0,.846.842A.844.844,0,0,0,26.822,1.984Z" transform="translate(7.402 0.001)"/><path class="aa" d="M1695.267,3427.58h5.342v5.8h-5.342a.665.665,0,0,1-.665-.666v-4.472A.665.665,0,0,1,1695.267,3427.58Z" transform="translate(-1694.602 -3427.58)"/></g></g><circle class="aa" cx="3.137" cy="3.137" r="3.137" transform="translate(20.235 76.658)"/></g></g></g></svg>