<svg xmlns="http://www.w3.org/2000/svg" xmlns:xlink="http://www.w3.org/1999/xlink" width="64" height="64" viewBox="0 0 64 64">
  <defs>
    <clipPath id="clip-path">
      <rect id="Rectangle_9346" data-name="Rectangle 9346" width="64" height="64" transform="translate(1558.709 764.709)" fill="#e6e6e6"/>
    </clipPath>
  </defs>
  <g id="Payback_Points_-_no_Payback" data-name="Payback Points - no Payback" transform="translate(-1558.709 -764.709)" clip-path="url(#clip-path)">
    <g id="Group_28064" data-name="Group 28064" transform="translate(1561.661 765.9)">
      <path id="Path_42139" data-name="Path 42139" d="M70.936,98.274H63.964V86.137h6.972a1.175,1.175,0,0,0,1.073-.832,1.514,1.514,0,0,0-.252-1.47L63.624,74.4a1.225,1.225,0,0,0-.377-.292A1.062,1.062,0,0,0,62.8,74H23.3a1.062,1.062,0,0,0-.445.1,1.15,1.15,0,0,0-.377.292l-8.134,9.44a1.514,1.514,0,0,0-.252,1.47,1.175,1.175,0,0,0,1.073.832h6.972V98.274H15.162a1.364,1.364,0,0,0,0,2.7H70.936a1.364,1.364,0,0,0,0-2.7ZM44.692,83.44,38.882,76.7H62.321l5.81,6.743ZM23.777,76.7h9.5l-5.81,6.743h-9.5Zm.681,9.44h3.486a1.086,1.086,0,0,0,.822-.4l6.15-7.138v19.67H24.458ZM37.239,98.274V78.6l6.15,7.138a1.086,1.086,0,0,0,.822.4H61.64V98.274Z" transform="translate(-14 -38.789)" fill="#cecece"/>
      <rect id="Rectangle_9340" data-name="Rectangle 9340" width="2.038" height="2.038" transform="translate(1.157 1.019)" fill="#cecece"/>
      <rect id="Rectangle_9341" data-name="Rectangle 9341" width="2.038" height="2.038" transform="translate(8.29 6.113)" fill="#cecece"/>
      <rect id="Rectangle_9342" data-name="Rectangle 9342" width="2.038" height="2.038" transform="translate(0.137 33.474)" fill="#cecece"/>
      <rect id="Rectangle_9343" data-name="Rectangle 9343" width="2.038" height="2.038" transform="translate(54.497 33.474)" fill="#cecece"/>
      <rect id="Rectangle_9344" data-name="Rectangle 9344" width="2.038" height="2.038" transform="translate(43.134 0)" fill="#cecece"/>
      <rect id="Rectangle_9345" data-name="Rectangle 9345" width="2.038" height="2.038" transform="translate(53.063 7.132)" fill="#cecece"/>
      <g id="Group_28063" data-name="Group 28063" transform="translate(1.76 0.416)">
        <path id="Path_42180" data-name="Path 42180" d="M62.847,20.713h-4.4a.75.75,0,0,1-.715-.519l-1.36-4.184a2.91,2.91,0,0,0-5.535,0l-1.36,4.184a.75.75,0,0,1-.715.519h-4.4a2.911,2.911,0,0,0-1.712,5.266l3.56,2.586a.749.749,0,0,1,.274.839l-1.36,4.184a2.924,2.924,0,0,0,2.768,3.82,2.919,2.919,0,0,0,1.712-.565l3.56-2.586a.75.75,0,0,1,.883,0l3.558,2.586a2.91,2.91,0,0,0,4.477-3.255L60.726,29.4A.745.745,0,0,1,61,28.565l3.558-2.586a2.911,2.911,0,0,0-1.712-5.266Zm.441,3.518-3.558,2.586a2.905,2.905,0,0,0-1.058,3.255l1.36,4.184a.752.752,0,0,1-1.157.839l-3.56-2.586a2.907,2.907,0,0,0-3.421,0L48.332,35.1a.752.752,0,0,1-1.157-.839l1.36-4.184a2.906,2.906,0,0,0-1.056-3.255l-3.56-2.586a.75.75,0,0,1,.441-1.358h4.4a2.9,2.9,0,0,0,2.768-2.011l1.36-4.184a.74.74,0,0,1,.721-.521.731.731,0,0,1,.715.519l1.36,4.184a2.9,2.9,0,0,0,2.768,2.011h4.4a.751.751,0,0,1,.441,1.36Z" transform="translate(-26.634 -14)" fill="#cecece"/>
        <path id="Path_42181" data-name="Path 42181" d="M62,53.079v8.634a1.079,1.079,0,1,0,2.158,0V53.079a1.079,1.079,0,1,0-2.158,0Z" transform="translate(-36.095 -28.853)" fill="#cecece"/>
        <path id="Path_42182" data-name="Path 42182" d="M74.317,62H73.238A3.241,3.241,0,0,0,70,65.238v1.079a1.079,1.079,0,0,0,2.158,0V65.238a1.081,1.081,0,0,1,1.079-1.079h1.079a1.079,1.079,0,1,0,0-2.158Z" transform="translate(-39.778 -33.457)" fill="#cecece"/>
        <path id="Path_42183" data-name="Path 42183" d="M52.317,67.4A1.079,1.079,0,0,0,53.4,66.317V65.238A3.241,3.241,0,0,0,50.158,62H49.079a1.079,1.079,0,1,0,0,2.158h1.079a1.081,1.081,0,0,1,1.079,1.079v1.079A1.079,1.079,0,0,0,52.317,67.4Z" transform="translate(-29.65 -33.457)" fill="#cecece"/>
        <path id="Path_42184" data-name="Path 42184" d="M86.027,49.392a2.129,2.129,0,0,0,1.794,1.794l2.561.4.407,2.561a2.126,2.126,0,0,0,1.794,1.794,2.247,2.247,0,0,0,.354.027,2.12,2.12,0,0,0,1.908-1.18l1.178-2.31,2.561.407a2.158,2.158,0,0,0,1.865-3.657L98.615,47.4l1.178-2.31a2.158,2.158,0,0,0-2.9-2.9l-2.31,1.178L92.747,41.53A2.16,2.16,0,0,0,89.088,43.4l.407,2.561-2.31,1.178a2.117,2.117,0,0,0-1.157,2.258Zm4.441-1.516a2.155,2.155,0,0,0,1.153-2.262l-.407-2.561,1.834,1.834a2.156,2.156,0,0,0,2.506.4L97.871,44.1l-.006.013L96.687,46.42a2.156,2.156,0,0,0,.4,2.506l1.834,1.834-2.561-.407A2.165,2.165,0,0,0,94.1,51.5l-1.178,2.31-.407-2.561a2.149,2.149,0,0,0-1.794-1.794l-2.559-.4Z" transform="translate(-47.143 -26.38)" fill="rgba(206,206,206,0.5)"/>
        <path id="Path_42185" data-name="Path 42185" d="M14.235,51.735A2.13,2.13,0,0,0,16.5,52.888l2.561-.407,1.178,2.31a2.12,2.12,0,0,0,1.908,1.18,2.247,2.247,0,0,0,.354-.027,2.128,2.128,0,0,0,1.794-1.794L24.7,51.59l2.561-.407a2.159,2.159,0,0,0,.643-4.056l-2.31-1.178L26,43.388a2.16,2.16,0,0,0-3.659-1.865l-1.834,1.834L18.2,42.178a2.158,2.158,0,0,0-2.9,2.9l1.178,2.31-1.834,1.834a2.129,2.129,0,0,0-.4,2.511Zm3.758-2.814a2.156,2.156,0,0,0,.4-2.506L17.214,44.1l2.31,1.178a2.152,2.152,0,0,0,2.506-.4l1.834-1.834-.407,2.561a2.153,2.153,0,0,0,1.151,2.262l2.31,1.178-2.561.407a2.156,2.156,0,0,0-1.794,1.794l-.4,2.561L20.98,51.5a2.153,2.153,0,0,0-1.92-1.178,2.318,2.318,0,0,0-.339.025l-2.561.407Z" transform="translate(-13.994 -26.377)" fill="rgba(206,206,206,0.5)"/>
        <path id="Path_42186" data-name="Path 42186" d="M33.521,8.008V7H31.761V8.008a2.5,2.5,0,0,0-.371,4.632L33.1,13.5a.752.752,0,0,1-.335,1.425h-.257a.753.753,0,0,1-.752-.752v-.129H30v.129a2.508,2.508,0,0,0,1.761,2.385v1.008h1.761V16.555a2.5,2.5,0,0,0,.371-4.632l-1.716-.857a.752.752,0,0,1,.335-1.425h.257a.753.753,0,0,1,.752.752v.129h1.761v-.129A2.508,2.508,0,0,0,33.521,8.008Z" transform="translate(-5.657 -0.577)" fill="#cecece"/>
      </g>
    </g>
  </g>
</svg>
