<svg xmlns="http://www.w3.org/2000/svg" width="407.089" height="177.57" viewBox="0 0 407.089 177.57">
  <g id="Group_24296" data-name="Group 24296" transform="translate(-9386.045 -14271)">
    <path id="Path_34815" data-name="Path 34815" d="M369.938,51.575V49.862c0-1.109,0-2.708-.04-4.717l.075.075-24.308.045.125-.12h0v6.431l-.12-.12,17.323.055,5.111.03h1.749a.634.634,0,0,1,.125,0h-1.814l-5.086.035-17.408.055h-.12V45.155h0l.125-.125,24.308.05h.075v.075c0,2.029-.03,3.642-.04,4.762v1.564A.425.425,0,0,1,369.938,51.575Z" transform="translate(9122.134 14396.939)" fill="#e0e0e0"/>
    <path id="Path_34816" data-name="Path 34816" d="M386.312,38.676a.7.7,0,0,1,0-.125c0-.09,0-.2,0-.34V36.922c0-1.129-.03-2.718-.05-4.677l.09.085-14.6.035.12-.12h0v6.421l-.115-.12L382.2,38.6l3.043.035h1.114a1.639,1.639,0,0,1-.265,0h-.8l-3,.03-10.528.055h-.12V32.256h0c-.03,0,.235-.235.125-.125l14.6.035h.09v.09c0,2-.04,3.588-.05,4.732v1.269C386.417,38.571,386.312,38.681,386.312,38.676Z" transform="translate(9109.077 14403.408)" fill="#e0e0e0"/>
    <g id="freepik--Characters--inject-91" transform="translate(9604.045 14288.639)">
      <path id="Path_34880" data-name="Path 34880" d="M47.278,413.6l5.754,7.812-9.688,7.21c-.64-.961,3-6.557,3-6.557l-3.893-4.854Z" transform="translate(79.431 -290.487)" fill="#455a64"/>
      <path id="Path_34881" data-name="Path 34881" d="M53.285,431.717a.49.49,0,0,1,.608.247.477.477,0,0,1-.24.608.519.519,0,0,1-.64-.266.493.493,0,0,1,.32-.605" transform="translate(75.159 -302.783)" fill="#fff"/>
      <path id="Path_34882" data-name="Path 34882" d="M52.2,436.279l-.612-.839-9.051,7.287s-.288.512,0,.778Z" transform="translate(80.274 -305.334)" fill="#263238"/>
      <path id="Path_34883" data-name="Path 34883" d="M60,439.546c.035.048.288-.106.64-.128s.618.086.64.035-.247-.272-.663-.24S59.972,439.511,60,439.546Z" transform="translate(65.565 -307.897)" fill="#263238"/>
      <path id="Path_34884" data-name="Path 34884" d="M62.508,443.588c.026.054.288-.019.6.061s.512.259.56.221-.125-.32-.512-.419S62.476,443.543,62.508,443.588Z" transform="translate(62.366 -310.761)" fill="#263238"/>
      <path id="Path_34885" data-name="Path 34885" d="M66.06,447.844c.051-.022-.061-.32-.375-.477s-.612-.106-.6-.051.25.09.5.234S66.008,447.873,66.06,447.844Z" transform="translate(59.145 -313.372)" fill="#263238"/>
      <path id="Path_34886" data-name="Path 34886" d="M63.072,434.926c.054.029.221-.2.5-.378s.551-.253.547-.32-.32-.08-.66.138S63.021,434.907,63.072,434.926Z" transform="translate(61.741 -304.481)" fill="#263238"/>
      <path id="Path_34887" data-name="Path 34887" d="M53.514,294.111c-.173.98-.448,9.314-.624,13.71s.263,6.557.765,7.543,19.46,14.955,20.9,18.3l4.8-3.871s-7.044-12.644-10.047-14.943-8.782-4.409-8.782-4.409l1.642-24.074L54.3,285.94Z" transform="translate(49.771 -203.7)" fill="#263238"/>
      <path id="Path_34888" data-name="Path 34888" d="M90.28,437.73l.083,9.692-12.074.167c.054-1.153,6.269-3.557,6.269-3.557l-.32-6.215Z" transform="translate(30.624 -306.891)" fill="#455a64"/>
      <path id="Path_34889" data-name="Path 34889" d="M84.243,455.644a.493.493,0,0,1,.349.557.477.477,0,0,1-.551.352.522.522,0,0,1-.365-.592.49.49,0,0,1,.612-.3" transform="translate(34.667 -319.064)" fill="#fff"/>
      <path id="Path_34890" data-name="Path 34890" d="M90.356,465.9V464.86l-11.606.6s-.531.247-.464.624Z" transform="translate(30.634 -325.335)" fill="#263238"/>
      <path id="Path_34891" data-name="Path 34891" d="M93.536,457.152c0,.061.3.083.589.269s.451.429.506.407-.038-.365-.4-.583S93.511,457.1,93.536,457.152Z" transform="translate(21.461 -320.057)" fill="#263238"/>
      <path id="Path_34892" data-name="Path 34892" d="M98.476,458.936c0,.058.247.154.448.4s.266.512.32.506.093-.336-.166-.64S98.476,458.869,98.476,458.936Z" transform="translate(15.24 -321.288)" fill="#263238"/>
      <path id="Path_34893" data-name="Path 34893" d="M103.42,461.581c.054,0,.131-.285-.022-.605s-.435-.445-.458-.4.147.221.272.487S103.362,461.575,103.42,461.581Z" transform="translate(9.608 -322.418)" fill="#263238"/>
      <path id="Path_34894" data-name="Path 34894" d="M92.747,452.383c.026.054.295-.032.64,0s.6.118.64.067-.221-.256-.615-.272S92.718,452.338,92.747,452.383Z" transform="translate(22.327 -316.713)" fill="#263238"/>
      <path id="Path_34895" data-name="Path 34895" d="M75.257,267.017c0,.567-.919,14.914,3.772,25.294a30.66,30.66,0,0,1,1.921,4.665c.3,1.418,6.365,24.945,6.365,24.945l7.012-.256s1.121-11.786,0-18.608-3.2-6.022-3.2-10.428,1.047-13.54,1.047-13.54a18.956,18.956,0,0,0,2.052-7.332,18.544,18.544,0,0,0-1.425-8.139l-1.828-3.237L75.5,259.57Z" transform="translate(27.157 -185.773)" fill="#263238"/>
      <path id="Path_34896" data-name="Path 34896" d="M75.035,266.915v-.49c0-.323.019-.8.032-1.434.029-1.265.077-3.128.134-5.536v-.035h.038l15.468.788h.032l.019.029c.567,1.005,1.191,2.1,1.831,3.237h0a20.717,20.717,0,0,1,1.111,3.554,15.825,15.825,0,0,1,.387,3.9,24.138,24.138,0,0,1-.64,4.063,16.511,16.511,0,0,1-1.482,4.025v-.032c-.266,2.388-.512,4.863-.72,7.412-.1,1.281-.192,2.561-.256,3.877-.032.64-.058,1.313-.061,1.975,0,.32,0,.663.019.993a9.213,9.213,0,0,0,.122.986,6.48,6.48,0,0,0,.688,1.876c.32.6.64,1.191.961,1.815a17.074,17.074,0,0,1,1.258,3.97,45.5,45.5,0,0,1,.7,8.5c0,3.807-.179,7.547-.493,11.161v.077h-.074l-7.012.256h-.067l-.016-.067c-2.033-7.879-3.929-15.243-5.6-21.865l-.605-2.449c-.106-.407-.173-.81-.3-1.194s-.266-.765-.413-1.137c-.3-.743-.64-1.463-.961-2.164l-.25-.522a5.15,5.15,0,0,1-.237-.525c-.144-.355-.288-.7-.432-1.053a42.481,42.481,0,0,1-2.212-7.982,69.419,69.419,0,0,1-1.057-11.763c-.019-2.76.093-4.258.093-4.258v.275c0,.183,0,.461-.019.82-.019.72-.032,1.783,0,3.163a71.224,71.224,0,0,0,1.066,11.754,42.453,42.453,0,0,0,2.241,7.953l.429,1.047c.07.179.15.349.237.522s.17.349.253.525c.32.7.66,1.422.961,2.168.15.375.295.756.419,1.146s.2.8.3,1.2c.2.807.4,1.62.612,2.449,1.7,6.615,3.592,13.979,5.619,21.858l-.083-.061,7.012-.259-.083.077c.32-3.608.506-7.345.493-11.145a45.284,45.284,0,0,0-.7-8.465A17.132,17.132,0,0,0,92.559,298c-.288-.618-.64-1.2-.961-1.812a6.7,6.7,0,0,1-.679-1.921,8.941,8.941,0,0,1-.125-1.009c0-.32-.032-.672-.019-1,0-.666.029-1.329.061-1.985.064-1.313.157-2.606.263-3.88q.32-3.842.727-7.418h0v-.019a16.327,16.327,0,0,0,1.489-3.976,24.19,24.19,0,0,0,.64-4.034,15.724,15.724,0,0,0-.378-3.868,21.02,21.02,0,0,0-1.085-3.522h0l-1.825-3.24.051.032-15.468-.836.042-.035c-.077,2.4-.134,4.268-.173,5.533-.022.64-.038,1.108-.051,1.434S75.035,266.915,75.035,266.915Z" transform="translate(27.379 -185.671)" fill="#455a64"/>
      <path id="Path_34897" data-name="Path 34897" d="M123.954,191s4.162-.736,3.775,4.62c-.243,3.2-1.185,8.7-1.707,12.2-.179,1.213-.576,3.384-2.18,4.659l-11.494,7.953-3.628-4.338,10.265-9.775,1.6-9.669Z" transform="translate(-16.51 -139.132)" fill="#455a64"/>
      <path id="Path_34898" data-name="Path 34898" d="M103.946,130.77a5.27,5.27,0,0,0-1.953,4.457c.064.82.291,1.751-.243,2.376s-1.559.6-2.065,1.236c-.592.749-.1,1.863-.32,2.8a1.9,1.9,0,0,1-2.014,1.406,7.393,7.393,0,0,0,3.663,1.6l1.05-1.31a1.356,1.356,0,0,0,.09,1.665,3.106,3.106,0,0,0,1.511.9,9.378,9.378,0,0,0,8.212-1.335" transform="translate(3.009 -98.212)" fill="#263238"/>
      <path id="Path_34899" data-name="Path 34899" d="M90.615,128.355c-.2-.64-.551-1.207-.688-1.851-.295-1.386.381-2.949-.291-4.2a3.96,3.96,0,0,0-2.465-1.62,6.373,6.373,0,0,1-2.718-1.255c-.525-.519-.826-1.236-1.351-1.755a4.447,4.447,0,0,0-2.907-1.06,6.314,6.314,0,0,0-3.173.515,3.464,3.464,0,0,0-1.953,2.443,9.855,9.855,0,0,1-.186,1.569,10.57,10.57,0,0,1-.88,1.5,2.779,2.779,0,0,0,.695,3.33l7.422,9.586c1.559.589,5.337-.122,6.541-1.281S91.131,129.94,90.615,128.355Z" transform="translate(31.717 -88.571)" fill="#263238"/>
      <path id="Path_34900" data-name="Path 34900" d="M88.972,132.764c.32-2.177,1.963-4.748,4.124-4.351l6.672,2.241c.64.122.186,1.194.122,1.857l-1.45,15.048s.9.64,1.223.519a.093.093,0,0,1,.109.138c-.81,1.169-4.585,6.25-8.494,4.691-.871-.349.093-3.093,0-4.108l.115-2.6c.086-1.326.128-1.87.128-1.857s-2.76-.679-3.058-4.37A38.869,38.869,0,0,1,88.972,132.764Z" transform="translate(17.637 -96.582)" fill="#ffbf9d"/>
      <path id="Path_34901" data-name="Path 34901" d="M118.837,151.722a.471.471,0,0,0,.416.506.448.448,0,0,0,.515-.384.471.471,0,0,0-.416-.506.448.448,0,0,0-.515.384Z" transform="translate(-11.764 -112.19)" fill="#263238"/>
      <path id="Path_34902" data-name="Path 34902" d="M104.647,152.612a.467.467,0,0,0,.413.506.451.451,0,0,0,.515-.384.471.471,0,0,0-.416-.506.445.445,0,0,0-.512.384Z" transform="translate(6.972 -112.795)" fill="#263238"/>
      <path id="Path_34903" data-name="Path 34903" d="M115.974,146.688c.051.086.487-.189,1.031-.109s.893.451.961.384,0-.179-.157-.349a1.245,1.245,0,0,0-1.6-.221C116.028,146.518,115.948,146.65,115.974,146.688Z" transform="translate(-9.067 -108.699)" fill="#263238"/>
      <path id="Path_34904" data-name="Path 34904" d="M100.239,147.8c.064.08.49-.23,1.076-.2s1,.355,1.069.282-.029-.173-.211-.32a1.412,1.412,0,0,0-1.713-.061C100.278,147.628,100.21,147.763,100.239,147.8Z" transform="translate(11.556 -109.406)" fill="#263238"/>
      <path id="Path_34905" data-name="Path 34905" d="M112.233,150.877a3.182,3.182,0,0,0-.807-.211c-.125-.022-.247-.058-.259-.147a.64.64,0,0,1,.115-.375c.144-.3.295-.618.455-.961a16.252,16.252,0,0,0,1.05-2.494,16.777,16.777,0,0,0-1.249,2.4c-.154.336-.3.64-.439.961a.736.736,0,0,0-.106.5.32.32,0,0,0,.2.2.887.887,0,0,0,.215.045A3.522,3.522,0,0,0,112.233,150.877Z" transform="translate(-2.273 -109.033)" fill="#263238"/>
      <path id="Path_34906" data-name="Path 34906" d="M99.744,176.309a9.3,9.3,0,0,0,4.982-.928s-1.425,2.465-5.046,1.844Z" transform="translate(9.413 -128.539)" fill="#ff9a6c"/>
      <path id="Path_34907" data-name="Path 34907" d="M108.932,163.538a.826.826,0,0,0-.256-.32.64.64,0,0,0-.435-.042,1,1,0,0,0-.57.288.612.612,0,0,0-.144.6h0c.058.211.371.32.586.365a.961.961,0,0,0,.64-.131.56.56,0,0,0,.32-.416.688.688,0,0,0-.141-.346Z" transform="translate(2.562 -120.229)" fill="#ff9a6c"/>
      <path id="Path_34908" data-name="Path 34908" d="M109.77,162.14c-.08,0-.125.535-.621.887s-1.073.247-1.082.32.118.115.365.141a1.358,1.358,0,0,0,.9-.24,1.175,1.175,0,0,0,.487-.746C109.853,162.281,109.808,162.14,109.77,162.14Z" transform="translate(1.622 -119.538)" fill="#263238"/>
      <path id="Path_34909" data-name="Path 34909" d="M99.74,142.2c.042.138.547.112,1.133.231s1.05.32,1.137.2c.038-.054-.032-.189-.215-.336a1.991,1.991,0,0,0-1.729-.32C99.842,142.036,99.724,142.135,99.74,142.2Z" transform="translate(12.1 -105.776)" fill="#263238"/>
      <path id="Path_34910" data-name="Path 34910" d="M115.212,141.047c.093.122.5.035.961.067s.874.144.977.032c.045-.054,0-.176-.176-.3a1.5,1.5,0,0,0-.778-.247,1.457,1.457,0,0,0-.794.17C115.234,140.868,115.17,140.983,115.212,141.047Z" transform="translate(-7.995 -104.893)" fill="#263238"/>
      <path id="Path_34911" data-name="Path 34911" d="M93.291,130.824a2.906,2.906,0,0,0-1.518-1.005,33.581,33.581,0,0,0-7.729-1.969,1.375,1.375,0,0,0,.471,1.674,6.1,6.1,0,0,0,1.729.772,2.377,2.377,0,0,1,1.45,1.153c.247.586.038,1.358.269,1.991.394,1.095,1.921,1.447,2.3,2.539.295.829-.186,1.71-.32,2.581a3.138,3.138,0,0,0,3.08,3.57q.269-4.7.541-9.4A3.013,3.013,0,0,0,93.291,130.824Z" transform="translate(25.59 -96.226)" fill="#263238"/>
      <path id="Path_34912" data-name="Path 34912" d="M72.781,143.883c-.5-.445-1.117-.829-1.313-1.463-.288-.925.455-2.011-.026-2.853-.435-.768-1.719-.727-2.126-1.511-.32-.615.048-1.156-.07-1.694a1.468,1.468,0,0,0-1.431-.945l-4.271,6.2c-.4,2.081-.8,3.2-.352,4.406a9.721,9.721,0,0,1,.663,2.023,2.031,2.031,0,0,1-.66,1.921c2.561.2,4.956-1.137,7.172-2.433l2.334-1.37a1.675,1.675,0,0,0,.64-.538C73.691,145.058,73.274,144.325,72.781,143.883Z" transform="translate(52.413 -101.367)" fill="#263238"/>
      <path id="Path_34913" data-name="Path 34913" d="M86.038,137.04a1.214,1.214,0,0,1-.275.054,2.4,2.4,0,0,1-.8-.058,2.462,2.462,0,0,1-1.111-.6,2.424,2.424,0,0,1-.73-1.5,2.475,2.475,0,0,1,.083-.983,4.056,4.056,0,0,1,.474-.961,3.686,3.686,0,0,0,.49-.986,1.262,1.262,0,0,0-.138-1.085c-.231-.32-.663-.387-1.066-.547a1.162,1.162,0,0,1-.544-.407,1.149,1.149,0,0,1-.176-.669,7.3,7.3,0,0,1,.291-1.332,1.409,1.409,0,0,0,0-.64.919.919,0,0,0-.368-.522,2.587,2.587,0,0,0-1.281-.346,2.75,2.75,0,0,1-1.319-.387,2.468,2.468,0,0,1-.912-.983,4.05,4.05,0,0,1-.32-1.226,5.881,5.881,0,0,0-.25-1.153,2.613,2.613,0,0,0-.6-.906,2.958,2.958,0,0,0-1.771-.8,2.926,2.926,0,0,0-1.6.32,3.522,3.522,0,0,0-.986.749,4.652,4.652,0,0,0-.608.874.174.174,0,0,1,.022-.067,1.783,1.783,0,0,1,.09-.186,3.32,3.32,0,0,1,.445-.647,3.579,3.579,0,0,1,.993-.784,2.978,2.978,0,0,1,1.63-.362,3.042,3.042,0,0,1,1.86.816,2.709,2.709,0,0,1,.64.961,5.961,5.961,0,0,1,.263,1.175,3.954,3.954,0,0,0,.32,1.185,2.344,2.344,0,0,0,.852.919,2.641,2.641,0,0,0,1.255.362,2.693,2.693,0,0,1,1.37.371,1.047,1.047,0,0,1,.423.6,1.562,1.562,0,0,1,0,.72,7.346,7.346,0,0,0-.288,1.306.989.989,0,0,0,.147.586,1.063,1.063,0,0,0,.483.355c.189.08.394.134.592.218a1.249,1.249,0,0,1,.528.381,1.418,1.418,0,0,1,.154,1.2,3.893,3.893,0,0,1-.512,1.018,3.842,3.842,0,0,0-.464.916,2.417,2.417,0,0,0-.09.935,2.356,2.356,0,0,0,.685,1.447,2.417,2.417,0,0,0,1.069.6A2.68,2.68,0,0,0,86.038,137.04Z" transform="translate(36.797 -91.502)" fill="#455a64"/>
      <path id="Path_34914" data-name="Path 34914" d="M72.613,132.665a.544.544,0,0,1,.083.208.922.922,0,0,1-.109.64,1,1,0,0,1-.32.343,1.021,1.021,0,0,1-.548.147,1.281,1.281,0,0,1-1.121-.714,1.7,1.7,0,0,1-.183-.778,2.382,2.382,0,0,1,.179-.845,5.273,5.273,0,0,0,.58-1.742,1.188,1.188,0,0,0-.3-.88,1.281,1.281,0,0,0-.929-.288,3.17,3.17,0,0,1-1.108-.115.961.961,0,0,1-.455-.384,1.383,1.383,0,0,1-.189-.564,4.428,4.428,0,0,1,.093-1.14,2.424,2.424,0,0,0-.061-1.053,2.651,2.651,0,0,0-1.188-1.562,3.768,3.768,0,0,0-1.783-.41,5.177,5.177,0,0,1-1.62-.256,3.4,3.4,0,0,1-1.146-.7,3.356,3.356,0,0,1-.64-.807,2.373,2.373,0,0,1-.3-.81,4.886,4.886,0,0,0,.355.781,3.442,3.442,0,0,0,1.761,1.46,5.276,5.276,0,0,0,1.6.231,3.842,3.842,0,0,1,1.838.41,2.779,2.779,0,0,1,1.261,1.617,2.6,2.6,0,0,1,.067,1.111,4.617,4.617,0,0,0-.093,1.1.961.961,0,0,0,.554.829,3.013,3.013,0,0,0,1.053.106,1.418,1.418,0,0,1,1.028.32,1.31,1.31,0,0,1,.32.983,2.536,2.536,0,0,1-.234.961c-.125.288-.263.557-.368.826a2.308,2.308,0,0,0-.179.8,1.617,1.617,0,0,0,.16.73,1.188,1.188,0,0,0,1.028.679.961.961,0,0,0,.509-.125.89.89,0,0,0,.32-.32.9.9,0,0,0,.131-.6C72.645,132.739,72.6,132.668,72.613,132.665Z" transform="translate(53.635 -91.536)" fill="#263238"/>
      <path id="Path_34915" data-name="Path 34915" d="M122.419,140.583a1.008,1.008,0,0,0,0,.669.874.874,0,0,0,.531.541.925.925,0,0,0,.938-.256.852.852,0,0,0,.221-.538,1.79,1.79,0,0,0-.1-.64,3.792,3.792,0,0,1-.371-1.47,2.072,2.072,0,0,1,.781-1.479,2.376,2.376,0,0,1,.8-.419,3.628,3.628,0,0,1,.909-.131,4.649,4.649,0,0,0,.887-.093,1.178,1.178,0,0,0,.688-.426,1.434,1.434,0,0,0,.247-.759,2.936,2.936,0,0,0-.064-.788,5.939,5.939,0,0,1-.231-1.5,2.27,2.27,0,0,1,.458-1.242,2.907,2.907,0,0,1,.832-.7,5.9,5.9,0,0,0,.669-.461,1.678,1.678,0,0,0,.416-.538s0,0,0,.045a.64.64,0,0,1-.051.125,1.383,1.383,0,0,1-.32.41,5.169,5.169,0,0,1-.663.49,2.882,2.882,0,0,0-.794.7,2.145,2.145,0,0,0-.416,1.185,5.977,5.977,0,0,0,.24,1.463,3.057,3.057,0,0,1,.074.826,1.6,1.6,0,0,1-.275.836,1.319,1.319,0,0,1-.768.483,4.882,4.882,0,0,1-.912.1,3.56,3.56,0,0,0-.877.122,2.331,2.331,0,0,0-.749.394,1.94,1.94,0,0,0-.733,1.374,3.765,3.765,0,0,0,.352,1.425,1.921,1.921,0,0,1,.1.692.96.96,0,0,1-.259.6,1.015,1.015,0,0,1-1.044.266.935.935,0,0,1-.557-.6.922.922,0,0,1-.026-.519A.541.541,0,0,1,122.419,140.583Z" transform="translate(-23.139 -97.926)" fill="#263238"/>
      <path id="Path_34916" data-name="Path 34916" d="M75.993,201.971V198.43a9.865,9.865,0,0,1,.717-6.16,33.157,33.157,0,0,1,2.222-3.378l3.522-4.575c1.94,1.412,4.979.391,7.585-.557a18.471,18.471,0,0,1,3.772,2.763c1.258,1.409-3.045,19.034-3.045,19.034,1.95,3.9,4.466,7.364,4.847,10.918l-20.363.784.864-9.336Z" transform="translate(26.348 -134.236)" fill="#455a64"/>
      <path id="Path_34917" data-name="Path 34917" d="M135.861,238.044a1.8,1.8,0,0,0,.016-.4v-1.085c-.016-.961-.035-2.2-.058-3.58s-.064-2.664-.109-3.58c-.022-.458-.045-.829-.064-1.085a1.767,1.767,0,0,0-.051-.394,2.035,2.035,0,0,0,0,.4V229.4c.016.961.038,2.2.061,3.58s.061,2.664.106,3.58c.022.458.045.829.067,1.085A1.69,1.69,0,0,0,135.861,238.044Z" transform="translate(-33.239 -164.257)" fill="#263238"/>
      <path id="Path_34918" data-name="Path 34918" d="M164.828,269.6a8,8,0,0,0-3.2.877c-1.217.768-3.2,1.966-4.018,3.448-.375.682.692.826,1.22.432a8.629,8.629,0,0,1,1.732-1.233l.4-.093a26.707,26.707,0,0,1-1.22,2.421c-.413.64-.772,1.7.471,1.751,0,0,.836,1.089,1.681.282,0,0,.66.989,1.723-.381,0,0,.621.784.877.483a3.834,3.834,0,0,0,1.351-1.755,35.5,35.5,0,0,1,1.281-3.359Z" transform="translate(-71.507 -192.592)" fill="#ffbf9d"/>
      <path id="Path_34919" data-name="Path 34919" d="M307.915,152.8c-.221,0-9.311-.961-9.311-.961a38.132,38.132,0,0,1-.73-4.655c.042-.961.688-7.316.688-7.316l-3.4-1.6s-4.55,15.343-3.557,16.617a9.953,9.953,0,0,0,3.019,2.424c.16.006,8.808,3.842,14.824,1.847S307.915,152.8,307.915,152.8Z" transform="translate(-259.037 -103.31)" fill="#ffbf9d"/>
      <path id="Path_34920" data-name="Path 34920" d="M303.495,181.495c-1.338,1.329-3.644,2.433-7.492,1.473-7.607-1.9-13.31-3.522-15.576-4.739s-1.383-6.653-1.575-6.9a1.962,1.962,0,0,1,.874-2.587,16.244,16.244,0,0,1,6.583-.215,2.242,2.242,0,0,1,.106,2.779l10.031,1.316a16.791,16.791,0,0,1,3.685.234" transform="translate(-246.651 -123.719)" fill="#455a64"/>
      <path id="Path_34921" data-name="Path 34921" d="M300.208,172.687l-.24-.051c-.16-.029-.4-.07-.711-.109a16.493,16.493,0,0,0-2.737-.115h0l-10.028-1.345.048.112A2.686,2.686,0,0,0,287,169.53a1.921,1.921,0,0,0-.288-.852,2.726,2.726,0,0,0-.275-.365.518.518,0,0,0-.131-.07l-.115-.029c-.077-.019-.15-.026-.224-.042a19.884,19.884,0,0,0-3.743-.077,12.866,12.866,0,0,0-1.947.269c-.16.035-.32.083-.487.125a1.2,1.2,0,0,0-.458.269,2.241,2.241,0,0,0-.567.871,2.2,2.2,0,0,0-.131,1.041,1.281,1.281,0,0,0,.2.512c.029.032.026.118.029.2v.256c-.022.688-.054,1.39-.035,2.094a8.9,8.9,0,0,0,.483,2.939,2.911,2.911,0,0,0,.832,1.226,2.857,2.857,0,0,0,.64.378c.211.112.435.2.64.3.877.375,1.758.682,2.625.961s1.719.548,2.561.794c3.349.961,6.4,1.739,8.946,2.376a17.216,17.216,0,0,0,1.844.381,9.89,9.89,0,0,0,1.681.09,7.009,7.009,0,0,0,2.622-.57,6.036,6.036,0,0,0,1.441-.9,3.754,3.754,0,0,0,.429-.407s-.147.141-.451.381a6.272,6.272,0,0,1-1.447.864,7.079,7.079,0,0,1-2.6.535,9.737,9.737,0,0,1-1.662-.1,17.457,17.457,0,0,1-1.831-.391c-2.561-.64-5.59-1.428-8.93-2.408-.836-.247-1.687-.509-2.561-.8s-1.742-.592-2.609-.961c-.211-.1-.432-.186-.64-.3a2.8,2.8,0,0,1-.6-.359,2.725,2.725,0,0,1-.784-1.156,8.822,8.822,0,0,1-.464-2.9c-.019-.7,0-1.4.035-2.088v-.4a.38.38,0,0,0,0-.077.451.451,0,0,0-.026-.058l-.016-.026a1.054,1.054,0,0,1-.173-.439,2,2,0,0,1,.125-.961,2.075,2.075,0,0,1,.519-.807,1.05,1.05,0,0,1,.4-.234c.16-.042.32-.086.477-.125a12.77,12.77,0,0,1,1.921-.266,19.469,19.469,0,0,1,3.7.07.84.84,0,0,1,.218.038l.1.022a.4.4,0,0,1,.064.032,2.381,2.381,0,0,1,.259.339,1.716,1.716,0,0,1,.269.784,2.561,2.561,0,0,1-.429,1.553l-.064.1h.112l10.034,1.281h0a17.285,17.285,0,0,1,2.725.077c.32.032.554.067.714.09A.892.892,0,0,1,300.208,172.687Z" transform="translate(-246.729 -123.55)" fill="#263238"/>
      <path id="Path_34922" data-name="Path 34922" d="M0,92.287H8.4V3.842A3.842,3.842,0,0,0,4.563,0h-.72A3.842,3.842,0,0,0,0,3.842V92.287Z" transform="translate(0 14.685) rotate(-60.9)" fill="#ff725e"/>
      <path id="Path_34923" data-name="Path 34923" d="M0,6.4H19.457a.717.717,0,0,0,.717-.717V.717A.717.717,0,0,0,19.457,0H0V6.4Z" transform="translate(10.241 17.628) rotate(-60.9)" fill="#ff725e"/>
      <rect id="Rectangle_6539" data-name="Rectangle 6539" width="16.255" height="6.403" rx="3.202" transform="translate(21.455 23.008) rotate(-60.9)" fill="#ff725e"/>
      <rect id="Rectangle_6540" data-name="Rectangle 6540" width="8.779" height="9.945" transform="translate(15.403 14.936) rotate(-60.9)" fill="#ff725e"/>
      <path id="Path_34924" data-name="Path 34924" d="M217.61,59.86c-.022.038,15.144,8.523,33.868,18.948s33.938,18.845,33.938,18.8-15.141-8.523-33.871-18.951S217.632,59.818,217.61,59.86Z" transform="translate(-209.035 -50.005)" fill="#263238"/>
      <path id="Path_34925" data-name="Path 34925" d="M133.333,195.946c-5.7,10.246-17.715,14.408-26.84,9.333s-11.91-17.5-6.211-27.73,17.712-14.408,26.84-9.333S139.029,185.713,133.333,195.946ZM105.225,180.3c-3.993,7.172-2.043,15.871,4.354,19.428s14.814.64,18.807-6.538,2.043-15.871-4.351-19.431S109.217,173.13,105.225,180.3Z" transform="translate(-21.397 -122.2)" fill="#ff725e"/>
      <rect id="Rectangle_6541" data-name="Rectangle 6541" width="12.845" height="4.566" rx="2.283" transform="translate(62.495 52.074) rotate(-60.9)" fill="#ff725e"/>
      <rect id="Rectangle_6542" data-name="Rectangle 6542" width="12.845" height="4.566" rx="2.283" transform="translate(54.397 47.566) rotate(-60.9)" fill="#ff725e"/>
      <path id="Path_34926" data-name="Path 34926" d="M248.583,162c-.042-.022-1.018,1.7-2.187,3.842s-2.081,3.893-2.039,3.916,1.018-1.694,2.187-3.842S248.625,162,248.583,162Z" transform="translate(-180.767 -119.442)" fill="#263238"/>
      <path id="Path_34927" data-name="Path 34927" d="M236.871,170.25c-.042-.022-1,1.62-2.136,3.663s-2.027,3.724-1.988,3.746,1-1.62,2.123-3.647S236.91,170.272,236.871,170.25Z" transform="translate(-165.338 -125.051)" fill="#263238"/>
      <path id="Path_34928" data-name="Path 34928" d="M274.108,148.07c-.042-.022-1.037,1.687-2.225,3.82s-2.116,3.884-2.075,3.906,1.034-1.691,2.222-3.823S274.146,148.092,274.108,148.07Z" transform="translate(-214.44 -109.972)" fill="#263238"/>
      <path id="Path_34929" data-name="Path 34929" d="M261.8,155.44c-.038-.022-1.015,1.678-2.174,3.8s-2.072,3.842-2.03,3.877,1.012-1.678,2.174-3.8S261.843,155.462,261.8,155.44Z" transform="translate(-198.224 -114.982)" fill="#263238"/>
      <path id="Path_34930" data-name="Path 34930" d="M306.945,103.18a1.511,1.511,0,0,1-.64-2.939,1.575,1.575,0,0,1,1.367-2.657,1.886,1.886,0,0,1,2.837-1.55,2.12,2.12,0,0,1,2.609-.058,1.508,1.508,0,0,1,1.335,2.561" transform="translate(-266.59 -74.272)" fill="#263238"/>
      <path id="Path_34931" data-name="Path 34931" d="M300.892,101.53h-.32a6.423,6.423,0,0,0-6.4,5.914c-.24,3.1-.464,6.532-.439,8.2a4.126,4.126,0,0,0,3.5,3.97l-.279,4.143,8.366-.272.695-15.016C306.313,104.882,304.478,101.729,300.892,101.53Z" transform="translate(-254.041 -78.333)" fill="#ffbf9d"/>
      <path id="Path_34932" data-name="Path 34932" d="M307.3,155.165a8.366,8.366,0,0,0,4.511-1.335,4.35,4.35,0,0,1-4.546,2.308Z" transform="translate(-264.129 -113.888)" fill="#ff9a6c"/>
      <path id="Path_34933" data-name="Path 34933" d="M321.84,129.2a.49.49,0,0,0,.477.493.474.474,0,0,0,.506-.445.5.5,0,0,0-.477-.5.474.474,0,0,0-.506.448Z" transform="translate(-279.814 -96.836)" fill="#263238"/>
      <path id="Path_34934" data-name="Path 34934" d="M322.394,124.188c.061.064.435-.211.961-.211s.919.263.977.2-.035-.144-.2-.269a1.348,1.348,0,0,0-.781-.237,1.281,1.281,0,0,0-.765.25C322.42,124.044,322.365,124.163,322.394,124.188Z" transform="translate(-281.514 -93.385)" fill="#263238"/>
      <path id="Path_34935" data-name="Path 34935" d="M306.92,128.5a.493.493,0,0,0,.48.5.474.474,0,0,0,.506-.445.493.493,0,0,0-.477-.5.474.474,0,0,0-.509.439Z" transform="translate(-260.12 -96.366)" fill="#263238"/>
      <path id="Path_34936" data-name="Path 34936" d="M306.134,124.448c.061.064.435-.211.961-.211s.919.263.977.2-.035-.144-.2-.269a1.348,1.348,0,0,0-.781-.237,1.281,1.281,0,0,0-.765.25C306.16,124.3,306.105,124.42,306.134,124.448Z" transform="translate(-260.048 -93.561)" fill="#263238"/>
      <path id="Path_34937" data-name="Path 34937" d="M318.8,128.471a3.425,3.425,0,0,0-.861-.154c-.134,0-.263-.038-.288-.131a.692.692,0,0,1,.09-.4l.4-1.031a16.489,16.489,0,0,0,.89-2.7,16.527,16.527,0,0,0-1.1,2.616c-.131.362-.259.708-.381,1.037a.8.8,0,0,0-.067.531.339.339,0,0,0,.224.2.775.775,0,0,0,.227.032,3.523,3.523,0,0,0,.874,0Z" transform="translate(-274.622 -93.649)" fill="#263238"/>
      <path id="Path_34938" data-name="Path 34938" d="M306.927,117.982c.07.134.522,0,1.082-.032s1.028.074,1.079-.067c.022-.067-.077-.186-.279-.295a1.694,1.694,0,0,0-.839-.173,1.627,1.627,0,0,0-.81.25C306.978,117.79,306.895,117.921,306.927,117.982Z" transform="translate(-261.305 -89.131)" fill="#263238"/>
      <path id="Path_34939" data-name="Path 34939" d="M321.855,117.334c.112.118.551,0,1.076,0s.961.08,1.073-.048c.045-.061-.026-.183-.221-.295a1.723,1.723,0,0,0-.874-.2,1.684,1.684,0,0,0-.855.247C321.868,117.152,321.807,117.274,321.855,117.334Z" transform="translate(-281.007 -88.711)" fill="#263238"/>
      <path id="Path_34940" data-name="Path 34940" d="M291.184,105.016s.9-2.161,1.943-2.667c1.258-.615,1.8.765,3,.426s2.4-.925,3.631,0c1.345,1.012.717,1.726.807,3.256.352,6.2,1.492,7.947,1.8,5.027.035-.32.922-.576,1.05-1.921a15.128,15.128,0,0,0-.17-5.123,4.823,4.823,0,0,0-2-2.561,8.142,8.142,0,0,0-5.6-1.111C294.069,100.511,291.034,102.314,291.184,105.016Z" transform="translate(-250.723 -77.475)" fill="#263238"/>
      <path id="Path_34941" data-name="Path 34941" d="M288.362,131.74a.935.935,0,0,1,1.005-.906c.64.061,1.361.423,1.322,1.751a1.77,1.77,0,0,1-2.424,1.732C288.262,134.247,288.323,132.727,288.362,131.74Z" transform="translate(-236.932 -98.253)" fill="#ffbf9d"/>
      <path id="Path_34942" data-name="Path 34942" d="M290.786,135.076a.521.521,0,0,0,.109.064.413.413,0,0,0,.3.016,1.012,1.012,0,0,0,.5-.9,1.351,1.351,0,0,0-.1-.589.471.471,0,0,0-.3-.32.208.208,0,0,0-.247.106c-.032.064-.019.112-.032.115s-.048-.042-.026-.138a.237.237,0,0,1,.1-.144.3.3,0,0,1,.227-.054.576.576,0,0,1,.419.378,1.384,1.384,0,0,1,.125.66,1.061,1.061,0,0,1-.64,1,.432.432,0,0,1-.371-.074C290.786,135.133,290.776,135.076,290.786,135.076Z" transform="translate(-238.911 -99.882)" fill="#ff9a6c"/>
      <path id="Path_34943" data-name="Path 34943" d="M297.961,104.653a2.241,2.241,0,0,1-1,.464.768.768,0,0,1-.855-.538c-.029-.163,0-.355-.1-.48s-.368-.1-.564-.08a1.876,1.876,0,0,1-1.665-1.348.611.611,0,0,1-.82.173,2.19,2.19,0,0,1-.57-.5.977.977,0,0,0-.81-.4,2.241,2.241,0,0,1-.512.112c-.32-.026-.461-.387-.509-.695s-.086-.663-.349-.829a1.239,1.239,0,0,0-.842-.022c-.285.045-.64-.022-.727-.3a.564.564,0,0,1,.106-.426,1.524,1.524,0,0,1,1.8-.583,2.065,2.065,0,0,1,3.8-.413,2.1,2.1,0,0,1,3.359.756,1.521,1.521,0,0,1,1.723,2.206,1.444,1.444,0,0,1,.8,1.149.837.837,0,0,1-.935.845.842.842,0,0,1-1.454.845" transform="translate(-246.592 -75.731)" fill="#263238"/>
      <path id="Path_34944" data-name="Path 34944" d="M289.31,104.53v.045a.361.361,0,0,0,.016.125,1.533,1.533,0,0,0,.173.455,1.706,1.706,0,0,0,.522.554,1.575,1.575,0,0,0,.961.272l-.038-.051a.842.842,0,0,0,.048.64,2.432,2.432,0,0,0,.4.576,1.772,1.772,0,0,0,.266.272.881.881,0,0,0,1.13-.138l-.086-.026a1.764,1.764,0,0,0,.752,1.22,1.281,1.281,0,0,0,.775.253,2.382,2.382,0,0,0,.762-.17l-.064-.029a1.867,1.867,0,0,0,.56.727.986.986,0,0,0,.82.221,1.3,1.3,0,0,0,1-1.018l-.054.026a1.239,1.239,0,0,0,.81.115,1.335,1.335,0,0,0,.564-.253,1.176,1.176,0,0,0,.263-.288.422.422,0,0,0,.058-.125,1.383,1.383,0,0,1-.343.381,1.281,1.281,0,0,1-.551.227,1.146,1.146,0,0,1-.765-.122l-.045-.026v.051a1.217,1.217,0,0,1-.941.941.9.9,0,0,1-.746-.208,1.768,1.768,0,0,1-.525-.688l-.019-.042h-.045a2.257,2.257,0,0,1-.727.16,1.188,1.188,0,0,1-.717-.234,1.674,1.674,0,0,1-.711-1.149v-.112l-.074.086a.762.762,0,0,1-.669.243.749.749,0,0,1-.32-.122,1.558,1.558,0,0,1-.25-.253,2.347,2.347,0,0,1-.4-.551.765.765,0,0,1-.051-.589l.019-.058h-.061a1.511,1.511,0,0,1-.925-.247,1.678,1.678,0,0,1-.519-.528A1.766,1.766,0,0,1,289.31,104.53Z" transform="translate(-245.523 -80.373)" fill="#455a64"/>
      <path id="Path_34945" data-name="Path 34945" d="M312.284,140.488c.019-.086.592.054,1.124-.336s.618-1.018.7-1,.08.167.022.426a1.469,1.469,0,0,1-.554.845,1.281,1.281,0,0,1-.928.243C312.4,140.625,312.271,140.526,312.284,140.488Z" transform="translate(-268.099 -103.908)" fill="#263238"/>
      <path id="Path_34946" data-name="Path 34946" d="M361.852,423.12l-2.273,7.745s-8.645.288-9.2,1.681l14.875,4.943,4.041-11.926Z" transform="translate(-335.424 -296.959)" fill="#455a64"/>
      <path id="Path_34947" data-name="Path 34947" d="M365.786,449.884a.64.64,0,0,1,.189.832.615.615,0,0,1-.823.2.676.676,0,0,1-.2-.884.64.64,0,0,1,.88-.109" transform="translate(-336.823 -315.091)" fill="#e0e0e0"/>
      <path id="Path_34948" data-name="Path 34948" d="M362.719,450.8s-.759.067-.839.56l14.875,4.944.359-1.22-14.382-4.29" transform="translate(-346.924 -315.77)" fill="#263238"/>
      <path id="Path_34949" data-name="Path 34949" d="M377.958,446.768c-.022.074.32.227.608.579s.368.72.445.714.106-.461-.24-.88S377.964,446.7,377.958,446.768Z" transform="translate(-354.018 -313.019)" fill="#fff"/>
      <path id="Path_34950" data-name="Path 34950" d="M384.735,447.18c-.042.067.231.295.378.682s.106.74.179.759.256-.375.067-.855S384.758,447.113,384.735,447.18Z" transform="translate(-362.569 -313.306)" fill="#fff"/>
      <path id="Path_34951" data-name="Path 34951" d="M391.088,449.068c.061.038.282-.291.227-.749s-.339-.733-.391-.682.09.32.128.711S391.017,449.03,391.088,449.068Z" transform="translate(-370.43 -313.622)" fill="#fff"/>
      <path id="Path_34952" data-name="Path 34952" d="M374.423,441.278c0,.077.375.086.775.25s.679.4.736.352-.163-.41-.64-.6S374.4,441.208,374.423,441.278Z" transform="translate(-349.769 -309.235)" fill="#fff"/>
      <path id="Path_34953" data-name="Path 34953" d="M231.075,417.171l3.237,7.4s-6.432,5.763-5.968,7.2L242.912,426l-4.569-11.731Z" transform="translate(-169.96 -290.942)" fill="#455a64"/>
      <path id="Path_34954" data-name="Path 34954" d="M240.3,438.9a.64.64,0,0,1,.679.516.618.618,0,0,1-.506.679.679.679,0,0,1-.717-.551c0-.32.291-.685.605-.64" transform="translate(-171.694 -307.682)" fill="#e0e0e0"/>
      <path id="Path_34955" data-name="Path 34955" d="M228.673,453.225s-.538.541-.285.961l14.568-5.763-.509-1.162-13.767,5.955" transform="translate(-170.004 -313.37)" fill="#263238"/>
      <path id="Path_34956" data-name="Path 34956" d="M250.862,446c.029.07.4-.038.839.051s.746.32.8.262-.215-.423-.749-.522S250.817,445.938,250.862,446Z" transform="translate(-186.772 -312.355)" fill="#fff"/>
      <path id="Path_34957" data-name="Path 34957" d="M255.653,450.147c0,.074.365.074.727.279s.554.5.64.467-.045-.451-.5-.7S255.627,450.08,255.653,450.147Z" transform="translate(-192.844 -315.268)" fill="#fff"/>
      <path id="Path_34958" data-name="Path 34958" d="M261.427,454.954c.07,0,.029-.4-.32-.72s-.73-.343-.736-.272.282.2.554.464S261.353,454.976,261.427,454.954Z" transform="translate(-198.765 -317.904)" fill="#fff"/>
      <path id="Path_34959" data-name="Path 34959" d="M252.917,439.625c.054.051.343-.173.756-.32s.775-.128.788-.2-.387-.211-.871-.051S252.86,439.574,252.917,439.625Z" transform="translate(-189.382 -307.74)" fill="#fff"/>
      <path id="Path_34960" data-name="Path 34960" d="M241.27,296.43l5.1,20.7s9.2,15.5,10.764,23.251l-8.421,3.311s-6.125-14.936-7.921-17.677a22.07,22.07,0,0,0-2.773-3.416,5.331,5.331,0,0,1-1.4-2.421l-3.864-14.77Z" transform="translate(-185.608 -210.832)" fill="#263238"/>
      <path id="Path_34961" data-name="Path 34961" d="M309.712,271.82a10.968,10.968,0,0,1-6.048,8l-11.244,18.314a74.892,74.892,0,0,1-2.561,10.972c-1.681,5.017-5.078,14.686-5.078,14.686l-9.25-3.458,5.894-20.152.961-6.989,9.176-23.373,7.883-4.726Z" transform="translate(-251.875 -189.533)" fill="#263238"/>
      <path id="Path_34962" data-name="Path 34962" d="M309.8,271.719l-.17-.115-.509-.339-2-1.319-7.575-4.979-.026-.016-.026.016-7.889,4.716h0v.019l-9.2,23.35v.016c-.3,2.209-.64,4.575-.961,6.989h0c-1.6,5.443-3.3,11.267-5.052,17.267l-.845,2.882-.022.074.074.026,9.25,3.458.08.029.026-.08c1.6-4.646,3.151-9.119,4.614-13.361.368-1.06.73-2.11,1.031-3.16s.573-2.094.82-3.125c.487-2.062.877-4.076,1.185-6.029v.026l11.18-18.32-.019.016a10.44,10.44,0,0,0,3.522-2.683,11.1,11.1,0,0,0,1.729-2.773,11.4,11.4,0,0,0,.64-1.921c.054-.218.086-.387.106-.5s.022-.173.022-.173a.639.639,0,0,1-.035.17c-.035.112-.054.282-.115.5a11.719,11.719,0,0,1-.66,1.9,11.171,11.171,0,0,1-1.735,2.744,10.453,10.453,0,0,1-3.522,2.651h0l-11.267,18.3h0v.016c-.32,1.947-.7,3.957-1.191,6.016-.247,1.028-.516,2.068-.82,3.115s-.663,2.091-1.031,3.151c-1.47,4.242-3.016,8.715-4.623,13.358l.106-.048-9.25-3.458.051.1q.416-1.431.845-2.882l5.046-17.27h0c.32-2.414.66-4.78.961-6.989v.019l9.16-23.373-.026.029,7.876-4.735h-.048l7.575,4.956,2.017,1.3.519.336Z" transform="translate(-251.961 -189.431)" fill="#455a64"/>
      <path id="Path_34963" data-name="Path 34963" d="M287.187,158.026a17.838,17.838,0,0,1,4.005,4.393c1.569,2.776,1.739,6.89,1.787,13.281.048,5.91-.836,7.553-.5,9.781.669,4.351,1.165,18.954,1.165,18.954s-8.645-3.32-10.322-4.8l-1.687-1.466-10.819,3.576L273,188.449l1.5-16.569,1.921-8.789.32-3.448,9.291-3.733Z" transform="translate(-234.304 -115.302)" fill="#455a64"/>
      <path id="Path_34964" data-name="Path 34964" d="M291.21,163.648c-.112.022.266.781.932,1.9l.029.045.051-.019c.938-.365,2.18-.823,3.538-1.319,1.53-.557,2.914-1.076,3.9-1.479.5-.2.893-.371,1.165-.5a2.629,2.629,0,0,0,.416-.2,2.279,2.279,0,0,0-.442.147l-1.181.445-3.919,1.431c-1.358.5-2.6.961-3.522,1.358l.077.026A9.171,9.171,0,0,1,291.21,163.648Z" transform="translate(-248.421 -119.49)" fill="#263238"/>
      <path id="Path_34965" data-name="Path 34965" d="M347.664,121.333s.685-1.066,1.332-2.049,1.626-1.466,1.783-1.979,1.018-2.8,1.156-3.362a7.3,7.3,0,0,0,.167-1.671s-.708-.3-1.047.711a25.743,25.743,0,0,1-1,2.776c-.141.1-.32-.048-.32-.048a24.26,24.26,0,0,0,.752-2.36c.032-.375-.1-2.859-.1-2.859a.749.749,0,0,0-.852.477,7.012,7.012,0,0,0-.349,2.241L348.678,115l.179-1.767-.256-3.25a1.223,1.223,0,0,0-1.025.961c-.215.877.07,2.1-.074,2.36a11.309,11.309,0,0,0-.3,1.828s-.176-3.81-.583-3.919-.74.295-.682,1.063a11.991,11.991,0,0,1-.138,3.112c-.211.717-2.379,3.522-2.2,4.751a20.631,20.631,0,0,1,.2,2.241h3.714Z" transform="translate(-316.055 -84.078)" fill="#ffbf9d"/>
      <path id="Path_34966" data-name="Path 34966" d="M317.629,155.62c-.208.08-9.08,2.276-9.08,2.276a37.648,37.648,0,0,1-2.273-4.13c-.291-.929-1.851-7.114-1.851-7.114l-3.749-.352s.961,15.973,2.318,16.835a9.93,9.93,0,0,0,3.663,1.249c.141-.048,9.589.608,14.568-3.314S317.629,155.62,317.629,155.62Z" transform="translate(-272.993 -108.769)" fill="#ffbf9d"/>
      <g id="Group_24283" data-name="Group 24283" transform="translate(40.003 55.252)" opacity="0.3">
        <path id="Path_34967" data-name="Path 34967" d="M307.462,201.7a6.775,6.775,0,0,1-3.628,2.132c-2.353.519-7.364,1.438-7.364,1.438l.243-2.459L307.6,201.65" transform="translate(-296.47 -201.65)"/>
      </g>
      <path id="Path_34968" data-name="Path 34968" d="M311.788,176.453c-.807,1.7-2.6,3.522-6.541,3.935-7.8.807-13.71,1.236-16.262.852s-3.567-5.786-3.842-5.952a1.955,1.955,0,0,1-.058-2.728,16.384,16.384,0,0,1,6.112-2.443,2.24,2.24,0,0,1,1.047,2.577l9.893-2.184a16.649,16.649,0,0,1,3.544-1.031" transform="translate(-256.843 -124.528)" fill="#455a64"/>
      <path id="Path_34969" data-name="Path 34969" d="M305.832,169.48a1.394,1.394,0,0,0-.243.032c-.16.032-.4.07-.708.138a16.491,16.491,0,0,0-2.613.826h0l-9.887,2.152.083.09a2.661,2.661,0,0,0-.128-1.707,1.893,1.893,0,0,0-.557-.7,2.585,2.585,0,0,0-.387-.25.541.541,0,0,0-.144-.022h-.118a1.348,1.348,0,0,0-.227.038,19.85,19.85,0,0,0-3.544,1.2,13.3,13.3,0,0,0-1.739.916c-.138.09-.275.189-.413.285a1.185,1.185,0,0,0-.339.407,2.27,2.27,0,0,0-.237,1.012,2.171,2.171,0,0,0,.231,1.025,1.217,1.217,0,0,0,.365.413c.038.019.064.1.1.179l.083.24c.211.64.423,1.326.679,1.985a9,9,0,0,0,1.454,2.613,2.561,2.561,0,0,0,1.921,1.005c.24.035.48.042.717.061.961.058,1.883.045,2.8.019s1.806-.074,2.673-.128c3.48-.224,6.6-.541,9.221-.813a16.817,16.817,0,0,0,1.863-.269,9.925,9.925,0,0,0,1.6-.487,7.062,7.062,0,0,0,2.27-1.428,6.051,6.051,0,0,0,1.05-1.335,3.777,3.777,0,0,0,.266-.528s-.09.182-.295.512a6.337,6.337,0,0,1-1.066,1.3,6.993,6.993,0,0,1-2.26,1.39,10.161,10.161,0,0,1-1.6.471,17.35,17.35,0,0,1-1.857.253c-2.619.259-5.741.563-9.215.781-.871.051-1.761.1-2.67.118s-1.841.035-2.782-.019c-.234-.022-.474-.029-.708-.064a2.561,2.561,0,0,1-.685-.131,2.741,2.741,0,0,1-1.133-.82,8.821,8.821,0,0,1-1.422-2.561c-.256-.64-.464-1.316-.676-1.975l-.09-.25a.4.4,0,0,0-.051-.125.443.443,0,0,0-.042-.07.254.254,0,0,0-.042-.042l-.022-.019a1.041,1.041,0,0,1-.32-.355,1.991,1.991,0,0,1-.211-.961,2.12,2.12,0,0,1,.215-.935,1.044,1.044,0,0,1,.291-.352c.138-.093.269-.192.407-.279a12.759,12.759,0,0,1,1.716-.906,19.655,19.655,0,0,1,3.506-1.2c.074,0,.147-.032.218-.038h.176a2.46,2.46,0,0,1,.359.234,1.732,1.732,0,0,1,.522.64,2.561,2.561,0,0,1,.125,1.6l-.029.112.112-.026,9.871-2.209h0a17.5,17.5,0,0,1,2.587-.858c.32-.074.541-.125.7-.157A1.449,1.449,0,0,1,305.832,169.48Z" transform="translate(-256.993 -124.527)" fill="#263238"/>
      <path id="Path_34970" data-name="Path 34970" d="M345.35,182.3a2.1,2.1,0,0,0,.64-.279,6.327,6.327,0,0,0,1.345-1.005,6.722,6.722,0,0,0,1.05-1.313,2.318,2.318,0,0,0,.3-.64,14.18,14.18,0,0,1-1.47,1.822,13.11,13.11,0,0,1-1.87,1.415Z" transform="translate(-313.207 -131.04)" fill="#263238"/>
      <path id="Path_34971" data-name="Path 34971" d="M138.348,271.53a7.946,7.946,0,0,0-3.2.877c-1.217.772-3.2,1.963-4.018,3.448-.375.682.692.826,1.217.429a8.549,8.549,0,0,1,1.735-1.233l.4-.09a26.33,26.33,0,0,1-1.22,2.417c-.413.64-.772,1.7.467,1.755,0,0,.839,1.089,1.684.282,0,0,.66.986,1.723-.381,0,0,.618.781.877.483a3.8,3.8,0,0,0,1.351-1.755,34.278,34.278,0,0,1,1.281-3.359Z" transform="translate(-36.549 -193.904)" fill="#ffbf9d"/>
      <path id="Path_34972" data-name="Path 34972" d="M92.405,190a4.777,4.777,0,0,1,2.494,1.873,7.629,7.629,0,0,1,.778,4.713c-.461,3.186-1.921,8.561-2.744,12.013-.282,1.191-.861,3.323-2.561,4.454l-12.131,7.274L75,215.524l11.059-9.013,2.187-12.352Z" transform="translate(26.287 -138.478)" fill="#455a64"/>
      <path id="Path_34973" data-name="Path 34973" d="M98.527,216.03a.709.709,0,0,0-.038.125l-.1.375c-.086.339-.208.826-.368,1.45-.32,1.281-.775,3.1-1.342,5.363a6.279,6.279,0,0,1-2,3.163,12.015,12.015,0,0,1-1.774,1.178l-1.95,1.178-8.738,5.276.112.026-1.169-1.732-2.075-3.083-.016.112,10.96-9.026h.019v-.022c.724-3.045,1.249-5.539,1.582-7.274.163-.868.279-1.543.352-2,.032-.224.058-.4.077-.525s.022-.179.022-.179a1.509,1.509,0,0,0-.042.176c-.022.125-.054.3-.093.522-.086.458-.211,1.133-.391,2-.349,1.729-.893,4.217-1.633,7.258l.022-.035-10.979,8.984-.058.048.042.061,2.075,3.083,1.169,1.732.042.064.07-.038,8.725-5.292,1.947-1.181a12.256,12.256,0,0,0,1.787-1.188,6.362,6.362,0,0,0,2.02-3.237c.548-2.27.986-4.1,1.281-5.376.144-.64.259-1.117.339-1.457l.093-.394A.935.935,0,0,0,98.527,216.03Z" transform="translate(22.262 -152.367)" fill="#263238"/>
      <path id="Path_34974" data-name="Path 34974" d="M85,194.661a.765.765,0,0,0-.247-.106,4.67,4.67,0,0,0-.711-.16,4.21,4.21,0,0,0-2.366.32,4.719,4.719,0,0,0-1.767,1.6,2.882,2.882,0,0,0-.32.656.756.756,0,0,0-.058.259,6.744,6.744,0,0,1,.477-.848,5.017,5.017,0,0,1,1.742-1.508,4.422,4.422,0,0,1,2.28-.352C84.627,194.572,84.989,194.69,85,194.661Z" transform="translate(35.592 -141.433)" fill="#263238"/>
    </g>
    <g id="Group_24284" data-name="Group 24284" transform="translate(308.421 -245.384)">
      <path id="Path_34799" data-name="Path 34799" d="M209.5,364.853l-4.038,1.737.272-23.956a6.043,6.043,0,0,0-1.909-4.9c-6.5-7.394-16.2-2.03-16.283,5.463L187.3,364.6l-3.932-.044.389-22.4c.029-2.522,1.99-6.9,3.969-8.466,10.941-8.668,22.135.286,22.028,9.758Z" transform="translate(9251.012 14254.248)" fill="#f5f5f5"/>
      <path id="Path_34800" data-name="Path 34800" d="M209.326,364.775V363.1c0-1.1.022-2.7.037-4.773s.04-4.589.066-7.523q.022-2.2.044-4.688a27.344,27.344,0,0,0-.191-5.239,12.717,12.717,0,0,0-2.251-5.254c-.151-.2-.294-.408-.452-.606s-.338-.367-.507-.569a12.849,12.849,0,0,0-1.1-1.083c-.187-.18-.408-.323-.613-.488a4.99,4.99,0,0,0-.639-.466,12.367,12.367,0,0,0-1.388-.8,13.293,13.293,0,0,0-3.091-1.1l-.83-.136-.415-.07-.422-.026-.852-.055c-.286,0-.573.018-.859.029a12.876,12.876,0,0,0-6.638,2.2,13.015,13.015,0,0,0-4.674,5.669,13.716,13.716,0,0,0-.962,3.712c-.11,1.285-.081,2.61-.106,3.936-.059,5.312-.121,10.812-.184,16.448q0,1.127-.026,2.247l-.092-.1,3.932.044-.092.092q.07-6.388.143-12.483.033-3.033.07-5.981,0-1.469.033-2.919a10,10,0,0,1,.477-2.842A9.255,9.255,0,0,1,191,335.811a5.912,5.912,0,0,1,.562-.393l.587-.367a9.229,9.229,0,0,1,1.237-.543,9.341,9.341,0,0,1,1.289-.367c.217-.048.437-.066.654-.1l.327-.044h.33a9.278,9.278,0,0,1,2.57.217,9.812,9.812,0,0,1,2.357.9,9.362,9.362,0,0,1,4.406,5.437,9.619,9.619,0,0,1,.367,2.2,5.415,5.415,0,0,0,.018.547,5.3,5.3,0,0,1,0,.54V344.9c0,.7,0,1.391-.026,2.067-.037,2.7-.066,5.184-.1,7.423-.062,4.475-.11,7.978-.143,10.306l-.026-.026,2.966.048h.011l-2.981-.018h-.026v-.026c0-2.328.051-5.83.092-10.306.022-2.24.048-4.725.073-7.427,0-.676,0-1.366.022-2.067v-1.6l-.022-.54a8.642,8.642,0,0,0-1.3-4.248,9.142,9.142,0,0,0-3.4-3.271,9.682,9.682,0,0,0-2.317-.881,9.139,9.139,0,0,0-2.537-.206h-.323l-.319.048c-.217.033-.433.051-.646.1a9.758,9.758,0,0,0-2.478.892l-.576.345a5.69,5.69,0,0,0-.551.367,9.068,9.068,0,0,0-3.19,4.406,9.741,9.741,0,0,0-.463,2.79q0,1.446-.033,2.919-.033,2.937-.066,5.981c-.044,4.038-.092,8.213-.14,12.483v.092h-.092l-3.936-.044h-.092v-.092q0-1.1.026-2.247c.066-5.632.129-11.132.191-16.448.026-1.329,0-2.64.106-3.954a13.95,13.95,0,0,1,.98-3.759,14.233,14.233,0,0,1,1.968-3.2,14.057,14.057,0,0,1,2.757-2.493,13.026,13.026,0,0,1,6.726-2.232c.29,0,.58-.033.87-.026l.988.059.543.062.822.136.367.081a12.824,12.824,0,0,1,2.937,1.079,12.06,12.06,0,0,1,1.406.811c.231.136.43.319.642.474a6.674,6.674,0,0,1,.624.492,13.084,13.084,0,0,1,1.1,1.1l.514.576c.158.2.3.411.452.617a12.813,12.813,0,0,1,2.265,5.312,28.651,28.651,0,0,1,.18,5.272c.011,1.659-.044,3.238-.062,4.707-.04,2.937-.077,5.463-.106,7.53s-.051,3.671-.07,4.751c0,.536,0,.951-.022,1.23A1.139,1.139,0,0,0,209.326,364.775Z" transform="translate(9251.189 14254.327)" fill="#e0e0e0"/>
      <path id="Path_34801" data-name="Path 34801" d="M0,0H35.612a1.373,1.373,0,0,1,1.373,1.373V28.9a1.248,1.248,0,0,1-1.248,1.248H.015V0Z" transform="matrix(1, 0.011, -0.011, 1, 9429.892, 14604.82)" fill="#e0e0e0"/>
      <path id="Path_34802" data-name="Path 34802" d="M1.491,0H32.807A1.491,1.491,0,0,1,34.3,1.491v26.8a1.836,1.836,0,0,1-1.836,1.836H1.542A1.542,1.542,0,0,1,0,28.585V1.491A1.491,1.491,0,0,1,1.491,0Z" transform="translate(9428.401 14604.729) rotate(0.573)" fill="#f8f9fa"/>
      <path id="Path_34803" data-name="Path 34803" d="M211.35,412.82a4.2,4.2,0,0,0-4.288-4.251,4.251,4.251,0,0,0-4.123,4.123,4.189,4.189,0,0,0,3.011,4.1l-2.809,5.771,7.251.217-2.144-5.973A4.193,4.193,0,0,0,211.35,412.82Z" transform="translate(9238.629 14204.641)" fill="#e0e0e0"/>
      <path id="Path_34805" data-name="Path 34805" d="M202.792,388.875c0,.051-4.615.1-10.309.114s-10.313-.022-10.313-.073,4.615-.1,10.313-.11S202.792,388.816,202.792,388.875Z" transform="translate(9251.771 14217.148)" fill="#fff"/>
      <path id="Path_34806" data-name="Path 34806" d="M201.347,414.523a.948.948,0,0,1-.173-.264,4.292,4.292,0,0,1-.316-.8,4.718,4.718,0,0,1,1.726-5.081,4.171,4.171,0,0,1,.734-.444.918.918,0,0,1,.294-.1,10.14,10.14,0,0,0-.951.65,4.839,4.839,0,0,0-1.678,4.945C201.163,414.134,201.376,414.5,201.347,414.523Z" transform="translate(9240.059 14205.107)" fill="#fff"/>
      <path id="Path_34807" data-name="Path 34807" d="M205.262,430.441c-.026.044-.272-.062-.551-.235s-.481-.349-.455-.393.275.062.554.235A1.218,1.218,0,0,1,205.262,430.441Z" transform="translate(9237.795 14191.202)" fill="#fff"/>
      <path id="Path_34808" data-name="Path 34808" d="M197.811,333.15a5.944,5.944,0,0,1-.709.092,12.3,12.3,0,0,0-1.894.408,11.526,11.526,0,0,0-8.172,11.014v.712a.573.573,0,0,1-.029-.184c0-.121-.037-.3-.04-.529a10.205,10.205,0,0,1,.11-1.953,11.139,11.139,0,0,1,8.1-9.178,10.111,10.111,0,0,1,1.924-.367c.228-.026.408-.022.529-.026A.924.924,0,0,1,197.811,333.15Z" transform="translate(9248.741 14252.377)" fill="#fff"/>
      <path id="Path_34809" data-name="Path 34809" d="M186.493,371.523a3.3,3.3,0,0,1-.066-1.1,3.264,3.264,0,0,1,.114-1.1A6.443,6.443,0,0,1,186.493,371.523Z" transform="translate(9249.09 14229.479)" fill="#fff"/>
    </g>
    <g id="Group_24291" data-name="Group 24291" transform="translate(152.945 -242.356)">
      <path id="Path_34799-2" data-name="Path 34799" d="M196.436,347.517l-2.019.868.136-11.978a3.022,3.022,0,0,0-.955-2.452,4.554,4.554,0,0,0-8.141,2.731l-.121,10.7-1.966-.022.195-11.2a6.917,6.917,0,0,1,1.984-4.233c5.47-4.334,11.067.143,11.014,4.879Z" transform="translate(9247.871 14254.226)" fill="#f5f5f5"/>
      <path id="Path_34800-2" data-name="Path 34800" d="M196.208,347.416v-.835c0-.551.011-1.349.018-2.386s.02-2.295.033-3.761q.011-1.1.022-2.344a13.671,13.671,0,0,0-.1-2.619,6.358,6.358,0,0,0-1.125-2.627c-.075-.1-.147-.2-.226-.3s-.169-.184-.253-.285a6.424,6.424,0,0,0-.551-.542c-.094-.09-.2-.162-.307-.244a2.5,2.5,0,0,0-.319-.233,6.184,6.184,0,0,0-.694-.4,6.648,6.648,0,0,0-1.546-.551l-.415-.068-.207-.035-.211-.013-.426-.028c-.143,0-.286.009-.43.015a6.438,6.438,0,0,0-3.319,1.1,6.507,6.507,0,0,0-2.337,2.834,6.858,6.858,0,0,0-.481,1.856c-.055.643-.04,1.305-.053,1.968-.029,2.656-.061,5.406-.092,8.224q0,.564-.013,1.123l-.046-.048,1.966.022-.046.046q.035-3.194.072-6.241.017-1.516.035-2.99,0-.734.017-1.459a5,5,0,0,1,.239-1.421,4.627,4.627,0,0,1,1.626-2.238,2.958,2.958,0,0,1,.281-.2l.294-.184a4.61,4.61,0,0,1,.619-.272,4.671,4.671,0,0,1,.644-.184c.108-.024.218-.033.327-.051l.163-.022h.165a4.638,4.638,0,0,1,1.285.108,4.906,4.906,0,0,1,1.178.45,4.681,4.681,0,0,1,2.2,2.719,4.809,4.809,0,0,1,.184,1.1,2.711,2.711,0,0,0,.009.273,2.644,2.644,0,0,1,0,.27v.532c0,.351,0,.7-.013,1.033-.018,1.351-.033,2.592-.048,3.712-.031,2.238-.055,3.989-.072,5.153l-.013-.013,1.483.024h.006l-1.491-.009h-.013v-.013c0-1.164.026-2.915.046-5.153.011-1.12.024-2.362.037-3.714,0-.338,0-.683.011-1.033v-.8l-.011-.27a4.321,4.321,0,0,0-.648-2.124,4.571,4.571,0,0,0-1.7-1.636,4.841,4.841,0,0,0-1.158-.441,4.569,4.569,0,0,0-1.268-.1h-.162l-.16.024c-.108.016-.217.026-.323.05a4.878,4.878,0,0,0-1.239.446l-.288.173a2.844,2.844,0,0,0-.275.184,4.534,4.534,0,0,0-1.6,2.2,4.87,4.87,0,0,0-.231,1.4q0,.723-.017,1.459-.017,1.469-.033,2.99c-.022,2.019-.046,4.106-.07,6.241v.046H185.1l-1.968-.022h-.046v-.046q0-.551.013-1.123c.033-2.816.064-5.566.1-8.224.013-.664,0-1.32.053-1.977a6.974,6.974,0,0,1,.49-1.88,7.115,7.115,0,0,1,.984-1.6,7.028,7.028,0,0,1,1.379-1.246,6.513,6.513,0,0,1,3.363-1.116c.145,0,.29-.017.435-.013l.494.029.272.031.411.068.184.04a6.414,6.414,0,0,1,1.469.54,6.03,6.03,0,0,1,.7.406c.116.068.215.16.321.237a3.333,3.333,0,0,1,.312.246,6.541,6.541,0,0,1,.551.551l.257.288c.079.1.151.206.226.308a6.406,6.406,0,0,1,1.133,2.656,14.325,14.325,0,0,1,.09,2.636c.006.83-.022,1.619-.031,2.353-.02,1.469-.039,2.731-.053,3.765s-.026,1.836-.035,2.375c0,.268,0,.475-.011.615A.569.569,0,0,0,196.208,347.416Z" transform="translate(9248.1 14254.327)" fill="#e0e0e0"/>
      <path id="Path_34801-2" data-name="Path 34801" d="M0,0H17.806a.687.687,0,0,1,.687.687V14.448a.624.624,0,0,1-.624.624H.007V0Z" transform="matrix(1, 0.011, -0.011, 1, 9428.995, 14594.602)" fill="#e0e0e0"/>
      <path id="Path_34802-2" data-name="Path 34802" d="M.745,0H16.4a.745.745,0,0,1,.745.745v13.4a.918.918,0,0,1-.918.918H.771A.771.771,0,0,1,0,14.292V.745A.745.745,0,0,1,.745,0Z" transform="translate(9428.25 14594.556) rotate(0.573)" fill="#f8f9fa"/>
      <path id="Path_34803-2" data-name="Path 34803" d="M207.144,410.694A2.1,2.1,0,0,0,205,408.568a2.126,2.126,0,0,0-2.061,2.061,2.094,2.094,0,0,0,1.505,2.049l-1.4,2.886,3.625.108-1.072-2.987A2.1,2.1,0,0,0,207.144,410.694Z" transform="translate(9231.896 14190.229)" fill="#e0e0e0"/>
      <path id="Path_34805-2" data-name="Path 34805" d="M192.481,388.839c0,.026-2.307.051-5.155.057s-5.156-.011-5.156-.037,2.307-.05,5.156-.055S192.481,388.809,192.481,388.839Z" transform="translate(9248.851 14206.364)" fill="#fff"/>
      <path id="Path_34806-2" data-name="Path 34806" d="M201.012,411.176a.474.474,0,0,1-.086-.132,2.147,2.147,0,0,1-.158-.4,2.359,2.359,0,0,1,.863-2.541,2.087,2.087,0,0,1,.367-.222.46.46,0,0,1,.147-.051,5.073,5.073,0,0,0-.475.325,2.419,2.419,0,0,0-.839,2.473C200.92,410.982,201.027,411.165,201.012,411.176Z" transform="translate(9233.74 14190.83)" fill="#fff"/>
      <path id="Path_34807-2" data-name="Path 34807" d="M204.758,430.122c-.013.022-.136-.031-.275-.117s-.24-.174-.228-.2.138.031.277.117A.609.609,0,0,1,204.758,430.122Z" transform="translate(9230.82 14172.892)" fill="#fff"/>
      <path id="Path_34808-2" data-name="Path 34808" d="M192.385,333.144a2.969,2.969,0,0,1-.354.046,6.152,6.152,0,0,0-.947.2A5.763,5.763,0,0,0,187,338.9v.356a.286.286,0,0,1-.015-.092c0-.061-.018-.149-.02-.264a5.1,5.1,0,0,1,.055-.977,5.569,5.569,0,0,1,4.049-4.589,5.058,5.058,0,0,1,.962-.184c.114-.013.2-.011.264-.013A.462.462,0,0,1,192.385,333.144Z" transform="translate(9244.941 14251.812)" fill="#fff"/>
      <path id="Path_34809-2" data-name="Path 34809" d="M186.45,370.421a1.652,1.652,0,0,1-.033-.551,1.632,1.632,0,0,1,.057-.551A3.221,3.221,0,0,1,186.45,370.421Z" transform="translate(9245.391 14222.271)" fill="#fff"/>
    </g>
    <g id="Group_24293" data-name="Group 24293" transform="translate(-42.055 -285.133)">
      <path id="Path_34799-3" data-name="Path 34799" d="M196.436,347.517l-2.019.868.136-11.978a3.022,3.022,0,0,0-.955-2.452,4.554,4.554,0,0,0-8.141,2.731l-.121,10.7-1.966-.022.195-11.2a6.917,6.917,0,0,1,1.984-4.233c5.47-4.334,11.067.143,11.014,4.879Z" transform="translate(9247.871 14254.226)" fill="#f5f5f5"/>
      <path id="Path_34800-3" data-name="Path 34800" d="M196.208,347.416v-.835c0-.551.011-1.349.018-2.386s.02-2.295.033-3.761q.011-1.1.022-2.344a13.671,13.671,0,0,0-.1-2.619,6.358,6.358,0,0,0-1.125-2.627c-.075-.1-.147-.2-.226-.3s-.169-.184-.253-.285a6.424,6.424,0,0,0-.551-.542c-.094-.09-.2-.162-.307-.244a2.5,2.5,0,0,0-.319-.233,6.184,6.184,0,0,0-.694-.4,6.648,6.648,0,0,0-1.546-.551l-.415-.068-.207-.035-.211-.013-.426-.028c-.143,0-.286.009-.43.015a6.438,6.438,0,0,0-3.319,1.1,6.507,6.507,0,0,0-2.337,2.834,6.858,6.858,0,0,0-.481,1.856c-.055.643-.04,1.305-.053,1.968-.029,2.656-.061,5.406-.092,8.224q0,.564-.013,1.123l-.046-.048,1.966.022-.046.046q.035-3.194.072-6.241.017-1.516.035-2.99,0-.734.017-1.459a5,5,0,0,1,.239-1.421,4.627,4.627,0,0,1,1.626-2.238,2.958,2.958,0,0,1,.281-.2l.294-.184a4.61,4.61,0,0,1,.619-.272,4.671,4.671,0,0,1,.644-.184c.108-.024.218-.033.327-.051l.163-.022h.165a4.638,4.638,0,0,1,1.285.108,4.906,4.906,0,0,1,1.178.45,4.681,4.681,0,0,1,2.2,2.719,4.809,4.809,0,0,1,.184,1.1,2.711,2.711,0,0,0,.009.273,2.644,2.644,0,0,1,0,.27v.532c0,.351,0,.7-.013,1.033-.018,1.351-.033,2.592-.048,3.712-.031,2.238-.055,3.989-.072,5.153l-.013-.013,1.483.024h.006l-1.491-.009h-.013v-.013c0-1.164.026-2.915.046-5.153.011-1.12.024-2.362.037-3.714,0-.338,0-.683.011-1.033v-.8l-.011-.27a4.321,4.321,0,0,0-.648-2.124,4.571,4.571,0,0,0-1.7-1.636,4.841,4.841,0,0,0-1.158-.441,4.569,4.569,0,0,0-1.268-.1h-.162l-.16.024c-.108.016-.217.026-.323.05a4.878,4.878,0,0,0-1.239.446l-.288.173a2.844,2.844,0,0,0-.275.184,4.534,4.534,0,0,0-1.6,2.2,4.87,4.87,0,0,0-.231,1.4q0,.723-.017,1.459-.017,1.469-.033,2.99c-.022,2.019-.046,4.106-.07,6.241v.046H185.1l-1.968-.022h-.046v-.046q0-.551.013-1.123c.033-2.816.064-5.566.1-8.224.013-.664,0-1.32.053-1.977a6.974,6.974,0,0,1,.49-1.88,7.115,7.115,0,0,1,.984-1.6,7.028,7.028,0,0,1,1.379-1.246,6.513,6.513,0,0,1,3.363-1.116c.145,0,.29-.017.435-.013l.494.029.272.031.411.068.184.04a6.414,6.414,0,0,1,1.469.54,6.03,6.03,0,0,1,.7.406c.116.068.215.16.321.237a3.333,3.333,0,0,1,.312.246,6.541,6.541,0,0,1,.551.551l.257.288c.079.1.151.206.226.308a6.406,6.406,0,0,1,1.133,2.656,14.325,14.325,0,0,1,.09,2.636c.006.83-.022,1.619-.031,2.353-.02,1.469-.039,2.731-.053,3.765s-.026,1.836-.035,2.375c0,.268,0,.475-.011.615A.569.569,0,0,0,196.208,347.416Z" transform="translate(9248.1 14254.327)" fill="#e0e0e0"/>
      <path id="Path_34801-3" data-name="Path 34801" d="M0,0H17.806a.687.687,0,0,1,.687.687V14.448a.624.624,0,0,1-.624.624H.007V0Z" transform="matrix(1, 0.011, -0.011, 1, 9428.995, 14594.602)" fill="#e0e0e0"/>
      <path id="Path_34802-3" data-name="Path 34802" d="M.745,0H16.4a.745.745,0,0,1,.745.745v13.4a.918.918,0,0,1-.918.918H.771A.771.771,0,0,1,0,14.292V.745A.745.745,0,0,1,.745,0Z" transform="translate(9428.25 14594.556) rotate(0.573)" fill="#f8f9fa"/>
      <path id="Path_34803-3" data-name="Path 34803" d="M207.144,410.694A2.1,2.1,0,0,0,205,408.568a2.126,2.126,0,0,0-2.061,2.061,2.094,2.094,0,0,0,1.505,2.049l-1.4,2.886,3.625.108-1.072-2.987A2.1,2.1,0,0,0,207.144,410.694Z" transform="translate(9231.896 14190.229)" fill="#e0e0e0"/>
      <path id="Path_34805-3" data-name="Path 34805" d="M192.481,388.839c0,.026-2.307.051-5.155.057s-5.156-.011-5.156-.037,2.307-.05,5.156-.055S192.481,388.809,192.481,388.839Z" transform="translate(9248.851 14206.364)" fill="#fff"/>
      <path id="Path_34806-3" data-name="Path 34806" d="M201.012,411.176a.474.474,0,0,1-.086-.132,2.147,2.147,0,0,1-.158-.4,2.359,2.359,0,0,1,.863-2.541,2.087,2.087,0,0,1,.367-.222.46.46,0,0,1,.147-.051,5.073,5.073,0,0,0-.475.325,2.419,2.419,0,0,0-.839,2.473C200.92,410.982,201.027,411.165,201.012,411.176Z" transform="translate(9233.74 14190.83)" fill="#fff"/>
      <path id="Path_34807-3" data-name="Path 34807" d="M204.758,430.122c-.013.022-.136-.031-.275-.117s-.24-.174-.228-.2.138.031.277.117A.609.609,0,0,1,204.758,430.122Z" transform="translate(9230.82 14172.892)" fill="#fff"/>
      <path id="Path_34808-3" data-name="Path 34808" d="M192.385,333.144a2.969,2.969,0,0,1-.354.046,6.152,6.152,0,0,0-.947.2A5.763,5.763,0,0,0,187,338.9v.356a.286.286,0,0,1-.015-.092c0-.061-.018-.149-.02-.264a5.1,5.1,0,0,1,.055-.977,5.569,5.569,0,0,1,4.049-4.589,5.058,5.058,0,0,1,.962-.184c.114-.013.2-.011.264-.013A.462.462,0,0,1,192.385,333.144Z" transform="translate(9244.941 14251.812)" fill="#fff"/>
      <path id="Path_34809-3" data-name="Path 34809" d="M186.45,370.421a1.652,1.652,0,0,1-.033-.551,1.632,1.632,0,0,1,.057-.551A3.221,3.221,0,0,1,186.45,370.421Z" transform="translate(9245.391 14222.271)" fill="#fff"/>
    </g>
    <rect id="Rectangle_6543" data-name="Rectangle 6543" width="125" height="125" rx="62.5" transform="translate(9449 14271)" fill="#fff"/>
    <g id="Group_24288" data-name="Group 24288" transform="translate(161.613 166)">
      <rect id="Rectangle_6536" data-name="Rectangle 6536" width="90" height="16" rx="1.45" transform="translate(9305.387 14154)" fill="#ebebeb"/>
      <g id="Group_24285" data-name="Group 24285" transform="translate(0 0.117)">
        <path id="Path_34823" data-name="Path 34823" d="M496.1,250.729c0,.789-.575,1.269-1.5,1.269h-.9v1.1h-.5V249.46h1.419C495.508,249.45,496.1,249.93,496.1,250.729Zm-.5,0c0-.5-.35-.819-1-.819h-.884v1.634h.884c.615-.01.964-.315.964-.814Z" transform="translate(8819.257 13910.654)" fill="#263238"/>
        <path id="Path_34824" data-name="Path 34824" d="M502.288,252.279v1.664h-.475v-.36a1.024,1.024,0,0,1-.9.4c-.625,0-1-.335-1-.814s.285-.8,1.109-.8h.789v-.1c0-.42-.245-.665-.74-.665a1.409,1.409,0,0,0-.874.295l-.2-.375a1.849,1.849,0,0,1,1.134-.35A1.014,1.014,0,0,1,502.288,252.279Zm-.5.824v-.385h-.769c-.5,0-.635.19-.635.425s.23.445.61.445a.8.8,0,0,0,.794-.5Z" transform="translate(8815.9 13909.799)" fill="#263238"/>
        <path id="Path_34825" data-name="Path 34825" d="M505.82,253.648l.2-.395a1.789,1.789,0,0,0,.969.285c.465,0,.655-.14.655-.375,0-.62-1.739-.08-1.739-1.179,0-.5.44-.824,1.149-.824a1.964,1.964,0,0,1,1,.25l-.21.395a1.414,1.414,0,0,0-.8-.22c-.435,0-.65.16-.65.38,0,.65,1.749.12,1.749,1.189,0,.5-.455.819-1.189.819A2,2,0,0,1,505.82,253.648Z" transform="translate(8812.943 13909.804)" fill="#263238"/>
        <path id="Path_34826" data-name="Path 34826" d="M511,253.648l.21-.395a1.759,1.759,0,0,0,.964.285c.465,0,.655-.14.655-.375,0-.62-1.739-.08-1.739-1.179,0-.5.44-.824,1.149-.824a2,2,0,0,1,1,.25l-.215.395a1.409,1.409,0,0,0-.794-.22c-.44,0-.655.16-.655.38,0,.65,1.749.12,1.749,1.189,0,.5-.455.819-1.189.819a2,2,0,0,1-1.134-.325Z" transform="translate(8810.352 13909.804)" fill="#263238"/>
        <path id="Path_34827" data-name="Path 34827" d="M520.587,251.21l-1.029,2.753h-.5l-.794-2.089-.764,2.089H517l-1-2.753h.475l.8,2.193.829-2.193h.395l.814,2.2.819-2.2Z" transform="translate(8807.85 13909.778)" fill="#263238"/>
        <path id="Path_34828" data-name="Path 34828" d="M525.519,252.539a1.434,1.434,0,1,1,1.434,1.409,1.369,1.369,0,0,1-1.434-1.409Zm2.358,0a.929.929,0,1,0-.924.969.9.9,0,0,0,.924-.969Z" transform="translate(8803.087 13909.843)" fill="#263238"/>
        <path id="Path_34829" data-name="Path 34829" d="M534.114,251.157v.5H534a.824.824,0,0,0-.869.934v1.369h-.5v-2.753h.5v.46a1.054,1.054,0,0,1,.984-.51Z" transform="translate(8799.528 13909.807)" fill="#263238"/>
        <path id="Path_34830" data-name="Path 34830" d="M539.172,249v3.857h-.5v-.435a1.179,1.179,0,0,1-1,.47,1.409,1.409,0,0,1,0-2.813,1.179,1.179,0,0,1,1,.42V249Zm-.5,2.5a.929.929,0,1,0-.929.969.909.909,0,0,0,.929-.969Z" transform="translate(8797.668 13910.884)" fill="#263238"/>
      </g>
    </g>
    <g id="Group_24287" data-name="Group 24287" transform="translate(161.522 166)">
      <rect id="Rectangle_6537" data-name="Rectangle 6537" width="90" height="16" rx="1.45" transform="translate(9305.478 14176.027)" fill="#ebebeb"/>
      <g id="Group_24286" data-name="Group 24286">
        <path id="Path_34831" data-name="Path 34831" d="M492.5,296.511a1.839,1.839,0,0,1,1.929-1.864,1.789,1.789,0,0,1,1.379.57l-.335.325a1.354,1.354,0,0,0-1.024-.43,1.4,1.4,0,1,0,0,2.8,1.344,1.344,0,0,0,1.024-.44l.335.33a1.794,1.794,0,0,1-1.384.57,1.839,1.839,0,0,1-1.924-1.859Z" transform="translate(8819.607 13888.045)" fill="#263238"/>
        <path id="Path_34832" data-name="Path 34832" d="M499.72,297.8a1.434,1.434,0,1,1,1.439,1.409,1.374,1.374,0,0,1-1.439-1.409Zm2.363,0a.929.929,0,1,0-.929.929A.929.929,0,0,0,502.083,297.8Z" transform="translate(8815.995 13887.197)" fill="#263238"/>
        <path id="Path_34833" data-name="Path 34833" d="M509.453,297.637v1.574h-.5v-1.5c0-.54-.27-.8-.739-.8a.814.814,0,0,0-.874.914v1.389h-.5v-2.753h.5v.415a1.179,1.179,0,0,1,1-.445,1.069,1.069,0,0,1,1.114,1.209Z" transform="translate(8812.433 13887.155)" fill="#263238"/>
        <path id="Path_34834" data-name="Path 34834" d="M514.509,294.19a.914.914,0,0,1,.56.16l-.15.38a.639.639,0,0,0-.385-.13c-.295,0-.445.165-.445.5v.24h.8v.41H514.1v2.318h-.5v-2.343h-.47v-.41h.47v-.245a.824.824,0,0,1,.909-.879Zm1.179.28a.33.33,0,0,1,.34-.33.325.325,0,1,1-.34.33Zm.09.854h.5v2.743h-.5Z" transform="translate(8809.285 13888.299)" fill="#263238"/>
        <path id="Path_34835" data-name="Path 34835" d="M522.809,296.444v.5h-.115a.819.819,0,0,0-.864.929v1.344h-.5v-2.753h.475v.46A1.059,1.059,0,0,1,522.809,296.444Z" transform="translate(8805.183 13887.148)" fill="#263238"/>
        <path id="Path_34836" data-name="Path 34836" d="M530.1,297.635v1.574h-.5v-1.5c0-.54-.26-.8-.715-.8a.819.819,0,0,0-.824.914v1.389h-.5v-1.5c0-.54-.26-.8-.715-.8a.819.819,0,0,0-.824.914v1.389h-.5v-2.753h.5v.41a1.1,1.1,0,0,1,.949-.44,1,1,0,0,1,.954.5,1.254,1.254,0,0,1,1.064-.5,1.059,1.059,0,0,1,1.109,1.209Z" transform="translate(8803.086 13887.156)" fill="#263238"/>
        <path id="Path_34837" data-name="Path 34837" d="M542.438,296c0,.789-.575,1.264-1.5,1.264h-.9v1.094h-.5V294.72h1.419C541.863,294.73,542.438,295.2,542.438,296Zm-.525,0c0-.5-.345-.819-1-.819h-.894v1.634h.884C541.569,296.814,541.913,296.519,541.913,296Z" transform="translate(8796.071 13888.008)" fill="#263238"/>
        <path id="Path_34838" data-name="Path 34838" d="M548.623,297.559v1.654h-.47v-.365a1.029,1.029,0,0,1-.9.395c-.625,0-1-.33-1-.809s.285-.8,1.1-.8h.769v-.1c0-.42-.24-.665-.734-.665a1.409,1.409,0,0,0-.874.295l-.21-.375a1.844,1.844,0,0,1,1.139-.355C548.214,296.439,548.623,296.8,548.623,297.559Zm-.5.819v-.385h-.769c-.5,0-.63.195-.63.43s.225.445.6.445A.789.789,0,0,0,548.124,298.378Z" transform="translate(8792.714 13887.153)" fill="#263238"/>
        <path id="Path_34839" data-name="Path 34839" d="M552.19,298.943l.2-.395a1.788,1.788,0,0,0,.969.285c.46,0,.655-.14.655-.375,0-.62-1.744-.085-1.744-1.179,0-.5.445-.829,1.149-.829a2,2,0,0,1,1,.25l-.215.395a1.444,1.444,0,0,0-.794-.215c-.435,0-.65.16-.65.38,0,.65,1.749.12,1.749,1.189,0,.5-.46.814-1.194.814A2,2,0,0,1,552.19,298.943Z" transform="translate(8789.742 13887.143)" fill="#263238"/>
        <path id="Path_34840" data-name="Path 34840" d="M557.4,298.943l.2-.395a1.789,1.789,0,0,0,.969.285c.46,0,.655-.14.655-.375,0-.62-1.744-.085-1.744-1.179,0-.5.445-.829,1.149-.829a2,2,0,0,1,1,.25l-.215.395a1.443,1.443,0,0,0-.794-.215c-.435,0-.65.16-.65.38,0,.65,1.749.12,1.749,1.189,0,.5-.46.814-1.194.814a2,2,0,0,1-1.129-.32Z" transform="translate(8787.135 13887.143)" fill="#263238"/>
        <path id="Path_34841" data-name="Path 34841" d="M566.932,296.5l-1.029,2.743h-.5l-.794-2.089-.789,2.089h-.5l-1-2.753h.47l.8,2.193.829-2.193h.42l.819,2.2.819-2.2Z" transform="translate(8784.673 13887.122)" fill="#263238"/>
        <path id="Path_34842" data-name="Path 34842" d="M571.889,297.8a1.434,1.434,0,1,1,1.434,1.409,1.369,1.369,0,0,1-1.434-1.409Zm2.358,0a.929.929,0,1,0-.929.929A.929.929,0,0,0,574.248,297.8Z" transform="translate(8779.886 13887.197)" fill="#263238"/>
        <path id="Path_34843" data-name="Path 34843" d="M580.514,296.445v.5H580.4a.82.82,0,0,0-.869.929v1.344h-.5v-2.753h.5v.46a1.054,1.054,0,0,1,.984-.48Z" transform="translate(8776.313 13887.146)" fill="#263238"/>
        <path id="Path_34844" data-name="Path 34844" d="M585.512,294.3v3.847h-.5v-.435a1.159,1.159,0,0,1-1,.465,1.409,1.409,0,0,1,0-2.813,1.154,1.154,0,0,1,.959.445v-1.5Zm-.5,2.5a.929.929,0,1,0-.924.974.9.9,0,0,0,.929-.994Z" transform="translate(8774.482 13888.218)" fill="#263238"/>
      </g>
    </g>
    <g id="Group_24290" data-name="Group 24290" transform="translate(147.79 215.611)">
      <path id="Path_34868" data-name="Path 34868" d="M564.422,86.638l-2.528-.525,3.2-15.395a3.376,3.376,0,0,0-.5-2.317c-4.029-5.577-10.582-3.312-11.587,1.507l-2.88,13.76-2.528-.528,3.229-15.494a5.513,5.513,0,0,1,2.857-3.773c8.141-4.2,14.972,2.326,13.58,9.011Z" transform="translate(8788.562 14004.174)" fill="#e0e0e0"/>
      <path id="Path_34869" data-name="Path 34869" d="M564.449,86.642s.016-.1.054-.275.09-.451.16-.8l.64-3.062c.275-1.328.608-2.95,1-4.835l.64-3.014a19.241,19.241,0,0,0,.541-3.4,8.346,8.346,0,0,0-.787-3.667c-.07-.147-.138-.3-.211-.448l-.256-.432a8.577,8.577,0,0,0-.573-.835c-.1-.141-.224-.262-.336-.394a3.593,3.593,0,0,0-.352-.381,7.824,7.824,0,0,0-.794-.691,8.576,8.576,0,0,0-1.85-1.1l-.515-.192-.291-.1-.269-.07-.541-.141c-.186-.042-.371-.061-.557-.093a8.485,8.485,0,0,0-9.356,5.91c-.234.816-.384,1.67-.566,2.522-.71,3.414-1.45,6.95-2.2,10.56-.1.483-.2.96-.3,1.443l-.048-.074,2.528.528-.07.048c.57-2.736,1.13-5.414,1.67-8q.406-1.949.8-3.84l.39-1.875a6.719,6.719,0,0,1,.666-1.773,6.115,6.115,0,0,1,2.662-2.47c.138-.061.269-.134.413-.182l.422-.147a6.343,6.343,0,0,1,.864-.2,6.228,6.228,0,0,1,.877-.07,3.3,3.3,0,0,1,.435.019h.214l.214.035a6.013,6.013,0,0,1,1.632.464,6.443,6.443,0,0,1,1.4.877,6.111,6.111,0,0,1,1.8,2.582,5.8,5.8,0,0,1,.3,2.944l-.058.355c-.022.115-.048.23-.07.346l-.144.685c-.1.451-.189.893-.278,1.328-.365,1.734-.7,3.331-1,4.768-.608,2.88-1.082,5.12-1.4,6.621l-.016-.022,1.92.406.467.1.154.035-.15-.029-.464-.09-1.92-.39h0v-.019l1.363-6.624c.3-1.44.64-3.037.989-4.774.09-.432.182-.877.275-1.328.045-.224.093-.454.141-.682.026-.115.048-.23.074-.349s.035-.234.054-.349a5.709,5.709,0,0,0-.3-2.9,6.009,6.009,0,0,0-1.779-2.538,6.352,6.352,0,0,0-1.382-.861,6.03,6.03,0,0,0-1.6-.454l-.211-.032h-.214a3.148,3.148,0,0,0-.426,0,6.147,6.147,0,0,0-1.709.262l-.416.147a3.771,3.771,0,0,0-.4.179,5.971,5.971,0,0,0-2.611,2.429,6.423,6.423,0,0,0-.64,1.738q-.192.931-.39,1.875-.393,1.891-.8,3.84l-1.667,8v.061h-.061l-2.528-.528h-.058v-.061c.1-.477.2-.96.3-1.443.755-3.619,1.491-7.155,2.2-10.56.182-.854.32-1.7.57-2.534a9.227,9.227,0,0,1,1.1-2.3,8.631,8.631,0,0,1,8.4-3.683c.189.032.378.054.563.093l.64.166.342.109.512.192.237.1a8.6,8.6,0,0,1,1.757,1.066,8.841,8.841,0,0,1,.8.7q.151.165.288.342c.112.134.237.256.336.4a8.658,8.658,0,0,1,.582.848l.256.435c.077.15.141.32.214.454a8.425,8.425,0,0,1,.784,3.709,17.945,17.945,0,0,1-.55,3.417c-.2,1.072-.438,2.08-.64,3.024-.4,1.885-.742,3.52-1.021,4.835s-.5,2.352-.64,3.05l-.17.79C564.471,86.556,564.449,86.642,564.449,86.642Z" transform="translate(8788.533 14004.17)" fill="#263238"/>
      <path id="Path_34870" data-name="Path 34870" d="M0,0H23.068a1.2,1.2,0,0,1,1.2,1.2V18.687a1.088,1.088,0,0,1-1.088,1.088H0V0Z" transform="translate(9335.069 14077.729) rotate(11.77)" fill="#455a64"/>
      <g id="Group_24281" data-name="Group 24281" transform="translate(9331.048 14077.747)" opacity="0.3">
        <path id="Path_34871" data-name="Path 34871" d="M0,0H22.946a1.318,1.318,0,0,1,1.318,1.318V18.566a1.21,1.21,0,0,1-1.21,1.21H0V0Z" transform="translate(4.034 0) rotate(11.77)"/>
      </g>
      <path id="Path_34872" data-name="Path 34872" d="M1.286,0h19.9a1.3,1.3,0,0,1,1.3,1.3V18.185a1.6,1.6,0,0,1-1.6,1.6H1.344A1.344,1.344,0,0,1,0,18.441V1.3A1.3,1.3,0,0,1,1.286,0Z" transform="translate(9334.003 14077.507) rotate(11.77)" fill="#455a64"/>
      <g id="Group_24282" data-name="Group 24282" transform="translate(9339.882 14085.102)" opacity="0.3">
        <path id="Path_34873" data-name="Path 34873" d="M565.751,123.3a2.762,2.762,0,0,0-2.221-3.283,2.8,2.8,0,0,0-3.181,2.134,2.755,2.755,0,0,0,1.424,3.021l-2.544,3.363,4.643,1.056-.64-4.112A2.752,2.752,0,0,0,565.751,123.3Z" transform="translate(-559.23 -119.983)"/>
      </g>
      <path id="Path_34874" data-name="Path 34874" d="M598.288,133.476c-.032,0,.659-3.379,1.542-7.533s1.629-7.52,1.661-7.513-.659,3.382-1.542,7.542S598.32,133.482,598.288,133.476Z" transform="translate(8754.094 13966.174)" fill="#263238"/>
      <path id="Path_34875" data-name="Path 34875" d="M565.136,103.643c0,.032-2.985-.522-6.653-1.235s-6.64-1.318-6.633-1.35,2.986.518,6.656,1.232S565.142,103.6,565.136,103.643Z" transform="translate(8785.671 13977.989)" fill="#fff"/>
      <path id="Path_34876" data-name="Path 34876" d="M561.1,122.782a.923.923,0,0,1-.077-.192,2.489,2.489,0,0,1-.1-.554,3.133,3.133,0,0,1,.4-1.8,3.165,3.165,0,0,1,1.354-1.254,2.837,2.837,0,0,1,.531-.192.64.64,0,0,1,.2-.029c0,.022-.285.08-.7.3A3.2,3.2,0,0,0,561,122.03C561.021,122.5,561.12,122.776,561.1,122.782Z" transform="translate(8779.511 13965.95)" fill="#fff"/>
      <path id="Path_34877" data-name="Path 34877" d="M562.8,134.837c-.022.026-.17-.074-.32-.221s-.266-.285-.243-.32.17.077.32.221A.9.9,0,0,1,562.8,134.837Z" transform="translate(8778.611 13955.39)" fill="#fff"/>
      <path id="Path_34878" data-name="Path 34878" d="M567.3,64.49s-.166,0-.467-.032a8.015,8.015,0,0,0-1.28.022,7.424,7.424,0,0,0-6.3,4.835,8,8,0,0,0-.349,1.222c-.058.294-.083.461-.093.461a.513.513,0,0,1,0-.122,1.221,1.221,0,0,1,.042-.349,6.964,6.964,0,0,1,.32-1.242,7.324,7.324,0,0,1,6.381-4.893,6.719,6.719,0,0,1,1.28.019,2.072,2.072,0,0,1,.346.048.438.438,0,0,1,.122.029Z" transform="translate(8780.939 14002.934)" fill="#fff"/>
      <path id="Path_34879" data-name="Path 34879" d="M557.148,88.555a4.383,4.383,0,0,1,.307-1.4,4.214,4.214,0,0,1-.307,1.4Z" transform="translate(8782.069 13987.444)" fill="#fff"/>
    </g>
    <g id="Group_24292" data-name="Group 24292" transform="translate(9423.787 14360.167)">
      <path id="Path_34868-2" data-name="Path 34868" d="M549.47,77.434l1.562-.324L549.054,67.6a2.086,2.086,0,0,1,.308-1.432c2.489-3.446,6.539-2.046,7.16.931l1.779,8.5,1.562-.326-2-9.574a3.407,3.407,0,0,0-1.766-2.331c-5.03-2.592-9.252,1.437-8.392,5.568Z" transform="translate(-545.853 -62.549)" fill="#e0e0e0"/>
      <path id="Path_34869-2" data-name="Path 34869" d="M549.543,77.439s-.01-.059-.034-.17-.055-.279-.1-.494l-.4-1.892c-.17-.821-.376-1.823-.615-2.988l-.4-1.863a11.889,11.889,0,0,1-.334-2.1,5.158,5.158,0,0,1,.486-2.266c.044-.091.085-.186.131-.277l.158-.267a5.3,5.3,0,0,1,.354-.516c.063-.087.138-.162.208-.243a2.223,2.223,0,0,1,.217-.235,4.836,4.836,0,0,1,.49-.427,5.3,5.3,0,0,1,1.143-.682l.318-.119.18-.059.166-.044.334-.087c.115-.026.229-.038.344-.057a5.243,5.243,0,0,1,5.781,3.652c.144.5.237,1.032.35,1.558.439,2.11.9,4.295,1.36,6.525.063.3.125.593.186.892l.03-.045-1.562.326.044.03c-.352-1.691-.7-3.346-1.032-4.943q-.251-1.2-.5-2.373l-.241-1.159a4.153,4.153,0,0,0-.411-1.1,3.779,3.779,0,0,0-1.645-1.526c-.085-.038-.166-.083-.255-.113l-.261-.091a3.918,3.918,0,0,0-.534-.121,3.848,3.848,0,0,0-.542-.044,2.044,2.044,0,0,0-.269.012h-.132l-.133.022a3.716,3.716,0,0,0-1.008.287,3.982,3.982,0,0,0-.864.542,3.776,3.776,0,0,0-1.113,1.6,3.581,3.581,0,0,0-.184,1.819l.036.219c.014.071.03.142.043.214l.089.423c.059.279.117.552.172.821.225,1.072.433,2.058.619,2.946.376,1.78.668,3.164.862,4.091l.01-.014-1.186.251-.289.063-.095.022.093-.018.287-.055,1.186-.241h0v-.012l-.842-4.093c-.184-.89-.4-1.876-.611-2.95-.055-.267-.113-.542-.17-.821-.028-.138-.057-.281-.087-.421-.016-.071-.03-.142-.045-.216s-.022-.144-.034-.216a3.527,3.527,0,0,1,.184-1.791,3.713,3.713,0,0,1,1.1-1.568,3.926,3.926,0,0,1,.854-.532,3.726,3.726,0,0,1,.989-.281l.13-.02h.133a1.945,1.945,0,0,1,.263,0,3.8,3.8,0,0,1,1.056.162l.257.091a2.326,2.326,0,0,1,.249.111,3.69,3.69,0,0,1,1.613,1.5,3.969,3.969,0,0,1,.4,1.074q.119.575.241,1.159l.494,2.373,1.03,4.943v.038h.038l1.562-.326h.036v-.038c-.061-.295-.123-.593-.186-.892-.467-2.236-.921-4.421-1.362-6.525-.113-.528-.2-1.052-.352-1.566a5.7,5.7,0,0,0-.682-1.42,5.333,5.333,0,0,0-5.188-2.276c-.117.02-.233.034-.348.057l-.4.1-.212.067-.316.119-.146.061a5.315,5.315,0,0,0-1.086.658,5.456,5.456,0,0,0-.494.433q-.094.1-.178.212c-.069.083-.146.158-.208.245a5.355,5.355,0,0,0-.36.524l-.158.269c-.047.093-.087.2-.133.281a5.206,5.206,0,0,0-.484,2.292,11.088,11.088,0,0,0,.34,2.112c.125.662.271,1.285.4,1.869.245,1.165.459,2.175.631,2.988s.308,1.453.4,1.884l.1.488C549.529,77.386,549.543,77.439,549.543,77.439Z" transform="translate(-545.926 -62.554)" fill="#263238"/>
      <path id="Path_34870-2" data-name="Path 34870" d="M0,12.219H14.254a.739.739,0,0,0,.739-.739V.672A.672.672,0,0,0,14.321,0H0V12.219Z" transform="matrix(-0.979, 0.204, -0.204, -0.979, 17.178, 18.764)" fill="#455a64"/>
      <g id="Group_24281-2" data-name="Group 24281" transform="translate(0 6.812)" opacity="0.3">
        <path id="Path_34871-2" data-name="Path 34871" d="M0,12.219H14.179a.815.815,0,0,0,.815-.815V.747A.747.747,0,0,0,14.246,0H0V12.219Z" transform="matrix(-0.979, 0.204, -0.204, -0.979, 17.171, 11.962)"/>
      </g>
      <path id="Path_34872-2" data-name="Path 34872" d="M.795,12.225H13.089a.8.8,0,0,0,.8-.8V.989A.989.989,0,0,0,12.9,0H.83A.83.83,0,0,0,0,.83V11.423a.8.8,0,0,0,.795.8Z" transform="matrix(-0.979, 0.204, -0.204, -0.979, 17.838, 18.632)" fill="#455a64"/>
      <g id="Group_24282-2" data-name="Group 24282" transform="translate(7.646 11.357)" opacity="0.3">
        <path id="Path_34873-2" data-name="Path 34873" d="M559.266,122.034a1.706,1.706,0,0,1,1.372-2.029,1.728,1.728,0,0,1,1.965,1.319,1.7,1.7,0,0,1-.88,1.867l1.572,2.078-2.869.652.4-2.541A1.7,1.7,0,0,1,559.266,122.034Z" transform="translate(-559.23 -119.983)"/>
      </g>
      <path id="Path_34874-2" data-name="Path 34874" d="M600.267,127.727c.02,0-.407-2.088-.953-4.654s-1.006-4.647-1.026-4.643.407,2.09.953,4.66S600.247,127.731,600.267,127.727Z" transform="translate(-596.278 -107.381)" fill="#263238"/>
      <path id="Path_34875-2" data-name="Path 34875" d="M551.85,102.654c0,.02,1.845-.322,4.111-.763s4.1-.815,4.1-.834-1.845.32-4.113.761S551.846,102.627,551.85,102.654Z" transform="translate(-546.889 -93.442)" fill="#fff"/>
      <path id="Path_34876-2" data-name="Path 34876" d="M562.336,121.245a.575.575,0,0,0,.047-.119,1.541,1.541,0,0,0,.063-.342,1.914,1.914,0,0,0-1.084-1.888,1.756,1.756,0,0,0-.328-.119.4.4,0,0,0-.127-.018c0,.014.176.049.431.184a1.977,1.977,0,0,1,1.054,1.837C562.383,121.069,562.322,121.241,562.336,121.245Z" transform="translate(-551.073 -107.645)" fill="#fff"/>
      <path id="Path_34877-2" data-name="Path 34877" d="M562.233,134.628c.014.016.1-.045.2-.136s.164-.176.15-.2-.1.047-.2.136A.558.558,0,0,0,562.233,134.628Z" transform="translate(-551.464 -120.104)" fill="#fff"/>
      <path id="Path_34878-2" data-name="Path 34878" d="M558.809,64.445s.1,0,.289-.02a4.952,4.952,0,0,1,.791.014,4.587,4.587,0,0,1,3.893,2.988,4.932,4.932,0,0,1,.215.755c.036.182.052.285.057.285a.309.309,0,0,0,0-.075.755.755,0,0,0-.026-.216,4.3,4.3,0,0,0-.2-.767,4.526,4.526,0,0,0-3.943-3.023,4.152,4.152,0,0,0-.791.012,1.282,1.282,0,0,0-.214.03.271.271,0,0,0-.075.018Z" transform="translate(-552.262 -64.012)" fill="#fff"/>
      <path id="Path_34879-2" data-name="Path 34879" d="M557.337,88.018a2.708,2.708,0,0,0-.19-.868,2.6,2.6,0,0,0,.19.868Z" transform="translate(-545.214 -82.286)" fill="#fff"/>
    </g>
    <g id="Group_24294" data-name="Group 24294" transform="translate(9775.296 14295.834)">
      <path id="Path_34868-3" data-name="Path 34868" d="M549.47,77.434l1.562-.324L549.054,67.6a2.086,2.086,0,0,1,.308-1.432c2.489-3.446,6.539-2.046,7.16.931l1.779,8.5,1.562-.326-2-9.574a3.407,3.407,0,0,0-1.766-2.331c-5.03-2.592-9.252,1.437-8.392,5.568Z" transform="translate(-545.853 -62.549)" fill="#e0e0e0"/>
      <path id="Path_34869-3" data-name="Path 34869" d="M549.543,77.439s-.01-.059-.034-.17-.055-.279-.1-.494l-.4-1.892c-.17-.821-.376-1.823-.615-2.988l-.4-1.863a11.889,11.889,0,0,1-.334-2.1,5.158,5.158,0,0,1,.486-2.266c.044-.091.085-.186.131-.277l.158-.267a5.3,5.3,0,0,1,.354-.516c.063-.087.138-.162.208-.243a2.223,2.223,0,0,1,.217-.235,4.836,4.836,0,0,1,.49-.427,5.3,5.3,0,0,1,1.143-.682l.318-.119.18-.059.166-.044.334-.087c.115-.026.229-.038.344-.057a5.243,5.243,0,0,1,5.781,3.652c.144.5.237,1.032.35,1.558.439,2.11.9,4.295,1.36,6.525.063.3.125.593.186.892l.03-.045-1.562.326.044.03c-.352-1.691-.7-3.346-1.032-4.943q-.251-1.2-.5-2.373l-.241-1.159a4.153,4.153,0,0,0-.411-1.1,3.779,3.779,0,0,0-1.645-1.526c-.085-.038-.166-.083-.255-.113l-.261-.091a3.918,3.918,0,0,0-.534-.121,3.848,3.848,0,0,0-.542-.044,2.044,2.044,0,0,0-.269.012h-.132l-.133.022a3.716,3.716,0,0,0-1.008.287,3.982,3.982,0,0,0-.864.542,3.776,3.776,0,0,0-1.113,1.6,3.581,3.581,0,0,0-.184,1.819l.036.219c.014.071.03.142.043.214l.089.423c.059.279.117.552.172.821.225,1.072.433,2.058.619,2.946.376,1.78.668,3.164.862,4.091l.01-.014-1.186.251-.289.063-.095.022.093-.018.287-.055,1.186-.241h0v-.012l-.842-4.093c-.184-.89-.4-1.876-.611-2.95-.055-.267-.113-.542-.17-.821-.028-.138-.057-.281-.087-.421-.016-.071-.03-.142-.045-.216s-.022-.144-.034-.216a3.527,3.527,0,0,1,.184-1.791,3.713,3.713,0,0,1,1.1-1.568,3.926,3.926,0,0,1,.854-.532,3.726,3.726,0,0,1,.989-.281l.13-.02h.133a1.945,1.945,0,0,1,.263,0,3.8,3.8,0,0,1,1.056.162l.257.091a2.326,2.326,0,0,1,.249.111,3.69,3.69,0,0,1,1.613,1.5,3.969,3.969,0,0,1,.4,1.074q.119.575.241,1.159l.494,2.373,1.03,4.943v.038h.038l1.562-.326h.036v-.038c-.061-.295-.123-.593-.186-.892-.467-2.236-.921-4.421-1.362-6.525-.113-.528-.2-1.052-.352-1.566a5.7,5.7,0,0,0-.682-1.42,5.333,5.333,0,0,0-5.188-2.276c-.117.02-.233.034-.348.057l-.4.1-.212.067-.316.119-.146.061a5.315,5.315,0,0,0-1.086.658,5.456,5.456,0,0,0-.494.433q-.094.1-.178.212c-.069.083-.146.158-.208.245a5.355,5.355,0,0,0-.36.524l-.158.269c-.047.093-.087.2-.133.281a5.206,5.206,0,0,0-.484,2.292,11.088,11.088,0,0,0,.34,2.112c.125.662.271,1.285.4,1.869.245,1.165.459,2.175.631,2.988s.308,1.453.4,1.884l.1.488C549.529,77.386,549.543,77.439,549.543,77.439Z" transform="translate(-545.926 -62.554)" fill="#263238"/>
      <path id="Path_34870-3" data-name="Path 34870" d="M0,12.219H14.254a.739.739,0,0,0,.739-.739V.672A.672.672,0,0,0,14.321,0H0V12.219Z" transform="matrix(-0.979, 0.204, -0.204, -0.979, 17.178, 18.764)" fill="#455a64"/>
      <g id="Group_24281-3" data-name="Group 24281" transform="translate(0 6.812)" opacity="0.3">
        <path id="Path_34871-3" data-name="Path 34871" d="M0,12.219H14.179a.815.815,0,0,0,.815-.815V.747A.747.747,0,0,0,14.246,0H0V12.219Z" transform="matrix(-0.979, 0.204, -0.204, -0.979, 17.171, 11.962)"/>
      </g>
      <path id="Path_34872-3" data-name="Path 34872" d="M.795,12.225H13.089a.8.8,0,0,0,.8-.8V.989A.989.989,0,0,0,12.9,0H.83A.83.83,0,0,0,0,.83V11.423a.8.8,0,0,0,.795.8Z" transform="matrix(-0.979, 0.204, -0.204, -0.979, 17.838, 18.632)" fill="#455a64"/>
      <g id="Group_24282-3" data-name="Group 24282" transform="translate(7.646 11.357)" opacity="0.3">
        <path id="Path_34873-3" data-name="Path 34873" d="M559.266,122.034a1.706,1.706,0,0,1,1.372-2.029,1.728,1.728,0,0,1,1.965,1.319,1.7,1.7,0,0,1-.88,1.867l1.572,2.078-2.869.652.4-2.541A1.7,1.7,0,0,1,559.266,122.034Z" transform="translate(-559.23 -119.983)"/>
      </g>
      <path id="Path_34874-3" data-name="Path 34874" d="M600.267,127.727c.02,0-.407-2.088-.953-4.654s-1.006-4.647-1.026-4.643.407,2.09.953,4.66S600.247,127.731,600.267,127.727Z" transform="translate(-596.278 -107.381)" fill="#263238"/>
      <path id="Path_34875-3" data-name="Path 34875" d="M551.85,102.654c0,.02,1.845-.322,4.111-.763s4.1-.815,4.1-.834-1.845.32-4.113.761S551.846,102.627,551.85,102.654Z" transform="translate(-546.889 -93.442)" fill="#fff"/>
      <path id="Path_34876-3" data-name="Path 34876" d="M562.336,121.245a.575.575,0,0,0,.047-.119,1.541,1.541,0,0,0,.063-.342,1.914,1.914,0,0,0-1.084-1.888,1.756,1.756,0,0,0-.328-.119.4.4,0,0,0-.127-.018c0,.014.176.049.431.184a1.977,1.977,0,0,1,1.054,1.837C562.383,121.069,562.322,121.241,562.336,121.245Z" transform="translate(-551.073 -107.645)" fill="#fff"/>
      <path id="Path_34877-3" data-name="Path 34877" d="M562.233,134.628c.014.016.1-.045.2-.136s.164-.176.15-.2-.1.047-.2.136A.558.558,0,0,0,562.233,134.628Z" transform="translate(-551.464 -120.104)" fill="#fff"/>
      <path id="Path_34878-3" data-name="Path 34878" d="M558.809,64.445s.1,0,.289-.02a4.952,4.952,0,0,1,.791.014,4.587,4.587,0,0,1,3.893,2.988,4.932,4.932,0,0,1,.215.755c.036.182.052.285.057.285a.309.309,0,0,0,0-.075.755.755,0,0,0-.026-.216,4.3,4.3,0,0,0-.2-.767,4.526,4.526,0,0,0-3.943-3.023,4.152,4.152,0,0,0-.791.012,1.282,1.282,0,0,0-.214.03.271.271,0,0,0-.075.018Z" transform="translate(-552.262 -64.012)" fill="#fff"/>
      <path id="Path_34879-3" data-name="Path 34879" d="M557.337,88.018a2.708,2.708,0,0,0-.19-.868,2.6,2.6,0,0,0,.19.868Z" transform="translate(-545.214 -82.286)" fill="#fff"/>
    </g>
    <text id="Login" transform="translate(9512 14310)" fill="#263238" font-size="11" font-family="ProximaNova-Semibold, Proxima Nova" font-weight="600"><tspan x="0" y="0">Login</tspan></text>
    <g id="Group_24289" data-name="Group 24289" transform="translate(161 166)">
      <rect id="Rectangle_6538" data-name="Rectangle 6538" width="90" height="16" rx="1.45" transform="translate(9306 14200)" fill="#ff725e"/>
      <text id="Submit" transform="translate(9342 14211)" fill="#f8f9fa" font-size="6" font-family="ProximaNova-Semibold, Proxima Nova" font-weight="600"><tspan x="0" y="0">Submit</tspan></text>
    </g>
  </g>
</svg>
