<svg xmlns="http://www.w3.org/2000/svg" xmlns:xlink="http://www.w3.org/1999/xlink" width="36" height="36" viewBox="0 0 36 36">
  <defs>
    <clipPath id="clip-path">
      <rect id="Rectangle_9352" data-name="Rectangle 9352" width="36" height="36" transform="translate(1343 1480)" fill="#fff"/>
    </clipPath>
    <linearGradient id="linear-gradient" x1="0.5" x2="0.5" y2="1.326" gradientUnits="objectBoundingBox">
      <stop offset="0" stop-color="#ffdc64"/>
      <stop offset="1" stop-color="#08ce73"/>
    </linearGradient>
    <linearGradient id="linear-gradient-2" x1="0.5" x2="0.5" y2="1.326" gradientUnits="objectBoundingBox">
      <stop offset="0" stop-color="#ffdc64"/>
      <stop offset="1" stop-color="#11f28a"/>
    </linearGradient>
  </defs>
  <g id="Payback_Points" data-name="Payback Points" transform="translate(-1343 -1480)" clip-path="url(#clip-path)">
    <g id="_002-bonus" data-name="002-bonus" transform="translate(1344.5 1480.236)">
      <g id="Group_28071" data-name="Group 28071" transform="translate(0 20.453)">
        <g id="Group_28070" data-name="Group 28070">
          <rect id="Rectangle_9350" data-name="Rectangle 9350" width="19.677" height="14.439" transform="translate(9.806 0)" fill="url(#linear-gradient)"/>
          <path id="Path_42197" data-name="Path 42197" d="M15.523,54.439H8V44.125L8.579,40h6.945Z" transform="translate(-5.106 -40)" fill="url(#linear-gradient-2)"/>
          <path id="Path_42198" data-name="Path 42198" d="M40.677,40l3.472,3.472H24.472L21,40Z" transform="translate(-11.194 -39.954)" fill="#08ce73"/>
          <path id="Path_42199" data-name="Path 42199" d="M6.472,40,3,43.472H9.945L13.417,40Z" transform="translate(-3 -39.954)" fill="#08ce73"/>
        </g>
        <rect id="Rectangle_9351" data-name="Rectangle 9351" width="33" height="1.5" transform="translate(0 13.81)" fill="#08b766"/>
      </g>
      <g id="Group_28072" data-name="Group 28072" transform="translate(1.5 0)">
        <path id="Path_42200" data-name="Path 42200" d="M53.6,17.813H51.1a.426.426,0,0,1-.406-.295l-.772-2.377a1.653,1.653,0,0,0-3.144,0l-.772,2.377a.426.426,0,0,1-.406.295h-2.5a1.654,1.654,0,0,0-.972,2.991l2.022,1.469a.426.426,0,0,1,.156.477l-.772,2.377a1.661,1.661,0,0,0,1.572,2.17,1.658,1.658,0,0,0,.972-.321l2.022-1.469a.426.426,0,0,1,.5,0l2.021,1.469a1.653,1.653,0,0,0,2.543-1.849L52.4,22.75a.423.423,0,0,1,.156-.477L54.575,20.8a1.654,1.654,0,0,0-.972-2.991Zm.25,2L51.832,21.28a1.65,1.65,0,0,0-.6,1.849L52,25.506a.427.427,0,0,1-.657.477l-2.022-1.469a1.651,1.651,0,0,0-1.943,0l-2.022,1.469a.427.427,0,0,1-.657-.477l.772-2.377a1.651,1.651,0,0,0-.6-1.849l-2.022-1.469a.426.426,0,0,1,.25-.771h2.5A1.649,1.649,0,0,0,47.172,17.9l.772-2.377a.42.42,0,0,1,.409-.3.415.415,0,0,1,.406.295l.772,2.377A1.649,1.649,0,0,0,51.1,19.039h2.5a.427.427,0,0,1,.25.772Z" transform="translate(-33.034 -14)" fill="#e71c37"/>
        <path id="Path_42201" data-name="Path 42201" d="M62,52.613v4.9a.613.613,0,1,0,1.226,0v-4.9a.613.613,0,1,0-1.226,0Z" transform="translate(-47.286 -38.853)" fill="#2699fb"/>
        <path id="Path_42202" data-name="Path 42202" d="M72.452,62h-.613A1.841,1.841,0,0,0,70,63.839v.613a.613.613,0,0,0,1.226,0v-.613a.614.614,0,0,1,.613-.613h.613a.613.613,0,1,0,0-1.226Z" transform="translate(-52.833 -45.787)" fill="#2699fb"/>
        <path id="Path_42203" data-name="Path 42203" d="M50.452,65.065a.613.613,0,0,0,.613-.613v-.613A1.841,1.841,0,0,0,49.226,62h-.613a.613.613,0,1,0,0,1.226h.613a.614.614,0,0,1,.613.613v.613A.613.613,0,0,0,50.452,65.065Z" transform="translate(-37.577 -45.787)" fill="#2699fb"/>
        <path id="Path_42204" data-name="Path 42204" d="M86.015,45.72a1.209,1.209,0,0,0,1.019,1.019l1.455.23.231,1.455a1.208,1.208,0,0,0,1.019,1.019,1.276,1.276,0,0,0,.2.016,1.2,1.2,0,0,0,1.084-.67l.669-1.312,1.455.231a1.226,1.226,0,0,0,1.06-2.077l-1.042-1.042.669-1.312a1.226,1.226,0,0,0-1.649-1.649l-1.312.669-1.042-1.042a1.227,1.227,0,0,0-2.078,1.06l.231,1.455-1.312.669a1.2,1.2,0,0,0-.657,1.282Zm2.523-.861a1.224,1.224,0,0,0,.655-1.285l-.231-1.455L90,43.161a1.224,1.224,0,0,0,1.424.225l1.316-.675,0,.007-.669,1.313a1.224,1.224,0,0,0,.225,1.424L93.336,46.5l-1.455-.231a1.23,1.23,0,0,0-1.284.654l-.669,1.312L89.7,46.777a1.221,1.221,0,0,0-1.019-1.019l-1.454-.23Z" transform="translate(-63.928 -32.649)" fill="rgba(252,128,25,0.5)"/>
        <path id="Path_42205" data-name="Path 42205" d="M14.131,47.048a1.21,1.21,0,0,0,1.285.655l1.455-.231.669,1.312a1.2,1.2,0,0,0,1.084.671,1.277,1.277,0,0,0,.2-.016,1.209,1.209,0,0,0,1.019-1.019l.231-1.455,1.455-.231a1.226,1.226,0,0,0,.365-2.3l-1.312-.669.231-1.455a1.227,1.227,0,0,0-2.079-1.06l-1.042,1.042-1.312-.669a1.226,1.226,0,0,0-1.649,1.649l.669,1.312L14.36,45.622a1.209,1.209,0,0,0-.229,1.426Zm2.135-1.6a1.224,1.224,0,0,0,.225-1.424l-.668-1.312,1.312.669a1.222,1.222,0,0,0,1.424-.225L19.6,42.117l-.231,1.455a1.223,1.223,0,0,0,.654,1.285l1.312.669-1.455.231a1.225,1.225,0,0,0-1.019,1.019l-.23,1.455-.669-1.313a1.223,1.223,0,0,0-1.091-.669,1.316,1.316,0,0,0-.193.014l-1.455.231Z" transform="translate(-13.994 -32.645)" fill="rgba(252,128,25,0.5)"/>
        <path id="Path_42206" data-name="Path 42206" d="M32,7.573V7H31v.573a1.422,1.422,0,0,0-.211,2.631l.974.487a.427.427,0,0,1-.191.809h-.146A.428.428,0,0,1,31,11.073V11H30v.073a1.424,1.424,0,0,0,1,1.354V13h1v-.573A1.422,1.422,0,0,0,32.211,9.8l-.975-.487a.427.427,0,0,1,.19-.809h.146A.428.428,0,0,1,32,8.927V9h1V8.927A1.425,1.425,0,0,0,32,7.573Z" transform="translate(-16.173 -3.352)" fill="#e71c37"/>
      </g>
    </g>
  </g>
</svg>
