<svg xmlns="http://www.w3.org/2000/svg" width="106.026" height="130.001" viewBox="0 0 106.026 130.001">
  <g id="freepik--Padlock--inject-91" transform="translate(-528.192 -62.549)">
    <path id="Path_34868" data-name="Path 34868" d="M609.493,151.18l-9.3-1.931,11.773-56.642a12.421,12.421,0,0,0-1.837-8.524C595.306,63.563,571.194,71.9,567.5,89.629l-10.6,50.626-9.3-1.943,11.879-57.007a20.285,20.285,0,0,1,10.514-13.881c29.952-15.435,55.088,8.559,49.966,33.154Z" transform="translate(3.141)" fill="#e0e0e0"/>
    <path id="Path_34869" data-name="Path 34869" d="M609.486,151.179s.059-.353.2-1.013.33-1.66.589-2.943l2.355-11.267c1.013-4.886,2.237-10.855,3.661-17.79l2.355-11.091c.73-3.932,1.943-8.053,1.99-12.5a30.7,30.7,0,0,0-2.9-13.492c-.259-.542-.506-1.107-.777-1.648l-.942-1.589a31.561,31.561,0,0,0-2.107-3.073c-.377-.518-.824-.965-1.236-1.448a13.219,13.219,0,0,0-1.3-1.4,28.773,28.773,0,0,0-2.92-2.543,31.55,31.55,0,0,0-6.805-4.062l-1.9-.706-1.071-.353L597.7,64l-1.99-.518c-.683-.153-1.366-.224-2.049-.341a31.22,31.22,0,0,0-34.425,21.746c-.859,3-1.413,6.146-2.084,9.277-2.614,12.562-5.333,25.572-8.1,38.852-.377,1.778-.742,3.532-1.107,5.31l-.177-.271,9.3,1.943-.259.177c2.1-10.066,4.156-19.921,6.146-29.434q1.5-7.17,2.955-14.128l1.436-6.9a24.722,24.722,0,0,1,2.449-6.522,22.5,22.5,0,0,1,9.8-9.089c.506-.224.989-.494,1.519-.671l1.554-.542a23.337,23.337,0,0,1,3.179-.718,22.912,22.912,0,0,1,3.226-.259,12.15,12.15,0,0,1,1.6.071h.789l.789.13a22.123,22.123,0,0,1,6,1.707,23.7,23.7,0,0,1,5.145,3.226,22.487,22.487,0,0,1,6.628,9.5,21.322,21.322,0,0,1,1.095,10.832l-.212,1.307c-.082.424-.177.848-.259,1.272l-.53,2.52c-.353,1.66-.695,3.285-1.024,4.886-1.342,6.381-2.578,12.256-3.685,17.542-2.237,10.6-3.979,18.837-5.133,24.359l-.059-.082,7.064,1.5,1.719.377.565.13-.553-.106-1.707-.33-7.064-1.436h0v-.071l5.016-24.371c1.095-5.3,2.355-11.173,3.638-17.566.33-1.589.671-3.226,1.013-4.886.165-.824.341-1.672.518-2.508.094-.424.177-.848.271-1.283s.13-.859.2-1.283A21,21,0,0,0,609.8,86.673a22.11,22.11,0,0,0-6.546-9.336,23.369,23.369,0,0,0-5.086-3.167,22.181,22.181,0,0,0-5.887-1.672l-.777-.118h-.789a11.585,11.585,0,0,0-1.566,0,22.617,22.617,0,0,0-6.287.965l-1.531.542a13.887,13.887,0,0,0-1.483.659,21.969,21.969,0,0,0-9.607,8.936,23.628,23.628,0,0,0-2.355,6.393q-.706,3.426-1.436,6.9-1.448,6.958-2.943,14.128l-6.134,29.434v.224h-.224l-9.3-1.943h-.212v-.224c.365-1.754.73-3.532,1.107-5.31,2.779-13.316,5.486-26.325,8.112-38.852.671-3.144,1.177-6.263,2.1-9.325a33.946,33.946,0,0,1,4.062-8.453A31.757,31.757,0,0,1,593.91,62.9c.695.118,1.389.2,2.072.341l2.355.612,1.26.4,1.884.706.871.365a31.649,31.649,0,0,1,6.464,3.921,32.479,32.479,0,0,1,2.943,2.578q.557.606,1.06,1.26c.412.494.871.942,1.236,1.46a31.9,31.9,0,0,1,2.143,3.12l.942,1.6c.283.553.518,1.177.789,1.672a31,31,0,0,1,2.884,13.645c0,4.5-1.283,8.63-2.025,12.574s-1.613,7.653-2.355,11.126c-1.46,6.935-2.731,12.951-3.756,17.79s-1.837,8.653-2.355,11.22L609.7,150.2C609.568,150.862,609.486,151.179,609.486,151.179Z" transform="translate(3.148 0.001)" fill="#263238"/>
    <path id="Path_34870" data-name="Path 34870" d="M0,0,84.643.048a4.4,4.4,0,0,1,4.394,4.405L89.073,68.8a3.992,3.992,0,0,1-3.99,4L.041,72.751,0,0Z" transform="translate(546.975 103.045) rotate(11.77)" fill="#455a64"/>
    <g id="Group_24281" data-name="Group 24281" transform="translate(532.181 103.112)" opacity="0.3">
      <path id="Path_34871" data-name="Path 34871" d="M0,0,84.2.048A4.85,4.85,0,0,1,89.037,4.9l.036,63.451A4.438,4.438,0,0,1,84.637,72.8l-84.6-.048L0,0Z" transform="translate(14.837 0) rotate(11.77)"/>
    </g>
    <path id="Path_34872" data-name="Path 34872" d="M4.717,0,77.711.045A4.78,4.78,0,0,1,82.48,4.827l.038,62.12a5.869,5.869,0,0,1-5.866,5.882L4.973,72.787A4.945,4.945,0,0,1,.039,67.839L0,4.777A4.766,4.766,0,0,1,4.717,0Z" transform="translate(543.048 102.232) rotate(11.77)" fill="#455a64"/>
    <g id="Group_24282" data-name="Group 24282" transform="translate(564.596 130.168)" opacity="0.3">
      <path id="Path_34873" data-name="Path 34873" d="M583.224,132.2a10.16,10.16,0,0,0-8.171-12.08,10.29,10.29,0,0,0-11.7,7.853,10.137,10.137,0,0,0,5.239,11.114l-9.36,12.374,17.083,3.885-2.355-15.129A10.125,10.125,0,0,0,583.224,132.2Z" transform="translate(-559.23 -119.983)"/>
    </g>
    <path id="Path_34874" data-name="Path 34874" d="M598.291,173.789c-.118,0,2.425-12.433,5.675-27.715s5.993-27.668,6.11-27.644-2.425,12.444-5.675,27.75S598.408,173.812,598.291,173.789Z" transform="translate(12.13 9.91)" fill="#263238"/>
    <path id="Path_34875" data-name="Path 34875" d="M600.733,110.574c0,.118-10.985-1.919-24.477-4.545s-24.43-4.851-24.406-4.968,10.985,1.907,24.489,4.533S600.757,110.409,600.733,110.574Z" transform="translate(4.045 6.829)" fill="#fff"/>
    <path id="Path_34876" data-name="Path 34876" d="M561.6,133.559a3.4,3.4,0,0,1-.283-.706,9.14,9.14,0,0,1-.377-2.037,11.525,11.525,0,0,1,1.472-6.628,11.644,11.644,0,0,1,4.98-4.615,10.444,10.444,0,0,1,1.954-.706,2.355,2.355,0,0,1,.754-.106c0,.082-1.048.294-2.567,1.095a11.774,11.774,0,0,0-6.275,10.938C561.322,132.511,561.687,133.536,561.6,133.559Z" transform="translate(5.677 9.968)" fill="#fff"/>
    <path id="Path_34877" data-name="Path 34877" d="M564.314,136.3c-.082.094-.624-.271-1.177-.812s-.977-1.048-.895-1.177.624.283,1.177.812A3.32,3.32,0,0,1,564.314,136.3Z" transform="translate(5.915 12.723)" fill="#fff"/>
    <path id="Path_34878" data-name="Path 34878" d="M590.057,64.805s-.612,0-1.719-.118a29.493,29.493,0,0,0-4.709.082,27.314,27.314,0,0,0-23.182,17.79,29.427,29.427,0,0,0-1.283,4.5c-.212,1.083-.306,1.7-.341,1.7a1.885,1.885,0,0,1,0-.447,4.5,4.5,0,0,1,.153-1.283,25.617,25.617,0,0,1,1.177-4.568,26.949,26.949,0,0,1,23.476-18,24.725,24.725,0,0,1,4.709.071,7.627,7.627,0,0,1,1.272.177,1.614,1.614,0,0,1,.447.106Z" transform="translate(5.281 0.323)" fill="#fff"/>
    <path id="Path_34879" data-name="Path 34879" d="M557.151,92.319a8.041,8.041,0,0,1,.353-2.637,8.019,8.019,0,0,1,.777-2.531,7.807,7.807,0,0,1-.341,2.625,7.862,7.862,0,0,1-.789,2.543Z" transform="translate(5.031 4.363)" fill="#fff"/>
  </g>
</svg>
