<svg xmlns="http://www.w3.org/2000/svg" width="24" height="24" viewBox="0 0 24 24"><defs><style>.a{fill:none;}.b{fill:#08ce73;}</style></defs><g transform="translate(7028 -10189)"><rect class="a" width="24" height="24" transform="translate(-7028 10189)"/><g transform="translate(-7028 10190)"><path class="b" d="M21.469,0H5.95A2.433,2.433,0,0,0,3.507,2.415l-.1,13.665H.379a.394.394,0,0,0-.379.4v1.881a3.3,3.3,0,0,0,3.109,3.279v.023H16.178v-.025c.1,0,.156.025.223.025h.009a3.285,3.285,0,0,0,3.266-3.3V6.413h3.945A.4.4,0,0,0,24,6V2.553A2.549,2.549,0,0,0,21.469,0ZM3.279,20.891h0a2.519,2.519,0,0,1-2.5-2.525V16.858h12.34v1.5a3.29,3.29,0,0,0,.96,2.334,1.4,1.4,0,0,1,.2.2ZM18.9,18.365a2.51,2.51,0,0,1-2.489,2.525H16.4a2.525,2.525,0,0,1-2.507-2.531V16.485a.4.4,0,0,0-.389-.4H4.185l.1-13.663A1.656,1.656,0,0,1,5.95.777H19.634A2.652,2.652,0,0,0,18.9,2.564ZM23.223,2.56V5.636H19.676V2.563A1.8,1.8,0,0,1,21.458.777h.011a1.772,1.772,0,0,1,1.754,1.78Zm0,0"/><path class="b" d="M164.2,60.542l2.005,1.371a.383.383,0,0,0,.435,0l2-1.37a3.02,3.02,0,0,0,1.207-2.3V55.465a.38.38,0,0,0-.207-.349l-3.053-1.5a.382.382,0,0,0-.34,0l-3.047,1.5a.379.379,0,0,0-.207.349v2.778A3.021,3.021,0,0,0,164.2,60.542Zm-.43-4.839,2.649-1.307,2.649,1.311v2.531A2.241,2.241,0,0,1,168.2,59.9l-1.786,1.221L164.641,59.9a2.24,2.24,0,0,1-.866-1.661Zm0,0" transform="translate(-155.08 -50.97)"/><path class="b" d="M202.437,118.34a.388.388,0,0,0,.275.117h0a.389.389,0,0,0,.275-.115l1.547-1.548a.389.389,0,1,0-.55-.551l-1.271,1.271-.508-.513a.389.389,0,0,0-.553.548Zm0,0" transform="translate(-191.75 -110.488)"/><path class="b" d="M142.723,248h-9.334a.389.389,0,0,0,0,.778h9.334a.389.389,0,0,0,0-.778Zm0,0" transform="translate(-126.541 -235.952)"/><path class="b" d="M142.723,285h-9.334a.389.389,0,1,0,0,.778h9.334a.389.389,0,1,0,0-.778Zm0,0" transform="translate(-126.541 -271.154)"/></g></g></svg>