<svg xmlns="http://www.w3.org/2000/svg" xmlns:xlink="http://www.w3.org/1999/xlink" width="654.826" height="240.429" viewBox="0 0 654.826 240.429"><defs><style>.a,.an{fill:#f5f5f5;}.a{opacity:0.361;}.b{fill:#f2f2f2;opacity:0.275;}.c{fill:#edeaf5;}.d{fill:#d5e5dd;}.e{fill:#fff;}.f{fill:#a9b4af;}.g{fill:#e71c37;}.h{fill:#c6d8cf;}.i{fill:#ede7f3;}.j{fill:#dad0e5;}.k{fill:none;}.l{fill:#b9c2bd;}.m{fill:#d1d1d1;}.n{fill:#ddd;}.o{fill:#dceae4;}.p{fill:#f1d98d;}.q{fill:#efb500;}.r{fill:#ea8401;}.s{fill:#f5ba95;}.t{fill:#343a40;}.u{fill:#ff3550;}.v{fill:#7a5da2;}.w{fill:url(#a);}.x{fill:#08ce73;}.y{fill:#0bb768;}.z{fill:#f6bb96;}.aa{fill:#f19d89;}.ab{fill:#322253;}.ac{fill:#402f6d;}.ad{fill:#fdcbab;}.ae{fill:#e20613;}.af{fill:#ac94c6;}.ag{fill:#7a5ca2;}.ah{fill:url(#b);}.ai{fill:#fc3550;}.aj{fill:#ea1c37;}.ak{fill:#ffec00;}.al{fill:#302452;}.am{fill:#f1b600;}.ao{fill:#dbdbdb;}</style><linearGradient id="a" x1="-0.327" y1="0.159" x2="0.761" y2="0.681" gradientUnits="objectBoundingBox"><stop offset="0" stop-color="#ab93c5"/><stop offset="0.033" stop-color="#af99c9"/><stop offset="0.156" stop-color="#bcabd3"/><stop offset="0.305" stop-color="#c5b7da"/><stop offset="0.508" stop-color="#cabede"/><stop offset="1" stop-color="#cbc0df"/></linearGradient><linearGradient id="b" y1="0.5" x2="1" y2="0.5" gradientUnits="objectBoundingBox"><stop offset="0" stop-color="#ac94c6"/><stop offset="1" stop-color="#ccc1e0"/></linearGradient></defs><g transform="translate(-0.004)"><path class="a" d="M705.144,269.52H80.049c-.563-13.479-3.707-23.563-4.27-37.042-.211-5.084-.342-10.51,2.312-14.853,5.53-9.052,19.37-7.906,28.566-2.617s16.957,13.556,27.269,16.032c18.4,4.42,36.227-12.416,40.825-30.768,2.969-11.85,2.141-24.411,5.218-36.234s12.034-23.7,24.25-24c19.508-.466,32.926,27.829,51.811,22.9,10.117-2.641,15.255-13.817,17.721-23.978,5.362-22.092,4.648-45.46,11.5-67.139,2.41-7.621,6.123-15.406,12.969-19.531,11.605-6.994,27.34-.208,35.554,10.567s11.254,24.474,15.9,37.2a146.219,146.219,0,0,0,38.865,57.793c13.995,12.7,31.84,22.993,50.7,21.73,24.944-1.672,44.25-22.812,55.939-44.907S514,87.852,529.307,68.086c10.49-13.546,26.8-24.843,43.68-21.937,22.671,3.9,33.67,30.195,35.932,53.087,2.46,24.876-.529,49.924-3.033,74.794-1.29,12.815-2.306,26.452,3.579,37.906s21.395,18.918,32.112,11.78c7.7-5.127,10.583-15.858,18.824-20.064,7.463-3.814,16.967-.657,22.946,5.221s9.223,13.911,12.309,21.706C700.727,243.364,700.077,256.735,705.144,269.52Z" transform="translate(-50.314 -30.377)"/><path class="b" d="M61.66,270.838l602.869.509c-4.836-21.82-4.913-43.359-9.749-65.179-1.722-7.775-3.576-15.831-8.469-22.115s-13.767-10.225-21.029-6.961c-5.409,2.43-8.559,8.026-11.311,13.281-4.42,8.435-9.035,17.219-16.733,22.822s-19.478,6.867-26.247.168c-2.919-2.889-4.531-6.806-6.126-10.593A423.916,423.916,0,0,0,496.467,92c-5.134-6-10.959-12.175-18.677-13.847-10.61-2.3-21.284,4.923-27.219,14.018s-8.479,19.913-12.5,30c-8.616,21.612-29.092,42.052-52,38-19.762-3.492-33.2-23.7-52.873-27.681-31.5-6.371-60.453,31.308-91.436,22.762-19.628-5.416-29.431-26.562-40.074-43.922A172.959,172.959,0,0,0,147.52,56.183c-11.264-7.188-26.911-12.755-37.109-4.122-8.11,6.867-8.241,19.072-8.02,29.7.369,17.691-.194,35.828-6.6,52.323s-19.7,31.254-36.975,35.081c-4.672,1.036-9.749,1.357-13.586,4.213-2.956,2.2-4.745,5.627-6.039,9.079C28.58,210.78,42.29,247.611,61.66,270.838Z" transform="translate(-23.597 -31.695)"/><g transform="translate(64.286)"><g transform="translate(29.24 36.053)"><path class="c" d="M339.024,206.422a173.962,173.962,0,0,1-59.954-98.494l1.659-.349A172.289,172.289,0,0,0,340.1,205.112Z" transform="translate(-279.07 -107.58)"/></g><path class="d" d="M241.2,269.4a38.137,38.137,0,0,1,39.833,5.57c-6.056,4.745-13.723,7.768-21.384,7.048S245.305,275.91,241.2,269.4Z" transform="translate(-224.651 -176.943)"/><path class="d" d="M308.678,125.505A38.132,38.132,0,0,1,324.1,88.36c3.07,7.054,4.062,15.238,1.438,22.47S316.01,123.17,308.678,125.505Z" transform="translate(-269.156 -58.748)"/><path class="d" d="M191.82,175.622a38.137,38.137,0,0,1,39.833,5.57c-6.056,4.745-13.723,7.768-21.384,7.048S195.925,182.13,191.82,175.622Z" transform="translate(-191.82 -114.592)"/><path class="d" d="M358.058,219.275A38.132,38.132,0,0,1,373.48,182.13c3.07,7.054,4.062,15.238,1.438,22.47S365.39,216.943,358.058,219.275Z" transform="translate(-301.988 -121.093)"/><path class="d" d="M431.728,306.025A38.132,38.132,0,0,1,447.15,268.88c3.07,7.054,4.062,15.238,1.438,22.47S439.057,303.69,431.728,306.025Z" transform="translate(-350.969 -178.771)"/><path class="d" d="M314.86,356.142a38.137,38.137,0,0,1,39.833,5.57c-6.056,4.745-13.723,7.768-21.384,7.048S318.965,362.65,314.86,356.142Z" transform="translate(-273.626 -234.615)"/><path class="d" d="M264.213,39.072C259.039,34.3,246.9,20.054,262.967,0a28.022,28.022,0,0,1,10.7,24.082C273.3,29.618,268.919,36.13,264.213,39.072Z" transform="translate(-233.784)"/></g><g transform="translate(0.004 80.319)"><path class="d" d="M208,329.067c-.657-7.088-1.944-15.225-8.046-18.888-2.611-1.565-5.711-2.021-8.609-2.946a27.442,27.442,0,0,1-17.571-17.742c-1.914-6.21-2.232-14.035-7.936-17.145-2.929-1.6-6.622-1.418-9.437-3.2-3.066-1.947-4.343-5.7-5.53-9.132-2.118-6.136-4.786-12.406-9.782-16.552s-12.946-5.4-17.876-1.173c-3.291,2.822-4.574,7.49-4.129,11.8s2.4,8.328,4.692,12.008c1.642,2.641,3.515,5.261,4.092,8.321,1.414,7.5-5.349,14.581-4.484,22.165,1.173,10.319,14.819,14.307,19.2,23.727,2.316,4.98,1.93,11.317,5.764,15.252,4.4,4.514,12.028,3.509,17.433,6.753a21.62,21.62,0,0,1,6.022,6.1c.466-.194.938-.375,1.414-.533a21.151,21.151,0,0,1,5.57-1.129,21.391,21.391,0,0,1,5.52.5,33.378,33.378,0,0,1,17.189,9.97,40.966,40.966,0,0,1,6.391,9.119C214.29,354.628,215.758,339.912,208,329.067Z" transform="translate(-79.118 -239.669)"/><path class="d" d="M289.044,559.619a21.387,21.387,0,0,0-5.52-.5,21.152,21.152,0,0,0-5.57,1.129c-.473.158-.948.339-1.414.533.687.938,1.361,1.89,2.048,2.815,7.862,10.563,21.1,18.727,33.851,15.449.064-.114.121-.231.181-.349a41.121,41.121,0,0,0-6.391-9.119A33.389,33.389,0,0,0,289.044,559.619Z" transform="translate(-183.865 -452.05)"/><path class="d" d="M133.085,529.15c-2.557,5.962-5.573,11.857-10.1,16.505s-10.781,7.943-17.262,7.668c-6.334-.268-12.128-3.884-16.5-8.469-2.1-2.205-4.256-4.819-7.279-5.191-3.482-.429-6.6,2.333-10.094,2.627-9.018.764-12.8-13.821-21.827-14.474-2.443-.178-4.816.761-7.235,1.129a16.06,16.06,0,0,1-14.776-5.871c-3.794-4.863-4.631-11.79-9.236-15.892-2.162-1.924-4.926-3-7.393-4.514A24.375,24.375,0,0,1,.12,479.906c.412-4.011,2.52-8.492,6.491-9.186,2.49-.436,4.953.774,7.111,2.088a56.745,56.745,0,0,1,17.427,16.612,14.014,14.014,0,0,0,3.656,4.229c4.387,2.818,9.963-.633,15.144-1.233,7.56-.878,14.451,4.675,18.707,10.982,2.255,3.341,4.424,7.282,8.284,8.449,5.318,1.612,10.319-2.862,15.473-4.933a19.077,19.077,0,0,1,21.341,5.546c6.676,8.254,18.673,8.117,26.331,15.473.211.2.546.416.767.218S132.937,528.9,133.085,529.15Z" transform="translate(-0.004 -393.229)"/><g transform="translate(51.003 17.909)"><g transform="translate(2.847)"><path class="e" d="M227.05,382.708a.582.582,0,0,1-.091-.047,165.764,165.764,0,0,1-66.251-88.936.479.479,0,0,1,.918-.275,164.787,164.787,0,0,0,65.859,88.416.476.476,0,0,1-.436.841Z" transform="translate(-160.688 -293.108)"/></g><g transform="translate(0 5.56)"><path class="e" d="M163.748,326.465l-.529-.245a118.085,118.085,0,0,1-10.791-5.717.479.479,0,0,1,.493-.821c3.288,1.964,6.706,3.787,10.174,5.422.576-2.376,1.136-4.8,1.7-7.215.607-2.627,1.217-5.255,1.843-7.825a.48.48,0,0,1,.932.228c-.627,2.567-1.233,5.191-1.84,7.815s-1.21,5.231-1.836,7.8Z" transform="translate(-152.194 -309.698)"/></g><g transform="translate(0.589 18.337)"><path class="e" d="M154.256,365.4a.48.48,0,0,1,.3-.912l20.523,5.4,5.533-21.7a.479.479,0,1,1,.928.238l-5.771,22.634-21.458-5.644A.252.252,0,0,1,154.256,365.4Z" transform="translate(-153.951 -347.823)"/></g><g transform="translate(15.353 36.651)"><path class="e" d="M198.313,423.3a.479.479,0,0,1,.2-.925L217,423.5l5.308-20.664a.481.481,0,0,1,.583-.345.475.475,0,0,1,.345.583L217.727,424.5l-19.273-1.173A.666.666,0,0,1,198.313,423.3Z" transform="translate(-198.007 -402.474)"/></g></g><g transform="translate(13.978 95.307)"><g transform="translate(4.219 1.367)"><path class="e" d="M96.454,555.08a132.132,132.132,0,0,1-42-26.11.479.479,0,1,1,.65-.7,133.311,133.311,0,0,0,103.4,34.31.478.478,0,0,1,.526.426.486.486,0,0,1-.426.529A133.423,133.423,0,0,1,96.454,555.08Z" transform="translate(-54.303 -528.139)"/></g><path class="e" d="M42.02,534.483a.48.48,0,0,1,.124-.925l11.78-1.206-1.287-7.735a.476.476,0,0,1,.4-.55.481.481,0,0,1,.553.4l1.454,8.74-12.8,1.31A.494.494,0,0,1,42.02,534.483Z" transform="translate(-41.713 -524.06)"/><g transform="translate(11.729 7.623)"><path class="e" d="M77.016,561.925a.475.475,0,0,1-.275-.281.482.482,0,0,1,.282-.617l12.943-4.809-2.028-8.827a.478.478,0,1,1,.932-.211l2.219,9.645-13.73,5.1A.5.5,0,0,1,77.016,561.925Z" transform="translate(-76.712 -546.806)"/></g><g transform="translate(25.25 9.265)"><path class="e" d="M117.362,576.544a.474.474,0,0,1-.265-.251.48.48,0,0,1,.241-.633l16.327-7.353-2.232-16.056a.479.479,0,0,1,.948-.131l2.332,16.766-16.981,7.644A.465.465,0,0,1,117.362,576.544Z" transform="translate(-117.056 -551.706)"/></g><g transform="translate(44.582 17.644)"><path class="e" d="M175.05,598.123a.5.5,0,0,1-.218-.168.482.482,0,0,1,.111-.67L185.3,589.9l-3.469-12.584a.48.48,0,1,1,.925-.255l3.646,13.227L175.5,598.063A.463.463,0,0,1,175.05,598.123Z" transform="translate(-174.743 -576.708)"/></g><g transform="translate(58.698 24.843)"><path class="e" d="M217.171,619.719a.46.46,0,0,1-.194-.137.482.482,0,0,1,.057-.677l12.711-10.69-4.233-9.347a.478.478,0,0,1,.871-.4l4.531,10.01-13.268,11.16A.472.472,0,0,1,217.171,619.719Z" transform="translate(-216.863 -598.191)"/></g><g transform="translate(77.979 24.384)"><path class="e" d="M274.7,623.741a.433.433,0,0,1-.131-.077.475.475,0,0,1-.064-.674L285.8,609.3l-7.158-11.746a.48.48,0,0,1,.821-.5l7.51,12.326L275.25,623.6A.478.478,0,0,1,274.7,623.741Z" transform="translate(-274.398 -596.821)"/></g></g></g><g transform="translate(116.506 74.559)"><path class="e" d="M428.519,390.294H363.38a7.492,7.492,0,0,1-7.49-7.49V238.22a7.492,7.492,0,0,1,7.49-7.49h65.139a7.492,7.492,0,0,1,7.49,7.49V382.8A7.492,7.492,0,0,1,428.519,390.294Z" transform="translate(-353.125 -227.965)"/><rect class="e" width="78.446" height="158.136" transform="translate(3.774 4.192)"/><path class="f" d="M423.033,387.573H357.895a10.268,10.268,0,0,1-10.255-10.255V232.735a10.268,10.268,0,0,1,10.255-10.255h65.139a10.268,10.268,0,0,1,10.255,10.255V377.319A10.268,10.268,0,0,1,423.033,387.573ZM357.895,228.01a4.728,4.728,0,0,0-4.725,4.725V377.319a4.733,4.733,0,0,0,4.725,4.725h65.139a4.731,4.731,0,0,0,4.725-4.725V232.735a4.731,4.731,0,0,0-4.725-4.725Z" transform="translate(-347.64 -222.48)"/><path class="f" d="M452.741,245.324H419.617a3.218,3.218,0,0,1-3.217-3.217V238.98h39.555v3.127A3.213,3.213,0,0,1,452.741,245.324Z" transform="translate(-393.357 -233.45)"/><path class="g" d="M432.687,385.7a15.557,15.557,0,0,0-13.834,8.013,15.562,15.562,0,0,0-13.834-8.013c-10.476,0-14.679,7.919-14.679,15.9a19.3,19.3,0,0,0,2.9,9.6l1.29-.02c.774-.013,1.572-.023,2.393-.037l1.243-.02c.208,0,.422,0,.65-.02a2.5,2.5,0,0,0,.714-.151,1.492,1.492,0,0,0,.613-.462,2.392,2.392,0,0,0,.349-.637c.084-.214.151-.422.225-.63s.144-.419.218-.63q.422-1.217.861-2.477c.07-.2.141-.406.211-.61l.054-.154c.01-.027.02-.05.03-.077a.791.791,0,0,1,.044-.07.5.5,0,0,1,.268-.178.462.462,0,0,1,.315.037l.033.02a.3.3,0,0,0,.034.023.44.44,0,0,1,.057.054.926.926,0,0,1,.087.134c.107.188.218.375.328.566.473.824.955,1.662,1.441,2.507.147.258.295.509.439.767l.107.188c.017.03.04.06.06.091a.421.421,0,0,0,.08.074.43.43,0,0,0,.2.084.5.5,0,0,0,.221-.013.557.557,0,0,0,.1-.04.812.812,0,0,0,.094-.067.457.457,0,0,0,.077-.084.415.415,0,0,0,.054-.1,1,1,0,0,0,.054-.225l.037-.228c.047-.3.094-.6.147-.895s.1-.586.151-.871c.027-.151.054-.3.08-.449s.057-.3.087-.459.057-.3.087-.459.06-.3.091-.459c.06-.3.124-.613.188-.922q.387-1.845.851-3.7c.08-.308.158-.617.238-.928s.164-.617.248-.928c.047-.171.094-.338.141-.509s.1-.372.161-.56c.111-.372.221-.751.335-1.133l.157-.405.08-.2.04-.1c.013-.034.027-.057.04-.087.1-.225.208-.446.312-.667a.493.493,0,0,1,.278-.251.674.674,0,0,1,.422-.027.575.575,0,0,1,.332.208c.007.013.02.023.027.037l.017.037a.485.485,0,0,1,.034.084l.064.178c.084.238.168.476.255.714l.131.355.034.087c.01.037.017.08.027.121l.05.248.409,1.961q.649,3.132,1.233,6.253c.389,2.078.751,4.146,1.089,6.186.171,1.019.332,2.034.489,3.04l.03.188.013.08.007.044.03.168c.02.107.037.211.057.318.034.2.07.392.1.586.054.3.1.6.157.888a.276.276,0,0,0,.023.094.132.132,0,0,0,.084.06.218.218,0,0,0,.221-.084.245.245,0,0,0,.047-.127l.017-.137c.01-.087.02-.178.034-.265.037-.315.074-.623.111-.932.013-.131.03-.261.044-.392.007-.06.013-.121.02-.178l0-.044,0-.02v-.017l.007-.037c.013-.1.03-.2.044-.3.235-1.585.462-3.117.68-4.578.111-.731.215-1.448.318-2.145.027-.174.05-.349.077-.519.013-.087.027-.171.037-.258.023-.151.047-.3.07-.449q.146-.935.292-1.847l.037-.154.017-.077a.3.3,0,0,1,.02-.07c.034-.084.064-.168.1-.248s.074-.131.111-.2l.027-.05.027-.037.057-.074.057-.074.027-.037a.246.246,0,0,1,.027-.03c.037-.037.07-.074.1-.111a1.113,1.113,0,0,1,.228-.2,1.387,1.387,0,0,1,.389-.171,1.516,1.516,0,0,1,.456-.054c.037,0,.07,0,.107.007a.847.847,0,0,1,.1.013,1.484,1.484,0,0,1,.164.04l.064.02a.306.306,0,0,1,.06.027l.127.06.064.03.03.013c.01.007.023.013.037.023l.144.091c.023.017.047.027.074.047l.077.067.077.067a.522.522,0,0,1,.077.074c.054.06.1.121.154.181s.1.154.147.231c.094.171.184.352.275.523.181.352.362.7.539,1.036.091.171.178.342.265.509.05.094.1.191.151.285.184.349.362.687.536,1.012q.126.241.251.473c.077.144.147.265.214.365a1.765,1.765,0,0,0,.178.228.389.389,0,0,0,.121.094.735.735,0,0,0,.107.04.836.836,0,0,0,.188.027,3.677,3.677,0,0,0,.58-.027c.111-.013.225-.027.345-.044s.238-.034.352-.047c.456-.064.851-.117,1.18-.161.66-.087,1.066-.141,1.18-.158.07-.01.137-.017.208-.023a2.725,2.725,0,1,1,0,2.379c-.171.02-.546.07-1.106.141-.332.044-.727.09-1.183.151-.231.027-.462.06-.754.09a5.272,5.272,0,0,1-1.022.02,3.261,3.261,0,0,1-.643-.121,2.726,2.726,0,0,1-.687-.312,2.9,2.9,0,0,1-.583-.5,4.236,4.236,0,0,1-.416-.55c-.117-.184-.214-.362-.3-.533s-.168-.325-.255-.493c-.168-.328-.345-.667-.526-1.019-.044-.08-.084-.164-.127-.248-.01-.017-.017-.034-.027-.05-.017-.034-.037-.064-.054-.1-.034-.064-.07-.127-.107-.194-.01-.017-.017-.034-.027-.047a.077.077,0,0,0-.047-.03.09.09,0,0,0-.1.05.2.2,0,0,0-.013.06l-.01.06c-.007.04-.01.08-.017.124s-.013.111-.023.168l0,.02v.01l0,.03c-.013.084-.027.171-.04.258-.027.171-.057.345-.084.519-.114.7-.228,1.408-.345,2.138q-.352,2.192-.737,4.568-.342,2.081-.694,4.236c-.064.385-.127.774-.191,1.163a2.167,2.167,0,0,1-.268.824l-.037.064c-.013.02-.027.044-.037.06l-.074.107c-.027.037-.047.06-.074.094a1.018,1.018,0,0,1-.07.084,3.02,3.02,0,0,1-.255.255c-.037.034-.077.067-.114.1l-.1.08c-.034.027-.064.047-.094.07a.544.544,0,0,1-.067.037.789.789,0,0,1-.121.044,1.279,1.279,0,0,1-.345.057,1.756,1.756,0,0,1-.379-.027,1.173,1.173,0,0,1-.278-.091.5.5,0,0,1-.067-.04l-.054-.047c-.148-.127-.292-.255-.442-.382l-.013-.013a.034.034,0,0,1-.017-.02l-.037-.074-.07-.151c-.047-.1-.1-.2-.144-.3-.1-.2-.194-.4-.288-.6l-.181-1.428c-.06-.476-.121-.955-.184-1.438-.03-.241-.06-.483-.094-.721s-.064-.479-.1-.717c-.054-.4-.111-.8-.164-1.2q-.211-1.5-.442-3.026c-.3-2.031-.637-4.092-.992-6.163s-.731-4.156-1.126-6.237l-.037-.194c0-.007,0-.007,0-.01l0-.013-.007-.027-.013-.04a.012.012,0,0,0-.013-.013.018.018,0,0,0-.017.017l-.01.047,0,.023,0,.01h0l0,.007-.067.228c-.087.3-.174.607-.261.908s-.168.607-.251.908c-.328,1.21-.627,2.423-.9,3.626-.07.3-.137.6-.2.9-.034.151-.067.3-.1.449s-.064.3-.094.449-.064.3-.094.449c-.037.188-.074.372-.111.56l-.091.452c-.03.151-.057.3-.09.449-.064.292-.127.583-.194.875-.034.144-.064.292-.1.436l-.047.218c0,.01,0,.02-.007.027l-.01.013-.02.023-.044.047-.335.385-.168.191-.04.047c-.013.013-.027.037-.044.04l-.09.054c-.034.02-.074.04-.114.06s-.087.037-.134.057-.1.034-.147.05-.1.027-.158.037a1.827,1.827,0,0,1-.617.01,1.109,1.109,0,0,1-.121-.023c-.034-.007-.067-.017-.1-.023l-.194-.07-.047-.017c-.007,0-.017,0-.023-.01l-.027-.017-.111-.06c-.037-.02-.074-.04-.111-.064l-.121-.094c-.04-.034-.08-.06-.121-.1l-.121-.131-.06-.067c-.02-.023-.037-.057-.057-.084l-.114-.174q-.633-1.161-1.26-2.306c-.057-.107-.117-.215-.174-.322l-.044-.08,0-.007h0l-.047.124c-.04.107-.08.214-.121.318-.161.426-.318.844-.476,1.263-.077.208-.157.416-.235.623-.04.1-.077.208-.117.312s-.087.228-.141.359a4.328,4.328,0,0,1-.2.419c-.044.074-.087.151-.141.228-.027.04-.054.077-.087.124s-.067.087-.1.127a2.531,2.531,0,0,1-.469.439,2.616,2.616,0,0,1-.563.3c-.05.02-.1.037-.151.054s-.1.034-.154.047-.094.023-.137.034-.09.02-.131.027a3.669,3.669,0,0,1-.473.05c-.144.007-.271.007-.392.007s-.218,0-.325,0c-.419-.007-.831-.01-1.24-.017l-2.389-.03-.757-.01c7.49,11.977,24.719,21.368,25.094,21.555h0c.479-.241,28.513-14.679,28.513-32.028C447.365,393.616,443.163,385.7,432.687,385.7Z" transform="translate(-376.03 -331.001)"/><path class="e" d="M402.616,430.159c.409,0,.821.01,1.24.017.107,0,.215,0,.325,0s.248,0,.392-.007a3.673,3.673,0,0,0,.473-.05c.04-.007.087-.017.131-.027s.087-.02.137-.034.1-.03.154-.047.1-.034.151-.054a2.619,2.619,0,0,0,.563-.3,2.654,2.654,0,0,0,.469-.439c.034-.044.067-.084.1-.127s.064-.087.087-.124c.054-.077.1-.154.141-.228a4.319,4.319,0,0,0,.2-.419c.057-.131.1-.251.141-.359s.077-.208.117-.312c.077-.208.154-.416.235-.623.158-.419.315-.838.476-1.263.04-.107.08-.211.121-.318l.047-.124h0l0,.007.044.08c.057.107.117.215.174.322.416.764.838,1.531,1.26,2.306l.114.174c.02.027.037.06.057.084l.06.067.121.131c.04.037.08.064.121.1l.121.094c.037.023.074.04.111.064l.111.06.027.017a.117.117,0,0,0,.023.01l.047.017.194.07c.03.007.064.017.1.023s.074.017.121.023a1.918,1.918,0,0,0,.617-.01c.054-.01.107-.023.158-.037a1.517,1.517,0,0,0,.147-.05,1.24,1.24,0,0,0,.134-.057c.04-.02.08-.04.114-.06s.064-.037.09-.054.027-.027.044-.04l.04-.047.168-.191.335-.385.044-.047.02-.023.01-.013c0-.007,0-.017.007-.027l.047-.218c.034-.144.064-.292.1-.436.064-.292.127-.583.194-.875.034-.144.06-.3.09-.449s.06-.3.091-.452c.037-.184.074-.372.111-.56.03-.151.064-.3.094-.449s.064-.3.094-.449.067-.3.1-.449c.064-.3.134-.6.2-.9q.412-1.81.9-3.626c.084-.3.168-.607.251-.908s.174-.607.261-.908l.067-.228,0-.007h0l0-.01,0-.023.01-.047c0-.01.01-.017.017-.017s.01.007.013.013l.013.04.007.027,0,.013s0,0,0,.01l.037.194c.4,2.081.774,4.166,1.126,6.237s.684,4.132.992,6.163q.231,1.523.442,3.026c.057.4.111.8.164,1.2.033.241.064.479.1.717s.06.483.094.72c.06.479.124.958.184,1.438s.121.955.181,1.428c.1.2.194.4.288.6.047.1.1.2.144.3l.07.151.037.074c.007.017.01.017.017.02l.013.013.442.382.054.047a.5.5,0,0,0,.067.04,1.174,1.174,0,0,0,.278.091,1.572,1.572,0,0,0,.379.027,1.613,1.613,0,0,0,.345-.057,1.184,1.184,0,0,0,.121-.044.55.55,0,0,0,.067-.037c.03-.023.06-.044.094-.07l.1-.08c.034-.027.077-.064.114-.1a3.034,3.034,0,0,0,.255-.255c.023-.023.047-.057.07-.084s.047-.057.074-.094l.074-.107a.362.362,0,0,0,.037-.06l.037-.064a2.148,2.148,0,0,0,.268-.824c.064-.389.127-.777.191-1.163q.352-2.151.694-4.236c.255-1.582.5-3.11.737-4.568.117-.731.235-1.444.345-2.138.027-.174.057-.345.084-.519.013-.087.027-.171.04-.258l0-.03v-.01l0-.02c.007-.057.013-.111.023-.168.007-.04.01-.084.017-.124l.01-.06a.177.177,0,0,1,.013-.06.1.1,0,0,1,.1-.05.088.088,0,0,1,.047.03c.01.017.017.034.027.047.037.067.074.131.107.194.017.034.037.067.054.1s.017.034.027.05c.044.084.084.164.127.248.181.352.355.69.526,1.019.087.168.171.332.255.493s.188.349.3.533a3.829,3.829,0,0,0,.416.55,3.016,3.016,0,0,0,.583.5,2.836,2.836,0,0,0,.687.312,3.259,3.259,0,0,0,.643.121,5.553,5.553,0,0,0,1.022-.02c.292-.03.523-.064.754-.091.456-.057.851-.107,1.183-.151.56-.07.935-.117,1.106-.141a2.724,2.724,0,1,0,0-2.379c-.067.007-.137.013-.208.023-.114.017-.519.07-1.18.158-.332.044-.724.1-1.18.161-.114.017-.231.03-.352.047s-.235.034-.345.044a3.3,3.3,0,0,1-.58.027,1.086,1.086,0,0,1-.188-.027.482.482,0,0,1-.107-.04.621.621,0,0,1-.121-.094,1.76,1.76,0,0,1-.178-.228,3.937,3.937,0,0,1-.214-.365q-.121-.231-.251-.473c-.174-.325-.352-.664-.536-1.012-.05-.094-.1-.188-.151-.285-.087-.168-.174-.338-.265-.509-.178-.342-.355-.687-.54-1.036-.09-.174-.181-.352-.275-.523-.05-.077-.1-.158-.147-.231s-.1-.121-.154-.181a.524.524,0,0,0-.077-.074l-.077-.067-.077-.067a.455.455,0,0,0-.074-.047l-.144-.091c-.013-.007-.023-.017-.037-.023l-.03-.013-.064-.03-.127-.06c-.023-.01-.04-.017-.06-.027l-.064-.02a1.311,1.311,0,0,0-.164-.04.966.966,0,0,0-.1-.013c-.034,0-.07-.007-.107-.007a1.63,1.63,0,0,0-.456.054,1.389,1.389,0,0,0-.389.171,1.21,1.21,0,0,0-.228.2c-.034.037-.07.074-.1.111a.246.246,0,0,0-.027.03l-.027.037-.057.074-.057.074-.027.037-.027.05c-.037.067-.074.131-.111.2-.034.084-.064.164-.1.248a.43.43,0,0,0-.02.07l-.017.077-.037.154c-.1.607-.191,1.223-.292,1.847-.023.147-.047.3-.07.449-.013.084-.027.171-.037.258-.027.171-.05.345-.077.519q-.156,1.046-.318,2.145-.327,2.2-.68,4.578c-.013.1-.03.2-.044.3l-.007.037v.017l0,.02,0,.044c-.007.06-.013.121-.02.178-.013.131-.03.261-.044.392-.037.3-.074.617-.111.932-.01.087-.02.174-.034.265l-.017.137a.279.279,0,0,1-.047.127.214.214,0,0,1-.221.084.132.132,0,0,1-.084-.06.321.321,0,0,1-.023-.094c-.05-.292-.1-.59-.158-.888-.034-.194-.07-.389-.1-.586-.02-.107-.037-.211-.057-.318l-.03-.168-.007-.044-.013-.08-.03-.188c-.158-1.005-.318-2.017-.489-3.04q-.508-3.061-1.089-6.186c-.389-2.078-.8-4.169-1.233-6.253l-.409-1.961-.05-.248c-.01-.04-.017-.084-.027-.121l-.034-.087-.131-.355c-.087-.238-.171-.476-.255-.714l-.064-.178a.484.484,0,0,0-.034-.084l-.017-.037a.253.253,0,0,0-.027-.037.559.559,0,0,0-.332-.208.7.7,0,0,0-.422.027.5.5,0,0,0-.278.251c-.1.221-.211.442-.312.667-.013.03-.027.054-.04.087l-.04.1-.08.2-.158.406c-.117.379-.225.761-.335,1.133-.054.188-.107.372-.161.56-.047.171-.094.339-.141.509-.084.308-.164.62-.248.928s-.158.62-.238.928q-.463,1.855-.851,3.7c-.064.308-.127.613-.188.922-.03.154-.06.3-.09.459s-.057.3-.087.459-.057.3-.087.459-.054.3-.08.449c-.05.285-.1.576-.151.871s-.1.593-.147.895l-.037.228a.844.844,0,0,1-.054.225.954.954,0,0,1-.054.1.458.458,0,0,1-.077.084.475.475,0,0,1-.094.067.391.391,0,0,1-.1.04.492.492,0,0,1-.221.013.468.468,0,0,1-.2-.084.55.55,0,0,1-.08-.074.854.854,0,0,1-.06-.091l-.107-.188c-.144-.258-.292-.509-.439-.767-.486-.848-.969-1.682-1.441-2.507-.111-.191-.218-.379-.328-.566a.919.919,0,0,0-.087-.134.284.284,0,0,0-.057-.054.289.289,0,0,0-.034-.023l-.034-.02a.465.465,0,0,0-.583.141.809.809,0,0,0-.044.07.724.724,0,0,0-.03.077l-.054.154c-.07.2-.141.406-.211.61-.292.838-.58,1.666-.861,2.477-.074.211-.147.419-.218.63s-.141.416-.225.63a2.6,2.6,0,0,1-.349.637,1.492,1.492,0,0,1-.613.462,2.293,2.293,0,0,1-.714.151c-.228.017-.442.017-.65.02l-1.243.02q-1.227.02-2.393.037l-1.29.02c.171.292.345.583.526.871l.757.01C401,430.135,401.8,430.149,402.616,430.159Z" transform="translate(-381.741 -349.051)"/></g><g transform="translate(209.336 151.276)"><g transform="translate(0 5.295)"><path class="d" d="M660.857,478.785A80.165,80.165,0,0,0,624.64,467.2a123.809,123.809,0,0,0,14.87,48.1,79.788,79.788,0,0,0,11.126,15.644c.107-2.172.268-4.336.452-6.481C652.419,508.893,654.925,493.149,660.857,478.785Z" transform="translate(-624.64 -467.2)"/><path class="h" d="M746.263,535.51c-8.385-11.877-18.274-22.829-30.115-31.264-1.223-.871-2.473-1.692-3.733-2.477-5.928,14.367-8.435,30.111-9.772,45.674-.184,2.145-.345,4.31-.452,6.481,6.116,6.582,13.509,11.689,22.226,13.509a230.031,230.031,0,0,0,30.476-14.156C753.7,546.747,750.093,540.933,746.263,535.51Z" transform="translate(-676.201 -490.185)"/><g transform="translate(4.924 5.326)"><path class="e" d="M669.269,522.5a.481.481,0,0,1-.416-.144A220.965,220.965,0,0,1,639.4,483.82a.479.479,0,0,1,.821-.493A220.088,220.088,0,0,0,669.547,521.7a.474.474,0,0,1-.017.677A.481.481,0,0,1,669.269,522.5Z" transform="translate(-639.334 -483.094)"/><g transform="translate(0.15 1.385)"><path class="e" d="M648.95,499.872l-8.764-1.364a.478.478,0,1,1,.147-.945l7.9,1.23,2.8-11.2a.48.48,0,0,1,.932.235Z" transform="translate(-639.781 -487.227)"/></g><g transform="translate(4.023 5.175)"><path class="e" d="M664.926,517.674l-13.117-.238a.479.479,0,1,1,.02-.958l12.3.221,3.207-17.768a.479.479,0,1,1,.942.171Z" transform="translate(-651.339 -498.537)"/></g><g transform="translate(8.235 8.58)"><path class="e" d="M680.5,533.072l-16.049,2.349a.479.479,0,0,1-.137-.948l15.369-2.249,4.233-23.134a.479.479,0,1,1,.942.171Z" transform="translate(-663.906 -508.697)"/></g></g></g><g transform="translate(38.123)"><path class="i" d="M749.5,529.347c-3.375-3.864-5.151-8.844-6.585-13.77-3.144-10.788-5-22.038-4.4-33.255A61.112,61.112,0,0,1,749.239,451.4a95.725,95.725,0,0,1,21.921,32.145c4.511,10.878,6.867,23.68,1.568,34.2A177.737,177.737,0,0,1,749.5,529.347Z" transform="translate(-738.396 -451.4)"/><g transform="translate(2.963 5.701)"><g transform="translate(8.41)"><path class="e" d="M782.057,505.332a.376.376,0,0,0,.114-.322,170.85,170.85,0,0,0-9.122-36.358.37.37,0,1,0-.694.258,170.126,170.126,0,0,1,9.082,36.2.374.374,0,0,0,.419.318A.367.367,0,0,0,782.057,505.332Z" transform="translate(-772.332 -468.412)"/></g><g transform="translate(3.762 5.727)"><path class="e" d="M767.415,492.012l3.395-5.955a.371.371,0,1,0-.643-.369l-3.06,5.369-8.123-3.7a.37.37,0,0,0-.3.674Z" transform="translate(-758.461 -485.501)"/></g><g transform="translate(1.907 13.557)"><path class="e" d="M765.961,517.507l6.173-8.043a.372.372,0,0,0-.067-.519.366.366,0,0,0-.519.067l-5.788,7.544-12.286-6.615a.371.371,0,0,0-.352.654Z" transform="translate(-752.927 -508.866)"/></g><g transform="translate(0 21.199)"><path class="e" d="M763.924,541.2l9.146-8.573a.37.37,0,1,0-.506-.54l-8.757,8.207-16.022-8.579a.371.371,0,1,0-.352.654Z" transform="translate(-747.237 -531.669)"/></g></g></g></g><g transform="translate(464.031 90.289)"><path class="d" d="M1408.266,353.053c.617-6.629,1.816-14.243,7.527-17.668,2.44-1.465,5.342-1.89,8.056-2.755a25.668,25.668,0,0,0,16.438-16.6c1.793-5.808,2.088-13.13,7.423-16.039,2.741-1.495,6.193-1.324,8.827-3,2.869-1.82,4.065-5.329,5.171-8.542,1.981-5.741,4.477-11.609,9.152-15.486s12.111-5.05,16.723-1.1c3.08,2.637,4.28,7.007,3.861,11.042s-2.245,7.788-4.39,11.233c-1.538,2.47-3.291,4.923-3.827,7.785-1.324,7.018,5,13.643,4.2,20.734-1.1,9.655-13.864,13.385-17.959,22.2-2.165,4.658-1.806,10.587-5.392,14.266-4.115,4.223-11.25,3.281-16.307,6.317a20.21,20.21,0,0,0-5.634,5.7c-.436-.184-.878-.352-1.32-.5a19.68,19.68,0,0,0-5.211-1.059,20.12,20.12,0,0,0-5.164.462,31.205,31.205,0,0,0-16.079,9.327,38.377,38.377,0,0,0-5.979,8.529C1402.377,376.964,1401.007,363.2,1408.266,353.053Z" transform="translate(-1397.068 -269.418)"/><path class="j" d="M1440.441,568.736a18.185,18.185,0,0,1,10.376.6c.442.147.885.315,1.32.5-.643.878-1.273,1.769-1.917,2.634-7.353,9.88-19.739,17.52-31.669,14.454-.06-.107-.111-.218-.171-.325a38.372,38.372,0,0,1,5.979-8.529A31.211,31.211,0,0,1,1440.441,568.736Z" transform="translate(-1407.072 -468.104)"/><path class="d" d="M1391.9,540.239c2.393,5.576,5.215,11.093,9.447,15.439s10.087,7.433,16.15,7.175c5.925-.251,11.347-3.633,15.443-7.922,1.967-2.061,3.981-4.511,6.81-4.856,3.257-.4,6.173,2.182,9.444,2.46,8.435.717,11.974-12.929,20.419-13.542,2.285-.164,4.5.711,6.77,1.059a15.017,15.017,0,0,0,13.821-5.493c3.549-4.548,4.333-11.029,8.64-14.866,2.021-1.8,4.608-2.808,6.917-4.223a22.8,22.8,0,0,0,10.533-21.294c-.385-3.75-2.356-7.943-6.073-8.593-2.329-.406-4.635.724-6.652,1.954a53.1,53.1,0,0,0-16.3,15.54,13.088,13.088,0,0,1-3.422,3.954c-4.1,2.637-9.323-.593-14.166-1.153-7.071-.821-13.519,4.373-17.5,10.275-2.111,3.127-4.139,6.81-7.748,7.906-4.973,1.508-9.652-2.678-14.474-4.615a17.853,17.853,0,0,0-19.967,5.188c-6.247,7.721-17.47,7.594-24.632,14.474-.2.191-.513.389-.717.2S1392.041,540,1391.9,540.239Z" transform="translate(-1384.637 -413.085)"/><g transform="translate(18.693 16.755)"><path class="e" d="M1441.028,403.238a.4.4,0,0,0,.084-.044,155.08,155.08,0,0,0,61.978-83.2.448.448,0,0,0-.858-.261,154.154,154.154,0,0,1-61.613,82.716.446.446,0,0,0-.127.62A.452.452,0,0,0,1441.028,403.238Z" transform="translate(-1440.416 -319.414)"/><g transform="translate(50.967 5.193)"><path class="e" d="M1596.082,350.6l.5-.231a111.244,111.244,0,0,0,10.094-5.349.447.447,0,0,0-.459-.767c-3.073,1.837-6.274,3.542-9.518,5.07-.54-2.222-1.062-4.487-1.585-6.749-.57-2.456-1.136-4.916-1.726-7.323a.449.449,0,0,0-.871.214c.586,2.4,1.156,4.856,1.723,7.309s1.133,4.9,1.719,7.292Z" transform="translate(-1592.5 -334.91)"/></g><g transform="translate(38.989 17.157)"><path class="e" d="M1582.292,387.047a.448.448,0,0,0-.275-.851l-19.2,5.05-5.174-20.3a.449.449,0,1,0-.871.221l5.4,21.173,20.074-5.282C1582.259,387.057,1582.276,387.051,1582.292,387.047Z" transform="translate(-1556.759 -370.609)"/></g><g transform="translate(27.376 34.28)"><path class="e" d="M1545.438,441.191a.45.45,0,0,0-.191-.868l-17.293,1.052-4.966-19.333a.448.448,0,0,0-.868.225l5.151,20.051,18.03-1.1A.456.456,0,0,0,1545.438,441.191Z" transform="translate(-1522.105 -421.705)"/></g><g transform="translate(12.95 48.435)"><path class="e" d="M1501.946,486.727a.448.448,0,0,0,.285-.382.453.453,0,0,0-.412-.486l-16.874-1.387-5-20.188a.449.449,0,0,0-.871.214l5.158,20.811,17.517,1.441A.335.335,0,0,0,1501.946,486.727Z" transform="translate(-1479.06 -463.943)"/></g></g><g transform="translate(16.761 89.162)"><g transform="translate(0 1.28)"><path class="e" d="M1493.2,564.492a123.675,123.675,0,0,0,39.29-24.424.448.448,0,0,0-.61-.657,124.7,124.7,0,0,1-96.734,32.1.448.448,0,1,0-.094.891A124.733,124.733,0,0,0,1493.2,564.492Z" transform="translate(-1434.652 -539.29)"/></g><g transform="translate(89.458)"><path class="e" d="M1713.772,545.22a.448.448,0,0,0-.117-.865l-11.022-1.126,1.2-7.235a.448.448,0,1,0-.885-.147l-1.361,8.177,11.971,1.223A.4.4,0,0,0,1713.772,545.22Z" transform="translate(-1701.59 -535.472)"/></g><g transform="translate(77.507 7.13)"><path class="e" d="M1679.094,570.891a.448.448,0,0,0-.007-.838l-12.108-4.5,1.9-8.258a.444.444,0,0,0-.335-.536.449.449,0,0,0-.536.339l-2.075,9.022,12.845,4.776A.435.435,0,0,0,1679.094,570.891Z" transform="translate(-1665.93 -556.748)"/></g><g transform="translate(61.787 8.667)"><path class="e" d="M1635.253,584.571a.437.437,0,0,0,.248-.235.45.45,0,0,0-.224-.593L1620,576.867l2.088-15.02a.448.448,0,0,0-.888-.124l-2.182,15.684,15.888,7.152A.442.442,0,0,0,1635.253,584.571Z" transform="translate(-1619.02 -561.335)"/></g><g transform="translate(49.31 16.501)"><path class="e" d="M1592.413,604.747a.422.422,0,0,0,.2-.158.45.45,0,0,0-.1-.627l-9.688-6.91,3.244-11.773a.448.448,0,1,0-.865-.238l-3.412,12.376,10.2,7.272A.43.43,0,0,0,1592.413,604.747Z" transform="translate(-1581.79 -584.71)"/></g><g transform="translate(33.867 23.233)"><path class="e" d="M1548.572,624.944a.457.457,0,0,0,.181-.131.451.451,0,0,0-.054-.633l-11.89-10,3.958-8.747a.449.449,0,0,0-.818-.369l-4.239,9.367,12.41,10.439A.447.447,0,0,0,1548.572,624.944Z" transform="translate(-1535.71 -604.799)"/></g><g transform="translate(17.208 22.814)"><path class="e" d="M1497.485,628.73a.432.432,0,0,0,.124-.074.447.447,0,0,0,.061-.63L1487.1,615.214l6.692-10.985a.447.447,0,0,0-.151-.617.453.453,0,0,0-.617.147L1486,615.291l10.972,13.3A.457.457,0,0,0,1497.485,628.73Z" transform="translate(-1486 -603.547)"/></g></g></g><g transform="translate(206.286 1.414)"><path class="f" d="M890.252,76.371V281.944a5.1,5.1,0,0,1-5.091,5.1H741.671a5.1,5.1,0,0,1-5.091-5.1V76.371a5.1,5.1,0,0,1,5.091-5.091H885.162A5.1,5.1,0,0,1,890.252,76.371Z" transform="translate(-696.016 -48.806)"/><path class="e" d="M877.941,99.746l-55.095-.576H749.5V297.8H893.611V128.654C893.611,125.045,885.236,104.277,877.941,99.746Z" transform="translate(-704.606 -67.35)"/><path class="k" d="M955.046,17.47a6.7,6.7,0,1,0,6.7,6.706A6.711,6.711,0,0,0,955.046,17.47Z" transform="translate(-836.81 -13.03)"/><path class="f" d="M841.67,127.94c0,.04-.01.08-.01.121a3.353,3.353,0,0,0,3.365,3.365h78.135a3.352,3.352,0,0,0,2.383-.982,3.4,3.4,0,0,0,.982-2.383c0-.04-.007-.08-.01-.121Z" transform="translate(-765.881 -86.478)"/><path class="l" d="M924.205,42.6,900.23,34.844a7.212,7.212,0,0,1-5-6.873V16.281a9.066,9.066,0,0,0,.04-.912,11.145,11.145,0,1,0-22.289,0v12.6a7.212,7.212,0,0,1-5,6.873L844.006,42.6a3.358,3.358,0,0,0-2.326,3.087h84.844A3.343,3.343,0,0,0,924.205,42.6ZM884.131,22.065a6.7,6.7,0,1,1,6.7-6.7A6.7,6.7,0,0,1,884.131,22.065Z" transform="translate(-765.895 -4.22)"/><path class="l" d="M1119.6,100.89a7.8,7.8,0,0,1,3.134,6.85,11.27,11.27,0,0,1-3.271,6.987,20.891,20.891,0,0,1-6.5,4.37l22.306,10.7C1134.4,116.969,1127.478,105.947,1119.6,100.89Z" transform="translate(-946.261 -68.493)"/><path class="m" d="M720.89,552.9l11.766,54.13,1.605-.349-1.652-7.6h19.947l1.729,7.953,1.605-.349-11.763-54.13-1.605.349,1.669,7.681H724.245l-1.746-8.03Zm23.657,9.323,1.645,7.571H726.245l-1.645-7.571ZM728.246,579l-1.646-7.571h19.947L748.193,579Zm20.305,1.642,1.645,7.57H730.25l-1.646-7.57Zm-16.3,16.783-1.645-7.571h19.947l1.646,7.571Z" transform="translate(-685.584 -368.79)"/><path class="n" d="M653.385,599.066h19.947l-1.652,7.6,1.605.349,11.763-54.13-1.605-.348-1.746,8.03H661.749l1.669-7.681-1.605-.349L650.05,606.67l1.605.349Zm22.306-10.855H655.744l1.646-7.571h19.947Zm-16.3-16.783h19.947L677.691,579H657.745Zm21.951-9.213-1.645,7.57H659.749l1.646-7.57Zm-27.6,35.208,1.646-7.571h19.947l-1.646,7.571Z" transform="translate(-638.485 -368.783)"/><rect class="n" width="28.616" height="1.96" transform="translate(19.689 182.952)"/><g transform="translate(61.821 59.338)"><path class="o" d="M939.963,185.706H858.078a1.467,1.467,0,0,1-1.468-1.468h0a1.467,1.467,0,0,1,1.468-1.468h81.885a1.467,1.467,0,0,1,1.468,1.468h0A1.47,1.47,0,0,1,939.963,185.706Z" transform="translate(-837.642 -182.271)"/><path class="o" d="M928.991,204.186H858.078a1.467,1.467,0,0,1-1.468-1.468h0a1.467,1.467,0,0,1,1.468-1.468h70.913a1.467,1.467,0,0,1,1.468,1.468h0A1.472,1.472,0,0,1,928.991,204.186Z" transform="translate(-837.642 -194.557)"/><path class="o" d="M897.546,222.676H858.068a1.467,1.467,0,0,1-1.468-1.468h0a1.467,1.467,0,0,1,1.468-1.468h39.478a1.467,1.467,0,0,1,1.468,1.468h0A1.467,1.467,0,0,1,897.546,222.676Z" transform="translate(-837.635 -206.851)"/><path class="o" d="M813.412,197.6H802.929a2.921,2.921,0,0,1-2.919-2.919V184.2a2.923,2.923,0,0,1,2.919-2.919h10.483a2.921,2.921,0,0,1,2.919,2.919v10.486A2.923,2.923,0,0,1,813.412,197.6Zm-10.483-15.322a1.919,1.919,0,0,0-1.917,1.917v10.486a1.919,1.919,0,0,0,1.917,1.917h10.483a1.919,1.919,0,0,0,1.917-1.917V184.2a1.919,1.919,0,0,0-1.917-1.917Z" transform="translate(-800.113 -181.28)"/><path class="o" d="M3.726,60.6.931,57.808,0,58.739l3.726,3.726,7.984-7.984-.931-.931Z" transform="translate(1.897 -50.256)"/></g><g transform="translate(61.821 88.866)"><path class="o" d="M939.963,273.816H858.078a1.467,1.467,0,0,1-1.468-1.468h0a1.467,1.467,0,0,1,1.468-1.468h81.885a1.467,1.467,0,0,1,1.468,1.468h0A1.47,1.47,0,0,1,939.963,273.816Z" transform="translate(-837.642 -270.381)"/><path class="o" d="M928.991,292.3H858.078a1.467,1.467,0,0,1-1.468-1.468h0a1.467,1.467,0,0,1,1.468-1.468h70.913a1.467,1.467,0,0,1,1.468,1.468h0A1.47,1.47,0,0,1,928.991,292.3Z" transform="translate(-837.642 -282.668)"/><path class="o" d="M897.546,310.786H858.068a1.467,1.467,0,0,1-1.468-1.468h0a1.467,1.467,0,0,1,1.468-1.468h39.478a1.467,1.467,0,0,1,1.468,1.468h0A1.467,1.467,0,0,1,897.546,310.786Z" transform="translate(-837.635 -294.961)"/><path class="o" d="M813.412,285.714H802.929a2.921,2.921,0,0,1-2.919-2.919V272.309a2.923,2.923,0,0,1,2.919-2.919h10.483a2.921,2.921,0,0,1,2.919,2.919V282.8A2.921,2.921,0,0,1,813.412,285.714Zm-10.483-15.322a1.919,1.919,0,0,0-1.917,1.917V282.8a1.919,1.919,0,0,0,1.917,1.917h10.483a1.919,1.919,0,0,0,1.917-1.917V272.309a1.919,1.919,0,0,0-1.917-1.917Z" transform="translate(-800.01 -269.668)"/><path class="o" d="M3.726,60.6.931,57.808,0,58.739l3.726,3.726,7.984-7.984-.931-.931Z" transform="translate(1.897 -49.828)"/></g><g transform="translate(61.821 118.397)"><path class="o" d="M939.963,361.926H858.078a1.467,1.467,0,0,1-1.468-1.468h0a1.467,1.467,0,0,1,1.468-1.468h81.885a1.467,1.467,0,0,1,1.468,1.468h0A1.47,1.47,0,0,1,939.963,361.926Z" transform="translate(-837.642 -358.494)"/><path class="o" d="M928.991,380.416H858.078a1.467,1.467,0,0,1-1.468-1.468h0a1.467,1.467,0,0,1,1.468-1.468h70.913a1.467,1.467,0,0,1,1.468,1.468h0A1.472,1.472,0,0,1,928.991,380.416Z" transform="translate(-837.642 -370.788)"/><path class="o" d="M897.546,398.9H858.068a1.467,1.467,0,0,1-1.468-1.468h0a1.467,1.467,0,0,1,1.468-1.468h39.478a1.467,1.467,0,0,1,1.468,1.468h0A1.467,1.467,0,0,1,897.546,398.9Z" transform="translate(-837.635 -383.074)"/><path class="o" d="M813.412,373.834H802.929a2.921,2.921,0,0,1-2.919-2.919V360.429a2.923,2.923,0,0,1,2.919-2.919h10.483a2.921,2.921,0,0,1,2.919,2.919v10.486A2.923,2.923,0,0,1,813.412,373.834Zm-10.483-15.322a1.919,1.919,0,0,0-1.917,1.917v10.486a1.919,1.919,0,0,0,1.917,1.917h10.483a1.919,1.919,0,0,0,1.917-1.917V360.429a1.919,1.919,0,0,0-1.917-1.917Z" transform="translate(-800.01 -357.32)"/><path class="o" d="M3.726,60.6.931,57.808,0,58.739l3.726,3.726,7.984-7.984-.931-.931Z" transform="translate(1.897 -49.36)"/></g><g transform="translate(61.821 147.925)"><path class="o" d="M939.963,450.036H858.078a1.467,1.467,0,0,1-1.468-1.468h0a1.467,1.467,0,0,1,1.468-1.468h81.885a1.467,1.467,0,0,1,1.468,1.468h0A1.47,1.47,0,0,1,939.963,450.036Z" transform="translate(-837.642 -446.604)"/><path class="o" d="M928.991,468.526H858.078a1.467,1.467,0,0,1-1.468-1.468h0a1.467,1.467,0,0,1,1.468-1.468h70.913a1.467,1.467,0,0,1,1.468,1.468h0A1.472,1.472,0,0,1,928.991,468.526Z" transform="translate(-837.642 -458.898)"/><path class="o" d="M897.546,487.006H858.068a1.467,1.467,0,0,1-1.468-1.468h0a1.467,1.467,0,0,1,1.468-1.468h39.478a1.467,1.467,0,0,1,1.468,1.468h0A1.465,1.465,0,0,1,897.546,487.006Z" transform="translate(-837.635 -471.184)"/><path class="o" d="M813.412,461.944H802.929a2.921,2.921,0,0,1-2.919-2.919V448.539a2.923,2.923,0,0,1,2.919-2.919h10.483a2.921,2.921,0,0,1,2.919,2.919v10.486A2.923,2.923,0,0,1,813.412,461.944Zm-10.483-15.322a1.919,1.919,0,0,0-1.917,1.917v10.486a1.919,1.919,0,0,0,1.917,1.917h10.483a1.919,1.919,0,0,0,1.917-1.917V448.539a1.919,1.919,0,0,0-1.917-1.917Z" transform="translate(-800.113 -445.958)"/><path class="o" d="M3.726,60.6.931,57.808,0,58.739l3.726,3.726,7.984-7.984-.931-.931Z" transform="translate(1.897 -49.888)"/></g><g transform="translate(61.821 177.456)"><path class="o" d="M939.963,538.156H858.078a1.467,1.467,0,0,1-1.468-1.468h0a1.467,1.467,0,0,1,1.468-1.468h81.885a1.467,1.467,0,0,1,1.468,1.468h0A1.47,1.47,0,0,1,939.963,538.156Z" transform="translate(-837.642 -534.724)"/><path class="o" d="M928.991,556.636H858.078a1.467,1.467,0,0,1-1.468-1.468h0a1.467,1.467,0,0,1,1.468-1.468h70.913a1.467,1.467,0,0,1,1.468,1.468h0A1.472,1.472,0,0,1,928.991,556.636Z" transform="translate(-837.642 -547.011)"/><path class="o" d="M897.546,575.126H858.068a1.467,1.467,0,0,1-1.468-1.468h0a1.467,1.467,0,0,1,1.468-1.468h39.478a1.467,1.467,0,0,1,1.468,1.468h0A1.467,1.467,0,0,1,897.546,575.126Z" transform="translate(-837.635 -559.304)"/><path class="o" d="M813.412,550.061H802.929a2.921,2.921,0,0,1-2.919-2.919V536.659a2.923,2.923,0,0,1,2.919-2.919h10.483a2.921,2.921,0,0,1,2.919,2.919v10.483A2.923,2.923,0,0,1,813.412,550.061Zm-10.483-15.322a1.919,1.919,0,0,0-1.917,1.917v10.483a1.919,1.919,0,0,0,1.917,1.917h10.483a1.919,1.919,0,0,0,1.917-1.917V536.656a1.919,1.919,0,0,0-1.917-1.917Z" transform="translate(-800.113 -533.609)"/><path class="o" d="M3.726,60.6.931,57.808,0,58.739l3.726,3.726,7.984-7.984-.931-.931Z" transform="translate(1.897 -49.419)"/></g><g transform="translate(0 77.928)"><g transform="translate(5.828 3.059)"><path class="p" d="M832.57,245.88l1.7,8.117,3.633-3.033-.791-3.767Z" transform="translate(-765.665 -245.88)"/><path class="f" d="M848.342,250.45l-2.212-.64.791,3.767,1.766-1.475A.955.955,0,0,0,848.342,250.45Z" transform="translate(-774.681 -248.493)"/><path class="q" d="M699.835,245.88l-66.9,14.193.851,4.058,66.9-14.193Z" transform="translate(-632.93 -245.88)"/><path class="r" d="M635.47,272.183l.851,4.058,66.9-14.193-.851-4.058Z" transform="translate(-634.619 -253.932)"/></g><path class="s" d="M798.78,268.279a.876.876,0,0,1-.144.486,1.759,1.759,0,0,1-.486.456,3.923,3.923,0,0,1-.5.292,3.644,3.644,0,0,1-1.609,1.22c-.711.308-1.475.479-2.2.734a2.012,2.012,0,0,0-.637.328q-1.885,3.393-3.767,6.79a6.348,6.348,0,0,0-3.72-2.386c1.109-1.528,2.165-3.09,3.127-4.715a40.249,40.249,0,0,1,2.356-3.824,8.714,8.714,0,0,1,3.381-2.882.585.585,0,0,1,.53-.037c.268.178.09.593-.1.845-.5.643-1,1.287-1.5,1.93,3.127.56,5.66-.764,5.778-.067a.7.7,0,0,1-.171.56A2.013,2.013,0,0,1,798.78,268.279Z" transform="translate(-728.688 -255.327)"/><path class="t" d="M768.674,539.429h-9.5c.037-1.572.084-3.465.121-5.091,1.16-.1,2.326-.208,3.482-.308a2.836,2.836,0,0,0,.824,1.766,6.054,6.054,0,0,0,2.058,1.294c.747.315,1.525.576,2.239.965a1.928,1.928,0,0,1,.687.546A.787.787,0,0,1,768.674,539.429Z" transform="translate(-711.036 -434.405)"/><path class="g" d="M722.4,317.453q-7.49.01-14.977.013a76.505,76.505,0,0,0,.922-9.5c.074-2.262.047-4.538-.08-6.81a3.542,3.542,0,0,0,.59-.868c.721-1.511.315-3.448,1.273-4.826.473-.68,1.233-1.136,1.619-1.87a4.836,4.836,0,0,0,.268-2.688c.881-.074,1.766-.121,2.651-.158v.047a11.413,11.413,0,0,1,1.354-.007,12.035,12.035,0,0,1,5.372,1.565c1.542.881,2.859,2.088,4.313,3.093a31.858,31.858,0,0,0,4.551,2.523c1.16-1.461,2.306-2.942,3.4-4.454a6.317,6.317,0,0,1,3.72,2.386q-1.674,3.031-3.361,6.056A3.766,3.766,0,0,1,728.057,304l-5.741-2.537c-.851-.375-1.706-.754-2.554-1.123a18.643,18.643,0,0,0,2.356,2.678c-.134.747-.335,1.652-.607,2.768-.721,2.979.151,8.2.935,11.662A.071.071,0,0,1,722.4,317.453Z" transform="translate(-676.629 -272.654)"/><path class="u" d="M744.25,319.38c.851.369,1.706.747,2.554,1.123a12.8,12.8,0,0,1-.2,1.555A19.042,19.042,0,0,1,744.25,319.38Z" transform="translate(-701.116 -291.69)"/><path class="t" d="M721.144,540.326h-9.5c.037-1.521.08-3.351.114-4.946,1.19,0,2.379.007,3.569.013a2.966,2.966,0,0,0,.754,1.3,6.091,6.091,0,0,0,2.051,1.294,23.317,23.317,0,0,1,2.239.965,1.927,1.927,0,0,1,.687.546A.8.8,0,0,1,721.144,540.326Z" transform="translate(-679.434 -435.302)"/><path class="s" d="M721.582,252.7a1.474,1.474,0,0,1,1.019-1.166,1.18,1.18,0,0,1,1.267.5,5.406,5.406,0,0,0,.627-2.416,1.734,1.734,0,0,1,.989-1.893,4.2,4.2,0,0,0,1.31-1.85,1.766,1.766,0,0,1,.141.134,4.338,4.338,0,0,1,1.354,2.275c.121.546.121,1.123.224,1.676a2.427,2.427,0,0,0,.747,1.475c.231.188.533.359.57.65.03.268-.188.493-.345.71a4.263,4.263,0,0,0-.563,2.111,5.763,5.763,0,0,1-.375,1.712,2.3,2.3,0,0,1-1.2,1.233c-.593.218-1.3.114-1.87.328a1.449,1.449,0,0,0-.084.218,6.92,6.92,0,0,0-.328,2.56,11.4,11.4,0,0,0-1.354.007v-.047c-.885.037-1.773.084-2.651.158-.017-.211-.03-.426-.037-.63a7.285,7.285,0,0,1,2.312-5.466,1.87,1.87,0,0,1-1.334-.741A1.974,1.974,0,0,1,721.582,252.7Z" transform="translate(-685.673 -242.815)"/><path class="v" d="M723.8,420.838c-.017,1.334-.044,2.708-.067,4.1a83.931,83.931,0,0,1-3.706-12.463Q722.046,416.6,723.8,420.838Z" transform="translate(-685.013 -353.583)"/><path class="t" d="M692.883,255.006a4.805,4.805,0,0,1-.268,2.688c-.389.734-1.146,1.19-1.619,1.87-.958,1.377-.553,3.314-1.274,4.826a3.541,3.541,0,0,1-.59.868,6.185,6.185,0,0,1-2.544,1.609c-.1.044-.208.08-.308.114a8.033,8.033,0,0,1-4.1.389c-.127-.03-.248-.054-.369-.09a4.264,4.264,0,0,1-3.093-3.023c-.493-2.329,1.474-4.474,1.736-6.84.141-1.237-.208-2.483-.134-3.727a5.724,5.724,0,0,1,2.329-4.236c1.129-.814,2.584-1.227,3.448-2.319a10,10,0,0,0,1.826-4.692,6.913,6.913,0,0,1,4.38-5.268c1.857-.747,7-.861,6.451,2.768a1.764,1.764,0,0,0-.141-.134,4.2,4.2,0,0,1-1.31,1.85,2.683,2.683,0,0,0-.844.824,2.594,2.594,0,0,0-.144,1.069,5.362,5.362,0,0,1-.627,2.416,1.174,1.174,0,0,0-1.267-.5,1.464,1.464,0,0,0-1.019,1.166,1.966,1.966,0,0,0,.419,1.528,1.882,1.882,0,0,0,1.334.741,7.29,7.29,0,0,0-2.312,5.466C692.853,254.584,692.866,254.8,692.883,255.006Z" transform="translate(-657.497 -236.753)"/><path class="w" d="M713.609,396.979c-.2,10.516-.593,22.1-1.578,28.74h-1.257c-1.19-.007-2.379-.013-3.569-.013-.308,0-.613-.007-.922-.007,1.686-16.847-1.826-33.844-1.458-50.768q.493-2.232.851-4.5,7.48,0,14.977-.013,4.253,27.261,6.783,54.756c-.271.023-.54.047-.814.074-1.16.1-2.326.208-3.482.308-.121.007-.238.017-.359.03a141.467,141.467,0,0,0-9.109-32.708q-1.749-4.243-3.773-8.368A84.268,84.268,0,0,0,713.609,396.979Z" transform="translate(-674.886 -325.625)"/><path class="u" d="M704.9,321.81c.127,2.269.151,4.544.08,6.81q-1.282.271-2.584.442.09-2.82-.037-5.643A6.232,6.232,0,0,0,704.9,321.81Z" transform="translate(-673.264 -293.305)"/><path class="g" d="M690.768,326.61q.126,2.82.037,5.644-1.322.181-2.658.268c-1.062.06-2.319-.007-2.919-.891-.65-.958-.114-2.252.436-3.271.231-.419.462-.831.7-1.243a8.032,8.032,0,0,0,4.1-.389C690.563,326.687,690.664,326.65,690.768,326.61Z" transform="translate(-661.676 -296.497)"/><path class="p" d="M621.978,287.87l-4.769.824-1.669,4.541,3.1,3.717,4.769-.824,1.669-4.541Z" transform="translate(-615.54 -270.739)"/></g><path class="f" d="M623.7,298.543a1.823,1.823,0,1,0,1.823-1.823A1.823,1.823,0,0,0,623.7,298.543Z" transform="translate(-620.965 -198.695)"/><rect class="m" width="17.071" height="1.96" transform="translate(48.305 182.952)"/></g><g transform="translate(386.182 103.778)"><path class="x" d="M1214.448,445.543s-63.875-12.842-62.072-116.527a2.741,2.741,0,0,1,2.7-2.691c8.891-.158,38.308-1.79,57.722-16.113a2.765,2.765,0,0,1,3.3.007c19.407,14.474,48.831,16.1,57.726,16.25a2.741,2.741,0,0,1,2.7,2.691C1278.33,433.931,1214.448,445.543,1214.448,445.543Z" transform="translate(-1152.338 -309.669)"/><path class="y" d="M1340.3,360.48a2.741,2.741,0,0,0-2.7-2.691,139.685,139.685,0,0,1-14.243-1.019,161.053,161.053,0,0,1-23.372,68.312c-13.348,21.746-33.483,30.791-51.723,34.136,15.158,14.665,29.967,17.644,29.967,17.644S1342.105,465.247,1340.3,360.48Z" transform="translate(-1216.114 -340.985)"/><g transform="translate(29.351 35.177)"><g transform="translate(0 21.416)"><rect class="e" width="65.521" height="22.685"/></g><g transform="translate(21.418 0)"><rect class="e" width="65.521" height="22.685" transform="translate(22.685) rotate(90)"/></g></g></g><g transform="translate(339.162 173.666)"><path class="t" d="M1067.281,525.651a2.857,2.857,0,0,0,.054,1.31,4.338,4.338,0,0,1-.362,2.406.083.083,0,0,0-.01.027,10.39,10.39,0,0,1-1.337-1.377,3.669,3.669,0,0,1-.784-1.887,5.374,5.374,0,0,1,.318-1.94,12.057,12.057,0,0,1,1.213-3.006,6.33,6.33,0,0,1,10.382-.5l.05-.037a4.8,4.8,0,0,1,.955,8.11c.007-.007.007-.01.007-.01l-.087-.01a1.46,1.46,0,0,1-.687-1.012,4.019,4.019,0,0,0-.389-1.2,5.932,5.932,0,0,0-.59-.67,4.506,4.506,0,0,1-.825-2.627l-.05.007a8.858,8.858,0,0,1-7.108,2.617,7.03,7.03,0,0,0,1.592-2.028l-.221-.114C1068.967,524.578,1067.6,524.722,1067.281,525.651Z" transform="translate(-1047.138 -518.211)"/><path class="z" d="M1068.809,552.763a12.663,12.663,0,0,0,.218,1.535l-.1.02a1.943,1.943,0,0,1-1.22-.8,1.982,1.982,0,0,1-.305-1.431,1.174,1.174,0,0,1,.439-.771.663.663,0,0,1,.8.02.08.08,0,0,1,.027.02C1068.719,551.825,1068.762,552.3,1068.809,552.763Z" transform="translate(-1048.83 -540.14)"/><path class="aa" d="M1045.146,702.971c0,.8.01,1.609.017,2.41q-1.186-.342-2.353-.791a20.966,20.966,0,0,0,.064-2.47C1043.618,702.425,1044.375,702.713,1045.146,702.971Z" transform="translate(-1032.496 -640.487)"/><path class="t" d="M1022.353,699.075c-.044.6-.114,1.2-.2,1.79q-4.037.171-8.077.02a1.6,1.6,0,0,1-1.994-1.749,10.658,10.658,0,0,1,.147-2.976,4.3,4.3,0,0,1,1.32-2.339A29.821,29.821,0,0,0,1022.353,699.075Z" transform="translate(-1012.04 -634.969)"/><path class="t" d="M1025.4,694.916a20.939,20.939,0,0,1-.064,2.47,29.809,29.809,0,0,1-8.811-5.255,1.534,1.534,0,0,1,.194-.164,3.833,3.833,0,0,1,2.071-.687,24.673,24.673,0,0,0,2.4,1.562A35.6,35.6,0,0,0,1025.4,694.916Z" transform="translate(-1015.023 -633.28)"/><path class="ab" d="M1049.78,704.66a56.475,56.475,0,0,0,11.659,2.564c-2.778.335-5.577.526-8.318.613a29.907,29.907,0,0,1-3.328-.764C1049.79,706.272,1049.78,705.464,1049.78,704.66Z" transform="translate(-1037.13 -642.176)"/><path class="ac" d="M1048.036,670.744q-.03,3.227-.054,6.458v.148h-.121a106.391,106.391,0,0,1-11.518-.687,56.487,56.487,0,0,1-11.659-2.564q-1.156-.392-2.269-.851a35.634,35.634,0,0,1-4.216-2.074,24.893,24.893,0,0,1-2.4-1.562,12.016,12.016,0,0,1-1.679-1.491,7.361,7.361,0,0,1-2.084-4.551,4.731,4.731,0,0,1,2.205-4.323,5.785,5.785,0,0,1,4.28-.288,16.572,16.572,0,0,1,1.816.57c1.485.543,2.942,1.153,4.383,1.8,3.04,1.361,6.016,2.872,9.052,4.236q1.262.568,2.567,1.123a68.215,68.215,0,0,0,11.693,3.831Z" transform="translate(-1012.035 -611.611)"/><path class="ad" d="M1124.135,615.889a7.292,7.292,0,0,1-.275,5.094c-.677-1.377-1.4-2.818-1.93-3.988.643-.516,1.337-1.025,2.058-1.5A4.077,4.077,0,0,1,1124.135,615.889Z" transform="translate(-1085.101 -582.889)"/><path class="t" d="M1132.718,691.246a3.852,3.852,0,0,1,2.071.687,4.253,4.253,0,0,1,1.518,2.5,10.776,10.776,0,0,1,.148,2.976,1.6,1.6,0,0,1-2,1.749c-2.691.1-5.385.09-8.073-.02a23.165,23.165,0,0,1-.107-6.511,7.662,7.662,0,0,0,1.23-.235c1.223-.325,2.4-.824,3.646-1.052A5.829,5.829,0,0,1,1132.718,691.246Z" transform="translate(-1087.87 -633.246)"/><path class="z" d="M1119.061,701.255v-.147q.025-3.227.054-6.458a4.85,4.85,0,0,0,2.4.248,23.166,23.166,0,0,0,.107,6.512q-1.342-.05-2.681-.141v-.017C1118.984,701.255,1119.021,701.255,1119.061,701.255Z" transform="translate(-1083.113 -635.521)"/><path class="ae" d="M1071.18,551.6c.007.007.007.01.007.02a.053.053,0,0,0-.027-.02.011.011,0,1,1,.02,0Z" transform="translate(-1051.345 -540.397)"/><path class="z" d="M1027.04,617.32l.114.05c-.007.01-.01.027-.017.037a3.419,3.419,0,0,0-.379,1.4l2.142,2.691V628c-1.441-.643-2.9-1.257-4.383-1.8a17.092,17.092,0,0,0-1.816-.57c-.57-.516-1.126-1.036-1.676-1.575-1.377-1.354-2.765-3-2.708-4.926.064-2.433,3.143-6.977,3.143-6.977h.007c.56-1.18,1.143-2.4,1.749-3.586a30.169,30.169,0,0,1,4.236,2.4,4.078,4.078,0,0,0-.161.375A9.042,9.042,0,0,0,1027.04,617.32Z" transform="translate(-1016.21 -578.288)"/><path class="u" d="M1119.05,611.017c.07-1.917.147-3.83.218-5.747a7.171,7.171,0,0,1,2.805,3.425c-.721.483-1.414.992-2.058,1.5C1119.68,610.471,1119.362,610.743,1119.05,611.017Z" transform="translate(-1083.186 -576.094)"/><path class="z" d="M1103.192,550.567a.763.763,0,0,1,.58.516,1.655,1.655,0,0,1,.054.808,2.624,2.624,0,0,1-.536,1.284,1.722,1.722,0,0,1-1.139.64,12.9,12.9,0,0,0,.2-1.468c.05-.459.09-.922.134-1.377l.091.01A.545.545,0,0,1,1103.192,550.567Z" transform="translate(-1071.95 -539.72)"/><path class="ae" d="M1071.2,551.544a.044.044,0,0,1-.01-.017.087.087,0,0,0,.01-.027Z" transform="translate(-1051.365 -540.344)"/><path class="z" d="M1073.619,545.459a6.845,6.845,0,0,1-1.391-1.535,4.329,4.329,0,0,1-.643-1.632,12.524,12.524,0,0,1-.218-1.535c-.05-.466-.09-.938-.141-1.4,0-.01,0-.017-.007-.02v-.044a4.331,4.331,0,0,0,.362-2.406,2.858,2.858,0,0,1-.054-1.31c.315-.925,1.686-1.072,2.115-1.951l.221.114a7.09,7.09,0,0,1-1.592,2.027,8.854,8.854,0,0,0,7.108-2.617l.05-.007a4.507,4.507,0,0,0,.824,2.627,6.194,6.194,0,0,1,.59.67,4.018,4.018,0,0,1,.389,1.2,1.469,1.469,0,0,0,.687,1.012l.087.01a.012.012,0,0,1-.007.01c-.02.235-.044.466-.071.7-.043.456-.087.915-.134,1.377a14.407,14.407,0,0,1-.2,1.468,4.559,4.559,0,0,1-.66,1.7,6.812,6.812,0,0,1-1.75,1.8,4.577,4.577,0,0,1-5.563-.261Z" transform="translate(-1051.385 -528.137)"/><path class="af" d="M1051.565,638.09h22.775a.634.634,0,0,1,.57.694l-.07,2.466-.158,5.711c-3.582,1.518-7.048,3.311-10.6,4.91q-1.262.568-2.567,1.123c-.871-.369-1.729-.741-2.567-1.123-3.04-1.364-6.016-2.875-9.052-4.236v-8.871a.618.618,0,0,1,.563-.67h1.1Z" transform="translate(-1037.21 -597.915)"/><path class="z" d="M1131.159,612.143h.007s3.076,4.544,3.143,6.977c.054,1.93-1.334,3.569-2.708,4.926-.456.449-.922.895-1.4,1.32a11.992,11.992,0,0,0-3.5.824c-.955.352-1.9.727-2.835,1.126l.157-5.711,2.44-2.467c-.345-.8-.818-1.766-1.31-2.775a7.256,7.256,0,0,0,.275-5.094c-.044-.134-.09-.271-.147-.4a31.146,31.146,0,0,1,4.129-2.319C1130.016,609.743,1130.6,610.963,1131.159,612.143Z" transform="translate(-1086.391 -578.275)"/><path class="aa" d="M1078.247,569.9a4.654,4.654,0,0,0,2.959,1.089,4.562,4.562,0,0,0,2.6-.818c.06.6.131,1.2.211,1.8h-.007c-.67,1.351-1.528,2.339-3.03,2.282-1.468-.06-2.242-.982-2.8-2.319v-.131C1078.21,571.173,1078.224,570.533,1078.247,569.9Z" transform="translate(-1056.013 -552.578)"/><path class="ad" d="M1046.1,617.275c-.878,2.028-1.538,2.822-2.423,4.833l-.114-.05a9.074,9.074,0,0,1,.248-5.982c.05-.124.1-.248.161-.375C1044.726,616.209,1045.44,616.732,1046.1,617.275Z" transform="translate(-1032.737 -583.029)"/><path class="u" d="M1048.275,605.53c.07,1.887.141,3.777.211,5.66-.255-.235-.519-.456-.791-.677-.66-.543-1.377-1.066-2.125-1.572A9.1,9.1,0,0,1,1048.275,605.53Z" transform="translate(-1034.331 -576.267)"/><path class="g" d="M1038.409,578.67c2.537-2.048,6.451-2.627,9.692-3.09v.131c.56,1.337,1.334,2.259,2.8,2.319,1.5.06,2.356-.932,3.03-2.282h.007c3.261.459,6.977.851,9.541,2.919,1.984,1.6,3.81,4.675,5.473,7.966a31.382,31.382,0,0,0-4.129,2.319,7.209,7.209,0,0,0-2.8-3.425c-.07,1.917-.147,3.831-.218,5.747-.064,1.749-.134,3.5-.2,5.251h-21.307c-.064-1.749-.134-3.5-.2-5.251q-.105-2.83-.211-5.66a9.084,9.084,0,0,0-2.7,3.415,30.508,30.508,0,0,0-4.236-2.4C1034.6,583.345,1036.429,580.268,1038.409,578.67Z" transform="translate(-1025.934 -556.354)"/><path class="z" d="M1042.4,709.5c-.044.6-.114,1.2-.2,1.79.851-.03,1.706-.077,2.557-.134v-.861C1043.966,710.063,1043.179,709.8,1042.4,709.5Z" transform="translate(-1032.091 -645.394)"/><path class="ac" d="M1049.83,711.86v.861c.04,0,.084,0,.124-.007V712.7c1.056-.01,2.125-.034,3.2-.077A29.1,29.1,0,0,1,1049.83,711.86Z" transform="translate(-1037.164 -646.963)"/><path class="ac" d="M1107.66,667.021a6.808,6.808,0,0,0,1.213-3.442,4.395,4.395,0,0,0-4.806-4.866,11.99,11.99,0,0,0-3.5.824c-.955.352-1.9.727-2.835,1.126-3.583,1.518-7.048,3.311-10.6,4.91q-1.262.568-2.567,1.123c1.26.526,2.55,1.036,3.867,1.515A95.152,95.152,0,0,0,1107.66,667.021Z" transform="translate(-1060.261 -611.621)"/><path class="ab" d="M1096.11,684.7a60.015,60.015,0,0,0,7.825,2.316v.228a4.851,4.851,0,0,0,2.4.248,7.658,7.658,0,0,0,1.23-.235c1.223-.325,2.4-.824,3.646-1.052a5.865,5.865,0,0,1,1.572-.1,12.453,12.453,0,0,0,1.679-1.491,9.007,9.007,0,0,0,.871-1.109A94.91,94.91,0,0,1,1096.11,684.7Z" transform="translate(-1067.934 -628.114)"/><circle class="e" cx="2.219" cy="2.219" r="2.219" transform="translate(22.09 44.86)"/></g><g transform="translate(498.402 118.959)"><path class="t" d="M1557.568,380.992a2,2,0,0,1,1.253-3.623,1.238,1.238,0,0,1,.915-1.26,2.14,2.14,0,0,1,1.826.194,6.588,6.588,0,0,1,1.253,1.247,5.734,5.734,0,0,0,1.813,1.294l-.007.02a6.107,6.107,0,0,1,2.621,1.719,4.967,4.967,0,0,1,.694,4.393,11.607,11.607,0,0,1-2.249,3.988c-.248.315-.512.64-.747.975a25.013,25.013,0,0,1-1.719-2.761,2.491,2.491,0,0,0,.308-.06,1.826,1.826,0,0,0,1.093-.734,1.506,1.506,0,0,0-2.413-1.793c-.04.261-.074.533-.114.794a3.131,3.131,0,0,1-1.934-2.048,8.557,8.557,0,0,1-.345-2.775,6.855,6.855,0,0,1-1.448-.674A6.356,6.356,0,0,0,1557.568,380.992Z" transform="translate(-1533.428 -368.944)"/><path class="z" d="M1553.4,395.013a1.394,1.394,0,0,1-.546.067.677.677,0,0,1-.607-.466c-.074-.359.235-.66.459-.942a5.228,5.228,0,0,0,.781-2.095,10.593,10.593,0,0,1,1.093-2.842,6.192,6.192,0,0,1,.8-1.106,6.928,6.928,0,0,0,1.448.674,8.457,8.457,0,0,0,.345,2.775,3.13,3.13,0,0,0,1.934,2.048c.04-.261.074-.533.114-.794a1.506,1.506,0,0,1,2.413,1.793,1.8,1.8,0,0,1-1.093.734,2.5,2.5,0,0,1-.308.06,24.982,24.982,0,0,0,1.719,2.761,4.1,4.1,0,0,0-.861,2.048c.107.5.221.992.359,1.481a17.5,17.5,0,0,0-5.147,1.126c-.067-.727-.114-1.461-.134-2.188a1.514,1.514,0,0,1-.174.007,2.729,2.729,0,0,1-2.333-1.166,3.41,3.41,0,0,1-.315-2.021A9.077,9.077,0,0,0,1553.4,395.013Z" transform="translate(-1530.44 -376.684)"/><path class="ac" d="M1651.907,660.49c1.22.439,2.446.875,3.666,1.314q-1.639,3.313-3.509,6.5A12.4,12.4,0,0,1,1651.907,660.49Z" transform="translate(-1596.339 -558.101)"/><path class="t" d="M1503.576,694.385a.024.024,0,0,0,.007-.02q.281-1.382.553-2.775h4.662c-.687,2.2-2.068,6.063-2.815,7.882h-8.5a2.683,2.683,0,0,1,1.548-1.893c.774-.406,1.639-.627,2.373-1.086S1503.345,695.477,1503.576,694.385Z" transform="translate(-1494.034 -578.779)"/><path class="ag" d="M1570.906,552.47s1.974,10.077-1.153,17.125q-.6-2.111-1.206-4.229h-.007C1569.361,561.344,1570.135,557.1,1570.906,552.47Z" transform="translate(-1541.28 -486.282)"/><path class="t" d="M1644.373,647.392c-1.448-.526-2.9-1.046-4.353-1.562l3.341-5.04a33.587,33.587,0,0,0,6.8,3.361q-1.011,2.3-2.121,4.554C1646.82,648.267,1645.593,647.831,1644.373,647.392Z" transform="translate(-1588.805 -545.003)"/><path class="ah" d="M1522,581.959h-4.662q5.479-27.557,10.128-55.259c5.355.007,10.724.228,16.069.654a1.306,1.306,0,0,0,.161-.181c2.286,9.729.412,16.716,3.381,28.573,5.489,2.088,10.9,4.434,16.177,7-.486.727-.969,1.461-1.455,2.188l-3.341,5.04-12.45-4.467c-2.255-.808-4.595-1.679-6.26-3.4-1.78-1.84-2.54-4.407-3.241-6.867q-.392-1.382-.794-2.775c3.127-7.048,1.153-17.125,1.153-17.125-.767,4.628-1.542,8.874-2.366,12.9-2.339,11.569-5.013,21.384-8.75,33.727H1522Z" transform="translate(-1507.238 -469.148)"/><path class="z" d="M1507.665,362.371a2.649,2.649,0,0,1,.023.362,11.94,11.94,0,0,1-3,1.233.711.711,0,0,1-.091.023c-.1-.945-.985-1.572-1.669-2.245a6.4,6.4,0,0,1-1.847-4,.866.866,0,0,1,1.082.194,4.635,4.635,0,0,1,.623,1.019,1.351,1.351,0,0,0,.881.751q-.8-2.157-1.605-4.316a1.512,1.512,0,0,1,1.622-.322,3.447,3.447,0,0,1,1.387,1.056A10.486,10.486,0,0,1,1507.665,362.371Z" transform="translate(-1496.427 -354.968)"/><path class="ae" d="M1520.71,376.21c.054.114.1.235.147.352a1.143,1.143,0,0,1-.121.074A2.97,2.97,0,0,0,1520.71,376.21Z" transform="translate(-1509.479 -369.091)"/><path class="g" d="M1513.782,377.334a1.169,1.169,0,0,0,.121-.074q2.75,6.58,5.489,13.164a53.292,53.292,0,0,0,8.382,6.062c-1.3.948-2.222,1.927-3.66,2.855a12.85,12.85,0,0,0-1.753,1.294,5.547,5.547,0,0,0-1.253,1.22,20.305,20.305,0,0,1-7.383-9.581,91.916,91.916,0,0,1-3.475-13.5A13.677,13.677,0,0,0,1513.782,377.334Z" transform="translate(-1502.525 -369.789)"/><path class="ae" d="M1500.13,530.8l.02.02c-.013.007-.027.007-.04.013A.142.142,0,0,1,1500.13,530.8Z" transform="translate(-1495.783 -471.874)"/><path class="z" d="M1494.105,533.839a9.341,9.341,0,0,1-3.6,4.115,3.644,3.644,0,0,1-1.5.747,1.6,1.6,0,0,1-1.528-.5,1.677,1.677,0,0,1-.06-1.759,5.662,5.662,0,0,1,1.166-1.428,3.928,3.928,0,0,0,1.046-1.508c-.315.255-.627.513-.935.761-.127.107-.288.214-.446.154-.228-.1-.141-.452-.007-.667a7.955,7.955,0,0,1,3.288-2.882c.013-.007.027-.007.04-.013q1.322,1.423,2.768,2.714c-.074.087-.147.168-.228.255v.01Z" transform="translate(-1487.197 -471.914)"/><path class="ai" d="M1547.976,477.29a25.806,25.806,0,0,1-4.286,10.456c.027-1.039.054-2.074.08-3.113A53.581,53.581,0,0,0,1547.976,477.29Z" transform="translate(-1524.758 -436.297)"/><path class="g" d="M1515.679,434.471a12.858,12.858,0,0,1,1.753-1.294c1.434-.928,2.359-1.907,3.66-2.855.208-.147.432-.3.667-.459-.027-.194-.047-.392-.06-.586a17.5,17.5,0,0,1,5.147-1.126c.127.493.261.985.419,1.461a7.981,7.981,0,0,1,4.169,7.162c-.094,4.641,1.032,7.5,1.88,12.065a29.259,29.259,0,0,1,.754,6.481c-.081,2.095-.359,4.769-1.773,6.327a1.29,1.29,0,0,1-.161.181c-5.342-.426-10.711-.647-16.069-.654h-.154c-1.086-.7-1.247-1.987-1.213-3.274.027-.942.047-1.887.074-2.828a25.853,25.853,0,0,0,4.286-10.456,53.921,53.921,0,0,1-4.2,7.343c-.834,1.227-1.679,2.346-2.493,3.328-3.274,3.941-6.227,6.535-9.377,10h-.007q-1.443-1.292-2.768-2.714l-.02-.02c3.5-5.489,5.922-7.5,8.73-12.6l.067.02c1.421-4.461,3.489-10.111,4.035-11.6a10.149,10.149,0,0,1,1.407-2.681A5.451,5.451,0,0,1,1515.679,434.471Z" transform="translate(-1495.836 -403.625)"/></g><g transform="translate(71.441 125.882)"><path class="t" d="M290.174,703.24a4.6,4.6,0,0,1,.03.985H287.49c.114-1.749.137-3.509.08-5.265q3.006.045,6.016.09a4.053,4.053,0,0,0,2.145,1.635c1,.372,2.064.53,3.056.915a3.34,3.34,0,0,1,1.478.985,1.692,1.692,0,0,1,.318,1.562c-1.518.1-4.246.171-5.335.208a10.545,10.545,0,0,1-2.738-.171A10.132,10.132,0,0,1,290.174,703.24Z" transform="translate(-262.583 -590.602)"/><path class="w" d="M263.168,568.855q-3.006-.045-6.016-.09c-.064,0-.124,0-.188,0-1.779-13.067-3.194-28.6-4.243-42.36q-2.644,21.113-4.735,42.3H241.74l0-.416.731-53.6h.007q.437-5.213.878-10.429l9.786,5.265,8.9-5.027.292-1.19c.385-.05.781-.111,1.18-.164.027,3.784-.044,7.587-.134,11.545h0q.749,27.1,1.485,54.2C264.294,568.872,263.731,568.865,263.168,568.855Z" transform="translate(-232.165 -460.406)"/><path class="aj" d="M297.426,450.275q-1.041-2.091-2.091-4.189l.824-3.368-1.893,1.22-5.915,3.81-.751-.4c.519-2.51,1.129-5,1.843-7.463q-.473-1.076-.948-2.152l1.3-.969c-.131-1.4-.295-2.808-.493-4.2q2.368,1.307,4.792,2.483a7.111,7.111,0,0,1,3.157,3.03,70.529,70.529,0,0,1,5.771,12.547,3.612,3.612,0,0,1-2.865,4.621c-1.836.308-4.062.664-6.156.965-.4.054-.794.114-1.18.164-.117.013-.235.034-.349.047a5.278,5.278,0,0,0-.225-4.092l1.723-.687Z" transform="translate(-262.656 -413.48)"/><path class="z" d="M275.985,396.3a2.475,2.475,0,0,1,.325-.241,7.617,7.617,0,0,0,1.394-.821,2.689,2.689,0,0,0,.65-1.109,10.266,10.266,0,0,0,2.584-.449,3.918,3.918,0,0,0,1.91-1.116,6.35,6.35,0,0,1,.023.757h.01a10.892,10.892,0,0,0,.9,4.531c.184.369.4.808.194,1.17a.792.792,0,0,1-.553.359,2.163,2.163,0,0,1-.607,0,4.683,4.683,0,0,1-.255,1.625,3.162,3.162,0,0,1-1.347,2.028,3.606,3.606,0,0,1-1.863.422,7.463,7.463,0,0,1-1.542-.168c-.007,0-.01,0-.017,0-.013.087-.017.174-.027.265-.01.151-.017.3-.03.449a6.408,6.408,0,0,1-5.1-1.072q.176-1.036.345-2.071l.017,0c.1-.546,1.642-1.1,2-2.423a1.961,1.961,0,0,1-1.284-2.912,1.267,1.267,0,0,1,.687-.593,1.154,1.154,0,0,1,1.136.349A1.869,1.869,0,0,1,275.985,396.3Z" transform="translate(-252.703 -386.885)"/><path class="u" d="M283.939,439.966c.282-3.368.68-7.2,1.186-9.823l.03-.054c.486.281.979.556,1.471.828q.3,2.091.493,4.2l-1.3.969q.478,1.076.948,2.152-1.071,3.69-1.843,7.463l-1.354-.727C283.654,443.669,283.778,441.9,283.939,439.966Z" transform="translate(-259.977 -411.837)"/><path class="t" d="M277.438,432.01c.335,2.517.67,5.04,1.005,7.554l.037,0c-.161,1.927-.285,3.7-.369,5.007l-1.984-1.069c-.255-1.759-.513-3.526-.767-5.285q.457-3.1.912-6.2a7.221,7.221,0,0,1-.489-.912c.426-.523.824-1.062,1.2-1.622a19.981,19.981,0,0,1,1.129,1.893C277.887,431.6,277.666,431.8,277.438,432.01Z" transform="translate(-254.518 -411.438)"/><path class="aj" d="M82.033,175.788s5.127-.373,10.248-.291a80.768,80.768,0,0,1,10.463.981l.285-9.62-20.172-1.423Z" transform="translate(-71.441 -125.882)"/><path class="u" d="M267.129,437.854c.255,1.759.513,3.526.767,5.285l-3.174-1.706q-.739-2.544-1.24-5.144c.285-.546.57-1.086.858-1.632a10.693,10.693,0,0,0-1.361-1.072c.3-1.314.6-2.627.9-3.944l1.961-.7c.01.08.023.164.037.245Q266.5,433.523,267.129,437.854Z" transform="translate(-246.287 -411.073)"/><path class="e" d="M271.945,423.48a6.409,6.409,0,0,0,5.1,1.072c-.023.342-.044.677-.07,1.019l.214.124-.03.054c-.506,2.621-.9,6.455-1.186,9.823l-.037,0c-.335-2.513-.67-5.037-1.005-7.554.228-.208.449-.412.677-.627a19.971,19.971,0,0,0-1.129-1.893c-.382.56-.781,1.1-1.2,1.622a8.2,8.2,0,0,0,.489.912q-.457,3.1-.912,6.2-.623-4.338-1.257-8.67c.013-.09.03-.184.044-.275C271.751,424.68,271.848,424.08,271.945,423.48Z" transform="translate(-252.018 -407.443)"/><path class="t" d="M272.452,382.865a2.747,2.747,0,0,1-.65,1.109,7.811,7.811,0,0,1-1.394.821,2.271,2.271,0,0,0-.325.241,1.9,1.9,0,0,0-.456-1.022,1.149,1.149,0,0,0-1.136-.349,1.266,1.266,0,0,0-.687.593,1.961,1.961,0,0,0,1.284,2.912c-.355,1.324-1.9,1.877-2,2.423l-.017,0c0-.03.01-.064.013-.09-.352-.318-.677-.747-1.046-1.049a6.513,6.513,0,0,1-2.007-3.552,9.159,9.159,0,0,1-.144-3.851,6.459,6.459,0,0,1,6.243-5.416,8.615,8.615,0,0,1,4.829,1.3v.01a3.032,3.032,0,0,1,2.205,1.471,2.624,2.624,0,0,1-.208,2.872s-.007.01-.01.013a3.867,3.867,0,0,1-1.91,1.116A10.344,10.344,0,0,1,272.452,382.865Z" transform="translate(-246.798 -375.625)"/><path class="z" d="M278.058,492.258a6.382,6.382,0,0,1-6.917-1.86.9.9,0,0,1-.141-1.062l0,0a8.946,8.946,0,0,1-.687-1.036.712.712,0,0,1-.057-.55.427.427,0,0,1,.268-.292.613.613,0,0,1-.124-.372c.017-.362.466-.573.818-.493a1.712,1.712,0,0,1,.808.556.849.849,0,0,1-.047-.664c.1-.261.429-.322.714-.107a5.3,5.3,0,0,0,3.412,1.511,3.06,3.06,0,0,1-1.1-.918.94.94,0,0,1-.181-.563.478.478,0,0,1,.349-.442.861.861,0,0,1,.637.265c.519.382,1.146.593,1.7.932a2.775,2.775,0,0,1,.741.64,1.259,1.259,0,0,0,1.458.432l1.005-.4a5.277,5.277,0,0,1,.225,4.092C279.871,492.063,278.886,492.181,278.058,492.258Z" transform="translate(-251.107 -448.981)"/><path class="ak" d="M271.58,428.86c-.013.09-.03.184-.044.275-.013-.08-.027-.164-.037-.245Z" transform="translate(-251.952 -411.02)"/><path class="aj" d="M230.365,437.679q.5,2.6,1.24,5.144l-4.6-2.477-1.759,5.553-.228.707-1.759,5.546a36.765,36.765,0,0,1-6.106,1.448c-1.3.194-2.778.281-3.6-1.082a2.752,2.752,0,0,1-.382-1.471,6.927,6.927,0,0,1,1.7-3.867c2.473-3.462,6.565-9.306,8.6-12.219a6.736,6.736,0,0,1,3.261-2.49l4.028-1.441q-.442,1.976-.9,3.944a10.462,10.462,0,0,1,1.361,1.072C230.935,436.593,230.65,437.133,230.365,437.679Z" transform="translate(-213.169 -412.462)"/><path class="al" d="M260.053,698.76c-.057.58-.114,1.153-.168,1.733,0-.58,0-1.153,0-1.733Z" transform="translate(-244.228 -590.469)"/><path class="t" d="M236.328,700.483c0,1.093,0,2.188,0,3.281H224.461a3.034,3.034,0,0,1,1.1-2.346,14.951,14.951,0,0,1,2.946-1.669,8.115,8.115,0,0,0,1.743-1h6.079C236.325,699.33,236.325,699.906,236.328,700.483Z" transform="translate(-220.674 -590.462)"/><path class="k" d="M284.3,485.962a.482.482,0,0,0-.349.442.939.939,0,0,0,.181.563,2.137,2.137,0,0,0,.459.493l.385-1.21c-.013-.01-.027-.017-.037-.023C284.741,486.083,284.527,485.912,284.3,485.962Z" transform="translate(-260.227 -448.979)"/><path class="k" d="M271.975,487.06a.851.851,0,0,0,.047.664,1.729,1.729,0,0,0-.808-.556.655.655,0,0,0-.818.493.606.606,0,0,0,.124.372.427.427,0,0,0-.268.292.727.727,0,0,0,.057.55,8.958,8.958,0,0,0,.687,1.036l0,0a.893.893,0,0,0,.141,1.062,7.137,7.137,0,0,0,2.668,1.833l.124.05,1.428-4.494a5.31,5.31,0,0,1-2.668-1.408C272.4,486.738,272.079,486.8,271.975,487.06Z" transform="translate(-251.103 -449.558)"/><path class="am" d="M286.284,490.876a4.614,4.614,0,0,1-.64-.426l-.1.322A5.369,5.369,0,0,0,286.284,490.876Z" transform="translate(-261.287 -451.969)"/><path class="an" d="M284.678,504.81l.292-1.19c-.117.013-.235.034-.349.047-1.062.137-2.044.255-2.872.332a7.464,7.464,0,0,1-4.122.023l-1.847,5.814Z" transform="translate(-254.797 -460.725)"/><path class="ao" d="M256.215,464.809l-1.354-.727-1.984-1.069-3.174-1.706-4.6-2.477-1.759,5.553-.228.707-1.759,5.546-.965,3.04,2.074,1.116,9.786,5.265,1.847-5.814c-.04-.017-.084-.03-.124-.05a7.138,7.138,0,0,1-2.668-1.833.9.9,0,0,1-.141-1.062l0,0a8.951,8.951,0,0,1-.687-1.036.712.712,0,0,1-.057-.55.427.427,0,0,1,.268-.292.613.613,0,0,1-.124-.372c.017-.362.466-.573.818-.493a1.712,1.712,0,0,1,.808.556.849.849,0,0,1-.047-.664c.1-.261.429-.322.714-.107a5.3,5.3,0,0,0,2.668,1.408l.1-.322a2.211,2.211,0,0,1-.459-.493.94.94,0,0,1-.181-.563.478.478,0,0,1,.349-.442.861.861,0,0,1,.637.265c.013.01.027.017.037.023l.955-3Z" transform="translate(-231.268 -430.946)"/><path class="an" d="M293.86,464.09l-5.915,3.81-.955,3c.513.365,1.119.576,1.656.908a2.775,2.775,0,0,1,.741.64,1.259,1.259,0,0,0,1.458.432l1.005-.4,1.723-.687,1.354-5.56.824-3.368Z" transform="translate(-262.251 -433.632)"/></g></g></svg>