<svg xmlns="http://www.w3.org/2000/svg" width="36" height="36" viewBox="0 0 36 36">
  <g id="profile_black_icon_36px" transform="translate(-379 -1712)">
    <rect id="Rectangle_3294" data-name="Rectangle 3294" width="36" height="36" transform="translate(379 1712)" fill="none"/>
    <g id="Group_14561" data-name="Group 14561" transform="translate(381.001 1714.225)">
      <g id="Group_14560" data-name="Group 14560" transform="translate(-0.001 -0.225)">
        <path id="Union_139" data-name="Union 139" d="M3.746,32A3.753,3.753,0,0,1,0,28.252a12.494,12.494,0,0,1,2.782-7.866,9.054,9.054,0,0,1,7.087-3.316,10.048,10.048,0,0,1,3.15.513,9.786,9.786,0,0,0,5.922,0v0A9.338,9.338,0,0,1,29.18,20.348a12.537,12.537,0,0,1,2.82,7.9A3.753,3.753,0,0,1,28.252,32ZM4.3,21.573A10.59,10.59,0,0,0,1.93,28.252a1.84,1.84,0,0,0,1.816,1.816H28.252a1.823,1.823,0,0,0,1.816-1.778A10.58,10.58,0,0,0,27.7,21.611a7.408,7.408,0,0,0-8.144-2.194,11.708,11.708,0,0,1-7.112,0A7.276,7.276,0,0,0,9.911,19,7.1,7.1,0,0,0,4.3,21.573ZM7.516,8.484A8.483,8.483,0,1,1,16,16.965,8.493,8.493,0,0,1,7.516,8.484Zm1.933,0A6.55,6.55,0,1,0,16,1.933,6.558,6.558,0,0,0,9.45,8.484Z" fill="#080808"/>
      </g>
    </g>
  </g>
</svg>
