<svg xmlns="http://www.w3.org/2000/svg" width="36" height="36" viewBox="0 0 36 36"><defs><style>.a{fill:#f5f5f7;}.b{fill:#ffbb85;}.c{fill:#6aa9ff;}</style></defs><g transform="translate(0 0.361)"><circle class="a" cx="18" cy="18" r="18" transform="translate(0 -0.361)"/><g transform="translate(10 7.639)"><path class="b" d="M96.321,4.685A4.555,4.555,0,0,1,94.961,8a4.472,4.472,0,0,1-3.283,1.373h0A4.473,4.473,0,0,1,88.4,8a4.554,4.554,0,0,1-1.36-3.313A4.554,4.554,0,0,1,88.4,1.373,4.471,4.471,0,0,1,91.676,0h0a4.474,4.474,0,0,1,3.283,1.373A4.554,4.554,0,0,1,96.321,4.685Zm0,0" transform="translate(-83.728)"/><path class="c" d="M16.145,254.031a3.239,3.239,0,0,1-.954,2.444,3.425,3.425,0,0,1-2.459.9H3.413a3.423,3.423,0,0,1-2.459-.9A3.238,3.238,0,0,1,0,254.031c0-.391.013-.777.039-1.149a11.558,11.558,0,0,1,.157-1.23,9.747,9.747,0,0,1,.3-1.235A6.146,6.146,0,0,1,1,249.264a4.361,4.361,0,0,1,.762-1,3.358,3.358,0,0,1,1.1-.692,3.767,3.767,0,0,1,1.4-.254,1.412,1.412,0,0,1,.757.323c.231.151.5.323.79.512a4.5,4.5,0,0,0,1.021.452,4.05,4.05,0,0,0,1.125.2l.124,0a4.039,4.039,0,0,0,1.249-.2,4.5,4.5,0,0,0,1.021-.452c.3-.19.562-.362.789-.511a1.411,1.411,0,0,1,.758-.323,3.769,3.769,0,0,1,1.4.254,3.361,3.361,0,0,1,1.095.692,4.346,4.346,0,0,1,.762,1,6.125,6.125,0,0,1,.505,1.152,9.739,9.739,0,0,1,.3,1.236,11.669,11.669,0,0,1,.156,1.229C16.132,253.253,16.144,253.639,16.145,254.031Zm0,0" transform="translate(0 -238.003)"/></g></g></svg>