<svg xmlns="http://www.w3.org/2000/svg" xmlns:xlink="http://www.w3.org/1999/xlink" width="36" height="36" viewBox="0 0 36 36"><defs><style>.a{fill:none;}.b{fill:url(#a);}.c{fill:#0ce277;}.d{fill:#fff;}.e{fill:#2699fb;}.f{fill:#e71c37;}.g{fill:#666;}</style><linearGradient id="a" y1="0.5" x2="1" y2="0.5" gradientUnits="objectBoundingBox"><stop offset="0" stop-color="#faca5d"/><stop offset="1" stop-color="#ff6d21"/></linearGradient></defs><g transform="translate(-1125.297 -814.773)"><rect class="a" width="36" height="36" transform="translate(1125.297 814.773)"/><g transform="translate(1125.298 821.419)"><path class="b" d="M1125.3,823.562v17.579a2.145,2.145,0,0,0,2.144,2.143h23.151a2.146,2.146,0,0,0,2.143-2.143V823.562Z" transform="translate(-1125.298 -823.562)"/></g><g transform="translate(1125.297 815.418)"><path class="c" d="M1150.592,815.626h-23.151a2.146,2.146,0,0,0-2.144,2.144v3.858h27.438v-3.86A2.147,2.147,0,0,0,1150.592,815.626Zm-21.865,4.288a1.288,1.288,0,1,1,1.288-1.288,1.287,1.287,0,0,1-1.288,1.288Zm20.578,0a1.288,1.288,0,1,1,1.289-1.288,1.288,1.288,0,0,1-1.289,1.288Z" transform="translate(-1125.297 -815.626)"/></g><path class="d" d="M17.148,10.289A1.715,1.715,0,1,1,18.864,12,1.717,1.717,0,0,1,17.148,10.289Zm-4.287,0A1.715,1.715,0,1,1,14.576,12,1.716,1.716,0,0,1,12.862,10.289Zm-4.289,0A1.715,1.715,0,1,1,10.287,12,1.716,1.716,0,0,1,8.573,10.289Zm-4.288,0A1.715,1.715,0,1,1,6,12,1.715,1.715,0,0,1,4.285,10.289ZM0,10.289A1.715,1.715,0,1,1,1.717,12,1.717,1.717,0,0,1,0,10.289ZM17.147,6a1.715,1.715,0,1,1,1.715,1.713A1.717,1.717,0,0,1,17.147,6Zm-6.86,1.713A1.715,1.715,0,1,1,12,6a1.716,1.716,0,0,1-1.715,1.713ZM6,7.717A1.715,1.715,0,1,1,7.715,6,1.715,1.715,0,0,1,6,7.717ZM0,6A1.715,1.715,0,1,1,1.714,7.717,1.715,1.715,0,0,1,0,6Zm17.148-4.29a1.715,1.715,0,1,1,1.715,1.717A1.715,1.715,0,0,1,17.148,1.714Zm-4.289,0a1.716,1.716,0,1,1,1.715,1.717A1.716,1.716,0,0,1,12.859,1.714Zm-4.288,0a1.715,1.715,0,1,1,1.715,1.717A1.716,1.716,0,0,1,8.572,1.714Zm-4.288,0A1.715,1.715,0,1,1,6,3.431,1.715,1.715,0,0,1,4.284,1.714ZM0,1.715A1.715,1.715,0,1,1,1.714,3.431,1.714,1.714,0,0,1,0,1.715Z" transform="translate(1128.728 825.278)"/><path class="e" d="M20.578,3.644v-3a.644.644,0,0,1,1.289,0v3a.644.644,0,1,1-1.289,0ZM0,3.644v-3a.644.644,0,0,1,1.288,0v3A.644.644,0,1,1,0,3.644Z" transform="translate(1128.084 814.773)"/><circle class="f" cx="9" cy="9" r="9" transform="translate(1143.297 832.773)"/><path class="d" d="M1159.892,841.7a7.71,7.71,0,1,0,7.666,7.71A7.688,7.688,0,0,0,1159.892,841.7Zm0,8.829a1.12,1.12,0,1,1,1.114-1.12A1.116,1.116,0,0,1,1159.892,850.533Z" transform="translate(-7.539 -7.627)"/><path class="g" d="M1148.556,834.335a1.715,1.715,0,1,0,1.715,1.715A1.714,1.714,0,0,0,1148.556,834.335Z" transform="translate(-5.253 -4.77)"/><path class="g" d="M6.513,13.047a.558.558,0,0,1-.553-.562v-.516a.558.558,0,0,1,1.115,0v.524a.557.557,0,0,1-.557.554ZM5.761,8.074a1.734,1.734,0,0,1-.791-2.321L3.733,4.514a.557.557,0,1,1,.788-.788L5.761,4.961a1.734,1.734,0,0,1,1.531,0L10.056,2.2h0l.007-.007a.558.558,0,0,1,.781.8l-.081.081L8.082,5.752A1.733,1.733,0,0,1,5.761,8.074Zm.146-1.556A.619.619,0,1,0,6.526,5.9.619.619,0,0,0,5.907,6.517Zm6.072.566a.558.558,0,0,1,0-1.116h.515a.558.558,0,0,1,0,1.116ZM.559,7.07a.559.559,0,1,1,0-1.118h.516a.559.559,0,0,1,0,1.118Zm5.415-6V.552a.558.558,0,0,1,1.116,0v.515a.558.558,0,0,1-1.116,0Z" transform="translate(1145.994 835.476)"/></g></svg>