<svg xmlns="http://www.w3.org/2000/svg" width="120.445" height="123.153" viewBox="0 0 120.445 123.153"><defs><style>.a{fill:#0ce277;}.b{fill:#e71c37;}.c{fill:#2699fb;}.d{fill:#d0f0fe;}.e{fill:#e6e9ed;}</style></defs><g transform="translate(-906.411 -895.05)"><path d="M994.411,1005.719a14.687,14.687,0,0,0,29.373,0,14.471,14.471,0,0,0-.491-3.774l-2.133,1.313a11.7,11.7,0,0,1,.246,2.379,12.33,12.33,0,1,1-1.8-6.4l2.051-1.231a14.69,14.69,0,0,0-27.241,7.713Z" transform="translate(-15.798 -17.217)"/><path d="M1028.336,1020.311h-31.1a1.039,1.039,0,0,0,.082-.492,39.908,39.908,0,0,0,0-4.431,5.261,5.261,0,0,1-2.3.082V1019a1.208,1.208,0,0,1-1.313,1.313h-43.9a1.255,1.255,0,0,1-1.395-1.395c0-7.152,0-54.808,0-58.336a1.222,1.222,0,0,1,1.395-1.395h23.71v15.261a3.618,3.618,0,0,0,3.774,3.774h17.8v5.169a7.715,7.715,0,0,1,2.379,0v-6.564a1.426,1.426,0,0,0-.492-.9c-.985-.9-15.015-13.456-21.086-18.871a1.728,1.728,0,0,0-1.067-.41c-1.149-.082-17.96,0-25.1,0a3.574,3.574,0,0,0-3.774,3.774c0,3.152-.008,54.151-.008,58.664a4.846,4.846,0,0,0,.164,1.149H922.742a1.231,1.231,0,1,0,0,2.461h105.595a1.262,1.262,0,0,0,1.231-1.231A1.144,1.144,0,0,0,1028.336,1020.311Zm-35.28-44.387v.082H977.8a1.6,1.6,0,0,1-.656-.082,1.093,1.093,0,0,1-.985-1.149c-.164-4.595-.164-9.271-.164-14.03C981.734,965.831,987.395,970.836,993.056,975.923Z" transform="translate(-2.711 -11.051)"/><path d="M993.135,1042.15H953.342a1.231,1.231,0,0,0,0,2.461h39.793a1.262,1.262,0,0,0,1.231-1.231A1.208,1.208,0,0,0,993.135,1042.15Z" transform="translate(-8.204 -26.408)"/><path d="M1018.949,1042.15h-9.107a1.231,1.231,0,0,0,0,2.461h9.107a1.262,1.262,0,0,0,1.231-1.231A1.163,1.163,0,0,0,1018.949,1042.15Z" transform="translate(-18.348 -26.408)"/><g transform="translate(927.907 929.428)"><path class="a" d="M1030.172,997.316a1.221,1.221,0,0,0-1.723-.41l-19.691,11.733-3.363-4.677a1.3,1.3,0,0,0-2.134,1.477l4.1,5.661a1.323,1.323,0,0,0,1.067.492,1.935,1.935,0,0,0,.656-.164l20.758-12.389A1.34,1.34,0,0,0,1030.172,997.316Z" transform="translate(-945.254 -947.677)"/><path class="a" d="M936.139,936.95a3.528,3.528,0,1,0,3.528,3.528A3.5,3.5,0,0,0,936.139,936.95Zm0,5.99a2.543,2.543,0,1,1,2.543-2.543A2.556,2.556,0,0,1,936.139,942.939Z" transform="translate(-932.611 -936.95)"/></g><path class="b" d="M991.472,935.15a2.468,2.468,0,0,0-2.461,2.461,2.417,2.417,0,0,0,2.461,2.461,2.461,2.461,0,0,0,0-4.923Zm0,3.856a1.477,1.477,0,1,1,1.477-1.477A1.471,1.471,0,0,1,991.472,939.006Z" transform="translate(-14.829 -7.199)"/><path class="b" d="M938.772,906.85a2.461,2.461,0,1,0,2.461,2.461A2.524,2.524,0,0,0,938.772,906.85Zm0,3.938a1.477,1.477,0,1,1,1.477-1.477A1.471,1.471,0,0,1,938.772,910.788Z" transform="translate(-5.368 -2.118)"/><g transform="translate(906.411 895.05)"><path class="c" d="M1024.439,895.05a3.528,3.528,0,1,0,3.528,3.528A3.609,3.609,0,0,0,1024.439,895.05Zm0,5.989a2.543,2.543,0,1,1,2.543-2.543A2.611,2.611,0,0,1,1024.439,901.039Z" transform="translate(-926.967 -895.05)"/><path class="c" d="M908.872,958.65a2.461,2.461,0,1,0,2.461,2.461A2.523,2.523,0,0,0,908.872,958.65Zm0,3.856a1.477,1.477,0,1,1,1.477-1.477A1.522,1.522,0,0,1,908.872,962.506Z" transform="translate(-906.411 -906.468)"/></g><path class="d" d="M994.6,911.655a.494.494,0,0,1-.328-.082h0l-.656-.246h0l-.656.082a.787.787,0,0,1-.82-.246,1.053,1.053,0,0,1-.328-.82v-.656h0l-.328-.574a.886.886,0,0,1,0-.9.939.939,0,0,1,.656-.574l.656-.164h0l.492-.492a1.053,1.053,0,0,1,.82-.328.862.862,0,0,1,.738.41l.41.574h0l.574.328a1.46,1.46,0,0,1,.574.656.954.954,0,0,1-.164.82l-.41.492h0l-.082.656a1.194,1.194,0,0,1-.492.738A.981.981,0,0,1,994.6,911.655Zm0-.984h0l.164-.656a.709.709,0,0,1,.246-.492l.41-.492h0l-.574-.328a.82.82,0,0,1-.41-.328l-.41-.574h0l-.492.492a.585.585,0,0,1-.492.246l-.656.164h0l.328.574a.542.542,0,0,1,.082.492v.656h0l.656-.082a1.6,1.6,0,0,1,.574.082Z" transform="translate(-15.251 -2.083)"/><g transform="translate(999.399 923.408)"><path class="d" d="M1034.039,958.55a3.528,3.528,0,1,0,3.528,3.528A3.609,3.609,0,0,0,1034.039,958.55Zm0,5.99a2.543,2.543,0,1,1,2.543-2.543A2.556,2.556,0,0,1,1034.039,964.539Z" transform="translate(-1021.678 -934.807)"/><path class="d" d="M1024.23,931.038l-.574-.328h0l-.328-.574a.943.943,0,0,0-.739-.492.787.787,0,0,0-.82.246l-.492.41h0l-.656.082a1.2,1.2,0,0,0-.738.492,1.129,1.129,0,0,0-.082.9l.246.656h0l-.082.656a.992.992,0,0,0,.246.821,1.054,1.054,0,0,0,.82.328l.656-.082h0l.574.328a1.041,1.041,0,0,0,.492.082.615.615,0,0,0,.41-.082,1.46,1.46,0,0,0,.574-.656l.164-.656h0l.492-.492a.787.787,0,0,0,.246-.82A.906.906,0,0,0,1024.23,931.038Zm-.574.9-.492.492a.71.71,0,0,0-.246.492l-.164.656h0l-.574-.328a1.041,1.041,0,0,0-.492-.082h-.082l-.656.082h0l.082-.656a1.041,1.041,0,0,0-.082-.492l-.245-.656h0l.655-.082a.706.706,0,0,0,.492-.246l.492-.41h0l.328.574a1.8,1.8,0,0,0,.328.41l.656.246c0-.082.082-.082,0,0Z" transform="translate(-1019.745 -929.612)"/></g><path class="e" d="M969.153,927.873a1.04,1.04,0,0,1-.492-.082l-.574-.328h0l-.656.082a1.053,1.053,0,0,1-.82-.328.787.787,0,0,1-.246-.821l.082-.656h0l-.246-.656a1.19,1.19,0,0,1,.082-.9.943.943,0,0,1,.738-.492l.656-.082h0l.492-.41a1.583,1.583,0,0,1,.82-.246,1.2,1.2,0,0,1,.738.492l.328.574h0l.574.328a1.2,1.2,0,0,1,.492.738,1.386,1.386,0,0,1-.246.821l-.492.492h0l-.164.656a.8.8,0,0,1-.574.656A3.217,3.217,0,0,1,969.153,927.873Zm-1.067-1.395a1.04,1.04,0,0,1,.492.082l.574.328h0l.164-.656.246-.492.492-.492h0l-.574-.328a.818.818,0,0,1-.328-.41l-.328-.574h0l-.492.41-.492.246-.656.082h0l.246.656a1.043,1.043,0,0,1,.082.492l-.082.656h.656Z" transform="translate(-10.724 -5.009)"/><g transform="translate(949.975 962.042)"><path d="M986.06,1000.141H968.02a.827.827,0,0,0-.839.839v.21a.827.827,0,0,0,.839.839h18.04a.89.89,0,0,0,.839-.734v-.315A.828.828,0,0,0,986.06,1000.141Z" transform="translate(-960.885 -980.908)"/><path d="M960.346,1009.409h13.536c.42,0,.735-.42.84-.839v-.315a.828.828,0,0,0-.84-.839H960.346a.828.828,0,0,0-.839.839v.315A.827.827,0,0,0,960.346,1009.409Z" transform="translate(-959.507 -982.214)"/><path d="M986.06,1014.945H968.02a.827.827,0,0,0-.839.839v.315a.828.828,0,0,0,.839.839h18.04c.419,0,.734-.42.839-.839v-.315A.827.827,0,0,0,986.06,1014.945Z" transform="translate(-960.885 -983.566)"/><path d="M986.06,1022.219H968.02a.827.827,0,0,0-.839.839v.315a.827.827,0,0,0,.839.839h18.04c.419,0,.734-.315.839-.839v-.315A.827.827,0,0,0,986.06,1022.219Z" transform="translate(-960.885 -984.872)"/><path d="M960.346,1002.03h3.043a.89.89,0,0,0,.839-.734v-.315a.827.827,0,0,0-.839-.839h-3.043a.828.828,0,0,0-.839.839v.21A.827.827,0,0,0,960.346,1002.03Z" transform="translate(-959.507 -980.908)"/><path d="M988.356,1007.415h-7.547a.828.828,0,0,0-.839.839v.315a.827.827,0,0,0,.839.839h7.547c.419,0,.734-.42.839-.839v-.315A.828.828,0,0,0,988.356,1007.415Z" transform="translate(-963.181 -982.214)"/><path d="M963.39,1014.945h-3.043a.827.827,0,0,0-.839.839v.315a.828.828,0,0,0,.839.839h3.043c.42,0,.734-.42.839-.839v-.315A.827.827,0,0,0,963.39,1014.945Z" transform="translate(-959.507 -983.566)"/><path d="M963.39,1022.219h-3.043a.828.828,0,0,0-.839.839v.315a.827.827,0,0,0,.839.839h3.043c.42,0,.734-.315.839-.839v-.315A.827.827,0,0,0,963.39,1022.219Z" transform="translate(-959.507 -984.872)"/><path d="M969.407,988.28a6.651,6.651,0,0,0,8.989,0,.81.81,0,0,0,.078-.072,6.664,6.664,0,1,0-9.144,0A.655.655,0,0,0,969.407,988.28Zm4.495.3a5.186,5.186,0,0,1-3.15-1.062,3.621,3.621,0,0,1,6.3,0A5.187,5.187,0,0,1,973.9,988.58Zm-1.158-5.505V982.6a1.159,1.159,0,0,1,2.318,0v.471a1.159,1.159,0,1,1-2.318,0Zm1.158-4.926a5.213,5.213,0,0,1,4.2,8.308,5.029,5.029,0,0,0-2.134-1.789,2.6,2.6,0,0,0,.545-1.593V982.6a2.608,2.608,0,0,0-5.216,0v.471a2.592,2.592,0,0,0,.545,1.593,5.024,5.024,0,0,0-2.134,1.789,5.212,5.212,0,0,1,4.2-8.308Z" transform="translate(-960.895 -976.7)"/></g></g></svg>