<svg xmlns="http://www.w3.org/2000/svg" xmlns:xlink="http://www.w3.org/1999/xlink" width="381.111" height="335.741" viewBox="0 0 381.111 335.741"><defs><style>.a,.p{fill:#d9eeff;}.a{opacity:0.2;}.b{fill:#737aff;}.c{fill:#f6f6f6;}.d{fill:#e6f9ff;}.e{fill:#909bfc;}.f{fill:#eefbff;opacity:0.7;}.g{fill:#cad3fc;}.ab,.h{fill:#fff;}.i{fill:#4b45b7;}.j{fill:#e9f3f7;}.k{fill:#e34249;}.l{fill:#c55055;}.m{fill:#afebd0;}.n{fill:#04a55b;}.o{fill:#08ce73;}.aa,.q{fill:#abd5fd;}.r{fill:#4c9fff;}.s{fill:#c1e4ff;}.t{fill:#ff5154;}.u{fill:#f2f7f9;}.v{fill:#f4474f;}.w{fill:#cad7dd;}.x{clip-path:url(#a);}.y{fill:#96abb2;}.z{fill:#dceaef;}.aa{opacity:0.263;}.ab,.ac,.ad,.ae,.af,.ag,.ah,.ai,.aj,.ak,.al,.am,.an,.ao,.ap,.aq{fill-rule:evenodd;}.ac{fill:#ffa495;}.ad{fill:#000d20;}.ae{fill:url(#b);}.af{fill:#0960ac;opacity:0.35;}.ag{fill:url(#c);}.ah{fill:#4c57b7;}.ai{fill:#060921;opacity:0.3;}.aj{fill:url(#d);}.ak{fill:url(#e);}.al{fill:#e7a376;}.am{fill:url(#f);}.an{fill:#ffb49c;}.ao{fill:#0ab7e4;}.ap{fill:url(#g);}.aq{fill:url(#h);}</style><clipPath id="a"><path d="M52.02,201c0-1.655,1.089-3.311,3.276-4.572a17.5,17.5,0,0,1,15.825,0c2.187,1.261,3.276,2.916,3.276,4.572h0v4.958h0c0,1.655-1.089,3.311-3.276,4.572a17.5,17.5,0,0,1-15.825,0c-2.187-1.261-3.276-2.916-3.276-4.572h0V201Z" transform="translate(-52.02 -194.535)"/></clipPath><linearGradient id="b" x1="0.436" y1="0.916" x2="0.497" y2="0.386" gradientUnits="objectBoundingBox"><stop offset="0" stop-color="#1c8ef4"/><stop offset="1" stop-color="#00cfdd"/></linearGradient><linearGradient id="c" x1="0.296" y1="0.221" x2="0.747" y2="0.779" gradientUnits="objectBoundingBox"><stop offset="0" stop-color="#3e4795"/><stop offset="1" stop-color="#273088"/></linearGradient><linearGradient id="d" x1="0.149" y1="0.22" x2="1.056" y2="0.742" xlink:href="#c"/><linearGradient id="e" x1="0.553" y1="0.938" x2="0.511" y2="0.402" xlink:href="#b"/><linearGradient id="f" x1="0.32" y1="0.284" x2="0.633" y2="0.644" gradientUnits="objectBoundingBox"><stop offset="0" stop-color="#ffb89e"/><stop offset="1" stop-color="#ffa799"/></linearGradient><linearGradient id="g" x1="0.427" y1="0.518" x2="0.331" y2="0.63" xlink:href="#f"/><linearGradient id="h" x1="0.48" y1="0.927" x2="0.501" y2="0.235" xlink:href="#b"/></defs><g transform="translate(-1680.871 -2433.508)"><path class="a" d="M1736.685,2731.64c74.417,35.537,195.069,35.538,269.485,0s74.417-93.157,0-128.7-195.07-35.538-269.487,0S1662.268,2696.1,1736.685,2731.64Z" transform="translate(0 10.955)"/><g transform="translate(1707.041 2592.019)"><path class="b" d="M68.6,234.566V175.435a6.073,6.073,0,0,1,2.745-4.76L99.358,154.5c1.518-.875,2.745-.163,2.745,1.587v59.131a6.073,6.073,0,0,1-2.745,4.76L71.345,236.152C69.827,237.027,68.6,236.315,68.6,234.566Z" transform="translate(-68.6 -154.124)"/><path class="c" d="M70.1,235.436V176.3a6.073,6.073,0,0,1,2.745-4.76l28.013-16.177c1.518-.875,2.745-.163,2.745,1.587v59.131a6.073,6.073,0,0,1-2.745,4.76L72.845,237.023C71.327,237.9,70.1,237.185,70.1,235.436Z" transform="translate(-68.813 -154.248)"/><path class="d" d="M72.843,171.871,98.1,157.29h0c-7.505,4.846-22.609,13.578-24.479,15.07s-2.865,2.453-2.865,7.256S70.09,232.5,70.09,232.5V176.632A6.091,6.091,0,0,1,72.843,171.871Z" transform="translate(-68.812 -154.574)"/><path class="e" d="M90.7,167.5a.77.77,0,0,0-.335.6v58.942c0,.223.146.326.335.214a.77.77,0,0,0,.335-.6V167.718C91.039,167.495,90.885,167.4,90.7,167.5Z" transform="translate(-71.698 -156.021)"/><g transform="translate(3.86 18.421)"><path class="f" d="M73.1,183.5h0a3.964,3.964,0,0,1,.043-.558c.009-.043.034-.18.034-.206a6.071,6.071,0,0,1,2.667-3.791l4.812-2.779c.017-.009.026-.009.043-.017a3.393,3.393,0,0,1,1.844-.54,3.439,3.439,0,0,1,3.439,3.439,3,3,0,0,1-.051.558c-.009.043-.026.146-.043.214a6.059,6.059,0,0,1-2.659,3.791l-4.812,2.779c-.017.009-.026.009-.043.017a3.4,3.4,0,0,1-1.853.54A3.454,3.454,0,0,1,73.1,183.5Z" transform="translate(-73.1 -175.601)"/><path class="g" d="M83.411,177.574a5.881,5.881,0,0,1-2.745,4.563l-4.812,2.779c-1.518.875-2.745.257-2.745-1.389a5.881,5.881,0,0,1,2.745-4.563l4.812-2.779C82.185,175.309,83.411,175.927,83.411,177.574Z" transform="translate(-73.101 -175.627)"/><path class="h" d="M84.29,175.6a3.437,3.437,0,0,1,3.294,3.431,3,3,0,0,1-.051.558c-.009.043-.026.146-.043.214a6.268,6.268,0,0,1-2.119,3.422c1.329-1.836,2.076-3.011,1.758-4.829A3.493,3.493,0,0,0,84.29,175.6Z" transform="translate(-74.692 -175.6)"/><path class="e" d="M76.7,186.143a2.486,2.486,0,0,0,1.338-.395l.069-.043.051-.026,4.769-2.753a4.352,4.352,0,0,0,2.273-3.74,2.489,2.489,0,0,0-2.487-2.487,2.437,2.437,0,0,0-1.329.395l-.1.06-.017.009-4.769,2.753a3.781,3.781,0,0,0-2.273,3.74A2.476,2.476,0,0,0,76.7,186.143Z" transform="translate(-73.259 -175.757)"/><path class="h" d="M82.716,177.822l-4.006,2.221c-.532.292-.746.763-.489,1.055a1.267,1.267,0,0,0,1.432-.009l4.066-2.264c.532-.292.738-.755.463-1.038A1.367,1.367,0,0,0,82.716,177.822Z" transform="translate(-73.813 -175.883)"/><path class="h" d="M77.4,182.443a.763.763,0,1,0-.763.763A.765.765,0,0,0,77.4,182.443Z" transform="translate(-73.494 -176.465)"/><path class="i" d="M77.589,184.429c.866-.463,3.045-1.647,5.515-3.148,2.419-1.475,1.75-3.216,1.235-3.851a2.455,2.455,0,0,1,.858,1.861,4.352,4.352,0,0,1-2.273,3.74l-4.769,2.753-.051.026-.069.043a2.483,2.483,0,0,1-3.825-2.093,4.953,4.953,0,0,1,.206-1.484C73.987,184.412,76.054,185.252,77.589,184.429Z" transform="translate(-73.258 -175.86)"/><path class="h" d="M76,180.39a7.059,7.059,0,0,1,.746-.463l4.769-2.753.017-.009.1-.06a2.458,2.458,0,0,1,1.329-.395,2.485,2.485,0,0,1,2.436,2.024,2.562,2.562,0,0,0-1.278-1.51,2.66,2.66,0,0,0-2.376.112C80.486,178.022,76,180.39,76,180.39Z" transform="translate(-73.513 -175.758)"/></g><g transform="translate(3.86 33.31)"><path class="f" d="M73.1,200.861h0a3.964,3.964,0,0,1,.043-.558c.009-.043.034-.18.034-.206a6.071,6.071,0,0,1,2.667-3.791l4.812-2.779c.017-.009.026-.009.043-.017a3.393,3.393,0,0,1,1.844-.54,3.439,3.439,0,0,1,3.439,3.439,3,3,0,0,1-.051.558c-.009.043-.026.146-.043.214a6.059,6.059,0,0,1-2.659,3.791l-4.812,2.779c-.017.009-.026.009-.043.017a3.4,3.4,0,0,1-1.853.54,3.46,3.46,0,0,1-3.422-3.448Z" transform="translate(-73.1 -192.961)"/><path class="g" d="M83.411,194.934a5.881,5.881,0,0,1-2.745,4.563l-4.812,2.779c-1.518.875-2.745.257-2.745-1.389a5.881,5.881,0,0,1,2.745-4.563l4.812-2.779C82.185,192.669,83.411,193.287,83.411,194.934Z" transform="translate(-73.101 -192.987)"/><path class="h" d="M84.29,192.96a3.437,3.437,0,0,1,3.294,3.431,3,3,0,0,1-.051.558c-.009.043-.026.146-.043.214a6.268,6.268,0,0,1-2.119,3.422c1.329-1.836,2.076-3.011,1.758-4.829A3.493,3.493,0,0,0,84.29,192.96Z" transform="translate(-74.692 -192.96)"/><path class="e" d="M76.7,203.5a2.487,2.487,0,0,0,1.338-.395l.069-.043.051-.026,4.769-2.753a4.352,4.352,0,0,0,2.273-3.74,2.489,2.489,0,0,0-2.487-2.487,2.437,2.437,0,0,0-1.329.395l-.1.06-.017.009-4.769,2.753a3.781,3.781,0,0,0-2.273,3.74A2.476,2.476,0,0,0,76.7,203.5Z" transform="translate(-73.259 -193.117)"/><path class="h" d="M82.716,195.181,78.711,197.4c-.532.292-.746.763-.489,1.055a1.267,1.267,0,0,0,1.432-.009l4.066-2.264c.532-.292.738-.755.463-1.038A1.349,1.349,0,0,0,82.716,195.181Z" transform="translate(-73.813 -193.243)"/><path class="h" d="M77.4,199.8a.763.763,0,1,0-.763.763A.765.765,0,0,0,77.4,199.8Z" transform="translate(-73.494 -193.825)"/><path class="i" d="M77.589,201.789c.866-.463,3.045-1.647,5.515-3.148,2.419-1.475,1.75-3.216,1.235-3.851a2.455,2.455,0,0,1,.858,1.861,4.352,4.352,0,0,1-2.273,3.74l-4.769,2.753-.051.026-.069.043a2.483,2.483,0,0,1-3.825-2.093,4.954,4.954,0,0,1,.206-1.484C73.987,201.772,76.054,202.612,77.589,201.789Z" transform="translate(-73.258 -193.22)"/><path class="h" d="M76,197.74a7.056,7.056,0,0,1,.746-.463l4.769-2.753.017-.009.1-.06a2.458,2.458,0,0,1,1.329-.395,2.485,2.485,0,0,1,2.436,2.024,2.562,2.562,0,0,0-1.278-1.51,2.66,2.66,0,0,0-2.376.112C80.486,195.381,76,197.74,76,197.74Z" transform="translate(-73.513 -193.117)"/></g><g transform="translate(3.86 48.2)"><path class="f" d="M73.1,218.221h0a3.964,3.964,0,0,1,.043-.558c.009-.043.034-.18.034-.206a6.071,6.071,0,0,1,2.667-3.791l4.812-2.779c.017-.009.026-.009.043-.017a3.393,3.393,0,0,1,1.844-.54,3.439,3.439,0,0,1,3.439,3.439,3,3,0,0,1-.051.558c-.009.043-.026.146-.043.214a6.059,6.059,0,0,1-2.659,3.791l-4.812,2.779c-.017.009-.026.009-.043.017a3.4,3.4,0,0,1-1.853.54,3.46,3.46,0,0,1-3.422-3.448Z" transform="translate(-73.1 -210.321)"/><path class="g" d="M83.411,212.293a5.881,5.881,0,0,1-2.745,4.563l-4.812,2.779c-1.518.875-2.745.257-2.745-1.389a5.881,5.881,0,0,1,2.745-4.563l4.812-2.779C82.185,210.02,83.411,210.646,83.411,212.293Z" transform="translate(-73.101 -210.346)"/><path class="h" d="M84.29,210.32a3.437,3.437,0,0,1,3.294,3.431,3,3,0,0,1-.051.558c-.009.043-.026.146-.043.214a6.268,6.268,0,0,1-2.119,3.422c1.329-1.836,2.076-3.011,1.758-4.829A3.481,3.481,0,0,0,84.29,210.32Z" transform="translate(-74.692 -210.32)"/><path class="e" d="M76.7,220.853a2.487,2.487,0,0,0,1.338-.395l.069-.043.051-.026,4.769-2.753A4.352,4.352,0,0,0,85.2,213.9a2.489,2.489,0,0,0-2.487-2.487,2.437,2.437,0,0,0-1.329.395l-.1.06-.017.009-4.769,2.753a3.781,3.781,0,0,0-2.273,3.74A2.476,2.476,0,0,0,76.7,220.853Z" transform="translate(-73.259 -210.475)"/><path class="h" d="M82.716,212.541l-4.006,2.221c-.532.292-.746.763-.489,1.055a1.267,1.267,0,0,0,1.432-.009l4.066-2.264c.532-.292.738-.755.463-1.038A1.332,1.332,0,0,0,82.716,212.541Z" transform="translate(-73.813 -210.602)"/><path class="h" d="M77.4,217.153a.763.763,0,1,0-.763.763A.765.765,0,0,0,77.4,217.153Z" transform="translate(-73.494 -211.184)"/><path class="i" d="M77.589,219.139c.866-.463,3.045-1.647,5.515-3.148,2.419-1.475,1.75-3.216,1.235-3.851A2.455,2.455,0,0,1,85.2,214a4.352,4.352,0,0,1-2.273,3.74l-4.769,2.753-.051.026-.069.043a2.483,2.483,0,0,1-3.825-2.093,4.954,4.954,0,0,1,.206-1.484C73.987,219.13,76.054,219.962,77.589,219.139Z" transform="translate(-73.258 -210.579)"/><path class="h" d="M76,215.1a7.061,7.061,0,0,1,.746-.463l4.769-2.753.017-.009.1-.06a2.458,2.458,0,0,1,1.329-.395,2.485,2.485,0,0,1,2.436,2.024,2.562,2.562,0,0,0-1.278-1.51,2.66,2.66,0,0,0-2.376.112C80.486,212.741,76,215.1,76,215.1Z" transform="translate(-73.513 -210.477)"/></g><g transform="translate(3.86 63.09)"><path class="f" d="M73.1,235.571h0a3.964,3.964,0,0,1,.043-.558c.009-.043.034-.18.034-.206a6.071,6.071,0,0,1,2.667-3.791l4.812-2.779c.017-.009.026-.009.043-.017a3.393,3.393,0,0,1,1.844-.54,3.439,3.439,0,0,1,3.439,3.439,3,3,0,0,1-.051.558c-.009.043-.026.146-.043.214a6.059,6.059,0,0,1-2.659,3.791l-4.812,2.779c-.017.009-.026.009-.043.017a3.4,3.4,0,0,1-1.853.54,3.448,3.448,0,0,1-3.422-3.448Z" transform="translate(-73.1 -227.68)"/><path class="g" d="M83.411,229.644a5.881,5.881,0,0,1-2.745,4.563l-4.812,2.779c-1.518.875-2.745.257-2.745-1.39a5.881,5.881,0,0,1,2.745-4.563l4.812-2.779C82.185,227.38,83.411,228.006,83.411,229.644Z" transform="translate(-73.101 -227.705)"/><path class="h" d="M84.29,227.68a3.437,3.437,0,0,1,3.294,3.431,3,3,0,0,1-.051.558c-.009.043-.026.146-.043.214a6.268,6.268,0,0,1-2.119,3.422c1.329-1.836,2.076-3.011,1.758-4.829A3.47,3.47,0,0,0,84.29,227.68Z" transform="translate(-74.692 -227.68)"/><path class="e" d="M76.7,238.213a2.487,2.487,0,0,0,1.338-.395l.069-.043.051-.026L82.926,235a4.352,4.352,0,0,0,2.273-3.74,2.489,2.489,0,0,0-2.487-2.487,2.437,2.437,0,0,0-1.329.395l-.1.06-.017.009-4.769,2.753a3.781,3.781,0,0,0-2.273,3.74A2.476,2.476,0,0,0,76.7,238.213Z" transform="translate(-73.259 -227.835)"/><path class="h" d="M82.716,229.892l-4.006,2.221c-.532.292-.746.763-.489,1.055a1.267,1.267,0,0,0,1.432-.009L83.72,230.9c.532-.292.738-.755.463-1.038A1.367,1.367,0,0,0,82.716,229.892Z" transform="translate(-73.813 -227.962)"/><path class="h" d="M77.4,234.513a.763.763,0,1,0-.763.763A.765.765,0,0,0,77.4,234.513Z" transform="translate(-73.494 -228.544)"/><path class="i" d="M77.589,236.5c.866-.463,3.045-1.647,5.515-3.148,2.419-1.475,1.75-3.216,1.235-3.851a2.455,2.455,0,0,1,.858,1.861,4.352,4.352,0,0,1-2.273,3.74l-4.769,2.753-.051.026-.069.043a2.483,2.483,0,0,1-3.825-2.093,4.953,4.953,0,0,1,.206-1.484C73.987,236.49,76.054,237.322,77.589,236.5Z" transform="translate(-73.258 -227.939)"/><path class="h" d="M76,232.46a7.061,7.061,0,0,1,.746-.463l4.769-2.753.017-.009.1-.06a2.458,2.458,0,0,1,1.329-.395A2.485,2.485,0,0,1,85.4,230.8a2.562,2.562,0,0,0-1.278-1.51,2.66,2.66,0,0,0-2.376.111C80.486,230.092,76,232.46,76,232.46Z" transform="translate(-73.513 -227.837)"/></g><g transform="translate(21.906 8.102)"><path class="f" d="M94.14,171.471h0a3.964,3.964,0,0,1,.043-.558c.009-.043.034-.18.034-.206a6.071,6.071,0,0,1,2.667-3.791l4.812-2.779c.017-.009.026-.009.043-.017a3.393,3.393,0,0,1,1.844-.54,3.439,3.439,0,0,1,3.439,3.439,3,3,0,0,1-.051.558c-.009.043-.026.146-.043.214a6.059,6.059,0,0,1-2.659,3.791l-4.812,2.779c-.017.009-.026.009-.043.017a3.4,3.4,0,0,1-1.853.54,3.454,3.454,0,0,1-3.422-3.448Z" transform="translate(-94.14 -163.571)"/><path class="g" d="M104.451,165.543a5.881,5.881,0,0,1-2.745,4.563l-4.812,2.779c-1.518.875-2.745.257-2.745-1.389a5.881,5.881,0,0,1,2.745-4.563l4.812-2.779C103.225,163.27,104.451,163.9,104.451,165.543Z" transform="translate(-94.141 -163.596)"/><path class="h" d="M105.33,163.57A3.437,3.437,0,0,1,108.624,167a3,3,0,0,1-.051.558c-.009.043-.026.146-.043.214a6.268,6.268,0,0,1-2.119,3.422c1.329-1.836,2.076-3.011,1.758-4.829A3.47,3.47,0,0,0,105.33,163.57Z" transform="translate(-95.732 -163.57)"/><path class="e" d="M97.739,174.1a2.487,2.487,0,0,0,1.338-.395l.069-.043.051-.026,4.769-2.753a4.352,4.352,0,0,0,2.273-3.74,2.489,2.489,0,0,0-2.487-2.487,2.437,2.437,0,0,0-1.329.395l-.1.06-.017.009-4.769,2.753a3.781,3.781,0,0,0-2.273,3.74A2.476,2.476,0,0,0,97.739,174.1Z" transform="translate(-94.299 -163.725)"/><path class="h" d="M103.756,165.782,99.751,168c-.532.292-.746.763-.489,1.055a1.267,1.267,0,0,0,1.432-.009l4.066-2.264c.532-.292.738-.755.463-1.038A1.366,1.366,0,0,0,103.756,165.782Z" transform="translate(-94.853 -163.852)"/><path class="h" d="M98.437,170.4a.763.763,0,1,0-.763.763A.765.765,0,0,0,98.437,170.4Z" transform="translate(-94.534 -164.434)"/><path class="i" d="M98.629,172.389c.866-.463,3.045-1.647,5.515-3.148,2.419-1.475,1.75-3.216,1.235-3.851a2.455,2.455,0,0,1,.858,1.861,4.352,4.352,0,0,1-2.273,3.74L99.2,173.744l-.051.026-.069.043a2.483,2.483,0,0,1-3.825-2.093,4.953,4.953,0,0,1,.206-1.484C95.018,172.38,97.086,173.212,98.629,172.389Z" transform="translate(-94.298 -163.829)"/><path class="h" d="M97.03,168.35a7.06,7.06,0,0,1,.746-.463l4.769-2.753.017-.009.1-.06a2.458,2.458,0,0,1,1.329-.395,2.485,2.485,0,0,1,2.436,2.024,2.562,2.562,0,0,0-1.278-1.51,2.66,2.66,0,0,0-2.376.112c-1.252.695-5.747,3.053-5.747,3.053Z" transform="translate(-94.551 -163.727)"/></g><g transform="translate(21.906 22.992)"><path class="f" d="M94.14,188.821h0a3.964,3.964,0,0,1,.043-.557c.009-.043.034-.18.034-.206a6.071,6.071,0,0,1,2.667-3.791l4.812-2.779c.017-.009.026-.009.043-.017a3.393,3.393,0,0,1,1.844-.54,3.439,3.439,0,0,1,3.439,3.439,3,3,0,0,1-.051.558c-.009.043-.026.146-.043.214a6.059,6.059,0,0,1-2.659,3.791l-4.812,2.779c-.017.009-.026.009-.043.017a3.4,3.4,0,0,1-1.853.54,3.443,3.443,0,0,1-3.422-3.448Z" transform="translate(-94.14 -180.93)"/><path class="g" d="M104.451,182.894a5.881,5.881,0,0,1-2.745,4.563l-4.812,2.779c-1.518.875-2.745.257-2.745-1.389a5.881,5.881,0,0,1,2.745-4.563l4.812-2.779C103.225,180.63,104.451,181.256,104.451,182.894Z" transform="translate(-94.141 -180.955)"/><path class="h" d="M105.33,180.93a3.437,3.437,0,0,1,3.294,3.431,3,3,0,0,1-.051.558c-.009.043-.026.146-.043.214a6.268,6.268,0,0,1-2.119,3.422c1.329-1.835,2.076-3.011,1.758-4.829A3.47,3.47,0,0,0,105.33,180.93Z" transform="translate(-95.732 -180.93)"/><path class="e" d="M97.739,191.463a2.487,2.487,0,0,0,1.338-.395l.069-.043L99.2,191l4.769-2.753a4.352,4.352,0,0,0,2.273-3.74,2.489,2.489,0,0,0-2.487-2.487,2.437,2.437,0,0,0-1.329.395l-.1.06-.017.009-4.769,2.753a3.781,3.781,0,0,0-2.273,3.74A2.476,2.476,0,0,0,97.739,191.463Z" transform="translate(-94.299 -181.085)"/><path class="h" d="M103.756,183.142l-4.006,2.221c-.532.292-.746.763-.489,1.055a1.267,1.267,0,0,0,1.432-.009l4.066-2.264c.532-.292.738-.755.463-1.038A1.367,1.367,0,0,0,103.756,183.142Z" transform="translate(-94.853 -181.212)"/><circle class="h" cx="0.763" cy="0.763" r="0.763" transform="translate(2.376 5.206)"/><path class="i" d="M98.629,189.749c.866-.463,3.045-1.647,5.515-3.148,2.419-1.475,1.75-3.216,1.235-3.851a2.455,2.455,0,0,1,.858,1.861,4.352,4.352,0,0,1-2.273,3.74L99.2,191.1l-.051.026-.069.043a2.483,2.483,0,0,1-3.825-2.093,4.953,4.953,0,0,1,.206-1.484C95.018,189.732,97.086,190.572,98.629,189.749Z" transform="translate(-94.298 -181.189)"/><path class="h" d="M97.03,185.71a7.06,7.06,0,0,1,.746-.463l4.769-2.753.017-.009.1-.06a2.458,2.458,0,0,1,1.329-.395,2.485,2.485,0,0,1,2.436,2.024,2.562,2.562,0,0,0-1.278-1.51,2.66,2.66,0,0,0-2.376.111c-1.252.686-5.747,3.053-5.747,3.053Z" transform="translate(-94.551 -181.087)"/></g><g transform="translate(21.906 37.882)"><path class="f" d="M94.14,206.181h0a3.964,3.964,0,0,1,.043-.558c.009-.043.034-.18.034-.206a6.071,6.071,0,0,1,2.667-3.791l4.812-2.779c.017-.009.026-.009.043-.017a3.393,3.393,0,0,1,1.844-.54,3.439,3.439,0,0,1,3.439,3.439,3,3,0,0,1-.051.558c-.009.043-.026.146-.043.214a6.059,6.059,0,0,1-2.659,3.791l-4.812,2.779c-.017.009-.026.009-.043.017a3.4,3.4,0,0,1-1.853.54,3.448,3.448,0,0,1-3.422-3.448Z" transform="translate(-94.14 -198.29)"/><path class="g" d="M104.451,200.254a5.881,5.881,0,0,1-2.745,4.563L96.895,207.6c-1.518.875-2.745.257-2.745-1.389a5.881,5.881,0,0,1,2.745-4.563l4.812-2.779C103.225,197.99,104.451,198.616,104.451,200.254Z" transform="translate(-94.141 -198.315)"/><path class="h" d="M105.33,198.29a3.437,3.437,0,0,1,3.294,3.431,3,3,0,0,1-.051.558c-.009.043-.026.146-.043.214a6.268,6.268,0,0,1-2.119,3.422c1.329-1.836,2.076-3.011,1.758-4.829A3.47,3.47,0,0,0,105.33,198.29Z" transform="translate(-95.732 -198.29)"/><path class="e" d="M97.739,208.823a2.486,2.486,0,0,0,1.338-.395l.069-.043.051-.026,4.769-2.753a4.352,4.352,0,0,0,2.273-3.74,2.489,2.489,0,0,0-2.487-2.487,2.436,2.436,0,0,0-1.329.395l-.1.06-.017.009L97.533,202.6a3.781,3.781,0,0,0-2.273,3.74A2.476,2.476,0,0,0,97.739,208.823Z" transform="translate(-94.299 -198.445)"/><path class="h" d="M103.756,200.5l-4.006,2.221c-.532.292-.746.763-.489,1.055a1.267,1.267,0,0,0,1.432-.009l4.066-2.264c.532-.292.738-.755.463-1.038A1.367,1.367,0,0,0,103.756,200.5Z" transform="translate(-94.853 -198.572)"/><circle class="h" cx="0.763" cy="0.763" r="0.763" transform="translate(2.376 5.206)"/><path class="i" d="M98.629,207.109c.866-.463,3.045-1.647,5.515-3.148,2.419-1.475,1.75-3.216,1.235-3.851a2.455,2.455,0,0,1,.858,1.861,4.352,4.352,0,0,1-2.273,3.74L99.2,208.464l-.051.026-.069.043a2.483,2.483,0,0,1-3.825-2.093,4.953,4.953,0,0,1,.206-1.484C95.018,207.092,97.086,207.932,98.629,207.109Z" transform="translate(-94.298 -198.549)"/><path class="h" d="M97.03,203.07a7.054,7.054,0,0,1,.746-.463l4.769-2.753.017-.009.1-.06a2.458,2.458,0,0,1,1.329-.395,2.485,2.485,0,0,1,2.436,2.024,2.562,2.562,0,0,0-1.278-1.51,2.66,2.66,0,0,0-2.376.111c-1.252.686-5.747,3.053-5.747,3.053Z" transform="translate(-94.551 -198.446)"/></g><g transform="translate(21.906 52.763)"><path class="f" d="M94.14,223.541h0a3.963,3.963,0,0,1,.043-.557c.009-.043.034-.18.034-.206a6.071,6.071,0,0,1,2.667-3.791l4.812-2.779c.017-.009.026-.009.043-.017a3.393,3.393,0,0,1,1.844-.54,3.439,3.439,0,0,1,3.439,3.439,3,3,0,0,1-.051.557c-.009.043-.026.146-.043.214a6.059,6.059,0,0,1-2.659,3.791l-4.812,2.779c-.017.009-.026.009-.043.017a3.4,3.4,0,0,1-1.853.54,3.448,3.448,0,0,1-3.422-3.448Z" transform="translate(-94.14 -215.641)"/><path class="g" d="M104.451,217.614a5.881,5.881,0,0,1-2.745,4.563l-4.812,2.779c-1.518.875-2.745.257-2.745-1.389A5.881,5.881,0,0,1,96.895,219l4.812-2.779C103.225,215.349,104.451,215.967,104.451,217.614Z" transform="translate(-94.141 -215.667)"/><path class="h" d="M105.33,215.64a3.437,3.437,0,0,1,3.294,3.431,3,3,0,0,1-.051.557c-.009.043-.026.146-.043.214a6.268,6.268,0,0,1-2.119,3.422c1.329-1.836,2.076-3.011,1.758-4.829A3.493,3.493,0,0,0,105.33,215.64Z" transform="translate(-95.732 -215.64)"/><path class="e" d="M97.739,226.183a2.486,2.486,0,0,0,1.338-.395l.069-.043.051-.026,4.769-2.753a4.352,4.352,0,0,0,2.273-3.74,2.489,2.489,0,0,0-2.487-2.487,2.436,2.436,0,0,0-1.329.395l-.1.06-.017.009-4.769,2.753a3.781,3.781,0,0,0-2.273,3.74A2.476,2.476,0,0,0,97.739,226.183Z" transform="translate(-94.299 -215.797)"/><path class="h" d="M103.756,217.862l-4.006,2.221c-.532.292-.746.763-.489,1.055a1.267,1.267,0,0,0,1.432-.009l4.066-2.264c.532-.292.738-.755.463-1.038A1.366,1.366,0,0,0,103.756,217.862Z" transform="translate(-94.853 -215.923)"/><circle class="h" cx="0.763" cy="0.763" r="0.763" transform="translate(2.376 5.215)"/><path class="i" d="M98.629,224.469c.866-.463,3.045-1.647,5.515-3.148,2.419-1.475,1.75-3.216,1.235-3.851a2.456,2.456,0,0,1,.858,1.861,4.352,4.352,0,0,1-2.273,3.74L99.2,225.824l-.051.026-.069.043A2.483,2.483,0,0,1,95.25,223.8a4.953,4.953,0,0,1,.206-1.484C95.018,224.452,97.086,225.292,98.629,224.469Z" transform="translate(-94.298 -215.9)"/><path class="h" d="M97.03,220.43a7.055,7.055,0,0,1,.746-.463l4.769-2.753.017-.009.1-.06a2.458,2.458,0,0,1,1.329-.395,2.485,2.485,0,0,1,2.436,2.024,2.562,2.562,0,0,0-1.278-1.51,2.66,2.66,0,0,0-2.376.112c-1.252.686-5.747,3.053-5.747,3.053Z" transform="translate(-94.551 -215.798)"/></g></g><g transform="translate(1728.067 2664.554)"><path class="j" d="M116.628,244.042l9.143-5.026a4.441,4.441,0,0,0,2.3-3.74h0a4.446,4.446,0,0,0-6.579-4.048l-9.143,5.026a4.441,4.441,0,0,0-2.3,3.74h0A4.443,4.443,0,0,0,116.628,244.042Z" transform="translate(-110.041 -229.386)"/><g transform="translate(6.647)"><path class="k" d="M130.594,231.529h0a4.771,4.771,0,0,1-1.7,6.484l-5.258,2.925a2.355,2.355,0,0,0,.969-2.161,7.4,7.4,0,0,0-3.319-5.807,2.312,2.312,0,0,0-2.367-.232l5.258-2.925A4.67,4.67,0,0,1,130.594,231.529Z" transform="translate(-117.951 -229.172)"/><g transform="translate(0 3.336)"><path class="l" d="M121.127,233.523c-1.836-1.072-3.337-.214-3.337,1.921a7.381,7.381,0,0,0,3.319,5.807c1.836,1.072,3.337.214,3.345-1.921A7.436,7.436,0,0,0,121.127,233.523Z" transform="translate(-117.79 -233.062)"/></g></g><path class="j" d="M112.219,236.746l3.7-2.033,1.8-.986a.6.6,0,0,1,.343-.077c2.29.266,5.747,3.808,4.143,7.6a.59.59,0,0,1-.266.292l-1.5.823-3.68,2.024a4.534,4.534,0,0,1-6.716-3.971h0A4.219,4.219,0,0,1,112.219,236.746Z" transform="translate(-110.04 -229.809)"/><path class="h" d="M115.666,237.206a.666.666,0,0,1,.472.772c-.077.36-.42.48-.686.7a4.721,4.721,0,0,0-1.424,2.033,5.177,5.177,0,0,1-.369.961c-.729,1.209-2.616.274-2.539-.986a3.377,3.377,0,0,1,1.3-2.153,4.977,4.977,0,0,1,2.8-1.415A1.288,1.288,0,0,1,115.666,237.206Z" transform="translate(-110.193 -230.303)"/></g><g transform="translate(1925.576 2592.325)"><path class="m" d="M1924.518,2635.262s-4.732-7.653-5.189-15.983,1.371-11.79,3.88-12.783,2.7,2.065,3.994,3.877,3.917.774,4.886-4.86,4.521-15.181,11.869-17c8.117-2.01,3.763,7.511,1.725,11.225s-3.626,8.774-2.282,10.151,3.426-1.167,5.425,1.192c2.412,2.848-5.087,13.088-9.389,15.571Z" transform="translate(-1919.259 -2588.233)"/><path class="h" d="M1930.15,2631.634h-.028a.54.54,0,0,1-.512-.569,77.957,77.957,0,0,1,12.114-37.655.541.541,0,1,1,.88.63,76.823,76.823,0,0,0-11.914,37.082A.54.54,0,0,1,1930.15,2631.634Z" transform="translate(-1918.409 -2587.826)"/><path class="h" d="M1931.064,2623.394a.549.549,0,0,1-.262-.068c-3.031-1.677-4.708-6.653-4.778-6.865a.541.541,0,0,1,1.027-.34c.016.048,1.617,4.787,4.276,6.258a.541.541,0,0,1-.263,1.015Z" transform="translate(-1918.706 -2585.975)"/><path class="h" d="M1931.212,2620.345a.541.541,0,0,1-.133-1.065c7.81-1.975,10.515-6.069,10.542-6.11a.541.541,0,0,1,.912.581c-.115.183-2.926,4.488-11.188,6.577A.566.566,0,0,1,1931.212,2620.345Z" transform="translate(-1918.322 -2586.206)"/></g><g transform="translate(1761.968 2561.09)"><g transform="translate(24.656)"><path class="n" d="M1818.34,2621.425s-10.376-2.53-10.916-21.959c-.583-20.973,2.542-45.438-9.7-47.428s-19.1,13.015-18.947,30.453c.137,15.311,6.3,48.531,39.558,55.041Z" transform="translate(-1778.779 -2551.86)"/><path class="h" d="M1817.445,2635.006a.6.6,0,0,1-.1-.009c-7.484-1.364-13.574-5.48-18.1-12.235-13.444-20.056-9.209-57.492-7.817-64.031a.541.541,0,0,1,1.058.225c-1.375,6.466-5.576,43.461,7.658,63.2,4.36,6.5,10.212,10.463,17.4,11.771a.542.542,0,0,1-.1,1.074Z" transform="translate(-1777.883 -2551.331)"/></g><g transform="translate(0 36.542)"><path class="o" d="M1820.212,2682.641c-10.729,1.454-28.156,1.429-38.192-6.489s-7.95-14.74-4.089-17.586,7.214-6.1.573-12.414-17.32-16.467-20.772-31.693-1.753-24.743,5.042-27.916c6.593-3.079,8.33,1.812,12.365,11.9s13.118,1.439,20.882,4.588,7.46,9.381,7.949,14.74,3.055,6.839,7.45,6.839,8.79,2.538,8.791,7.614Z" transform="translate(-1755.993 -2585.629)"/><path class="h" d="M1819.383,2663.394a.53.53,0,0,1-.146-.02c-.464-.13-11.56-3.36-27.709-18.194-17.2-15.8-25.325-39.5-25.4-39.731a.541.541,0,0,1,1.025-.348c.079.236,8.119,23.672,25.112,39.282,15.933,14.635,27.157,17.917,27.269,17.949a.541.541,0,0,1-.146,1.062Z" transform="translate(-1755.164 -2584.06)"/><path class="h" d="M1794.115,2647.858a.539.539,0,0,1-.5-.345c-3.472-8.924-4.259-28-4.292-28.807a.543.543,0,0,1,.52-.562.566.566,0,0,1,.563.519c.008.2.812,19.7,4.217,28.457a.539.539,0,0,1-.307.7A.528.528,0,0,1,1794.115,2647.858Z" transform="translate(-1753.257 -2582.96)"/><path class="h" d="M1793.93,2657.84a26.877,26.877,0,0,1-2.986-.149.541.541,0,0,1-.474-.6.535.535,0,0,1,.6-.473c.1.01,10.168,1.148,14.792-3.567a.541.541,0,1,1,.772.756C1803.253,2657.258,1797.455,2657.84,1793.93,2657.84Z" transform="translate(-1753.163 -2580.108)"/></g></g><path class="p" d="M2002.2,2441.006l-1.786,1.031a9.251,9.251,0,0,0,.245-1.939c0-3.619-2.542-5.087-5.678-3.276a10.164,10.164,0,0,0-2.524,2.169v-.027c0-4.873-3.421-6.849-7.641-4.412a16.893,16.893,0,0,0-7.643,13.236c0,.248.015.483.033.716a4.65,4.65,0,0,0-3.1.722,12.546,12.546,0,0,0-5.678,9.832,6.321,6.321,0,0,0,.144,1.365l-.952.549c-2.588,1.495-4.685,4.41-4.685,6.512s2.1,2.595,4.685,1.1l34.584-19.967c2.588-1.494,4.686-4.409,4.686-6.512S2004.787,2439.511,2002.2,2441.006Z" transform="translate(22.405 0)"/><g transform="translate(1825.996 2477.479)"><path class="h" d="M1908.14,2476.652c0-1.793-1.258-2.519-2.811-1.624l-10.375,5.991-76.307,44.056a6.211,6.211,0,0,0-2.811,4.87v161c0,1.794,1.259,2.519,2.81,1.623l76.334-44.071,10.349-5.974a6.218,6.218,0,0,0,2.811-4.87Z" transform="translate(-1815.295 -2474.102)"/><path class="p" d="M1817.432,2693.046a1.985,1.985,0,0,1-1-.261,2.485,2.485,0,0,1-1.093-2.289v-161a6.721,6.721,0,0,1,3.082-5.338l76.307-44.056.541.937-76.307,44.057a5.707,5.707,0,0,0-2.541,4.4v161a1.192,1.192,0,0,0,2,1.156l76.334-44.072.541.936-76.334,44.073A3.091,3.091,0,0,1,1817.432,2693.046Z" transform="translate(-1815.336 -2473.654)"/><path class="p" d="M1889.27,2649l-.541-.936,10.349-5.973a5.718,5.718,0,0,0,2.541-4.4v-161a1.193,1.193,0,0,0-2-1.155l-10.375,5.99-.541-.937,10.375-5.99a2.241,2.241,0,0,1,3.622,2.092v161a6.725,6.725,0,0,1-3.082,5.338Z" transform="translate(-1809.313 -2474.143)"/><g transform="translate(10.8 37.564)"><g transform="translate(18.311)"><path class="q" d="M1859.821,2511.258c9.711-5.606,17.582-1.061,17.582,10.151s-7.871,24.845-17.582,30.452-17.582,1.061-17.582-10.151S1850.11,2516.863,1859.821,2511.258Z" transform="translate(-1842.239 -2508.857)"/><path class="p" d="M1858.92,2519.29c3.15-1.82,5.7-.345,5.7,3.293a12.609,12.609,0,0,1-5.7,9.879c-3.15,1.819-5.705.344-5.705-3.294A12.607,12.607,0,0,1,1858.92,2519.29Z" transform="translate(-1841.338 -2508.064)"/><path class="p" d="M1870.428,2537.662c0-5.976-4.2-8.4-9.371-5.41l-3.235,1.868c-5.175,2.989-9.371,10.256-9.371,16.231v1.609c2.991.993,6.758.455,10.86-1.914a34.646,34.646,0,0,0,11.117-11Z" transform="translate(-1841.729 -2507.041)"/></g><g transform="translate(0 43.85)"><path class="r" d="M1827.19,2572.46l22.625-13.062c1.036-.6,1.874-.113,1.874,1.082v.747a4.14,4.14,0,0,1-1.874,3.246l-22.625,13.063c-1.035.6-1.873.113-1.873-1.082v-.748A4.145,4.145,0,0,1,1827.19,2572.46Z" transform="translate(-1825.317 -2548.579)"/><path class="s" d="M1826.254,2589.03l68.453-39.521c.518-.3.937-.057.937.541v7.987a2.071,2.071,0,0,1-.937,1.623l-68.453,39.521c-.517.3-.937.056-.937-.541v-7.987A2.071,2.071,0,0,1,1826.254,2589.03Z" transform="translate(-1825.317 -2549.38)"/><path class="r" d="M1827.19,2605.293l22.625-13.062c1.036-.6,1.874-.113,1.874,1.083v.747a4.14,4.14,0,0,1-1.874,3.246l-22.625,13.063c-1.035.6-1.873.112-1.873-1.082v-.748A4.144,4.144,0,0,1,1827.19,2605.293Z" transform="translate(-1825.317 -2545.884)"/><path class="s" d="M1826.254,2621.863l68.453-39.523c.518-.3.937-.056.937.541v7.987a2.069,2.069,0,0,1-.937,1.623l-68.453,39.522c-.517.3-.937.057-.937-.541v-7.986A2.073,2.073,0,0,1,1826.254,2621.863Z" transform="translate(-1825.317 -2546.685)"/><path class="r" d="M1851.564,2624.248l27.019-15.6c1.036-.6,1.875-.113,1.875,1.082v8.361a4.144,4.144,0,0,1-1.875,3.246l-27.019,15.6c-1.036.6-1.875.112-1.875-1.083v-8.361A4.144,4.144,0,0,1,1851.564,2624.248Z" transform="translate(-1823.316 -2544.536)"/></g></g></g><g transform="translate(1750.894 2643.014)"><path class="t" d="M52.77,206.68c0-1.561,1.029-3.122,3.088-4.306a16.516,16.516,0,0,1,14.924,0c2.059,1.192,3.088,2.745,3.088,4.306h0v17.935h0c0,1.561-1.029,3.122-3.088,4.306a16.516,16.516,0,0,1-14.924,0c-2.059-1.192-3.088-2.745-3.088-4.306h0V206.68Z" transform="translate(-52.127 -195.397)"/><path class="u" d="M57.062,202.1v27.524c-.335-.154-.66-.309-.969-.489a7.774,7.774,0,0,1-1.673-1.269V203.858a7.992,7.992,0,0,1,1.673-1.269A9.316,9.316,0,0,1,57.062,202.1Z" transform="translate(-52.361 -195.611)"/><path class="v" d="M54.18,227.707h0c1.964,1.836,6.845,2.839,10.473,2.127s5.824-3.028,5.824-4.675V202.37c.172.086.335.172.5.257,2.059,1.192,3.088,2.745,3.088,4.306v17.935c0,1.561-1.029,3.122-3.088,4.306a16.516,16.516,0,0,1-14.924,0A8.016,8.016,0,0,1,54.18,227.707Z" transform="translate(-52.327 -195.65)"/><path class="v" d="M75.564,212.5c0,1.561-1.3,3.285-3.354,4.477a15.426,15.426,0,0,1-7.531,1.613v8.037a15.473,15.473,0,0,0,7.531-1.75c2.059-1.192,3.354-2.916,3.354-4.477Z" transform="translate(-53.821 -197.091)"/><path class="v" d="M74.409,225.818V203.74a4.536,4.536,0,0,1,1.784,3.388v17.935c0,1.561-1.029,3.122-3.088,4.306A13.155,13.155,0,0,1,69.1,230.81C73.063,229.737,74.409,227.036,74.409,225.818Z" transform="translate(-54.45 -195.845)"/><path class="v" d="M71.237,212.72a17.5,17.5,0,0,1-15.825,0,7.271,7.271,0,0,1-2.642-2.436v-3.448a3.622,3.622,0,0,1,.18-1.124,7.74,7.74,0,0,1,2.453-2.136,17.5,17.5,0,0,1,15.825,0,7.534,7.534,0,0,1,2.453,2.136,3.622,3.622,0,0,1,.18,1.124v3.448A7.209,7.209,0,0,1,71.237,212.72Z" transform="translate(-52.127 -195.552)"/><path class="w" d="M52.02,201c0-1.655,1.089-3.311,3.276-4.572a17.5,17.5,0,0,1,15.825,0c2.187,1.261,3.276,2.916,3.276,4.572h0v4.958h0c0,1.655-1.089,3.311-3.276,4.572a17.5,17.5,0,0,1-15.825,0c-2.187-1.261-3.276-2.916-3.276-4.572h0V201Z" transform="translate(-52.02 -194.535)"/><g class="x"><g transform="translate(-0.266 6.008)"><rect class="y" width="0.54" height="7.719"/></g></g><ellipse class="u" cx="11.193" cy="6.459" rx="11.193" ry="6.459" transform="translate(0 0.004)"/><path class="z" d="M54.7,205.184c-3.748-2.539-3.551-6.356.6-8.757a16.133,16.133,0,0,1,7.694-1.887,12.683,12.683,0,0,1,4.083,1.389c3.774,2.161,3.774,6.476,0,8.629C63.712,206.5,58.471,206.694,54.7,205.184Z" transform="translate(-52.021 -194.536)"/><path class="u" d="M75.62,213.11c0,1.561-1.029,3.122-3.088,4.306A15.217,15.217,0,0,1,65.07,219.2v7.908a15.217,15.217,0,0,0,7.462-1.784c2.059-1.192,3.088-2.745,3.088-4.306Z" transform="translate(-53.877 -197.178)"/><path class="h" d="M73.549,204s-3.637,3.662-10.67,3.474-9.847-4.031-10.215-5.223a4.379,4.379,0,0,1,.952-4.048,4.656,4.656,0,0,0-1.587,3.319v4.958c0,.42-.214,1.861,2.05,3.731a5.491,5.491,0,0,1-1.329-2.968v-3.431s2.487,4.16,10.13,4.16S73.163,204.624,73.549,204Z" transform="translate(-52.021 -195.056)"/></g><g transform="translate(1875.074 2560.267)"><ellipse class="aa" cx="23.501" cy="11.202" rx="23.501" ry="11.202" transform="translate(25.301 129.954)"/><g transform="translate(48.817 134.423)"><path class="ab" d="M290.523,303.343c-.7-.017-3.062-2.23-5.292-1.115-2.685,1.347-7.779.154-10.353.772-.455.112-1.355-.223-1.535.086-.558.986-1.089,2.462.275,3.422a22.98,22.98,0,0,0,4.563,2.144,38.111,38.111,0,0,0,5.764,1.63c1.9.3,2.762.42,3.474.969a5.006,5.006,0,0,0,2.65.635,4.471,4.471,0,0,0,3.379-2.359,10,10,0,0,0-.026-3.74,19.975,19.975,0,0,0-1.192-3.268Z" transform="translate(-272.756 -297.785)"/><path class="ac" d="M287.07,297.889c.849,2.041.592,5.2,2.6,6.287a3,3,0,0,0,4.374-1.355c.515-1.166-.172-3.156-.017-5.721Z" transform="translate(-274.793 -297.1)"/><path class="ad" d="M284.517,301.411c-1.544.446-5.8.146-8.491.369-1.158.094-2.2.086-2.736,1.132-.5.969-.24,1.793.892,2.59a18.78,18.78,0,0,0,4.117,2.016,37.828,37.828,0,0,0,5.764,1.63c1.9.3,2.762.42,3.474.969a5.006,5.006,0,0,0,2.65.635,4.657,4.657,0,0,0,3.379-2.513,9.216,9.216,0,0,0-.026-3.594,5.566,5.566,0,0,0-.2-.763c-.214-2.024-.883-2.848-1.51-2.5a3.855,3.855,0,0,0-1.518,2.033,1.958,1.958,0,0,1-1.175,1.115,2.314,2.314,0,0,1-2.582-1.132,7.511,7.511,0,0,1-.712-2.05v-.206c-.206-1.767-1.064-1.613-.935-1.244A1.542,1.542,0,0,1,284.517,301.411Z" transform="translate(-272.798 -297.465)"/><path class="ab" d="M273.8,303.06c.017.686-1.029.746-.729,1.956-.506-.5.2-1.913.515-2.127C273.714,302.795,273.825,302.76,273.8,303.06Z" transform="translate(-272.776 -297.914)"/></g><g transform="translate(32.212 126.129)"><path class="ab" d="M270.228,294.36c-.652-.257-2.1-3.148-4.589-2.865a12.679,12.679,0,0,1-4.246-.609c-2.607-.738-6.244-3.071-6.862-2.693-1.355.832-1.458,2.35-.515,3.723a18.926,18.926,0,0,0,3.165,3.311,33.045,33.045,0,0,0,4.469,3.4c1.432.8,1.913.729,2.933,2.1a4.855,4.855,0,0,0,2.273,1.441,5.408,5.408,0,0,0,4.434-1.664c.5-1.6,1.355-3.122.806-5.532Z" transform="translate(-253.397 -287.533)"/><path class="ac" d="M268.906,287.43c.043,2.2-1.364,5.043.1,6.8a3,3,0,0,0,4.563.352c.909-.892,1-3,2.084-5.326Z" transform="translate(-255.523 -287.43)"/><path class="ad" d="M262.1,290.184c-.146-.043-.3-.077-.446-.12-2.607-.738-6.09-2.539-6.716-2.153-1.355.832-1.6,1.81-.66,3.191a18.927,18.927,0,0,0,3.165,3.311,33.815,33.815,0,0,0,4.469,3.405c1.432.8,1.913.729,2.933,2.1a4.854,4.854,0,0,0,2.273,1.441,5.557,5.557,0,0,0,4.5-1.673,13.373,13.373,0,0,0,.918-3.834c.214-1.964.086-2.968-.772-2.942a4.693,4.693,0,0,0-2.9,1.3c-1.415.883-2.359-.257-2.59-1.664a8.2,8.2,0,0,1,.129-1.861,1.868,1.868,0,0,1,.077-.2c.463-1.724-.395-1.9-.412-1.5a1.471,1.471,0,0,1-1.312,1.5A12.055,12.055,0,0,1,262.1,290.184Z" transform="translate(-253.441 -287.491)"/><path class="ab" d="M255.077,288.127c-.274.626-1.252.232-1.492,1.45-.24-.66,1-1.638,1.381-1.7C255.112,287.844,255.232,287.861,255.077,288.127Z" transform="translate(-253.419 -287.492)"/></g><path class="ae" d="M299.822,192.775c-5.189,6.021-5.266,6.484-15.4,12.437l-1.93-3.791c3.4-6.965,4.417-7.891,8.835-13.312a51.5,51.5,0,0,1-10.387-9.769c-6.6-8.817-2.942-14.95,2.77-13.706,4.983,1.081,12.746,13.972,16.974,21.237C302.447,188.907,302.867,189.233,299.822,192.775Z" transform="translate(-224.602 -143.806)"/><path class="af" d="M289.624,186.886a51.3,51.3,0,0,1-8.68-8.517c-6.6-8.817-2.745-14.77,2.959-13.526C286.888,165.752,292.206,172.056,289.624,186.886Z" transform="translate(-224.611 -143.836)"/><g transform="translate(44.05 59.724)"><path class="ag" d="M270.245,216.76c-.575,6.4-3.783,26.838-2.891,32.447,1.338,8.44.961,18.63.944,27.584.223,3.765,5.4,5.73,6.9,3.337,1.209-8,2.933-15.01,3.628-19.462.781-4.983.523-11.03-.738-14.307a169.965,169.965,0,0,1,4.992-19.187c.738-2.307,4.9-9.761.592-17.163Z" transform="translate(-267.198 -210.01)"/><path class="ah" d="M268.39,285.08c0,.66.017,1.673.017,2.324.223,3.765,5.464,5.807,6.973,3.414.086-.592.214-1.175.309-1.75C273.665,291.247,269.694,288.417,268.39,285.08Z" transform="translate(-267.368 -220.691)"/><path class="ai" d="M267.22,246.8c1.69,8.466,6.459,19.762,9.066,28.27,1.355-7.291,4.752-19.7,1.818-27.3.292-2.033,1.209-5.9,2.324-10.035-2.256-4.28-.1-7.694-1.166-13.723-5.978-1.038,3.045-8.337-9.606-.652C268.524,232.446,267.46,238.15,267.22,246.8Z" transform="translate(-267.202 -211.415)"/></g><g transform="translate(37.449 63.61)"><path class="aj" d="M269.561,254.072c3.448,7.805,9.812,23.124,13.192,32.7,1.75,2.547,7.994,2.282,7.985-.094-1.381-8.011-3-20.362-5.875-27.4a62.7,62.7,0,0,0-5.3-8.86c-.909-3.534-2.05-13.089-2.933-18.252.789-4.271,4.237-11.425-2.384-17.635-2.676,1.9-10.936,3.088-14.684.969C258.96,232.406,263.1,239.448,269.561,254.072Z" transform="translate(-259.503 -214.54)"/><path class="ah" d="M285.8,296.81c.154.42.455,1.261.592,1.664,1.8,2.616,8.225,2.35,8.217-.094-.069-.395-.137-.806-.206-1.218C292.868,298.723,288.236,298.748,285.8,296.81Z" transform="translate(-263.244 -226.246)"/></g><path class="ak" d="M283.6,187.316c-.558,5.018.952,9.95-.583,14.53-.069.472-.112,2.333-.2,2.839-1.012,5.935-13.561,11.939-24.033,6.244-.06-.738.009-1.5-.051-2.865.2-1.269-.36-2.633-.352-3.414.017-3.225,1.021-4.88.54-8.474-.978-7.308-5.026-14.332-2.788-20.088a6.056,6.056,0,0,1,2.281-2.6c2.47-1.99,15.267-8.5,19.144-8.963C288.827,163.069,284.213,181.878,283.6,187.316Z" transform="translate(-221.481 -143.803)"/><path class="af" d="M258.722,195.947c-.437-1.913-1.055-4.117-1.621-6.356-1.132-4.494-2.059-9.178-.926-12.077a6.056,6.056,0,0,1,2.282-2.6c2.47-1.99,2.1,3.345,5.978,2.891.618.823.429,2.685.223,4.46C263.92,188.691,260.841,197.937,258.722,195.947Z" transform="translate(-221.507 -145.229)"/><path class="al" d="M262.672,161.321c.712.352,4.323-.163,4.22.163-.051,1.621-.532,2.6-.686,4.812,3.971-.558,9.186-1.132,9.392-4.177-.017-.24-.034-.489-.043-.729-.009-.026-.009-.051-.017-.086h.009a5.385,5.385,0,0,1,.317-2.607c.841-1.364,2.573-2.873,3.182-4.94.978-3.294.626-6.956-2.453-9.4-5.609-4.46-12.789-1.287-14.607,5.232-.352,1.269.652,1.964.618,3.053-.009.214-.292.437-.515.909C261.772,154.211,261.8,160.892,262.672,161.321Z" transform="translate(-222.395 -140.648)"/><path class="am" d="M262.709,161.287c.712.352,4.289-.12,4.186.2-.052,1.621-.532,2.6-.686,4.812,2.307.566,8.534-.266,9.461-3.765a21.7,21.7,0,0,1,.206-3.834c.841-1.364,2.573-2.873,3.182-4.94.978-3.294.626-6.956-2.453-9.4-5.609-4.46-12.789-1.287-14.607,5.232-.352,1.269.652,1.964.618,3.053-.009.214-.292.437-.515.909C261.774,154.211,261.834,160.858,262.709,161.287Z" transform="translate(-222.398 -140.648)"/><path class="an" d="M267.648,159.044c-.3-.832-.051-1.141.317-1.046a2.359,2.359,0,0,1,1.269,1.544c.48,1.389-.206,3.156-1.552,2.47,1.158.069,1.046-1.329.7-2.187C268.154,159.224,267.785,158.812,267.648,159.044Z" transform="translate(-223.194 -142.883)"/><path class="ad" d="M275.629,142.524a15.508,15.508,0,0,0-6.218-1.552c-1.973-1.124-5.112-.592-6.116,1.089a4.3,4.3,0,0,0-.2,4v.009c.043.077.086.163.129.232a3.806,3.806,0,0,0,1.561,1.458l.077.043a.722.722,0,0,1-.051.12c-.8,2.1-.781,3.036-.463,3.5,1.167,1.664,1.261,2,1.218,4.246a5.209,5.209,0,0,1-.866,2.745,3.892,3.892,0,0,1-1.372.446l-.789.129s-.257.034-.36.051c-.051.009-.06-.377-.154-.369-.043,1.106-.06,2.582.189,2.676a9.011,9.011,0,0,0,3.156-.643c1-.4.7-.626.8-1.81.06-.755.069-1.578.137-2.4.335-1.861,1.235-1.681,2.119-.995,1.6,1.244,2.23,4.066,4.906,4.623a2.352,2.352,0,0,0,2.376-.866c.935-1.956,2.8-3.311,3.568-5.9C280.432,149.463,279.489,144.514,275.629,142.524Z" transform="translate(-222.409 -140.378)"/><path class="ao" d="M275.974,164.78c1.089.335,2.179,1.407,1.981,2.127-1.081,4.417-9.28,5.249-14.315,4.186-.06-.009,1.956-2.659,2.925-2.968C269.721,168.434,275,167.387,275.974,164.78Z" transform="translate(-222.642 -143.85)"/><g transform="translate(0 22.123)"><path class="ap" d="M228.878,176.729c-1.072-.986-1.878-2.187-3.088-3.474-2.136-2.273-6.081-4.752-8.7-6.887-.918-.746-1.707.823-.943,1.578.746.746,2.779,2.633,2.788,2.642.034.017.06.043.094.06a4.979,4.979,0,0,0-1.149,3.062c-.026,1.269,2.359,3.371,3.825,4.846,1.3,1.3,3.422.549,4.271,1.552C227.848,179.653,228.337,178.35,228.878,176.729Z" transform="translate(-215.842 -166.171)"/><path class="aq" d="M242.876,187.091c-2.7-2.642-6.527-6.116-9.015-7.316a10.274,10.274,0,0,1-2.059-.952c-.446-.412-1.1-1.021-1.347-1.227-1.124.343-2.513,1.921-3.4,3.431.437.566.875,1.175,1.3,1.8.317.472.412,1.69.729,2.179,1.956,3.053,6.536,6.965,9.023,9.709a10.655,10.655,0,0,0,3.654,3.053,7.707,7.707,0,0,0,3.174-.051c.172-.009.343-.026.523-.051l.36-.283a3.174,3.174,0,0,0,1.038-.841c.6-.489,1.227-1.012,1.81-1.518A77.069,77.069,0,0,0,258.735,184.6c4.023-5.455.918-10.361-3.045-10.524-3.405-.146-6.158,4.357-7.942,6.647C246.127,182.785,244.317,185.153,242.876,187.091Z" transform="translate(-217.438 -167.296)"/></g></g></g></svg>