<svg xmlns="http://www.w3.org/2000/svg" xmlns:xlink="http://www.w3.org/1999/xlink" width="306.25" height="306.25" viewBox="0 0 306.25 306.25"><defs><style>.a{fill:none;}.b,.x{fill:#4375f1;}.c,.z{fill:#e2b187;}.d{fill:#edba8f;}.e{fill:#dc466f;}.al,.f{fill:#838bc0;}.g{fill:#819fde;}.aq,.h{fill:#e7b59d;}.i{fill:#c4accc;}.j{fill:#efd6a3;}.k{opacity:0.433;}.l{opacity:0.44;}.m,.u{fill:#becbfc;}.n{opacity:0.38;}.o{opacity:0.18;}.p{clip-path:url(#a);}.q,.u{opacity:0.8;}.r{fill:#4375fa;}.s{clip-path:url(#b);}.t{clip-path:url(#c);}.v{clip-path:url(#d);}.w{fill:#507cc7;opacity:0.4;}.ab,.ad,.al,.aq,.ax,.ba,.w,.x,.z{mix-blend-mode:multiply;isolation:isolate;}.x{opacity:0.5;}.y{clip-path:url(#e);}.ad,.z{opacity:0.31;}.aa{clip-path:url(#f);}.ab{fill:#af703f;opacity:0.28;}.ac{clip-path:url(#g);}.ad{fill:#a172ae;}.ae{clip-path:url(#h);}.af{fill:#43464a;}.ag{fill:#c22373;}.ah{fill:#fff;}.ai{fill:#e79d90;}.aj{fill:#cbcfd6;}.ak{clip-path:url(#i);}.al{opacity:0.61;}.am{clip-path:url(#j);}.an{fill:#cdbdf9;}.ao{fill:#6daaa3;}.ap{clip-path:url(#k);}.aq{opacity:0.45;}.ar{fill:#2e5271;}.as{fill:#61002f;}.at{fill:#effdff;}.au{fill:#e19f9d;}.av{fill:#9a6253;}.aw{clip-path:url(#l);}.ax{fill:#606060;}.ax,.ba{opacity:0.22;}.ay{fill:#e1e8ff;}.az{clip-path:url(#m);}.ba{fill:#e6b851;}</style><clipPath id="a"><circle class="a" cx="7.658" cy="7.658" r="7.658" transform="translate(0 14.902) rotate(-76.654)"/></clipPath><clipPath id="b"><circle class="a" cx="11.654" cy="11.654" r="11.654"/></clipPath><clipPath id="c"><circle class="a" cx="8.657" cy="8.657" r="8.657" transform="translate(0 17.089) rotate(-80.747)"/></clipPath><clipPath id="d"><path class="b" d="M333.22,253.344c-5.73-14-12.251-16.619-12.251-16.619s.2-.274.533-.764a14.309,14.309,0,0,1,6.4,5.677.175.175,0,0,0,.3-.176,14.7,14.7,0,0,0-6.5-5.8c.14-.214.3-.456.463-.725a24.165,24.165,0,0,1,5.823,2.088c.2.1.379-.2.177-.3a24.784,24.784,0,0,0-5.806-2.1c3.547-5.831,11.17-21.894-11.151-23.731a12.808,12.808,0,0,1,5.238-3.153c.211-.075.12-.414-.093-.337a13.369,13.369,0,0,0-5.249,3.092,17.983,17.983,0,0,1,.915-2.878c.084-.209-.255-.3-.337-.093a17.6,17.6,0,0,0-.974,3.155c-.348-.327-1.143-1.052-2.281-1.957a18.131,18.131,0,0,0-2.037-2.509c-3.8-3.923-9.145-5.236-14.476-4.718a.178.178,0,0,0-.157.129,14.229,14.229,0,0,0-9.5,3.433c-3.737,3.122-4.269,7.909-3.316,12.511.057.731.19,1.439.266,1.909a26.686,26.686,0,0,0,3.9,9.649c-2.282.385-6.4,1.762-5.543,6.662,1.172,6.708,6.692,15.164.151,16.044s-9.69,15.858,13.468,29.842,45.18.743,36.044-10.335C327.229,271.339,338.951,267.342,333.22,253.344Zm-53.422-32.7a24.914,24.914,0,0,0,4.744,8.331,9.674,9.674,0,0,0-1.057.092A28.142,28.142,0,0,1,279.8,220.644ZM306.274,206.6c.4.426.8.884,1.17,1.365-3.225-2.419-8.351-5.57-13.827-6.222A16.477,16.477,0,0,1,306.274,206.6Z" transform="translate(-272.961 -201.386)"/></clipPath><clipPath id="e"><path class="c" d="M284.256,268.019l-2.1-3.734s-6.092.6-8.306,3.185-16.257,28.278-16.257,28.278-6.082,2.888-11.089,5.351a8.287,8.287,0,0,1,3.5,4.976c4.394-1.588,10.143-4.01,12.22-5.5,0,0,13.559-10.38,15.035-17.391S284.256,268.019,284.256,268.019Z" transform="translate(-246.503 -264.285)"/></clipPath><clipPath id="f"><path class="d" d="M302.673,247.047s1.107,4.059-3.69,8.856l-2.583,4.8,5.535,6.273,5.535,1.845,11.808-13.653-5.166-3.321-1.476-15.129Z" transform="translate(-296.4 -236.714)"/></clipPath><clipPath id="g"><path class="e" d="M296.081,259.948s2.192,6.278,13.262-1.84c0,0,6.9,3.681,8.789,4.835,4.2,2.567,5.092,2.138,6.2,6.2l-9.822,32.51,3.321,12.915-35.437.059,3.145-14.358a11.748,11.748,0,0,0-3.641-9.558c-5.065-4.9,1.728-13.006,7.069-27.766C289.406,261.723,296.081,259.948,296.081,259.948Z" transform="translate(-280.112 -258.108)"/></clipPath><clipPath id="h"><path class="d" d="M304.4,211.823s-10.267,7.7-8.915,19.546c.618,5.413,1.841,7.107,4.015,8.687,2.566,1.867,11.12.7,13.354-3.6l1.18-3.5s2.093,1.875,4.2-.918,1.66-7.229-1.381-5.14l1.888-5.594-1.849-4.908Z" transform="translate(-295.358 -211.823)"/></clipPath><clipPath id="i"><path class="f" d="M156.92,259.027l1.368,39.965a4.6,4.6,0,0,0,4.6,4.445h57.472a4.6,4.6,0,0,0,4.6-4.76l-1.368-39.965a4.6,4.6,0,0,0-4.6-4.445H161.519A4.6,4.6,0,0,0,156.92,259.027Z" transform="translate(-156.917 -254.267)"/></clipPath><clipPath id="j"><circle class="g" cx="48.555" cy="48.555" r="48.555" transform="translate(0 97.064) rotate(-88.237)"/></clipPath><clipPath id="k"><path class="h" d="M130.451,153.554l-.475,11.243,10.394,6.893a.678.678,0,0,0,1.035-.444l1.713-9.141-10.134-12.352Z" transform="translate(-129.976 -149.753)"/></clipPath><clipPath id="l"><path class="i" d="M292.734,96.471H379.6a2.748,2.748,0,0,1,2.748,2.747v21.915a2.749,2.749,0,0,1-1.209,2.276L367.245,132.8a.924.924,0,0,1-1.4-1.035l2.778-9.169H292.734a2.747,2.747,0,0,1-2.747-2.747V99.218A2.747,2.747,0,0,1,292.734,96.471Z" transform="translate(-289.987 -96.471)"/></clipPath><clipPath id="m"><path class="j" d="M338.346,139.74H243.84a2.989,2.989,0,0,0-2.989,2.989v23.843a2.989,2.989,0,0,0,1.315,2.477l15.114,10.212a1.006,1.006,0,0,0,1.526-1.126l-3.022-9.975h82.562a2.989,2.989,0,0,0,2.989-2.989V142.729A2.989,2.989,0,0,0,338.346,139.74Z" transform="translate(-240.851 -139.74)"/></clipPath></defs><g class="k" transform="translate(-36.94 -25.028)"><g class="l" transform="translate(36.94 25.028)"><g transform="translate(44.513 44.513)"><path class="m" d="M208.5,305.2a108.612,108.612,0,1,1,76.8-31.812A107.9,107.9,0,0,1,208.5,305.2Zm0-216.921A108.309,108.309,0,1,0,285.083,120,107.6,107.6,0,0,0,208.5,88.275Z" transform="translate(-99.885 -87.972)"/></g><g transform="translate(31.583 31.583)"><path class="m" d="M203.143,312.773a121.155,121.155,0,1,1,47.31-9.551A120.783,120.783,0,0,1,203.143,312.773Zm0-242.745a120.825,120.825,0,1,0,47.178,9.525A120.446,120.446,0,0,0,203.143,70.027Z" transform="translate(-81.601 -69.688)"/></g><g transform="translate(67.249 67.248)"><path class="m" d="M217.911,291.874a85.611,85.611,0,1,1,33.427-6.749A85.343,85.343,0,0,1,217.911,291.874Zm0-171.512a85.364,85.364,0,1,0,33.334,6.73A85.1,85.1,0,0,0,217.911,120.362Z" transform="translate(-132.035 -120.122)"/></g><g class="n" transform="translate(16.305 16.304)"><path class="m" d="M196.817,321.724a136.392,136.392,0,1,1,53.257-10.752A135.965,135.965,0,0,1,196.817,321.724Zm0-273.258a136.009,136.009,0,1,0,53.108,10.722A135.589,135.589,0,0,0,196.817,48.466Z" transform="translate(-59.996 -48.083)"/></g><g class="o"><path class="m" d="M190.065,331.278a153.165,153.165,0,0,1-59.6-294.216A153.165,153.165,0,0,1,249.669,319.244,152.173,152.173,0,0,1,190.065,331.278Zm0-305.822A152.737,152.737,0,0,0,130.629,318.85,152.737,152.737,0,0,0,249.5,37.455,151.748,151.748,0,0,0,190.065,25.456Z" transform="translate(-36.94 -25.028)"/></g><g transform="translate(11.753 11.752)"><path class="m" d="M194.932,324.392a140.936,140.936,0,1,1,55.029-11.11A140.481,140.481,0,0,1,194.932,324.392Zm0-282.351A140.534,140.534,0,1,0,249.807,53.12,140.1,140.1,0,0,0,194.932,42.041Z" transform="translate(-53.559 -41.646)"/></g><g transform="translate(134.917 35.361)"><g class="p"><g class="q" transform="translate(-3.192 -3.192)"><circle class="m" cx="10.348" cy="10.348" r="10.348" transform="matrix(0.225, -0.974, 0.974, 0.225, 0, 20.164)"/></g><g transform="translate(3.109 3.43)"><g transform="translate(6.018 16.037)"><path class="r" d="M240.72,102.566l-.046-.008-.045.008Z" transform="translate(-240.629 -102.558)"/></g><path class="g" d="M244.245,92.827c-.091-1.96-1.276-3.237-2.1-3.146a16.374,16.374,0,0,1-2.735-.182,2.251,2.251,0,0,1-.122-1.1,4.565,4.565,0,0,0,1.7-3.382.83.83,0,0,0,.508-.607c.122-.4.031-.786-.2-.856a.322.322,0,0,0-.265.048c.013-2.107-.058-3.716-2.8-3.716-2.6,0-2.788,1.588-2.8,3.673a.317.317,0,0,0-.239-.081c-.242.029-.4.391-.348.809s.288.732.53.7a.269.269,0,0,0,.087-.026,4.7,4.7,0,0,0,1.6,3.365,2.33,2.33,0,0,1-.114,1.175,16.377,16.377,0,0,1-2.735.182c-.82-.091-2.006,1.185-2.1,3.146-.086,1.862,5.5,2.984,6.063,3.091C238.742,95.81,244.332,94.689,244.245,92.827Z" transform="translate(-232.119 -79.881)"/></g></g></g><g transform="translate(73.215 242.358)"><g class="s"><g class="q" transform="translate(-4.093 -4.093)"><circle class="m" cx="15.746" cy="15.746" r="15.746"/></g><g transform="translate(2.357 2.844)"><g transform="translate(9.158 24.404)"><path class="r" d="M156.893,406.283l-.069-.013-.069.013Z" transform="translate(-156.754 -406.27)"/></g><path class="g" d="M162.257,391.462c-.139-2.983-1.943-4.926-3.191-4.786a24.944,24.944,0,0,1-4.162-.278,3.434,3.434,0,0,1-.185-1.68,6.949,6.949,0,0,0,2.592-5.148,1.262,1.262,0,0,0,.774-.923c.185-.612.047-1.2-.309-1.3a.491.491,0,0,0-.4.073c.019-3.206-.088-5.655-4.267-5.655-3.95,0-4.243,2.416-4.261,5.59a.485.485,0,0,0-.363-.124c-.369.045-.606.6-.53,1.231s.437,1.115.806,1.07a.418.418,0,0,0,.133-.04,7.157,7.157,0,0,0,2.441,5.121,3.546,3.546,0,0,1-.173,1.788,24.944,24.944,0,0,1-4.162.278c-1.248-.139-3.052,1.8-3.191,4.786-.132,2.834,8.375,4.54,9.226,4.7C153.883,396,162.389,394.3,162.257,391.462Z" transform="translate(-143.804 -371.761)"/></g></g></g><g transform="translate(261.39 114.887)"><g class="t"><g class="q" transform="translate(-3.654 -3.654)"><circle class="m" cx="11.697" cy="11.697" r="11.697" transform="matrix(0.178, -0.984, 0.984, 0.178, 0, 23.022)"/></g><g transform="translate(3.03 3.392)"><g transform="translate(6.803 18.129)"><path class="r" d="M420.572,217.928l-.052-.01-.052.01Z" transform="translate(-420.469 -217.918)"/></g><path class="g" d="M424.557,206.917c-.1-2.216-1.443-3.659-2.37-3.556a18.52,18.52,0,0,1-3.092-.206,2.553,2.553,0,0,1-.137-1.248,5.161,5.161,0,0,0,1.925-3.824.936.936,0,0,0,.575-.685c.138-.455.035-.889-.229-.969a.37.37,0,0,0-.3.054c.014-2.381-.065-4.2-3.17-4.2-2.935,0-3.152,1.795-3.165,4.152a.362.362,0,0,0-.27-.092c-.274.033-.45.443-.393.914s.325.828.6.795a.3.3,0,0,0,.1-.029,5.317,5.317,0,0,0,1.814,3.8,2.636,2.636,0,0,1-.129,1.328,18.513,18.513,0,0,1-3.092.206c-.927-.1-2.267,1.339-2.37,3.556-.1,2.1,6.221,3.373,6.853,3.494C418.336,210.29,424.655,209.022,424.557,206.917Z" transform="translate(-410.849 -192.283)"/></g></g></g><g transform="translate(36.256 193.413)"><path class="g" d="M95.534,302.19a3.662,3.662,0,1,1-3.662-3.662A3.662,3.662,0,0,1,95.534,302.19Z" transform="translate(-88.209 -298.528)"/></g><g transform="translate(270.993 158.452)"><path class="g" d="M427.469,252.753a3.662,3.662,0,1,1-3.662-3.662A3.663,3.663,0,0,1,427.469,252.753Z" transform="translate(-420.144 -249.091)"/></g><g transform="translate(184.468 34.302)"><path class="g" d="M301.863,77.247a2.287,2.287,0,1,1-.359-3.213A2.286,2.286,0,0,1,301.863,77.247Z" transform="translate(-297.791 -73.534)"/></g><g transform="translate(172.148 257.052)"><path class="g" d="M284.91,390.417a2.286,2.286,0,1,1-2.641-1.866A2.286,2.286,0,0,1,284.91,390.417Z" transform="translate(-280.37 -388.518)"/></g><g transform="translate(131.527 290.681)"><path class="g" d="M227.469,437.971a2.286,2.286,0,1,1-2.641-1.866A2.287,2.287,0,0,1,227.469,437.971Z" transform="translate(-222.929 -436.072)"/></g><g transform="translate(289.683 177.142)"><path class="g" d="M451.113,277.418a2.286,2.286,0,1,1-2.641-1.866A2.287,2.287,0,0,1,451.113,277.418Z" transform="translate(-446.573 -275.519)"/></g><g transform="translate(58.942 42.293)"><path class="g" d="M124.828,86.733a2.286,2.286,0,1,1-2.641-1.867A2.287,2.287,0,0,1,124.828,86.733Z" transform="translate(-120.288 -84.833)"/></g></g><path class="u" d="M313.613,204.78a98.98,98.98,0,1,0-175.452,62.845H291.1A98.572,98.572,0,0,0,313.613,204.78Z" transform="translate(-23.049 -23.652)"/><g transform="translate(109.258 149.744)"><g transform="translate(94.591)"><path class="b" d="M333.22,253.344c-5.73-14-12.251-16.619-12.251-16.619s.2-.274.533-.764a14.309,14.309,0,0,1,6.4,5.677.175.175,0,0,0,.3-.176,14.7,14.7,0,0,0-6.5-5.8c.14-.214.3-.456.463-.725a24.165,24.165,0,0,1,5.823,2.088c.2.1.379-.2.177-.3a24.784,24.784,0,0,0-5.806-2.1c3.547-5.831,11.17-21.894-11.151-23.731a12.808,12.808,0,0,1,5.238-3.153c.211-.075.12-.414-.093-.337a13.369,13.369,0,0,0-5.249,3.092,17.983,17.983,0,0,1,.915-2.878c.084-.209-.255-.3-.337-.093a17.6,17.6,0,0,0-.974,3.155c-.348-.327-1.143-1.052-2.281-1.957a18.131,18.131,0,0,0-2.037-2.509c-3.8-3.923-9.145-5.236-14.476-4.718a.178.178,0,0,0-.157.129,14.229,14.229,0,0,0-9.5,3.433c-3.737,3.122-4.269,7.909-3.316,12.511.057.731.19,1.439.266,1.909a26.686,26.686,0,0,0,3.9,9.649c-2.282.385-6.4,1.762-5.543,6.662,1.172,6.708,6.692,15.164.151,16.044s-9.69,15.858,13.468,29.842,45.18.743,36.044-10.335C327.229,271.339,338.951,267.342,333.22,253.344Zm-53.422-32.7a24.914,24.914,0,0,0,4.744,8.331,9.674,9.674,0,0,0-1.057.092A28.142,28.142,0,0,1,279.8,220.644ZM306.274,206.6c.4.426.8.884,1.17,1.365-3.225-2.419-8.351-5.57-13.827-6.222A16.477,16.477,0,0,1,306.274,206.6Z" transform="translate(-272.961 -201.386)"/><g class="v"><path class="w" d="M310.443,233.187s-2.526,1.286-3.092,2.441.6,8.39.6,8.39l14.7,11.666s3.967,30.334-5.834,38.5-45.967-28.7-45.967-28.7l10.267-13.067,9.567-3.034,1.634-7s-10.263-4.86-1.982-21.563h0l20.105,12.366" transform="translate(-272.344 -204.903)"/><path class="x" d="M298.423,219.679l-5.133-.927s1.866,2.8,7,1.634-1.866-.706-1.866-.706" transform="translate(-278.914 -206.471)"/></g></g><g transform="translate(75.88 44.481)"><path class="c" d="M284.256,268.019l-2.1-3.734s-6.092.6-8.306,3.185-16.257,28.278-16.257,28.278-6.082,2.888-11.089,5.351a8.287,8.287,0,0,1,3.5,4.976c4.394-1.588,10.143-4.01,12.22-5.5,0,0,13.559-10.38,15.035-17.391S284.256,268.019,284.256,268.019Z" transform="translate(-246.503 -264.285)"/><g class="y"><path class="z" d="M280.342,298s-5.6-4.433,3.033-15.866c7.869-10.422,6.534,3.266,6.534,3.266l-5.747,12.518Z" transform="translate(-255.889 -268.365)"/></g></g><path class="c" d="M235.031,316.342c-6.255,3.077-13.382,6.583-13.791,6.788-.738.369-6.643-1.476-7.38-1.107a50.661,50.661,0,0,1-6.273,2.952c-1.476.369,3.69,1.107,5.9,0s2.952,1.107,4.8,1.477,2.952.738,4.059,0c0,0,8.514-2.362,16.183-5.133A8.287,8.287,0,0,0,235.031,316.342Z" transform="translate(-159.151 -235.047)"/><g transform="translate(111.166 24.983)"><path class="d" d="M302.673,247.047s1.107,4.059-3.69,8.856l-2.583,4.8,5.535,6.273,5.535,1.845,11.808-13.653-5.166-3.321-1.476-15.129Z" transform="translate(-296.4 -236.714)"/><g class="aa"><path class="ab" d="M304.145,251.424s10.267-.467,10.5-6.767S302.978,248.857,304.145,251.424Z" transform="translate(-298.644 -238.459)"/></g></g><g transform="translate(99.648 40.113)"><path class="e" d="M296.081,259.948s2.192,6.278,13.262-1.84c0,0,6.9,3.681,8.789,4.835,4.2,2.567,5.092,2.138,6.2,6.2l-9.822,32.51,3.321,12.915-35.437.059,3.145-14.358a11.748,11.748,0,0,0-3.641-9.558c-5.065-4.9,1.728-13.006,7.069-27.766C289.406,261.723,296.081,259.948,296.081,259.948Z" transform="translate(-280.112 -258.108)"/><g class="ac"><path class="ad" d="M313.072,282.1s-6.3,8.167-5.6,23.8c0,0-19.433,6.69-27.683,6.261s1.083,5.638,1.083,5.638,23.333,1.775,34.067-5.646-1.867-30.054-1.867-30.054" transform="translate(-279.021 -265.134)"/></g></g><path class="d" d="M274.884,322.8l-9.136-3.886-3.811-2.862a1.212,1.212,0,0,0-.84-.238l-4.4.4a.961.961,0,0,0-.49.19c-.769.584-3.265,2.511-2.639,2.511a7.005,7.005,0,0,0,3.322-1.107s3.321,0,3.69-.369a14.025,14.025,0,0,0,2.213,1.845c.738.369.369,0,.369,0l-4.94,1.5a1.167,1.167,0,0,0-.626.458c-.622.9-2.322,3.346-2.921,3.945,0,0,1.845.738,3.321-1.476s5.535-2.214,5.9-1.845c0,0-5.166,2.952-6.643,5.9,0,0,.7,1.814,1.845.368a12.62,12.62,0,0,1,6.273-4.059l-2.1,2.4a.723.723,0,0,0,.074,1.025l2.029,1.739s.369-1.476-.369-2.214l1.845-1.845s2.037,4.058,8.029,1.66Z" transform="translate(-172.663 -234.892)"/><path class="d" d="M299.591,321.593c-7.877,1.644-16.725,3-16.725,3l.159,3.94a117.215,117.215,0,0,0,19.691-1.08A7.432,7.432,0,0,0,299.591,321.593Z" transform="translate(-181.271 -236.585)"/><path class="d" d="M330.53,268.8c-4.769-2.068-8.8,9.3-8.8,9.3-5.166,10.7-3.918,24.761-3.918,24.761-1.716,1-6.312,2.157-11.3,3.2a7.432,7.432,0,0,1,3.125,5.86c10.631-1.576,15.182-4.261,15.182-4.261C329.251,301.018,335.3,270.869,330.53,268.8Z" transform="translate(-188.196 -221.053)"/><g transform="translate(110.43 7.381)"><path class="d" d="M304.4,211.823s-10.267,7.7-8.915,19.546c.618,5.413,1.841,7.107,4.015,8.687,2.566,1.867,11.12.7,13.354-3.6l1.18-3.5s2.093,1.875,4.2-.918,1.66-7.229-1.381-5.14l1.888-5.594-1.849-4.908Z" transform="translate(-295.358 -211.823)"/><g class="ae"><path class="ab" d="M297.49,217.116s3.857,1.578,7.357-5.189c0,0,.933,10.967,8.167,10.734l-2.1-1.867s.832,7.7,5.666,4.9-9.866-17.5-9.866-17.5l-9.814,3.5.59,5.422" transform="translate(-295.81 -210.76)"/></g></g><path class="b" d="M317.3,216.474l-7.466-3.733-10.5-2.566s-12.833,4.433-7,7c5.119,2.252,9.518-2.861,10.519-4.148a9.927,9.927,0,0,0,1.5,6.217,9.429,9.429,0,0,0,5.914,3.685c-.128,3.624,4.229,4.278,4.229,4.278l1.867-1.4,3.733-1.166Zm-12.749,2.639a8.7,8.7,0,0,1-1.411-3.908c1.137,4.323,7.16,7.336,7.16,7.336-.006.052-.008.1-.012.153A9.183,9.183,0,0,1,304.548,219.113Z" transform="translate(-183.597 -203.959)"/><path class="af" d="M318.366,208.291s2.8-1.271,5.6,4.329c0,0,3.5,8.166,0,15.634h-.7S324.666,214.463,318.366,208.291Z" transform="translate(-191.666 -203.371)"/><circle class="ag" cx="3.267" cy="3.267" r="3.267" transform="translate(129.033 22.315)"/><path class="af" d="M309.346,233.149c-.187.75-.542,1.308-.792,1.245s-.3-.721-.114-1.472.542-1.308.791-1.245S309.533,232.4,309.346,233.149Z" transform="translate(-188.726 -210.254)"/><path class="af" d="M300.485,231.41c-.063.771-.322,1.378-.579,1.357s-.414-.663-.351-1.433.322-1.378.579-1.357S300.549,230.639,300.485,231.41Z" transform="translate(-186.154 -209.758)"/><path class="ah" d="M299.889,244.533a8.271,8.271,0,0,0,7.7-2.156s0,4-5.544,4.62C302.045,247,301.121,247,299.889,244.533Z" transform="translate(-186.255 -213.389)"/><path class="b" d="M299.011,226.4a1.51,1.51,0,0,1,.306-.589,1.446,1.446,0,0,1,.566-.409,1.194,1.194,0,0,1,.7-.113,1.285,1.285,0,0,1,.33.123,1.119,1.119,0,0,1,.273.229l-.016.045a1.473,1.473,0,0,1-.333.049c-.1.018-.2.016-.294.024a2.206,2.206,0,0,1-.274,0,.991.991,0,0,0-.274.006,1.364,1.364,0,0,0-.518.222,1.559,1.559,0,0,0-.422.433Z" transform="translate(-185.998 -208.378)"/><path class="b" d="M311.414,226.4a1.509,1.509,0,0,0-.306-.589,1.451,1.451,0,0,0-.566-.409,1.194,1.194,0,0,0-.7-.113,1.284,1.284,0,0,0-.33.123,1.118,1.118,0,0,0-.273.229l.016.045a1.462,1.462,0,0,0,.333.049c.1.018.2.016.294.024a2.194,2.194,0,0,0,.273,0,1,1,0,0,1,.275.006,1.361,1.361,0,0,1,.517.222,1.553,1.553,0,0,1,.423.433Z" transform="translate(-188.993 -208.378)"/><path class="ai" d="M301.542,239.1s-3.191-1.227-2.455-1.718a13.118,13.118,0,0,0,2.475-3.689.157.157,0,0,1,.3.049A15.728,15.728,0,0,1,301.542,239.1Z" transform="translate(-185.988 -210.819)"/><g transform="translate(116.9 24.181)"><circle class="af" cx="1.4" cy="1.4" r="1.4" transform="translate(14)"/><g transform="translate(1.867 2.1)"><path class="af" d="M317.7,244.616h-10.55v-.54h10.271c.423-.815,2.614-5.048,2.829-5.527l.434.242c-.243.542-2.8,5.48-2.913,5.69Z" transform="translate(-307.148 -238.549)"/></g><ellipse class="af" cx="1.4" cy="0.583" rx="1.4" ry="0.583" transform="translate(0 7.233)"/></g><path class="aj" d="M302.07,337.445H141.3a2.1,2.1,0,0,1-2.1-2.1h0a2.1,2.1,0,0,1,2.1-2.1H302.07a2.1,2.1,0,0,1,2.1,2.1h0A2.1,2.1,0,0,1,302.07,337.445Z" transform="translate(-139.203 -239.997)"/><g transform="translate(12.527 37.396)"><path class="f" d="M156.92,259.027l1.368,39.965a4.6,4.6,0,0,0,4.6,4.445h57.472a4.6,4.6,0,0,0,4.6-4.76l-1.368-39.965a4.6,4.6,0,0,0-4.6-4.445H161.519A4.6,4.6,0,0,0,156.92,259.027Z" transform="translate(-156.917 -254.267)"/><g class="ak"><path class="al" d="M200.987,296.824s-4.433,17.267,0,22.167-24.5-1.867-24.5-1.867,3.967-14.233,14.933-20.3h0l5.133,3.267,4.433-3.267" transform="translate(-162.648 -265.939)"/></g></g><path class="f" d="M192.494,297.94h9.567s-14.467,23.333-1.517,24.967h-19.95S176.628,313.574,192.494,297.94Z" transform="translate(-151.194 -229.659)"/><path class="ah" d="M200.179,274.433a4.205,4.205,0,0,1,.2-1.273c-.065,0-.131,0-.2,0a4.928,4.928,0,1,0,4.9,5.415,4.2,4.2,0,0,1-4.9-4.137Z" transform="translate(-155.615 -222.401)"/></g><g transform="translate(59.358 74.132)"><circle class="g" cx="48.555" cy="48.555" r="48.555" transform="translate(0 97.064) rotate(-88.237)"/><g class="am"><circle class="an" cx="59.154" cy="59.154" r="59.154" transform="translate(-33.63 50.026) rotate(-45)"/><g transform="translate(20.903 12.441)"><path class="ao" d="M122.255,171.026s-12.668,0-17.1,2.217-6.65,7.917-5.7,11.718-4.117,13.3,1.267,18.368c4.834,4.551,8.648,3.993,10.293,3.373a5.039,5.039,0,0,0,.475-.206c1.267-.634,0,16.785,0,16.785s31.986,1.9,33.887,0,2.534-41.8-1.9-46.238-16.785-6.017-16.785-6.017Z" transform="translate(-98.2 -129.324)"/><g transform="translate(22.471 26.658)"><path class="h" d="M130.451,153.554l-.475,11.243,10.394,6.893a.678.678,0,0,0,1.035-.444l1.713-9.141-10.134-12.352Z" transform="translate(-129.976 -149.753)"/><g class="ap"><path class="aq" d="M129.266,162.209s1.584,1.267,2.851,0c0,0,7.284,12.351,13.618,10.135s-6.651-12.352-6.651-12.352l-6.634-5.015-3.817,2.8Z" transform="translate(-129.583 -151.283)"/></g></g><path class="ar" d="M126.787,138.4c5.067-.317,5.7-8.551,5.7-9.5s7.918-3.484,9.818-2.534c1.808.9,2.288,6.708,2.375,7.126,2.784-1.685,5.225-7.7,3.959-11.243-1.583-4.434-3.484-2.851-4.75-1.9s-1.267-3.484-7.918-7.284.95,4.433-6.967,3.8-8.551,7.284-8.551,7.284c-4.117,0-6.967,3.484-3.8,6.968s.634,3.8,0,6.967c-.33,1.652,2.871,2.356,6.011,2.651A5.463,5.463,0,0,1,126.787,138.4Z" transform="translate(-103.207 -112.056)"/><path class="h" d="M140.85,148.986c5.826,2.533,11.244-.4,13.18-1.68-1.407-2.232-2.619-4.469-2.729-6.554a16.219,16.219,0,0,0-.4-2.837l.079-.049c-.088-.418-1.035-4.761-2.843-5.665-1.9-.95-9.818,1.583-9.818,2.534,0,.755-.4,6.107-3.111,8.433A10.823,10.823,0,0,0,140.85,148.986Z" transform="translate(-109.036 -117.894)"/><path class="ar" d="M151.251,151.934c-1.936,1.277-7.354,4.213-13.18,1.68a10.824,10.824,0,0,1-5.644-5.818,4.3,4.3,0,0,1-2.59,1.068,5.463,5.463,0,0,0-4.124,2.334,54.63,54.63,0,0,0,5.707.2c1.583,18.052,20.585,16.786,23.753,12.035C157.242,160.328,153.9,156.141,151.251,151.934Z" transform="translate(-106.256 -122.521)"/><rect class="as" width="14.568" height="7.48" transform="translate(27.961 32.658) rotate(-176.82)"/><path class="h" d="M116.317,158.783s0-9.818,1.583-11.085,5.384-6.017,7.285-4.75.95,1.9,2.217,2.534.633,1.583,1.583,2.216,2.217,3.167,1.583,3.167h-2.851s-4.433,8.234-6.333,7.918l-.317,1.267h-4.751Z" transform="translate(-103.505 -121.04)"/><path class="h" d="M118.132,165.815s.634,31.353-2.217,33.254-10.451-.317-8.867-6.65,7.284-29.453,7.284-29.453Z" transform="translate(-100.728 -126.963)"/><path class="at" d="M143.411,158.934s5.541,1.662,8.072,1.1a.259.259,0,0,1,.3.342,14.4,14.4,0,0,0-.771,2.675C151.012,163.685,145.311,162.734,143.411,158.934Z" transform="translate(-111.439 -125.783)"/><path class="au" d="M152.131,145.5s7.4,4.448,5.392,6.364-3.558,1.612-3.558,1.612S151.379,146.628,152.131,145.5Z" transform="translate(-113.952 -121.849)"/><path class="av" d="M143.409,147a1.8,1.8,0,0,1,.318-1.146,1.516,1.516,0,0,1,1.13-.639,2.064,2.064,0,0,1,1.2.332,4.3,4.3,0,0,1,.462.367,4.105,4.105,0,0,1,.371.452,4.725,4.725,0,0,1-.54-.19c-.17-.069-.346-.112-.506-.179a2.734,2.734,0,0,0-.945-.151,1.375,1.375,0,0,0-.8.337A4.159,4.159,0,0,0,143.409,147Z" transform="translate(-111.436 -121.763)"/><path class="av" d="M156.82,143.047a1.447,1.447,0,0,0-.628-.728,1.225,1.225,0,0,0-1.046-.078,1.669,1.669,0,0,0-.764.658,3.425,3.425,0,0,0-.211.428,3.141,3.141,0,0,0-.116.458,3.865,3.865,0,0,0,.329-.324c.1-.109.214-.2.308-.306a2.226,2.226,0,0,1,.639-.436,1.115,1.115,0,0,1,.7-.031A3.366,3.366,0,0,1,156.82,143.047Z" transform="translate(-114.555 -120.871)"/><g transform="translate(29.371 19.246)"><path class="ar" d="M140.68,142.806a3.459,3.459,0,0,1,.6-1.446,3.153,3.153,0,0,1,3.426-1.025c.6.121.73-.82.132-.941a4.107,4.107,0,0,0-4.157,1.186,4.408,4.408,0,0,0-.943,2.095.476.476,0,0,0,.941.132Z" transform="translate(-139.733 -139.271)"/></g><g transform="translate(37.825 17.571)"><path class="ar" d="M152.3,138.168a2.826,2.826,0,0,1,1.194-.463,2.578,2.578,0,0,1,2.542,1.445c.267.423.9-.032.631-.453a3.356,3.356,0,0,0-3.049-1.787,3.6,3.6,0,0,0-1.771.627.389.389,0,0,0,.453.631Z" transform="translate(-151.688 -136.903)"/></g></g></g></g><g transform="translate(215.889 75.551)"><path class="i" d="M292.734,96.471H379.6a2.748,2.748,0,0,1,2.748,2.747v21.915a2.749,2.749,0,0,1-1.209,2.276L367.245,132.8a.924.924,0,0,1-1.4-1.035l2.778-9.169H292.734a2.747,2.747,0,0,1-2.747-2.747V99.218A2.747,2.747,0,0,1,292.734,96.471Z" transform="translate(-289.987 -96.471)"/><g class="aw"><path class="ax" d="M394.831,135.96l3.079-2.566h8.979l-11.545,6.414Z" transform="translate(-320.688 -107.283)"/></g><path class="ah" d="M304.345,105.4h72.612a1.166,1.166,0,0,0,1.166-1.166h0a1.166,1.166,0,0,0-1.166-1.166H304.345a1.166,1.166,0,0,0-1.166,1.166h0A1.166,1.166,0,0,0,304.345,105.4Z" transform="translate(-293.85 -98.402)"/><path class="ah" d="M304.345,113.754h72.612a1.166,1.166,0,0,0,1.166-1.166h0a1.166,1.166,0,0,0-1.166-1.166H304.345a1.166,1.166,0,0,0-1.166,1.166h0A1.166,1.166,0,0,0,304.345,113.754Z" transform="translate(-293.85 -100.849)"/><rect class="ah" width="37.472" height="2.332" rx="1.166" transform="translate(84.273 18.814) rotate(180)"/></g><g transform="translate(181.576 292.295)"><path class="ay" d="M242.66,402.962h18.086a1.2,1.2,0,0,1,1.2,1.2v9.531a1.2,1.2,0,0,1-.526.991l-6.042,4.083a.4.4,0,0,1-.61-.45l1.209-3.988H242.66a1.2,1.2,0,0,1-1.194-1.2v-8.971A1.194,1.194,0,0,1,242.66,402.962Z" transform="translate(-241.466 -402.962)"/></g><g transform="translate(310.764 115.26)"><path class="ay" d="M424.876,152.622H435.9a.728.728,0,0,1,.728.728v5.812a.729.729,0,0,1-.321.6l-3.684,2.489a.245.245,0,0,1-.372-.274l.737-2.432h-8.116a.729.729,0,0,1-.729-.728V153.35A.729.729,0,0,1,424.876,152.622Z" transform="translate(-424.147 -152.622)"/></g><g transform="translate(181.141 106.15)"><path class="j" d="M338.346,139.74H243.84a2.989,2.989,0,0,0-2.989,2.989v23.843a2.989,2.989,0,0,0,1.315,2.477l15.114,10.212a1.006,1.006,0,0,0,1.526-1.126l-3.022-9.975h82.562a2.989,2.989,0,0,0,2.989-2.989V142.729A2.989,2.989,0,0,0,338.346,139.74Z" transform="translate(-240.851 -139.74)"/><g class="az"><path class="ba" d="M263.443,182.7l-3.349-2.791h-9.769l12.561,6.978Z" transform="translate(-243.625 -151.503)"/></g><path class="ah" d="M333.56,149.453h-79a1.268,1.268,0,0,1-1.269-1.269h0a1.268,1.268,0,0,1,1.269-1.269h79a1.269,1.269,0,0,1,1.269,1.269h0A1.269,1.269,0,0,1,333.56,149.453Z" transform="translate(-244.493 -141.841)"/><path class="ah" d="M333.56,158.543h-79a1.268,1.268,0,0,1-1.269-1.269h0a1.269,1.269,0,0,1,1.269-1.269h79a1.269,1.269,0,0,1,1.269,1.269h0A1.269,1.269,0,0,1,333.56,158.543Z" transform="translate(-244.493 -144.503)"/><rect class="ah" width="40.769" height="2.537" rx="1.269" transform="translate(8.797 17.931)"/></g></g></svg>