<svg xmlns="http://www.w3.org/2000/svg" xmlns:xlink="http://www.w3.org/1999/xlink" width="44" height="44" viewBox="0 0 48 48">
  <defs>
    <linearGradient id="linear-gradient" x1="0.018" y1="0.021" x2="0.982" y2="0.979" gradientUnits="objectBoundingBox">
      <stop offset="0" stop-color="#faca5d"/>
      <stop offset="1" stop-color="#ff6d21"/>
    </linearGradient>
  </defs>
  <g id="Group_6378" data-name="Group 6378" transform="translate(-18491 -4362.5)">
    <rect id="Rectangle_3691" data-name="Rectangle 3691" width="48" height="48" transform="translate(18491 4362.5)" fill="#fff"/>
    <g id="Group_6362" data-name="Group 6362" transform="translate(17450.742 3477.377)">
      <g id="Group_6363" data-name="Group 6363" transform="translate(1051.257 888.775)">
        <path id="Path_8214" data-name="Path 8214" d="M1073.9,935.795h-19.818a2.825,2.825,0,0,1-2.826-2.823v-38.7a2.825,2.825,0,0,1,2.826-2.823H1073.9a2.824,2.824,0,0,1,2.826,2.823v38.7a2.824,2.824,0,0,1-2.826,2.823" transform="translate(-1051.257 -891.447)" fill="url(#linear-gradient)"/>
        <path id="Path_8215" data-name="Path 8215" d="M1072.156,961.351a1.384,1.384,0,1,1-1.384,1.384,1.386,1.386,0,0,1,1.384-1.384m0-.456a1.841,1.841,0,1,0,1.841,1.841,1.841,1.841,0,0,0-1.841-1.841Z" transform="translate(-1059.486 -921.46)" fill="#fff"/>
        <rect id="Rectangle_3681" data-name="Rectangle 3681" width="20.861" height="32.058" transform="translate(2.304 6.145)" fill="#fff"/>
        <path id="Path_8216" data-name="Path 8216" d="M1073.786,896.158a.457.457,0,0,1,0,.914h-4.609a.457.457,0,0,1,0-.914Z" transform="translate(-1058.812 -893.437)" fill="#575756"/>
        <rect id="Rectangle_3690" data-name="Rectangle 3690" width="9" height="3" rx="1.5" transform="translate(8 31.741)" fill="#23ce73" opacity="0.234"/>
      </g>
      <g id="Group_6369" data-name="Group 6369" transform="translate(1054.952 885.123)">
        <rect id="Rectangle_3682" data-name="Rectangle 3682" width="18.08" height="1.826" transform="translate(0 15.131)" fill="#2699fb"/>
        <g id="Group_6368" data-name="Group 6368" transform="translate(0.913)">
          <g id="Group_6364" data-name="Group 6364">
            <rect id="Rectangle_3683" data-name="Rectangle 3683" width="16.253" height="15.121" transform="translate(0 0.923)" fill="#f5f5f5"/>
            <path id="Path_8217" data-name="Path 8217" d="M1075.49,886.388v-1.265l-.9.923-.9-.923-.9.923-.9-.923-.9.923-.9-.923-.9.923-.9-.923-.9.923-.9-.923-.9.923-.9-.923-.9.923-.9-.923-.9.923-.9-.923-.9.923-.9-.923v1.265Z" transform="translate(-1059.236 -885.123)" fill="#666"/>
          </g>
          <g id="Group_6367" data-name="Group 6367" transform="translate(2.304 7.286)">
            <g id="Group_6365" data-name="Group 6365" transform="translate(8.818)">
              <rect id="Rectangle_3684" data-name="Rectangle 3684" width="2.827" height="0.456" fill="#c6c6c5"/>
              <rect id="Rectangle_3685" data-name="Rectangle 3685" width="2.827" height="0.457" transform="translate(0 2.282)" fill="#c6c6c5"/>
              <rect id="Rectangle_3686" data-name="Rectangle 3686" width="2.827" height="0.457" transform="translate(0 4.565)" fill="#c6c6c5"/>
            </g>
            <g id="Group_6366" data-name="Group 6366">
              <rect id="Rectangle_3687" data-name="Rectangle 3687" width="6.479" height="0.456" fill="#c6c6c5"/>
              <rect id="Rectangle_3688" data-name="Rectangle 3688" width="4.653" height="0.457" transform="translate(0 2.282)" fill="#c6c6c5"/>
              <rect id="Rectangle_3689" data-name="Rectangle 3689" width="5.566" height="0.457" transform="translate(0 4.565)" fill="#c6c6c5"/>
            </g>
          </g>
        </g>
      </g>
      <g id="Group_6377" data-name="Group 6377" transform="translate(1055.662 904.83)">
        <g id="Group_6371" data-name="Group 6371" transform="translate(4.777)">
          <g id="Group_6370" data-name="Group 6370">
            <path id="Path_8218" data-name="Path 8218" d="M1067.467,919.942a2.985,2.985,0,0,1,.479-.036.806.806,0,0,1,.535.139.438.438,0,0,1,.149.347.462.462,0,0,1-.314.435v.008a.441.441,0,0,1,.241.334,3.53,3.53,0,0,0,.136.484h-.326a2.448,2.448,0,0,1-.116-.409c-.049-.227-.131-.3-.311-.3h-.159v.713h-.314Zm.314.767h.188c.214,0,.348-.113.348-.286,0-.19-.134-.278-.339-.278a.884.884,0,0,0-.2.016Z" transform="translate(-1067.467 -919.906)"/>
            <path id="Path_8219" data-name="Path 8219" d="M1069.911,921.7a.7.7,0,0,0,.322.09c.139,0,.2-.056.2-.139s-.051-.129-.206-.182c-.244-.085-.348-.219-.345-.366a.419.419,0,0,1,.474-.394.741.741,0,0,1,.331.075l-.062.224a.556.556,0,0,0-.265-.072c-.113,0-.174.054-.174.131s.059.118.218.175c.227.083.332.2.335.383,0,.227-.178.392-.51.392a.8.8,0,0,1-.381-.088Z" transform="translate(-1068.473 -920.247)"/>
            <path id="Path_8220" data-name="Path 8220" d="M1071.726,922.479a.193.193,0,0,1,.2-.2.2.2,0,0,1,0,.407A.193.193,0,0,1,1071.726,922.479Z" transform="translate(-1069.266 -920.907)"/>
            <path id="Path_8221" data-name="Path 8221" d="M1073.865,920.761l.15.237c.041.066.077.129.113.193h.008c.036-.069.072-.133.108-.2l.139-.232h.344l-.419.6.427.651h-.357l-.155-.25c-.041-.066-.077-.133-.113-.2h-.005c-.036.072-.072.133-.113.2l-.145.25h-.35l.435-.639-.42-.615Z" transform="translate(-1070.015 -920.267)"/>
            <path id="Path_8222" data-name="Path 8222" d="M1076.068,920.761l.15.237c.041.066.077.129.113.193h.008c.036-.069.072-.133.108-.2l.139-.232h.345l-.419.6.427.651h-.357l-.155-.25c-.041-.066-.077-.133-.113-.2h-.005c-.036.072-.072.133-.113.2l-.144.25h-.35l.435-.639-.419-.615Z" transform="translate(-1070.945 -920.267)"/>
            <path id="Path_8223" data-name="Path 8223" d="M1078.27,920.761l.15.237c.041.066.077.129.113.193h.007c.036-.069.072-.133.108-.2l.139-.232h.345l-.419.6.427.651h-.357l-.155-.25c-.041-.066-.077-.133-.113-.2h-.005c-.036.072-.072.133-.113.2l-.145.25h-.35l.435-.639-.419-.615Z" transform="translate(-1071.876 -920.267)"/>
          </g>
        </g>
        <g id="Group_6373" data-name="Group 6373" transform="translate(0 10.843)">
          <g id="Group_6372" data-name="Group 6372">
            <path id="Path_8224" data-name="Path 8224" d="M1059.195,938.856a2.725,2.725,0,0,1,.483-.036.785.785,0,0,1,.512.141.489.489,0,0,1,.17.383.525.525,0,0,1-.149.393.767.767,0,0,1-.548.185.862.862,0,0,1-.155-.01v.654h-.314Zm.314.808a.634.634,0,0,0,.155.013c.237,0,.381-.115.381-.319s-.133-.3-.352-.3a.9.9,0,0,0-.183.015Z" transform="translate(-1059.195 -938.74)"/>
            <path id="Path_8225" data-name="Path 8225" d="M1062.212,940.907l-.02-.139h-.007a.466.466,0,0,1-.371.167.373.373,0,0,1-.394-.373c0-.317.281-.476.744-.474v-.02c0-.083-.034-.219-.255-.219a.664.664,0,0,0-.337.092l-.062-.206a.9.9,0,0,1,.453-.111.469.469,0,0,1,.517.527v.453a2.035,2.035,0,0,0,.018.3Zm-.041-.613c-.224,0-.437.044-.437.234a.166.166,0,0,0,.18.18.256.256,0,0,0,.247-.173.231.231,0,0,0,.01-.069Z" transform="translate(-1060.135 -939.081)"/>
            <path id="Path_8226" data-name="Path 8226" d="M1063.882,939.675l.226.672c.025.077.051.173.069.244h.008c.02-.072.043-.165.066-.247l.2-.669h.339l-.314.855a1.878,1.878,0,0,1-.438.805.635.635,0,0,1-.332.162l-.072-.267a.542.542,0,0,0,.185-.087.551.551,0,0,0,.173-.2.127.127,0,0,0,.02-.056.134.134,0,0,0-.018-.062l-.458-1.15Z" transform="translate(-1061.028 -939.102)"/>
            <path id="Path_8227" data-name="Path 8227" d="M1066.015,940.028c0-.144,0-.265-.01-.374h.273l.013.185h.007a.433.433,0,0,1,.386-.214.361.361,0,0,1,.348.232h.005a.47.47,0,0,1,.154-.158.417.417,0,0,1,.252-.075c.208,0,.419.142.419.543v.738h-.309v-.692c0-.209-.072-.332-.224-.332a.241.241,0,0,0-.221.167.453.453,0,0,0-.015.105v.751h-.309v-.726c0-.175-.07-.3-.217-.3a.247.247,0,0,0-.226.18.276.276,0,0,0-.018.1v.741h-.309Z" transform="translate(-1062.072 -939.081)"/>
            <path id="Path_8228" data-name="Path 8228" d="M1069.97,940.369a.341.341,0,0,0,.386.325.936.936,0,0,0,.348-.057l.046.219a1.189,1.189,0,0,1-.437.077.594.594,0,0,1-.646-.634.621.621,0,0,1,.613-.674.544.544,0,0,1,.54.61.86.86,0,0,1-.01.133Zm.551-.221a.27.27,0,0,0-.26-.307.31.31,0,0,0-.29.307Z" transform="translate(-1063.619 -939.081)"/>
            <path id="Path_8229" data-name="Path 8229" d="M1072.1,940.028c0-.144,0-.265-.01-.374h.278l.016.188h.008a.453.453,0,0,1,.4-.216c.218,0,.445.142.445.538v.744h-.317V940.2c0-.18-.066-.316-.239-.316a.266.266,0,0,0-.247.185.332.332,0,0,0-.013.1v.736h-.319Z" transform="translate(-1064.642 -939.081)"/>
            <path id="Path_8230" data-name="Path 8230" d="M1074.9,939.056v.357h.3v.237h-.3v.553c0,.152.042.232.162.232a.45.45,0,0,0,.124-.016l.006.242a.7.7,0,0,1-.229.031.367.367,0,0,1-.273-.1.5.5,0,0,1-.1-.349v-.59h-.18v-.237h.18v-.283Z" transform="translate(-1065.626 -938.84)"/>
            <path id="Path_8231" data-name="Path 8231" d="M1077.145,938.842h1v.26h-.685v.478h.639v.26h-.639v.736h-.316Z" transform="translate(-1066.779 -938.75)"/>
            <path id="Path_8232" data-name="Path 8232" d="M1079.845,940.907l-.02-.139h-.008a.466.466,0,0,1-.371.167.372.372,0,0,1-.393-.373c0-.317.28-.476.744-.474v-.02c0-.083-.034-.219-.255-.219a.665.665,0,0,0-.337.092l-.061-.206a.9.9,0,0,1,.453-.111.469.469,0,0,1,.517.527v.453a1.938,1.938,0,0,0,.018.3Zm-.041-.613c-.224,0-.437.044-.437.234a.166.166,0,0,0,.18.18.256.256,0,0,0,.247-.173.218.218,0,0,0,.01-.069Z" transform="translate(-1067.585 -939.081)"/>
            <path id="Path_8233" data-name="Path 8233" d="M1081.794,938.944a.178.178,0,1,1-.178-.173A.168.168,0,0,1,1081.794,938.944Zm-.337,1.6v-1.253h.319v1.253Z" transform="translate(-1068.592 -938.72)"/>
            <path id="Path_8234" data-name="Path 8234" d="M1082.611,938.682h.319v1.827h-.319Z" transform="translate(-1069.088 -938.682)"/>
            <path id="Path_8235" data-name="Path 8235" d="M1083.924,940.369a.34.34,0,0,0,.385.325.933.933,0,0,0,.348-.057l.047.219a1.188,1.188,0,0,1-.438.077.593.593,0,0,1-.646-.634.62.62,0,0,1,.613-.674.545.545,0,0,1,.54.61.763.763,0,0,1-.01.133Zm.55-.221a.269.269,0,0,0-.26-.307.31.31,0,0,0-.291.307Z" transform="translate(-1069.514 -939.081)"/>
            <path id="Path_8236" data-name="Path 8236" d="M1087.156,938.682v1.474c0,.128,0,.267.01.352h-.283l-.013-.2h0a.451.451,0,0,1-.409.226.574.574,0,0,1-.535-.641.6.6,0,0,1,.561-.669.4.4,0,0,1,.352.165h.006v-.71Zm-.317,1.1a.449.449,0,0,0-.008-.082.278.278,0,0,0-.273-.224c-.2,0-.316.181-.316.415s.113.4.314.4a.279.279,0,0,0,.273-.224.343.343,0,0,0,.011-.093Z" transform="translate(-1070.486 -938.682)"/>
          </g>
        </g>
        <g id="Group_6376" data-name="Group 6376" transform="translate(5.607 3.794)">
          <path id="Path_195" data-name="Path 195" d="M1071.625,926.476a2.722,2.722,0,1,1-2.722,2.722A2.722,2.722,0,0,1,1071.625,926.476Z" transform="translate(-1068.903 -926.476)" fill="#e71c37"/>
          <g id="Group_6375" data-name="Group 6375" transform="translate(1.487 1.475)">
            <g id="Group_6374" data-name="Group 6374">
              <path id="Path_8237" data-name="Path 8237" d="M1073.815,931.513a.144.144,0,0,1-.1-.047l-.989-.99-.989.99a.166.166,0,0,1-.207,0,.124.124,0,0,1-.051-.1.139.139,0,0,1,.047-.1l.989-.99-.989-.989a.141.141,0,0,1,0-.211.143.143,0,0,1,.211,0l.989.989.989-.989a.143.143,0,0,1,.211,0,.2.2,0,0,1,.035.111.14.14,0,0,1-.047.1l-.989.989.986.986a.127.127,0,0,1,.051.1A.146.146,0,0,1,1073.815,931.513Z" transform="translate(-1071.478 -929.03)" fill="#fff"/>
            </g>
          </g>
        </g>
      </g>
    </g>
  </g>
</svg>
