<svg xmlns="http://www.w3.org/2000/svg" width="360.699" height="210" viewBox="0 0 360.699 210"><defs><style>.a{fill:#82e5c9;}.b{fill:#fff;}.c{fill:#263238;}.d{fill:#ff725e;}.e{fill:#455a64;}.f{fill:#ebebeb;}.g{fill:#ffbe9d;}.h{fill:#eb996e;}.i{opacity:0.6;}.j{opacity:0.2;}</style></defs><g transform="translate(0 -70.276)"><g transform="translate(0 70.276)"><path class="a" d="M254.288,142.827c-24.741,5.083-38.448-.637-60.469-5.552s-46.4-9.388-66.733-.711C103,146.85,93.343,172.867,96.9,195.532c3.456,21.994,32.208,41.574,55.067,52.377,17.267,8.154,37.618,9.917,57.352,10.95,53.556,2.8,94.638,2.87,144.168-14.631s92.6-53.463,101.8-98.282c3.884-18.943,1.107-39.79-12.9-54.9-18.01-19.446-51.768-25.119-79.5-17.5s-49.641,26.426-64.289,47.79c-9.816,14.316-25.659,16.616-44.294,21.5" transform="translate(-96.187 -70.276)"/></g><g transform="translate(68.497 77.415)"><rect class="b" width="38.02" height="52.028" transform="translate(0.151 8.2) rotate(-12.19)"/><path class="c" d="M200.93,128.45l-.06-.248c-.04-.168-.094-.409-.161-.717-.148-.671-.355-1.569-.624-2.769-.53-2.434-1.308-5.968-2.293-10.44-1.951-8.945-4.694-21.632-7.993-36.645l.188.121L152.831,85.8h0l.134-.208c4.09,19,7.879,36.585,10.95,50.861l-.168-.114,27-5.753,7.517-1.589,2.012-.409.671-.134s-.215.06-.671.161l-1.951.436-7.47,1.65L163.8,136.618h-.141v-.134c-3.091-14.276-6.9-31.858-11.017-50.848v-.174h.168l37.162-8.047h.154l.034.154c3.219,15.074,5.941,27.808,7.859,36.78.945,4.466,1.7,7.993,2.206,10.42.255,1.194.443,2.119.577,2.749l.141.7q0,.114-.013.228Z" transform="translate(-152.644 -77.415)"/><path class="c" d="M177.7,90.933c0,.1-4.023,1.046-8.992,2.126s-9.046,1.871-9.066,1.777,4.023-1.039,8.992-2.119S177.7,90.839,177.7,90.933Z" transform="translate(-152.644 -77.415)"/><path class="c" d="M188.424,93.246c0,.094-6.2,1.515-13.874,3.172s-13.934,2.93-13.954,2.836,6.2-1.515,13.88-3.172S188.424,93.153,188.424,93.246Z" transform="translate(-152.644 -77.415)"/><path class="c" d="M189.437,97.853c0,.094-6.189,1.515-13.874,3.178s-13.927,2.9-13.961,2.836,6.189-1.515,13.874-3.178S189.417,97.759,189.437,97.853Z" transform="translate(-152.644 -77.415)"/><path class="c" d="M190.436,102.467c0,.094-6.2,1.515-13.874,3.172s-13.934,2.93-13.954,2.836,6.189-1.515,13.88-3.172S190.436,102.373,190.436,102.467Z" transform="translate(-152.644 -77.415)"/><path class="c" d="M191.428,107.073c0,.094-6.189,1.515-13.874,3.178s-13.941,2.93-13.941,2.836,6.189-1.515,13.874-3.178S191.408,106.979,191.428,107.073Z" transform="translate(-152.644 -77.415)"/><path class="c" d="M192.447,111.687c0,.094-6.2,1.515-13.874,3.172s-13.934,2.93-13.954,2.836,6.189-1.515,13.88-3.178S192.407,111.593,192.447,111.687Z" transform="translate(-152.644 -77.415)"/><path class="c" d="M193.42,116.293c0,.094-6.189,1.515-13.874,3.178s-13.921,2.93-13.921,2.836,6.189-1.515,13.874-3.178S193.4,116.2,193.42,116.293Z" transform="translate(-152.644 -77.415)"/><path class="c" d="M181.551,123.683c0,.094-3.313.9-7.443,1.79s-7.5,1.536-7.517,1.442,3.313-.892,7.443-1.784S181.531,123.589,181.551,123.683Z" transform="translate(-152.644 -77.415)"/></g><g transform="translate(309.715 195.371)"><path class="d" d="M363.819,207.769l9.508,24.415,3.97-6.4L382.789,233l6.551-6.229-6.243-6.022,5.76-3.9Z" transform="translate(-350.992 -195.371)"/><path class="c" d="M360.239,211.377a25.6,25.6,0,0,1-3.467,2.407,25.114,25.114,0,0,1-3.655,2.106,26.5,26.5,0,0,1,3.467-2.4A25.574,25.574,0,0,1,360.239,211.377Z" transform="translate(-350.992 -195.371)"/><path class="c" d="M360.976,206.455a6.356,6.356,0,0,1-1.529-.4c-.925-.3-2.2-.744-3.574-1.341s-2.608-1.106-3.487-1.522a7.165,7.165,0,0,1-1.395-.738,7.081,7.081,0,0,1,1.489.51L356,204.39l3.534,1.4a7.375,7.375,0,0,1,1.442.664Z" transform="translate(-350.992 -195.371)"/><path class="c" d="M363.846,195.371a5.305,5.305,0,0,1,.349,1.341c.161.838.355,2.012.516,3.306s.268,2.481.315,3.353a5.267,5.267,0,0,1,0,1.395,46.123,46.123,0,0,1-.671-4.694,44.353,44.353,0,0,1-.51-4.7Z" transform="translate(-350.992 -195.371)"/><path class="c" d="M377.009,200.836c.04.094-1.717.852-3.7,2.126s-3.554,2.38-3.614,2.293.329-.362.945-.838a29.841,29.841,0,0,1,2.481-1.75A12.894,12.894,0,0,1,377.009,200.836Z" transform="translate(-350.992 -195.371)"/></g><g transform="translate(21.857 199.618)"><path class="c" d="M142.565,211.927a19.848,19.848,0,0,0-.449-2.957,11.816,11.816,0,0,0-1.341-3.205,12.15,12.15,0,0,0-3.078-3.413,12.023,12.023,0,0,0-11.4-1.7,11.514,11.514,0,0,0-3.038,1.636,10.916,10.916,0,0,0-2.535,2.555,11.929,11.929,0,0,0,0,14.175,11.064,11.064,0,0,0,2.535,2.548A11.325,11.325,0,0,0,126.3,223.2a12.023,12.023,0,0,0,11.4-1.7,12.225,12.225,0,0,0,3.078-3.406,11.842,11.842,0,0,0,1.341-3.212,19.844,19.844,0,0,0,.449-2.95s0,.067,0,.194v.583a5.15,5.15,0,0,1-.08.939,8.1,8.1,0,0,1-.228,1.267,11.4,11.4,0,0,1-1.341,3.272,12.236,12.236,0,0,1-14.732,5.317,12.359,12.359,0,0,1-5.733-4.285,12.251,12.251,0,0,1,0-14.584,15.5,15.5,0,0,1,1.214-1.428,14.758,14.758,0,0,1,1.4-1.187,11.789,11.789,0,0,1,3.118-1.67,12.26,12.26,0,0,1,14.732,5.317,11.48,11.48,0,0,1,1.341,3.272,8.106,8.106,0,0,1,.228,1.267,5.262,5.262,0,0,1,.08.945v.577A1.229,1.229,0,0,1,142.565,211.927Z" transform="translate(-118.044 -199.618)"/><path class="c" d="M130.395,218.036a54.357,54.357,0,0,1-.174-6.109,54.356,54.356,0,0,1,.174-6.109,51.544,51.544,0,0,1,.181,6.109A51.548,51.548,0,0,1,130.395,218.036Z" transform="translate(-118.044 -199.618)"/><path class="c" d="M136.5,211.927a54.18,54.18,0,0,1-6.1.174,54.244,54.244,0,0,1-6.109-.174,52.409,52.409,0,0,1,6.109-.174,52.344,52.344,0,0,1,6.1.174Z" transform="translate(-118.044 -199.618)"/></g><g transform="translate(114.329 159.222)"><path class="c" d="M329.239,251.248c-.08.047-8.5-12.975-18.809-29.1s-18.6-29.236-18.521-29.283,8.5,12.989,18.782,29.082S329.286,251.194,329.239,251.248Z" transform="translate(-155.605 -159.222)"/><circle class="b" cx="19.546" cy="19.546" r="19.546" transform="translate(157.715 81.378)"/><path class="c" d="M313.32,260.173v-.315c0-.208,0-.536.034-.932v-.671a7.065,7.065,0,0,1,.107-.818,14.508,14.508,0,0,1,.382-2.012,18.5,18.5,0,0,1,2.132-5.244,19.674,19.674,0,0,1,13.263-9.381,18.815,18.815,0,0,1,2.488-.3c.422,0,.852-.06,1.281-.054l1.308.067a8.844,8.844,0,0,1,1.341.141c.436.067.885.121,1.341.208a22.034,22.034,0,0,1,5.2,1.891c.416.228.818.49,1.234.731a10.089,10.089,0,0,1,1.187.818,17.824,17.824,0,0,1,4.171,4.184,18.816,18.816,0,0,1,2.823,5.425,19.567,19.567,0,0,1,0,12.445,19.145,19.145,0,0,1-2.823,5.438,22.713,22.713,0,0,1-1.938,2.28,21.363,21.363,0,0,1-2.24,1.9,10.1,10.1,0,0,1-1.187.818c-.416.248-.818.51-1.234.731a20.167,20.167,0,0,1-2.568,1.126,21,21,0,0,1-2.635.764c-.436.094-.885.141-1.341.215a8.839,8.839,0,0,1-1.341.141l-1.308.06c-.429,0-.858-.034-1.281-.054a17.976,17.976,0,0,1-2.494-.3,19.7,19.7,0,0,1-13.23-9.307,18.655,18.655,0,0,1-2.132-5.244,14.881,14.881,0,0,1-.382-2.012c-.04-.3-.087-.57-.107-.825s0-.476,0-.671a7.216,7.216,0,0,0-.034-.932.708.708,0,0,1,0-.315,2.224,2.224,0,0,0,.034.315c.034.208.034.53.06.925l.047.671a6.9,6.9,0,0,0,.121.818,15.193,15.193,0,0,0,.416,2.012,18.581,18.581,0,0,0,2.166,5.177,19.54,19.54,0,0,0,13.116,9.126,18.451,18.451,0,0,0,2.454.282c.422,0,.838.054,1.267.047l1.281-.067a8.389,8.389,0,0,0,1.294-.141c.436-.074.872-.121,1.308-.215a21.341,21.341,0,0,0,2.582-.758,20.544,20.544,0,0,0,2.528-1.113c.409-.221.8-.483,1.207-.724a9.832,9.832,0,0,0,1.173-.8,20.491,20.491,0,0,0,2.193-1.871,21.185,21.185,0,0,0,1.9-2.246,18.776,18.776,0,0,0,2.769-5.364,19.258,19.258,0,0,0,0-12.224,18.776,18.776,0,0,0-2.769-5.364,21.119,21.119,0,0,0-1.9-2.246,22.134,22.134,0,0,0-2.193-1.871,9.832,9.832,0,0,0-1.173-.8c-.4-.241-.8-.5-1.207-.724a19.528,19.528,0,0,0-2.528-1.106,20.234,20.234,0,0,0-2.582-.764c-.436-.087-.872-.141-1.308-.208a8.411,8.411,0,0,0-1.294-.148l-1.281-.067c-.422,0-.845.04-1.267.054a17.187,17.187,0,0,0-2.447.282,19.446,19.446,0,0,0-13.123,9.126,18.5,18.5,0,0,0-2.166,5.177,14.749,14.749,0,0,0-.416,2.012c-.04.3-.094.563-.121.818s-.034.476-.047.671c0,.4-.047.671-.06.932A1.608,1.608,0,0,1,313.32,260.173Z" transform="translate(-155.605 -159.222)"/><path class="c" d="M327.536,252.964l-2.675,15.288,8.006-1.1,8.006,1.1-3.225-15.288Z" transform="translate(-155.605 -159.222)"/><path class="c" d="M336.247,253.166c-.06,0-.221-.55-.671-1.341a4.272,4.272,0,0,0-.959-1.241,3.211,3.211,0,0,0-.785-.456,2.963,2.963,0,0,0-.959-.161,3.353,3.353,0,0,0-1.824.436,2.91,2.91,0,0,0-1,1.173c-.4.818-.536,1.388-.6,1.375a3.688,3.688,0,0,1,.376-1.482,2.97,2.97,0,0,1,1.046-1.341,3.453,3.453,0,0,1,2.012-.516,3.171,3.171,0,0,1,1.073.194,3.065,3.065,0,0,1,.872.53,4.171,4.171,0,0,1,.972,1.375,3.823,3.823,0,0,1,.443,1.455Z" transform="translate(-155.605 -159.222)"/><path class="c" d="M254.869,252.555c-.1,0-.174-13.458-.174-30.061s.074-30.061.174-30.061.174,13.451.174,30.061S254.963,252.555,254.869,252.555Z" transform="translate(-155.605 -159.222)"/><circle class="b" cx="19.546" cy="19.546" r="19.546" transform="translate(79.315 81.814)"/><path class="c" d="M234.92,260.582v-1.918a7.191,7.191,0,0,1,.114-.818,12.931,12.931,0,0,1,.382-2.012,18.453,18.453,0,0,1,2.132-5.244,19.634,19.634,0,0,1,13.23-9.314,18.955,18.955,0,0,1,2.488-.3c.429,0,.858-.054,1.287-.054l1.3.067a8.658,8.658,0,0,1,1.341.141c.443.067.885.121,1.341.208a20.933,20.933,0,0,1,2.642.724,20.633,20.633,0,0,1,2.575,1.12c.416.228.818.489,1.227.731a11.06,11.06,0,0,1,1.227.831,23.79,23.79,0,0,1,2.24,1.9,22.6,22.6,0,0,1,1.931,2.287,19.19,19.19,0,0,1,2.823,5.431,19.506,19.506,0,0,1,0,12.445,18.854,18.854,0,0,1-2.823,5.431,21.8,21.8,0,0,1-1.931,2.28,22.8,22.8,0,0,1-2.24,1.9,10.165,10.165,0,0,1-1.194.818c-.409.248-.811.51-1.227.731a20.672,20.672,0,0,1-2.575,1.126,20.9,20.9,0,0,1-2.629.764c-.443.094-.885.141-1.341.215a8.661,8.661,0,0,1-1.341.141l-1.3.06c-.436,0-.858-.034-1.287-.054a17.755,17.755,0,0,1-2.488-.3,19.66,19.66,0,0,1-13.23-9.307,18.454,18.454,0,0,1-2.132-5.244,13.077,13.077,0,0,1-.382-2.012c-.04-.3-.087-.57-.114-.825a5.567,5.567,0,0,1,0-.671v-1.247a2.934,2.934,0,0,1,.034.315c0,.221.04.53.067.925a6.1,6.1,0,0,0,.04.671,5.828,5.828,0,0,0,.127.818,15.085,15.085,0,0,0,.409,2.012,18.829,18.829,0,0,0,2.173,5.177,19.54,19.54,0,0,0,13.069,9.079,18.446,18.446,0,0,0,2.454.282c.416,0,.838.054,1.261.047l1.287-.067a8.579,8.579,0,0,0,1.294-.141c.429-.074.872-.121,1.3-.215a20.29,20.29,0,0,0,2.588-.758,20.535,20.535,0,0,0,2.528-1.113c.409-.221.8-.483,1.207-.718a10.666,10.666,0,0,0,1.167-.811,21.281,21.281,0,0,0,2.2-1.864,22.025,22.025,0,0,0,1.9-2.253,18.7,18.7,0,0,0,2.769-5.364,19.2,19.2,0,0,0,0-12.224,18.776,18.776,0,0,0-2.769-5.364,22.689,22.689,0,0,0-1.9-2.246,22.229,22.229,0,0,0-2.2-1.871,9.757,9.757,0,0,0-1.167-.8c-.409-.241-.8-.5-1.207-.717a18.688,18.688,0,0,0-2.528-1.113,20.332,20.332,0,0,0-2.588-.764c-.429-.087-.872-.141-1.3-.208a7.721,7.721,0,0,0-1.294-.141l-1.281-.067c-.429,0-.852.034-1.267.047a17.389,17.389,0,0,0-2.454.282,19.54,19.54,0,0,0-13.116,9.126,18.776,18.776,0,0,0-2.173,5.177,14.68,14.68,0,0,0-.409,2.012c-.047.3-.1.563-.127.818s0,.476-.04.671a8.917,8.917,0,0,1-.067.932A2.929,2.929,0,0,1,234.92,260.582Z" transform="translate(-155.605 -159.222)"/><path class="c" d="M254.466,251.824l-8.476,7.7v9.77h6.6v-5.854h4.2V269.3h6.156v-9.77Z" transform="translate(-155.605 -159.222)"/><path class="c" d="M179.2,251.925c-.08-.047,8.335-13.357,18.775-29.712s19.01-29.585,19.091-29.5-8.335,13.351-18.775,29.719S179.285,251.979,179.2,251.925Z" transform="translate(-155.605 -159.222)"/><circle class="b" cx="19.546" cy="19.546" r="19.546" transform="translate(0.887 81.566)"/><path class="c" d="M195.586,260.334a2.93,2.93,0,0,1-.034-.315c0-.228-.04-.536-.067-.932a3.982,3.982,0,0,0-.04-.671c-.04-.241-.08-.523-.127-.818a13.736,13.736,0,0,0-.409-2.012,18.541,18.541,0,0,0-2.173-5.177,19.54,19.54,0,0,0-13.116-9.126,17.391,17.391,0,0,0-2.454-.282c-.416,0-.838-.054-1.261-.047l-1.287.067a7.791,7.791,0,0,0-1.294.141c-.429.067-.872.121-1.3.208a20.33,20.33,0,0,0-2.588.764,19.441,19.441,0,0,0-2.528,1.113c-.409.221-.8.476-1.207.717a10.328,10.328,0,0,0-1.167.8,23.016,23.016,0,0,0-2.2,1.871,22.7,22.7,0,0,0-1.9,2.246,18.775,18.775,0,0,0-2.769,5.364,19.2,19.2,0,0,0,0,12.224,18.694,18.694,0,0,0,2.769,5.364,22.026,22.026,0,0,0,1.9,2.253,21.282,21.282,0,0,0,2.2,1.864,9.824,9.824,0,0,0,1.167.811c.409.235.8.5,1.207.718a21.453,21.453,0,0,0,2.528,1.113,19.263,19.263,0,0,0,2.588.758c.429.094.872.141,1.3.215a8.579,8.579,0,0,0,1.294.141l1.287.067a11.259,11.259,0,0,0,1.261-.047,18.188,18.188,0,0,0,2.454-.282,19.493,19.493,0,0,0,13.116-9.126,18.621,18.621,0,0,0,2.173-5.177,14.083,14.083,0,0,0,.409-2.012c.047-.3.1-.57.127-.818l.04-.671c0-.4.054-.671.067-.925a2.922,2.922,0,0,1,.034-.315v1.918a7.291,7.291,0,0,1-.114.825,13.826,13.826,0,0,1-.375,2.012,18.494,18.494,0,0,1-2.139,5.244,19.661,19.661,0,0,1-13.25,9.267,17.757,17.757,0,0,1-2.488.3c-.422,0-.852.06-1.287.054l-1.3-.06a8.661,8.661,0,0,1-1.341-.141c-.443-.074-.885-.121-1.341-.215a20.913,20.913,0,0,1-2.629-.764,20.679,20.679,0,0,1-2.575-1.126c-.416-.221-.818-.483-1.227-.731a10.166,10.166,0,0,1-1.194-.818,22.794,22.794,0,0,1-2.24-1.9,21.8,21.8,0,0,1-1.931-2.28,19.192,19.192,0,0,1-2.823-5.431,19.506,19.506,0,0,1,0-12.445,19.191,19.191,0,0,1,2.823-5.431,22.655,22.655,0,0,1,1.938-2.287,22.9,22.9,0,0,1,2.233-1.9,11.063,11.063,0,0,1,1.194-.818c.416-.241.811-.5,1.227-.731a20.633,20.633,0,0,1,2.575-1.12,19.838,19.838,0,0,1,2.629-.764c.443-.094.885-.147,1.341-.215a8.654,8.654,0,0,1,1.341-.141l1.3-.067c.436,0,.858.04,1.287.054a18.815,18.815,0,0,1,2.488.3,19.634,19.634,0,0,1,13.23,9.314,18.493,18.493,0,0,1,2.139,5.244,13.663,13.663,0,0,1,.376,2.012c.04.3.094.57.114.818s0,.483,0,.671v.932A2.53,2.53,0,0,0,195.586,260.334Z" transform="translate(-155.605 -159.222)"/><rect class="c" width="15.349" height="20.351" transform="translate(12.649 90.933)"/><path class="e" d="M176.669,253.407a18.273,18.273,0,0,1-5.036,0,18.273,18.273,0,0,1,5.036,0Z" transform="translate(-155.605 -159.222)"/><path class="e" d="M181.115,256.27a37.1,37.1,0,0,1-5.042.174,36.958,36.958,0,0,1-5.036-.174,36.973,36.973,0,0,1,5.036-.174,37.1,37.1,0,0,1,5.043.174Z" transform="translate(-155.605 -159.222)"/><path class="e" d="M181.115,258.014a37.1,37.1,0,0,1-5.042.174,36.958,36.958,0,0,1-5.036-.174,35.059,35.059,0,0,1,5.036-.181A35.188,35.188,0,0,1,181.115,258.014Z" transform="translate(-155.605 -159.222)"/><path class="e" d="M181.115,259.75a37.1,37.1,0,0,1-5.042.174,36.958,36.958,0,0,1-5.036-.174,36.968,36.968,0,0,1,5.036-.174,37.106,37.106,0,0,1,5.043.174Z" transform="translate(-155.605 -159.222)"/><path class="e" d="M181.115,261.514a37.1,37.1,0,0,1-5.042.174,36.958,36.958,0,0,1-5.036-.174,35.05,35.05,0,0,1,5.036-.181A35.188,35.188,0,0,1,181.115,261.514Z" transform="translate(-155.605 -159.222)"/><path class="e" d="M181.115,263.23a37.1,37.1,0,0,1-5.042.174,36.953,36.953,0,0,1-5.036-.174,36.968,36.968,0,0,1,5.036-.174,37.111,37.111,0,0,1,5.043.174Z" transform="translate(-155.605 -159.222)"/><path class="e" d="M181.115,264.967a35.192,35.192,0,0,1-5.042.181,35.06,35.06,0,0,1-5.036-.181,36.963,36.963,0,0,1,5.036-.174,37.111,37.111,0,0,1,5.043.174Z" transform="translate(-155.605 -159.222)"/><path class="e" d="M181.115,266.711a37.1,37.1,0,0,1-5.042.174,36.963,36.963,0,0,1-5.036-.174,36.968,36.968,0,0,1,5.036-.174,37.106,37.106,0,0,1,5.043.174Z" transform="translate(-155.605 -159.222)"/><rect class="b" width="204.953" height="33.655" rx="15.952" transform="translate(0.177 0.302)"/><path class="d" d="M315.325,159.222v33.957h28.666A16.985,16.985,0,0,0,360.976,176.2h0a16.978,16.978,0,0,0-16.985-16.978Z" transform="translate(-155.605 -159.222)"/><path class="b" d="M341.98,175.255a15.565,15.565,0,0,0-.288-1.73,7.161,7.161,0,0,0-2.615-3.869,7.014,7.014,0,0,0-6.652-.979,6.572,6.572,0,0,0-1.777.972,7,7,0,0,0-1.482,9.763,6.5,6.5,0,0,0,1.482,1.489,6.592,6.592,0,0,0,1.77.959,7.094,7.094,0,0,0,9.267-4.835,15.5,15.5,0,0,0,.288-1.737,5.613,5.613,0,0,1-.161,1.77,7.142,7.142,0,0,1-2.6,4.023,7.242,7.242,0,0,1-6.907,1.086,6.758,6.758,0,0,1-1.864-.992,6.987,6.987,0,0,1-1.556-1.556,7.31,7.31,0,0,1,7.262-11.52,7.222,7.222,0,0,1,5.659,5.418A5.572,5.572,0,0,1,341.98,175.255Z" transform="translate(-155.605 -159.222)"/><path class="b" d="M348.632,185.286a37.062,37.062,0,0,1-4.131-2.743,35.433,35.433,0,0,1-3.929-3.031,35.94,35.94,0,0,1,4.131,2.743,35.432,35.432,0,0,1,3.929,3.031Z" transform="translate(-155.605 -159.222)"/><rect class="f" width="125.292" height="7.202" transform="translate(19.663 13.974)"/><path class="c" d="M344.783,193.178s.4,0,1.16-.074a10.594,10.594,0,0,0,1.415-.181,14.583,14.583,0,0,0,1.924-.436,16.147,16.147,0,0,0,4.908-2.468l.671-.5c.215-.188.422-.389.637-.583a13.787,13.787,0,0,0,1.274-1.3c.436-.456.778-1.013,1.194-1.542l.523-.865.268-.449.228-.476a15.421,15.421,0,0,0,1.408-4.238c.054-.389.114-.785.174-1.18a12.165,12.165,0,0,0,.067-1.22v-2.535a15.858,15.858,0,0,0-15.362-15.476c-4.573-.04-9.428,0-14.511,0l-159.021.054a15.885,15.885,0,0,0-10.461,3.983,15.651,15.651,0,0,0-5.183,9.763,11.973,11.973,0,0,0-.114,1.395c0,.463-.034.932,0,1.4a27.48,27.48,0,0,0,.107,2.8,15.275,15.275,0,0,0,1.589,5.284,15.892,15.892,0,0,0,7.8,7.376,16.093,16.093,0,0,0,5.23,1.254c.892.06,1.8.054,2.682.054h34.037l71.494.04,48.192.054,13.109.034h0l-13.109.034-48.192.054-71.494.04H173.384c-.905,0-1.8,0-2.722-.054a16.013,16.013,0,0,1-13.317-8.818,15.6,15.6,0,0,1-1.623-5.4,26.75,26.75,0,0,1-.114-2.836c0-.469,0-.939.034-1.415a11.283,11.283,0,0,1,.114-1.428,15.979,15.979,0,0,1,5.291-9.978,16.254,16.254,0,0,1,10.729-4.07l159.021.054c5.089,0,9.931,0,14.517.034a16.04,16.04,0,0,1,15.523,15.691V177.6c0,.416-.047.825-.074,1.227s-.121.8-.181,1.194a15.422,15.422,0,0,1-1.435,4.271l-.228.483-.275.443c-.181.3-.355.59-.536.878a19.2,19.2,0,0,1-1.207,1.542,12.469,12.469,0,0,1-1.281,1.308c-.221.2-.436.4-.671.583l-.671.5a16.093,16.093,0,0,1-4.949,2.447,14.491,14.491,0,0,1-1.938.422,10.107,10.107,0,0,1-1.422.161A11.383,11.383,0,0,1,344.783,193.178Z" transform="translate(-155.605 -159.222)"/></g><g transform="translate(121.089 90.409)"><path class="g" d="M255.982,172.257c-.61-.711-.671-1.341.7-1.435,3.024-.275,5.25-1.6,5.606-2.36s-.61-1.509-1.428-1.053a11.44,11.44,0,0,1-2.944.831,7.376,7.376,0,0,1-2.461,0c-.7-.107-1.341-.228-1.878-.342a14.332,14.332,0,0,1-4.58-1.77l-6.773,7.235,3.178,3.587a4.808,4.808,0,0,0,4.238,2.012,21.909,21.909,0,0,0,6.39-2.219c.5-.764,4.882,1.945,6.3,2.957s2.454.758,2.4-.215c-.034-.671-4.285-3.876-5.706-4.848a17.741,17.741,0,0,1-3.044-2.4" transform="translate(-189.94 -90.409)"/><path class="h" d="M252.006,178.54c0,.047-.194.127-.55.121a2.333,2.333,0,0,1-2.052-1.556c-.107-.329-.074-.55-.034-.557a4.513,4.513,0,0,0,1.039,1.341,4.459,4.459,0,0,0,1.6.65Z" transform="translate(-189.94 -90.409)"/><path class="h" d="M254.688,177.487c0,.04-.194.114-.53.094a2.313,2.313,0,0,1-1.951-1.522c-.1-.315-.08-.523-.04-.53a3.891,3.891,0,0,0,1.013,1.3,5.3,5.3,0,0,0,1.509.657Z" transform="translate(-189.94 -90.409)"/><path class="c" d="M261.99,102.212c.282,5.941,7.53,14.082,12.921,15.423,2.83.671,6.089.369,8.335,2.273,3.856,3.266,1.6,10.058,4.2,14.417,1.6,2.682,4.768,4.023,6.565,6.565,2.984,4.251.979,10.675-3.091,13.84s-9.5,3.768-14.6,3.634c-11.232-.288-22.732-3.856-30.845-11.815-3.815-3.742-18.735-15.282-13.532-42.647" transform="translate(-189.94 -90.409)"/><path class="d" d="M302.518,144.724l-42.694-12.673a27.17,27.17,0,0,0-6.216-1.871l-14.417.094a14,14,0,0,0-5.532,1.16L194.8,144.342a7.428,7.428,0,0,0-4.861,7.222h0c0,4.137,2.984,7.5,6.665,7.5h17.971l-.074.262,62.415.235h0l23.825.047c3.681,0,6.665-3.386,6.665-7.57A7.563,7.563,0,0,0,302.518,144.724Z" transform="translate(-189.94 -90.409)"/><path class="c" d="M293.962,149.345a1.89,1.89,0,0,1-.389,0l-1.1-.127c-.952-.121-2.333-.275-4.023-.436a123.92,123.92,0,0,0-13.411-.563,125.523,125.523,0,0,0-13.371.912c-1.7.208-3.085.4-4.023.543l-1.1.154a2.011,2.011,0,0,1-.382.034,1.3,1.3,0,0,1,.369-.1l1.086-.221c.945-.188,2.32-.416,4.023-.671a109.036,109.036,0,0,1,13.411-1.013,107.8,107.8,0,0,1,13.411.671c1.71.194,3.091.389,4.023.55l1.093.188A1.4,1.4,0,0,1,293.962,149.345Z" transform="translate(-189.94 -90.409)"/><g class="i" transform="translate(29.269 46.007)"><path class="b" d="M283.944,138.971a.584.584,0,0,1-.121.141l-.375.4c-.335.342-.831.852-1.509,1.469a24.712,24.712,0,0,1-2.6,2.085,12.739,12.739,0,0,1-3.99,1.9,10.246,10.246,0,0,1-5.331-.107,26.654,26.654,0,0,1-5.619-2.481,33.527,33.527,0,0,0-6.082-2.85,9.348,9.348,0,0,0-6.954.355c-2.246,1.013-4.157,2.555-6.243,3.668-.516.288-1.066.51-1.6.751a16.807,16.807,0,0,1-1.643.543,15.7,15.7,0,0,1-3.286.57,16.945,16.945,0,0,1-10.923-3,29.84,29.84,0,0,1-3.3-2.93,15.993,15.993,0,0,0-2.555-2.085,6.887,6.887,0,0,0-2.615-.979,3.962,3.962,0,0,1,.731.08,6.316,6.316,0,0,1,1.958.778,15.972,15.972,0,0,1,2.615,2.065,30.266,30.266,0,0,0,3.306,2.87,16.764,16.764,0,0,0,10.762,2.883,15.589,15.589,0,0,0,3.219-.563,16.089,16.089,0,0,0,1.6-.543c.516-.235,1.053-.449,1.556-.738,2.059-1.093,3.963-2.642,6.27-3.688a9.716,9.716,0,0,1,7.195-.362,33.635,33.635,0,0,1,6.136,2.9,26.661,26.661,0,0,0,5.539,2.481,9.978,9.978,0,0,0,5.2.148,12.781,12.781,0,0,0,3.943-1.824,24.986,24.986,0,0,0,2.608-2.012c.671-.6,1.2-1.086,1.556-1.408l.4-.376C283.89,139,283.937,138.964,283.944,138.971Z" transform="translate(-219.209 -136.416)"/></g><g class="j" transform="translate(27.66 58.848)"><path d="M217.6,149.257l26.99,5.089-3.118,5.076-.825.013Z" transform="translate(-217.6 -149.257)"/></g><g class="i" transform="translate(77.502 53.518)"><path class="b" d="M299.293,143.927a1.917,1.917,0,0,1,0,.409,9.277,9.277,0,0,1-.121,1.18,10.333,10.333,0,0,1-10.521,8.543,17.246,17.246,0,0,1-4.023-.738c-1.341-.382-2.649-.8-3.929-1.059a11.212,11.212,0,0,0-3.728-.194,12.07,12.07,0,0,0-8.751,5.512l-.349.583-.221.443a1.8,1.8,0,0,1-.208.362,2.682,2.682,0,0,1,.141-.389c.06-.134.121-.288.194-.463l.329-.6a11.131,11.131,0,0,1,2.857-3.286,12,12,0,0,1,5.975-2.481,11.641,11.641,0,0,1,3.836.181c1.308.255,2.615.671,3.963,1.059a17.125,17.125,0,0,0,3.963.731,10.233,10.233,0,0,0,8.677-4.3,10.635,10.635,0,0,0,1.69-3.909C299.259,144.5,299.252,143.92,299.293,143.927Z" transform="translate(-267.442 -143.926)"/></g><path class="d" d="M194.835,158.2s48.789,21.511,48.575,21.035,7.745-14.6,7.745-14.6l-39.529-19.54Z" transform="translate(-189.94 -90.409)"/><path class="c" d="M217.258,147.876a7.155,7.155,0,0,1,1.006.422l2.682,1.267c2.266,1.08,5.364,2.6,8.8,4.292s6.524,3.245,8.757,4.385l2.635,1.341a6.56,6.56,0,0,1,.945.543,6.034,6.034,0,0,1-1.006-.416l-2.682-1.267c-2.26-1.08-5.364-2.6-8.8-4.292s-6.524-3.245-8.757-4.385l-2.635-1.341A7.1,7.1,0,0,1,217.258,147.876Z" transform="translate(-189.94 -90.409)"/><g class="i" transform="translate(4.338 63.577)"><path class="b" d="M227.946,154.407a4.2,4.2,0,0,1-.456,1.448,6.826,6.826,0,0,1-2.91,2.91,9.033,9.033,0,0,1-2.682.966,10.837,10.837,0,0,1-3.3,0,24.73,24.73,0,0,1-7.114-2.387,37.584,37.584,0,0,0-6.967-2.7,12.265,12.265,0,0,0-3.192-.369,9.951,9.951,0,0,0-2.763.469,7.5,7.5,0,0,0-3.406,2.132,14.091,14.091,0,0,0-.878,1.207,4.453,4.453,0,0,1,.778-1.294,7.376,7.376,0,0,1,3.433-2.28,10.018,10.018,0,0,1,2.823-.523,12.258,12.258,0,0,1,3.279.349,35.995,35.995,0,0,1,6.994,2.722,25.267,25.267,0,0,0,7.014,2.387,10.466,10.466,0,0,0,3.205,0,8.945,8.945,0,0,0,2.642-.9,6.88,6.88,0,0,0,2.9-2.749,11.181,11.181,0,0,0,.6-1.395Z" transform="translate(-194.278 -153.986)"/></g><g class="i" transform="translate(40.669 78.344)"><path class="b" d="M248.659,169.166c0,.06-1.08-.114-2.823-.148a24.508,24.508,0,0,0-3.051.161,25.425,25.425,0,0,0-3.668.724,25.826,25.826,0,0,0-3.5,1.3,24.921,24.921,0,0,0-2.682,1.468c-1.469.939-2.287,1.656-2.327,1.6a3.022,3.022,0,0,1,.543-.536,16.15,16.15,0,0,1,1.65-1.267,20.406,20.406,0,0,1,2.682-1.556,21.772,21.772,0,0,1,7.255-2.059,20.785,20.785,0,0,1,3.1-.08,15.089,15.089,0,0,1,2.072.215A2.85,2.85,0,0,1,248.659,169.166Z" transform="translate(-230.608 -168.752)"/></g><g class="j" transform="translate(64.474 39.677)"><path d="M254.674,130.086c-.8,2.253.4,4.694,1.582,6.773a18.367,18.367,0,0,0,2.83,4.11,6.182,6.182,0,0,0,4.432,2.012c2.193-.074,4.151-1.69,6.343-1.562a8.406,8.406,0,0,1,4.023,1.8,31.9,31.9,0,0,0,6.759,3.748,12.184,12.184,0,0,0,7.6.476,7.584,7.584,0,0,0,5.264-5.21" transform="translate(-254.413 -130.086)"/></g><path class="g" d="M254.855,129.469c.114-2.629.255-5,.255-5s5.874-.744,6.122-6.705-.342-19.788-.342-19.788l-10.776-5.217-11.621,9.388,1.817,27.492a7.3,7.3,0,0,0,7.624,6.806h0a7.289,7.289,0,0,0,6.92-6.974Z" transform="translate(-189.94 -90.409)"/><path class="c" d="M259.878,108.776a.744.744,0,1,1-.758-.751.758.758,0,0,1,.758.751Z" transform="translate(-189.94 -90.409)"/><path class="c" d="M260.6,107.18c-.094.1-.671-.376-1.455-.4s-1.4.376-1.489.268.054-.235.315-.422a1.9,1.9,0,0,1,1.194-.349,2.012,2.012,0,0,1,1.16.449C260.568,106.939,260.649,107.134,260.6,107.18Z" transform="translate(-189.94 -90.409)"/><path class="c" d="M250.973,108.776a.751.751,0,1,1-.764-.751A.751.751,0,0,1,250.973,108.776Z" transform="translate(-189.94 -90.409)"/><path class="c" d="M251.7,107.335c-.094.1-.671-.376-1.462-.4s-1.4.376-1.482.268.054-.235.315-.422a1.9,1.9,0,0,1,1.187-.349,1.924,1.924,0,0,1,1.16.456C251.664,107.093,251.744,107.288,251.7,107.335Z" transform="translate(-189.94 -90.409)"/><path class="c" d="M254.715,114.248a5.237,5.237,0,0,1,1.341-.2c.2,0,.4-.047.436-.194a1.18,1.18,0,0,0-.127-.671c-.181-.543-.376-1.106-.583-1.7a31.52,31.52,0,0,1-1.294-4.439,30.433,30.433,0,0,1,1.623,4.325c.194.6.382,1.167.557,1.71a1.341,1.341,0,0,1,.094.865.516.516,0,0,1-.342.308,1.388,1.388,0,0,1-.349.04,5.036,5.036,0,0,1-1.354-.04Z" transform="translate(-189.94 -90.409)"/><path class="b" d="M252.073,115.073c-.818-.536,2.273,1.341,3.909,1.308a2.2,2.2,0,0,1-2.649.825A1.749,1.749,0,0,1,252.073,115.073Z" transform="translate(-189.94 -90.409)"/><path class="h" d="M255.11,124.467a14.336,14.336,0,0,1-7.772-2.548s1.831,4.365,7.671,4.023Z" transform="translate(-189.94 -90.409)"/><path class="c" d="M232.157,108.025h0c0,5.183-1.375,18.9,8.047,20.787l-.315-18.842s9.153-4.318,10.729-13.31l.054.054c.583,1.341,1.629,4.271.992,6.645l8.576,2.112.986.9a11.773,11.773,0,0,0-2.836-12.74c-5.887-6.035-10.923-1.67-14.082-2.012-2.1-.255-9.388-.208-12.345,12.331Z" transform="translate(-189.94 -90.409)"/><path class="g" d="M240.123,110.151a2.1,2.1,0,0,0-2.521.6,3.44,3.44,0,0,0,3.426,5.653" transform="translate(-189.94 -90.409)"/><path class="h" d="M239.942,114.617c0,.04-.268.087-.671,0a1.817,1.817,0,0,1-1.254-1.113,1.341,1.341,0,0,1,.04-.979,1.428,1.428,0,0,1,.51-.6c.376-.241.671-.221.671-.181s-.235.127-.516.382a1.16,1.16,0,0,0-.362,1.261,1.77,1.77,0,0,0,1.006.992C239.694,114.516,239.942,114.563,239.942,114.617Z" transform="translate(-189.94 -90.409)"/><path class="d" d="M239.158,115.8a.671.671,0,1,0,.262,0" transform="translate(-189.94 -90.409)"/><path class="g" d="M256.525,159.591v-9.85s-14.625,3.031-14.893,9.73Z" transform="translate(-189.94 -90.409)"/><path class="c" d="M255,128.43a12.271,12.271,0,0,0,12,11.279c2.159.034,4.432-.476,6.4.4,1.717.771,2.823,2.427,4.171,3.735a12.358,12.358,0,0,0,12.258,2.776c1.777-.6,4.587-1.871,4.915-3.708.255-1.4-1.462-2.8-2.468-3.8a12.446,12.446,0,0,0-3.6-2.253c-10.42-4.9-21.6-8.449-33.092-9.059" transform="translate(-189.94 -90.409)"/></g></g></svg>