<svg xmlns="http://www.w3.org/2000/svg" width="30.824" height="30.814" viewBox="0 0 30.824 30.814">
  <g id="selected-bank-icn" transform="translate(-205.119 -280.998)">
    <path id="Subtraction_22" data-name="Subtraction 22" d="M19137.928,22682.813l0,0-30.807-30.812h23.045a7.814,7.814,0,0,1,5.9,2.111c1.367,1.434,1.992,3.551,1.863,6.291v22.412Zm-13.783-22.148a.468.468,0,0,0-.334.135l-.672.672a.465.465,0,0,0-.141.332.477.477,0,0,0,.141.34l3.086,3.086a.464.464,0,0,0,.33.137.469.469,0,0,0,.336-.137l5.459-5.459a.472.472,0,0,0,0-.672l-.672-.672a.468.468,0,0,0-.334-.135.48.48,0,0,0-.338.135l-4.451,4.451-2.078-2.078A.467.467,0,0,0,19124.145,22660.664Z" transform="translate(-18902 -22371)" fill="#08ce73"/>
  </g>
</svg>
