<svg xmlns="http://www.w3.org/2000/svg" width="239.38" height="250" viewBox="0 0 239.38 250"><defs><style>.a{fill:#f5f5f5;}.b{fill:#e0e0e0;}.c{fill:#ebebeb;}.d{fill:#263238;}.e{fill:#fff;}.f{fill:#455a64;}.g{fill:#ff725e;}.h{opacity:0.2;}.i{fill:#ffbe9d;}.j{fill:#eb996e;}.k{opacity:0.3;}.l{opacity:0.6;}</style></defs><g transform="translate(-21.07 -10.03)"><g transform="translate(21.07 10.03)"><path class="a" d="M208.524,445.742c-.827-.707-2.672-2.958-1.248-5.573a4.956,4.956,0,0,1,2.631-1.856,10.569,10.569,0,0,0,2.885-1.5c1.56-1.331,2-3.54,3.041-5.318a6.654,6.654,0,0,1,5.771-3.462c2.693.125,4.939,2.324,5.958,4.835s1.04,5.292,1.076,8c0,1.5-.057,3.187-1.154,4.2-1.014.931-2.542.941-3.915.9l-14.723-.452" transform="translate(-110.222 -210.724)"/><path class="b" d="M228.565,384.23H189.85l6.971,41.59a4.642,4.642,0,0,0,3.306,3.7l.135.036c.114.031.229.073.348.094a4.832,4.832,0,0,0,.785.088v.042l.192-.031h17.255a5.121,5.121,0,0,0,.946-.094,4.679,4.679,0,0,0,3.92-4.065l3.364-28.655.151-1.139h0l1.331-11.349Zm-7.278,26.513h-3.972l.374-12.077H222.3Zm1.393-12.077h3.805l-1.419,12.066H221.64ZM211.326,424.14l-.239-10.486h5.719l-.364,10.486Zm-6.186-10.486h5.583l.239,10.486h-4.986Zm.432,10.486h-4.679c-.447-2.833-1.04-6.509-1.648-10.486h5.49Zm-.655-13.381-.951-12.092h6.394l.276,12.066Zm6.1,0-.3-12.092h6.561l-.4,12.066Zm-.343-14.962-.26-11.177h7.356L217.4,395.8Zm-.385,0h-6.535l-.873-11.167h7.148Zm-6.925,0h-6.914c-.244-1.56-.478-3-.686-4.32-.723-4.518-.993-6.238-1.144-6.857H202.5Zm.229,2.9.936,12.066h-5.719c-.192-1.222-.39-2.464-.582-3.7-.447-2.849-.9-5.719-1.32-8.365Zm-5.173,12.066h-3.738l-2.022-12.092h3.857c.593,3.748,1.248,7.9,1.9,12.087Zm.457,2.9c.567,3.639,1.128,7.205,1.643,10.486h-3.592l-1.757-10.486Zm17.967,10.486.348-10.486h3.821l-.9,10.486Zm.941-28.343.369-11.177H223.5l-.957,11.177ZM194.258,384.63c.151.806.858,5.2,1.8,11.177h-3.883L190.3,384.63ZM223.5,424.14h-2.989l.894-10.486h3.327Zm3.327-28.343h-3.9l.957-11.177h4.253Z" transform="translate(-102.106 -189.694)"/><path class="c" d="M360.28,42.094a5.75,5.75,0,0,0,3.421-5.318,5.4,5.4,0,1,0-10.777-.057,5.745,5.745,0,0,0,3.431,5.37c-8.292,1.248-7.918,10.262-7.918,10.262l19.615.088S368.484,43.331,360.28,42.094Z" transform="translate(-178.248 -20.098)"/><path class="c" d="M347.337,53.273a21.621,21.621,0,1,1,21.616-21.618,21.622,21.622,0,0,1-21.616,21.618Zm0-42.718a21.11,21.11,0,1,0,0-.021Z" transform="translate(-167.337 -10.03)"/><path class="c" d="M39.785,181.511A18.715,18.715,0,1,1,58.5,162.8,18.715,18.715,0,0,1,39.785,181.511Zm0-36.869a18.2,18.2,0,1,0,18.2,18.2A18.2,18.2,0,0,0,39.785,144.641Z" transform="translate(-21.07 -74.391)"/><path class="c" d="M74.848,303.688a9.529,9.529,0,1,1,9.55-9.508A9.529,9.529,0,0,1,74.848,303.688Zm0-18.533a9.015,9.015,0,1,0,6.388,2.638,9.009,9.009,0,0,0-6.388-2.638Z" transform="translate(-42.325 -141.874)"/><path class="c" d="M51.084,171.381A4.892,4.892,0,0,0,54,166.858a4.6,4.6,0,1,0-9.176-.047,4.876,4.876,0,0,0,2.937,4.57C40.7,172.447,41,180.12,41,180.12l16.7.078S58.081,172.441,51.084,171.381Z" transform="translate(-30.637 -82.966)"/><path class="c" d="M80.689,299.031a2.4,2.4,0,0,0,1.419-2.215,2.256,2.256,0,1,0-4.507,0,2.407,2.407,0,0,0,1.435,2.241c-3.462.52-3.306,4.289-3.306,4.289l8.2.036S84.12,299.551,80.689,299.031Z" transform="translate(-47.313 -146.589)"/><path class="c" d="M225.181,75.56c.026.073-30.672,10.267-68.576,22.77S87.971,120.918,87.94,120.851s30.672-10.267,68.581-22.776S225.16,75.492,225.181,75.56Z" transform="translate(-53.176 -41.493)"/><path class="c" d="M72.642,251.435c-.073,0-2.116-8.141-4.564-18.2s-4.372-18.268-4.3-18.3,2.116,8.136,4.564,18.2S72.73,251.414,72.642,251.435Z" transform="translate(-41.574 -108.413)"/><path class="c" d="M454.4,169.338a9.529,9.529,0,1,1,9.529-9.529A9.529,9.529,0,0,1,454.4,169.338Zm0-18.533a9.009,9.009,0,1,0,9.009,9A9.009,9.009,0,0,0,454.4,150.805Z" transform="translate(-224.549 -77.368)"/><path class="c" d="M460.263,164.635a2.4,2.4,0,0,0,1.43-2.22,2.256,2.256,0,1,0-4.5,0,2.4,2.4,0,0,0,1.435,2.241c-3.468.52-3.306,4.289-3.306,4.289l8.193.036S463.7,165.155,460.263,164.635Z" transform="translate(-229.565 -82.038)"/><path class="c" d="M63.885,62.288A9.529,9.529,0,1,1,73.4,52.759a9.529,9.529,0,0,1-9.514,9.529Zm0-18.539a9.009,9.009,0,1,0,8.994,9.009A9.009,9.009,0,0,0,63.885,43.75Z" transform="translate(-37.044 -25.97)"/><path class="c" d="M69.768,57.58a2.412,2.412,0,0,0,1.43-2.225,2.256,2.256,0,1,0-4.5,0A2.4,2.4,0,0,0,68.131,57.6c-3.468.52-3.312,4.289-3.312,4.289l8.2.036S73.231,58.095,69.768,57.58Z" transform="translate(-42.075 -30.635)"/><path class="c" d="M420.494,122.723c-.052.052-7.73-7.564-17.156-17.015S386.328,88.552,386.38,88.5s7.73,7.564,17.156,17.015S420.546,122.671,420.494,122.723Z" transform="translate(-196.466 -47.706)"/><path class="c" d="M120.048,110.8c-.052.052-8.224-7.8-18.253-17.525S83.678,75.6,83.73,75.56s8.224,7.8,18.258,17.525S120.1,110.745,120.048,110.8Z" transform="translate(-51.155 -41.493)"/></g><g transform="translate(72.248 22.29)"><rect class="d" width="117.912" height="169.213" rx="10.12" transform="translate(0.076 0.144)"/><path class="d" d="M232.24,202.969h.364a3.57,3.57,0,0,0,.452-.057,4.506,4.506,0,0,0,.619-.135,5.4,5.4,0,0,0,1.6-.78,5.282,5.282,0,0,0,1.606-1.851,5.459,5.459,0,0,0,.52-1.4,8.45,8.45,0,0,0,.094-1.648V183.786c0-14.307,0-35-.036-60.565V39.673a8,8,0,0,0-.083-1.56,4.95,4.95,0,0,0-.483-1.456,5.277,5.277,0,0,0-2.126-2.183,5.8,5.8,0,0,0-1.456-.52,8.224,8.224,0,0,0-1.56-.1H124.866a5.126,5.126,0,0,0-5.064,4.19,8.837,8.837,0,0,0-.094,1.788V197.126a8.956,8.956,0,0,0,.062,1.352,5.3,5.3,0,0,0,.359,1.284,5.2,5.2,0,0,0,4.029,3.072,9.187,9.187,0,0,0,1.315.052H149.5l60.56.036h0l-60.56.036H125.474a8.936,8.936,0,0,1-1.341-.057,5.323,5.323,0,0,1-4.549-4.512,8.176,8.176,0,0,1-.062-1.378V39.855a9.52,9.52,0,0,1,.1-1.835,5.438,5.438,0,0,1,1.8-3.166,5.505,5.505,0,0,1,3.447-1.237H231.679a8.4,8.4,0,0,1,1.606.1,5.822,5.822,0,0,1,1.518.52,5.469,5.469,0,0,1,2.215,2.277,5.2,5.2,0,0,1,.52,1.518,8.11,8.11,0,0,1,.088,1.56v83.548c0,25.567-.026,46.268-.036,60.565v13.309a8.561,8.561,0,0,1-.1,1.658,5.672,5.672,0,0,1-.52,1.414,5.423,5.423,0,0,1-1.627,1.861,5.354,5.354,0,0,1-1.622.769,4.51,4.51,0,0,1-.619.135,3.493,3.493,0,0,1-.457.047Z" transform="translate(-119.513 -33.612)"/><rect class="e" width="110.478" height="141.311" transform="translate(3.357 12.216)"/><path class="d" d="M236.371,198.316c0-.936-.047-57.425-.109-141.316l.109.109-110.462.01h0l.12-.12V198.316l-.1-.1,110.478.1-110.5.1h-.1V56.88H236.48v.1C236.412,140.891,236.371,197.38,236.371,198.316Z" transform="translate(-122.536 -44.784)"/><path class="f" d="M233.406,338.818a4.528,4.528,0,1,1-4.523-4.528,4.528,4.528,0,0,1,4.523,4.528Z" transform="translate(-169.848 -177.976)"/><path class="f" d="M231.595,44.758H207.509a1.679,1.679,0,0,1-1.679-1.679h0a1.679,1.679,0,0,1,1.679-1.679h24.086a1.679,1.679,0,0,1,1.679,1.679h0A1.679,1.679,0,0,1,231.595,44.758Z" transform="translate(-160.956 -37.351)"/><path class="d" d="M235.569,77.758c0,.047-24.392.088-54.472.088s-54.477-.042-54.477-.088,24.387-.088,54.477-.088S235.569,77.712,235.569,77.758Z" transform="translate(-122.925 -54.766)"/><path class="f" d="M236.306,68.658c0,.047-8.318.088-18.58.088s-18.585-.042-18.585-.088,8.318-.088,18.585-.088S236.306,68.612,236.306,68.658Z" transform="translate(-157.744 -50.396)"/><path class="b" d="M134.7,66.513a1.123,1.123,0,1,1-1.123-1.123A1.123,1.123,0,0,1,134.7,66.513Z" transform="translate(-125.725 -48.87)"/><path class="b" d="M142,66.513a1.123,1.123,0,1,1-1.123-1.123A1.123,1.123,0,0,1,142,66.513Z" transform="translate(-129.229 -48.87)"/><path class="b" d="M149.3,66.513a1.123,1.123,0,1,1-1.123-1.123,1.123,1.123,0,0,1,1.123,1.123Z" transform="translate(-132.734 -48.87)"/><path class="f" d="M202.417,102.147h-2.5l-.473,1.154H198.17l2.4-5.381H201.8l2.4,5.381h-1.3Zm-.39-.946-.853-2.079-.853,2.079Z" transform="translate(-157.279 -64.488)"/><path class="f" d="M214.271,103.3l-1.04-1.5h-1.149v1.5H210.84V97.92h2.329c1.435,0,2.334.749,2.334,1.955a1.742,1.742,0,0,1-1.107,1.695L215.6,103.3Zm-1.17-4.362h-1.014v1.872H213.1c.764,0,1.149-.354,1.149-.936S213.866,98.939,213.1,98.939Z" transform="translate(-163.362 -64.488)"/><path class="f" d="M222.111,98.92H220.39V97.88h4.679v1.04h-1.71v4.362h-1.248Z" transform="translate(-167.947 -64.469)"/><path class="f" d="M230.69,97.92h1.248V103.3H230.69Z" transform="translate(-172.892 -64.488)"/><path class="f" d="M234.89,100.533a2.963,2.963,0,0,1,5.131-1.83l-.8.738a1.726,1.726,0,1,0,0,2.173l.8.738a2.953,2.953,0,0,1-5.131-1.82Z" transform="translate(-174.909 -64.408)"/><path class="f" d="M246.37,97.92h1.242v4.367h2.724v1.04H246.4Z" transform="translate(-180.421 -64.488)"/><path class="f" d="M259.459,102.3v1H255.3V97.92h4.065v1h-2.828v1.165h2.5v.993h-2.5v1.248Z" transform="translate(-184.708 -64.488)"/><path class="d" d="M169.27,103.918c0,.047-5.765.088-12.877.088s-12.882-.042-12.882-.088,5.765-.088,12.882-.088S169.27,103.882,169.27,103.918Z" transform="translate(-131.035 -67.326)"/><path class="d" d="M299.853,103.918c0,.047-6.057.088-13.517.088s-13.517-.042-13.517-.088,6.051-.088,13.517-.088S299.853,103.882,299.853,103.918Z" transform="translate(-193.12 -67.326)"/><path class="d" d="M188.308,134.081c0,.083-10.117.146-22.594.146s-22.6-.062-22.6-.146,10.117-.151,22.6-.151S188.308,134,188.308,134.081Z" transform="translate(-130.843 -81.778)"/><path class="d" d="M248.468,133.221c0,.083-2.745.146-6.124.146s-6.124-.062-6.124-.146,2.74-.151,6.124-.151S248.468,133.138,248.468,133.221Z" transform="translate(-175.548 -81.365)"/><path class="d" d="M294.076,132.721c0,.078-5.661.146-12.638.146s-12.638-.068-12.638-.146,5.656-.151,12.638-.151S294.076,132.638,294.076,132.721Z" transform="translate(-191.19 -81.125)"/><path class="d" d="M233.176,142.746c0,.083-20.3.151-45.338.151s-45.338-.068-45.338-.151,20.275-.146,45.338-.146S233.176,142.662,233.176,142.746Z" transform="translate(-130.55 -85.94)"/><path class="d" d="M184.948,153.271c0,.078-9.389.146-20.972.146S143,153.349,143,153.271s9.389-.151,20.977-.151S184.948,153.188,184.948,153.271Z" transform="translate(-130.79 -90.991)"/><path class="d" d="M242.7,153.254c0,.078-2.568.146-5.719.146s-5.719-.068-5.719-.146a54.694,54.694,0,0,1,5.719-.151A54.631,54.631,0,0,1,242.7,153.254Z" transform="translate(-173.166 -90.974)"/><path class="d" d="M289.725,152.266c0,.083-6.592.151-14.723.151s-14.723-.068-14.723-.151,6.592-.146,14.723-.146S289.725,152.188,289.725,152.266Z" transform="translate(-187.099 -90.511)"/><path class="d" d="M187.253,243.456c0,.083-10.122.151-22.6.151s-22.6-.068-22.6-.151,10.117-.146,22.6-.146S187.253,243.378,187.253,243.456Z" transform="translate(-130.334 -134.294)"/><path class="d" d="M247.368,242.6c0,.083-2.74.151-6.124.151s-6.124-.068-6.124-.151,2.745-.146,6.124-.146S247.368,242.518,247.368,242.6Z" transform="translate(-175.019 -133.881)"/><path class="d" d="M292.976,242.12c0,.083-5.661.151-12.638.151S267.7,242.2,267.7,242.12s5.656-.12,12.633-.12S292.976,242.036,292.976,242.12Z" transform="translate(-190.662 -133.665)"/><path class="d" d="M232.076,252.121c0,.078-20.3.146-45.338.146s-45.338-.068-45.338-.146,20.275-.151,45.338-.151S232.076,252.038,232.076,252.121Z" transform="translate(-130.022 -138.452)"/><path class="d" d="M183.848,262.646c0,.083-9.389.151-20.972.151s-20.977-.068-20.977-.151,9.389-.146,20.977-.146S183.848,262.562,183.848,262.646Z" transform="translate(-130.262 -143.508)"/><path class="d" d="M241.6,262.628a54.556,54.556,0,0,1-5.719.151,54.69,54.69,0,0,1-5.719-.151,55.623,55.623,0,0,1,5.719-.146,55.511,55.511,0,0,1,5.719.146Z" transform="translate(-172.638 -143.49)"/><path class="d" d="M288.625,261.641c0,.083-6.592.146-14.723.146s-14.723-.062-14.723-.146,6.592-.151,14.723-.151S288.625,261.558,288.625,261.641Z" transform="translate(-186.571 -143.023)"/><rect class="g" width="55.496" height="35.429" transform="translate(11.888 68.071)"/><path class="d" d="M198.025,199.048v-8.24c0-5.261-.036-12.836-.062-22.11l.114.114-50.287.031h0l.146-.146v30.35l-.135-.14,36.167.068,10.4.036h.057l-10.356.036-36.256.068h-.14V168.48h.151l50.287.036h.12v.114c0,9.306-.042,16.9-.057,22.183,0,2.6,0,4.679-.031,6.062v1.56A4.161,4.161,0,0,0,198.025,199.048Z" transform="translate(-133.032 -98.366)"/><g class="h" transform="translate(16.062 81.931)"><path d="M150.41,209.962l14.546-18.752,10.517,12.009,8.042-7.242,14.634,13.985Z" transform="translate(-150.41 -191.21)"/></g><g class="h" transform="translate(37.887 76.456)"><path d="M198.878,183.924a3.239,3.239,0,1,1-.947-2.294,3.244,3.244,0,0,1,.947,2.294Z" transform="translate(-192.39 -180.68)"/></g><path class="d" d="M288.184,163.866c0,.083-6.966.151-15.56.151s-15.555-.068-15.555-.151,6.961-.146,15.555-.146S288.184,163.756,288.184,163.866Z" transform="translate(-185.558 -96.081)"/><path class="d" d="M288.184,174.421c0,.083-6.966.146-15.56.146s-15.555-.062-15.555-.146,6.961-.151,15.555-.151S288.184,174.338,288.184,174.421Z" transform="translate(-185.558 -101.146)"/><path class="d" d="M286.034,220.586c0,.083-6.966.151-15.555.151s-15.56-.068-15.56-.151,6.966-.146,15.56-.146S286.034,220.508,286.034,220.586Z" transform="translate(-184.526 -123.314)"/><path class="d" d="M286.034,232.561c0,.078-6.966.146-15.555.146s-15.56-.068-15.56-.146,6.966-.151,15.56-.151S286.034,232.478,286.034,232.561Z" transform="translate(-184.526 -129.061)"/><path class="d" d="M278.021,185.031c0,.078-4.679.146-10.475.146s-10.475-.068-10.475-.146,4.679-.151,10.475-.151S278.021,184.942,278.021,185.031Z" transform="translate(-185.558 -106.24)"/><path class="d" d="M310.139,184.85a50.77,50.77,0,0,1-7.819,0,52.572,52.572,0,0,1,7.819,0Z" transform="translate(-207.284 -106.147)"/><path class="d" d="M298.088,196.661c0,.083-4.679.146-10.434.146s-10.434-.062-10.434-.146,4.679-.151,10.434-.151S298.088,196.578,298.088,196.661Z" transform="translate(-195.233 -111.824)"/><path class="d" d="M278.021,208.541c0,.083-4.679.146-10.475.146s-10.475-.062-10.475-.146,4.679-.151,10.475-.151S278.021,208.458,278.021,208.541Z" transform="translate(-185.558 -117.528)"/><path class="d" d="M310.139,208.4a52.569,52.569,0,0,1-7.819,0,50.765,50.765,0,0,1,7.819,0Z" transform="translate(-207.284 -117.453)"/><path class="d" d="M263.93,196.374a28.57,28.57,0,0,1-5.76,0,27.586,27.586,0,0,1,5.76,0Z" transform="translate(-186.086 -111.677)"/><path class="d" d="M181.9,294.744a2.589,2.589,0,0,1,.27-.026l.338-.026.457-.073a6.239,6.239,0,0,0,2.761-1.289,6.109,6.109,0,0,0,2.178-4.19c.031-.468,0-.962,0-1.471V286.5l-.057-.39a5.994,5.994,0,0,0-.182-.79,7.537,7.537,0,0,0-.312-.775,5.719,5.719,0,0,0-.957-1.44,6,6,0,0,0-3.145-1.851,8.235,8.235,0,0,0-1.975-.151h-31.8a5.963,5.963,0,0,0-5.791,4.523,10.105,10.105,0,0,0-.187,2.573,6.608,6.608,0,0,0,.374,2.48,6.015,6.015,0,0,0,1.3,2.079,5.926,5.926,0,0,0,4.279,1.84l16.9.031,11.39.042,3.119.026h-3.119l-11.39.042-16.9.031a6.2,6.2,0,0,1-4.466-1.908,6.3,6.3,0,0,1-1.362-2.043,6.832,6.832,0,0,1-.4-2.568,10.315,10.315,0,0,1,.192-2.636,6.238,6.238,0,0,1,6.051-4.731h31.8a8.463,8.463,0,0,1,2.022.166,6.181,6.181,0,0,1,3.244,1.929,6.072,6.072,0,0,1,.977,1.487,6.538,6.538,0,0,1,.312.8,7.9,7.9,0,0,1,.187.811,2.72,2.72,0,0,0,.057.405v1.185c0,.52,0,1-.031,1.487a6.14,6.14,0,0,1-2.267,4.253,6.025,6.025,0,0,1-2.812,1.263l-.463.062h-.343Z" transform="translate(-130.89 -152.332)"/><rect class="g" width="44.662" height="13.751" rx="6.875" transform="translate(62.414 128.371)"/><path class="e" d="M270.78,293.582l.3-.655a2.188,2.188,0,0,0,1.237.4c.52,0,.728-.172.728-.406,0-.7-2.183-.218-2.183-1.617,0-.634.52-1.17,1.56-1.17a2.537,2.537,0,0,1,1.3.333l-.229.639a2.153,2.153,0,0,0-1.04-.291c-.52,0-.712.192-.712.426,0,.691,2.183.218,2.183,1.6,0,.629-.52,1.165-1.6,1.165A2.662,2.662,0,0,1,270.78,293.582Z" transform="translate(-192.141 -156.773)"/><path class="e" d="M281.387,290.26v3.759h-.868v-1.56h-1.71v1.56h-.868V290.26h.868v1.482h1.71V290.26Z" transform="translate(-195.579 -156.836)"/><path class="e" d="M288.258,293.213h-1.742l-.333.806h-.894l1.674-3.759h.863l1.679,3.759h-.915Zm-.27-.66-.6-1.44-.6,1.44Z" transform="translate(-199.107 -156.836)"/><path class="e" d="M296.587,294.019l-.723-1.04h-.8v1.04h-.873V290.26h1.627c1,0,1.632.52,1.632,1.362a1.211,1.211,0,0,1-.769,1.185l.842,1.211Zm-.816-3.052h-.707v1.31h.707c.52,0,.8-.244.8-.655S296.3,290.967,295.77,290.967Z" transform="translate(-203.381 -156.836)"/><path class="e" d="M304.691,293.317v.7H301.78V290.26h2.844v.7h-1.975v.816h1.742v.676h-1.742v.868Z" transform="translate(-207.025 -156.836)"/><path class="e" d="M262.453,294.7H258.44a.26.26,0,0,1-.26-.26V291.38a.26.26,0,0,1,.26-.26h.889a.26.26,0,0,1,0,.52H258.7v2.537h3.494V291.64h-.645a.26.26,0,1,1,0-.52h.9a.26.26,0,0,1,.26.26v3.057A.265.265,0,0,1,262.453,294.7Z" transform="translate(-186.091 -157.249)"/><path class="e" d="M262.3,291.643a.26.26,0,0,1-.26-.26V287.64a.26.26,0,0,1,.52,0v3.743A.26.26,0,0,1,262.3,291.643Z" transform="translate(-187.945 -155.454)"/><path class="e" d="M262.246,288.9a.249.249,0,0,1-.2-.1l-.582-.754-.655.764a.265.265,0,0,1-.369.026.255.255,0,0,1-.026-.364l.863-1.009a.27.27,0,0,1,.2-.088.244.244,0,0,1,.2.1l.78,1.009a.255.255,0,0,1-.208.416Z" transform="translate(-187.131 -155.454)"/><path class="d" d="M166.74,292.16a1.866,1.866,0,0,1,3.234-1.154l-.52.468a1.087,1.087,0,1,0,0,1.372l.52.463a1.861,1.861,0,0,1-3.234-1.149Z" transform="translate(-142.188 -156.907)"/><path class="d" d="M175.677,293.187h-1.56l-.3.728H173l1.513-3.395h.775l1.518,3.395h-.827Zm-.25-.6-.52-1.3-.52,1.3Z" transform="translate(-145.194 -156.961)"/><path class="d" d="M184.119,290.52v3.395h-.645l-1.695-2.079v2.079H181V290.52h.65l1.684,2.079V290.52Z" transform="translate(-149.035 -156.961)"/><path class="d" d="M188.11,292.162a1.872,1.872,0,0,1,3.239-1.154l-.52.468a1.087,1.087,0,1,0,0,1.372l.52.463a1.866,1.866,0,0,1-3.239-1.149Z" transform="translate(-152.449 -156.908)"/><path class="d" d="M198.009,293.286v.629h-2.6V290.52h2.563v.629H196.19v.738h1.56v.608h-1.56v.79Z" transform="translate(-155.953 -156.961)"/><path class="d" d="M201.61,290.52h.785v2.755H204.1v.639h-2.49Z" transform="translate(-158.93 -156.961)"/><path class="d" d="M314.55,298.09l1.294,7.668,1.747-1.206,1.944,2.49,2.085-1.5-1.929-2.438,1.658-1.294Z" transform="translate(-213.156 -160.596)"/></g><g transform="translate(41.267 164.258)"><path class="d" d="M93.176,367.1c.057.073.52-.208,1.04-.624s.894-.806.842-.879-.52.213-1.04.624S93.124,367.034,93.176,367.1Z" transform="translate(-75.885 -334.972)"/><path class="f" d="M65.953,318.647a16.411,16.411,0,0,1,.483-5.88,5.8,5.8,0,0,1,4.008-4c2.209-.457,4.471.936,5.719,2.823a16,16,0,0,1,2.027,6.4,225.779,225.779,0,0,1,2.75,46.482l-9.035,1.263C67.934,349.506,66.666,335.329,65.953,318.647Z" transform="translate(-62.793 -307.649)"/><path class="d" d="M77,308.71a.556.556,0,0,0,.042.146l.151.411.6,1.56c.13.343.3.712.431,1.128l.437,1.372c.161.489.328,1.04.52,1.56l.463,1.794a77.937,77.937,0,0,1,1.747,8.947c.489,3.4.811,7.164,1.04,11.12.463,7.918.52,15.107.738,20.306.094,2.6.182,4.679.281,6.155.052.707.088,1.263.114,1.674l.042.432v.146a.436.436,0,0,0,0-.146v-.437c0-.411-.031-.967-.052-1.674-.062-1.45-.114-3.556-.182-6.155-.146-5.2-.182-12.389-.645-20.322-.2-3.951-.525-7.725-1.045-11.13a74.551,74.551,0,0,0-1.809-8.937c-.172-.629-.338-1.227-.489-1.794s-.369-1.081-.52-1.56-.322-.946-.463-1.367-.322-.785-.457-1.123l-.66-1.56-.177-.4a.52.52,0,0,0-.1-.146Z" transform="translate(-68.121 -307.663)"/><path class="d" d="M73.6,308.72a6.437,6.437,0,0,0-1.1,1.872,13.745,13.745,0,0,0-.827,5.849c.239,5,.686,11.879,1.284,19.474s1.258,14.473,1.794,19.438c.265,2.485.52,4.492.665,5.88.088.671.156,1.2.2,1.6a2.462,2.462,0,0,0,.062.411.52.52,0,0,0,.031.14.6.6,0,0,0,0-.146,2.142,2.142,0,0,0-.031-.416c-.036-.4-.083-.925-.146-1.6-.135-1.419-.328-3.421-.567-5.885-.473-4.97-1.1-11.843-1.7-19.443S72.193,321.41,71.9,316.43a14.125,14.125,0,0,1,.712-5.791,12.567,12.567,0,0,1,.993-1.918Z" transform="translate(-65.544 -307.667)"/><path class="d" d="M63.36,352.606a4.839,4.839,0,0,0,1.716-.442,5.079,5.079,0,0,0,1.606-.743,4.839,4.839,0,0,0-1.716.442A5.079,5.079,0,0,0,63.36,352.606Z" transform="translate(-61.572 -328.159)"/><path class="d" d="M61.269,336a5.429,5.429,0,0,0,1.627.91,5.318,5.318,0,0,0,1.762.608,5.621,5.621,0,0,0-1.627-.9A5.557,5.557,0,0,0,61.269,336Z" transform="translate(-60.567 -320.765)"/><path class="d" d="M62.36,321.284a2.911,2.911,0,0,0,1.346.068,2.9,2.9,0,0,0,1.326-.25c0-.094-.613-.12-1.352-.073A2.906,2.906,0,0,0,62.36,321.284Z" transform="translate(-61.092 -313.566)"/><path class="d" d="M80.288,310.072c.073.047.473-.442.884-1.1s.686-1.222.608-1.274-.468.447-.884,1.1S80.21,310.026,80.288,310.072Z" transform="translate(-69.693 -307.174)"/><path class="d" d="M86.23,320.8a2.672,2.672,0,0,0,1.284.135,2.641,2.641,0,0,0,1.274-.192,2.708,2.708,0,0,0-1.284-.13A2.6,2.6,0,0,0,86.23,320.8Z" transform="translate(-72.552 -313.366)"/><path class="d" d="M90.479,337.555a3.119,3.119,0,0,0,1.352-.374c.712-.286,1.263-.587,1.232-.671a3.3,3.3,0,0,0-1.352.374C91,337.17,90.448,337.472,90.479,337.555Z" transform="translate(-74.592 -321.01)"/><path class="d" d="M90.94,353.2a2.615,2.615,0,0,0,1.149.405c.629.135,1.2.182,1.216.094s-.494-.27-1.149-.405A2.438,2.438,0,0,0,90.94,353.2Z" transform="translate(-74.814 -329.003)"/><path class="d" d="M92.94,377.262a2.73,2.73,0,0,0,1.222.38,2.631,2.631,0,0,0,1.279.068,2.658,2.658,0,0,0-1.222-.385,2.6,2.6,0,0,0-1.279-.062Z" transform="translate(-75.774 -340.552)"/><path class="d" d="M94.268,390.574c-.042.078.416.406,1.04.723s1.128.52,1.17.437-.416-.4-1.04-.723S94.309,390.5,94.268,390.574Z" transform="translate(-76.41 -346.96)"/><path class="d" d="M83.42,403.257c.078.047.478-.52.889-1.222a3.549,3.549,0,0,0,.608-1.388c-.078-.047-.478.52-.889,1.227A3.712,3.712,0,0,0,83.42,403.257Z" transform="translate(-71.203 -351.803)"/><path class="d" d="M80.285,380.6c-.062.062.38.6.988,1.2s1.154,1.04,1.216.967-.38-.6-.988-1.2S80.347,380.542,80.285,380.6Z" transform="translate(-69.695 -342.179)"/><path class="d" d="M80.99,365.865c.068.062.478-.276.92-.754s.743-.91.681-.967-.478.276-.92.749S80.917,365.8,80.99,365.865Z" transform="translate(-70.031 -334.275)"/><path class="d" d="M78.823,350.654c-.068.057.3.577.827,1.159s1,1.009,1.04.946a3.643,3.643,0,0,0-.821-1.159C79.348,351.018,78.911,350.592,78.823,350.654Z" transform="translate(-68.992 -327.799)"/><path class="d" d="M77.614,336.577c.062.068.577-.338,1.149-.9s.988-1.071.925-1.133-.577.338-1.149.9S77.552,336.514,77.614,336.577Z" transform="translate(-68.413 -320.063)"/><path class="d" d="M75.227,322c-.078.047.182.619.577,1.284s.78,1.159.853,1.118a3.241,3.241,0,0,0-.577-1.284C75.685,322.453,75.305,321.939,75.227,322Z" transform="translate(-67.263 -314.04)"/><path class="d" d="M70.76,306.7a3.052,3.052,0,0,0,.52,1.284c.364.671.717,1.175.8,1.133a3.078,3.078,0,0,0-.52-1.284C71.2,307.166,70.838,306.656,70.76,306.7Z" transform="translate(-65.125 -306.695)"/><path class="d" d="M65.678,313.618c-.036.083.322.333.806.567s.91.353.951.276-.328-.333-.811-.567S65.714,313.54,65.678,313.618Z" transform="translate(-62.683 -310.008)"/><path class="d" d="M65.56,367.19a3.639,3.639,0,0,0,1.768-.426,4.356,4.356,0,0,0,1.56-.983,11.234,11.234,0,0,0-1.658.686,8.894,8.894,0,0,0-1.669.723Z" transform="translate(-62.628 -335.06)"/><path class="d" d="M67.64,380.086a2.629,2.629,0,0,0,1.211.4c.691.13,1.263.172,1.279.083s-.52-.265-1.216-.4A3.007,3.007,0,0,0,67.64,380.086Z" transform="translate(-63.627 -341.915)"/><path class="d" d="M70.186,397.436a3.494,3.494,0,0,0,1.378-1.211,3.593,3.593,0,0,0,.863-1.617,9.433,9.433,0,0,0-1.118,1.419A11.111,11.111,0,0,0,70.186,397.436Z" transform="translate(-64.847 -348.904)"/><path class="d" d="M96.414,407.687c.057-.068-.312-.478-.821-.915s-.972-.738-1.04-.671.307.478.821.915S96.341,407.754,96.414,407.687Z" transform="translate(-76.544 -354.419)"/><path class="f" d="M102.348,361.973c.587-1.835,1.695-3.977,3.639-4a3.192,3.192,0,0,1,2.709,1.814,6.618,6.618,0,0,1,.733,3.322,86.616,86.616,0,0,1-4.159,24.08H98.21a83.97,83.97,0,0,1,4.138-25.214Z" transform="translate(-78.304 -331.314)"/><path class="f" d="M123.7,337.635a7.847,7.847,0,0,1,7.351-6.275c3.119.546,4.331,3.639,4.679,6.758s-.608,6.275-1.56,9.29q-4.648,14.556-9.29,29.061l-8.781-.962C118.887,362.537,120.483,350.507,123.7,337.635Z" transform="translate(-86.894 -318.538)"/><path class="d" d="M109.788,358a7.765,7.765,0,0,1,.6,1,6.55,6.55,0,0,1,.328,3.119c-.135,1.341-.291,2.958-.52,4.726s-.546,3.717-.946,5.719c-.8,4.055-1.695,7.694-2.267,10.345-.291,1.326-.52,2.4-.645,3.145-.057.343-.109.629-.146.863a1.123,1.123,0,0,0-.031.307,1.252,1.252,0,0,0,.094-.291l.208-.853c.187-.785.437-1.84.743-3.119.624-2.636,1.56-6.27,2.36-10.335.4-2.033.712-3.987.925-5.771.114-.889.187-1.742.26-2.537s.151-1.528.187-2.209a6.368,6.368,0,0,0-.442-3.187A2.8,2.8,0,0,0,109.788,358Z" transform="translate(-82.121 -331.328)"/><path class="d" d="M137.706,330.88a10.8,10.8,0,0,1,1.04,1.424,10.018,10.018,0,0,1,1.336,4.6A21.2,21.2,0,0,1,139,343.965c-.764,2.6-1.622,5.485-2.506,8.495L132,367.905l-1.326,4.679q-.218.8-.343,1.279a1.8,1.8,0,0,0-.1.452,3.079,3.079,0,0,0,.161-.437c.1-.317.234-.738.4-1.263.348-1.133.832-2.719,1.424-4.679,1.185-3.977,2.8-9.415,4.585-15.425.879-3.015,1.721-5.885,2.485-8.5a21.139,21.139,0,0,0,1.04-7.164,9.878,9.878,0,0,0-1.456-4.648,5.5,5.5,0,0,0-1.165-1.32Z" transform="translate(-93.678 -318.307)"/><path class="d" d="M119.8,374.5a2.422,2.422,0,0,0,.2-.421c.114-.281.3-.691.52-1.237.421-1.076.957-2.667,1.513-4.679s1.107-4.4,1.638-7.086l1.653-8.734c.608-3.088,1.289-6.015,2.079-8.625a47.734,47.734,0,0,1,2.558-6.758,35.8,35.8,0,0,1,2.365-4.268c.3-.489.577-.847.743-1.1a2.855,2.855,0,0,0,.244-.4,2.42,2.42,0,0,0-.3.359c-.182.244-.473.587-.8,1.071a32.183,32.183,0,0,0-2.464,4.237,45.377,45.377,0,0,0-2.641,6.758A85.462,85.462,0,0,0,125,352.266c-.577,3.119-1.128,6.051-1.632,8.739s-1.04,5.084-1.56,7.081-1.04,3.592-1.4,4.679c-.182.551-.348.967-.442,1.253A2.37,2.37,0,0,0,119.8,374.5Z" transform="translate(-88.67 -318.456)"/><path class="d" d="M150.579,359.42c-.026.083.452.276,1.04.421s1.123.2,1.144.114-.457-.281-1.071-.426S150.6,359.332,150.579,359.42Z" transform="translate(-103.448 -331.989)"/><path class="d" d="M152.37,347.775a4.44,4.44,0,0,0,1.476.161,4.2,4.2,0,0,0,1.492-.047,3.119,3.119,0,0,0-1.476-.276A2.977,2.977,0,0,0,152.37,347.775Z" transform="translate(-104.308 -326.338)"/><path class="d" d="M150.455,335.883c.057.068.52-.239,1.04-.691s.915-.868.858-.941-.52.244-1.04.7S150.4,335.815,150.455,335.883Z" transform="translate(-103.386 -319.92)"/><path class="d" d="M145.251,327.659c-.088,0-.062.442-.052.962s0,.941.109.957.234-.416.213-.967S145.334,327.633,145.251,327.659Z" transform="translate(-100.859 -316.76)"/><path class="d" d="M134.767,332.245c-.073.052.14.483.478.962s.671.837.743.785-.14-.483-.478-.967S134.84,332.193,134.767,332.245Z" transform="translate(-95.849 -318.96)"/><path class="d" d="M128,344.1c-.036.083.421.343,1.04.587s1.107.369,1.139.286-.421-.343-1.04-.587A2.587,2.587,0,0,0,128,344.1Z" transform="translate(-92.605 -324.648)"/><path class="d" d="M123.8,356.33a2.672,2.672,0,0,0,1.393.608,2.7,2.7,0,0,0,1.518.052,5.72,5.72,0,0,0-1.445-.369A5.874,5.874,0,0,0,123.8,356.33Z" transform="translate(-90.591 -330.526)"/><path class="d" d="M142.26,351.14c.088-.026,0-.468-.135-.977s-.359-.91-.447-.884,0,.463.14.977S142.176,351.166,142.26,351.14Z" transform="translate(-99.157 -327.14)"/><path class="d" d="M139.172,365.869a3.087,3.087,0,0,0-.4-1.32c-.3-.7-.613-1.227-.7-1.191a3.036,3.036,0,0,0,.4,1.32C138.782,365.37,139.078,365.906,139.172,365.869Z" transform="translate(-97.447 -333.9)"/><path class="d" d="M146.738,371.643c.031.083.587-.068,1.263-.281s1.216-.4,1.2-.489-.6-.031-1.294.182S146.7,371.559,146.738,371.643Z" transform="translate(-101.603 -337.49)"/><path class="d" d="M143,384.877c-.052.073.322.431.837.8s.977.608,1.04.52-.322-.426-.842-.8S143.027,384.8,143,384.877Z" transform="translate(-99.805 -344.226)"/><path class="d" d="M139.929,397.313c-.026.088.442.276,1.04.421s1.1.192,1.118.1-.442-.276-1.04-.416S139.965,397.23,139.929,397.313Z" transform="translate(-98.334 -350.185)"/><path class="d" d="M123.467,366.723c-.047.073.354.39.931.608s1.087.244,1.1.161-.437-.255-.988-.463S123.513,366.645,123.467,366.723Z" transform="translate(-90.429 -335.507)"/><path class="d" d="M121.118,385.245c.036.083.52-.062,1.04-.317s.957-.52.92-.613-.52.062-1.04.317S121.082,385.178,121.118,385.245Z" transform="translate(-89.302 -343.95)"/><path class="d" d="M117,399.03a3.41,3.41,0,0,0,1.4-.374,3.368,3.368,0,0,0,1.279-.676A6.457,6.457,0,0,0,117,399.03Z" transform="translate(-87.326 -350.524)"/><path class="d" d="M137,409.1c.042-.083-.52-.468-1.2-1s-1.18-.988-1.248-.925.354.639,1.04,1.18a2.974,2.974,0,0,0,1.4.743Z" transform="translate(-95.75 -354.936)"/><path class="d" d="M128.236,401.87c.088,0,.213-.473.437-1.04s.447-1.009.374-1.066-.442.338-.676.946S128.148,401.865,128.236,401.87Z" transform="translate(-92.693 -351.378)"/><path class="d" d="M131.194,386.15c.052.073.421-.1.821-.39s.686-.582.634-.655-.421.1-.821.39S131.142,386.082,131.194,386.15Z" transform="translate(-94.138 -344.334)"/><path class="d" d="M105.615,360.984c-.052.073.307.426.806.79s.936.608.993.52-.307-.426-.806-.8S105.673,360.9,105.615,360.984Z" transform="translate(-81.857 -332.753)"/><path class="d" d="M101.77,371.243a1.967,1.967,0,0,0,1.248.125c.7-.078,1.222-.307,1.2-.39a3.667,3.667,0,0,0-1.232.073C102.316,371.123,101.775,371.149,101.77,371.243Z" transform="translate(-80.013 -337.543)"/><path class="d" d="M118.34,373.832a2.089,2.089,0,0,0,1.17.317c.65.047,1.216-.073,1.206-.156a3.06,3.06,0,0,0-1.185-.166C118.865,373.785,118.356,373.743,118.34,373.832Z" transform="translate(-87.969 -338.904)"/><path class="d" d="M116.91,363.081c0,.083.52.1,1.107-.166s.91-.671.847-.733-.457.2-.983.437S116.9,362.987,116.91,363.081Z" transform="translate(-87.282 -333.331)"/><path class="d" d="M100.347,381.522c.047.078.582-.177,1.2-.567s1.076-.764,1.04-.837a2.925,2.925,0,0,0-1.2.567C100.768,381.075,100.3,381.444,100.347,381.522Z" transform="translate(-79.329 -341.942)"/><rect class="g" width="45.951" height="8.146" transform="translate(45.951 63.094) rotate(180)"/><path class="g" d="M105.609,424.96,100.02,449.3H72.634L66.52,424.96Z" transform="translate(-63.089 -363.478)"/><path class="d" d="M60,427.931c0,.094,10.366.166,23.15.166s23.15-.073,23.15-.166-10.366-.161-23.15-.161S60,427.843,60,427.931Z" transform="translate(-59.958 -364.827)"/><path class="d" d="M109.117,372.55c.073.047.39-.317.7-.816s.52-.941.426-.988-.39.317-.7.816S109.049,372.5,109.117,372.55Z" transform="translate(-83.534 -337.446)"/><path class="d" d="M108.37,384.639c.088-.031,0-.582-.239-1.237a3.564,3.564,0,0,0-.52-1.133,2.626,2.626,0,0,0,.239,1.237C108.089,384.161,108.287,384.665,108.37,384.639Z" transform="translate(-82.808 -342.98)"/><path class="d" d="M104.78,397.663c.083.036.426-.52.769-1.227a3.238,3.238,0,0,0,.473-1.367c-.083-.036-.421.52-.764,1.227A3.431,3.431,0,0,0,104.78,397.663Z" transform="translate(-81.459 -349.125)"/><path class="d" d="M112.752,409.139c.068-.062-.208-.489-.613-.951s-.79-.8-.858-.743.208.483.613.951S112.689,409.2,112.752,409.139Z" transform="translate(-84.575 -355.065)"/><path class="d" d="M116.08,391.02c0,.088.457.083.988,0s.946-.244.931-.328-.457-.083-.988,0S116.064,390.932,116.08,391.02Z" transform="translate(-86.884 -346.995)"/></g><g transform="translate(137.667 69.206)"><rect class="f" width="6.426" height="41.844" transform="translate(57.103 138.899)"/><rect class="f" width="6.426" height="41.844" transform="translate(94.388 138.899)"/><rect class="f" width="34.072" height="5.698" transform="translate(61.454 153.762)"/><path class="d" d="M433.211,391a1.13,1.13,0,0,1,0,.213v.624c0,.561,0,1.372.026,2.407,0,2.111.026,5.142.042,8.9,0,7.549.026,18.008.042,29.7v.135h-6.67v-.135c.047-11.614.088-21.985.114-29.466.031-3.727.052-6.758.068-8.838,0-1.04,0-1.83.026-2.386v-.619a1.135,1.135,0,0,1,0-.213,1.684,1.684,0,0,1,0,.213c0,.151,0,.354,0,.619v11.224c0,7.481,0,17.852-.031,29.466l-.135-.135h6.426l-.135.135c0-11.692.031-22.152.042-29.7,0-3.759.036-6.789.042-8.9,0-1.04,0-1.846.026-2.407v-.624A.963.963,0,0,1,433.211,391Z" transform="translate(-332.397 -252.121)"/><path class="d" d="M355.138,393.029a1.5,1.5,0,0,1,0,.2V433.1l-.135-.135h6.426l-.135.135c0-11.6.031-22,.042-29.513,0-3.743.031-6.758.042-8.864,0-1.04,0-1.835.026-2.4V391.7a.957.957,0,0,1,0-.213,1.135,1.135,0,0,1,0,.213v3.02c0,2.079.026,5.121.042,8.864,0,7.512,0,17.91.042,29.513v.135H354.93V433.1c.036-11.24.073-21.252.094-28.473.026-3.592.042-6.488.057-8.5v-2.9a1,1,0,0,1,.057-.2Z" transform="translate(-297.963 -252.357)"/><rect class="f" width="62.566" height="19.771" rx="9.23" transform="translate(48.124 119.56)"/><path class="d" d="M359.66,391.745c0-.073,10.4-.135,23.186-.135s23.191.062,23.191.135-10.4.135-23.191.135S359.66,391.813,359.66,391.745Z" transform="translate(-300.234 -252.414)"/><path class="d" d="M417.186,156.4c-.208-1.69-.946-9.924-1.128-11.172a6.919,6.919,0,0,0-2.365-4.4,4.353,4.353,0,0,0-4.762-.608h0a2.917,2.917,0,0,0-1.95,2.173C404.3,154.962,405.7,168.068,405,180.956c4.58.442,10.657-.25,15.222-.785C419.556,169.955,418.517,167.366,417.186,156.4Z" transform="translate(-322.003 -131.495)"/><path class="f" d="M421.662,177.189a1.337,1.337,0,0,1-.057-.328c-.026-.25-.062-.561-.1-.946-.083-.863-.192-2.038-.333-3.473-.25-2.974-.593-7.013-.977-11.474-.177-2.241-.348-4.372-.52-6.316-.078-.972-.146-1.892-.213-2.761a13.566,13.566,0,0,0-.317-2.365,3.889,3.889,0,0,0-1.944-2.677,3.067,3.067,0,0,0-1.216-.286h.083a1.108,1.108,0,0,1,.25,0,2.3,2.3,0,0,1,.931.213,3.354,3.354,0,0,1,1.206.925,4.59,4.59,0,0,1,.894,1.8,13.124,13.124,0,0,1,.359,2.4c.078.868.156,1.788.239,2.755.161,1.95.343,4.081.52,6.316.348,4.466.66,8.505.894,11.484.1,1.435.177,2.6.234,3.478,0,.385.036.7.052.951a1.561,1.561,0,0,1,.021.3Z" transform="translate(-327.274 -134.757)"/><path class="f" d="M417.565,179.518a3.412,3.412,0,0,1-.1-.738c-.047-.478-.1-1.17-.156-2.027-.114-1.71-.229-4.076-.333-6.691s-.177-4.923-.239-6.7c-.026-.811-.047-1.492-.062-2.033a3.3,3.3,0,0,1,0-.743,3.412,3.412,0,0,1,.1.738c.047.478.1,1.17.156,2.027.114,1.71.229,4.076.333,6.691s.177,4.923.239,6.7c.026.811.047,1.492.068,2.033a3.448,3.448,0,0,1-.005.743Z" transform="translate(-327.596 -141.495)"/><path class="g" d="M355.049,202.624l9.077-3.026,14.073-.478,11.827,3.639,6.077,12.155-4.564,25.676,8.354,16.537-22.375,4.2-19.547-9.067L356.3,251l-3.322-43.747Z" transform="translate(-297.026 -159.994)"/><path class="i" d="M288.16,377.48l-12.44,20.233,9.841,7.413,15.5-18.954Z" transform="translate(-259.932 -245.63)"/><path class="i" d="M326.907,406.02l-9.347,29.217h10.907l12.186-25.047Z" transform="translate(-280.02 -259.333)"/><path class="g" d="M335.7,205.86s-7.2,2.989-7.954,10.959c-.291,3.078-2.459,17.488-2.459,17.488L315.1,233.1l-2.459,8.126s11.39,5.937,14.9,6.706c6.072,1.331,9.009-2.079,9.009-2.079Z" transform="translate(-277.658 -163.23)"/><path class="d" d="M353.047,224.55a3.021,3.021,0,0,1,0,.4c0,.281,0,.66-.036,1.128s-.042,1.092-.036,1.788,0,1.492.026,2.371.047,1.835.12,2.864.151,2.131.239,3.286c.213,2.313.52,4.85.847,7.507.707,5.313,1.378,10.127,1.69,13.631.088.879.146,1.669.192,2.365s.088,1.3.1,1.788.031.847.042,1.133a1.767,1.767,0,0,1,0,.4,2.65,2.65,0,0,1-.047-.39c0-.286-.052-.66-.088-1.128s-.078-1.092-.146-1.783-.13-1.487-.234-2.36c-.359-3.494-1.04-8.318-1.768-13.615-.343-2.662-.624-5.2-.827-7.523-.083-1.159-.177-2.261-.213-3.291s-.083-2-.088-2.88,0-1.674,0-2.371.042-1.3.083-1.794.062-.842.083-1.128a2.187,2.187,0,0,1,.062-.4Z" transform="translate(-296.947 -172.204)"/><path class="i" d="M316.44,225.008s3.119-3.01,4.289-2.646a6.483,6.483,0,0,1,2.183,1.31s1.185-.7,1.825,0a10.534,10.534,0,0,1,1.274,1.976,2.161,2.161,0,0,1,2.007,1.289c.873,1.456,3.031,6.363,3.842,7.185a7.242,7.242,0,0,0,2.932,1.69c1.159.406,10.834,3.681,10.834,3.681l-3.561,8.879s-14.229-8.318-14.775-8.869-4.83-3.374-5.469-5.105-5.381-7.039-5.381-7.039Z" transform="translate(-279.482 -171.139)"/><path class="j" d="M331.26,232.3a.748.748,0,0,1-.172.338,1.934,1.934,0,0,1-.821.665l.052-.094a2.885,2.885,0,0,1-.442,1.95,2.381,2.381,0,0,1-.4.478,1.04,1.04,0,0,1-.619.3.7.7,0,0,1-.655-.369,1.856,1.856,0,0,1-.2-.686c-.109-.811-.213-1.56-.291-2.282a1.4,1.4,0,0,1,.255-1.04,2.147,2.147,0,0,1,.738-.52,6.343,6.343,0,0,0,1.113-.561c.234-.166.328-.307.348-.3s-.052.172-.281.38a5.017,5.017,0,0,1-1.1.65,1.98,1.98,0,0,0-.645.52,1.2,1.2,0,0,0-.187.868c.1.707.2,1.466.312,2.267.047.426.224.863.572.832a1.372,1.372,0,0,0,.832-.655,2.839,2.839,0,0,0,.473-1.794v-.068h.062a2.08,2.08,0,0,0,.816-.561C331.177,232.4,331.245,232.285,331.26,232.3Z" transform="translate(-284.888 -174.906)"/><path class="j" d="M335.241,237.842c0,.062-.494-.12-.827-.613s-.333-1-.26-1,.187.416.483.847S335.282,237.774,335.241,237.842Z" transform="translate(-287.969 -177.812)"/><path class="j" d="M334.5,246.887c-.083,0-.052-.9-.39-1.929a19.443,19.443,0,0,0-.811-1.788,3.244,3.244,0,0,1,1.071,1.705,3.338,3.338,0,0,1,.13,2.012Z" transform="translate(-287.577 -181.144)"/><path class="j" d="M325.489,230.913a1.186,1.186,0,0,1-.13.426,2.157,2.157,0,0,1-.738,1,1.237,1.237,0,0,1-.863.224,1.206,1.206,0,0,1-.837-.6,3.457,3.457,0,0,1-.39-1.04,8.348,8.348,0,0,1-.208-1.139,3.379,3.379,0,0,1,.52-2.178,5.422,5.422,0,0,1,1.237-1.346,10.445,10.445,0,0,1,1-.707,1.482,1.482,0,0,1,.4-.213c.026.042-.52.4-1.268,1.04a5.6,5.6,0,0,0-1.149,1.331,3.187,3.187,0,0,0-.483,2.022,8.492,8.492,0,0,0,.2,1.107,3.307,3.307,0,0,0,.343.957.983.983,0,0,0,.66.52,1.04,1.04,0,0,0,.723-.161,2.24,2.24,0,0,0,.749-.884,1.622,1.622,0,0,1,.244-.359Z" transform="translate(-282.298 -172.583)"/><g class="k" transform="translate(63.372 117.379)"><path d="M403.339,350.542l-25.994-.879c-1.528-.052-3.208-.057-4.388.915s-1.466,2.433-1.757,3.837q-1.97,9.56-3.951,19.121l.827,1.419a24.663,24.663,0,0,0,10.673-14.036c.447-1.56.941-3.4,2.459-3.961a4.679,4.679,0,0,1,2.111-.109l6.155.6c2.948.3,6,.577,8.8-.39S403.511,353.5,403.339,350.542Z" transform="translate(-367.25 -349.645)"/></g><path class="d" d="M326.444,294.43a11.479,11.479,0,0,0-9.935,1.19c-4.086,2.443-30.319,44.87-30.319,44.87l16.963,11.645,23.29-34.54L336,325.82s19.755,4,25.635,1.476,9.108-9.223,8.635-14.951a29.055,29.055,0,0,0-2.423-9.753c-6.805,1.04-11.437,3.514-20.743-.946Z" transform="translate(-264.958 -205.459)"/><path class="d" d="M342.924,336.14s12.207,4.8,12.363,8.126-16.542,46.149-16.542,46.149l-16.844-6.14,9.041-29.284s3.764-10.642,6.592-13.517S342.924,336.14,342.924,336.14Z" transform="translate(-282.104 -225.781)"/><path class="f" d="M309.388,312.526s-.031.062-.1.177l-.338.52-1.31,1.986c-1.149,1.742-2.818,4.263-4.908,7.434C298.569,329,292.684,337.99,286.16,348.6l-.036-.172,15.04,10.309c.65.452,1.3.894,1.929,1.326l-.187.036,23.321-34.514h0a8.194,8.194,0,0,0,2.3-2.922,11.436,11.436,0,0,0,.977-3.2,9.721,9.721,0,0,0-2.386-8.1,8.6,8.6,0,0,0-.624-.624c-.146-.135-.213-.208-.213-.208a6.9,6.9,0,0,1,.894.764,9.462,9.462,0,0,1,1.856,2.844,9.722,9.722,0,0,1,.639,5.323,11.437,11.437,0,0,1-.967,3.244,8.317,8.317,0,0,1-2.345,3h0l-23.254,34.54-.078.114-.109-.078-1.892-1.326L286,348.636l-.1-.073.062-.1c6.54-10.611,12.435-19.573,16.636-25.91l4.975-7.393,1.341-1.965.354-.52a1.74,1.74,0,0,1,.12-.146Z" transform="translate(-264.819 -213.485)"/><path class="f" d="M354.55,382.914a1.039,1.039,0,0,1,.057-.182c.042-.135.1-.312.182-.52.177-.483.426-1.164.738-2.043.66-1.783,1.6-4.341,2.76-7.5,2.334-6.348,5.547-15.076,9.1-24.741.827-2.282,1.632-4.518,2.386-6.686a9.1,9.1,0,0,0,.743-3.234,4.939,4.939,0,0,0-1.04-2.932,8.209,8.209,0,0,0-2.308-1.981,15.019,15.019,0,0,0-2.636-1.253,25.327,25.327,0,0,0-5.126-1.3l-.307-.047.276-.14A9.737,9.737,0,0,0,363.019,327a11.058,11.058,0,0,0,1.476-3.488,11.3,11.3,0,0,0,.281-2.391v-.629a1.336,1.336,0,0,1,0-.213.991.991,0,0,1,.026.213c0,.14.036.354.042.629a10.607,10.607,0,0,1-.234,2.417,10.751,10.751,0,0,1-1.45,3.551,9.783,9.783,0,0,1-3.7,3.442l-.031-.187a25.1,25.1,0,0,1,5.2,1.279,16.008,16.008,0,0,1,2.677,1.263,8.407,8.407,0,0,1,2.381,2.033A5.2,5.2,0,0,1,370.817,338a9.358,9.358,0,0,1-.749,3.327c-.754,2.173-1.56,4.4-2.386,6.691-3.525,9.67-6.8,18.4-9.181,24.709-1.19,3.145-2.163,5.719-2.838,7.471-.333.868-.6,1.56-.785,2.027l-.208.52A.9.9,0,0,1,354.55,382.914Z" transform="translate(-297.78 -218.167)"/><path class="f" d="M415.29,322.936a11.189,11.189,0,0,0-.182-2.984,12.092,12.092,0,0,0-3.681-6.088,25.78,25.78,0,0,0-6.1-3.894l-2-.957a4.021,4.021,0,0,1-.723-.374,4.844,4.844,0,0,1,.764.281c.483.2,1.18.489,2.033.873a23.978,23.978,0,0,1,6.2,3.873,11.812,11.812,0,0,1,3.686,6.238,8.13,8.13,0,0,1,.13,2.22,3.646,3.646,0,0,1-.083.6A.745.745,0,0,1,415.29,322.936Z" transform="translate(-320.855 -212.578)"/><g class="k" transform="translate(60.357 70.115)"><path d="M386.69,270.152a6.066,6.066,0,0,1-3.119,1.981,6.342,6.342,0,0,1-3.213-.608l-17.494-6.66L361.45,266.8c6.02,4.887,13.543,9.165,20.972,10.959a8.874,8.874,0,0,0,7.143-1.414,11.153,11.153,0,0,0,3.3-4.679,43.867,43.867,0,0,0,3.493-12.934A87.436,87.436,0,0,1,386.69,270.152Z" transform="translate(-361.45 -258.73)"/></g><path class="g" d="M388.521,211.672c-.442.468-10.621,22.188-10.621,22.188l-19.755-4.414-2.225,10.87s17.9,7.944,22.583,9.358c2.989.9,5.048.712,7.98-2.079s10.351-20.795,11.182-24.4c.79-3.447,3.639-12.586-6.238-17.078Z" transform="translate(-298.438 -163.355)"/><path class="d" d="M302.749,225.159l-14.2-19.682a1.17,1.17,0,0,0-1.211-.437l-14.151,3.223a1.04,1.04,0,0,0-.671,1.658l14.556,19.916a1.185,1.185,0,0,0,1.471.338l1.508-.749a1.284,1.284,0,0,1,.281-.1l11.728-2.49a1.04,1.04,0,0,0,.691-1.679Z" transform="translate(-258.29 -162.821)"/><path class="f" d="M302.629,225.044a.8.8,0,0,1,.12.182,1,1,0,0,1,.078.639,1.1,1.1,0,0,1-.655.8c-.405.14-.868.208-1.388.338l-8.869,1.944-1.435.312a2.189,2.189,0,0,0-.691.239l-.7.348c-.234.114-.457.234-.717.354a1.289,1.289,0,0,1-1.56-.489l-.52-.676-4.237-5.8-9.742-13.3a1.18,1.18,0,0,1-.192-1.154,1.248,1.248,0,0,1,.884-.764l2.079-.478,4.1-.936,7.756-1.757a2.733,2.733,0,0,1,.489-.083,1.3,1.3,0,0,1,.52.088,1.237,1.237,0,0,1,.432.281,2.6,2.6,0,0,1,.3.38L289.741,207l2.038,2.839,3.639,5.09,5.277,7.387,1.424,2.017.364.52a2.171,2.171,0,0,1,.12.187.836.836,0,0,1-.14-.172l-.39-.52-1.456-1.97-5.349-7.335-3.681-5.074-2.048-2.828-1.071-1.476a1.294,1.294,0,0,0-.619-.577,1.107,1.107,0,0,0-.416-.068,2.041,2.041,0,0,0-.437.078l-7.751,1.773-4.1.936-2.079.478a.988.988,0,0,0-.7.6.931.931,0,0,0,.161.9c3.452,4.72,6.758,9.212,9.727,13.309,1.492,2.043,2.911,3.987,4.237,5.812l.52.676a1.04,1.04,0,0,0,.582.447,1.107,1.107,0,0,0,.723-.026c.229-.1.473-.229.707-.343l.676-.338a2.6,2.6,0,0,1,.743-.255l1.44-.3,8.879-1.861c.52-.12,1.009-.182,1.383-.307a1.04,1.04,0,0,0,.634-.738,1,1,0,0,0-.052-.613A2.01,2.01,0,0,1,302.629,225.044Z" transform="translate(-258.169 -162.706)"/><path class="f" d="M302.544,227.5a2.5,2.5,0,0,1-.265-.322l-.717-.941-2.6-3.509c-2.194-2.994-5.2-7.091-8.505-11.624-.832-1.123-1.632-2.277-2.417-3.291a1.528,1.528,0,0,0-.8-.411,1.835,1.835,0,0,0-.9.062l-1.83.411-6.316,1.414-4.268.931-1.159.239a2.46,2.46,0,0,1-.411.068,2.515,2.515,0,0,1,.4-.12l1.154-.286,4.247-1.04,6.306-1.471,1.825-.421a2.241,2.241,0,0,1,1.009-.068,1.794,1.794,0,0,1,.931.483c.842,1.076,1.606,2.183,2.449,3.322l8.437,11.713,2.532,3.556.676.972a1.861,1.861,0,0,1,.224.333Z" transform="translate(-258.318 -163.823)"/><ellipse class="e" cx="0.749" cy="0.634" rx="0.749" ry="0.634" transform="translate(22.879 47.709)"/><path class="i" d="M296.79,224.68c-.062.38-2.6,8.032-2.963,8.775a4.222,4.222,0,0,0,0,2.2,2.712,2.712,0,0,0,.52,3.088s.1,1.643.837,1.955a3.81,3.81,0,0,1,1.3,1.071s4.159,5.677,4.606,6.238a31.05,31.05,0,0,0,2.376,2.246s5.875-2.142,2.755-7.741l-1.768-1.123.608-4.533s1.45-1.139,1.133-1.9a.681.681,0,0,0-.946-.447s.556-1.56-.8-1.825l-5.2,2.506s3.852-3.878,3.28-4.949-.816-.9-.816-.9l-4.98,4.216s1.237-4.642,1.56-6.124C298.932,224.68,296.79,224.68,296.79,224.68Z" transform="translate(-268.493 -172.266)"/><path class="j" d="M308.6,244.07a5.1,5.1,0,0,1-.936,1.04,17.676,17.676,0,0,1-5.63,3.525,5.312,5.312,0,0,1-1.326.4,10.088,10.088,0,0,1,1.253-.577,25.243,25.243,0,0,0,2.911-1.56,24.489,24.489,0,0,0,2.667-1.944,12.173,12.173,0,0,1,1.061-.884Z" transform="translate(-271.93 -181.576)"/><path class="j" d="M302.849,233.66a4.554,4.554,0,0,1-.868.977c-.577.561-1.414,1.289-2.376,2.048a18.575,18.575,0,0,1-3.676,2.49,11.873,11.873,0,0,1,1.04-.8c.639-.478,1.523-1.149,2.48-1.9s1.814-1.461,2.417-1.981a9.442,9.442,0,0,1,.983-.837Z" transform="translate(-269.635 -176.578)"/><path class="j" d="M310.875,246.347a.318.318,0,0,1,.317-.068.749.749,0,0,1,.52.7,1.856,1.856,0,0,1-.582,1.164c-.307.364-.655.754-1.04,1.149a21.836,21.836,0,0,1-2.079,1.9,4.57,4.57,0,0,1-.951.665c-.052-.062,1.32-1.18,2.823-2.75.374-.39.728-.775,1.04-1.123a1.773,1.773,0,0,0,.577-1,.66.66,0,0,0-.38-.6C310.994,246.311,310.88,246.373,310.875,246.347Z" transform="translate(-274.977 -182.631)"/><path class="j" d="M312.2,255.4c-.062.042-.328-.255-.7-.556s-.712-.52-.686-.577.452.031.858.369S312.259,255.362,312.2,255.4Z" transform="translate(-276.778 -186.463)"/><path class="j" d="M310.557,262.6c.031,0,.031.27-.14.655a2.423,2.423,0,0,1-1.118,1.164,2.474,2.474,0,0,1-1.606.2c-.411-.094-.619-.255-.6-.281s.25.052.634.094a2.6,2.6,0,0,0,2.527-1.263C310.448,262.834,310.515,262.595,310.557,262.6Z" transform="translate(-274.992 -190.473)"/><path class="j" d="M306.959,240.17a6.058,6.058,0,0,1-1.159.681c-.738.38-1.762.884-2.916,1.4s-2.215.951-2.989,1.242a6.651,6.651,0,0,1-1.274.421,6.929,6.929,0,0,1,1.2-.6l2.948-1.315,2.942-1.326a7.1,7.1,0,0,1,1.248-.509Z" transform="translate(-270.927 -179.703)"/><path class="d" d="M386.441,224.55s-.042.114-.14.333l-.437.957c-.4.847-.972,2.079-1.71,3.639-1.5,3.166-3.639,7.71-6.275,13.267l-.036.078h-.083L358,238.436l.156-.1c-.712,3.483-1.456,7.127-2.22,10.876l-.078-.151,1.56.686c6.722,2.932,13.132,5.719,19.069,8a15.243,15.243,0,0,0,4.445,1.144,6.176,6.176,0,0,0,3.987-1.357,10.3,10.3,0,0,0,1.56-1.362,5.992,5.992,0,0,0,.619-.78c.182-.276.385-.52.546-.821.333-.561.665-1.113.951-1.669s.582-1.1.847-1.638c2.121-4.31,3.587-7.923,4.627-10.4.52-1.237.894-2.2,1.164-2.864l.307-.749c.068-.166.109-.25.109-.25s-.026.088-.083.26l-.281.759c-.25.66-.624,1.632-1.123,2.885-1,2.5-2.443,6.114-4.549,10.444-.265.52-.52,1.092-.842,1.648s-.613,1.118-.951,1.684c-.156.286-.364.556-.546.837a6.234,6.234,0,0,1-.639.806,10.913,10.913,0,0,1-1.56,1.393,7.916,7.916,0,0,1-1.908,1.04,5.719,5.719,0,0,1-2.225.354,15.326,15.326,0,0,1-4.523-1.149c-5.953-2.256-12.363-5.053-19.09-7.99l-1.56-.686-.1-.042.026-.109c.764-3.743,1.513-7.393,2.23-10.87v-.13l.13.026,19.755,4.445-.12.057,6.353-13.2,1.762-3.639.468-.941C386.379,224.659,386.441,224.55,386.441,224.55Z" transform="translate(-298.318 -172.204)"/><path class="d" d="M415.511,287.84a2.7,2.7,0,0,1-.489.442c-.322.276-.811.645-1.435,1.076a26.425,26.425,0,0,1-10.964,4.284c-.749.1-1.362.166-1.783.187a2.927,2.927,0,0,1-.66,0,2.872,2.872,0,0,1,.65-.109c.416-.052,1.04-.14,1.762-.276a29.451,29.451,0,0,0,10.886-4.263c.634-.406,1.138-.749,1.482-1A3.061,3.061,0,0,1,415.511,287.84Z" transform="translate(-319.688 -202.591)"/><path class="d" d="M420.485,291.88a3.314,3.314,0,0,1-.307.343c-.208.208-.52.494-.92.837a31.555,31.555,0,0,1-6.883,4.5c-.473.229-.863.4-1.139.52a1.657,1.657,0,0,1-.437.146,13.441,13.441,0,0,1,1.487-.821c.925-.52,2.189-1.211,3.525-2.079s2.5-1.742,3.322-2.391A14.04,14.04,0,0,1,420.485,291.88Z" transform="translate(-324.787 -204.531)"/><path class="g" d="M262.007,411.6l-.494.65s-14.452-3.951-16.163-1.939l22.079,16.563,5.2-7.569A15.817,15.817,0,0,1,262.007,411.6Z" transform="translate(-245.35 -261.12)"/><g class="l" transform="translate(21.433 158.458)"><path class="e" d="M288.435,429.061a1.128,1.128,0,0,1-.146,1.5,1.092,1.092,0,0,1-1.487-.135,1.2,1.2,0,0,1,.166-1.586,1.123,1.123,0,0,1,1.528.312" transform="translate(-286.578 -428.662)"/></g><g class="l" transform="translate(0 148.665)"><path class="e" d="M267.429,426.916l1.253-1.82L247.06,409.885s-1.3-.307-1.71.468Z" transform="translate(-245.35 -409.825)"/></g><path class="d" d="M276.193,414.559c-.078.109.426.561.7,1.3s.213,1.409.343,1.44.437-.707.094-1.606S276.245,414.44,276.193,414.559Z" transform="translate(-260.155 -263.422)"/><path class="d" d="M270.341,413.068c-.1.083.229.619.25,1.346s-.229,1.294-.12,1.372.639-.483.587-1.393S270.419,412.964,270.341,413.068Z" transform="translate(-257.339 -262.711)"/><path class="d" d="M263.812,414.212c.083.1.634-.328.8-1.128s-.161-1.409-.276-1.357-.036.608-.182,1.258S263.713,414.119,263.812,414.212Z" transform="translate(-254.205 -262.072)"/><path class="g" d="M321.567,457.229s-8.2,3.218-10.626-1.809l-1.372,1.861-7.445,13.636a2,2,0,0,0,.577,2.6,2.043,2.043,0,0,0,2.147.1c3.535-2.007,16.5-9.451,16.714-10.824l.8-3.587a1.877,1.877,0,0,0-.8-1.955Z" transform="translate(-272.486 -283.051)"/><g class="l" transform="translate(30.542 178.477)"><path class="e" d="M304.1,479.314l18.83-12.144-.187.78c-.125.868-.582,1.113-1.123,1.56-1.6,1.32-5.838,4.117-15.643,9.742a2.012,2.012,0,0,1-1.877.062Z" transform="translate(-304.1 -467.17)"/></g><g class="l" transform="translate(46.971 175.563)"><path class="e" d="M336.434,461.63a1.154,1.154,0,0,0-.681,1.414,1.185,1.185,0,0,0,1.44.686,1.126,1.126,0,0,0-.863-2.079" transform="translate(-335.701 -461.564)"/></g><path class="d" d="M312.995,474.35a6.108,6.108,0,0,0-1.315-1.83,7.127,7.127,0,0,0-2.079-.925c0-.12.27-.135.728-.094a3.244,3.244,0,0,1,1.627.7,3.083,3.083,0,0,1,1,1.435C313.083,474.085,313.047,474.35,312.995,474.35Z" transform="translate(-276.198 -290.762)"/><path class="d" d="M309.37,479.331c-.109.057-.572-.686-1.487-1.2s-1.788-.551-1.794-.671a2.225,2.225,0,0,1,2.007.312C309.131,478.369,309.48,479.3,309.37,479.331Z" transform="translate(-274.513 -293.581)"/><path class="d" d="M317.964,469.012a20.492,20.492,0,0,0-2.173-1.991,26.2,26.2,0,0,0-2.651-1.31,4.338,4.338,0,0,1,2.9.972A4.553,4.553,0,0,1,317.964,469.012Z" transform="translate(-277.898 -287.972)"/><path class="d" d="M320.557,462.261c-.078.1-1.04-.577-2.371-.951s-2.5-.312-2.516-.437a3.794,3.794,0,0,1,2.631.036A3.981,3.981,0,0,1,320.557,462.261Z" transform="translate(-279.113 -285.577)"/><path class="d" d="M317.168,457.956a1.56,1.56,0,0,1,.27-.665,4.976,4.976,0,0,1,1.3-1.482,2.282,2.282,0,0,1,1.326-.572.806.806,0,0,1,.754.52,1.232,1.232,0,0,1-.068.9,2.807,2.807,0,0,1-3.3,1.331,3.259,3.259,0,0,1-2.261-2.8,1.1,1.1,0,0,1,.328-.863.811.811,0,0,1,.92-.042,2.77,2.77,0,0,1,.91,1.107,5.522,5.522,0,0,1,.613,1.877,1.56,1.56,0,0,1,0,.717,8.673,8.673,0,0,0-.884-2.454,2.522,2.522,0,0,0-.79-.936.416.416,0,0,0-.52,0,.738.738,0,0,0-.182.577,2.917,2.917,0,0,0,1.986,2.412,2.454,2.454,0,0,0,2.823-1.092.926.926,0,0,0,.073-.634.442.442,0,0,0-.411-.291,2.079,2.079,0,0,0-1.133.468,7.35,7.35,0,0,0-1.752,1.918Z" transform="translate(-278.88 -282.448)"/><path class="d" d="M381.842,135.662c-.489-1.294-.3-2.735-.494-4.1-.426-3.02-2.849-5.438-5.656-6.618-2.6-1.1-5.807-.863-8.957.151a12.1,12.1,0,0,0-5.635,3.639,9.482,9.482,0,0,0-1.752,8.505l15.43-2.215a17.03,17.03,0,0,0,4.679,3.083,3.192,3.192,0,0,0,1.606.26,1.435,1.435,0,0,0,1.206-.988A3.2,3.2,0,0,0,381.842,135.662Z" transform="translate(-299.915 -124.032)"/><path class="d" d="M374.451,123.995c3.374-.572,6.342.733,9.186,2.641a16.9,16.9,0,0,1,6.238,7.98,20.228,20.228,0,0,1,.619,11.7,10.5,10.5,0,0,1-6.618,7.112c-4.642,1.638-10.008,1.44-13.938-1.56a16.972,16.972,0,0,1-6.348-12.815,16.293,16.293,0,0,1,2.6-9.675,12.4,12.4,0,0,1,8.287-5.4" transform="translate(-302.111 -123.859)"/><path class="i" d="M367.309,168.577h0c0,.27.026.567.042.884v.234c.166,1.866,1.04,5.381,5.2,5.433,5.2.068,9.176-5.719,9.768-6.613l.192-28.671a2.511,2.511,0,0,0-2.345-2.464l-13.465-2.87c-4.284-.291-6.93,5.074-7.039,9.358-.12,4.778-.078,10.611.619,14.14,1.4,7.1,6.914,7.8,6.914,7.8S367.216,166.632,367.309,168.577Z" transform="translate(-300.21 -128.967)"/><path class="d" d="M363.62,161.852a.915.915,0,0,0,.92.889.868.868,0,0,0,.91-.863.915.915,0,0,0-.915-.889.879.879,0,0,0-.915.863Z" transform="translate(-302.135 -141.686)"/><path class="d" d="M362.325,156.907c.12.114.8-.426,1.783-.457s1.726.431,1.83.307-.078-.27-.4-.483a2.5,2.5,0,0,0-1.471-.4,2.391,2.391,0,0,0-1.409.52C362.362,156.636,362.268,156.855,362.325,156.907Z" transform="translate(-301.506 -139.231)"/><path class="d" d="M380.62,161.442a.92.92,0,0,0,.92.894.884.884,0,0,0,.915-.863.925.925,0,0,0-.92-.894.884.884,0,0,0-.915.863Z" transform="translate(-310.297 -141.489)"/><path class="d" d="M380.343,156.467c.114.114.79-.426,1.778-.457s1.726.431,1.83.307-.073-.265-.4-.483a2.485,2.485,0,0,0-1.466-.4,2.407,2.407,0,0,0-1.414.52C380.38,156.2,380.281,156.415,380.343,156.467Z" transform="translate(-310.156 -139.02)"/><path class="d" d="M372.332,164.234a6.493,6.493,0,0,0-1.617-.229c-.25,0-.489-.057-.52-.229a1.3,1.3,0,0,1,.14-.754c.213-.619.437-1.263.676-1.944A32.476,32.476,0,0,0,372.493,156a32.724,32.724,0,0,0-1.887,4.949c-.224.681-.442,1.331-.645,1.955a1.481,1.481,0,0,0-.094.993.634.634,0,0,0,.431.354,1.617,1.617,0,0,0,.426.042A6.509,6.509,0,0,0,372.332,164.234Z" transform="translate(-305.113 -139.291)"/><path class="j" d="M374.18,191.646a18.159,18.159,0,0,0,9.472-2.916s-2.22,5.038-9.394,4.637Z" transform="translate(-307.205 -155.006)"/><path class="j" d="M375.534,175.713a1.762,1.762,0,0,1,1.56-.717,1.6,1.6,0,0,1,1.138.556,1.04,1.04,0,0,1,.125,1.175,1.2,1.2,0,0,1-1.279.374,3.639,3.639,0,0,1-1.289-.707,1,1,0,0,1-.291-.281.322.322,0,0,1,0-.364" transform="translate(-307.811 -148.409)"/><path class="d" d="M377.466,172.94c-.161,0-.125,1.071-1.014,1.861s-2.027.723-2.033.868.265.2.743.2a2.7,2.7,0,0,0,1.7-.665,2.334,2.334,0,0,0,.78-1.56C377.669,173.195,377.539,172.935,377.466,172.94Z" transform="translate(-307.32 -147.424)"/><path class="d" d="M380.464,151.041c.1.265,1.087.1,2.246.2s2.111.374,2.256.13c.068-.12-.109-.364-.494-.608a3.935,3.935,0,0,0-3.431-.25C380.625,150.7,380.417,150.917,380.464,151.041Z" transform="translate(-310.219 -136.521)"/><path class="d" d="M362.554,148.549c.182.218.853-.036,1.669-.078s1.513.094,1.664-.151c.068-.114-.052-.333-.359-.52a2.35,2.35,0,0,0-1.372-.317,2.3,2.3,0,0,0-1.315.52C362.56,148.211,362.476,148.445,362.554,148.549Z" transform="translate(-301.61 -135.199)"/><path class="d" d="M390.5,133.619c-1.393-4.107-7.481-9.7-11.8-9.316l-6.826,4.263a6.665,6.665,0,0,0,4.611,5.012c1.227.348,2.7.426,3.447,1.461s.354,2.625,1.066,3.717c.983,1.513,3.6,1.393,4.341,3.036.328.717.182,1.56.52,2.3.452.946,2.9,2.116,3.894,1.778s.967-2.043,1.279-2.942a4.679,4.679,0,0,0,.083-3.171C390.658,137.741,391.178,135.573,390.5,133.619Z" transform="translate(-306.101 -124.063)"/><path class="i" d="M400.61,165.669c0-.52.551-1.809,1.076-1.913,1.393-.27,3.925-.25,4.086,3.312.213,4.871-4.72,4.081-4.736,3.941S400.678,167.51,400.61,165.669Z" transform="translate(-319.895 -142.966)"/><path class="j" d="M404.127,170.546a2.27,2.27,0,0,0,.234.114.879.879,0,0,0,.639,0,2.065,2.065,0,0,0,.884-1.929,2.713,2.713,0,0,0-.291-1.2.962.962,0,0,0-.665-.624.432.432,0,0,0-.489.255c-.062.14-.026.234-.052.244s-.109-.078-.078-.281a.52.52,0,0,1,.182-.312.624.624,0,0,1,.463-.146,1.2,1.2,0,0,1,.92.717,2.917,2.917,0,0,1,.354,1.341,2.229,2.229,0,0,1-1.144,2.157.915.915,0,0,1-.785-.094C404.142,170.66,404.111,170.556,404.127,170.546Z" transform="translate(-321.582 -144.411)"/><path class="g" d="M413.335,146.279a4.29,4.29,0,0,0,.182-1.461,10.621,10.621,0,0,0-.556-3.52,10.741,10.741,0,0,0-1.674-3.119,4.35,4.35,0,0,0-1.04-1.04,15.6,15.6,0,0,1,2.4,4.3A18.4,18.4,0,0,1,413.335,146.279Z" transform="translate(-324.52 -130.236)"/><path class="d" d="M365.55,129.619c-.452,1.986-3.468,4.523-4.793,6.067-2.527,2.942-3,3.374-2.984,12.248a20.956,20.956,0,0,1-2.033-8.838,10.626,10.626,0,0,1,2.828-6.977,8.318,8.318,0,0,1,6.982-2.521" transform="translate(-298.352 -126.588)"/><path class="f" d="M393.668,137.52a4.9,4.9,0,0,1-.827.2,9.293,9.293,0,0,1-.988.172c-.385.052-.827.125-1.315.151a22.771,22.771,0,0,1-3.457.031,24.1,24.1,0,0,1-8.188-2,23.471,23.471,0,0,1-3.046-1.622c-.426-.25-.78-.52-1.1-.743a9.98,9.98,0,0,1-.8-.608,4.872,4.872,0,0,1-.639-.561,5.091,5.091,0,0,1,.707.473c.218.161.494.359.821.561s.686.468,1.113.7a25.375,25.375,0,0,0,11.151,3.54,26.276,26.276,0,0,0,3.421.031,12.794,12.794,0,0,0,1.31-.109c.385-.036.717-.078.988-.12A4.757,4.757,0,0,1,393.668,137.52Z" transform="translate(-306.787 -128.027)"/><path class="f" d="M400.395,146.263a2.11,2.11,0,0,1-.567.135,12.778,12.778,0,0,1-1.56.2,19.433,19.433,0,0,1-10.153-2,14.424,14.424,0,0,1-1.378-.78,2.313,2.313,0,0,1-.468-.338c.026-.047.733.385,1.934.936a21.96,21.96,0,0,0,10.054,1.981C399.573,146.346,400.39,146.211,400.395,146.263Z" transform="translate(-313.01 -133.277)"/><path class="f" d="M409.861,149.07a3.12,3.12,0,0,1,.161.733,18.47,18.47,0,0,1,.2,2.038c.042.863.057,1.892,0,3.036a19.471,19.471,0,0,1-.52,3.691,9.779,9.779,0,0,1-3.764,5.542,9.416,9.416,0,0,1-1.809.972,3.119,3.119,0,0,1-.712.239,4.558,4.558,0,0,1,.665-.343,11.539,11.539,0,0,0,1.731-1.04,9.03,9.03,0,0,0,2.079-2.131,9.847,9.847,0,0,0,1.56-3.286,21.055,21.055,0,0,0,.52-3.639c.073-1.133.083-2.152.062-3.01s-.057-1.56-.1-2.033A4.439,4.439,0,0,1,409.861,149.07Z" transform="translate(-321.244 -135.964)"/><path class="d" d="M341.246,270.391c-.052,0,.083-.665.078-1.742a10.66,10.66,0,0,0-.172-1.866,12.341,12.341,0,0,0-.639-2.2,12.167,12.167,0,0,0-1.071-2.027,11.362,11.362,0,0,0-1.175-1.466c-.743-.775-1.3-1.154-1.268-1.2a1.5,1.5,0,0,1,.411.239,4.9,4.9,0,0,1,.442.333,6.239,6.239,0,0,1,.551.489,9.44,9.44,0,0,1,1.243,1.461,11.061,11.061,0,0,1,1.123,2.079,11.381,11.381,0,0,1,.629,2.267,9.817,9.817,0,0,1,.12,1.913,7.038,7.038,0,0,1-.057.733,3.949,3.949,0,0,1-.088.551A1.414,1.414,0,0,1,341.246,270.391Z" transform="translate(-289.353 -189.172)"/><path class="d" d="M344.216,268.015c-.047,0-.13-.52-.39-1.331a10.917,10.917,0,0,0-3.759-5.323c-.676-.52-1.138-.769-1.118-.811s.13.036.348.14a6.044,6.044,0,0,1,.884.52,9.607,9.607,0,0,1,3.826,5.422,6.627,6.627,0,0,1,.2,1C344.231,267.88,344.236,268.01,344.216,268.015Z" transform="translate(-290.29 -189.483)"/></g><g transform="translate(220.011 30.287)"><path class="e" d="M407.942,80.587l5.2-2.168a15.128,15.128,0,0,0,8.178,1.279,14.822,14.822,0,0,0,12.763-17.031,15.675,15.675,0,0,0-17.229-13.314A14.816,14.816,0,0,0,404.09,66.379a15.731,15.731,0,0,0,4.5,8.9h0Z" transform="translate(-403.822 -49.112)"/><path class="d" d="M407.865,80.471a2.811,2.811,0,0,1,.031-.333l.109-1c.1-.915.25-2.251.442-3.987a.062.062,0,0,1,.068-.052h0l-.073.094a15.8,15.8,0,0,1-3.993-6.5,15.6,15.6,0,0,1,.374-10.335,14.889,14.889,0,0,1,8.963-8.578,15.341,15.341,0,0,1,6.961-.634,15.715,15.715,0,0,1,3.525.915,16.039,16.039,0,0,1,3.26,1.783,15.383,15.383,0,0,1,4.819,5.412,16.012,16.012,0,0,1,1.9,6.66,15.045,15.045,0,0,1-4.383,11.541,14.749,14.749,0,0,1-4.57,3.119c-.411.156-.806.338-1.211.468l-1.211.338c-.4.1-.8.151-1.2.224a9.056,9.056,0,0,1-1.159.146,15.154,15.154,0,0,1-7.517-1.378h.052l-3.894,1.56-.988.4-.328.125.343-.151.993-.431,3.821-1.638a.062.062,0,0,1,.052,0,15.191,15.191,0,0,0,7.455,1.32,8.806,8.806,0,0,0,1.149-.151c.385-.078.785-.125,1.175-.224l1.2-.343c.4-.13.785-.312,1.19-.468a14.6,14.6,0,0,0,4.492-3.078,14.837,14.837,0,0,0,4.268-11.354,15.762,15.762,0,0,0-1.882-6.55,15.024,15.024,0,0,0-4.736-5.313,15.6,15.6,0,0,0-3.213-1.752,15.424,15.424,0,0,0-3.468-.9,15.076,15.076,0,0,0-6.815.619,14.6,14.6,0,0,0-5.5,3.41,14.77,14.77,0,0,0-4.4,10.4,15.222,15.222,0,0,0,.681,4.83,15.789,15.789,0,0,0,3.9,6.441.057.057,0,1,1-.073.088h0l.088-.047c-.224,1.71-.4,3.031-.52,3.93-.057.442-.1.785-.135,1.04S407.865,80.471,407.865,80.471Z" transform="translate(-403.745 -48.996)"/><circle class="g" cx="2.189" cy="2.189" r="2.189" transform="translate(9.002 13.441)"/><circle class="g" cx="2.189" cy="2.189" r="2.189" transform="translate(16.041 9.526)"/><circle class="g" cx="2.189" cy="2.189" r="2.189" transform="translate(15.651 17.272)"/><path class="g" d="M431.074,79.545l-7.834-4.528,7.845-4.357.5.91-6.238,3.468,6.244,3.608Z" transform="translate(-413.105 -59.397)"/></g></g></svg>