<svg xmlns="http://www.w3.org/2000/svg" width="195.004" height="210" viewBox="0 0 275.004 181.999">
  <g id="Group_17892" data-name="Group 17892" transform="translate(-4760.305 -4294.99)">
    <path id="Path_1362" data-name="Path 1362" d="M2121.042,3324.991l2.116,5.831,1.921-9.342Z" transform="translate(2771.352 1126.003)" fill="#8f8f8f"/>
    <path id="Path_1323" data-name="Path 1323" d="M2110.839,3168.987h7.3l5.951,25.728-15.381,21.516,7.507,10.254-14.008,24.171,5.807,25.557-10.294-24.916,9.522-24.354-8.057-13.184,16.846-21.791Z" transform="translate(2771.352 1126.003)" fill="#8f8f8f"/>
    <circle id="Ellipse_102" data-name="Ellipse 102" cx="16.731" cy="16.731" r="16.731" transform="translate(4827.786 4311.015)" fill="none"/>
    <path id="Path_1324" data-name="Path 1324" d="M2100.982,3286.763l-28.749-49.253-38.646,67.163h82.71l-8.248-30.4Z" transform="translate(2771.352 1126.003)" fill="none"/>
    <path id="Path_1325" data-name="Path 1325" d="M2154.645,3205.257l-37.468,64.571,7.776,35.349h87.426Z" transform="translate(2771.352 1126.003)" fill="none"/>
    <path id="Path_1326" data-name="Path 1326" d="M2072.279,3239.45l28.513,49.489,7.3-12.491-7.07-26.394,12.961-23.33-8.483-11.076,13.2-20.031-7.776-26.63H2020.2v153.177h100.387l-4.241-15.317h-82.714Zm.943-54.438a16.732,16.732,0,1,1-16.735,16.732,16.732,16.732,0,0,1,16.735-16.732Z" transform="translate(2771.352 1126.003)" fill="#ced4db"/>
    <path id="Path_1327" data-name="Path 1327" d="M2134.372,3168.987l5.656,27.1-15.788,16.968,9.9,12.019-21.212,26.389,4.242,19.8,37.468-64.571,57.734,99.92h-87.426l3.3,15.554h94.024V3168.987Z" transform="translate(2771.352 1126.003)" fill="#ced4db"/>
    <g id="Group_16719" data-name="Group 16719" transform="translate(2771.352 1126.003)">
      <path id="Path_1328" data-name="Path 1328" d="M1999.131,3269.114s-4.452,2.565-5.136,14.3c.57,2.165,3.987,3.3,6.607,1.595S2000.506,3271.114,1999.131,3269.114Z" fill="#843837"/>
      <path id="Path_1329" data-name="Path 1329" d="M2021.763,3281.787s10.2-4.541,11.566-5.312,2.4-3.6,2.913-4.2,2.828-1.97,2.741-1.371-1.285,1.714-1.285,1.714a9.891,9.891,0,0,1,1.028,2.4c.171.943-1.114,2.828-1.8,3.341a6.153,6.153,0,0,1-2.313.686s-8.311,5.569-9.681,5.655S2021.593,3284.015,2021.763,3281.787Z" fill="#ff9d6f"/>
      <ellipse id="Ellipse_103" data-name="Ellipse 103" cx="20.607" cy="12.245" rx="20.607" ry="12.245" transform="translate(1988.953 3326.435)" fill="#1ae5ff" opacity="0.09" style="mix-blend-mode: normal;isolation: isolate"/>
      <path id="Path_1330" data-name="Path 1330" d="M2001.015,3336.043a7.321,7.321,0,0,0,.088,2.736,1.993,1.993,0,0,0,2.736.53,28.131,28.131,0,0,0,2.649-2.472s2.824-1.5,3.089-2.295-.706-1.5-1.5-1.323-3.089,1.588-4.148,1.588S2001.368,3335.071,2001.015,3336.043Z" fill="#16225d"/>
      <path id="Path_1331" data-name="Path 1331" d="M1998.106,3294.708s2.47,40.769,2.777,41.95,3.512,1.859,4.106-.018c.377-1.191,1.307-38.919,1.307-38.919Z" fill="#113c7a"/>
      <path id="Path_1332" data-name="Path 1332" d="M2009.185,3338.468a.626.626,0,0,0-.217.475,5.5,5.5,0,0,0,.337,2.3,2.375,2.375,0,0,0,3.067.573c1.143-.622,4.662-3.251,5.377-3.834a2.1,2.1,0,0,0,.711-1.125.636.636,0,0,0-.362-.739,3.066,3.066,0,0,0-2.114-.244c-1.165.392-2.633,1.654-4.22,1.586A3.9,3.9,0,0,0,2009.185,3338.468Z" fill="#16225d"/>
      <path id="Path_1333" data-name="Path 1333" d="M2014.635,3295.151c-.178-1.694-2.206-2.244-4.072-1.667-3.563-.192-9.08-.04-9.273,2.725a11.708,11.708,0,0,0,3.485,9c1.368,1.469,2.278,4.278,2.661,5.647.324,10.813,1.041,26.06,1.489,27.519.72,2.351,4.266,2.245,4.426-.044C2014.068,3330.594,2014.635,3295.151,2014.635,3295.151Z" fill="#113c7a"/>
      <path id="Path_1334" data-name="Path 1334" d="M2014.645,3297.533c-.418,2.092-6.38,3.138-9.867,2.581s-7.241-2.269-7.117-6.312c0,0-.529-16.153-.529-19.33a9.4,9.4,0,0,1,2-5.53s1.952-2.231,8.088-.975c0,0,5,1.089,7.3,4.784,0,0,1.589,4.06,1.059,12.535S2014.645,3297.533,2014.645,3297.533Z" fill="#843837"/>
      <path id="Path_1335" data-name="Path 1335" d="M2002.428,3263.866s.529,3.089,0,4.5c-.088.706,3,3.09,5.737,2.471,1.589-.353,1.5-1.147,1.5-1.147a8.456,8.456,0,0,1-1.147-4.325C2008.694,3263.253,2004.281,3263.425,2002.428,3263.866Z" fill="#ff7c40"/>
      <g id="Group_2593" data-name="Group 2593">
        <path id="Path_1336" data-name="Path 1336" d="M2012.754,3257.8a7.281,7.281,0,1,1-7.281-7.282,7.281,7.281,0,0,1,7.281,7.282Z" fill="#ff9d6f"/>
        <path id="Path_1337" data-name="Path 1337" d="M2012.754,3258.284s.088,7.294-1.5,8.766-4.028-1.378-7.927-2.292c-3.9-1,3.161-8.586,3.161-8.586Z" fill="#ff9d6f"/>
      </g>
      <g id="Group_2594" data-name="Group 2594">
        <path id="Path_1338" data-name="Path 1338" d="M2012.166,3271.2s1.6-.455,3.417,2.165,4.443,6.039,5.7,6.608,2.962-.569,3.645-.569,2.506,3.189,1.823,4.784-5.127,2.393-6.266,2.393-8.544-4.443-9.57-6.949S2008.293,3271.314,2012.166,3271.2Z" fill="#843837"/>
        <path id="Path_1339" data-name="Path 1339" d="M2023.9,3279.746a2.312,2.312,0,0,1,2.051-1.367c1.6-.115,3.417,2.962,3.3,4.671s-2.621,2.62-3.19,2.165S2026.633,3283.619,2023.9,3279.746Z" fill="#eaeeee"/>
      </g>
      <path id="Path_1340" data-name="Path 1340" d="M2009.83,3251.668s2.621.57,3.418,4.557c-.342,1.708-2.734.342-3.646,2.62a12.478,12.478,0,0,1-1.481,2.962l-.57-.228s0-1.822-.8-1.822-1.026,2.165-.57,3.075a3.376,3.376,0,0,0,1.481,1.367s-1.139,1.937-1.709,2.165a7.7,7.7,0,0,1-3.417-.57,11.288,11.288,0,0,1-3.418-3.76c-1.139-1.823-2.164-5.012-1.481-7.177a4.188,4.188,0,0,1,2.278-2.735,5.8,5.8,0,0,1,2.506-1.823A7.938,7.938,0,0,1,2009.83,3251.668Z" fill="#313131"/>
      <path id="Path_1341" data-name="Path 1341" d="M2011.084,3269.843l-1.9-1.063s-4.86-.456-6.607-1.595l-.911,1.291a5.552,5.552,0,0,0,4.329,2.658c3.113.3,4.556-.911,4.556-.911Z" fill="#eaeeee"/>
    </g>
    <g id="Group_2595" data-name="Group 2595" transform="translate(2771.352 1126.003)" opacity="0.21">
      <ellipse id="Ellipse_104" data-name="Ellipse 104" cx="21.168" cy="12.262" rx="21.168" ry="12.262" transform="translate(2221.547 3326.462) rotate(-0.172)" fill="#1ae5ff"/>
    </g>
    <g id="Group_2600" data-name="Group 2600" transform="translate(2771.352 1126.003)">
      <path id="Path_1342" data-name="Path 1342" d="M2237.909,3340.913a33.9,33.9,0,0,1-5.3.994c-1.492,0,0,1.493,2.487,1.657s4.808.332,5.3-.331-.11-2.542-.11-2.542Z" fill="#16225d"/>
      <path id="Path_1343" data-name="Path 1343" d="M2248.519,3337.431a33.924,33.924,0,0,1-5.3,1c-1.492,0,0,1.492,2.487,1.658s4.808.331,5.3-.332-.11-2.542-.11-2.542Z" fill="#16225d"/>
      <path id="Path_1344" data-name="Path 1344" d="M2249.348,3296.261s1.382,37.911,1.6,41.89a2.775,2.775,0,0,1-2.432.442s-4.476-24.869-5.139-31.279-1.768-8.621-1.768-8.621Z" fill="#16225d"/>
      <path id="Path_1345" data-name="Path 1345" d="M2235.2,3298.471s-1.327,21.885,2.652,43.106a1.94,1.94,0,0,0,2.432-.884s2.431-37.136,3.094-42.442S2236.97,3297.366,2235.2,3298.471Z" fill="#16225d"/>
      <path id="Path_1346" data-name="Path 1346" d="M2241.17,3315.272a69.275,69.275,0,0,1,4.2-9.506c1.989-3.315,1.547-8.179,1.547-8.179l-7.516.663Z" fill="#16225d"/>
      <path id="Path_1347" data-name="Path 1347" d="M2233.516,3276.838l-6.568-3.185s-1.991-1.991-2.488-2.389a13.486,13.486,0,0,0-4.379-1.094c-.6.1-1.692,1-1.393,1.194s3.084,1.692,3.184,2.29-1,1.394-.6,1.792,1.294-.4,1.89-.4a9.739,9.739,0,0,1,2.29.8l6.369,3.682Z" fill="#ff9d6f"/>
      <g id="Group_2596" data-name="Group 2596">
        <path id="Path_1348" data-name="Path 1348" d="M2247.526,3270.453s-1.216-1.326-3.2,1.216-3.648,6.3-6.411,5.968-7.294-2.542-7.294-2.542-1.989,1.326-1.658,3.316c0,0,6.411,4.753,10.721,4.532s8.952-4.643,9.947-7.737S2247.526,3270.453,2247.526,3270.453Z" fill="#ffd60d"/>
      </g>
      <path id="Path_1349" data-name="Path 1349" d="M2234.232,3298.425c.4,1.981,6.045,2.972,9.348,2.444s6.859-2.149,6.742-5.978c0,0,.5-15.3.5-18.312a8.89,8.89,0,0,0-1.894-5.238s-1.849-2.114-7.662-.925c0,0-4.736,1.032-6.916,4.533,0,0-1.505,3.846-1,11.873S2234.232,3298.425,2234.232,3298.425Z" fill="#ffd60d"/>
      <path id="Path_1350" data-name="Path 1350" d="M2245.806,3266.168s-.5,2.926,0,4.265c.084.669-2.843,2.927-5.434,2.341-1.505-.334-1.422-1.087-1.422-1.087a8.02,8.02,0,0,0,1.088-4.1C2239.87,3265.583,2244.051,3265.75,2245.806,3266.168Z" fill="#ff7c40"/>
      <g id="Group_2597" data-name="Group 2597">
        <path id="Path_1351" data-name="Path 1351" d="M2236.024,3260.274a6.9,6.9,0,1,0,6.9-6.9,6.9,6.9,0,0,0-6.9,6.9Z" fill="#ff9d6f"/>
        <path id="Path_1352" data-name="Path 1352" d="M2236.024,3260.733s-.083,6.91,1.422,8.3,3.815-1.3,7.509-2.171c3.694-.95-3-8.135-3-8.135Z" fill="#ff9d6f"/>
      </g>
      <g id="Group_2598" data-name="Group 2598">
        <path id="Path_1353" data-name="Path 1353" d="M2227.489,3283.342s-9.658-4.3-10.957-5.031-2.272-3.409-2.76-3.977-2.678-1.867-2.6-1.3,1.218,1.624,1.218,1.624a9.4,9.4,0,0,0-.974,2.272c-.162.893,1.055,2.678,1.7,3.166a5.857,5.857,0,0,0,2.192.649s7.872,5.275,9.17,5.357a2.611,2.611,0,0,0,2.985-2.173A2.567,2.567,0,0,0,2227.489,3283.342Z" fill="#ff9d6f"/>
        <path id="Path_1354" data-name="Path 1354" d="M2236.086,3274.6s-1.216-1.327-3.2,1.215-3.647,6.3-6.41,5.969-7.295-2.542-7.295-2.542-1.989,1.326-1.658,3.316c0,0,6.411,4.752,10.721,4.531s8.952-4.642,9.947-7.737S2236.086,3274.6,2236.086,3274.6Z" fill="#ffd60d"/>
      </g>
      <g id="Group_2599" data-name="Group 2599">
        <path id="Path_1355" data-name="Path 1355" d="M2238.794,3254.45s-2.483.54-3.237,4.317c.323,1.619,2.59.324,3.453,2.483a11.843,11.843,0,0,0,1.4,2.806l.54-.216s0-1.727.756-1.727.97,2.051.539,2.914a3.187,3.187,0,0,1-1.4,1.3s1.08,1.834,1.619,2.05a7.292,7.292,0,0,0,3.238-.54,10.671,10.671,0,0,0,3.237-3.562c1.079-1.727,2.05-4.748,1.4-6.8a3.962,3.962,0,0,0-2.159-2.591,5.485,5.485,0,0,0-2.374-1.726A7.52,7.52,0,0,0,2238.794,3254.45Z" fill="#313131"/>
        <path id="Path_1356" data-name="Path 1356" d="M2238.241,3259.014a5.451,5.451,0,0,1,.829,4.807c-.829,2.819.331,2.819,1.492,6.466s-2.155,7.958,1,13.263,11.6,4.642,15.417-.663-2.155-9.118-2.321-13.926,3.647-7.627-.663-10.942-6.134-6.963-11.439-5.471S2235.92,3256.7,2238.241,3259.014Z" fill="#313131"/>
      </g>
    </g>
    <path id="Path_1357" data-name="Path 1357" d="M2100.437,3336.251l11.18,1.656,2.485-5.8Z" transform="translate(2771.352 1126.003)" fill="#ced4db"/>
    <path id="Path_1358" data-name="Path 1358" d="M2121,3324.967l1.579,2.226,2.484-5.8Z" transform="translate(2771.352 1126.003)" fill="#ced4db"/>
    <path id="Path_1359" data-name="Path 1359" d="M2139.877,3323.127l3.183,9.447,2.1-1.579Z" transform="translate(2771.352 1126.003)" fill="#ced4db"/>
    <path id="Path_1360" data-name="Path 1360" d="M2127.31,3335.578l3.183-.388.88-3.183Z" transform="translate(2771.352 1126.003)" fill="#ced4db"/>
    <path id="Path_1361" data-name="Path 1361" d="M2100.448,3336.243l11.209,1.562,2.36-5.7-1.254,8.664Z" transform="translate(2771.352 1126.003)" fill="#8f8f8f"/>
    <path id="Path_1363" data-name="Path 1363" d="M2127.343,3335.546l1.324,2.42,1.811-2.812Z" transform="translate(2771.352 1126.003)" fill="#9e9e9e"/>
    <path id="Path_1364" data-name="Path 1364" d="M2139.957,3323.245l1.874,10.2,1.229-.9Z" transform="translate(2771.352 1126.003)" fill="#9e9e9e"/>
  </g>
</svg>
