<svg xmlns="http://www.w3.org/2000/svg" xmlns:xlink="http://www.w3.org/1999/xlink" width="37" height="37.5" viewBox="0 0 37 37.5"><defs><style>.a{fill:none;}.b{fill:#fec12d;}.c{fill:#fd9a27;}.d,.h{fill:#fd6533;}.e{fill:#fed3ca;}.f{fill:#ffe6de;}.g{fill:#fff;}.h{font-size:7px;font-family:Roboto-Regular, Roboto;letter-spacing:0.001em;}.i{filter:url(#a);}</style><filter id="a" x="0" y="23.5" width="37" height="14" filterUnits="userSpaceOnUse"><feOffset input="SourceAlpha"/><feGaussianBlur stdDeviation="0.5" result="b"/><feFlood flood-opacity="0.251"/><feComposite operator="in" in2="b"/><feComposite in="SourceGraphic"/></filter></defs><g transform="translate(9030.5 5924)"><rect class="a" width="36" height="36" transform="translate(-9030 -5924)"/><g transform="translate(-9534 -6580.568)"><path class="b" d="M51.229,41,33.247,47.977l17.982,6.977,17.982-6.977Z" transform="translate(470.753 615.568)"/><path class="c" d="M33.247,52.92V75l18,6.977V59.9Z" transform="translate(470.753 610.589)"/><path class="d" d="M64,81.979V59.9L82,52.92V75Z" transform="translate(457.964 610.589)"/><path class="e" d="M75.079,59.21v7.553l3.329-3.534,2.159,1.406V57.082Z" transform="translate(453.376 608.886)"/><path class="f" d="M62.258,54.248,44.23,47.193l5.344-2.075,18.164,7Z" transform="translate(466.198 613.86)"/></g><g transform="translate(-25 -111)"><g class="i" transform="matrix(1, 0, 0, 1, -9005.5, -5813)"><rect class="g" width="34" height="11" rx="5.5" transform="translate(1.5 25)"/></g><path class="d" d="M-22.354-2.328A3.079,3.079,0,0,1-22.6-1.051a1.864,1.864,0,0,1-.7.832A1.918,1.918,0,0,1-24.35.068,1.9,1.9,0,0,1-25.393-.22a1.909,1.909,0,0,1-.706-.824,2.954,2.954,0,0,1-.258-1.239v-.359a3.042,3.042,0,0,1,.25-1.268,1.9,1.9,0,0,1,.706-.843,1.894,1.894,0,0,1,1.044-.292,1.929,1.929,0,0,1,1.054.289,1.861,1.861,0,0,1,.7.837,3.093,3.093,0,0,1,.246,1.277Zm-.653-.321a2.231,2.231,0,0,0-.355-1.359,1.172,1.172,0,0,0-.995-.473,1.16,1.16,0,0,0-.979.473A2.186,2.186,0,0,0-25.7-2.693v.366a2.235,2.235,0,0,0,.361,1.348,1.165,1.165,0,0,0,.993.49,1.16,1.16,0,0,0,.984-.463,2.222,2.222,0,0,0,.359-1.328Zm3.329-.482a1.9,1.9,0,0,0-.311-.024.833.833,0,0,0-.844.53V0h-.632V-3.7h.615l.01.427a.985.985,0,0,1,.882-.5.646.646,0,0,1,.28.048Zm.366,1.251a2.166,2.166,0,0,1,.4-1.369,1.275,1.275,0,0,1,1.056-.518,1.283,1.283,0,0,1,1.029.444V-5.25h.632V0h-.581L-16.8-.4a1.288,1.288,0,0,1-1.056.465,1.263,1.263,0,0,1-1.048-.526,2.191,2.191,0,0,1-.405-1.374Zm.632.072a1.64,1.64,0,0,0,.26.984.84.84,0,0,0,.718.355.922.922,0,0,0,.878-.54v-1.7A.93.93,0,0,0-17.7-3.23a.844.844,0,0,0-.725.359A1.806,1.806,0,0,0-18.68-1.808ZM-13.672.068A1.616,1.616,0,0,1-14.9-.426a1.833,1.833,0,0,1-.472-1.321v-.116a2.219,2.219,0,0,1,.21-.983,1.64,1.64,0,0,1,.588-.677,1.478,1.478,0,0,1,.819-.244,1.385,1.385,0,0,1,1.121.475,2.057,2.057,0,0,1,.4,1.36v.263h-2.505a1.315,1.315,0,0,0,.32.884,1,1,0,0,0,.778.337,1.1,1.1,0,0,0,.567-.137,1.426,1.426,0,0,0,.407-.362l.386.3A1.553,1.553,0,0,1-13.672.068Zm-.079-3.315a.843.843,0,0,0-.643.279,1.354,1.354,0,0,0-.321.781h1.853v-.048a1.2,1.2,0,0,0-.26-.747A.794.794,0,0,0-13.751-3.247Zm4.044.116a1.9,1.9,0,0,0-.311-.024.833.833,0,0,0-.844.53V0h-.632V-3.7h.615l.01.427a.985.985,0,0,1,.882-.5.646.646,0,0,1,.28.048Zm5.377,1.008A2.892,2.892,0,0,1-4.71-.472,1.349,1.349,0,0,1-5.9.068,1.359,1.359,0,0,1-7.075-.46a2.745,2.745,0,0,1-.4-1.577v-.844a2.828,2.828,0,0,1,.379-1.63A1.36,1.36,0,0,1-5.9-5.045a1.372,1.372,0,0,1,1.183.514,2.729,2.729,0,0,1,.39,1.588Zm-.632-.865a2.317,2.317,0,0,0-.226-1.171A.776.776,0,0,0-5.9-4.525a.766.766,0,0,0-.708.366,2.262,2.262,0,0,0-.229,1.125v1.012A2.354,2.354,0,0,0-6.605-.832.775.775,0,0,0-5.9-.448.764.764,0,0,0-5.2-.81a2.269,2.269,0,0,0,.238-1.142Z" transform="translate(-8974 -5780)"/><text class="h" transform="translate(-8976 -5780)"><tspan x="-1.965" y="0">2</tspan></text></g></g></svg>