<svg xmlns="http://www.w3.org/2000/svg" xmlns:xlink="http://www.w3.org/1999/xlink" width="421" height="250" viewBox="0 0 421 250">
  <defs>
    <clipPath id="clip-path">
      <rect id="Rectangle_9211" data-name="Rectangle 9211" width="421" height="250" transform="translate(1638 2873)" fill="#fff" stroke="#707070" stroke-width="1"/>
    </clipPath>
  </defs>
  <g id="Mask_Group_101" data-name="Mask Group 101" transform="translate(-1638 -2873)" clip-path="url(#clip-path)">
    <g id="Doctors-pana" transform="translate(1634.388 2846.463)">
      <g id="freepik--background-complete--inject-105" transform="translate(46.651 64.598)">
        <path id="Path_32448" data-name="Path 32448" d="M606.782,377.764c-13.783-8.44-17.818-25.412-18.223-40.864-.069-2.577-.514-5.274.571-7.606s3.852-4.046,6.223-3.1c1.966.783,2.932,2.96,4.109,4.732a15.068,15.068,0,0,0,6.389,5.4c1.714.754,3.749,1.143,5.309.16,2.149-1.36,2.223-4.44,2.052-7q-.469-7.149-.949-14.286a23.838,23.838,0,0,1,.314-7.652,7.984,7.984,0,0,1,4.663-5.669c2.377-.829,5.492.394,6.154,2.857a23.518,23.518,0,0,1,.269,3.183,2.711,2.711,0,0,0,1.714,2.44c1.017.24,2.023-.571,2.743-1.349,2.486-2.743,4.074-6.177,5.549-9.595s2.9-6.9,5.143-9.863,5.412-5.394,9.063-5.823,7.7,1.594,8.84,5.143-.737,7.343-2.857,10.4a57.2,57.2,0,0,1-11.212,12.057,4.657,4.657,0,0,0-1.863,2.286c-.451,1.714,1.263,3.337,2.983,3.794,1.949.52,4,.2,6.017.314s4.223.863,5.091,2.7c1.206,2.554-.817,5.429-2.857,7.354A49.047,49.047,0,0,1,638.034,337a16.618,16.618,0,0,0-5.223,2.943c-1.434,1.411-2.217,3.772-1.194,5.52s3.429,2.183,5.366,1.714,3.651-1.663,5.492-2.486c3.429-1.537,8-1.571,10.429,1.332a8.125,8.125,0,0,1,1.3,7.114,18.647,18.647,0,0,1-3.5,6.56,49.254,49.254,0,0,1-20.121,16.035c-7.989,3.32-15.5,4.572-23.795,2.069" transform="translate(-278.826 -147.054)" fill="#f5f5f5"/>
        <path id="Path_32449" data-name="Path 32449" d="M626.51,369.283a230.179,230.179,0,0,1,7.612-25.246l2.337-6.514c.771-2.137,1.537-4.252,2.411-6.286a116.271,116.271,0,0,1,5.714-11.355c1.989-3.52,4-6.794,5.909-9.834s3.754-5.846,5.537-8.326a90.479,90.479,0,0,1,9.28-11.075c1.194-1.217,2.149-2.131,2.806-2.743l.754-.691a2.625,2.625,0,0,1,.263-.223,3.152,3.152,0,0,1-.229.257l-.72.726c-.634.634-1.572,1.566-2.743,2.8a96.411,96.411,0,0,0-9.143,11.143c-1.76,2.486-3.577,5.292-5.474,8.343s-3.892,6.326-5.863,9.846a116.111,116.111,0,0,0-5.657,11.32c-.869,2.011-1.623,4.114-2.394,6.257s-1.543,4.314-2.331,6.509a235.43,235.43,0,0,0-7.634,25.183" transform="translate(-295.154 -148.477)" fill="#e0e0e0"/>
        <path id="Path_32450" data-name="Path 32450" d="M644.294,343.432a5.5,5.5,0,0,1-.314-1.074c-.177-.7-.4-1.714-.657-2.983-.514-2.526-1.109-6.04-1.749-9.915s-1.28-7.377-1.829-9.886c-.274-1.257-.509-2.286-.674-2.971a5.371,5.371,0,0,1-.211-1.1,5,5,0,0,1,.389,1.052c.223.686.5,1.714.817,2.943.64,2.5,1.337,6,1.977,9.886s1.183,7.286,1.611,9.932c.2,1.194.371,2.2.509,3.006A5.018,5.018,0,0,1,644.294,343.432Z" transform="translate(-300.447 -160.695)" fill="#e0e0e0"/>
        <path id="Path_32451" data-name="Path 32451" d="M680.884,350.144a7.71,7.71,0,0,1-1.309.234c-.834.126-2.051.3-3.549.571-2.994.509-7.109,1.354-11.6,2.486s-8.52,2.343-11.429,3.3c-1.446.463-2.606.874-3.429,1.143a6.531,6.531,0,0,1-1.268.389,7.527,7.527,0,0,1,1.206-.571c.783-.331,1.932-.789,3.366-1.3,2.857-1.04,6.892-2.286,11.429-3.429a115.382,115.382,0,0,1,11.675-2.343c1.509-.223,2.732-.349,3.583-.417A6.473,6.473,0,0,1,680.884,350.144Z" transform="translate(-304.492 -175.538)" fill="#e0e0e0"/>
        <path id="Path_32452" data-name="Path 32452" d="M612.819,399.12a1.887,1.887,0,0,1-.251-.383c-.171-.314-.377-.7-.634-1.143-.571-1.006-1.3-2.486-2.206-4.32-1.811-3.674-4.16-8.829-6.674-14.549s-4.812-10.9-6.549-14.606l-2.057-4.4-.571-1.194a1.412,1.412,0,0,1-.166-.434,1.947,1.947,0,0,1,.246.389l.634,1.143c.572,1.011,1.3,2.486,2.212,4.326,1.811,3.674,4.16,8.829,6.674,14.549s4.812,10.892,6.549,14.6l2.069,4.383.572,1.2A1.478,1.478,0,0,1,612.819,399.12Z" transform="translate(-281.097 -178.947)" fill="#e0e0e0"/>
        <path id="Path_32453" data-name="Path 32453" d="M670.044,400.61a1.751,1.751,0,0,1-.423.206l-1.246.5-4.571,1.8c-3.88,1.52-9.206,3.686-15.092,6.08s-11.246,4.514-15.155,5.954c-1.954.72-3.543,1.286-4.646,1.657l-1.274.417a1.587,1.587,0,0,1-.457.114,2.062,2.062,0,0,1,.423-.206l1.246-.5,4.572-1.8c3.88-1.52,9.212-3.686,15.1-6.08s11.24-4.5,15.132-5.954c1.954-.726,3.543-1.291,4.646-1.663l1.274-.417a1.631,1.631,0,0,1,.474-.114Z" transform="translate(-295.441 -197.17)" fill="#e0e0e0"/>
        <path id="Path_32454" data-name="Path 32454" d="M626.524,136.869c-2.354,5.886-6.114,15.4-7.846,19.772a2.514,2.514,0,0,0,1.411,3.257l16.08,6.406a2.509,2.509,0,0,0,3.263-1.406l7.8-19.612a5.577,5.577,0,0,0-3.12-7.252h0l1.143-2.857L634.73,131l-1.086,2.709h-.04a5.577,5.577,0,0,0-7.08,3.16Z" transform="translate(-291.723 -81.626)" fill="#f5f5f5"/>
        <path id="Path_32455" data-name="Path 32455" d="M646.26,131.61l-.52,1.309,10.377,4.572.674-1.686Z" transform="translate(-303.395 -81.888)" fill="#e0e0e0"/>
        <path id="Path_32456" data-name="Path 32456" d="M1.709,0H12.275a1.714,1.714,0,0,1,1.714,1.714V4.526a1.1,1.1,0,0,1-1.1,1.1H1.1A1.1,1.1,0,0,1,0,4.526V1.714A1.714,1.714,0,0,1,1.714,0Z" transform="matrix(0.929, 0.37, -0.37, 0.929, 343.387, 44.872)" fill="#ebebeb"/>
        <path id="Path_32457" data-name="Path 32457" d="M646.84,129.53a13.5,13.5,0,0,1,.9-2.651,13.714,13.714,0,0,1,1.177-2.549,13.622,13.622,0,0,1-.9,2.669A12.759,12.759,0,0,1,646.84,129.53Z" transform="translate(-303.867 -78.768)" fill="#e0e0e0"/>
        <path id="Path_32458" data-name="Path 32458" d="M649.27,130.5a13.612,13.612,0,0,1,.9-2.657,12.749,12.749,0,0,1,1.177-2.543,13.629,13.629,0,0,1-.9,2.657,12.76,12.76,0,0,1-1.177,2.543Z" transform="translate(-304.908 -79.184)" fill="#e0e0e0"/>
        <path id="Path_32459" data-name="Path 32459" d="M651.7,131.466a13.486,13.486,0,0,1,.9-2.657,12.9,12.9,0,0,1,1.177-2.549,13.343,13.343,0,0,1-.9,2.657A13.706,13.706,0,0,1,651.7,131.466Z" transform="translate(-305.949 -79.595)" fill="#e0e0e0"/>
        <path id="Path_32460" data-name="Path 32460" d="M654.13,132.436a26.217,26.217,0,0,1,2.074-5.206,13.424,13.424,0,0,1-.9,2.657,13.708,13.708,0,0,1-1.171,2.549Z" transform="translate(-306.991 -80.011)" fill="#e0e0e0"/>
        <path id="Path_32461" data-name="Path 32461" d="M656.56,133.4a13.148,13.148,0,0,1,.9-2.657A13.343,13.343,0,0,1,658.6,128.2a13.145,13.145,0,0,1-.9,2.657,13.342,13.342,0,0,1-1.143,2.543Z" transform="translate(-308.032 -80.426)" fill="#e0e0e0"/>
        <path id="Path_32462" data-name="Path 32462" d="M659,134.366a13.413,13.413,0,0,1,.9-2.657,13.719,13.719,0,0,1,1.171-2.549,12.918,12.918,0,0,1-.9,2.657A12.912,12.912,0,0,1,659,134.366Z" transform="translate(-309.078 -80.838)" fill="#e0e0e0"/>
        <path id="Path_32463" data-name="Path 32463" d="M661.41,135.336a13.347,13.347,0,0,1,.9-2.657,13.71,13.71,0,0,1,1.177-2.549,13.486,13.486,0,0,1-.9,2.657,12.91,12.91,0,0,1-1.177,2.549Z" transform="translate(-310.111 -81.253)" fill="#e0e0e0"/>
        <path id="Path_32464" data-name="Path 32464" d="M663.84,136.3a13.494,13.494,0,0,1,.9-2.652,12.909,12.909,0,0,1,1.177-2.549,13.612,13.612,0,0,1-.9,2.657A13.145,13.145,0,0,1,663.84,136.3Z" transform="translate(-311.152 -81.669)" fill="#e0e0e0"/>
        <rect id="Rectangle_6940" data-name="Rectangle 6940" width="16.24" height="10.743" rx="1.48" transform="matrix(0.929, 0.37, -0.37, 0.929, 336.597, 59.266)" fill="#ebebeb"/>
        <path id="Path_32465" data-name="Path 32465" d="M643.832,163.835a1.594,1.594,0,0,1,.057-.171l.171-.469.669-1.766c.572-1.526,1.429-3.68,2.446-6.286l.063.154L634,150.057c-.04,0,.366-.154.194-.08h0v.034l-.029.074-.057.143-.114.286-.229.571c-.154.377-.3.754-.451,1.143-.3.749-.571,1.486-.886,2.211l-1.669,4.166-.074-.177,9.463,3.84,2.72,1.143.731.309a2.6,2.6,0,0,1,.257.12l-.24-.08-.714-.269-2.72-1.04-9.6-3.754-.126-.046.051-.131c.526-1.326,1.074-2.72,1.652-4.172.286-.726.571-1.463.88-2.212.149-.377.3-.754.451-1.143l.223-.571.12-.286.057-.143.029-.074v-.034h0l.2-.086,13.217,5.257.109.046-.046.109c-1.074,2.629-1.96,4.789-2.583,6.326l-.72,1.714-.189.44Q643.843,163.846,643.832,163.835Z" transform="translate(-296.847 -89.683)" fill="#e0e0e0"/>
        <path id="Path_32466" data-name="Path 32466" d="M647.6,160a40.045,40.045,0,0,1-4.572-1.651,39.475,39.475,0,0,1-4.44-1.926,39.026,39.026,0,0,1,4.572,1.651A39.674,39.674,0,0,1,647.6,160Z" transform="translate(-300.331 -92.52)" fill="#e0e0e0"/>
        <path id="Path_32467" data-name="Path 32467" d="M646.542,162.667a38.607,38.607,0,0,1-4.572-1.651,40.675,40.675,0,0,1-4.44-1.926,39.432,39.432,0,0,1,4.571,1.651A40.07,40.07,0,0,1,646.542,162.667Z" transform="translate(-299.877 -93.664)" fill="#e0e0e0"/>
        <path id="Path_32468" data-name="Path 32468" d="M645.522,165.237a38.2,38.2,0,0,1-4.572-1.651,40.07,40.07,0,0,1-4.44-1.926,38.586,38.586,0,0,1,4.572,1.651A40.652,40.652,0,0,1,645.522,165.237Z" transform="translate(-299.44 -94.766)" fill="#e0e0e0"/>
        <path id="Path_32469" data-name="Path 32469" d="M654.976,139.843a46.422,46.422,0,0,1-4.954-1.811,47.544,47.544,0,0,1-4.852-2.092,45.291,45.291,0,0,1,4.96,1.811,47.082,47.082,0,0,1,4.846,2.091Z" transform="translate(-303.151 -83.743)" fill="#e0e0e0"/>
        <path id="Path_32470" data-name="Path 32470" d="M621.12,158.634a6.584,6.584,0,0,1,.32-.949c.246-.646.571-1.5.971-2.543.829-2.143,1.994-5.092,3.3-8.343.657-1.623,1.28-3.172,1.857-4.572a9.83,9.83,0,0,1,2.086-3.474,4.382,4.382,0,0,1,2.429-1.24,3.267,3.267,0,0,1,.748,0,.961.961,0,0,1,.252.063,6.581,6.581,0,0,0-.983.057,4.452,4.452,0,0,0-2.286,1.274,9.846,9.846,0,0,0-1.983,3.429c-.571,1.417-1.183,2.966-1.834,4.572-1.3,3.252-2.5,6.194-3.383,8.315l-1.057,2.5A5.885,5.885,0,0,1,621.12,158.634Z" transform="translate(-292.844 -84.409)" fill="#fff"/>
        <path id="Path_32471" data-name="Path 32471" d="M638.709,186.964a3.936,3.936,0,0,1-.628-.509c-.194-.177-.44-.383-.732-.611s-.606-.509-.989-.777a27.831,27.831,0,0,0-2.726-1.806,29.274,29.274,0,0,0-3.594-1.714,29.585,29.585,0,0,0-3.812-1.206,27.771,27.771,0,0,0-3.217-.571c-.463-.069-.886-.086-1.252-.12s-.692-.046-.949-.051a4.858,4.858,0,0,1-.811-.063,4,4,0,0,1,.812-.057h.954a7.676,7.676,0,0,1,1.263.074,25.184,25.184,0,0,1,3.263.5,28.359,28.359,0,0,1,3.863,1.194,27.788,27.788,0,0,1,3.623,1.789,25.578,25.578,0,0,1,2.714,1.874c.371.28.686.571.966.817a9.2,9.2,0,0,1,.7.651,4.35,4.35,0,0,1,.554.583Z" transform="translate(-292.364 -102.401)" fill="#fff"/>
        <rect id="Rectangle_6941" data-name="Rectangle 6941" width="51.858" height="71.242" rx="2.41" transform="translate(0 102.11) rotate(-25.7)" fill="#e0e0e0"/>
        <rect id="Rectangle_6942" data-name="Rectangle 6942" width="46.07" height="66.31" transform="translate(3.27 102.221) rotate(-25.7)" fill="#fafafa"/>
        <path id="Path_32472" data-name="Path 32472" d="M91.588,196.486a5.634,5.634,0,0,0-5.9-.617L84.41,193.36a3.869,3.869,0,0,0-5.143-1.811h0a3.874,3.874,0,0,0-1.811,5.177l1.274,2.646-.886.446a5.652,5.652,0,0,0-3.114,4.972V206.1l18.075-8.7Zm-9.646.411a2.086,2.086,0,1,1,1.068-1.191,2.086,2.086,0,0,1-1.068,1.191Z" transform="translate(-58.685 -107.414)" fill="#ebebeb"/>
        <path id="Path_32473" data-name="Path 32473" d="M77.974,225.327c.04.074-2.451,1.349-5.56,2.857a56.944,56.944,0,0,1-5.714,2.572c-.057-.074,2.451-1.349,5.56-2.857A59.727,59.727,0,0,1,77.974,225.327Z" transform="translate(-55.243 -122.05)" fill="#e0e0e0"/>
        <path id="Path_32474" data-name="Path 32474" d="M73.763,233.56A15.267,15.267,0,0,1,71.117,235a15.127,15.127,0,0,1-2.777,1.143A15.429,15.429,0,0,1,71,234.731,15.955,15.955,0,0,1,73.763,233.56Z" transform="translate(-55.946 -125.579)" fill="#e0e0e0"/>
        <path id="Path_32475" data-name="Path 32475" d="M105.066,220.549c.034.069-6.949,3.509-15.6,7.669s-15.692,7.48-15.726,7.429,6.949-3.532,15.578-7.7S105.032,220.475,105.066,220.549Z" transform="translate(-58.26 -120.003)" fill="#e0e0e0"/>
        <path id="Path_32476" data-name="Path 32476" d="M107.586,225.769c.034.074-6.949,3.509-15.6,7.674s-15.692,7.48-15.726,7.429,6.943-3.509,15.6-7.674S107.541,225.695,107.586,225.769Z" transform="translate(-59.34 -122.24)" fill="#e0e0e0"/>
        <path id="Path_32477" data-name="Path 32477" d="M110.1,231c.04.074-6.949,3.509-15.595,7.674S78.81,246.154,78.77,246.1s6.949-3.509,15.6-7.674S110.062,230.925,110.1,231Z" transform="translate(-60.416 -124.481)" fill="#e0e0e0"/>
        <path id="Path_32478" data-name="Path 32478" d="M112.616,236.229c.034.074-6.949,3.509-15.6,7.674s-15.692,7.474-15.726,7.429,6.949-3.509,15.6-7.669S112.582,236.155,112.616,236.229Z" transform="translate(-61.496 -126.722)" fill="#e0e0e0"/>
        <path id="Path_32479" data-name="Path 32479" d="M115.136,241.449c.034.074-6.949,3.514-15.6,7.674s-15.692,7.48-15.726,7.429,6.966-3.532,15.595-7.7S115.1,241.381,115.136,241.449Z" transform="translate(-62.576 -128.96)" fill="#e0e0e0"/>
        <path id="Path_32480" data-name="Path 32480" d="M117.646,246.679c.034.074-6.949,3.509-15.595,7.674s-15.7,7.48-15.732,7.429,6.949-3.509,15.6-7.674S117.612,246.6,117.646,246.679Z" transform="translate(-63.651 -131.201)" fill="#e0e0e0"/>
        <path id="Path_32481" data-name="Path 32481" d="M104.253,264.59a2.892,2.892,0,0,1-.571.349l-1.657.851c-1.406.7-3.36,1.663-5.52,2.7s-4.132,1.971-5.56,2.629l-1.714.766a2.771,2.771,0,0,1-.64.24,3.566,3.566,0,0,1,.571-.349l1.657-.846c1.406-.709,3.36-1.669,5.52-2.709s4.132-1.966,5.56-2.623l1.714-.766a3.029,3.029,0,0,1,.64-.246Z" transform="translate(-64.624 -138.877)" fill="#e0e0e0"/>
        <path id="Path_32482" data-name="Path 32482" d="M120.887,206.35a13.189,13.189,0,0,1-2.446,1.343,13.024,13.024,0,0,1-2.571,1.074,13.188,13.188,0,0,1,2.446-1.343,13.022,13.022,0,0,1,2.571-1.074Z" transform="translate(-76.315 -113.918)" fill="#e0e0e0"/>
        <path id="Path_32483" data-name="Path 32483" d="M102.9,282a33.579,33.579,0,0,1-4,2.091,34.546,34.546,0,0,1-4.132,1.823,33.562,33.562,0,0,1,4-2.091A34.533,34.533,0,0,1,102.9,282Z" transform="translate(-67.273 -146.338)" fill="#e0e0e0"/>
        <path id="Path_32484" data-name="Path 32484" d="M105.579,286.5a34.708,34.708,0,0,1-4.069,2.12,35.115,35.115,0,0,1-4.2,1.857,35.824,35.824,0,0,1,4.069-2.126A35.584,35.584,0,0,1,105.579,286.5Z" transform="translate(-68.361 -148.267)" fill="#e0e0e0"/>
        <path id="Path_32485" data-name="Path 32485" d="M147.052,261.39a7.825,7.825,0,0,1-1.9,1.08,8,8,0,0,1-2.034.811,8.326,8.326,0,0,1,1.9-1.08A8.239,8.239,0,0,1,147.052,261.39Z" transform="translate(-87.994 -137.506)" fill="#e0e0e0"/>
        <path id="Path_32486" data-name="Path 32486" d="M149.322,265.55a16.12,16.12,0,0,1-3.932,1.892,7.824,7.824,0,0,1,1.9-1.08A8,8,0,0,1,149.322,265.55Z" transform="translate(-88.966 -139.289)" fill="#e0e0e0"/>
        <path id="Path_32487" data-name="Path 32487" d="M104.69,294.68a15.206,15.206,0,0,1-3.8,1.829,7.78,7.78,0,0,1,1.834-1.074A7.643,7.643,0,0,1,104.69,294.68Z" transform="translate(-69.896 -151.773)" fill="#e0e0e0"/>
        <path id="Path_32488" data-name="Path 32488" d="M152.766,270.42a4.234,4.234,0,0,1-1.354.817,4.572,4.572,0,0,1-1.491.572,4.255,4.255,0,0,1,1.36-.823A4.33,4.33,0,0,1,152.766,270.42Z" transform="translate(-90.908 -141.376)" fill="#e0e0e0"/>
        <path id="Path_32489" data-name="Path 32489" d="M105.87,304.934a1,1,0,0,1,.16-.12l.48-.32,1.846-1.183,6.634-4.166.131-.086.057.143a3.766,3.766,0,0,1,.074,2.52,3.074,3.074,0,0,1-1.829,1.977,3.04,3.04,0,0,1-2.857-.314,2.657,2.657,0,0,1-.943-2.783,2.463,2.463,0,0,1,.571-1.04,1.844,1.844,0,0,1,.217-.206,1.141,1.141,0,0,1,.257-.177.434.434,0,0,1,.4,0,.691.691,0,0,1,.229.263,4.983,4.983,0,0,1,.571,2.114,4.926,4.926,0,0,1-.326,2.086,3.16,3.16,0,0,1-1.229,1.629,1.823,1.823,0,0,1-1.931-.04,2.777,2.777,0,0,1-1.143-1.434,6.68,6.68,0,0,1,0-3.229l.034-.217.149.166a4.509,4.509,0,0,1,1.091,2.463,4.846,4.846,0,0,1-.194,2.029,4.32,4.32,0,0,1-.571,1.143c-.091.12-.166.2-.217.257s-.074.086-.08.08a5.321,5.321,0,0,0,.76-1.52A4.886,4.886,0,0,0,108.35,303a4.315,4.315,0,0,0-1.08-2.343l.183-.051a6.429,6.429,0,0,0,0,3.109A2.508,2.508,0,0,0,108.5,305a1.554,1.554,0,0,0,1.651.029,2.931,2.931,0,0,0,1.109-1.491,4.789,4.789,0,0,0,.3-1.977,4.708,4.708,0,0,0-.571-1.983.354.354,0,0,0-.12-.154.125.125,0,0,0-.126,0,1.406,1.406,0,0,0-.371.309,2.149,2.149,0,0,0-.48.909,2.366,2.366,0,0,0,.834,2.474,2.76,2.76,0,0,0,2.549.286,2.8,2.8,0,0,0,1.669-1.794,3.48,3.48,0,0,0-.051-2.337l.189.063-6.692,4.074-1.886,1.143-.5.286A.757.757,0,0,1,105.87,304.934Z" transform="translate(-72.03 -153.65)" fill="#e0e0e0"/>
        <path id="Path_32490" data-name="Path 32490" d="M152.55,281.932a1.714,1.714,0,0,1-.091.537,2.285,2.285,0,0,1-.263.606,1.28,1.28,0,0,1-.714.571.886.886,0,0,1-.571,0,1.143,1.143,0,0,1-.48-.371,10.863,10.863,0,0,1-.64-1.086l-1.4-2.617.257-.057c-.046,1.309-.091,2.737-.149,4.234a9.236,9.236,0,0,1-.04,1.057v.571l-.257-.531c-.783-1.606-1.509-3.109-2.149-4.412h.24a15.217,15.217,0,0,0-.571,4c0,.977.063,1.532.034,1.537a1.32,1.32,0,0,1-.086-.4,11.3,11.3,0,0,1-.1-1.143,13.937,13.937,0,0,1,.446-4.052l.086-.331.149.309,2.189,4.394-.286.057a9.491,9.491,0,0,1,.04-1.057c.063-1.5.12-2.926.171-4.234V279l.234.451c.5.943.966,1.823,1.383,2.612a11.433,11.433,0,0,0,.6,1.08.766.766,0,0,0,.829.349,1.463,1.463,0,0,0,.931-1.017,4.307,4.307,0,0,1,.206-.543Z" transform="translate(-89.041 -145.053)" fill="#e0e0e0"/>
        <path id="Path_32491" data-name="Path 32491" d="M149.663,280.388c.046.063-2.314,1.749-5.269,3.76s-5.389,3.583-5.434,3.514,2.286-1.749,5.269-3.76S149.617,280.32,149.663,280.388Z" transform="translate(-86.21 -145.647)" fill="#e0e0e0"/>
        <path id="Path_32492" data-name="Path 32492" d="M156.82,281.26a45.057,45.057,0,0,1-3.863,3.514,45.5,45.5,0,0,1-4.057,3.292,46.2,46.2,0,0,1,3.863-3.514,45.506,45.506,0,0,1,4.057-3.291Z" transform="translate(-90.471 -146.021)" fill="#e0e0e0"/>
        <g id="Group_23958" data-name="Group 23958" transform="translate(-110 130)">
          <path id="Path_32493" data-name="Path 32493" d="M184.122,56.731h-2.406L176.5,49.4V44.6s-3.72-.229-3.28,6.057-.034,4.68-.034,4.68-7.892.034-8.572.72c-.48.5-.691,8.337-.777,12.572a4.606,4.606,0,0,0,3.263,4.634,3.321,3.321,0,0,0,.829.137c1.966,0,12-1.6,12-1.6h4.154Z" transform="translate(-96.869 -44.598)" fill="#f5f5f5"/>
          <path id="Path_32494" data-name="Path 32494" d="M207.19,63.52l-1.48,16.446h-4.12V63.851Z" transform="translate(-113.052 -52.707)" fill="#f5f5f5"/>
        </g>
      </g>
      <g id="freepik--Icons--inject-105" transform="translate(179.174 46.537)">
        <path id="Path_32495" data-name="Path 32495" d="M493.65,59.642c-.617-5.006-4.852-9.675-9.9-9.675a11.059,11.059,0,0,0-7.84,3.726,20.916,20.916,0,0,0-1.994,2.36,20.369,20.369,0,0,0-1.486-2.7,11.043,11.043,0,0,0-6.954-5.2c-4.943-.989-10.012,2.749-11.606,7.537s-.269,10.155,2.354,14.463a28.375,28.375,0,0,0,15.429,12.732c5.714-.737,13.406-5.817,16.823-9.526S494.25,64.642,493.65,59.642Z" transform="translate(-353.396 -47.991)" fill="#ff725e"/>
        <path id="Path_32496" data-name="Path 32496" d="M492.32,76.8a.738.738,0,0,1-.166,0l-.486-.034-1.869-.154-6.857-.629.126-.074c-.829,2.154-1.794,4.68-2.857,7.429l-.171.446-.114-.469c-.874-3.612-1.846-7.663-2.857-11.932-.314-1.32-.629-2.623-.931-3.892l.291.057-5.234,7.2-.051.069h-.086L459.01,73.562l-3.429-.377-.9-.114a1.216,1.216,0,0,1-.309-.057,1.629,1.629,0,0,1,.314,0l.9.063,3.429.3,12.057,1.143-.131.057,5.212-7.212.206-.291.08.349c.309,1.269.617,2.566.937,3.892l2.857,11.937h-.286c1.08-2.76,2.069-5.28,2.914-7.429l.029-.086h.091l6.857.731,1.857.217.486.063a.573.573,0,0,1,.137.057Z" transform="translate(-353.905 -56.167)" fill="#fafafa"/>
        <rect id="Rectangle_6943" data-name="Rectangle 6943" width="3.772" height="16.909" transform="translate(12.389 42.892)" fill="#ff725e"/>
        <rect id="Rectangle_6944" data-name="Rectangle 6944" width="3.772" height="16.909" transform="translate(5.817 53.229) rotate(-90)" fill="#ff725e"/>
        <path id="Path_32497" data-name="Path 32497" d="M306.875,127.265a1.912,1.912,0,0,1-.029-.229c0-.166-.029-.389-.046-.669a2.506,2.506,0,0,0-.034-.491c-.034-.177-.057-.377-.091-.571a10.09,10.09,0,0,0-.3-1.451,13.426,13.426,0,0,0-1.566-3.726,13.96,13.96,0,0,0-16.783-5.96,14.229,14.229,0,0,0-1.823.8,14.725,14.725,0,0,0-1.714,1.1,15.872,15.872,0,0,0-1.583,1.343,16.2,16.2,0,0,0-1.366,1.617,13.633,13.633,0,0,0-1.994,3.84,13.823,13.823,0,0,0,0,8.806,13.555,13.555,0,0,0,1.994,3.84,15.006,15.006,0,0,0,1.366,1.617,15.2,15.2,0,0,0,1.583,1.349,14.732,14.732,0,0,0,1.714,1.1,15.081,15.081,0,0,0,1.823.8,14.006,14.006,0,0,0,16.783-5.954,13.383,13.383,0,0,0,1.566-3.732,9.874,9.874,0,0,0,.3-1.446c.034-.217.074-.411.091-.571a4.528,4.528,0,0,1,.034-.491c0-.286.034-.5.046-.669a1.714,1.714,0,0,1,.029-.229,1.374,1.374,0,0,1,0,.229v1.166a5.219,5.219,0,0,1-.074.571,10.547,10.547,0,0,1-.274,1.463,13.45,13.45,0,0,1-1.537,3.789,14.2,14.2,0,0,1-17.035,6.12,13.83,13.83,0,0,1-5.223-3.3,15.457,15.457,0,0,1-1.394-1.646,13.645,13.645,0,0,1-2.04-3.926,15.159,15.159,0,0,1-.737-4.5,15.335,15.335,0,0,1,.737-4.492,13.76,13.76,0,0,1,2.04-3.92,16.12,16.12,0,0,1,1.394-1.651,16.5,16.5,0,0,1,1.617-1.366,14.116,14.116,0,0,1,20.583,4.194,13.493,13.493,0,0,1,1.537,3.783,10.779,10.779,0,0,1,.274,1.469c0,.211.063.411.074.571v1.166A1.416,1.416,0,0,1,306.875,127.265Z" transform="translate(-278.56 -75.876)" fill="#ff725e"/>
      </g>
      <g id="freepik--character-3--inject-105" transform="translate(283.611 82.844)">
        <path id="Path_32498" data-name="Path 32498" d="M559.225,297.093s16.72-4,17.275-4.692l-13.755-35.429a25.915,25.915,0,0,0-16.04-15.635,45.448,45.448,0,0,0-16.24-2.509L507.247,237.6a45.984,45.984,0,0,0-18.32,5.069,36.966,36.966,0,0,0-17.195,18.955L461.32,287.63l26.286,5.492,1,27.944-3.96,38.555h72.493l-.5-61.11h0Z" transform="translate(-461.32 -165.556)" fill="#ff725e"/>
        <g id="Group_23952" data-name="Group 23952" transform="translate(92.825 122.213)" opacity="0.3">
          <path id="Path_32499" data-name="Path 32499" d="M643.252,325.4c0,.08-4.314,1.5-9.715,3.16s-9.755,2.954-9.777,2.857,4.309-1.5,9.715-3.166S643.229,325.317,643.252,325.4Z" transform="translate(-623.76 -325.394)" fill="#fff"/>
        </g>
        <path id="Path_32500" data-name="Path 32500" d="M514.15,272.992a3.854,3.854,0,0,1-.446-.611c-.263-.4-.669-.971-1.194-1.657a27.6,27.6,0,0,0-1.971-2.286,30.274,30.274,0,0,0-2.72-2.514,31.732,31.732,0,0,0-3.034-2.137,29.2,29.2,0,0,0-2.669-1.434c-.777-.371-1.423-.646-1.874-.823a3.268,3.268,0,0,1-.691-.309,4.39,4.39,0,0,1,.732.2,20.363,20.363,0,0,1,1.92.737,26.478,26.478,0,0,1,2.726,1.394A29.237,29.237,0,0,1,508,265.689a27.884,27.884,0,0,1,2.737,2.56,25.5,25.5,0,0,1,1.937,2.366,18.07,18.07,0,0,1,1.143,1.714A3.423,3.423,0,0,1,514.15,272.992Z" transform="translate(-477.704 -175.678)" fill="#263238"/>
        <path id="Path_32501" data-name="Path 32501" d="M516.17,296.62c.08,0-.732,8.537-1.811,19.052s-2.023,19.035-2.1,19.023.726-8.537,1.811-19.052S516.107,296.609,516.17,296.62Z" transform="translate(-483.147 -190.849)" fill="#263238"/>
        <path id="Path_32502" data-name="Path 32502" d="M615.97,260.545a16.255,16.255,0,0,1-.372-1.714,32.181,32.181,0,0,0-1.143-4.092,31.651,31.651,0,0,0-1.714-3.9,16.543,16.543,0,0,1-.811-1.571,2.736,2.736,0,0,1,.3.371c.177.251.417.629.7,1.1a24.291,24.291,0,0,1,1.806,3.9,23.75,23.75,0,0,1,1.08,4.154c.086.543.137.983.16,1.291A1.663,1.663,0,0,1,615.97,260.545Z" transform="translate(-525.865 -170.557)" fill="#263238"/>
        <path id="Path_32503" data-name="Path 32503" d="M620.834,305.015a5.08,5.08,0,0,1-.137-.84c-.074-.537-.16-1.326-.257-2.286-.189-1.943-.389-4.64-.491-7.617s-.1-5.686-.046-7.64c.029-.977.057-1.766.091-2.286a4.219,4.219,0,0,1,.086-.846,5.5,5.5,0,0,1,.034.846v2.3c0,1.949.029,4.646.131,7.623s.269,5.663.406,7.612c.063.931.114,1.714.16,2.286A4.382,4.382,0,0,1,620.834,305.015Z" transform="translate(-529.266 -185.227)" fill="#263238"/>
        <path id="Path_32504" data-name="Path 32504" d="M546.406,312.163a119.136,119.136,0,0,1-18.286-.343v2.389h18.286Z" transform="translate(-489.948 -197.363)" fill="#fff"/>
        <g id="Group_23953" data-name="Group 23953" transform="translate(34.321 74.29)" opacity="0.3">
          <path id="Path_32505" data-name="Path 32505" d="M561.735,242.53a1.563,1.563,0,0,1,.074.36l.16,1.051c.114.926.274,2.286.406,4,.274,3.429.514,8.314.571,14.08v.217l-.2-.091c-3.646-1.777-7.732-3.709-12-5.834l-20.783-10.4-6.286-3.183-1.714-.874-.434-.24a.638.638,0,0,1-.148-.086.622.622,0,0,1,.16.063l.451.206,1.714.829,6.32,3.1,20.852,10.32c4.251,2.126,8.332,4.063,12,5.852l-.194.12c-.063-5.754-.263-10.635-.491-14.069-.1-1.714-.24-3.069-.326-4-.052-.446-.091-.8-.12-1.057a3.473,3.473,0,0,1-.011-.36Z" transform="translate(-521.38 -241.53)" fill="#fff"/>
        </g>
        <g id="Group_23954" data-name="Group 23954" transform="translate(1.743 117.572)" opacity="0.3">
          <path id="Path_32506" data-name="Path 32506" d="M493.616,324.351a1.036,1.036,0,0,1-.3-.051l-.851-.2-3.126-.794c-2.64-.68-6.286-1.6-10.32-2.577s-7.7-1.823-10.36-2.429l-3.143-.72-.851-.206a1.436,1.436,0,0,1-.291-.091,1.108,1.108,0,0,1,.3,0l.863.154c.749.137,1.829.354,3.166.629,2.669.571,6.343,1.366,10.383,2.343s7.68,1.937,10.286,2.663c1.314.366,2.377.669,3.1.886l.84.257a1.512,1.512,0,0,1,.3.137Z" transform="translate(-464.37 -317.272)" fill="#fff"/>
        </g>
        <path id="Path_32507" data-name="Path 32507" d="M586.37,235.706a7.82,7.82,0,0,1,3.086,2.983,27.534,27.534,0,0,1,3.674,9.715,39.97,39.97,0,0,1,.669,5.714c0,.88.04,1.714,0,2.5s-.051,1.509-.12,2.172-.137,1.251-.194,1.783-.16.966-.223,1.331a4.059,4.059,0,0,1-.274,1.143,4.351,4.351,0,0,1,.046-1.143l.12-1.337c.034-.531.069-1.143.1-1.777s0-1.377.052-2.149-.04-1.6-.069-2.463a44.6,44.6,0,0,0-.7-5.6,30.485,30.485,0,0,0-3.429-9.583,13.145,13.145,0,0,0-1.9-2.423,11.016,11.016,0,0,1-.834-.863Z" transform="translate(-514.911 -164.741)" fill="#263238"/>
        <path id="Path_32508" data-name="Path 32508" d="M535.072,236a12.339,12.339,0,0,1-1.206,1.714,24.486,24.486,0,0,0-2.692,5.029,34.228,34.228,0,0,0-1.994,8.212c-.417,3.166-.572,6.709-.829,10.417s-.2,7.24-.206,10.457,0,6.12,0,8.572-.063,4.417-.131,5.783a9.777,9.777,0,0,1-.211,2.114,9.955,9.955,0,0,1-.137-2.12c-.04-1.389-.086-3.354-.149-5.772s-.143-5.337-.189-8.572-.057-6.777.137-10.515.434-7.263.9-10.48A32.777,32.777,0,0,1,530.6,242.5a20.94,20.94,0,0,1,3-4.989A7.754,7.754,0,0,1,535.072,236Z" transform="translate(-489.597 -164.87)" fill="#263238"/>
        <path id="Path_32509" data-name="Path 32509" d="M597.173,303.738a10.865,10.865,0,0,1-.114-1.886c-.034-1.217-.063-2.977-.086-5.143,0-1.091,0-2.286-.034-3.554s0-2.652-.074-4.057a6.715,6.715,0,0,0-1.457-4,5.509,5.509,0,0,0-4-1.909,6.286,6.286,0,0,0-4.211,1.634,7.258,7.258,0,0,0-2.126,3.709c-.354,1.36-.5,2.726-.714,4l-.571,3.509c-.343,2.143-.634,3.88-.846,5.074a11.482,11.482,0,0,1-.389,1.852,10.683,10.683,0,0,1,.16-1.886c.143-1.206.366-2.949.657-5.1.149-1.08.314-2.257.486-3.52a36.7,36.7,0,0,1,.674-4.052,7.714,7.714,0,0,1,2.286-4,6.857,6.857,0,0,1,4.566-1.806,6.057,6.057,0,0,1,4.457,2.12,7.2,7.2,0,0,1,1.566,4.332c.086,1.463,0,2.817,0,4.1s-.029,2.469-.046,3.554c0,2.171-.063,3.932-.1,5.143A11.625,11.625,0,0,1,597.173,303.738Z" transform="translate(-513.274 -184.841)" fill="#263238"/>
        <path id="Path_32510" data-name="Path 32510" d="M596.827,273.87a9.8,9.8,0,0,1-2.217,5.714,8.035,8.035,0,0,1,3.686.069,12.616,12.616,0,0,1-.983-5.766" transform="translate(-518.442 -181.1)" fill="#263238"/>
        <path id="Path_32511" data-name="Path 32511" d="M598.964,291.909a17.514,17.514,0,0,0-.9-2.286,7.11,7.11,0,0,0-1.663-1.989,6.171,6.171,0,0,0-2.811-1.337,6,6,0,0,0-3.1.309,6.762,6.762,0,0,0-2.212,1.337,16.99,16.99,0,0,0-1.571,1.869c-.1-.051.171-1.011,1.28-2.171a6.65,6.65,0,0,1,2.286-1.543,6.286,6.286,0,0,1,3.394-.389,6.4,6.4,0,0,1,3.063,1.509,6.823,6.823,0,0,1,1.68,2.211A4.148,4.148,0,0,1,598.964,291.909Z" transform="translate(-515.047 -186.138)" fill="#263238"/>
        <path id="Path_32512" data-name="Path 32512" d="M628.96,378.38c3.429,0,6.446-2.451,8.046-5.452s2.012-6.492,2.166-9.892A80.294,80.294,0,0,0,635.9,336.35l-14.9,2.6,4.063,40.167Z" transform="translate(-529.752 -207.876)" fill="#ffbe9d"/>
        <path id="Path_32513" data-name="Path 32513" d="M529.37,374.65l48.561-1.766,11.777-56.9-51.15,2.84Z" transform="translate(-490.483 -199.146)" fill="#263238"/>
        <path id="Path_32514" data-name="Path 32514" d="M573.11,315.826l.732-1.451,3.874-.28s.983-2.543,6.526-2.806c4.96-.229,5.143,2.286,5.143,2.286h2.674v1.217Z" transform="translate(-509.228 -197.13)" fill="#455a64"/>
        <path id="Path_32515" data-name="Path 32515" d="M609.712,385.622l3.68-1.069a4.493,4.493,0,0,1,2.131-.1h0a4.492,4.492,0,0,1,2.286,1.206,30.373,30.373,0,0,1,3.463,3.777,3.562,3.562,0,0,1,0,2.909c-.412.549.9,3.389.737,4.332a5.9,5.9,0,0,1-.737,2.286c-.332.394,0,1.743-.823,2.76a13.62,13.62,0,0,1-1.56,1.646s-10.115.474-11.1,0a14.811,14.811,0,0,1-2.714-2.286s-.9-1.651.491-1.811l-5.754-2.2a1.371,1.371,0,0,1-.834-1.714.96.96,0,0,1,.509-.572s-2.583-.817-3.183-1.08c-1.194-.526-1.646-3.3.829-2.949,1.3.189,3.069.571,3.069.571a1.822,1.822,0,0,1,.377-2.446c.8-.571,4.4.12,4.4.12l4.732-3.377Z" transform="translate(-518.756 -228.456)" fill="#ffbe9d"/>
        <path id="Path_32516" data-name="Path 32516" d="M618.423,411.847a8.506,8.506,0,0,1-2.989-.446,7.429,7.429,0,0,1-2.754-1.246c.04-.069,1.246.52,2.857.96S618.434,411.779,618.423,411.847Z" transform="translate(-526.186 -239.504)" fill="#eb996e"/>
        <path id="Path_32517" data-name="Path 32517" d="M611.9,405.047A39.017,39.017,0,0,1,607.207,404a37.632,37.632,0,0,1-4.617-1.331,78.242,78.242,0,0,1,9.309,2.377Z" transform="translate(-521.862 -236.298)" fill="#eb996e"/>
        <path id="Path_32518" data-name="Path 32518" d="M613.475,398.809a88.756,88.756,0,0,1-10.035-2.349,88.766,88.766,0,0,1,10.035,2.349Z" transform="translate(-522.227 -233.637)" fill="#eb996e"/>
        <path id="Path_32519" data-name="Path 32519" d="M620.72,392.51a6.61,6.61,0,0,1-1.3.417l-1.429.366-.846.211a3.23,3.23,0,0,1-.971.091,5.388,5.388,0,0,1-.949-.154l-.852-.194-1.429-.343a6.289,6.289,0,0,1-1.309-.394,6.131,6.131,0,0,1,1.349.189l1.451.28a17.159,17.159,0,0,0,1.754.32,6.409,6.409,0,0,0,1.714-.269l1.446-.309a6.361,6.361,0,0,1,1.366-.211Z" transform="translate(-525.741 -231.944)" fill="#eb996e"/>
        <path id="Path_32520" data-name="Path 32520" d="M628.06,395.9c.034,0,.172.1.28.377a1.675,1.675,0,0,1,.04,1.143,1.714,1.714,0,0,1-.674.909c-.246.16-.429.183-.446.149a2.888,2.888,0,0,0,.834-1.143A3.175,3.175,0,0,0,628.06,395.9Z" transform="translate(-532.435 -233.397)" fill="#eb996e"/>
        <path id="Path_32521" data-name="Path 32521" d="M628.207,402.738c.069-.034.3.371.263.926s-.3.937-.366.891.046-.423.069-.909S628.121,402.767,628.207,402.738Z" transform="translate(-532.787 -236.326)" fill="#eb996e"/>
        <path id="Path_32522" data-name="Path 32522" d="M628.218,410.159c.074-.029.229.246.154.606s-.314.571-.377.5.034-.274.086-.572S628.138,410.181,628.218,410.159Z" transform="translate(-532.741 -239.506)" fill="#eb996e"/>
        <path id="Path_32523" data-name="Path 32523" d="M625.723,391.684a3.12,3.12,0,0,1-.971-.046l-1.04-.137a4.056,4.056,0,0,0-1.24-.063,3.091,3.091,0,0,0-1.1.5c-.32.211-.571.451-.863.606a1.64,1.64,0,0,1-.932.32c0-.051.349-.149.817-.5a4.977,4.977,0,0,1,2.034-1.217,3.578,3.578,0,0,1,.7,0,3.375,3.375,0,0,1,.623.1l1.034.194A3.429,3.429,0,0,1,625.723,391.684Z" transform="translate(-529.143 -231.353)" fill="#eb996e"/>
        <path id="Path_32524" data-name="Path 32524" d="M634.866,399.1a4.992,4.992,0,0,1,.257-.7,4.96,4.96,0,0,0,.189-3.429c-.114-.5-.349-1.006-.474-1.606a5.032,5.032,0,0,1,.126-1.869,3.315,3.315,0,0,0-.331-1.834,8.572,8.572,0,0,0-1.051-1.629c-.394-.5-.777-.983-1.143-1.417a6.778,6.778,0,0,0-2.394-1.869,3.851,3.851,0,0,0-2.011-.309c-.48.069-.731.194-.743.171s.057-.046.177-.109a2.8,2.8,0,0,1,.571-.177,3.857,3.857,0,0,1,2.109.223,6.794,6.794,0,0,1,2.514,1.886c.4.44.789.92,1.189,1.417a9,9,0,0,1,1.091,1.714,3.548,3.548,0,0,1,.349,2,5.142,5.142,0,0,0-.143,1.777c.109.571.337,1.08.446,1.594a5.715,5.715,0,0,1,.189,1.469,5.236,5.236,0,0,1-.509,2.057,2.854,2.854,0,0,1-.406.64Z" transform="translate(-532.447 -228.412)" fill="#eb996e"/>
        <path id="Path_32525" data-name="Path 32525" d="M533.464,346.93l-39.87,6.332,1.772-20.806-22.172-4.286-2.7,30.806-.469,7.063a13.8,13.8,0,0,0,5.789,12.16h0a13.812,13.812,0,0,0,12.24,1.874l8.572-2.794,41.784-14.858" transform="translate(-465.039 -204.37)" fill="#ffbe9d"/>
        <path id="Path_32526" data-name="Path 32526" d="M605.182,352.471a1.143,1.143,0,0,0-1.143-1.331c-2.246,0-8.314,0-10.457.634-2.651.749-12.532,4.989-12.532,4.989l4.189,15.429,15.16.16s5.537-2.543,5.606-3.646a17.754,17.754,0,0,0-.137-2.063l1.674-.9c2.492-1.577.891-4.612.891-4.612a3.683,3.683,0,0,0,1.806-2.7,2.7,2.7,0,0,0-1.337-2.554s.686-2.446-.571-3.1-3.429.183-3.429.183a.886.886,0,0,0,.28-.491Z" transform="translate(-512.631 -214.214)" fill="#ffbe9d"/>
        <path id="Path_32527" data-name="Path 32527" d="M615.665,353.906a1.566,1.566,0,0,1-.469.166c-.3.086-.754.183-1.309.28-1.143.2-2.663.366-4.372.571a35.415,35.415,0,0,0-4.331.663,8.056,8.056,0,0,0-1.714.571,1.626,1.626,0,0,1,.417-.269,7.346,7.346,0,0,1,1.257-.486,26.763,26.763,0,0,1,4.349-.754c1.714-.183,3.263-.314,4.372-.457S615.648,353.866,615.665,353.906Z" transform="translate(-522.239 -215.397)" fill="#eb996e"/>
        <path id="Path_32528" data-name="Path 32528" d="M623.9,359.33a3.644,3.644,0,0,1-1.068.543,17,17,0,0,1-2.76.806c-1.1.229-2.1.377-2.857.474a4.913,4.913,0,0,1-1.183.091,35.727,35.727,0,0,1,3.954-.857,28.342,28.342,0,0,0,2.754-.709A6.794,6.794,0,0,1,623.9,359.33Z" transform="translate(-527.622 -217.724)" fill="#eb996e"/>
        <path id="Path_32529" data-name="Path 32529" d="M624.012,368.723a16.44,16.44,0,0,1-6.652,1.509c0-.091,1.509-.28,3.337-.7S624.012,368.637,624.012,368.723Z" transform="translate(-528.192 -221.745)" fill="#eb996e"/>
        <path id="Path_32530" data-name="Path 32530" d="M623.563,376.75a11.429,11.429,0,0,1-5.143,1.24Q621,377.386,623.563,376.75Z" transform="translate(-528.646 -225.19)" fill="#eb996e"/>
        <path id="Path_32531" data-name="Path 32531" d="M611.834,370.783c0,.034-.154.131-.463.16a1.714,1.714,0,0,1-1.143-.314,1.754,1.754,0,0,1-.68-.977c-.074-.3-.034-.491,0-.491a2.478,2.478,0,0,0,.846,1.223A3.143,3.143,0,0,0,611.834,370.783Z" transform="translate(-524.826 -221.937)" fill="#eb996e"/>
        <path id="Path_32532" data-name="Path 32532" d="M611.776,379.281c0,.08-.571.114-1.114-.349s-.571-1.069-.474-1.063.234.457.674.84S611.776,379.2,611.776,379.281Z" transform="translate(-525.1 -225.67)" fill="#eb996e"/>
        <path id="Path_32533" data-name="Path 32533" d="M609.166,362.706c.034.08-.383.211-.771-.086s-.377-.731-.291-.72.183.28.469.486S609.126,362.626,609.166,362.706Z" transform="translate(-524.204 -218.825)" fill="#eb996e"/>
        <path id="Path_32534" data-name="Path 32534" d="M581.06,356.687l.12-.069.36-.166,1.406-.623c1.234-.531,3.023-1.3,5.292-2.234,1.143-.457,2.377-.966,3.749-1.474a14.183,14.183,0,0,1,2.172-.674,22.958,22.958,0,0,1,2.411-.3c1.657-.131,3.429-.189,5.246-.211h2.1a1.5,1.5,0,0,1,.754.16,1.211,1.211,0,0,1,.646,1.377.422.422,0,0,1-.171.194l-.171.109-.343.16a5.612,5.612,0,0,1-.72.251.148.148,0,0,1-.177-.1.143.143,0,0,1,.1-.177,15.579,15.579,0,0,1,1.886-.423,6.856,6.856,0,0,1,2-.069,1.84,1.84,0,0,1,.983.423,1.8,1.8,0,0,1,.486.966,5.039,5.039,0,0,1-.131,2.086l-.074-.177a2.807,2.807,0,0,1,.84.743,2.977,2.977,0,0,1,.434,2.7,4,4,0,0,1-1.714,2.074l.057-.2a4.726,4.726,0,0,1,.48,2.64,3.034,3.034,0,0,1-1.429,2.16h0l-1.669.9.074-.143c.04.4.08.8.109,1.194a3.718,3.718,0,0,0,.029.571v.3a.787.787,0,0,1-.12.326,3.656,3.656,0,0,1-.863.823c-.309.229-.629.434-.943.629a41.365,41.365,0,0,1-3.766,1.971h-.051l-11.035-.171-3.051-.063-.8-.029a1.26,1.26,0,0,1-.274,0,1.422,1.422,0,0,1,.274,0h3.852l11.035.063H600.4a40.264,40.264,0,0,0,3.732-1.977c.309-.189.623-.394.92-.617a3.29,3.29,0,0,0,.789-.749.491.491,0,0,0,.086-.2v-.851c-.029-.389-.069-.783-.114-1.177a.131.131,0,0,1,.074-.137l1.669-.9h0a2.749,2.749,0,0,0,1.3-1.96,4.487,4.487,0,0,0-.457-2.463.148.148,0,0,1,.063-.194,3.726,3.726,0,0,0,1.6-1.909,2.691,2.691,0,0,0-.394-2.434,2.463,2.463,0,0,0-.737-.651.154.154,0,0,1-.074-.171,4.812,4.812,0,0,0,.126-1.949,1.292,1.292,0,0,0-1.223-1.143,6.493,6.493,0,0,0-1.909.069,14.215,14.215,0,0,0-1.852.406l-.074-.28a4.932,4.932,0,0,0,.674-.229c.109-.046.223-.1.32-.149s.2-.154.234-.143a1.217,1.217,0,0,0-.091-.6,1.052,1.052,0,0,0-.44-.44,1.189,1.189,0,0,0-.623-.126H601.9c-1.829,0-3.583.069-5.234.189a23.663,23.663,0,0,0-2.383.28,14.852,14.852,0,0,0-2.143.651c-1.366.5-2.617.994-3.754,1.44l-5.32,2.154-1.423.571-.371.149Z" transform="translate(-512.635 -214.127)" fill="#eb996e"/>
        <path id="Path_32535" data-name="Path 32535" d="M507.889,372a15.746,15.746,0,0,0-2.943,2.543,15.509,15.509,0,0,0-1.966,3.36,3.222,3.222,0,0,1,.3-1.143,8.984,8.984,0,0,1,3.56-4.28A3.31,3.31,0,0,1,507.889,372Z" transform="translate(-479.174 -223.154)" fill="#eb996e"/>
        <path id="Path_32536" data-name="Path 32536" d="M574.761,142.33a20.138,20.138,0,0,0-20.035-18.56H553.68c-11.246.634-16.995,10.537-16.046,21.766l1.937,45a2.04,2.04,0,0,0,1.143,1.749l25.246,11.846-.731-23.618s10.817-1.657,10.972-12.469C576.247,162.828,575.515,152.062,574.761,142.33Z" transform="translate(-493.982 -116.773)" fill="#ffbe9d"/>
        <path id="Path_32537" data-name="Path 32537" d="M575.495,219.872A26.184,26.184,0,0,1,561.34,215.7s3.314,7.783,14.1,6.857Z" transform="translate(-504.184 -156.171)" fill="#eb996e"/>
        <path id="Path_32538" data-name="Path 32538" d="M593.69,166.951a1.549,1.549,0,0,1-1.492,1.554,1.469,1.469,0,0,1-1.589-1.394,1.537,1.537,0,0,1,1.486-1.554,1.48,1.48,0,0,1,1.594,1.394Z" transform="translate(-516.728 -134.679)" fill="#263238"/>
        <path id="Path_32539" data-name="Path 32539" d="M594.024,164.278c-.194.2-1.36-.669-3.023-.669s-2.857.834-3.057.629c-.091-.091.1-.451.634-.84a4.258,4.258,0,0,1,2.451-.749,4.046,4.046,0,0,1,2.406.783C593.944,163.821,594.115,164.187,594.024,164.278Z" transform="translate(-515.576 -133.435)" fill="#263238"/>
        <path id="Path_32540" data-name="Path 32540" d="M565.09,167.831a1.537,1.537,0,0,1-1.492,1.554,1.474,1.474,0,0,1-1.589-1.394,1.543,1.543,0,0,1,1.491-1.554,1.474,1.474,0,0,1,1.589,1.394Z" transform="translate(-504.471 -135.056)" fill="#263238"/>
        <path id="Path_32541" data-name="Path 32541" d="M565.426,164.778c-.189.2-1.36-.663-3.017-.663s-2.857.829-3.063.623c-.086-.091.109-.451.64-.834a4.217,4.217,0,0,1,2.451-.754,4.092,4.092,0,0,1,2.4.783C565.357,164.316,565.534,164.681,565.426,164.778Z" transform="translate(-503.321 -133.65)" fill="#263238"/>
        <path id="Path_32542" data-name="Path 32542" d="M579.968,177.18a11.346,11.346,0,0,1,2.7-.48c.423-.046.829-.126.9-.417a2.137,2.137,0,0,0-.28-1.257l-1.246-3.234c-1.714-4.572-2.989-8.383-2.8-8.452s1.714,3.606,3.474,8.212L583.9,174.8a2.445,2.445,0,0,1,.217,1.663,1.058,1.058,0,0,1-.7.617,2.949,2.949,0,0,1-.72.1A10.578,10.578,0,0,1,579.968,177.18Z" transform="translate(-511.846 -133.731)" fill="#263238"/>
        <path id="Path_32543" data-name="Path 32543" d="M571.792,189.56c.269,0,.269,1.783,1.811,3.069s3.457,1.086,3.474,1.337c0,.114-.429.354-1.24.371a4.486,4.486,0,0,1-2.9-1.017,3.909,3.909,0,0,1-1.4-2.571C571.449,189.994,571.649,189.548,571.792,189.56Z" transform="translate(-508.544 -144.968)" fill="#263238"/>
        <path id="Path_32544" data-name="Path 32544" d="M565.111,153.648c-.166.451-1.823.234-3.772.469s-3.526.76-3.789.354c-.114-.194.16-.623.8-1.057a6.354,6.354,0,0,1,2.806-.977,6.286,6.286,0,0,1,2.949.354C564.82,153.082,565.18,153.437,565.111,153.648Z" transform="translate(-502.55 -129.04)" fill="#263238"/>
        <path id="Path_32545" data-name="Path 32545" d="M593.307,155.794c-.3.371-1.44,0-2.817-.04s-2.537.246-2.806-.149c-.12-.189.069-.571.571-.926a4.08,4.08,0,0,1,4.526.149C593.273,155.217,593.432,155.606,593.307,155.794Z" transform="translate(-515.459 -129.757)" fill="#263238"/>
        <path id="Path_32546" data-name="Path 32546" d="M535.136,175.6c-.183-.08-7.429-2.211-7.2,5.183s7.594,5.64,7.6,5.429S535.136,175.6,535.136,175.6Z" transform="translate(-489.867 -138.838)" fill="#ffbe9d"/>
        <path id="Path_32547" data-name="Path 32547" d="M535.741,185.3c-.034,0-.126.091-.343.2a1.291,1.291,0,0,1-.96.051,3.2,3.2,0,0,1-1.56-2.817,4.315,4.315,0,0,1,.3-1.852,1.486,1.486,0,0,1,.943-1.017.663.663,0,0,1,.771.326c.1.206.063.354.1.366s.16-.126.091-.429a.863.863,0,0,0-.309-.457.966.966,0,0,0-.714-.166,1.812,1.812,0,0,0-1.314,1.183,4.373,4.373,0,0,0-.383,2.074c.091,1.491.9,2.857,1.971,3.137a1.372,1.372,0,0,0,1.143-.234C535.73,185.5,535.764,185.306,535.741,185.3Z" transform="translate(-491.763 -140.652)" fill="#eb996e"/>
        <path id="Path_32548" data-name="Path 32548" d="M541.861,130.237l30.812.68a14.047,14.047,0,0,0-4.526-5.234,24.04,24.04,0,0,0-13.955-5.023c-5.023-.091-15.258,6.034-18.9,9.5-2.914,2.772-2.892,5.172-2.892,5.172-.463,4,1.771,8.537,2.663,12.463.457,2.023,1.343,8.143,1.343,8.143h0c1.714,0,2.326-1.354,2.069-3.034l-.314-6.589A9.941,9.941,0,0,0,541.2,134.7C540.775,134.1,539.838,131.357,541.861,130.237Z" transform="translate(-491.756 -115.44)" fill="#263238"/>
        <path id="Path_32549" data-name="Path 32549" d="M560.19,178.006a.189.189,0,0,1-.194-.183.194.194,0,0,1,.137-.234.2.2,0,0,1,.223.166.194.194,0,0,1-.166.251Z" transform="translate(-503.606 -139.837)" fill="#eb996e"/>
        <path id="Path_32550" data-name="Path 32550" d="M565.723,176.731a.229.229,0,0,1-.229-.189.217.217,0,0,1,.137-.263.211.211,0,0,1,.223.194.206.206,0,0,1-.131.257Z" transform="translate(-505.961 -139.277)" fill="#eb996e"/>
        <path id="Path_32551" data-name="Path 32551" d="M569.47,176.554c-.1,0-.2-.109-.223-.274s.046-.309.148-.32.194.109.217.274S569.567,176.554,569.47,176.554Z" transform="translate(-507.571 -139.139)" fill="#eb996e"/>
        <path id="Path_32552" data-name="Path 32552" d="M562.923,181.634c-.1,0-.183-.051-.183-.114s.086-.12.183-.12.183.057.183.12S563.026,181.634,562.923,181.634Z" transform="translate(-504.784 -141.471)" fill="#eb996e"/>
        <path id="Path_32553" data-name="Path 32553" d="M567.992,180.331a.206.206,0,1,1-.034-.411.194.194,0,0,1,.2.189.2.2,0,0,1-.166.223Z" transform="translate(-506.939 -140.837)" fill="#eb996e"/>
        <path id="Path_32554" data-name="Path 32554" d="M594.5,177.224a.189.189,0,0,1-.217-.166.185.185,0,1,1,.36-.074.194.194,0,0,1-.143.24Z" transform="translate(-518.301 -139.507)" fill="#eb996e"/>
        <path id="Path_32555" data-name="Path 32555" d="M598.229,176.847a.234.234,0,1,1,.16-.246A.211.211,0,0,1,598.229,176.847Z" transform="translate(-519.862 -139.324)" fill="#eb996e"/>
        <path id="Path_32556" data-name="Path 32556" d="M591.169,177.364a.177.177,0,0,1-.211-.12.184.184,0,1,1,.36-.074.177.177,0,0,1-.149.194Z" transform="translate(-516.875 -139.595)" fill="#eb996e"/>
        <path id="Path_32557" data-name="Path 32557" d="M593.878,181.111a.217.217,0,1,1,.08-.269A.2.2,0,0,1,593.878,181.111Z" transform="translate(-517.985 -141.176)" fill="#eb996e"/>
        <path id="Path_32558" data-name="Path 32558" d="M597.256,180.55a.171.171,0,0,1-.137-.194.189.189,0,0,1,.354.1.171.171,0,0,1-.217.1Z" transform="translate(-519.517 -140.981)" fill="#eb996e"/>
        <path id="Path_32559" data-name="Path 32559" d="M536.974,126.654a9.109,9.109,0,0,1,9.1-11.326,29.38,29.38,0,0,0,4.3.309c2.669-.291,4.726-2.429,7.2-3.469a9.4,9.4,0,0,1,11.08,3.326c.937,1.4,1.549,3.132,2.989,4,1.24.76,2.806.7,4.2,1.143a6.851,6.851,0,0,1,4.606,6.789,8.069,8.069,0,0,1-4.92,6.789,9.875,9.875,0,0,1-8.515-.571c-2.326-1.3-4.406-3.5-7.069-3.429-2.754.08-5.143,2.674-7.863,2.137a7.632,7.632,0,0,1-3.549-2.377,6.177,6.177,0,0,0-3.674-2.114c-1.446-.086-2.194,1.9-1.674,3.246l-6.212-4.452" transform="translate(-493.624 -111.526)" fill="#263238"/>
        <path id="Path_32560" data-name="Path 32560" d="M576.685,128.472a.938.938,0,0,1-.051.109,3.021,3.021,0,0,1-.177.3,5.144,5.144,0,0,1-.886,1.006,5.527,5.527,0,0,1-1.834,1.063,5.246,5.246,0,0,1-2.794.166,5.56,5.56,0,0,1-2.949-1.68,36.206,36.206,0,0,1-2.126-3.246,4.287,4.287,0,0,0-1.491-1.349,4.366,4.366,0,0,0-2.046-.451,4.646,4.646,0,0,0-2.1.571,3.938,3.938,0,0,0-1.543,1.589c-.371.68-.64,1.423-1.086,2.08a2.549,2.549,0,0,1-1.977,1.2,3.846,3.846,0,0,1-2.149-.617,8.123,8.123,0,0,1-1.634-1.354,6.871,6.871,0,0,0-3.057-2.177,3.886,3.886,0,0,0-3.1.726,5.314,5.314,0,0,0-1.714,2.1,8.838,8.838,0,0,0-.64,1.983c-.114.571-.166,1.006-.2,1.309a3.462,3.462,0,0,1-.069.463.414.414,0,0,1,0-.12c0-.08,0-.194,0-.349a10.736,10.736,0,0,1,.154-1.326,8.438,8.438,0,0,1,.571-2.029,5.456,5.456,0,0,1,1.714-2.206,4.068,4.068,0,0,1,3.274-.794,6.962,6.962,0,0,1,3.189,2.223,8.149,8.149,0,0,0,1.589,1.3,3.566,3.566,0,0,0,1.989.571,2.286,2.286,0,0,0,1.749-1.074c.417-.617.686-1.354,1.069-2.057a4.223,4.223,0,0,1,1.663-1.714,4.949,4.949,0,0,1,2.234-.6,4.669,4.669,0,0,1,2.183.491,4.571,4.571,0,0,1,1.583,1.44,37.8,37.8,0,0,0,2.086,3.246,5.36,5.36,0,0,0,2.811,1.634,5.04,5.04,0,0,0,2.7-.12,5.483,5.483,0,0,0,1.811-.989A6.913,6.913,0,0,0,576.685,128.472Z" transform="translate(-496.351 -116.91)" fill="#455a64"/>
        <path id="Path_32561" data-name="Path 32561" d="M603.3,132a1.715,1.715,0,0,1,.126.571,4.8,4.8,0,0,1-.154,1.651,5.714,5.714,0,0,1-1.143,2.171,6.709,6.709,0,0,1-2.434,1.777,9.983,9.983,0,0,1-5.377.606,14.71,14.71,0,0,1-1.612-.32,1.977,1.977,0,0,1-.571-.194c0-.046.84.16,2.211.3a10.394,10.394,0,0,0,5.229-.669,6.656,6.656,0,0,0,2.349-1.68,5.764,5.764,0,0,0,1.143-2.057A6.557,6.557,0,0,0,603.3,132Z" transform="translate(-517.38 -120.3)" fill="#455a64"/>
        <path id="Path_32562" data-name="Path 32562" d="M519.64,333a6.176,6.176,0,0,0,1.292,3.2,4.169,4.169,0,0,0,3.086,1.64,4.708,4.708,0,0,0,4.154-2.086c1.32-2.091,1.64-6.452.572-9.029-.726-1.771-2.36-3.429-4.274-3.469a4.727,4.727,0,0,0-4.629,3.6" transform="translate(-486.313 -202.265)" fill="#e0e0e0"/>
        <path id="Path_32563" data-name="Path 32563" d="M519.823,326.775a3.843,3.843,0,0,1,.469-1.234,4.946,4.946,0,0,1,.943-1.24,4.349,4.349,0,0,1,1.777-1.04,4.506,4.506,0,0,1,1.195-.194,3.594,3.594,0,0,1,1.308.171,5.142,5.142,0,0,1,2.337,1.674,6.8,6.8,0,0,1,1.372,2.857,12.311,12.311,0,0,1,.257,3.389,9.361,9.361,0,0,1-1.463,4.931,4.388,4.388,0,0,1-1.9,1.429,5.086,5.086,0,0,1-2.143.36h0a3.246,3.246,0,0,1-1.543-.377,5.143,5.143,0,0,1-1.143-.811,5.714,5.714,0,0,1-1.263-1.874,5.832,5.832,0,0,1-.4-1.389,3.014,3.014,0,0,1-.034-.377.3.3,0,0,1,0-.131,7.492,7.492,0,0,0,.572,1.84,5.9,5.9,0,0,0,1.269,1.789,5.051,5.051,0,0,0,1.143.754,3.029,3.029,0,0,0,1.429.337h0a4.572,4.572,0,0,0,3.8-1.714,9.265,9.265,0,0,0,1.388-4.777,8.669,8.669,0,0,0-1.543-6.057,5,5,0,0,0-2.2-1.611,3.537,3.537,0,0,0-1.229-.177,4.3,4.3,0,0,0-1.143.166,4.194,4.194,0,0,0-1.714.966,5.067,5.067,0,0,0-.971,1.166A11.438,11.438,0,0,0,519.823,326.775Z" transform="translate(-486.291 -202.181)" fill="#263238"/>
        <path id="Path_32564" data-name="Path 32564" d="M517.3,333.2a6.2,6.2,0,0,0,1.291,3.2,4.169,4.169,0,0,0,3.086,1.64,4.709,4.709,0,0,0,4.154-2.086c1.314-2.1,1.64-6.452.571-9.029-.726-1.777-2.354-3.429-4.269-3.469a4.726,4.726,0,0,0-4.629,3.594" transform="translate(-485.311 -202.352)" fill="#e0e0e0"/>
        <path id="Path_32565" data-name="Path 32565" d="M517.5,326.969a3.844,3.844,0,0,1,.469-1.229,4.814,4.814,0,0,1,.943-1.24,4.389,4.389,0,0,1,2.971-1.234,3.6,3.6,0,0,1,1.309.171,5.107,5.107,0,0,1,2.337,1.674,6.8,6.8,0,0,1,1.372,2.857,12.093,12.093,0,0,1,.251,3.389,9.321,9.321,0,0,1-1.457,4.932,4.387,4.387,0,0,1-1.9,1.429,5.085,5.085,0,0,1-2.143.36h0a3.245,3.245,0,0,1-1.543-.383,4.818,4.818,0,0,1-1.143-.806,5.679,5.679,0,0,1-1.263-1.88,5.476,5.476,0,0,1-.4-1.383,2.992,2.992,0,0,1-.034-.377.3.3,0,0,1,0-.132,7.488,7.488,0,0,0,.571,1.834,5.755,5.755,0,0,0,1.268,1.794,5.054,5.054,0,0,0,1.143.754,3.1,3.1,0,0,0,1.429.337h0a4.572,4.572,0,0,0,3.8-1.714,9.223,9.223,0,0,0,1.383-4.777,8.612,8.612,0,0,0-1.543-6.057,4.9,4.9,0,0,0-2.194-1.612,3.538,3.538,0,0,0-1.229-.177,4.384,4.384,0,0,0-1.143.166,4.213,4.213,0,0,0-1.714.966,5.07,5.07,0,0,0-.96,1.172A12.562,12.562,0,0,0,517.5,326.969Z" transform="translate(-485.296 -202.266)" fill="#263238"/>
        <path id="Path_32566" data-name="Path 32566" d="M518.973,328.613a2.937,2.937,0,0,0-3.069,1.766,5.1,5.1,0,0,0,0,3.732,4.72,4.72,0,0,0,.954,1.68,2.537,2.537,0,0,0,1.714.829,2.971,2.971,0,0,0,2.377-1.394,5.337,5.337,0,0,0,.806-4.383c-.263-.994-.989-2.006-2.011-2.034" transform="translate(-484.561 -204.55)" fill="#e0e0e0"/>
        <path id="Path_32567" data-name="Path 32567" d="M519.617,328.81h.223a1.556,1.556,0,0,1,.623.211,3.029,3.029,0,0,1,1.309,1.966,5.429,5.429,0,0,1-.354,3.5,4.57,4.57,0,0,1-1.28,1.68,2.486,2.486,0,0,1-2.206.531,3.12,3.12,0,0,1-1.766-1.44,6.448,6.448,0,0,1-.731-1.977,4.394,4.394,0,0,1,.571-3.429A3.07,3.07,0,0,1,518,328.582a2.215,2.215,0,0,1,.651,0c.143.029.217.051.217.063a4.513,4.513,0,0,0-.851.051,3.046,3.046,0,0,0-1.84,1.274,4.234,4.234,0,0,0-.474,3.274,6.285,6.285,0,0,0,.714,1.88,2.823,2.823,0,0,0,1.594,1.3,2.177,2.177,0,0,0,1.943-.469,4.3,4.3,0,0,0,1.211-1.566,5.28,5.28,0,0,0,.4-3.337,3.022,3.022,0,0,0-1.143-1.914A2.412,2.412,0,0,0,519.617,328.81Z" transform="translate(-484.456 -204.537)" fill="#263238"/>
        <path id="Path_32568" data-name="Path 32568" d="M524.33,343.98c-.04,0-.1-.183-.3-.411a2.1,2.1,0,0,0-.971-.623,5.292,5.292,0,0,0-1.2-.189c-.32,0-.52-.051-.526-.091s.194-.086.52-.12a3.348,3.348,0,0,1,1.292.114,1.869,1.869,0,0,1,1.057.789C524.381,343.746,524.364,343.974,524.33,343.98Z" transform="translate(-487.038 -210.523)" fill="#263238"/>
        <path id="Path_32569" data-name="Path 32569" d="M524.858,327.27a1.2,1.2,0,0,1-.354.411,2.748,2.748,0,0,1-1.206.526,2.812,2.812,0,0,1-1.309-.069c-.326-.109-.5-.234-.48-.269a6.763,6.763,0,0,0,1.714.046,7.14,7.14,0,0,0,1.634-.646Z" transform="translate(-487.114 -203.985)" fill="#263238"/>
      </g>
      <g id="freepik--character-1--inject-105" transform="translate(53.674 108.923)">
        <path id="Path_32570" data-name="Path 32570" d="M220.118,139.419c.069-2.491-2.229-4.412-4.572-5.326s-4.892-1.257-6.96-2.646c-1.829-1.234-3.057-3.154-4.606-4.72a15.332,15.332,0,0,0-25.784,7.034c-.886,3.543-.28,7.732,2.514,10.092,3.246,2.731,8.052,2.126,12.206,1.274s8.863-1.714,12.332.749c2.091,1.474,3.292,3.869,4.572,6.086s2.857,4.474,5.3,5.309,5.714-.606,5.8-3.16" transform="translate(-109.886 -122.164)" fill="#263238"/>
        <path id="Path_32571" data-name="Path 32571" d="M214.074,146.4c-.274,2.086,1.234,3.954,2.737,5.429s3.2,3.034,3.469,5.143c.309,2.44-1.474,4.84-.954,7.246.326,1.526,1.514,2.7,2.234,4.086A8.709,8.709,0,0,1,222,174.7c-.617,2.1-1.606,6.794-3.069,8.429a33.711,33.711,0,0,1-16.372,9.766,63.505,63.505,0,0,1-18.086.994c-4.949-.3-10.646-.074-14.772-6.886-2.137-3.532-3.194-8.217-4.326-12.183-.983-3.429-1.829-7.069-.811-10.475.571-1.977,1.789-3.743,2.371-5.714.731-2.48.463-5.143.754-7.7a17.663,17.663,0,0,1,25.143-13.949" transform="translate(-104.009 -127.78)" fill="#263238"/>
        <path id="Path_32572" data-name="Path 32572" d="M174.159,158.4c.463-7.1,5.189-15.812,12.269-15.046l22.092,5.634a4.177,4.177,0,0,1,3.72,4.234l-2.486,53.3.154.029S204.874,221.591,190.262,217c-2.9-.914-4.223-4.08-4.794-7.343h-.149v-1.143a34.989,34.989,0,0,1-.086-7.32h0c-.04-4.3-.034-6.063-.04-6.023s-9.075-1.531-10.926-13.377C173.324,175.95,173.644,166.292,174.159,158.4Z" transform="translate(-108.106 -131.225)" fill="#ffbe9d"/>
        <path id="Path_32573" data-name="Path 32573" d="M180.76,181.182a1.514,1.514,0,0,0,1.457,1.537,1.457,1.457,0,0,0,1.571-1.366,1.52,1.52,0,0,0-1.463-1.537,1.451,1.451,0,0,0-1.566,1.366Z" transform="translate(-111.147 -146.869)" fill="#263238"/>
        <path id="Path_32574" data-name="Path 32574" d="M178.151,177.328c.189.2,1.343-.651,2.977-.646s2.857.829,3.012.629c.086-.086-.109-.446-.629-.823a4.12,4.12,0,0,0-2.406-.749,4,4,0,0,0-2.371.754C178.231,176.883,178.054,177.237,178.151,177.328Z" transform="translate(-110.018 -145.124)" fill="#263238"/>
        <path id="Path_32575" data-name="Path 32575" d="M208.87,181.182a1.52,1.52,0,0,0,1.463,1.537,1.452,1.452,0,0,0,1.566-1.366,1.514,1.514,0,0,0-1.457-1.537,1.451,1.451,0,0,0-1.571,1.366Z" transform="translate(-123.194 -146.869)" fill="#263238"/>
        <path id="Path_32576" data-name="Path 32576" d="M206.272,177.919c.189.2,1.343-.646,2.977-.64s2.829.829,3.006.629c.086-.091-.1-.446-.629-.829a4.189,4.189,0,0,0-2.406-.749,4,4,0,0,0-2.366.76C206.352,177.473,206.181,177.856,206.272,177.919Z" transform="translate(-122.07 -145.377)" fill="#263238"/>
        <path id="Path_32577" data-name="Path 32577" d="M192.771,190.091a11.135,11.135,0,0,0-2.651-.486c-.417-.04-.811-.126-.886-.411a2.114,2.114,0,0,1,.286-1.234l1.24-3.177c1.714-4.52,2.971-8.24,2.789-8.3s-1.714,3.537-3.429,8.063q-.629,1.669-1.189,3.194a2.4,2.4,0,0,0-.223,1.634,1.051,1.051,0,0,0,.686.611,2.9,2.9,0,0,0,.709.1A10.192,10.192,0,0,0,192.771,190.091Z" transform="translate(-114.529 -145.441)" fill="#263238"/>
        <path id="Path_32578" data-name="Path 32578" d="M193.81,231a30.1,30.1,0,0,0,15.869-4.2s-4,8.189-15.858,7.057Z" transform="translate(-116.74 -167.006)" fill="#eb996e"/>
        <path id="Path_32579" data-name="Path 32579" d="M196.938,206.37a2.932,2.932,0,0,1,2.64-1.086,2.674,2.674,0,0,1,1.857,1,1.714,1.714,0,0,1,.12,1.943,1.954,1.954,0,0,1-2.143.537,6.212,6.212,0,0,1-2.086-1.251,1.679,1.679,0,0,1-.463-.48.571.571,0,0,1,0-.611" transform="translate(-118.01 -157.777)" fill="#eb996e"/>
        <path id="Path_32580" data-name="Path 32580" d="M200.353,202.3c-.263,0-.269,1.76-1.794,3.012s-3.429,1.057-3.429,1.309c0,.109.423.343,1.217.366A4.406,4.406,0,0,0,199.2,206a3.846,3.846,0,0,0,1.389-2.526C200.673,202.728,200.479,202.288,200.353,202.3Z" transform="translate(-117.305 -156.507)" fill="#263238"/>
        <path id="Path_32581" data-name="Path 32581" d="M204.995,173.186c.16.446,1.794.24,3.709.474s3.469.76,3.726.366c.114-.189-.154-.611-.783-1.04a6.1,6.1,0,0,0-2.754-.971,6.206,6.206,0,0,0-2.9.331C205.286,172.631,204.932,172.974,204.995,173.186Z" transform="translate(-121.53 -143.507)" fill="#263238"/>
        <path id="Path_32582" data-name="Path 32582" d="M179.206,168.993c.291.371,1.417,0,2.772,0s2.5.251,2.766-.131c.114-.189-.069-.571-.571-.914a4,4,0,0,0-4.457.126C179.24,168.433,179.069,168.816,179.206,168.993Z" transform="translate(-110.461 -141.52)" fill="#263238"/>
        <path id="Path_32583" data-name="Path 32583" d="M224.307,186.063A10.515,10.515,0,0,1,211.8,174.434c.366-2.909,1.937-5.869.926-8.623-1.331-3.64-6.434-4.76-7.789-8.395-.789-2.109-.08-4.572-.971-6.646-.84-1.949-2.886-3.069-4.88-3.789s-4.126-1.217-5.8-2.514-2.714-3.754-1.634-5.577a112,112,0,0,1,25.875,6.286c1.937.72,3.966,1.589,5.109,3.309,1.211,1.817,1.143,4.166,1.051,6.349l-1.491,31.9" transform="translate(-115.624 -129.332)" fill="#263238"/>
        <path id="Path_32584" data-name="Path 32584" d="M222.995,185.619a1.356,1.356,0,0,0,.194-.12l.526-.4c.457-.36,1.143-.891,1.96-1.629a20.24,20.24,0,0,0,2.783-2.926,10.926,10.926,0,0,0,2.217-4.88,7.429,7.429,0,0,0-1.526-6.229,23.789,23.789,0,0,0-2.76-2.354,6.406,6.406,0,0,1-2.154-2.926c-.874-2.412-.486-5.206-.823-8.063a16.034,16.034,0,0,0-3.36-8.16,11.023,11.023,0,0,0-3.509-2.857,21.434,21.434,0,0,0-4.143-1.394,9.663,9.663,0,0,1-3.64-1.794,14.434,14.434,0,0,1-2.64-2.909c-1.486-2.114-2.589-4.366-4-6.246a13.389,13.389,0,0,0-2.332-2.474,8.944,8.944,0,0,0-2.766-1.509,5.909,5.909,0,0,0-5.263.526,4.851,4.851,0,0,0-1.869,3.543,3.554,3.554,0,0,0,.714,2.44,2.286,2.286,0,0,0,.48.463.823.823,0,0,0,.194.126,1.294,1.294,0,0,0-.16-.166,2.624,2.624,0,0,1-.429-.486,3.486,3.486,0,0,1-.571-2.36,4.646,4.646,0,0,1,1.834-3.326,5.6,5.6,0,0,1,4.972-.411,8.572,8.572,0,0,1,2.634,1.469,13.63,13.63,0,0,1,2.24,2.423c1.371,1.846,2.451,4.1,3.96,6.286a14.7,14.7,0,0,0,2.72,3.023,10.029,10.029,0,0,0,3.754,1.857,21.006,21.006,0,0,1,4.052,1.371,10.566,10.566,0,0,1,3.349,2.743,15.538,15.538,0,0,1,3.269,7.886c.349,2.76-.051,5.6.88,8.166a6.932,6.932,0,0,0,2.286,3.126,24.178,24.178,0,0,1,2.726,2.286,7.046,7.046,0,0,1,1.486,5.886,10.7,10.7,0,0,1-2.08,4.76,21.9,21.9,0,0,1-2.692,2.954c-.806.754-1.457,1.309-1.891,1.714A6.9,6.9,0,0,0,222.995,185.619Z" transform="translate(-115.055 -124.82)" fill="#455a64"/>
        <path id="Path_32585" data-name="Path 32585" d="M246.8,230.366c2.434-2.354,6.589-.309,8.635,2.389s3.491,6.183,6.594,7.543,7.132.189,9.715,2.349c3.589,2.983,1.572,9.892,5.457,12.486,1.537,1.029,3.572.994,5.217,1.84,3.88,2,3.834,7.474,3.234,11.8-.817,6.086-1.743,12.372-5.092,17.515s-9.869,8.737-15.663,6.76c-5.572-1.9-8.434-7.915-10.7-13.349q-4.7-11.3-9.406-22.555c-1.811-4.349-3.646-8.766-4.234-13.44s.2-9.715,3.177-13.383" transform="translate(-136.694 -168.092)" fill="#263238"/>
        <path id="Path_32586" data-name="Path 32586" d="M249.507,222.039c1.766-.211,3.12,1.954,2.651,3.674a5.545,5.545,0,0,1-3.8,3.429,5.669,5.669,0,0,1-2.931.337,2.857,2.857,0,0,1-2.223-1.789,1.68,1.68,0,0,1,.811-2.223c1.143-.726,1.846-1.3,2.766-1.806,1.406-.771,1.32-.874,2.726-1.651" transform="translate(-137.842 -164.954)" fill="#ff725e"/>
        <path id="Path_32587" data-name="Path 32587" d="M180.047,250.263l6.869-5.206,25.892-1.657,1.04,3.474-8.423,52.55,6.646,62.7H175.95Z" transform="translate(-109.085 -174.121)" fill="#ff725e"/>
        <g id="Group_23955" data-name="Group 23955" transform="translate(68.47 162.39)" opacity="0.3">
          <path id="Path_32588" data-name="Path 32588" d="M208.972,409.711c-.829-.886-2.183-2.1-3.389-2.126-8.652-.189-17.48-1.051-26.132-1.246l-.691,25.624c2.069-3.646,4.029-7.429,4.572-11.6.24-1.817.571-4,2.2-4.766a4.919,4.919,0,0,1,3.052-.063,72.416,72.416,0,0,0,9.406,1.623,15.074,15.074,0,0,0,9.177-2.006,5.628,5.628,0,0,0,2.194-2.371,2.909,2.909,0,0,0-.389-3.069Z" transform="translate(-178.76 -406.34)"/>
        </g>
        <path id="Path_32589" data-name="Path 32589" d="M192.187,248.045l-.806-7.514a2.389,2.389,0,0,1,2.16-2.629l23.829-2.154a1.143,1.143,0,0,1,1.229,1.086l.269,8.943-6.9,11.709-7.092,2.257H196.2l-4.989-5.326Z" transform="translate(-115.625 -170.84)" fill="#ff725e"/>
        <path id="Path_32590" data-name="Path 32590" d="M215.651,248.022a8.106,8.106,0,0,1-.954-.1,17.148,17.148,0,0,0-2.594-.046,25.144,25.144,0,0,0-3.817.571c-1.423.3-2.971.714-4.612,1.114a30.011,30.011,0,0,1-4.692.834,12.131,12.131,0,0,1-3.892-.263,8.074,8.074,0,0,1-2.423-1.006,5.715,5.715,0,0,1-.571-.423c-.126-.1-.189-.166-.177-.171s.28.189.817.491a8.863,8.863,0,0,0,2.417.9,12.315,12.315,0,0,0,3.817.194,31.539,31.539,0,0,0,4.646-.851c1.634-.394,3.189-.806,4.623-1.091a23.017,23.017,0,0,1,3.863-.491,13.84,13.84,0,0,1,2.623.137q.463.08.7.137C215.571,247.988,215.657,248.011,215.651,248.022Z" transform="translate(-115.929 -175.954)" fill="#263238"/>
        <g id="Group_23956" data-name="Group 23956" transform="translate(76.702 71.849)" opacity="0.3">
          <path id="Path_32591" data-name="Path 32591" d="M193.591,249.3c-.64,1.754-.657,3.926.64,5.269a4.642,4.642,0,0,0,4.24,1.074,13.376,13.376,0,0,0,4.143-1.863c3.28-1.949,6.617-3.972,10.343-4.8a1.32,1.32,0,0,0,.669-.28.44.44,0,0,0,0-.646.623.623,0,0,0-.309-.086c-3.3-.331-6.572.571-9.8,1.326s-6.686,1.24-9.8.114" transform="translate(-193.165 -247.897)"/>
        </g>
        <path id="Path_32592" data-name="Path 32592" d="M200.793,239.093a2.188,2.188,0,0,0-.817.777,5.51,5.51,0,0,0-.326,2.743c.063,2.223.429,4,.343,4a3.884,3.884,0,0,1-.326-1.143,18,18,0,0,1-.314-2.857,13.2,13.2,0,0,1,.034-1.594,2.754,2.754,0,0,1,.411-1.263,1.651,1.651,0,0,1,.669-.6C200.667,239.076,200.787,239.076,200.793,239.093Z" transform="translate(-119.111 -172.271)" fill="#263238"/>
        <path id="Path_32593" data-name="Path 32593" d="M212.131,245.147a34.549,34.549,0,0,0-.171-3.634c-.274-1.994-.937-3.509-.846-3.543a3.131,3.131,0,0,1,.486.966,11.811,11.811,0,0,1,.657,2.531,11.589,11.589,0,0,1,.074,2.617A3.2,3.2,0,0,1,212.131,245.147Z" transform="translate(-124.151 -171.793)" fill="#263238"/>
        <path id="Path_32594" data-name="Path 32594" d="M226,236.86a2.349,2.349,0,0,1,.451.886,6.251,6.251,0,0,1,.314,2.383,6.154,6.154,0,0,1-.629,2.326,2.286,2.286,0,0,1-.571.817A7.886,7.886,0,0,0,226,236.86Z" transform="translate(-130.351 -171.318)" fill="#263238"/>
        <path id="Path_32595" data-name="Path 32595" d="M149.383,261.33s-8.126,5.44-10.286,15.269c-1.68,7.726-6.286,48.538-6.286,48.538l-8.052,15.669,5.257,12.5h0a19.223,19.223,0,0,0,12.629-3.606l3.537-2.571,6.486-9.617Z" transform="translate(-87.148 -181.805)" fill="#ebebeb"/>
        <path id="Path_32596" data-name="Path 32596" d="M173.925,248.71l-13.772,7.212L156.9,266.6,154,297.568l5.452,36.3L149.89,364.29l16.5.12.394-17.829,1.646-57.716,1.617-36.767Z" transform="translate(-97.917 -176.396)" fill="#ebebeb"/>
        <path id="Path_32597" data-name="Path 32597" d="M176.662,299.23a3.154,3.154,0,0,1-.257-.434l-.686-1.263c-.286-.571-.571-1.269-.92-2.08-.166-.411-.309-.863-.474-1.337s-.349-.977-.491-1.514a57.042,57.042,0,0,1-1.971-17.269c0-.526.04-1.046.074-1.566v-.091l.086-.034,2.411-1.017-.034.251-2.411-1.937-.051-.04v-.057a20.841,20.841,0,0,1,1.1-6.886c.606-2.017,1.269-3.754,1.851-5.183s1.091-2.543,1.451-3.3c.183-.383.326-.674.423-.863a1.968,1.968,0,0,1,.166-.291,1.389,1.389,0,0,1-.12.309l-.383.886c-.331.766-.811,1.891-1.371,3.326s-1.2,3.172-1.783,5.183a20.908,20.908,0,0,0-1.046,6.794l-.057-.1,2.417,1.926.189.154-.223.1-2.411,1.017.091-.126c-.034.509-.057,1.029-.074,1.554a58.975,58.975,0,0,0,1.88,17.195c.131.543.309,1.04.463,1.514s.291.931.457,1.343c.337.811.571,1.526.869,2.086l.629,1.286A3.776,3.776,0,0,1,176.662,299.23Z" transform="translate(-107.323 -178.8)" fill="#263238"/>
        <path id="Path_32598" data-name="Path 32598" d="M159.222,336.728a4.263,4.263,0,0,1-.131-.446q-.12-.486-.326-1.3c-.143-.571-.3-1.257-.463-2.063s-.371-1.714-.531-2.76-.377-2.149-.531-3.36-.309-2.514-.451-3.88c-.251-2.743-.417-5.766-.417-8.943s.189-6.2.446-8.937c.154-1.366.286-2.669.474-3.88s.354-2.337.537-3.36.377-1.943.571-2.754.331-1.5.474-2.063.246-.977.331-1.3a3.279,3.279,0,0,1,.131-.451,2.635,2.635,0,0,1-.074.463L158.987,293c-.126.571-.28,1.263-.423,2.074s-.349,1.714-.5,2.76-.354,2.143-.5,3.354-.3,2.509-.446,3.869c-.24,2.737-.411,5.749-.423,8.92s.16,6.177.389,8.914c.143,1.36.257,2.663.429,3.869s.326,2.337.491,3.36.343,1.949.486,2.76.291,1.509.417,2.074.206.983.269,1.309A2.182,2.182,0,0,1,159.222,336.728Z" transform="translate(-100.694 -194.618)" fill="#263238"/>
        <path id="Path_32599" data-name="Path 32599" d="M162.939,419.63a5.888,5.888,0,0,1-.669,1.389,22.462,22.462,0,0,1-2.109,3.057,22.129,22.129,0,0,1-2.583,2.669,6.194,6.194,0,0,1-1.229.931,11,11,0,0,1,1.086-1.086,33.314,33.314,0,0,0,2.5-2.7,32.885,32.885,0,0,0,2.16-2.977A11.035,11.035,0,0,1,162.939,419.63Z" transform="translate(-100.686 -249.645)" fill="#263238"/>
        <path id="Path_32600" data-name="Path 32600" d="M249.985,259.137a18.955,18.955,0,0,1,11.623,13.486c4.509,19.863,12.217,46.287,12.343,54.818.149,10.857-4.572,18.286-10.794,19.658-4.9,1.086-49.327-1.349-49.327-1.349l-2.08-16.572,36-5.3-4.926-27.475L247.7,258.28Z" transform="translate(-124.428 -180.497)" fill="#ebebeb"/>
        <path id="Path_32601" data-name="Path 32601" d="M253.678,250.572l-9.949-4.063-10.486-6.149-.063,1.8h0a10.549,10.549,0,0,1,1.263,7.292L225.7,294.973l1.977,33.264,4.063,32.572h31.549L248.8,326.722l5.114-45.938Z" transform="translate(-130.406 -172.818)" fill="#ebebeb"/>
        <path id="Path_32602" data-name="Path 32602" d="M256.84,396.346l-.217.029-.634.063c-.571.057-1.389.051-2.463.08-2.137,0-5.246-.046-9.115-.171-7.732-.257-18.492-.777-30.646-1.48h-.12v-.126c-.246-1.971-.509-4.052-.771-6.16-.451-3.572-.886-7.057-1.3-10.389v-.143h.137l27.475-4,8.069-1.143,2.166-.291.571-.074h.194l-.189.04-.571.1-2.16.343-8.052,1.229-27.429,4.1.12-.166c.423,3.337.863,6.817,1.309,10.389.269,2.114.526,4.194.771,6.166l-.137-.126c12.149.709,22.915,1.263,30.641,1.577,3.863.149,6.966.234,9.1.263,1.069,0,1.9,0,2.457-.034l.634-.034Z" transform="translate(-124.351 -229.464)" fill="#263238"/>
        <path id="Path_32603" data-name="Path 32603" d="M265.6,320.08a1.177,1.177,0,0,1,.08.309c.046.234.1.52.171.88.149.806.349,1.909.571,3.251.486,2.789,1.143,6.566,1.874,10.743s1.326,7.966,1.794,10.76c.211,1.349.383,2.452.509,3.263.051.36.091.657.126.891a1.308,1.308,0,0,1,0,.314,1.092,1.092,0,0,1-.086-.3c-.046-.234-.1-.526-.177-.88-.149-.811-.354-1.909-.606-3.252-.5-2.749-1.143-6.543-1.874-10.743s-1.349-8-1.789-10.76c-.206-1.349-.377-2.457-.5-3.269q-.069-.537-.12-.891A1.441,1.441,0,0,1,265.6,320.08Z" transform="translate(-147.493 -206.982)" fill="#263238"/>
        <path id="Path_32604" data-name="Path 32604" d="M238.557,246a.275.275,0,0,0,.04.114l.091.331c.074.3.2.726.32,1.3a41.55,41.55,0,0,1,.754,4.9,54.8,54.8,0,0,1,.189,7.474c-.1,2.857-.394,5.983-.823,9.315v.1h-.1l-3.274.606.109-.2c.189.5.377,1.04.526,1.594a20.258,20.258,0,0,1-.371,11.035A34.55,34.55,0,0,1,232.2,290.8c-1.36,2.206-2.583,3.9-3.429,5.069l-.989,1.337c-.1.143-.194.251-.263.343a.464.464,0,0,1-.1.114s0-.046.074-.131l.24-.36c.229-.331.571-.789.937-1.371.817-1.189,2.017-2.9,3.343-5.109a35.268,35.268,0,0,0,3.737-8.195,20.035,20.035,0,0,0,.349-10.857,16.2,16.2,0,0,0-.514-1.566l-.063-.166.177-.034,3.251-.6-.12.126c.434-3.32.749-6.452.857-9.286a57.434,57.434,0,0,0-.12-7.429,45.576,45.576,0,0,0-.669-4.9c-.1-.571-.217-1.006-.269-1.3-.029-.137-.051-.246-.069-.337A.378.378,0,0,1,238.557,246Z" transform="translate(-131.143 -175.235)" fill="#263238"/>
        <path id="Path_32605" data-name="Path 32605" d="M244.881,321.154V313.9s.091-1.789-1.417-1.411-1.229,3.206-1.229,3.206-.28,11.035.377,10.943.914-.943.914-.943v-4.246Z" transform="translate(-137.467 -203.708)" fill="#ff725e"/>
        <path id="Path_32606" data-name="Path 32606" d="M252.053,328.355a51.038,51.038,0,0,1-7.783,0,51.038,51.038,0,0,1,7.783,0Z" transform="translate(-138.365 -210.457)" fill="#263238"/>
        <path id="Path_32607" data-name="Path 32607" d="M274.4,267.32a5.37,5.37,0,0,1-.811.3,18.325,18.325,0,0,0-2.16.932,16.794,16.794,0,0,0-5.84,4.977,12.468,12.468,0,0,0-1.143,1.869,12.12,12.12,0,0,0-.686,1.92,18.924,18.924,0,0,0-.571,3.429c-.08.989-.1,1.8-.1,2.354a7.378,7.378,0,0,1,0,.869,3.5,3.5,0,0,1-.114-.834,20.854,20.854,0,0,1,0-2.371,17.657,17.657,0,0,1,.52-3.486,12,12,0,0,1,.691-1.977,12.689,12.689,0,0,1,1.171-1.92,16.137,16.137,0,0,1,5.989-4.989,14.913,14.913,0,0,1,2.211-.857A4.283,4.283,0,0,1,274.4,267.32Z" transform="translate(-146.366 -184.372)" fill="#263238"/>
        <path id="Path_32608" data-name="Path 32608" d="M58.94,372.99l51.973,19.246,43.813,6.7-52.093-25.395Z" transform="translate(-58.94 -229.657)" fill="#263238"/>
        <path id="Path_32609" data-name="Path 32609" d="M95.189,400.817a22.121,22.121,0,0,0-2.777-7.875,5.714,5.714,0,0,1-.709-1.48,1.68,1.68,0,0,1,.291-1.549c.669-.726,1.886-.406,2.709.143a9.52,9.52,0,0,1,3.5,4.9,28.458,28.458,0,0,1,1.143,6.006" transform="translate(-72.948 -236.729)" fill="#ffbe9d"/>
        <path id="Path_32610" data-name="Path 32610" d="M116.458,393.741h-2.583a5.063,5.063,0,0,0-2.286-1.3,1.794,1.794,0,0,0-1.714.669c1.143-1.9,2.4-4,2.64-4.572.463-1.114-.571-1.949-2.234-1.949S101.257,397,101.257,397s4.572-8.383,5.012-9.663c1.109-3.2-2.394-3.429-3.663-1.891C101.029,387.363,94.657,397,94.657,397a4.489,4.489,0,0,0-.377,3.812c.834,1.857,3.257,1.143,3.257,1.143a3.12,3.12,0,0,0,1.714,2.583c1.863,1.04,4.32-.166,4.32-.166l9.526,2.137,3.429-.343a10.56,10.56,0,0,0,9.395-8.96h0Z" transform="translate(-73.96 -234.602)" fill="#ffbe9d"/>
        <path id="Path_32611" data-name="Path 32611" d="M117.669,399.28a29.643,29.643,0,0,1-2.8,4.446c-.823,1.194-1.583,2.286-2.149,3.029a7.579,7.579,0,0,1-.96,1.2,7.754,7.754,0,0,1,.789-1.32c.52-.794,1.251-1.886,2.074-3.08s1.577-2.286,2.126-3.04l.663-.909A2.326,2.326,0,0,1,117.669,399.28Z" transform="translate(-81.576 -240.924)" fill="#eb996e"/>
        <path id="Path_32612" data-name="Path 32612" d="M121.1,409.993a9.406,9.406,0,0,1,.846-1.554c.571-.937,1.36-2.211,2.24-3.629.44-.7.863-1.377,1.206-2a2.314,2.314,0,0,0,.211-1.766,4.388,4.388,0,0,0-.811-1.514,1.533,1.533,0,0,1,.366.309,2.96,2.96,0,0,1,.646,1.143,2.474,2.474,0,0,1-.166,1.949c-.343.646-.76,1.326-1.194,2.034-.886,1.417-1.714,2.674-2.32,3.583a12.493,12.493,0,0,1-1.023,1.446Z" transform="translate(-85.579 -241.031)" fill="#eb996e"/>
        <path id="Path_32613" data-name="Path 32613" d="M128.937,413.723a5.325,5.325,0,0,1,.509-1.48l.68-1.554a12.713,12.713,0,0,0,.7-1.914,2.252,2.252,0,0,0-.3-1.857,1.755,1.755,0,0,0-.68-.486,1.88,1.88,0,0,0-.709-.2,2.857,2.857,0,0,0-1.023.36,1.218,1.218,0,0,1-.389.16,2.615,2.615,0,0,1,.331-.263,4.678,4.678,0,0,1,.429-.257,1.679,1.679,0,0,1,.651-.211,2.109,2.109,0,0,1,.811.183,1.932,1.932,0,0,1,.789.537,2.452,2.452,0,0,1,.377,2.1,10.939,10.939,0,0,1-.737,1.966c-.269.571-.526,1.091-.737,1.526A14.713,14.713,0,0,1,128.937,413.723Z" transform="translate(-88.416 -243.813)" fill="#eb996e"/>
        <path id="Path_32614" data-name="Path 32614" d="M132.92,403.76a1.017,1.017,0,0,1,.4.12,4.672,4.672,0,0,1,.994.571,5.417,5.417,0,0,1,1.537,6.892,4.661,4.661,0,0,1-.646.954c-.183.2-.3.291-.314.28a8.326,8.326,0,0,0,.771-1.326,5.509,5.509,0,0,0-1.48-6.634A13.746,13.746,0,0,0,132.92,403.76Z" transform="translate(-90.645 -242.844)" fill="#eb996e"/>
        <path id="Path_32615" data-name="Path 32615" d="M100.209,394.19a27.911,27.911,0,0,1-2.154,3.429,27.426,27.426,0,0,1-2.394,3.32,27.425,27.425,0,0,1,2.149-3.429,27.808,27.808,0,0,1,2.4-3.32Z" transform="translate(-74.677 -238.743)" fill="#eb996e"/>
        <path id="Path_32616" data-name="Path 32616" d="M185.365,377.173l-5.943-1.343-5.714-5.377a4.086,4.086,0,0,0-2.549-1.1l-10.383-.571a4.034,4.034,0,0,0-2.857.949l-7.429,6.286L182.9,391.762l4.446.394Z" transform="translate(-98.174 -227.852)" fill="#ffbe9d"/>
        <path id="Path_32617" data-name="Path 32617" d="M171.333,378.165c0,.046-.766-.091-2-.251a8.386,8.386,0,0,0-4.7.491,12.139,12.139,0,0,0-2.24,1.4c-.657.491-1.246.949-1.766,1.3a9.4,9.4,0,0,1-1.286.749,1.852,1.852,0,0,1-.509.189c0-.046.68-.36,1.674-1.109.5-.366,1.069-.84,1.714-1.349a11.787,11.787,0,0,1,2.286-1.451,6.724,6.724,0,0,1,2.651-.571,11.815,11.815,0,0,1,2.2.171,13.779,13.779,0,0,1,1.451.3,1.592,1.592,0,0,1,.526.137Z" transform="translate(-101.749 -231.615)" fill="#eb996e"/>
        <path id="Path_32618" data-name="Path 32618" d="M178.989,388.379c0,.046-.423-.143-1.143-.211a5.913,5.913,0,0,0-2.669.371,13.717,13.717,0,0,0-2.446,1.251,5.106,5.106,0,0,1-1.011.571,4.167,4.167,0,0,1,.891-.743,10.549,10.549,0,0,1,2.463-1.354,5.463,5.463,0,0,1,2.8-.3,2.12,2.12,0,0,1,1.114.417Z" transform="translate(-107.273 -236.046)" fill="#eb996e"/>
        <path id="Path_32619" data-name="Path 32619" d="M204.828,386.4c-.074.046-.909-1.2-2.011-2.674a32.555,32.555,0,0,1-1.989-2.691,13.344,13.344,0,0,1,2.223,2.514A13.109,13.109,0,0,1,204.828,386.4Z" transform="translate(-119.746 -233.103)" fill="#eb996e"/>
        <path id="Path_32620" data-name="Path 32620" d="M176.223,358.993l13.143-12.257a1.257,1.257,0,0,0-.091-1.92h0a1.257,1.257,0,0,0-1.606.063l-15.429,13.84" transform="translate(-107.496 -217.472)" fill="#ff725e"/>
        <g id="Group_23957" data-name="Group 23957" transform="translate(64.744 127.084)" opacity="0.3">
          <path id="Path_32621" data-name="Path 32621" d="M176.223,358.993l13.143-12.257a1.257,1.257,0,0,0-.091-1.92h0a1.257,1.257,0,0,0-1.606.063l-15.429,13.84" transform="translate(-172.24 -344.556)"/>
        </g>
      </g>
      <g id="freepik--character-2--inject-105" transform="translate(181.929 83.504)">
        <path id="Path_32622" data-name="Path 32622" d="M361.652,162.854c-.206-.08-8.177-2.171-7.7,5.892s8.475,5.914,8.48,5.68S361.652,162.854,361.652,162.854Z" transform="translate(-313.617 -134.054)" fill="#b78876"/>
        <path id="Path_32623" data-name="Path 32623" d="M361.318,173.551c-.04-.029-.137.1-.366.229a1.394,1.394,0,0,1-1.051.08c-.869-.257-1.669-1.566-1.794-3.017a4.708,4.708,0,0,1,.251-2.006,1.623,1.623,0,0,1,.994-1.143.714.714,0,0,1,.851.337c.12.217.08.383.12.394s.166-.149.08-.474a.869.869,0,0,0-.349-.486,1.04,1.04,0,0,0-.789-.16,1.971,1.971,0,0,0-1.389,1.337,4.7,4.7,0,0,0-.354,2.286c.149,1.623,1.074,3.092,2.257,3.36a1.509,1.509,0,0,0,1.274-.291C361.313,173.745,361.347,173.562,361.318,173.551Z" transform="translate(-315.147 -136.082)" fill="#aa6550"/>
        <path id="Path_32624" data-name="Path 32624" d="M402.66,112.69c4.1,0,8.269,0,13.395,2.68,3.234,1.714,5.246,4.36,6.932,7.594a17.487,17.487,0,0,1,1.909,8.509c-.149,2.789-.16,4.737-1.274,7.3" transform="translate(-334.499 -112.685)" fill="#263238"/>
        <path id="Path_32625" data-name="Path 32625" d="M384.637,113.759A21.715,21.715,0,0,1,407.866,134.3c.526,10.1.989,21.018.88,26.515-.24,11.806-12.063,13.549-12.063,13.549s.263,3.5.572,7.84a15.555,15.555,0,0,1-14.926,16.572h0a15.543,15.543,0,0,1-16.126-14.96l-1.754-47.578a21.715,21.715,0,0,1,20.206-22.486Z" transform="translate(-318.116 -113.12)" fill="#b78876"/>
        <path id="Path_32626" data-name="Path 32626" d="M409.513,216.349a28.065,28.065,0,0,1-15.143-4.669s3.572,8.572,15.355,7.623Z" transform="translate(-330.946 -155.108)" fill="#aa6550"/>
        <path id="Path_32627" data-name="Path 32627" d="M430.009,160.079a1.68,1.68,0,0,1-1.634,1.714,1.606,1.606,0,0,1-1.714-1.531,1.714,1.714,0,0,1,1.634-1.714,1.611,1.611,0,0,1,1.714,1.531Z" transform="translate(-344.785 -132.336)" fill="#263238"/>
        <path id="Path_32628" data-name="Path 32628" d="M430.393,155.7c-.211.217-1.48-.737-3.3-.749s-3.149.891-3.343.669c-.1-.1.12-.5.7-.914a4.572,4.572,0,0,1,2.68-.8,4.389,4.389,0,0,1,2.617.869C430.308,155.206,430.5,155.606,430.393,155.7Z" transform="translate(-343.529 -130.35)" fill="#263238"/>
        <path id="Path_32629" data-name="Path 32629" d="M398.874,160.079a1.68,1.68,0,0,1-1.64,1.714,1.611,1.611,0,0,1-1.714-1.531,1.714,1.714,0,0,1,1.64-1.714,1.617,1.617,0,0,1,1.714,1.531Z" transform="translate(-331.439 -132.336)" fill="#263238"/>
        <path id="Path_32630" data-name="Path 32630" d="M399.181,156.05c-.211.217-1.486-.737-3.3-.749s-3.149.886-3.349.663c-.091-.1.12-.5.709-.914a4.623,4.623,0,0,1,2.68-.8,4.469,4.469,0,0,1,2.617.869C399.078,155.552,399.283,155.947,399.181,156.05Z" transform="translate(-330.151 -130.495)" fill="#263238"/>
        <path id="Path_32631" data-name="Path 32631" d="M414.963,169.66a12.652,12.652,0,0,1,2.949-.509c.463-.046.9-.131.983-.446a2.32,2.32,0,0,0-.3-1.377c-.423-1.143-.874-2.286-1.343-3.537-1.863-5.04-3.206-9.177-3-9.252s1.88,3.949,3.737,8.989c.451,1.24.88,2.423,1.286,3.56a2.68,2.68,0,0,1,.229,1.817,1.194,1.194,0,0,1-.771.674,3.515,3.515,0,0,1-.783.1A10.223,10.223,0,0,1,414.963,169.66Z" transform="translate(-339.459 -130.619)" fill="#263238"/>
        <path id="Path_32632" data-name="Path 32632" d="M405.922,183.15c.3,0,.28,1.954,1.954,3.366s3.777,1.211,3.789,1.486c0,.126-.474.383-1.36.4a4.914,4.914,0,0,1-3.16-1.143,4.3,4.3,0,0,1-1.514-2.823C405.562,183.636,405.785,183.138,405.922,183.15Z" transform="translate(-335.767 -142.881)" fill="#263238"/>
        <path id="Path_32633" data-name="Path 32633" d="M398.878,143.966c-.183.491-1.989.246-4.12.486s-3.857.806-4.137.36c-.12-.211.183-.674.88-1.143a7.217,7.217,0,0,1,6.286-.64C398.569,143.32,398.958,143.709,398.878,143.966Z" transform="translate(-329.329 -125.498)" fill="#263238"/>
        <path id="Path_32634" data-name="Path 32634" d="M430.31,144.321c-.32.411-1.566-.029-3.069-.057s-2.777.251-3.069-.183c-.126-.211.074-.623.634-1.006a4.44,4.44,0,0,1,4.949.194C430.282,143.7,430.453,144.12,430.31,144.321Z" transform="translate(-343.703 -125.424)" fill="#263238"/>
        <path id="Path_32635" data-name="Path 32635" d="M364.339,139.493s.514,2.732.651,3.96c.051.451,0,5.452,1.206,5.714,1.046.217,3.12-.737,4.046-2.806s2.686-7.034,2.491-9.292a32.661,32.661,0,0,1,.217-9.234,13.3,13.3,0,0,1,4.491-7.886,8.4,8.4,0,0,1,8.709-1.183c1.714.857,2.977,2.371,4.572,3.429a7.092,7.092,0,0,0,4.869,1.263,4.571,4.571,0,0,0,3.766-3.086,4.987,4.987,0,0,0-1.869-4.966,11.412,11.412,0,0,0-5.143-2.109,27.652,27.652,0,0,0-15.326,1.074,19.946,19.946,0,0,0-11.2,10.252c-2.389,5.5-2.114,8.88-1.48,14.858" transform="translate(-317.887 -112.681)" fill="#263238"/>
        <path id="Path_32636" data-name="Path 32636" d="M399.757,155.25a13.859,13.859,0,0,0-.309-1.943,8,8,0,0,0-2.92-4.349A7.851,7.851,0,0,0,393.2,147.5a7.96,7.96,0,0,0-4.149.349,7.338,7.338,0,0,0-1.989,1.08,7.252,7.252,0,0,0-1.669,1.674,7.863,7.863,0,0,0,0,9.309,7.48,7.48,0,0,0,1.669,1.674,7.314,7.314,0,0,0,1.989,1.074,7.966,7.966,0,0,0,4.149.354,7.828,7.828,0,0,0,3.331-1.469,8,8,0,0,0,2.926-4.343,14.254,14.254,0,0,0,.3-1.949.342.342,0,0,1,0,.131v.383a3.281,3.281,0,0,1-.051.623,5.287,5.287,0,0,1-.149.834,8,8,0,0,1-2.909,4.492,8.1,8.1,0,0,1-7.7,1.2,7.543,7.543,0,0,1-2.069-1.1,7.658,7.658,0,0,1-1.714-1.714,8.132,8.132,0,0,1,0-9.657,8.1,8.1,0,0,1,8.08-3.194,8.071,8.071,0,0,1,6.337,6.029,5.341,5.341,0,0,1,.149.84,3.224,3.224,0,0,1,.051.617v.383A.557.557,0,0,1,399.757,155.25Z" transform="translate(-326.322 -127.433)" fill="#263238"/>
        <path id="Path_32637" data-name="Path 32637" d="M436.1,155.246a15.055,15.055,0,0,0-.309-1.943,8,8,0,0,0-2.926-4.349,7.823,7.823,0,0,0-3.332-1.463,7.882,7.882,0,0,0-7.8,3.1,7.84,7.84,0,0,0,0,9.309,7.457,7.457,0,0,0,1.663,1.674,7.263,7.263,0,0,0,1.994,1.074,7.943,7.943,0,0,0,4.143.354,7.829,7.829,0,0,0,3.332-1.469,8,8,0,0,0,2.926-4.343,15.029,15.029,0,0,0,.309-1.949,1.18,1.18,0,0,1,0,.131v.383a3.746,3.746,0,0,1-.046.623,5.356,5.356,0,0,1-.154.834,7.943,7.943,0,0,1-2.909,4.492,8.153,8.153,0,0,1-11.509-11.315,7.606,7.606,0,0,1,1.714-1.714,7.722,7.722,0,0,1,2.069-1.109,8.234,8.234,0,0,1,4.286-.337,8.046,8.046,0,0,1,3.429,1.543,7.949,7.949,0,0,1,2.909,4.486,5.4,5.4,0,0,1,.154.84,3.688,3.688,0,0,1,.046.617c0,.154,0,.28,0,.383A1.051,1.051,0,0,1,436.1,155.246Z" transform="translate(-341.883 -127.429)" fill="#263238"/>
        <path id="Path_32638" data-name="Path 32638" d="M416.724,159.262a4.082,4.082,0,0,1-.743-.251,4.789,4.789,0,0,0-1.834-.24,4.994,4.994,0,0,0-1.771.469c-.429.211-.669.394-.7.354s.171-.269.571-.537a4.126,4.126,0,0,1,3.771-.251C416.518,159.022,416.747,159.239,416.724,159.262Z" transform="translate(-338.363 -132.302)" fill="#263238"/>
        <path id="Path_32639" data-name="Path 32639" d="M425.307,122.637c.12-.611-.086-.954.263-1.206s1.143.469,1.406.766c.091.1.366-.28.474-.349a2.084,2.084,0,0,0,.206-.783c-.051-.429-.72-.571-1.034-.834a3.178,3.178,0,0,0-1.114-.634,1.074,1.074,0,0,0-1.063.063,1.046,1.046,0,0,0-.24.8,2.187,2.187,0,0,0,.16.834,1.143,1.143,0,0,0,.571.606" transform="translate(-343.729 -115.597)" fill="#263238"/>
        <path id="Path_32640" data-name="Path 32640" d="M363.9,146.451s5.789,2.12,8.8,3.4l-.171-2.96-8.417-3.332S363.894,145.76,363.9,146.451Z" transform="translate(-317.888 -125.915)" fill="#ebebeb"/>
        <path id="Path_32641" data-name="Path 32641" d="M364.85,140.57a33.317,33.317,0,0,1,4.1,1.571,32.292,32.292,0,0,1,4,1.846,33.313,33.313,0,0,1-4.1-1.571A32.287,32.287,0,0,1,364.85,140.57Z" transform="translate(-318.295 -124.633)" fill="#ebebeb"/>
        <path id="Path_32642" data-name="Path 32642" d="M366.079,239.186l-.446-14.006s2.783,12.817,17.36,12.652c13.926-.16,13.675-11.292,13.675-11.292l.5,5.646v22.806L388.079,292.2l-11.606,1.451L363.65,242.792Z" transform="translate(-317.781 -160.894)" fill="#ff725e"/>
        <path id="Path_32643" data-name="Path 32643" d="M397.2,240.71a1.43,1.43,0,0,1-.166.3,8.428,8.428,0,0,1-.571.811,12,12,0,0,1-2.594,2.514,14.926,14.926,0,0,1-4.846,2.286,17.075,17.075,0,0,1-6.543.451,21.2,21.2,0,0,1-6.286-1.891,27.361,27.361,0,0,1-4.572-2.766,32.337,32.337,0,0,1-2.777-2.286c-.314-.286-.543-.526-.7-.686a1.541,1.541,0,0,1-.229-.251,1.576,1.576,0,0,1,.269.211l.743.64a35.162,35.162,0,0,0,2.823,2.217,28.5,28.5,0,0,0,4.572,2.686,21.321,21.321,0,0,0,6.2,1.84,17.086,17.086,0,0,0,6.429-.417,15.338,15.338,0,0,0,4.8-2.183,12.87,12.87,0,0,0,2.623-2.411C396.916,241.087,397.174,240.693,397.2,240.71Z" transform="translate(-319.607 -166.898)" fill="#263238"/>
        <path id="Path_32644" data-name="Path 32644" d="M365.389,354.462l-.211-66.116L346.4,240.11l-.629-14.52-11.429,8.652s-16.646,57.3-16.926,55.321,0,64.9,0,64.9Z" transform="translate(-297.914 -161.069)" fill="#ebebeb"/>
        <path id="Path_32645" data-name="Path 32645" d="M400.559,400.88c-.08,0-.149-14.9-.149-33.275s.069-33.275.149-33.275.149,14.9.149,33.275S400.639,400.88,400.559,400.88Z" transform="translate(-333.535 -207.671)" fill="#263238"/>
        <path id="Path_32646" data-name="Path 32646" d="M347.4,257.21l2.32,1.76-1.629,10.7L375.5,298.377l-24.892-32.692,2.12-8.475Z" transform="translate(-310.817 -174.62)" fill="#e0e0e0"/>
        <path id="Path_32647" data-name="Path 32647" d="M351.991,327.064l-42.064-12.332-1.394-31.949,11.537-42.092s-27.5,13.72-29.372,22.463-6.383,29.955-6.857,45.3c-.429,13.715-.491,22.858,2.64,27.264,8.972,12.537,68.082,14.777,91.694,0" transform="translate(-283.488 -167.54)" fill="#ebebeb"/>
        <path id="Path_32648" data-name="Path 32648" d="M375.909,285.479a1.324,1.324,0,0,1-.137-.154c-.086-.109-.223-.274-.377-.469l-1.429-1.829c-1.246-1.612-3.023-3.92-5.212-6.766l-17.1-22.383-1.286-1.714-.046-.057v-.069c.731-2.926,1.446-5.766,2.126-8.474l.137.183H347.12v-9.635l.046-.034,8.269-6.286,2.286-1.714.571-.44a1.087,1.087,0,0,1,.211-.137l-.189.166-.571.463-2.234,1.749-8.206,6.366.046-.091v9.44l-.137-.131h5.554l-.046.183-2.114,8.474-.029-.126,1.292,1.686L368.9,276.118l5.143,6.817c.571.8,1.057,1.423,1.383,1.863.149.206.263.371.354.491Z" transform="translate(-310.697 -161.031)" fill="#263238"/>
        <path id="Path_32649" data-name="Path 32649" d="M417.783,232.374c-3.354-5.863-5.1-5.257-5.1-5.257l.177,2.091V233.6l-1.594,18.858L401.08,293.427l.211,61.682h38.521l4.794-75.293-.434-32.441Z" transform="translate(-333.822 -161.716)" fill="#ebebeb"/>
        <path id="Path_32650" data-name="Path 32650" d="M429.924,262.58s9.972,7.36,10.857,19.206c.7,9.617,2.286,35.955,2.6,41.687.457,8.926-6.5,29.835-24.6,23.915C407.924,343.833,367.82,330.2,367.82,330.2l2.669-17.035,47.6,2.857.949-39.7Z" transform="translate(-319.568 -176.922)" fill="#ebebeb"/>
        <path id="Path_32651" data-name="Path 32651" d="M353.621,353.85s-13.475-1.457-16.572-.7c-3,.726-7.269,4.394-7.269,4.394l.063,5.32,21.675,6.063Z" transform="translate(-303.266 -215.642)" fill="#b78876"/>
        <path id="Path_32652" data-name="Path 32652" d="M401.09,287.293a.966.966,0,0,1,.063-.183c.046-.131.114-.309.2-.526.189-.48.463-1.143.806-2.012l3.017-7.383,4.5-10.937c.429-1.023.851-2.092,1.383-3.137s1.109-2.091,1.714-3.137a70.01,70.01,0,0,1,4.274-6.172c.777-1,1.56-1.977,2.371-2.914v.154l-1.68-4.269-.057-.143.143-.051,7.012-2.372-.074.194c-3.257-5.44-6.006-10.035-7.96-13.292a10.358,10.358,0,0,0-2.657-3.429,3.606,3.606,0,0,0-1.063-.429,3.653,3.653,0,0,1-.394-.1,3.3,3.3,0,0,1,.4.051,3.389,3.389,0,0,1,1.1.406,4.876,4.876,0,0,1,1.349,1.309,23.107,23.107,0,0,1,1.4,2.1L425,244.275l.086.143-.16.051-7.012,2.406.086-.189,1.686,4.269.034.08-.063.069c-.8.926-1.583,1.9-2.354,2.9a70.408,70.408,0,0,0-4.263,6.126c-.611,1.04-1.211,2.063-1.714,3.109s-.949,2.086-1.377,3.114c-1.714,4.1-3.269,7.8-4.572,10.915s-2.366,5.594-3.1,7.343c-.366.851-.657,1.52-.857,1.994-.1.217-.171.383-.234.514a.721.721,0,0,1-.091.171Z" transform="translate(-333.826 -161.742)" fill="#263238"/>
        <path id="Path_32653" data-name="Path 32653" d="M419.224,390.251a1.1,1.1,0,0,1-.166.177l-.514.5a14.794,14.794,0,0,1-2.189,1.657,14.606,14.606,0,0,1-4,1.68,16.1,16.1,0,0,1-5.714.366,18.07,18.07,0,0,1-3.286-.7c-1.143-.354-2.24-.794-3.429-1.206-2.349-.857-4.874-1.714-7.526-2.674-5.314-1.863-11.172-3.852-17.343-5.88-12.343-4.052-23.6-7.469-31.761-9.909l-9.669-2.857L331,370.621l-.68-.206a1.324,1.324,0,0,1-.229-.086l.24.051.686.183,2.646.726c2.286.64,5.606,1.583,9.714,2.771,8.172,2.383,19.429,5.772,31.789,9.829,6.177,2.023,12.035,4,17.343,5.9,2.651.943,5.172,1.84,7.52,2.7,1.177.423,2.286.869,3.429,1.223a17.715,17.715,0,0,0,3.24.7,16.087,16.087,0,0,0,5.669-.314,15.037,15.037,0,0,0,4-1.617,16.2,16.2,0,0,0,2.206-1.606l.531-.474a1.3,1.3,0,0,1,.12-.154Z" transform="translate(-303.399 -223.099)" fill="#263238"/>
        <path id="Path_32654" data-name="Path 32654" d="M321.887,370.282c0,.063-.76-.1-1.966-.051a8.643,8.643,0,0,0-2.08.343,9.464,9.464,0,0,0-2.343,1.069,10.948,10.948,0,0,0-3.263,3.349c-.634,1.029-.914,1.714-.966,1.714a2.013,2.013,0,0,1,.16-.509,8.8,8.8,0,0,1,.629-1.314,10.206,10.206,0,0,1,3.28-3.491,9.218,9.218,0,0,1,2.429-1.08,8.4,8.4,0,0,1,2.149-.291,7.012,7.012,0,0,1,1.451.131A1.955,1.955,0,0,1,321.887,370.282Z" transform="translate(-295.333 -222.965)" fill="#263238"/>
        <path id="Path_32655" data-name="Path 32655" d="M306.66,362.153a.372.372,0,0,1,.051-.154,1.509,1.509,0,0,1,.263-.371,2.7,2.7,0,0,1,1.5-.743,7.594,7.594,0,0,1,2.469,0,14,14,0,0,1,2.932.714,12.869,12.869,0,0,1,4.646,2.857,9.716,9.716,0,0,1,1.08,1.263,2.51,2.51,0,0,1,.314.52c-.051.04-.52-.691-1.537-1.629a13.64,13.64,0,0,0-4.606-2.714,15.48,15.48,0,0,0-2.857-.726,8.038,8.038,0,0,0-2.4-.069,2.754,2.754,0,0,0-1.446.617A5.6,5.6,0,0,0,306.66,362.153Z" transform="translate(-293.358 -219.007)" fill="#263238"/>
        <path id="Path_32656" data-name="Path 32656" d="M321.356,289.6a4.485,4.485,0,0,1-.194-.863c-.086-.274-.206-.6-.337-.977a6.875,6.875,0,0,0-.623-1.223,17.493,17.493,0,0,0-2.143-2.857,23.312,23.312,0,0,0-3.286-2.891,19.806,19.806,0,0,0-7.183-3.3,14.991,14.991,0,0,0-2.394-.309,5.363,5.363,0,0,1-.886-.069,4.979,4.979,0,0,1,.891-.046,12.173,12.173,0,0,1,2.429.217,18.858,18.858,0,0,1,7.315,3.263,21.636,21.636,0,0,1,3.314,2.943,16.427,16.427,0,0,1,2.126,2.937,9.69,9.69,0,0,1,.571,1.263,7.238,7.238,0,0,1,.3,1.011,6.024,6.024,0,0,1,.1.9Z" transform="translate(-292.351 -183.129)" fill="#263238"/>
        <path id="Path_32657" data-name="Path 32657" d="M429.317,370.348a1,1,0,0,1,0-.206v-.6c0-.526-.04-1.3-.114-2.286a32.057,32.057,0,0,0-1.714-8.234,11.649,11.649,0,0,0-1.143-2.514,4.931,4.931,0,0,0-2.229-1.892c-1.914-.823-4.217-.714-6.56-.846l-15.338-.646c-12.675-.571-23.949-1.029-31.035-1.406l.1-.08c-.429,2.606-.771,4.669-1.006,6.1-.12.691-.211,1.229-.28,1.612-.029.171-.057.309-.074.417l-.034.137a.673.673,0,0,1,0-.143l.057-.417c.051-.383.131-.926.229-1.623.217-1.434.526-3.5.92-6.114v-.08h.086l31.035,1.291,15.338.691c1.177.057,2.326.086,3.429.177a9.938,9.938,0,0,1,3.2.72,5.183,5.183,0,0,1,2.343,1.96,11.633,11.633,0,0,1,1.143,2.572,30.858,30.858,0,0,1,1.623,8.286c.063.994.063,1.772.057,2.286v.6C429.323,370.273,429.317,370.348,429.317,370.348Z" transform="translate(-320.453 -215.042)" fill="#263238"/>
        <path id="Path_32658" data-name="Path 32658" d="M457.889,319.24c.08,0,.149,4.612.149,10.286s-.069,10.286-.149,10.286-.149-4.612-.149-10.286S457.809,319.24,457.889,319.24Z" transform="translate(-358.104 -201.204)" fill="#263238"/>
        <path id="Path_32659" data-name="Path 32659" d="M290.924,278.17s-.034.131-.114.377a10.913,10.913,0,0,0-.343,1.143c-.28.989-.634,2.463-1.029,4.389-.794,3.852-1.771,9.486-2.857,16.538-.543,3.531-1.143,7.429-1.714,11.606-.291,2.1-.474,4.28-.623,6.543s-.269,4.572-.36,6.994c-.171,4.806-.274,9.88-.137,15.166.046,1.32.091,2.657.2,4,.034.674.149,1.337.229,2.006a16.9,16.9,0,0,0,.486,1.977,11.264,11.264,0,0,0,1.9,3.617,8.115,8.115,0,0,0,3.246,2.5h0a49.694,49.694,0,0,0,8.475,3.234c2.954.886,6.006,1.6,9.1,2.234a125.178,125.178,0,0,0,20.458,2.491,95.023,95.023,0,0,0,9.766-.251c3.183-.223,6.286-.571,9.286-1a97.677,97.677,0,0,0,16.663-3.874,84.916,84.916,0,0,0,13.475-5.783v.189l-18.435-6.554-4.977-1.777-1.286-.469c-.291-.109-.434-.171-.434-.171l.44.143,1.3.44,4.994,1.714,18.515,6.457.223.074-.206.114a85.092,85.092,0,0,1-13.5,5.834,97.557,97.557,0,0,1-16.7,3.914c-3.006.451-6.114.789-9.3,1.011a95.546,95.546,0,0,1-9.795.263,125,125,0,0,1-20.509-2.492c-3.109-.64-6.166-1.354-9.143-2.24a50.565,50.565,0,0,1-8.526-3.263h0a8.411,8.411,0,0,1-3.383-2.594,11.554,11.554,0,0,1-1.937-3.714,16.666,16.666,0,0,1-.5-2.011c-.086-.686-.194-1.36-.229-2.034-.109-1.349-.154-2.692-.194-4-.137-5.3,0-10.377.16-15.189q.137-3.6.371-7c.154-2.286.343-4.457.64-6.554.571-4.2,1.177-8.08,1.714-11.606,1.143-7.052,2.137-12.68,2.966-16.526.411-1.926.777-3.4,1.074-4.389.126-.5.286-.863.366-1.109A1.092,1.092,0,0,1,290.924,278.17Z" transform="translate(-283.382 -183.603)" fill="#263238"/>
        <path id="Path_32660" data-name="Path 32660" d="M329.74,339.978c7.034-7.789,6.726-21.635,2.686-31.458-.371,10.64-1.629,20.081-2.589,30.424" transform="translate(-303.249 -196.61)" fill="#e0e0e0"/>
        <path id="Path_32661" data-name="Path 32661" d="M332.485,312a1.576,1.576,0,0,1,0,.343c0,.257-.034.571-.063.971-.069.886-.16,2.1-.28,3.572-.251,3.051-.571,7.194-.966,11.777l-.926,11.783c-.109,1.474-.2,2.686-.269,3.572l-.086.966a2.282,2.282,0,0,1-.046.337,1.146,1.146,0,0,1,0-.337c0-.257,0-.571.029-.977.029-.846.091-2.069.171-3.577.177-3.017.463-7.189.84-11.789s.754-8.76,1.057-11.772c.154-1.474.28-2.68.371-3.566.051-.394.091-.714.12-.966A1.258,1.258,0,0,1,332.485,312Z" transform="translate(-303.291 -198.101)" fill="#263238"/>
        <path id="Path_32662" data-name="Path 32662" d="M364.7,287.38a60.161,60.161,0,0,1,.149,6.04,60.252,60.252,0,0,1-.149,6.04c-.08,0-.149-2.709-.149-6.04S364.619,287.38,364.7,287.38Z" transform="translate(-318.167 -187.55)" fill="#263238"/>
        <path id="Path_32663" data-name="Path 32663" d="M356.79,315.182a6.182,6.182,0,0,0,1.3,3.2,4.169,4.169,0,0,0,3.086,1.64,4.709,4.709,0,0,0,4.154-2.086c1.314-2.091,1.64-6.452.571-9.029-.726-1.771-2.354-3.429-4.269-3.469a4.727,4.727,0,0,0-4.629,3.6" transform="translate(-314.841 -195.289)" fill="#e0e0e0"/>
        <path id="Path_32664" data-name="Path 32664" d="M357.009,308.955a3.9,3.9,0,0,1,.463-1.234,5.086,5.086,0,0,1,.943-1.24,4.412,4.412,0,0,1,1.783-1.04,4.463,4.463,0,0,1,1.194-.194,3.594,3.594,0,0,1,1.309.171,5.143,5.143,0,0,1,2.331,1.674,6.738,6.738,0,0,1,1.377,2.857,12.539,12.539,0,0,1,.251,3.389,9.357,9.357,0,0,1-1.457,4.932,4.457,4.457,0,0,1-1.9,1.429,5.1,5.1,0,0,1-2.149.36h0a3.207,3.207,0,0,1-1.537-.377,5.172,5.172,0,0,1-1.143-.811,5.79,5.79,0,0,1-1.257-1.874,5.332,5.332,0,0,1-.4-1.389,3.015,3.015,0,0,1-.034-.377.392.392,0,0,1,0-.131,8.071,8.071,0,0,0,.571,1.84,5.8,5.8,0,0,0,1.269,1.789,5.052,5.052,0,0,0,1.143.754,3.029,3.029,0,0,0,1.429.337h0A4.571,4.571,0,0,0,365,318.1a9.208,9.208,0,0,0,1.383-4.777,8.64,8.64,0,0,0-1.543-6.057,4.949,4.949,0,0,0-2.217-1.594,3.538,3.538,0,0,0-1.229-.177,4.351,4.351,0,0,0-1.143.166,4.275,4.275,0,0,0-1.714.966,5.182,5.182,0,0,0-.954,1.171A11.435,11.435,0,0,0,357.009,308.955Z" transform="translate(-314.837 -195.204)" fill="#263238"/>
        <path id="Path_32665" data-name="Path 32665" d="M354.45,315.383a6.2,6.2,0,0,0,1.3,3.2,4.159,4.159,0,0,0,3.086,1.64,4.714,4.714,0,0,0,4.154-2.086c1.314-2.1,1.64-6.452.571-9.029-.726-1.777-2.354-3.429-4.269-3.469a4.726,4.726,0,0,0-4.629,3.594" transform="translate(-313.838 -195.375)" fill="#e0e0e0"/>
        <path id="Path_32666" data-name="Path 32666" d="M354.665,309.149a3.9,3.9,0,0,1,.463-1.229,5.086,5.086,0,0,1,.943-1.24,4.411,4.411,0,0,1,2.977-1.234,3.611,3.611,0,0,1,1.309.171,5.143,5.143,0,0,1,2.332,1.674,6.663,6.663,0,0,1,1.371,2.857,12.31,12.31,0,0,1,.257,3.389,9.373,9.373,0,0,1-1.457,4.932,4.457,4.457,0,0,1-1.9,1.429,5.1,5.1,0,0,1-2.149.36h0a3.206,3.206,0,0,1-1.537-.383,4.976,4.976,0,0,1-1.143-.806,5.657,5.657,0,0,1-1.257-1.88,5.3,5.3,0,0,1-.4-1.383,3.3,3.3,0,0,0-.04-.377.467.467,0,0,1,0-.131,8.082,8.082,0,0,0,.571,1.834,5.658,5.658,0,0,0,1.269,1.794,5.052,5.052,0,0,0,1.143.754,3.1,3.1,0,0,0,1.429.337h0a4.572,4.572,0,0,0,3.794-1.714,9.174,9.174,0,0,0,1.389-4.777,8.64,8.64,0,0,0-1.543-6.057,4.891,4.891,0,0,0-2.2-1.611,3.507,3.507,0,0,0-1.223-.177,4.308,4.308,0,0,0-2.857,1.143,5.182,5.182,0,0,0-.954,1.171,10.323,10.323,0,0,0-.589,1.154Z" transform="translate(-313.831 -195.29)" fill="#263238"/>
        <path id="Path_32667" data-name="Path 32667" d="M356.132,310.792a2.932,2.932,0,0,0-3.069,1.766,5.068,5.068,0,0,0,0,3.732,4.635,4.635,0,0,0,.954,1.68,2.515,2.515,0,0,0,1.714.829,2.983,2.983,0,0,0,2.36-1.394,5.337,5.337,0,0,0,.806-4.383c-.263-.994-.994-2.006-2.017-2.034" transform="translate(-313.092 -197.573)" fill="#e0e0e0"/>
        <path id="Path_32668" data-name="Path 32668" d="M356.772,310.96H357a1.554,1.554,0,0,1,.623.211,3.045,3.045,0,0,1,1.3,1.966,5.354,5.354,0,0,1-.354,3.5,4.435,4.435,0,0,1-1.28,1.68,2.48,2.48,0,0,1-2.206.531,3.086,3.086,0,0,1-1.76-1.44,6.453,6.453,0,0,1-.731-1.977,4.395,4.395,0,0,1,.571-3.429,3.074,3.074,0,0,1,1.989-1.269,2.245,2.245,0,0,1,.657,0c.143.028.217.051.217.063a4.5,4.5,0,0,0-.851.051,3.034,3.034,0,0,0-1.84,1.274,4.211,4.211,0,0,0-.474,3.274,6.155,6.155,0,0,0,.714,1.88,2.794,2.794,0,0,0,1.589,1.3,2.188,2.188,0,0,0,1.949-.469,4.358,4.358,0,0,0,1.211-1.566,5.234,5.234,0,0,0,.394-3.337,2.994,2.994,0,0,0-1.143-1.914,2.366,2.366,0,0,0-.806-.331Z" transform="translate(-312.989 -197.547)" fill="#263238"/>
        <path id="Path_32669" data-name="Path 32669" d="M361.49,326.16c-.046,0-.109-.183-.3-.411a2.125,2.125,0,0,0-.977-.623,4.91,4.91,0,0,0-1.2-.189c-.314,0-.52-.051-.52-.091s.194-.086.52-.12a3.355,3.355,0,0,1,1.291.114,1.868,1.868,0,0,1,1.057.789C361.536,325.926,361.524,326.154,361.49,326.16Z" transform="translate(-315.57 -203.547)" fill="#263238"/>
        <path id="Path_32670" data-name="Path 32670" d="M362.018,309.45a1.285,1.285,0,0,1-.354.411,2.748,2.748,0,0,1-1.206.526,2.857,2.857,0,0,1-1.314-.069c-.32-.109-.491-.234-.474-.269a6.714,6.714,0,0,0,1.714.046A7.137,7.137,0,0,0,362.018,309.45Z" transform="translate(-315.646 -197.008)" fill="#263238"/>
        <path id="Path_32671" data-name="Path 32671" d="M433.24,237.82a.432.432,0,0,1,.189.069,4.982,4.982,0,0,1,.509.263,10.058,10.058,0,0,1,1.714,1.223,12.257,12.257,0,0,1,3.68,5.817,37.2,37.2,0,0,1,1.4,6.777c.1.88.154,1.594.189,2.086a3.458,3.458,0,0,1,0,.771,4.353,4.353,0,0,1-.126-.76c-.074-.543-.171-1.24-.28-2.069a43.768,43.768,0,0,0-1.48-6.72,12.662,12.662,0,0,0-3.531-5.749A19.16,19.16,0,0,0,433.24,237.82Z" transform="translate(-347.604 -166.311)" fill="#263238"/>
        <path id="Path_32672" data-name="Path 32672" d="M420.621,346.67c1.657-.063,2.983-1.714,4.64-1.623a2.294,2.294,0,1,1-.389,4.572c-1.743-.2-2.76-2.24-4.463-2.629" transform="translate(-342.106 -212.262)" fill="#263238"/>
        <path id="Path_32673" data-name="Path 32673" d="M431.514,314.632a9.8,9.8,0,0,1-1.549-.126l.091-.572a6.537,6.537,0,0,0,5.109-1c1.714-1.24,2.783-3.463,3.24-6.606v-.12c.189-1.246.446-25.686.446-30.327a7.917,7.917,0,0,0-6.634-8.28c-.274-.04-6.04-1.011-9.109,6.9-3.211,8.292-8.349,24.269-8.686,26.144-.046.229-.109.514-.177.84-.537,2.4-1.646,7.389,1.68,10.257,3.709,3.206,6.634,1.966,6.754,1.914l.234.52c-.137.057-3.36,1.457-7.36-2-3.589-3.1-2.429-8.309-1.869-10.817.074-.32.131-.571.171-.817.343-1.886,5.5-17.932,8.72-26.246s9.669-7.275,9.715-7.257a8.615,8.615,0,0,1,7.109,8.84c0,3.823-.251,29.086-.451,30.412v.114c-.48,3.3-1.646,5.652-3.469,6.989A6.577,6.577,0,0,1,431.514,314.632Z" transform="translate(-338.953 -178.813)" fill="#263238"/>
        <path id="Path_32674" data-name="Path 32674" d="M446.079,285.069a10.527,10.527,0,0,0-1.189-2.857,9.836,9.836,0,0,0-2.257-2.446,9.713,9.713,0,0,0-3.674-1.714,10.737,10.737,0,0,0-7.229.943,12.923,12.923,0,0,0-2.52,1.8.824.824,0,0,1,.131-.171,3.966,3.966,0,0,1,.429-.457,8.57,8.57,0,0,1,1.857-1.354,10.617,10.617,0,0,1,7.4-1.052,9.818,9.818,0,0,1,3.772,1.806,9.487,9.487,0,0,1,2.286,2.554,7.427,7.427,0,0,1,.88,2.126,4.672,4.672,0,0,1,.12.617A.751.751,0,0,1,446.079,285.069Z" transform="translate(-345.877 -183.319)" fill="#263238"/>
        <path id="Path_32675" data-name="Path 32675" d="M474.343,364.112a20.114,20.114,0,0,0-.789-2.434,10.606,10.606,0,0,0-3.874-4.651,8.418,8.418,0,0,0-3.143-1.143,27.066,27.066,0,0,0-2.771-.286l-1.88-.131a3.3,3.3,0,0,1-.686-.091,2.861,2.861,0,0,1,.691,0l1.886.034a23.7,23.7,0,0,1,2.8.229,8.406,8.406,0,0,1,3.263,1.143,10.338,10.338,0,0,1,3.909,4.823,9.146,9.146,0,0,1,.526,1.823A2.614,2.614,0,0,1,474.343,364.112Z" transform="translate(-359.587 -216.68)" fill="#263238"/>
        <path id="Path_32676" data-name="Path 32676" d="M433.75,342.387s5.623-8.509,7.057-9.623,13.715-6.657,15.138-5.766.571,2.823.571,2.823,5.189-1.817,5.743-1.1a2.566,2.566,0,0,1,0,2.926s2.857-.44,2.857.446a3.64,3.64,0,0,1-1.657,2.983c-1.326.994-9.949,6.732-10.64,8.32l-2.794-.171Z" transform="translate(-347.823 -204.487)" fill="#b78876"/>
        <path id="Path_32677" data-name="Path 32677" d="M462.05,343.5a2.435,2.435,0,0,1,.257-.537,10.4,10.4,0,0,1,.926-1.326,15.427,15.427,0,0,1,4.074-3.429,30.815,30.815,0,0,1,4.823-2.286c.634-.246,1.143-.429,1.514-.571a2.493,2.493,0,0,1,.571-.16,2.172,2.172,0,0,1-.531.269l-1.48.634a39.168,39.168,0,0,0-4.743,2.326,17.034,17.034,0,0,0-4.069,3.309C462.5,342.785,462.1,343.527,462.05,343.5Z" transform="translate(-359.951 -208.039)" fill="#aa6550"/>
        <path id="Path_32678" data-name="Path 32678" d="M449.58,341.935a2.9,2.9,0,0,1,.274-.623c.194-.394.474-.96.863-1.646a15.737,15.737,0,0,1,1.549-2.286,7.134,7.134,0,0,1,1.177-1.171c.474-.32.971-.617,1.491-.926a40.619,40.619,0,0,1,5.486-2.731,14.8,14.8,0,0,1,1.76-.572,3.274,3.274,0,0,1,.674-.12c0,.051-.931.269-2.354.909a51.651,51.651,0,0,0-5.417,2.794c-.514.3-1.012.606-1.474.909a7.136,7.136,0,0,0-1.143,1.1,16.679,16.679,0,0,0-1.577,2.229l-.949,1.589A3.037,3.037,0,0,1,449.58,341.935Z" transform="translate(-354.607 -206.612)" fill="#aa6550"/>
      </g>
    </g>
  </g>
</svg>
