<svg xmlns="http://www.w3.org/2000/svg" xmlns:xlink="http://www.w3.org/1999/xlink" width="44" height="44" viewBox="0 0 48.783 48">
  <defs>
    <linearGradient id="linear-gradient" x1="0.07" y1="-0.064" x2="1.024" y2="1.621" gradientUnits="objectBoundingBox">
      <stop offset="0" stop-color="#fff"/>
      <stop offset="1" stop-color="#dee0ed"/>
    </linearGradient>
    <linearGradient id="linear-gradient-2" y1="0.5" x2="1" y2="0.5" gradientUnits="objectBoundingBox">
      <stop offset="0" stop-color="#faca5d"/>
      <stop offset="1" stop-color="#ff6d21"/>
    </linearGradient>
  </defs>
  <g id="Group_6113" data-name="Group 6113" transform="translate(-1039.615 -878.491)">
    <rect id="Rectangle_3305" data-name="Rectangle 3305" width="48" height="48" transform="translate(1040.007 878.491)" fill="none"/>
    <g id="Group_6112" data-name="Group 6112">
      <g id="Group_6110" data-name="Group 6110">
        <g id="Group_6109" data-name="Group 6109">
          <g id="Group_6108" data-name="Group 6108">
            <g id="Group_6107" data-name="Group 6107">
              <path id="Path_8063" data-name="Path 8063" d="M1081.2,900.479l-7.881-2.731-9.314,2.861-9.314-2.861-7.881,2.731-6.781,16.578,11.556-2.689,12.42,2.071,12.42-2.071,11.556,2.689Z" stroke="#c9c9c9" stroke-width="0.5" fill="url(#linear-gradient)"/>
              <path id="Path_8064" data-name="Path 8064" d="M1078.011,914.736l.653.152,2.886-4.4,4.1.869-.288-.705-3.707-.785-1.513-5.326,3.019.732-.294-.719-2.708-.656,1.165-3.117-.123-.3-.387-.134-1.271,3.4-5.392-1.306-.077-.018-2.577.673-.82-4.535-.606.186.815,4.509-7.13,1.862-9.824-3.3-4.411,1.342,1.062-3.985-.717.248-1.055,3.959-3.653,1.14-.309.756,4.11-1.283,3.257,4.079-3.738,1.119a1.063,1.063,0,0,0-.764-.809,1.232,1.232,0,0,0-1.356,1.068,1.6,1.6,0,0,0-.034.386l-3.807,1.14-.306.749,4.259-1.275a1.068,1.068,0,0,0,.354.4l-1.353,4.941.7-.163,1.266-4.628a1.318,1.318,0,0,0,1.056-1.077c.006-.028.006-.055.011-.083l4.252-1.273,3.916,1.136-.576,5.417.622.1.568-5.342,6.9,2,6.8-1.638a1.329,1.329,0,0,0,.513.494l-2.143,4.81.744-.124,2.017-4.525a1.312,1.312,0,0,0,.316-.032,1.332,1.332,0,0,0,1.023-1.219l1.942-.468,5.495,1.165Zm-21.272-5.669-3.8-1.1-3.333-4.173,4.2-1.313,3.509,1.139Zm14.057.574-6.6,1.59-6.846-1.986.577-5.422,5.806,1.951,7.264-1.9.795,4.4A1.333,1.333,0,0,0,1070.8,909.641Zm4.66-1.092-.07-.014-2.04.491a1.335,1.335,0,0,0-.912-.756l-.824-4.554,2.471-.645,5.359,1.3,1.52,5.348Z" fill="#c9c9c9"/>
            </g>
          </g>
        </g>
        <line id="Line_104" data-name="Line 104" x2="3.209" y2="4.018" transform="translate(1049.604 903.791)" fill="#fee379"/>
      </g>
      <path id="Path_8065" data-name="Path 8065" d="M1066.447,914.927c-3.758-5.4-7.75-10.613-9.733-16.976a8.358,8.358,0,0,1-.193-3.28c.563-5.352,5.328-9.123,10.964-8.76a10.082,10.082,0,0,1,9.223,10.07,11.585,11.585,0,0,1-.829,3.6C1074.467,903.375,1069.295,911.717,1066.447,914.927Zm-3.3-19.243a3.394,3.394,0,0,0,3.361,3.539,3.456,3.456,0,1,0,.038-6.913A3.413,3.413,0,0,0,1063.148,895.684Z" transform="translate(-2 -7.048)" fill="url(#linear-gradient-2)"/>
      <g id="Group_6111" data-name="Group 6111" transform="translate(-7 -2.82)">
        <path id="Path_8066" data-name="Path 8066" d="M1061.873,904.011h-8.44a.6.6,0,0,0-.6.6v.6h-3.014a.6.6,0,0,0,0,1.207h3.014v1.205h-1.809a.6.6,0,0,0,0,1.205h1.809v1.207h-.6a.6.6,0,1,0,0,1.205h.6v1.809a.6.6,0,0,0,.6.6h9.043v-9.043A.6.6,0,0,0,1061.873,904.011Z" transform="translate(0)" fill="#e71c37"/>
        <path id="Path_8067" data-name="Path 8067" d="M1067.146,908.881l-1.809-3.014a.6.6,0,0,0-.517-.293H1060.6a.6.6,0,0,0-.6.6V910.4h-8.441v1.809a.6.6,0,0,0,.6.6h14.469a.6.6,0,0,0,.6-.6v-3.014A.592.592,0,0,0,1067.146,908.881Z" transform="translate(1.273 0.849)" fill="#0ce277"/>
        <circle id="Ellipse_711" data-name="Ellipse 711" cx="1.206" cy="1.206" r="1.206" transform="translate(1064.285 911.848)" fill="#fafafa"/>
        <path id="Path_8068" data-name="Path 8068" d="M1060.4,912.316a1.809,1.809,0,1,1,1.809-1.809A1.811,1.811,0,0,1,1060.4,912.316Zm0-2.412a.6.6,0,1,0,.6.6A.605.605,0,0,0,1060.4,909.9Z" transform="translate(5.093 2.546)" fill="#1b1d1e"/>
        <circle id="Ellipse_712" data-name="Ellipse 712" cx="1.206" cy="1.206" r="1.206" transform="translate(1055.845 911.848)" fill="#fafafa"/>
        <path id="Path_8069" data-name="Path 8069" d="M1054.929,912.316a1.809,1.809,0,1,1,1.809-1.809A1.811,1.811,0,0,1,1054.929,912.316Zm0-2.412a.6.6,0,1,0,.6.6A.6.6,0,0,0,1054.929,909.9Z" transform="translate(2.122 2.546)" fill="#1b1d1e"/>
        <path id="Path_8070" data-name="Path 8070" d="M1058.589,906.355h2.07l1.447,2.411h-3.517Z" transform="translate(5.093 1.273)" fill="#fafafa"/>
      </g>
    </g>
  </g>
</svg>
