<svg id="Twiter_Gray" xmlns="http://www.w3.org/2000/svg" width="35.988" height="36" viewBox="0 0 35.988 36">
  <rect id="Rectangle_5541" data-name="Rectangle 5541" width="35.012" height="36" transform="translate(0.171)" fill="none"/>
  <g id="Group_16693" data-name="Group 16693" transform="translate(0 0.012)">
    <g id="Group_16686" data-name="Group 16686" transform="translate(0 0)">
      <path id="Path_24091" data-name="Path 24091" d="M4656.611,677.575a17.994,17.994,0,1,1,17.995-17.994A18.013,18.013,0,0,1,4656.611,677.575Z" transform="translate(-4638.618 -641.587)" fill="#a8a8a8"/>
    </g>
    <g id="Group_16692" data-name="Group 16692" transform="translate(7.446 9.361)">
      <g id="Group_16687" data-name="Group 16687" transform="translate(0)">
        <path id="Path_24092" data-name="Path 24092" d="M4670.789,657.848a8.639,8.639,0,0,1-2.118.6c.341-.057.844-.675,1.045-.924a3.891,3.891,0,0,0,.705-1.284c.019-.037.032-.082,0-.11a.121.121,0,0,0-.113.009,10.78,10.78,0,0,1-2.516.962.168.168,0,0,1-.173-.045,1.991,1.991,0,0,0-.219-.225,4.449,4.449,0,0,0-1.219-.747,4.233,4.233,0,0,0-1.868-.3,4.469,4.469,0,0,0-1.774.5,4.563,4.563,0,0,0-1.43,1.168,4.4,4.4,0,0,0-.855,1.711,4.619,4.619,0,0,0-.044,1.806c.013.1,0,.115-.087.1a13.433,13.433,0,0,1-8.643-4.4c-.1-.115-.156-.115-.238.009a4.382,4.382,0,0,0,.747,5.179c.169.16.343.321.531.467a4.416,4.416,0,0,1-1.668-.467c-.1-.064-.152-.028-.16.087a2.645,2.645,0,0,0,.025.495,4.435,4.435,0,0,0,2.732,3.533,2.565,2.565,0,0,0,.554.169,4.933,4.933,0,0,1-1.636.051c-.12-.023-.165.036-.12.151a4.6,4.6,0,0,0,3.438,2.878c.155.027.312.027.468.063-.01.014-.019.014-.028.028a5.434,5.434,0,0,1-2.347,1.244,8.4,8.4,0,0,1-3.564.457c-.192-.028-.231-.026-.284,0s-.006.078.056.128c.243.16.491.3.742.44a11.72,11.72,0,0,0,2.383.953,12.692,12.692,0,0,0,12.322-2.881c2.524-2.509,3.409-5.968,3.409-9.432,0-.136.16-.21.256-.282a8.291,8.291,0,0,0,1.669-1.744.506.506,0,0,0,.1-.334v-.018C4670.867,657.793,4670.874,657.809,4670.789,657.848Z" transform="translate(-4649.905 -655.778)" fill="#fff"/>
      </g>
      <g id="Group_16688" data-name="Group 16688" transform="translate(6.225 17.192)">
        <path id="Path_24093" data-name="Path 24093" d="M4659.353,681.868Z" transform="translate(-4659.352 -681.868)" fill="#fff" fill-rule="evenodd"/>
      </g>
      <g id="Group_16689" data-name="Group 16689" transform="translate(6.066 17.192)">
        <path id="Path_24094" data-name="Path 24094" d="M4659.27,681.868c-.028,0-.346,0,0,0Z" transform="translate(-4659.109 -681.868)" fill="#fff" fill-rule="evenodd"/>
      </g>
      <g id="Group_16690" data-name="Group 16690" transform="translate(6.931 17.195)">
        <path id="Path_24095" data-name="Path 24095" d="M4660.423,681.888c0-.036.371,0,0,0C4660.423,681.869,4660.468,681.888,4660.423,681.888Z" transform="translate(-4660.423 -681.872)" fill="#fff" fill-rule="evenodd"/>
      </g>
      <g id="Group_16691" data-name="Group 16691" transform="translate(14.259 0.025)">
        <path id="Path_24096" data-name="Path 24096" d="M4671.629,655.817a.074.074,0,0,1-.086,0Z" transform="translate(-4671.542 -655.817)" fill="#fff" fill-rule="evenodd"/>
      </g>
    </g>
  </g>
</svg>
