<svg xmlns="http://www.w3.org/2000/svg" width="44" height="44" viewBox="0 0 44 44"><defs><style>.a{fill:none;}.b{fill:#a87b2a;}.c{fill:#f4b844;}.d{fill:#ffe46c;}.e{fill:#e2a63b;}.f{fill:#e71c37;}</style></defs><g transform="translate(143 -8797)"><rect class="a" width="44" height="44" transform="translate(-143 8797)"/><g transform="translate(0 1)"><g transform="translate(-137 8813.584)"><path class="b" d="M280.463,317.919v4.375c0,1.486-3.963,2.724-8.833,2.724s-8.751-1.2-8.751-2.683v-.5l-.083-3.467h.041c.66,1.28,4.293,2.27,8.668,2.27s8.875-1.238,8.875-2.724h.083Z" transform="translate(-242.463 -299.013)"/><path class="c" d="M163.6,112.074v4.334h-.083c0,1.527-4.086,2.724-8.916,2.724a21.184,21.184,0,0,1-5.572-.619l-.083.083a9.644,9.644,0,0,0-3.055-1.692v-.083l-.124-4.582c.289,1.4,4.128,2.518,8.792,2.518s8.957-1.2,8.957-2.683Z" transform="translate(-134.49 -109.431)"/><path class="d" d="M163.6,81.35h0c0,1.486-4.086,2.683-8.957,2.683s-8.544-1.114-8.833-2.518c0-.041-.041-.124-.041-.165,0-1.486,3.963-2.724,8.875-2.724C159.555,78.584,163.6,79.822,163.6,81.35Z" transform="translate(-134.491 -78.624)"/><path class="c" d="M261.875,268.331h0l-.041-.908-.083-3.715c.289,1.4,4.128,2.518,8.792,2.518s8.792-1.2,8.916-2.642h.041v4.293h-.083c0,1.486-4,2.724-8.875,2.724S262.535,269.611,261.875,268.331Z" transform="translate(-241.5 -248.971)"/><path class="b" d="M188.608,314.4a8.856,8.856,0,0,0,2.435-3.8h.206c.908.083,1.816.124,2.807.124h.413v.908l.083,3.467H194.1a21.388,21.388,0,0,1-5.366-.578Z" transform="translate(-173.904 -292.277)"/><path class="c" d="M223.381,254.718v.206l.083,3.839h-.413c-1.032,0-1.981-.041-2.889-.124h-.206a8.472,8.472,0,0,0,.413-2.683,8.353,8.353,0,0,0-.206-1.775h.206c.867.083,1.734.124,2.683.124l.371.206A.449.449,0,0,0,223.381,254.718Z" transform="translate(-202.791 -240.311)"/><path class="e" d="M186.079,169.036a21.184,21.184,0,0,0,5.572.619c4.829,0,8.916-1.2,8.916-2.724h.083V171.8c-4.5,0-8.173,1.073-8.627,2.435l-.371-.206q-1.362,0-2.6-.124h-.206A8.332,8.332,0,0,0,186,169.077Z" transform="translate(-171.567 -159.954)"/><g transform="translate(0 6.894)"><path class="d" d="M17.626,172.942h0a9.035,9.035,0,0,0-2.931-4.912,7.843,7.843,0,0,0-3.137-1.734,7.973,7.973,0,0,0-2.6-.413,8.875,8.875,0,1,0-.165,17.749,9.054,9.054,0,0,0,6.109-2.353,8.964,8.964,0,0,0,2.477-3.921,8.22,8.22,0,0,0,.413-2.642C17.791,174.139,17.626,173.519,17.626,172.942Z" transform="translate(0 -165.883)"/><path class="d" d="M279.459,231.264v.083c-.124,1.445-4.128,2.642-8.916,2.642s-8.5-1.114-8.792-2.518v-.206a.524.524,0,0,1,.041-.248c.454-1.362,4.128-2.435,8.627-2.435h.124C275.414,228.581,279.459,229.778,279.459,231.264Z" transform="translate(-241.5 -223.627)"/></g></g><path class="f" d="M8.763,28.56V20.57a.664.664,0,0,1,1.328,0v7.99a.664.664,0,0,1-1.328,0Zm2.045-3.837V20.57a.664.664,0,0,1,1.328,0v4.154a.664.664,0,0,1-1.328,0Zm-4.09,0V20.57a.664.664,0,0,1,1.328,0v4.154a.664.664,0,0,1-1.328,0ZM4.4,18.435a.67.67,0,0,1-.671-.67V10.1H.672A.671.671,0,0,1,.2,8.952L8.953.2A.671.671,0,0,1,9.9.2l8.755,8.755a.671.671,0,0,1-.474,1.146H15.127v7.667a.67.67,0,0,1-.67.67Z" transform="translate(-143 8797)"/></g></g></svg>