<svg xmlns="http://www.w3.org/2000/svg" xmlns:xlink="http://www.w3.org/1999/xlink" width="44" height="44.499" viewBox="0 0 44 44.499">
  <defs>
    <linearGradient id="linear-gradient" x1="0.462" y1="0.03" x2="0.5" y2="1.077" gradientUnits="objectBoundingBox">
      <stop offset="0" stop-color="#faca5d"/>
      <stop offset="1" stop-color="#ff6d21"/>
    </linearGradient>
    <linearGradient id="linear-gradient-2" x1="0" y1="0.5" x2="1" y2="0.5" xlink:href="#linear-gradient"/>
  </defs>
  <g id="Upcoming_Consultation" data-name="Upcoming Consultation" transform="translate(-1430 -3218)">
    <rect id="Rectangle_6047" data-name="Rectangle 6047" width="44" height="44" transform="translate(1430 3218)" fill="none"/>
    <g id="Group_18648" data-name="Group 18648" transform="translate(1431 3218)">
      <path id="Path_25811" data-name="Path 25811" d="M58.194,70.521H49.461a1.039,1.039,0,0,0,0,2.078h8.733a1.039,1.039,0,0,0,0-2.078Z" transform="translate(-33.012 -45.964)" fill="#2699fb"/>
      <path id="Path_25812" data-name="Path 25812" d="M27.8,46.551a1.4,1.4,0,0,0,1.974,0l2.2-2.2a1.039,1.039,0,0,0-1.467-1.472l0,0L28.791,44.6l-.492-.492a1.064,1.064,0,0,0-1.469,0,1.04,1.04,0,0,0,0,1.469Z" transform="translate(-18.883 -27.937)" fill="#e71c37"/>
      <path id="Path_25813" data-name="Path 25813" d="M49.458,45.828a1.039,1.039,0,0,0,0,2.078h8.733a1.039,1.039,0,0,0,0-2.078Z" transform="translate(-33.007 -30.038)" fill="#2699fb"/>
      <path id="Path_25814" data-name="Path 25814" d="M27.8,71.246a1.4,1.4,0,0,0,1.974,0h0l2.2-2.2a1.039,1.039,0,0,0-1.469-1.469h0L28.791,69.3,28.3,68.8a1.064,1.064,0,0,0-1.469,0,1.04,1.04,0,0,0,0,1.469Z" transform="translate(-18.883 -43.869)" fill="#e71c37"/>
      <path id="Path_25815" data-name="Path 25815" d="M31.459,13.721H43.867a2.275,2.275,0,0,0,2.115-1.646,1.773,1.773,0,0,0,.078-.408V9.009a1.984,1.984,0,0,0-.078-.412,2.329,2.329,0,0,0-.316-.656,2.275,2.275,0,0,0-1.87-.972H42.459V6.777A4.746,4.746,0,0,0,37.725,2.1h-.071a4.793,4.793,0,0,0-3.36,1.37,4.71,4.71,0,0,0-1.412,3.307v.192H31.544a2.275,2.275,0,0,0-1.87.972,2.333,2.333,0,0,0-.316.656,1.838,1.838,0,0,0-.078.426v2.626a1.728,1.728,0,0,0,.078.426A2.268,2.268,0,0,0,31.459,13.721Zm3.669-6.955A2.5,2.5,0,0,1,37.615,4.35h.11a2.5,2.5,0,0,1,2.487,2.416v.2H35.128Z" transform="translate(-20.763 -2.1)" fill="url(#linear-gradient)"/>
      <g id="Group_18639" data-name="Group 18639" transform="translate(0 6.74)">
        <path id="Path_25816" data-name="Path 25816" d="M30.865,54.481H11.318a3.273,3.273,0,0,1-3.047-1.9,5.171,5.171,0,0,1-.391-2.446V30.821c0-1.405-.007-2.993.074-4.514a3.294,3.294,0,0,1,3.054-3.01c.31-.025.652-.032,1.072-.038h.144V20.244h-.652a6.243,6.243,0,0,0-2.994.645A6.6,6.6,0,0,0,5,27.13c.007,3.841.007,7.742.007,11.52V39.9C5,42.34,5,40.322,5,42.758c.007,1.037,0,2.092,0,3.115L5,46.311c0,2.934-.01,2.082.05,5.082A6.314,6.314,0,0,0,11.3,57.5h.028c3.467-.014,6.856-.028,10.308-.028h.734c2.126,0,10.77,0,14.921.011C37.253,57.456,32.036,55.589,30.865,54.481Z" transform="translate(-4.993 -20.24)" fill="#08ce73" stroke="rgba(0,0,0,0)" stroke-width="1"/>
        <path id="Path_25817" data-name="Path 25817" d="M81.7,23.264a3.275,3.275,0,0,1,3.054,2.978c.081,1.505.078,3.076.078,4.466v9.105a10.74,10.74,0,0,1,1.432.652,11.367,11.367,0,0,1,1.435-.656c0-5,0-10.749.007-12.753a6.527,6.527,0,0,0-3.575-6.176,6.294,6.294,0,0,0-2.994-.638h-.649v2.982h.141C81.043,23.232,81.385,23.239,81.7,23.264Z" transform="translate(-53.695 -20.24)" fill="#08ce73"/>
      </g>
      <g id="Group_18641" data-name="Group 18641" transform="translate(22.355 24.126)">
        <rect id="Rectangle_6046" data-name="Rectangle 6046" width="19.871" height="19.871" rx="3" transform="translate(-0.354 -0.127)" fill="#fff"/>
        <g id="Icon_ionic-ios-chatboxes" data-name="Icon ionic-ios-chatboxes" transform="translate(1.646 -0.127)">
          <path id="Subtraction_44" data-name="Subtraction 44" d="M2.68,13.623a.232.232,0,0,1-.157-.057.214.214,0,0,1-.068-.164V11.054c0-.254-.141-.367-.455-.367H1.954a2.081,2.081,0,0,1-1.342-.514A1.657,1.657,0,0,1,0,8.924V1.768A1.761,1.761,0,0,1,1.764,0H12.047a1.77,1.77,0,0,1,1.768,1.768v7.16a1.768,1.768,0,0,1-1.768,1.763H6.163a.5.5,0,0,0-.352.148l-2.924,2.7A.3.3,0,0,1,2.68,13.623ZM4.435,1.662a.325.325,0,0,0-.116.029L4.285,1.7a2.64,2.64,0,0,0-.412.218,1.227,1.227,0,0,0-.493.521c-.116.25-.18.662.366,1.632a9.077,9.077,0,0,0,1.6,2.136l0,0a9.149,9.149,0,0,0,2.135,1.6,2.836,2.836,0,0,0,1.268.445.826.826,0,0,0,.364-.079,1.216,1.216,0,0,0,.521-.493,2.591,2.591,0,0,0,.217-.409l.014-.037c.044-.114.07-.183-.161-.413a5.577,5.577,0,0,0-1.158-.775.925.925,0,0,0-.39-.122.552.552,0,0,0-.33.136l-.067.05-.016.012a.651.651,0,0,1-.391.183.451.451,0,0,1-.1-.011,3.37,3.37,0,0,1-1.149-.85A3.4,3.4,0,0,1,5.26,4.3a.56.56,0,0,1,.169-.483l.01-.013.056-.076c.178-.248.18-.376.014-.72a5.484,5.484,0,0,0-.775-1.158C4.6,1.717,4.511,1.662,4.435,1.662Z" transform="translate(-0.001 4.38)" stroke="rgba(0,0,0,0)" stroke-width="1" fill="url(#linear-gradient-2)"/>
          <path id="Path_41635" data-name="Path 41635" d="M13.607,9.278H5.375v-.39A1.513,1.513,0,0,1,6.888,7.375H15.32a1.513,1.513,0,0,1,1.513,1.513v5.026a1.513,1.513,0,0,1-1.513,1.513h-.2V10.791A1.52,1.52,0,0,0,13.607,9.278Z" transform="translate(-0.833 -5.375)" fill="#e71c37"/>
        </g>
      </g>
    </g>
  </g>
</svg>
