<svg xmlns="http://www.w3.org/2000/svg" width="233.182" height="30" viewBox="0 0 233.182 30">
  <g id="upi-intent-icn" transform="translate(-62 -353)">
    <g id="upi-intent-icn-2" data-name="upi-intent-icn" transform="translate(-575.999 -85)">
      <g id="Union_172" data-name="Union 172" transform="translate(9576 1438)" fill="#fff">
        <path d="M -8883.0009765625 -970.499267578125 C -8885.453125 -970.499267578125 -8887.8671875 -971.1204223632812 -8890 -972.2981567382812 C -8892.1337890625 -971.1204833984375 -8894.548828125 -970.499267578125 -8897.0009765625 -970.499267578125 C -8899.095703125 -970.499267578125 -8901.1123046875 -970.9351196289062 -8903 -971.7950439453125 C -8904.8876953125 -970.9351196289062 -8906.9052734375 -970.499267578125 -8909 -970.499267578125 C -8911.4521484375 -970.499267578125 -8913.8662109375 -971.1204833984375 -8916 -972.2981567382812 C -8918.1328125 -971.1204223632812 -8920.546875 -970.499267578125 -8923 -970.499267578125 C -8926.873046875 -970.499267578125 -8930.5146484375 -972.0076293945312 -8933.2529296875 -974.74658203125 C -8935.9921875 -977.4855346679688 -8937.5009765625 -981.126708984375 -8937.5009765625 -984.9993896484375 C -8937.5009765625 -988.8729858398438 -8935.9921875 -992.5144653320312 -8933.2529296875 -995.2531127929688 C -8930.5146484375 -997.991455078125 -8926.873046875 -999.49951171875 -8923 -999.49951171875 C -8920.546875 -999.49951171875 -8918.1328125 -998.8784790039062 -8916 -997.701171875 C -8913.8662109375 -998.8784790039062 -8911.4521484375 -999.49951171875 -8909 -999.49951171875 C -8906.9052734375 -999.49951171875 -8904.8876953125 -999.0637817382812 -8903 -998.2041625976562 C -8901.1123046875 -999.0637817382812 -8899.095703125 -999.49951171875 -8897.0009765625 -999.49951171875 C -8894.548828125 -999.49951171875 -8892.1337890625 -998.8784790039062 -8890 -997.701171875 C -8887.8671875 -998.8784790039062 -8885.453125 -999.49951171875 -8883.0009765625 -999.49951171875 C -8879.126953125 -999.49951171875 -8875.4853515625 -997.991455078125 -8872.7470703125 -995.2530517578125 C -8870.0087890625 -992.5147094726562 -8868.5009765625 -988.8732299804688 -8868.5009765625 -984.9993896484375 C -8868.5009765625 -981.12646484375 -8870.0087890625 -977.4852294921875 -8872.7470703125 -974.74658203125 C -8875.486328125 -972.0076904296875 -8879.1279296875 -970.499267578125 -8883.0009765625 -970.499267578125 Z" stroke="none"/>
        <path d="M -8883.0009765625 -970.999267578125 C -8875.267578125 -970.999267578125 -8869.0009765625 -977.2681884765625 -8869.0009765625 -984.9993896484375 C -8869.0009765625 -992.73291015625 -8875.267578125 -998.99951171875 -8883.0009765625 -998.99951171875 C -8885.5498046875 -998.99951171875 -8887.94140625 -998.3177490234375 -8890 -997.1268920898438 C -8892.0595703125 -998.3177490234375 -8894.4501953125 -998.99951171875 -8897.0009765625 -998.99951171875 C -8899.1474609375 -998.99951171875 -8901.181640625 -998.5164794921875 -8903 -997.6527099609375 C -8904.818359375 -998.5164794921875 -8906.8525390625 -998.99951171875 -8909 -998.99951171875 C -8911.5498046875 -998.99951171875 -8913.9404296875 -998.3177490234375 -8916 -997.1268920898438 C -8918.05859375 -998.3177490234375 -8920.4501953125 -998.99951171875 -8923 -998.99951171875 C -8930.7314453125 -998.99951171875 -8937.0009765625 -992.73291015625 -8937.0009765625 -984.9993896484375 C -8937.0009765625 -977.2681884765625 -8930.7314453125 -970.999267578125 -8923 -970.999267578125 C -8920.4501953125 -970.999267578125 -8918.05859375 -971.6812744140625 -8916 -972.8724365234375 C -8913.9404296875 -971.6812744140625 -8911.5498046875 -970.999267578125 -8909 -970.999267578125 C -8906.8525390625 -970.999267578125 -8904.818359375 -971.4824829101562 -8903 -972.3464965820312 C -8901.181640625 -971.4824829101562 -8899.1474609375 -970.999267578125 -8897.0009765625 -970.999267578125 C -8894.4501953125 -970.999267578125 -8892.0595703125 -971.6812744140625 -8890 -972.8724365234375 C -8887.94140625 -971.6812744140625 -8885.5498046875 -970.999267578125 -8883.0009765625 -970.999267578125 M -8883.0009765625 -969.999267578125 C -8885.4453125 -969.999267578125 -8887.853515625 -970.5961303710938 -8890 -971.7299194335938 C -8892.1474609375 -970.5960693359375 -8894.5556640625 -969.999267578125 -8897.0009765625 -969.999267578125 C -8899.0908203125 -969.999267578125 -8901.1064453125 -970.4188842773438 -8903 -971.2474365234375 C -8904.8935546875 -970.4188842773438 -8906.9091796875 -969.999267578125 -8909 -969.999267578125 C -8911.4443359375 -969.999267578125 -8913.8525390625 -970.5960693359375 -8916 -971.7299194335938 C -8918.146484375 -970.5961303710938 -8920.5546875 -969.999267578125 -8923 -969.999267578125 C -8927.0068359375 -969.999267578125 -8930.7734375 -971.5596313476562 -8933.6064453125 -974.3930053710938 C -8936.4404296875 -977.2263793945312 -8938.0009765625 -980.9931640625 -8938.0009765625 -984.9993896484375 C -8938.0009765625 -989.0065307617188 -8936.4404296875 -992.7736206054688 -8933.6064453125 -995.606689453125 C -8930.7734375 -998.439453125 -8927.0068359375 -999.99951171875 -8923 -999.99951171875 C -8920.5546875 -999.99951171875 -8918.146484375 -999.4028930664062 -8916 -998.269287109375 C -8913.8525390625 -999.40283203125 -8911.4443359375 -999.99951171875 -8909 -999.99951171875 C -8906.9091796875 -999.99951171875 -8904.8935546875 -999.5800170898438 -8903 -998.751708984375 C -8901.1064453125 -999.5800170898438 -8899.0908203125 -999.99951171875 -8897.0009765625 -999.99951171875 C -8894.5556640625 -999.99951171875 -8892.1474609375 -999.40283203125 -8890 -998.269287109375 C -8887.853515625 -999.4028930664062 -8885.4453125 -999.99951171875 -8883.0009765625 -999.99951171875 C -8878.9931640625 -999.99951171875 -8875.2265625 -998.4393920898438 -8872.3935546875 -995.6066284179688 C -8869.5615234375 -992.7738037109375 -8868.0009765625 -989.0067749023438 -8868.0009765625 -984.9993896484375 C -8868.0009765625 -980.992919921875 -8869.5615234375 -977.2261352539062 -8872.3935546875 -974.39306640625 C -8875.2265625 -971.5596923828125 -8878.994140625 -969.999267578125 -8883.0009765625 -969.999267578125 Z" stroke="none" fill="#e6e6e6"/>
      </g>
      <g id="Group_28531" data-name="Group 28531" transform="translate(14 40)">
        <circle id="Ellipse_1602" data-name="Ellipse 1602" cx="14" cy="14" r="14" transform="translate(665 399)" fill="#fff"/>
        <g id="Group_28532" data-name="Group 28532" transform="translate(668 402)">
          <g id="Group_5903" data-name="Group 5903" transform="translate(0 0)">
            <path id="Subtraction_19" data-name="Subtraction 19" d="M10.858,22A10.943,10.943,0,0,1,0,11,10.942,10.942,0,0,1,10.858,0a10.613,10.613,0,0,1,7.629,3.238,11.13,11.13,0,0,1,.024,15.523A10.612,10.612,0,0,1,10.858,22ZM12.3,15.638V18.29a.28.28,0,0,0,.261.264h1.178A.28.28,0,0,0,14,18.29V9.41h1.243a.281.281,0,0,0,.262-.264V7.887a.162.162,0,0,0-.008-.16.227.227,0,0,0-.187-.105H13.346L12.3,5.832l-1.636-2.85A.34.34,0,0,0,10.4,2.85H9.028a.271.271,0,0,0-.223.115.313.313,0,0,0-.039.282l3.206,4.373H6.347a.282.282,0,0,0-.262.266V9.146a.281.281,0,0,0,.262.264H7.655v3.314a3.625,3.625,0,0,0,.326,1.457A3.233,3.233,0,0,0,10.86,15.97a3.491,3.491,0,0,0,1.438-.331Zm-1.44-1.457a1.467,1.467,0,0,1-1.439-1.457V9.41H12.3v3.314A1.468,1.468,0,0,1,10.86,14.181Z" fill="#673ab7"/>
          </g>
        </g>
      </g>
      <g id="Group_28528" data-name="Group 28528" transform="translate(0 40)">
        <circle id="Ellipse_1602-2" data-name="Ellipse 1602" cx="14" cy="14" r="14" transform="translate(665 399)" fill="#fff"/>
        <g id="XMLID_2_" transform="translate(654.212 402.989)">
          <g id="XMLID_3_" transform="translate(19.437 0.012)">
            <path id="XMLID_5_" d="M821.844,85.7l5.027,10-10.571,10Z" transform="translate(-812.758 -85.7)" fill="#098041"/>
            <path id="XMLID_4_" d="M782.752,85.7l5.027,10-10.58,10Z" transform="translate(-777.2 -85.7)" fill="#e97626"/>
          </g>
        </g>
      </g>
      <g id="Group_28529" data-name="Group 28529" transform="translate(0 40)">
        <circle id="Ellipse_1603" data-name="Ellipse 1603" cx="14" cy="14" r="14" transform="translate(653 399)" fill="#fff"/>
        <g id="amazon-icon-1" transform="translate(653.51 403.562)">
          <path id="Path_47505" data-name="Path 47505" d="M19.81,191.679c-7.429,3.536-12.04.577-14.992-1.219-.183-.113-.493.026-.224.336a11.82,11.82,0,0,0,8.412,4.066,9.794,9.794,0,0,0,7.026-2.7c.311-.4.091-.616-.223-.485Zm2.087-1.152c-.2-.26-1.213-.308-1.851-.23s-1.6.467-1.515.7c.043.088.13.048.569.009s1.673-.2,1.93.136-.393,1.949-.512,2.209.044.327.26.154a3.369,3.369,0,0,0,.857-1.255,2.933,2.933,0,0,0,.262-1.724Z" transform="translate(0 -176.423)" fill="#f90"/>
          <path id="Path_47506" data-name="Path 47506" d="M58.371,8.041a4.658,4.658,0,0,1-.445,2.525,1.931,1.931,0,0,1-1.648,1.082c-.914,0-1.447-.7-1.447-1.725,0-2.03,1.819-2.4,3.54-2.4Zm2.4,5.8a.5.5,0,0,1-.563.057,5.862,5.862,0,0,1-1.366-1.588,4.712,4.712,0,0,1-3.925,1.732,3.379,3.379,0,0,1-3.564-3.711,4.046,4.046,0,0,1,2.539-3.892,16.5,16.5,0,0,1,4.478-.827V5.308a3.064,3.064,0,0,0-.288-1.725,1.593,1.593,0,0,0-1.336-.62,1.815,1.815,0,0,0-1.916,1.43.5.5,0,0,1-.412.435l-2.311-.248a.422.422,0,0,1-.355-.5c.533-2.8,3.061-3.644,5.325-3.644a5.4,5.4,0,0,1,3.587,1.186c1.159,1.082,1.048,2.525,1.048,4.1V9.431a3.257,3.257,0,0,0,.9,2.207.447.447,0,0,1-.007.633c-.486.405-1.35,1.159-1.825,1.581l-.007-.007" transform="translate(-43.557)" fill-rule="evenodd"/>
          <path id="Path_47507" data-name="Path 47507" d="M19.81,191.679c-7.429,3.536-12.04.577-14.992-1.219-.183-.113-.493.026-.224.336a11.82,11.82,0,0,0,8.412,4.066,9.794,9.794,0,0,0,7.026-2.7c.311-.4.091-.616-.223-.485Zm2.087-1.152c-.2-.26-1.213-.308-1.851-.23s-1.6.467-1.515.7c.043.088.13.048.569.009s1.673-.2,1.93.136-.393,1.949-.512,2.209.044.327.26.154a3.369,3.369,0,0,0,.857-1.255,2.933,2.933,0,0,0,.262-1.724Z" transform="translate(0 -176.423)" fill="#f90"/>
          <path id="Path_47508" data-name="Path 47508" d="M58.371,8.041a4.658,4.658,0,0,1-.445,2.525,1.931,1.931,0,0,1-1.648,1.082c-.914,0-1.447-.7-1.447-1.725,0-2.03,1.819-2.4,3.54-2.4Zm2.4,5.8a.5.5,0,0,1-.563.057,5.862,5.862,0,0,1-1.366-1.588,4.712,4.712,0,0,1-3.925,1.732,3.379,3.379,0,0,1-3.564-3.711,4.046,4.046,0,0,1,2.539-3.892,16.5,16.5,0,0,1,4.478-.827V5.308a3.064,3.064,0,0,0-.288-1.725,1.593,1.593,0,0,0-1.336-.62,1.815,1.815,0,0,0-1.916,1.43.5.5,0,0,1-.412.435l-2.311-.248a.422.422,0,0,1-.355-.5c.533-2.8,3.061-3.644,5.325-3.644a5.4,5.4,0,0,1,3.587,1.186c1.159,1.082,1.048,2.525,1.048,4.1V9.431a3.257,3.257,0,0,0,.9,2.207.447.447,0,0,1-.007.633c-.486.405-1.35,1.159-1.825,1.581l-.007-.007" transform="translate(-43.557)" fill-rule="evenodd"/>
        </g>
      </g>
      <g id="Group_28530" data-name="Group 28530" transform="translate(0 40)">
        <circle id="Ellipse_1212" data-name="Ellipse 1212" cx="14" cy="14" r="14" transform="translate(639 399)" fill="#fff"/>
        <g id="Paytm" transform="translate(641 409)">
          <path id="Path_2459" data-name="Path 2459" d="M197.673,232.548l.2-.159a1.464,1.464,0,0,1,2.164.174c.06.07.089.074.149.015.04-.045.084-.079.124-.124a1.5,1.5,0,0,1,2.571,1.067c.01,1.425,0,2.844,0,4.269a.761.761,0,0,1-.814.824c-.2,0-.4-.015-.6,0s-.263-.045-.263-.258c.01-1.39,0-2.78,0-4.169v-.174c0-.323-.134-.457-.442-.472a.453.453,0,0,0-.5.437c-.005.065,0,.134,0,.2v3.6a.753.753,0,0,1-.829.829c-.268,0-.63.119-.784-.055-.134-.149-.045-.5-.045-.764v-3.7c0-.437-.283-.66-.65-.511a.493.493,0,0,0-.3.516c0,1.152,0,2.3,0,3.45v.273a.758.758,0,0,1-.8.789c-.2,0-.4-.015-.6,0s-.278-.04-.273-.268c.01-1.951,0-3.9,0-5.857,0-.084,0-.164,0-.248-.01-.109.035-.144.144-.144.457,0,.908,0,1.365,0,.114,0,.169.03.159.154A2.06,2.06,0,0,0,197.673,232.548Z" transform="translate(-178.886 -230.913)" fill="#02b9ef"/>
          <path id="Path_2460" data-name="Path 2460" d="M-57.662,237.11v2.035a1.207,1.207,0,0,1-1.35,1.345c-.387,0-.779,0-1.166,0a1.346,1.346,0,0,1-1.4-1.315,15.949,15.949,0,0,1,0-1.688,1.429,1.429,0,0,1,1.469-1.38c.213,0,.432,0,.645,0s.288-.124.283-.323-.089-.288-.288-.278q-.335.007-.67,0a.766.766,0,0,1-.844-.844c0-.218-.1-.511.045-.64.124-.109.407-.04.62-.04.556,0,1.107,0,1.663,0a.951.951,0,0,1,1,1C-57.657,235.685-57.662,236.4-57.662,237.11Zm-1.519,1.127v-.248c0-.506,0-.506-.506-.486a.367.367,0,0,0-.4.4c0,.208,0,.412,0,.62,0,.357.164.452.68.467.382.01.189-.258.223-.407A2.7,2.7,0,0,0-59.181,238.237Z" transform="translate(65.926 -232.785)" fill="#06306f"/>
          <path id="Path_2461" data-name="Path 2461" d="M31.494,236.969c0,.759.01,1.524,0,2.283a1.491,1.491,0,0,1-.715,1.43,1.6,1.6,0,0,1-.735.2c-.571.01-1.142,0-1.712.01-.139,0-.169-.05-.164-.174.01-.208,0-.412,0-.62a.724.724,0,0,1,.71-.715c.258-.01.511,0,.769,0,.208,0,.323-.084.323-.308s-.109-.308-.318-.313a4.037,4.037,0,0,1-1.037-.06,1.383,1.383,0,0,1-1.037-1.276c-.03-.968-.01-1.936-.015-2.9,0-.109.035-.144.144-.139.407,0,.809.01,1.216,0,.179,0,.154.094.154.2v2.184c0,.318.149.486.427.5.328.01.472-.124.472-.457,0-.735,0-1.474,0-2.209,0-.174.045-.223.218-.218.362.015.73.02,1.092,0,.2-.01.228.065.223.238C31.489,235.4,31.494,236.185,31.494,236.969Z" transform="translate(-18.812 -233.186)" fill="#06306f"/>
          <path id="Path_2462" data-name="Path 2462" d="M-148.651,237.805v-2.432a1.181,1.181,0,0,1,1.286-1.281,8.6,8.6,0,0,1,1.559.04,1.3,1.3,0,0,1,1.082,1.32c0,.72,0,1.439,0,2.159a1.359,1.359,0,0,1-1.435,1.479c-.273.01-.546,0-.819,0-.124,0-.179.035-.174.169.01.2,0,.4,0,.6a.725.725,0,0,1-.735.74c-.248,0-.561.1-.72-.04s-.04-.452-.045-.69C-148.656,239.18-148.651,238.49-148.651,237.805Zm1.5-1.216v.472c0,.561,0,.561.561.511a.344.344,0,0,0,.362-.382c0-.278-.01-.561,0-.839.03-.8-.119-.725-.774-.73-.119,0-.159.035-.159.154C-147.147,236.043-147.152,236.316-147.152,236.589Z" transform="translate(148.685 -232.895)" fill="#06306f"/>
          <path id="Path_2463" data-name="Path 2463" d="M117.385,215.2c0-.66,0-1.325,0-1.985,0-.154-.035-.218-.2-.213-.223.01-.521.074-.645-.035-.154-.144-.035-.452-.055-.69v-.05c0-.233-.074-.506.025-.68s.4-.065.615-.119a1.8,1.8,0,0,0,1-.69,1.136,1.136,0,0,1,.69-.447c.154-.03.248-.01.238.189-.015.278,0,.561,0,.844,0,.119.04.159.159.154.2,0,.4,0,.6,0,.119,0,.159.04.154.159,0,.407,0,.809,0,1.216,0,.114-.03.174-.154.159a.372.372,0,0,0-.074,0c-.218.02-.521-.1-.635.05s-.04.427-.04.65c0,1.35,0,2.7,0,4.045,0,.189-.05.248-.238.233s-.362,0-.546,0a.871.871,0,0,1-.889-.918Z" transform="translate(-103.299 -210.276)" fill="#02b9ef"/>
        </g>
      </g>
    </g>
    
  </g>
</svg>