<svg xmlns="http://www.w3.org/2000/svg" width="240" height="240" viewBox="0 0 240 240"><defs><style>.a{fill:none;}.b{fill:#0ce277;}.c{fill:#e71c37;}.d{fill:#2699fb;}.e{fill:#d0f0fe;}</style></defs><g transform="translate(-3333.238 -2894.406)"><rect class="a" width="240" height="240" transform="translate(3333.238 2894.406)"/><g transform="translate(3335.397 2894.406)"><g transform="translate(0 98.423)"><path d="M3451.154,3022.468V3004.4a7.507,7.507,0,0,0-7.515-7.514H3342.426a7.506,7.506,0,0,0-7.516,7.514v18.067a7.508,7.508,0,0,0,7.516,7.517h101.213A7.508,7.508,0,0,0,3451.154,3022.468Zm-112.405,0V3004.4a3.619,3.619,0,0,1,3.678-3.677h101.213a3.62,3.62,0,0,1,3.677,3.677v18.067a3.621,3.621,0,0,1-3.677,3.679H3342.426A3.62,3.62,0,0,1,3338.749,3022.468Z" transform="translate(-3334.911 -2963.077)"/><path d="M3396.019,2999.057V2978.43c0-1.758.8-2.717,2.717-2.717h46.208v29.739a7.052,7.052,0,0,0,7.356,7.355H3487v10.074a15.014,15.014,0,0,1,4.636,0v-12.791a2.778,2.778,0,0,0-.958-1.758c-1.918-1.759-3.838-3.357-5.756-5.118-11.832-10.552-23.5-21.105-35.337-31.658a3.366,3.366,0,0,0-2.079-.8c-2.239-.161-4.478,0-6.715,0H3398.9a6.965,6.965,0,0,0-7.354,7.354v21.906h4.8C3396.019,2999.856,3396.019,2999.376,3396.019,2999.057Zm86.982,9.274v.159H3453.26a3.125,3.125,0,0,1-1.279-.159,2.132,2.132,0,0,1-1.919-2.239c-.32-8.954-.32-18.068-.32-27.342C3460.935,2988.663,3471.967,2998.417,3483,3008.331Z" transform="translate(-3318.47 -2970.684)"/><path d="M3406.836,3035.133a2.283,2.283,0,0,0-2.239-2.559,2.313,2.313,0,0,0-2.4,2.559v26.542a5.542,5.542,0,0,0,5.756,5.756h17.27a2.231,2.231,0,0,0,2.4-2.559,2.411,2.411,0,0,0-2.719-2.079h-16.308c-1.439,0-1.758-.16-1.758-1.758v-25.9Z" transform="translate(-3315.375 -2952.715)"/><path d="M3425.742,3058.269a2.459,2.459,0,0,0,2.4,2.4,2.356,2.356,0,0,0,2.4-2.4,2.4,2.4,0,0,0-4.8,0Z" transform="translate(-3308.541 -2945.952)"/><path d="M3444.7,3042.024a28.621,28.621,0,0,0,57.242,0,28.187,28.187,0,0,0-.958-7.355l-4.157,2.558a22.878,22.878,0,0,1,.479,4.638,24.032,24.032,0,1,1-3.518-12.472l4-2.4a28.627,28.627,0,0,0-53.085,15.03Z" transform="translate(-3303.036 -2958.328)"/><path d="M3562.547,3078.735h-60.6a2.021,2.021,0,0,0,.161-.959c.32-1.918,0-6.876,0-8.634a10.241,10.241,0,0,1-4.477.159v6.875a2.354,2.354,0,0,1-2.558,2.559h-85.543a2.446,2.446,0,0,1-2.718-2.719V3026.13h-4.8v50.207a9.415,9.415,0,0,0,.32,2.238h-45.569a2.4,2.4,0,1,0,0,4.8h205.782a2.459,2.459,0,0,0,2.4-2.4A2.229,2.229,0,0,0,3562.547,3078.735Z" transform="translate(-3329.263 -2954.587)"/><path d="M3472.231,3076.689h-77.549a2.4,2.4,0,0,0,0,4.8h77.549a2.459,2.459,0,0,0,2.4-2.4A2.354,2.354,0,0,0,3472.231,3076.689Z" transform="translate(-3318.254 -2939.908)"/><path d="M3482.444,3076.689H3464.7a2.4,2.4,0,1,0,0,4.8h17.747a2.459,2.459,0,0,0,2.4-2.4A2.265,2.265,0,0,0,3482.444,3076.689Z" transform="translate(-3297.928 -2939.908)"/></g><g transform="translate(64.278 64.757)"><path class="b" d="M3508.275,3021.566a2.378,2.378,0,0,0-3.357-.8l-38.374,22.864-6.557-9.114a2.528,2.528,0,0,0-4.158,2.877l8,11.034a2.579,2.579,0,0,0,2.079.958,3.767,3.767,0,0,0,1.279-.32l40.452-24.144A2.611,2.611,0,0,0,3508.275,3021.566Z" transform="translate(-3364.212 -2922.594)"/><path class="b" d="M3391.6,2944.593a6.875,6.875,0,1,0,6.875,6.875A6.824,6.824,0,0,0,3391.6,2944.593Zm0,11.831a4.956,4.956,0,1,1,4.957-4.957A4.98,4.98,0,0,1,3391.6,2956.424Z" transform="translate(-3384.726 -2944.593)"/></g><g transform="translate(9.274 18.867)"><path class="c" d="M3351.211,3014.146a5.573,5.573,0,0,0-1.118-2.4,4.021,4.021,0,0,0,1.6-3.357,3.852,3.852,0,0,0-1.278-3.039,6.322,6.322,0,0,0-4.317-1.279,19.849,19.849,0,0,0-3.357.32l-.641.159v14.229h3.357v-5.6h.64c.959,0,1.438.159,1.759,1.758a15.363,15.363,0,0,0,.958,3.359l.32.478h3.677l-.639-1.278C3352.012,3016.864,3351.532,3015.266,3351.211,3014.146Zm-4.8-4h-.8v-3.039h.8c2.079,0,2.079,1.12,2.079,1.6C3348.495,3009.989,3346.894,3010.149,3346.416,3010.149Z" transform="translate(-3342.098 -2881.435)"/><path class="c" d="M3355.865,3012.707h4.957v-3.2h-4.957v-2.239h5.276v-3.2h-8.634v14.55h8.794v-3.038h-5.436Z" transform="translate(-3339.076 -2881.435)"/><path class="c" d="M3371.591,3015.3a4.894,4.894,0,0,1-2.4.48c-2.558,0-4-1.6-4-4.318-.32-2.717,1.119-4.477,3.838-4.477a5.136,5.136,0,0,1,2.238.48l.958.48.961-3.039-.641-.318a7.66,7.66,0,0,0-3.358-.64,7.219,7.219,0,0,0-7.514,7.514c0,4.478,2.877,7.355,7.194,7.355a12.816,12.816,0,0,0,3.838-.639l.64-.32-.8-3.039Z" transform="translate(-3336.414 -2881.471)"/><path class="c" d="M3376.312,3012.707h4.956v-3.2h-4.956v-2.239h5.276v-3.2h-8.635v14.55h8.955v-3.038h-5.6Z" transform="translate(-3333.14 -2881.435)"/><rect class="c" width="3.358" height="14.55" transform="translate(52.125 122.639)"/><path class="c" d="M3394.151,3011.072c-.16.64-.479,1.28-.638,1.919a9.068,9.068,0,0,0-.64-1.919l-2.239-6.875h-3.677l4.8,14.55h3.038l5.116-14.55h-3.677Z" transform="translate(-3329.075 -2881.398)"/><path class="c" d="M3402.333,3012.707h4.957v-3.2h-4.957v-2.239h5.277v-3.2h-8.634v14.55h8.954v-3.038h-5.6Z" transform="translate(-3325.585 -2881.435)"/><path class="c" d="M3412.995,3004.073a28.423,28.423,0,0,0-3.678.32l-.8.159v14.07l.8.159a18.278,18.278,0,0,0,3.038.161,8.848,8.848,0,0,0,6.236-2.079,7.357,7.357,0,0,0,2.078-5.6,6.642,6.642,0,0,0-2.078-5.275C3417.471,3004.713,3415.553,3004.073,3412.995,3004.073Zm-.161,11.672h-.8v-8.635h1.119a4.509,4.509,0,0,1,3.359,1.12,4.335,4.335,0,0,1,.958,3.038C3417.312,3014.146,3415.873,3015.745,3412.834,3015.745Z" transform="translate(-3322.814 -2881.435)"/><path class="c" d="M3436.819,2939.512a4.811,4.811,0,0,0-4.8,4.8,4.712,4.712,0,0,0,4.8,4.8,4.8,4.8,0,0,0,0-9.594Zm0,7.515a2.878,2.878,0,1,1,2.877-2.877A2.866,2.866,0,0,1,3436.819,2947.027Z" transform="translate(-3315.992 -2900.178)"/><path class="c" d="M3377.5,2909.028a4.8,4.8,0,1,0,4.8,4.8A4.919,4.919,0,0,0,3377.5,2909.028Zm0,7.675a2.878,2.878,0,1,1,2.878-2.878A2.866,2.866,0,0,1,3377.5,2916.7Z" transform="translate(-3333.211 -2909.028)"/></g><g transform="translate(0.959)"><path class="d" d="M3340.452,2973.218a4.8,4.8,0,1,0,4.8,4.8A4.915,4.915,0,0,0,3340.452,2973.218Zm0,7.676a2.878,2.878,0,1,1,2.877-2.879A2.967,2.967,0,0,1,3340.452,2980.894Z" transform="translate(-3335.654 -2871.525)"/><path class="d" d="M3484.415,2894.406a6.875,6.875,0,1,0,6.876,6.876A7.033,7.033,0,0,0,3484.415,2894.406Zm0,12a4.956,4.956,0,1,1,4.958-4.957A5.089,5.089,0,0,1,3484.415,2906.405Z" transform="translate(-3294.462 -2894.406)"/><path class="d" d="M3496.311,2973.094a6.875,6.875,0,1,0,6.876,6.875A7.033,7.033,0,0,0,3496.311,2973.094Zm0,11.831a4.956,4.956,0,1,1,4.957-4.956A4.981,4.981,0,0,1,3496.311,2984.925Z" transform="translate(-3291.008 -2871.561)"/></g><g transform="translate(123.118 23.665)"><path class="e" d="M3476.853,2947.583a1.764,1.764,0,0,0-.8-1.6l-1.118-.639-.64-1.12a1.834,1.834,0,0,0-1.439-.958,1.533,1.533,0,0,0-1.6.479l-.96.8-1.278.161a2.327,2.327,0,0,0-1.439.958,2.2,2.2,0,0,0-.16,1.759l.48,1.28-.16,1.278a1.935,1.935,0,0,0,.479,1.6,2.056,2.056,0,0,0,1.6.64l1.279-.16,1.119.64a2.022,2.022,0,0,0,.96.161,1.189,1.189,0,0,0,.8-.161,2.84,2.84,0,0,0,1.12-1.28l.32-1.278.958-.959A1.533,1.533,0,0,0,3476.853,2947.583Zm-1.918.16-.959.96a1.382,1.382,0,0,0-.479.958l-.32,1.28-1.119-.64a2.034,2.034,0,0,0-.96-.16h-.16l-1.279.16.16-1.279a2.028,2.028,0,0,0-.16-.96l-.48-1.278,1.279-.161a1.382,1.382,0,0,0,.959-.479l.958-.8.64,1.119a3.5,3.5,0,0,0,.64.8l1.279.479C3474.935,2947.583,3475.094,2947.583,3474.935,2947.743Z" transform="translate(-3419.589 -2903.903)"/><path class="e" d="M3437.948,2914.824l-.64-1.12a2.334,2.334,0,0,0-1.439-.958,3.084,3.084,0,0,0-1.6.479l-.959.8-1.279.16a1.838,1.838,0,0,0-1.439.96,2.324,2.324,0,0,0-.16,1.758l.48,1.279-.16,1.279a1.531,1.531,0,0,0,.48,1.6,2.051,2.051,0,0,0,1.6.641l1.279-.16,1.119.64a2.024,2.024,0,0,0,.958.16,6.317,6.317,0,0,0,.96-.32,1.55,1.55,0,0,0,1.119-1.279l.32-1.279.959-.959a2.7,2.7,0,0,0,.48-1.6,2.33,2.33,0,0,0-.959-1.439Zm-.96,3.358c-.16.32-.32.64-.48.958l-.32,1.28-1.119-.64a2.024,2.024,0,0,0-.958-.16h-1.279l.16-1.279a2.033,2.033,0,0,0-.16-.96l-.48-1.278,1.28-.16.959-.479.96-.8.639,1.119a1.6,1.6,0,0,0,.64.8l1.12.64Z" transform="translate(-3430.327 -2912.746)"/></g></g></g></svg>