<svg xmlns="http://www.w3.org/2000/svg" width="28" height="28" viewBox="0 0 28 28"><defs><style>.a{fill:none;}.b{fill:#404040;}</style></defs><g transform="translate(-1955.5 -384.9)"><rect class="a" width="28" height="28" transform="translate(1955.5 384.9)"/><g transform="translate(1955.641 386.874)"><path class="b" d="M1982.059,396.789h-.7v-3.5a2.657,2.657,0,0,0-2.66-2.657H1958.82a1.6,1.6,0,0,1-1.68-1.538,1.3,1.3,0,0,1,.42-.839,2.377,2.377,0,0,1,1.82-.559h18.9a.7.7,0,1,0,0-1.4H1958.96c-.84,0-3.36.28-3.36,3.636v18.041a2.69,2.69,0,0,0,2.8,2.657h20.3a2.657,2.657,0,0,0,2.66-2.657v-3.5h.7a1.4,1.4,0,0,0,1.4-1.4v-4.615A1.486,1.486,0,0,0,1982.059,396.789Zm-2.24,11.048a1.254,1.254,0,0,1-1.26,1.259h-20.3a1.254,1.254,0,0,1-1.26-1.259V392.174a1.778,1.778,0,0,0,.84.14h20.719a1.254,1.254,0,0,1,1.26,1.259v3.5h-4.06a1.4,1.4,0,0,0-1.4,1.4v4.615a1.4,1.4,0,0,0,1.4,1.4h4.06Zm2.1-5.035h-6.02v-4.475h6.02Z" transform="translate(-1955.6 -386.3)"/><path class="b" d="M1977.6,387.8H1958a.7.7,0,0,0,0,1.41h19.6a.666.666,0,0,0,.705-.7A.756.756,0,0,0,1977.6,387.8Z" transform="translate(-1954.903 -385.685)"/><path class="b" d="M1971.313,398.338a.666.666,0,0,0,.705-.7V396.5a.705.705,0,0,0-1.41,0v1.128C1970.467,397.915,1970.89,398.338,1971.313,398.338Zm-.282-1.974a.282.282,0,0,1,.564,0v1.128a.282.282,0,0,1-.564,0Z" transform="translate(-1949.617 -382.527)"/><path class="b" d="M1966.248,395.91h-.846c0-.282-.141-.423-.282-.705h1.269v-.7H1962.3v.846h.846c.7,0,.987.141,1.269.564h-1.974v.7h2.115c0,.282-.282.423-.423.564a2.091,2.091,0,0,1-.987.141h-.705v.846c.564.564,1.41,1.551,2.256,2.538h.987a.138.138,0,0,0,.141-.141v-.141a13.031,13.031,0,0,0-2.115-2.4,1.787,1.787,0,0,0,1.269-.564,1.465,1.465,0,0,0,.564-1.128h.846v-.564c0,.282-.141.282-.141.141Z" transform="translate(-1952.931 -383.064)"/><path class="b" d="M1965.463,392.5a6.063,6.063,0,1,0,6.063,6.063A6.018,6.018,0,0,0,1965.463,392.5Zm0,11a4.935,4.935,0,1,1,4.935-4.935A5,5,0,0,1,1965.463,403.5Z" transform="translate(-1954.109 -383.957)"/></g></g></svg>