<svg xmlns="http://www.w3.org/2000/svg" width="43.544" height="43.733" viewBox="0 0 43.544 43.733"><defs><style>.a{fill:#e5e5e5;}.b,.d{fill:#fff;}.c{fill:#20b038;}.d{fill-rule:evenodd;}</style></defs><path class="a" d="M.931,43.734a.931.931,0,0,1-.9-1.176L2.876,32.175a21.686,21.686,0,1,1,18.983,11.2H21.85A21.729,21.729,0,0,1,11.816,40.91L1.167,43.7A.936.936,0,0,1,.931,43.734Zm0,0" transform="translate(0)"/><path class="b" d="M10.895,52.766l2.944-10.751A20.755,20.755,0,1,1,31.823,52.407h-.009A20.737,20.737,0,0,1,21.9,49.881Zm11.511-6.641.63.373a17.226,17.226,0,0,0,8.78,2.4h.007A17.248,17.248,0,1,0,17.21,40.821l.41.653-1.743,6.363Zm0,0" transform="translate(-9.964 -9.964)"/><path class="c" d="M19.344,59.8l2.842-10.379A20.035,20.035,0,1,1,39.547,59.457h-.009a20.031,20.031,0,0,1-9.574-2.438Zm0,0" transform="translate(-17.691 -17.726)"/><g transform="translate(0.931 0.931)"><path class="b" d="M10.895,52.766l2.944-10.751A20.755,20.755,0,1,1,31.823,52.407h-.009A20.737,20.737,0,0,1,21.9,49.881Zm11.511-6.641.63.373a17.226,17.226,0,0,0,8.78,2.4h.007A17.248,17.248,0,1,0,17.21,40.821l.41.653-1.743,6.363Zm0,0" transform="translate(-10.895 -10.895)"/><path class="d" d="M137.8,142.522c-.388-.864-.8-.881-1.167-.9-.3-.013-.648-.012-.993-.012a1.9,1.9,0,0,0-1.382.649,5.818,5.818,0,0,0-1.815,4.327,10.1,10.1,0,0,0,2.117,5.366c.259.346,3.586,5.752,8.854,7.832,4.378,1.728,5.269,1.385,6.22,1.3s3.066-1.255,3.5-2.467a4.336,4.336,0,0,0,.3-2.467c-.13-.216-.475-.346-.993-.605s-3.066-1.515-3.542-1.688-.821-.259-1.166.26-1.338,1.687-1.641,2.033-.6.39-1.123.131a14.17,14.17,0,0,1-4.168-2.575,15.63,15.63,0,0,1-2.884-3.593c-.3-.519-.005-.775.228-1.059a15.645,15.645,0,0,0,1.3-1.774.957.957,0,0,0-.043-.909C139.27,146.114,138.262,143.548,137.8,142.522Zm0,0" transform="translate(-122.058 -130.453)"/></g></svg>