<svg id="Youtube_Gray" xmlns="http://www.w3.org/2000/svg" width="36.001" height="36" viewBox="0 0 36.001 36">
  <rect id="Rectangle_5539" data-name="Rectangle 5539" width="35.907" height="36" transform="translate(0.094 0)" fill="none"/>
  <g id="Group_16700" data-name="Group 16700" transform="translate(0 0)">
    <g id="Group_16697" data-name="Group 16697" transform="translate(0 0)">
      <path id="Path_24099" data-name="Path 24099" d="M4586.843,677.372a17.953,17.953,0,1,1,17.953-17.953A17.973,17.973,0,0,1,4586.843,677.372Z" transform="translate(-4568.89 -641.466)" fill="#a8a8a8"/>
    </g>
    <g id="Group_16699" data-name="Group 16699" transform="translate(7.489 10.596)">
      <g id="Group_16698" data-name="Group 16698">
        <path id="Path_24100" data-name="Path 24100" d="M4601.575,662.237a4.626,4.626,0,0,0-4.625-4.625h-12a4.625,4.625,0,0,0-4.625,4.625v5.622a4.625,4.625,0,0,0,4.625,4.626h12a4.626,4.626,0,0,0,4.625-4.626Zm-7.569,3.094-4.785,2.624c-.208.113-.395-.038-.395-.275v-5.386c0-.239.193-.39.4-.271l4.817,2.762A.314.314,0,0,1,4594.006,665.331Z" transform="translate(-4580.327 -657.611)" fill="#fff"/>
      </g>
    </g>
  </g>
</svg>
